M48
METRIC,0000.00
T01C0.4
T02C0.85
T03C0.9
T04C3.175
T05C3.25
%
T01
X+007922Y+002206
X+007922Y+001793
X+008652Y+002174
X+008652Y+002333
X+008811Y+002047
X+007414Y+001095
X+006905Y+001095
X+005254Y+001857
X+005127Y+001984
X+004937Y+001952
X+004937Y+002460
X+005128Y+002523
X+004556Y+002492
X+004238Y+001634
X+003857Y+001698
X+005604Y+003127
X+005667Y+003381
X+006334Y+002936
T02
X+006588Y+002523
X+006588Y+002777
X+006842Y+002790
X+006842Y+002536
X+007096Y+002523
X+007096Y+002777
X+007350Y+002790
X+007350Y+002536
X+007604Y+002523
X+007604Y+002777
T03
X+002968Y+001444
X+003222Y+001444
X+003476Y+001444
X+003730Y+001444
X+003984Y+001444
X+004238Y+001444
X+004492Y+001444
X+004746Y+001444
X+005000Y+001444
X+005254Y+001444
X+005509Y+001444
X+005762Y+001444
X+006016Y+001444
X+006271Y+001444
X+006524Y+001444
X+006778Y+001444
X+007033Y+001444
X+007286Y+001444
X+007540Y+001444
X+007794Y+001444
X+008048Y+001444
X+008302Y+001444
X+008556Y+001444
X+008556Y+001190
X+008302Y+001190
X+008048Y+001190
X+007794Y+001190
X+007540Y+001190
X+007286Y+001190
X+007033Y+001190
X+006778Y+001190
X+006524Y+001190
X+006271Y+001190
X+006016Y+001190
X+005762Y+001190
X+005509Y+001190
X+005254Y+001190
X+005000Y+001190
X+004746Y+001190
X+004492Y+001190
X+004238Y+001190
X+003984Y+001190
X+003730Y+001190
X+003476Y+001190
X+003222Y+001190
X+002968Y+001190
X+002429Y+002174
X+002175Y+002174
X+001921Y+002174
X+004048Y+002523
X+004302Y+002523
X+004302Y+002777
X+004048Y+002777
X+004048Y+003031
X+004048Y+003285
X+004302Y+003285
X+004302Y+003031
X+004302Y+003539
X+004048Y+003539
X+004048Y+003793
X+004302Y+003793
X+004302Y+004047
X+004048Y+004047
X+004048Y+004301
X+004302Y+004301
X+004302Y+004555
X+004048Y+004555
X+004048Y+004809
X+004302Y+004809
X+004238Y+006016
X+004492Y+006016
X+004746Y+006016
X+005000Y+006016
X+005254Y+006016
X+005509Y+006016
X+005762Y+006016
X+006016Y+006016
X+006271Y+006016
X+006524Y+006016
X+006778Y+006016
X+007033Y+006016
X+007286Y+006016
X+007540Y+006016
X+007794Y+006016
X+008048Y+006016
X+008302Y+006016
X+008556Y+006016
X+008556Y+006270
X+008302Y+006270
X+008048Y+006270
X+007794Y+006270
X+007540Y+006270
X+007286Y+006270
X+007033Y+006270
X+006778Y+006270
X+006524Y+006270
X+006271Y+006270
X+006016Y+006270
X+005762Y+006270
X+005509Y+006270
X+005254Y+006270
X+005000Y+006270
X+004746Y+006270
X+004492Y+006270
X+004238Y+006270
X+003984Y+006270
X+003984Y+006016
X+003730Y+006016
X+003476Y+006016
X+003222Y+006016
X+002968Y+006016
X+002968Y+006270
X+003222Y+006270
X+003476Y+006270
X+003730Y+006270
X+005762Y+003793
X+005762Y+003539
X+006016Y+003539
X+006016Y+003793
X+006048Y+002555
X+005794Y+002555
X+005540Y+002555
X+008366Y+002523
X+008366Y+002777
X+008366Y+003031
X+008366Y+003285
X+008366Y+003539
X+008366Y+003793
X+008366Y+004047
X+008366Y+004301
X+008366Y+004555
X+008366Y+004809
X+008620Y+004809
X+008620Y+004555
X+008620Y+004301
X+008620Y+004047
X+008620Y+003793
X+008620Y+003539
X+008620Y+003285
X+008620Y+003031
X+008620Y+002777
X+008620Y+002523
T04
X+009064Y+005825
X+009064Y+001634
X+002461Y+001317
X+002461Y+006143
T05
X+008430Y+005159
T00
M30
