G04 DipTrace 2.3.1.0*
%INbbblp30.GTO*%
%MOMM*%
%ADD10C,0.25*%
%ADD12C,0.076*%
%ADD52C,0.196*%
%ADD53C,0.235*%
%FSLAX53Y53*%
G04*
G71*
G90*
G75*
G01*
%LNTopSilk*%
%LPD*%
X96360Y20801D2*
D10*
Y53796D1*
X84926Y10010D2*
G03X96360Y20801I576J10843D01*
G01*
X84926Y64587D2*
G02X96360Y53796I576J-10843D01*
G01*
X10000Y30953D2*
X30321D1*
Y48723D1*
X16987D1*
Y64587D1*
Y10010D2*
G02X10000Y16356I-447J6527D01*
G01*
Y30953D1*
X16987Y10010D2*
X84926D1*
Y64587D2*
X16987D1*
X16668Y24281D2*
X26828D1*
Y19201D1*
X16668D1*
Y24281D1*
X52862Y28091D2*
X63023D1*
Y23011D1*
X52862D1*
Y28091D1*
X64610Y29044D2*
X77310D1*
Y23964D1*
X64610D1*
Y29044D1*
X52863Y29679D2*
X63023D1*
Y21424D1*
X52863D1*
Y29679D1*
X48735Y43014D2*
X65562D1*
Y33489D1*
X48735D1*
Y43014D1*
X35400Y49047D2*
Y24281D1*
X36035Y24916D2*
X37940D1*
X36988Y42062D2*
Y25234D1*
X91598Y49047D2*
Y24281D1*
X20763Y54078D2*
D12*
X20915D1*
X21827D2*
X22435D1*
X23727D2*
X23955D1*
X25019D2*
X25247D1*
X20687Y54002D2*
X20915D1*
X21673D2*
X22511D1*
X23631D2*
X24016D1*
X24923D2*
X25308D1*
X20611Y53925D2*
X20915D1*
X21532D2*
X22584D1*
X23553D2*
X24064D1*
X24845D2*
X25355D1*
X20535Y53850D2*
X20915D1*
X21426D2*
X22647D1*
X23526D2*
X24101D1*
X24818D2*
X25391D1*
X20459Y53774D2*
X20915D1*
X21346D2*
X21906D1*
X22420D2*
X22692D1*
X23513D2*
X23741D1*
X23865D2*
X24140D1*
X24805D2*
X25033D1*
X25157D2*
X25424D1*
X20383Y53697D2*
X20915D1*
X21320D2*
X21918D1*
X22465D2*
X22718D1*
X23512D2*
X23768D1*
X23838D2*
X24183D1*
X24804D2*
X25060D1*
X25130D2*
X25462D1*
X20304Y53622D2*
X20611D1*
X20778D2*
X20915D1*
X21309D2*
X21559D1*
X21639D2*
X21944D1*
X22490D2*
X22730D1*
X23545D2*
X24133D1*
X24837D2*
X25508D1*
X20219Y53546D2*
X20535D1*
X20730D2*
X20915D1*
X21308D2*
X21979D1*
X22502D2*
X22736D1*
X23593D2*
X24083D1*
X24885D2*
X25566D1*
X33379D2*
X33683D1*
X20127Y53470D2*
X20459D1*
X20692D2*
X20915D1*
X21341D2*
X21916D1*
X22508D2*
X22738D1*
X23644D2*
X24034D1*
X24936D2*
X25633D1*
X33303D2*
X33744D1*
X20041Y53393D2*
X20386D1*
X20652D2*
X20915D1*
X21390D2*
X21839D1*
X22510D2*
X22739D1*
X23684D2*
X23996D1*
X24976D2*
X25171D1*
X25332D2*
X25705D1*
X27299D2*
D3*
X33227D2*
X33789D1*
X19970Y53318D2*
X20319D1*
X20609D2*
X21067D1*
X21447D2*
X21751D1*
X22511D2*
X22739D1*
X23707D2*
X23974D1*
X24999D2*
X25171D1*
X25415D2*
X33814D1*
X19907Y53242D2*
X20259D1*
X20574D2*
X21067D1*
X22511D2*
X22739D1*
X23719D2*
X23960D1*
X25011D2*
X25171D1*
X25488D2*
X33491D1*
X33571D2*
X33823D1*
X19841Y53166D2*
X20196D1*
X20553D2*
X21067D1*
X22511D2*
X22739D1*
X23723D2*
X23943D1*
X25016D2*
X25171D1*
X25551D2*
X33823D1*
X19771Y53090D2*
X20124D1*
X20543D2*
X21067D1*
X22508D2*
X22739D1*
X23719D2*
X23915D1*
X25018D2*
X25171D1*
X33227D2*
X33789D1*
X19700Y53014D2*
X20054D1*
X20538D2*
X21067D1*
X22495D2*
X22739D1*
X23705D2*
X23879D1*
X25019D2*
X25171D1*
X33303D2*
X33740D1*
X19637Y52938D2*
X19988D1*
X20535D2*
X21067D1*
X22467D2*
X22736D1*
X23630D2*
X23993D1*
X25019D2*
X25171D1*
X33379D2*
X33683D1*
X18787Y52862D2*
X19015D1*
X19581D2*
X19919D1*
X22430D2*
X22723D1*
X23531D2*
X24110D1*
X25019D2*
X25171D1*
X18705Y52786D2*
X19147D1*
X19522D2*
X19848D1*
X22397D2*
X22692D1*
X23433D2*
X24220D1*
X25019D2*
X25171D1*
X28135D2*
X28515D1*
X29503D2*
X29883D1*
X31631D2*
D3*
X32163D2*
D3*
X32543D2*
D3*
X18643Y52709D2*
X19330D1*
X19395D2*
X19774D1*
X21219D2*
D3*
X22375D2*
X22642D1*
X23348D2*
X24314D1*
X25019D2*
X25171D1*
X27998D2*
X28623D1*
X29366D2*
X30003D1*
X31290D2*
X31707D1*
X32097D2*
X32695D1*
X18601Y52634D2*
X22579D1*
X23273D2*
X24390D1*
X25019D2*
X25528D1*
X27880D2*
X28716D1*
X29248D2*
X30110D1*
X31021D2*
X31890D1*
X31952D2*
X32762D1*
X18574Y52558D2*
X18823D1*
X18903D2*
X22511D1*
X23207D2*
X23575D1*
X24107D2*
X24450D1*
X25019D2*
X25778D1*
X27789D2*
X28764D1*
X29157D2*
X30198D1*
X30840D2*
X32831D1*
X18575Y52482D2*
X22575D1*
X23153D2*
X23502D1*
X24180D2*
X24496D1*
X25019D2*
X25939D1*
X27722D2*
X28150D1*
X28515D2*
X28766D1*
X29090D2*
X29492D1*
X29892D2*
X30270D1*
X30714D2*
X31345D1*
X31628D2*
X32242D1*
X32543D2*
X32910D1*
X18602Y52405D2*
X19156D1*
X22283D2*
X22629D1*
X23109D2*
X23436D1*
X24243D2*
X24528D1*
X25019D2*
X25402D1*
X25712D2*
X26057D1*
X27668D2*
X28032D1*
X28667D2*
X28743D1*
X29039D2*
X29399D1*
X29977D2*
X30329D1*
X30677D2*
X31301D1*
X31691D2*
X32176D1*
X32616D2*
X32999D1*
X18669Y52329D2*
X19117D1*
X22356D2*
X22673D1*
X23077D2*
X23381D1*
X24288D2*
X24547D1*
X25019D2*
X25336D1*
X25794D2*
X26107D1*
X27614D2*
X27941D1*
X28211D2*
X28363D1*
X28994D2*
X29314D1*
X30051D2*
X30371D1*
X30654D2*
X30885D1*
X31009D2*
X31297D1*
X31736D2*
X32121D1*
X32679D2*
X32964D1*
X18760Y52254D2*
X19034D1*
X22419D2*
X22705D1*
X23059D2*
X23337D1*
X24314D2*
X24556D1*
X25019D2*
X25281D1*
X25858D2*
X26136D1*
X27535D2*
X27874D1*
X28115D2*
X28530D1*
X28943D2*
X29246D1*
X30108D2*
X30395D1*
X30663D2*
X30912D1*
X30982D2*
X31287D1*
X31762D2*
X32077D1*
X32724D2*
X32942D1*
X18863Y52178D2*
X18939D1*
X20611D2*
D3*
X21067D2*
D3*
X22464D2*
X22723D1*
X23050D2*
X23306D1*
X24326D2*
X24560D1*
X25019D2*
X25237D1*
X25905D2*
X26149D1*
X27423D2*
X27825D1*
X28037D2*
X28736D1*
X28817D2*
X29195D1*
X30147D2*
X30407D1*
X30691D2*
X31261D1*
X31774D2*
X32045D1*
X32750D2*
X32934D1*
X20576Y52102D2*
X21067D1*
X22490D2*
X22732D1*
X23046D2*
X23290D1*
X24332D2*
X24562D1*
X25019D2*
X25205D1*
X25919D2*
X26155D1*
X27307D2*
X27791D1*
X28009D2*
X29160D1*
X30169D2*
X30412D1*
X30737D2*
X31221D1*
X31780D2*
X32027D1*
X32762D2*
X32941D1*
X20554Y52026D2*
X21067D1*
X22502D2*
X22736D1*
X23044D2*
X23291D1*
X24333D2*
X24563D1*
X25019D2*
X25187D1*
X25926D2*
X26158D1*
X27213D2*
X27771D1*
X27994D2*
X28225D1*
X28349D2*
X29140D1*
X30180D2*
X30414D1*
X30788D2*
X31176D1*
X31782D2*
X32018D1*
X32768D2*
X32965D1*
X20547Y51950D2*
X21067D1*
X22508D2*
X22738D1*
X23046D2*
X23308D1*
X24331D2*
X24563D1*
X25019D2*
X25178D1*
X25929D2*
X26159D1*
X27137D2*
X27765D1*
X27991D2*
X28252D1*
X28322D2*
X29133D1*
X30184D2*
X30415D1*
X30828D2*
X31139D1*
X31783D2*
X32014D1*
X32770D2*
X32999D1*
X20549Y51873D2*
X21067D1*
X22510D2*
X22739D1*
X23056D2*
X23338D1*
X24319D2*
X24560D1*
X25019D2*
X25177D1*
X25930D2*
X26159D1*
X27065D2*
X27771D1*
X28000D2*
X29141D1*
X30183D2*
X30415D1*
X30851D2*
X31118D1*
X31783D2*
X32012D1*
X32771D2*
X32968D1*
X20590Y51798D2*
X21067D1*
X22511D2*
X22739D1*
X23077D2*
X23383D1*
X24294D2*
X24550D1*
X25019D2*
X25187D1*
X25931D2*
X26159D1*
X26995D2*
X27299D1*
X27539D2*
X27790D1*
X28030D2*
X28591D1*
X28880D2*
X29168D1*
X30171D2*
X30415D1*
X30863D2*
X31107D1*
X31783D2*
X32011D1*
X32771D2*
X32971D1*
X20647Y51721D2*
X21067D1*
X22511D2*
X22739D1*
X23109D2*
X23441D1*
X24227D2*
X24529D1*
X25019D2*
X25212D1*
X25931D2*
X26159D1*
X26927D2*
X27223D1*
X27561D2*
X27824D1*
X28078D2*
X28515D1*
X28927D2*
X29213D1*
X30147D2*
X30412D1*
X30867D2*
X31102D1*
X31783D2*
X32011D1*
X32771D2*
X32981D1*
X20699Y51646D2*
X20915D1*
X21447D2*
X21751D1*
X22511D2*
X22739D1*
X23153D2*
X23577D1*
X24058D2*
X24497D1*
X25018D2*
X25247D1*
X25930D2*
X26159D1*
X26861D2*
X27147D1*
X27593D2*
X27869D1*
X28135D2*
X28439D1*
X28963D2*
X29269D1*
X30088D2*
X30399D1*
X30867D2*
X31103D1*
X31782D2*
X32012D1*
X32770D2*
X32990D1*
X20733Y51570D2*
X20915D1*
X21386D2*
X21812D1*
X22511D2*
X22739D1*
X23211D2*
X23781D1*
X23805D2*
X24452D1*
X25013D2*
X25210D1*
X25925D2*
X26162D1*
X26790D2*
X27071D1*
X27637D2*
X28023D1*
X28667D2*
X28743D1*
X28996D2*
X29435D1*
X29941D2*
X30368D1*
X30855D2*
X31115D1*
X31777D2*
X32017D1*
X32765D2*
X33001D1*
X20750Y51494D2*
X20915D1*
X21341D2*
X21857D1*
X22508D2*
X22739D1*
X23281D2*
X24392D1*
X25001D2*
X25206D1*
X25913D2*
X26175D1*
X26720D2*
X27132D1*
X27695D2*
X28274D1*
X28342D2*
X28773D1*
X29034D2*
X29703D1*
X29711D2*
X30318D1*
X30827D2*
X31143D1*
X31765D2*
X32029D1*
X32753D2*
X33023D1*
X20758Y51417D2*
X20915D1*
X21316D2*
X21882D1*
X22497D2*
X22739D1*
X23365D2*
X24310D1*
X24959D2*
X25250D1*
X25871D2*
X26203D1*
X26669D2*
X27177D1*
X27765D2*
X28763D1*
X29084D2*
X30254D1*
X30790D2*
X31180D1*
X31723D2*
X32071D1*
X32708D2*
X33060D1*
X20761Y51341D2*
X20915D1*
X21307D2*
X21559D1*
X21639D2*
X21894D1*
X22475D2*
X22736D1*
X23464D2*
X24203D1*
X24918D2*
X25305D1*
X25830D2*
X26240D1*
X26639D2*
X27202D1*
X27848D2*
X28702D1*
X29157D2*
X30178D1*
X30757D2*
X31213D1*
X31683D2*
X32111D1*
X32658D2*
X33099D1*
X20762Y51266D2*
X20915D1*
X21307D2*
X21900D1*
X22398D2*
X22723D1*
X23565D2*
X24083D1*
X24889D2*
X25349D1*
X25801D2*
X26273D1*
X26625D2*
X26857D1*
X26981D2*
X27214D1*
X27949D2*
X28616D1*
X29258D2*
X30088D1*
X30737D2*
X31233D1*
X31656D2*
X32138D1*
X32616D2*
X33126D1*
X20763Y51190D2*
X20915D1*
X21339D2*
X21903D1*
X22207D2*
X22693D1*
X23654D2*
X23974D1*
X24863D2*
X25376D1*
X25775D2*
X26293D1*
X26622D2*
X26884D1*
X26954D2*
X27216D1*
X28059D2*
X28515D1*
X29374D2*
X29989D1*
X30730D2*
X31244D1*
X31642D2*
X32152D1*
X32584D2*
X33137D1*
X20763Y51114D2*
X20918D1*
X21427D2*
X22645D1*
X23691D2*
X23879D1*
X24830D2*
X25386D1*
X25742D2*
X26300D1*
X26632D2*
X27206D1*
X29482D2*
X29905D1*
X30737D2*
X31248D1*
X31635D2*
X32159D1*
X32589D2*
X33138D1*
X20763Y51038D2*
X20931D1*
X21550D2*
X22593D1*
X23711D2*
X23955D1*
X24791D2*
X25387D1*
X25703D2*
X26293D1*
X26662D2*
X27176D1*
X29539D2*
X29843D1*
X30761D2*
X31250D1*
X31633D2*
X32161D1*
X32603D2*
X33110D1*
X20763Y50962D2*
X20962D1*
X21689D2*
X22549D1*
X23717D2*
X23879D1*
X24831D2*
X25358D1*
X25743D2*
X26269D1*
X26710D2*
X27128D1*
X29560D2*
X29824D1*
X30795D2*
X31251D1*
X31631D2*
X32163D1*
X32619D2*
X33075D1*
X20767Y50886D2*
X21012D1*
X21827D2*
X22511D1*
X23713D2*
X23914D1*
X24867D2*
X25323D1*
X25779D2*
X26235D1*
X26767D2*
X27071D1*
X29571D2*
X29814D1*
X33379D2*
X33607D1*
X20775Y50810D2*
X21076D1*
X23667D2*
X23936D1*
X29576D2*
X29810D1*
X33308D2*
X33680D1*
X20821Y50733D2*
X21146D1*
X23554D2*
X23948D1*
X29351D2*
X30035D1*
X33261D2*
X33743D1*
X20891Y50658D2*
X23119D1*
X23423D2*
X24183D1*
X24563D2*
X29047D1*
X29369D2*
X30020D1*
X30415D2*
X33788D1*
X20974Y50582D2*
X23119D1*
X23473D2*
X24164D1*
X24487D2*
X29111D1*
X29400D2*
X29994D1*
X30316D2*
X33818D1*
X21059Y50506D2*
X23271D1*
X23527D2*
X24107D1*
X24411D2*
X29178D1*
X29477D2*
X29925D1*
X30227D2*
X33415D1*
X33495D2*
X33819D1*
X21143Y50429D2*
X23314D1*
X23598D2*
X24027D1*
X24333D2*
X29241D1*
X29565D2*
X29835D1*
X30153D2*
X33787D1*
X23061Y50353D2*
X23370D1*
X23701D2*
X23914D1*
X24237D2*
X24544D1*
X28971D2*
X29317D1*
X29655D2*
X29731D1*
X30072D2*
X30415D1*
X33247D2*
X33737D1*
X23092Y50278D2*
X23531D1*
X23852D2*
X23758D1*
X24078D2*
X24488D1*
X29047D2*
X29452D1*
X29935D2*
X30339D1*
X33306D2*
X33675D1*
X23165Y50202D2*
X23787D1*
X23821D2*
X24419D1*
X29124D2*
X29677D1*
X29709D2*
X30263D1*
X33379D2*
X33607D1*
X23241Y50126D2*
X24352D1*
X29209D2*
X30187D1*
X23306Y50050D2*
X24293D1*
X29320D2*
X30111D1*
X23365Y49974D2*
X24238D1*
X29474D2*
X30035D1*
X23423Y49898D2*
X24183D1*
X29655D2*
X29959D1*
X20763Y54078D2*
X20687Y54002D1*
X20611Y53925D1*
X20535Y53850D1*
X20459Y53774D1*
X20383Y53697D1*
X20304Y53622D1*
X20219Y53546D1*
X20127Y53470D1*
X20041Y53393D1*
X19970Y53318D1*
X19907Y53242D1*
X19841Y53166D1*
X19771Y53090D1*
X19700Y53014D1*
X19637Y52938D1*
X19581Y52862D1*
X19522Y52786D1*
X19395Y52709D1*
X19243Y52633D1*
X20915Y54078D2*
Y54002D1*
Y53925D1*
Y53850D1*
Y53774D1*
Y53697D1*
Y53622D1*
Y53546D1*
Y53470D1*
Y53393D1*
Y53318D1*
X21067D1*
Y53242D1*
Y53166D1*
Y53090D1*
Y53014D1*
Y52938D1*
X21827Y54078D2*
X21673Y54002D1*
X21532Y53925D1*
X21426Y53850D1*
X21346Y53774D1*
X21320Y53697D1*
X21309Y53622D1*
X21308Y53546D1*
X21341Y53470D1*
X21390Y53393D1*
X21447Y53318D1*
X22435Y54078D2*
X22511Y54002D1*
X22584Y53925D1*
X22647Y53850D1*
X22692Y53774D1*
X22718Y53697D1*
X22730Y53622D1*
X22736Y53546D1*
X22738Y53470D1*
X22739Y53393D1*
Y53318D1*
Y53242D1*
Y53166D1*
Y53090D1*
Y53014D1*
X22736Y52938D1*
X22723Y52862D1*
X22692Y52786D1*
X22642Y52709D1*
X22579Y52634D1*
X22511Y52558D1*
X22575Y52482D1*
X22629Y52405D1*
X22673Y52329D1*
X22705Y52254D1*
X22723Y52178D1*
X22732Y52102D1*
X22736Y52026D1*
X22738Y51950D1*
X22739Y51873D1*
Y51798D1*
Y51721D1*
Y51646D1*
Y51570D1*
Y51494D1*
Y51417D1*
X22736Y51341D1*
X22723Y51266D1*
X22693Y51190D1*
X22645Y51114D1*
X22593Y51038D1*
X22549Y50962D1*
X22511Y50886D1*
X23727Y54078D2*
X23631Y54002D1*
X23553Y53925D1*
X23526Y53850D1*
X23513Y53774D1*
X23512Y53697D1*
X23545Y53622D1*
X23593Y53546D1*
X23644Y53470D1*
X23684Y53393D1*
X23707Y53318D1*
X23719Y53242D1*
X23723Y53166D1*
X23719Y53090D1*
X23705Y53014D1*
X23630Y52938D1*
X23531Y52862D1*
X23433Y52786D1*
X23348Y52709D1*
X23273Y52634D1*
X23207Y52558D1*
X23153Y52482D1*
X23109Y52405D1*
X23077Y52329D1*
X23059Y52254D1*
X23050Y52178D1*
X23046Y52102D1*
X23044Y52026D1*
X23046Y51950D1*
X23056Y51873D1*
X23077Y51798D1*
X23109Y51721D1*
X23153Y51646D1*
X23211Y51570D1*
X23281Y51494D1*
X23365Y51417D1*
X23464Y51341D1*
X23565Y51266D1*
X23654Y51190D1*
X23691Y51114D1*
X23711Y51038D1*
X23717Y50962D1*
X23713Y50886D1*
X23667Y50810D1*
X23554Y50733D1*
X23423Y50658D1*
X23473Y50582D1*
X23527Y50506D1*
X23598Y50429D1*
X23701Y50353D1*
X23852Y50278D1*
X24031Y50202D1*
X23955Y54078D2*
X24016Y54002D1*
X24064Y53925D1*
X24101Y53850D1*
X24140Y53774D1*
X24183Y53697D1*
X24133Y53622D1*
X24083Y53546D1*
X24034Y53470D1*
X23996Y53393D1*
X23974Y53318D1*
X23960Y53242D1*
X23943Y53166D1*
X23915Y53090D1*
X23879Y53014D1*
X23993Y52938D1*
X24110Y52862D1*
X24220Y52786D1*
X24314Y52709D1*
X24390Y52634D1*
X24450Y52558D1*
X24496Y52482D1*
X24528Y52405D1*
X24547Y52329D1*
X24556Y52254D1*
X24560Y52178D1*
X24562Y52102D1*
X24563Y52026D1*
Y51950D1*
X24560Y51873D1*
X24550Y51798D1*
X24529Y51721D1*
X24497Y51646D1*
X24452Y51570D1*
X24392Y51494D1*
X24310Y51417D1*
X24203Y51341D1*
X24083Y51266D1*
X23974Y51190D1*
X23879Y51114D1*
X23955Y51038D1*
X23879Y50962D1*
X23914Y50886D1*
X23936Y50810D1*
X23948Y50733D1*
X23955Y50658D1*
X24183D1*
X24164Y50582D1*
X24107Y50506D1*
X24027Y50429D1*
X23914Y50353D1*
X23758Y50278D1*
X23575Y50202D1*
X25019Y54078D2*
X24923Y54002D1*
X24845Y53925D1*
X24818Y53850D1*
X24805Y53774D1*
X24804Y53697D1*
X24837Y53622D1*
X24885Y53546D1*
X24936Y53470D1*
X24976Y53393D1*
X24999Y53318D1*
X25011Y53242D1*
X25016Y53166D1*
X25018Y53090D1*
X25019Y53014D1*
Y52938D1*
Y52862D1*
Y52786D1*
Y52709D1*
Y52634D1*
Y52558D1*
Y52482D1*
Y52405D1*
Y52329D1*
Y52254D1*
Y52178D1*
Y52102D1*
Y52026D1*
Y51950D1*
Y51873D1*
Y51798D1*
Y51721D1*
X25018Y51646D1*
X25013Y51570D1*
X25001Y51494D1*
X24959Y51417D1*
X24918Y51341D1*
X24889Y51266D1*
X24863Y51190D1*
X24830Y51114D1*
X24791Y51038D1*
X24831Y50962D1*
X24867Y50886D1*
X25247Y54078D2*
X25308Y54002D1*
X25355Y53925D1*
X25391Y53850D1*
X25424Y53774D1*
X25462Y53697D1*
X25508Y53622D1*
X25566Y53546D1*
X25633Y53470D1*
X25705Y53393D1*
X25779Y53317D1*
X21903Y53850D2*
X21906Y53774D1*
X21918Y53697D1*
X21944Y53622D1*
X21979Y53546D1*
X21916Y53470D1*
X21839Y53393D1*
X21751Y53318D1*
X22359Y53850D2*
X22420Y53774D1*
X22465Y53697D1*
X22490Y53622D1*
X22502Y53546D1*
X22508Y53470D1*
X22510Y53393D1*
X22511Y53318D1*
Y53242D1*
Y53166D1*
X22508Y53090D1*
X22495Y53014D1*
X22467Y52938D1*
X22430Y52862D1*
X22397Y52786D1*
X22375Y52709D1*
X22359Y52633D1*
X23727Y53850D2*
X23741Y53774D1*
X23768Y53697D1*
X23803Y53621D1*
X23879Y53850D2*
X23865Y53774D1*
X23838Y53697D1*
X23803Y53621D1*
X25019Y53850D2*
X25033Y53774D1*
X25060Y53697D1*
X25095Y53621D1*
X25171Y53850D2*
X25157Y53774D1*
X25130Y53697D1*
X25095Y53621D1*
X20687Y53698D2*
X20611Y53622D1*
X20535Y53546D1*
X20459Y53470D1*
X20386Y53393D1*
X20319Y53318D1*
X20259Y53242D1*
X20196Y53166D1*
X20124Y53090D1*
X20054Y53014D1*
X19988Y52938D1*
X19919Y52862D1*
X19848Y52786D1*
X19774Y52709D1*
X19699Y52633D1*
X20839Y53698D2*
X20778Y53622D1*
X20730Y53546D1*
X20692Y53470D1*
X20652Y53393D1*
X20609Y53318D1*
X20574Y53242D1*
X20553Y53166D1*
X20543Y53090D1*
X20538Y53014D1*
X20535Y52938D1*
X21599Y53698D2*
X21559Y53622D1*
X21523Y53546D1*
X21599Y53698D2*
X21639Y53622D1*
X21675Y53546D1*
X33379D2*
X33303Y53470D1*
X33227Y53393D1*
X33151Y53317D1*
X33683Y53546D2*
X33744Y53470D1*
X33789Y53393D1*
X33814Y53318D1*
X33823Y53242D1*
Y53166D1*
X33789Y53090D1*
X33740Y53014D1*
X33683Y52938D1*
X25171Y53469D2*
Y53393D1*
Y53318D1*
Y53242D1*
Y53166D1*
Y53090D1*
Y53014D1*
Y52938D1*
Y52862D1*
Y52786D1*
Y52709D1*
X25528Y52634D1*
X25778Y52558D1*
X25939Y52482D1*
X26057Y52405D1*
X26107Y52329D1*
X26136Y52254D1*
X26149Y52178D1*
X26155Y52102D1*
X26158Y52026D1*
X26159Y51950D1*
Y51873D1*
Y51798D1*
Y51721D1*
Y51646D1*
X26162Y51570D1*
X26175Y51494D1*
X26203Y51417D1*
X26240Y51341D1*
X26273Y51266D1*
X26293Y51190D1*
X26300Y51114D1*
X26293Y51038D1*
X26269Y50962D1*
X26235Y50886D1*
X25247Y53469D2*
X25332Y53393D1*
X25415Y53318D1*
X25488Y53242D1*
X25551Y53166D1*
X27299Y53393D2*
Y53317D1*
X33531Y53318D2*
X33491Y53242D1*
X33455Y53166D1*
X33531Y53318D2*
X33571Y53242D1*
X33607Y53166D1*
X33151D2*
X33227Y53090D1*
X33303Y53014D1*
X33379Y52938D1*
X18787Y52862D2*
X18705Y52786D1*
X18643Y52709D1*
X18601Y52634D1*
X18574Y52558D1*
X18575Y52482D1*
X18602Y52405D1*
X18669Y52329D1*
X18760Y52254D1*
X18863Y52178D1*
X19015Y52862D2*
X19147Y52786D1*
X19330Y52709D1*
X19547Y52633D1*
X28135Y52786D2*
X27998Y52709D1*
X27880Y52634D1*
X27789Y52558D1*
X27722Y52482D1*
X27668Y52405D1*
X27614Y52329D1*
X27535Y52254D1*
X27423Y52178D1*
X27307Y52102D1*
X27213Y52026D1*
X27137Y51950D1*
X27065Y51873D1*
X26995Y51798D1*
X26927Y51721D1*
X26861Y51646D1*
X26790Y51570D1*
X26720Y51494D1*
X26669Y51417D1*
X26639Y51341D1*
X26625Y51266D1*
X26622Y51190D1*
X26632Y51114D1*
X26662Y51038D1*
X26710Y50962D1*
X26767Y50886D1*
X28515Y52786D2*
X28623Y52709D1*
X28716Y52634D1*
X28764Y52558D1*
X28766Y52482D1*
X28743Y52405D1*
X29503Y52786D2*
X29366Y52709D1*
X29248Y52634D1*
X29157Y52558D1*
X29090Y52482D1*
X29039Y52405D1*
X28994Y52329D1*
X28943Y52254D1*
X28817Y52178D1*
X28667Y52102D1*
X29883Y52786D2*
X30003Y52709D1*
X30110Y52634D1*
X30198Y52558D1*
X30270Y52482D1*
X30329Y52405D1*
X30371Y52329D1*
X30395Y52254D1*
X30407Y52178D1*
X30412Y52102D1*
X30414Y52026D1*
X30415Y51950D1*
Y51873D1*
Y51798D1*
X30412Y51721D1*
X30399Y51646D1*
X30368Y51570D1*
X30318Y51494D1*
X30254Y51417D1*
X30178Y51341D1*
X30088Y51266D1*
X29989Y51190D1*
X29905Y51114D1*
X29843Y51038D1*
X29824Y50962D1*
X29814Y50886D1*
X29810Y50810D1*
X29807Y50733D1*
X30035D1*
X30020Y50658D1*
X29994Y50582D1*
X29925Y50506D1*
X29835Y50429D1*
X29731Y50353D1*
X31631Y52786D2*
X31290Y52709D1*
X31021Y52634D1*
X30840Y52558D1*
X30714Y52482D1*
X30677Y52405D1*
X30654Y52329D1*
X30663Y52254D1*
X30691Y52178D1*
X30737Y52102D1*
X30788Y52026D1*
X30828Y51950D1*
X30851Y51873D1*
X30863Y51798D1*
X30867Y51721D1*
Y51646D1*
X30855Y51570D1*
X30827Y51494D1*
X30790Y51417D1*
X30757Y51341D1*
X30737Y51266D1*
X30730Y51190D1*
X30737Y51114D1*
X30761Y51038D1*
X30795Y50962D1*
X32163Y52786D2*
X32097Y52709D1*
X31952Y52634D1*
X31783Y52558D1*
X32543Y52786D2*
X32467Y52709D1*
X21219D2*
Y52634D1*
X31707Y52709D2*
X31890Y52634D1*
X32087Y52558D1*
X32695Y52709D2*
X32762Y52634D1*
X32831Y52558D1*
X32910Y52482D1*
X32999Y52405D1*
X32964Y52329D1*
X32942Y52254D1*
X32934Y52178D1*
X32941Y52102D1*
X32965Y52026D1*
X32999Y51950D1*
X32968Y51873D1*
X32971Y51798D1*
X32981Y51721D1*
X32990Y51646D1*
X33001Y51570D1*
X33023Y51494D1*
X33060Y51417D1*
X33099Y51341D1*
X33126Y51266D1*
X33137Y51190D1*
X33138Y51114D1*
X33110Y51038D1*
X33075Y50962D1*
X18863Y52634D2*
X18823Y52558D1*
X18787Y52482D1*
X18863Y52634D2*
X18903Y52558D1*
X18939Y52482D1*
X23651Y52634D2*
X23575Y52558D1*
X23502Y52482D1*
X23436Y52405D1*
X23381Y52329D1*
X23337Y52254D1*
X23306Y52178D1*
X23290Y52102D1*
X23291Y52026D1*
X23308Y51950D1*
X23338Y51873D1*
X23383Y51798D1*
X23441Y51721D1*
X23577Y51646D1*
X23781Y51570D1*
X24031Y51494D1*
Y52634D2*
X24107Y52558D1*
X24180Y52482D1*
X24243Y52405D1*
X24288Y52329D1*
X24314Y52254D1*
X24326Y52178D1*
X24332Y52102D1*
X24333Y52026D1*
X24331Y51950D1*
X24319Y51873D1*
X24294Y51798D1*
X24227Y51721D1*
X24058Y51646D1*
X23805Y51570D1*
X23499Y51494D1*
X28287Y52558D2*
X28150Y52482D1*
X28032Y52405D1*
X27941Y52329D1*
X27874Y52254D1*
X27825Y52178D1*
X27791Y52102D1*
X27771Y52026D1*
X27765Y51950D1*
X27771Y51873D1*
X27790Y51798D1*
X27824Y51721D1*
X27869Y51646D1*
X28023Y51570D1*
X28274Y51494D1*
X28591Y51417D1*
X28363Y52558D2*
X28515Y52482D1*
X28667Y52405D1*
X29579Y52558D2*
X29492Y52482D1*
X29399Y52405D1*
X29314Y52329D1*
X29246Y52254D1*
X29195Y52178D1*
X29160Y52102D1*
X29140Y52026D1*
X29133Y51950D1*
X29141Y51873D1*
X29168Y51798D1*
X29213Y51721D1*
X29269Y51646D1*
X29435Y51570D1*
X29703Y51494D1*
X30035Y51417D1*
X29807Y52558D2*
X29892Y52482D1*
X29977Y52405D1*
X30051Y52329D1*
X30108Y52254D1*
X30147Y52178D1*
X30169Y52102D1*
X30180Y52026D1*
X30184Y51950D1*
X30183Y51873D1*
X30171Y51798D1*
X30147Y51721D1*
X30088Y51646D1*
X29941Y51570D1*
X29711Y51494D1*
X29427Y51417D1*
X31403Y52558D2*
X31345Y52482D1*
X31301Y52405D1*
X31297Y52329D1*
X31287Y52254D1*
X31261Y52178D1*
X31221Y52102D1*
X31176Y52026D1*
X31139Y51950D1*
X31118Y51873D1*
X31107Y51798D1*
X31102Y51721D1*
X31103Y51646D1*
X31115Y51570D1*
X31143Y51494D1*
X31180Y51417D1*
X31213Y51341D1*
X31233Y51266D1*
X31244Y51190D1*
X31248Y51114D1*
X31250Y51038D1*
X31251Y50962D1*
X31555Y52558D2*
X31628Y52482D1*
X31691Y52405D1*
X31736Y52329D1*
X31762Y52254D1*
X31774Y52178D1*
X31780Y52102D1*
X31782Y52026D1*
X31783Y51950D1*
Y51873D1*
Y51798D1*
Y51721D1*
X31782Y51646D1*
X31777Y51570D1*
X31765Y51494D1*
X31723Y51417D1*
X31683Y51341D1*
X31656Y51266D1*
X31642Y51190D1*
X31635Y51114D1*
X31633Y51038D1*
X31631Y50962D1*
X32315Y52558D2*
X32242Y52482D1*
X32176Y52405D1*
X32121Y52329D1*
X32077Y52254D1*
X32045Y52178D1*
X32027Y52102D1*
X32018Y52026D1*
X32014Y51950D1*
X32012Y51873D1*
X32011Y51798D1*
Y51721D1*
X32012Y51646D1*
X32017Y51570D1*
X32029Y51494D1*
X32071Y51417D1*
X32111Y51341D1*
X32138Y51266D1*
X32152Y51190D1*
X32159Y51114D1*
X32161Y51038D1*
X32163Y50962D1*
X32467Y52558D2*
X32543Y52482D1*
X32616Y52405D1*
X32679Y52329D1*
X32724Y52254D1*
X32750Y52178D1*
X32762Y52102D1*
X32768Y52026D1*
X32770Y51950D1*
X32771Y51873D1*
Y51798D1*
Y51721D1*
X32770Y51646D1*
X32765Y51570D1*
X32753Y51494D1*
X32708Y51417D1*
X32658Y51341D1*
X32616Y51266D1*
X32584Y51190D1*
X32589Y51114D1*
X32603Y51038D1*
X32619Y50962D1*
X19167Y52482D2*
X19156Y52405D1*
X19117Y52329D1*
X19034Y52254D1*
X18939Y52178D1*
X22207Y52482D2*
X22283Y52405D1*
X22356Y52329D1*
X22419Y52254D1*
X22464Y52178D1*
X22490Y52102D1*
X22502Y52026D1*
X22508Y51950D1*
X22510Y51873D1*
X22511Y51798D1*
Y51721D1*
Y51646D1*
Y51570D1*
X22508Y51494D1*
X22497Y51417D1*
X22475Y51341D1*
X22398Y51266D1*
X22207Y51190D1*
X21979Y51113D1*
X25475Y52482D2*
X25402Y52405D1*
X25336Y52329D1*
X25281Y52254D1*
X25237Y52178D1*
X25205Y52102D1*
X25187Y52026D1*
X25178Y51950D1*
X25177Y51873D1*
X25187Y51798D1*
X25212Y51721D1*
X25247Y51646D1*
X25210Y51570D1*
X25206Y51494D1*
X25250Y51417D1*
X25305Y51341D1*
X25349Y51266D1*
X25376Y51190D1*
X25386Y51114D1*
X25387Y51038D1*
X25358Y50962D1*
X25323Y50886D1*
X25627Y52482D2*
X25712Y52405D1*
X25794Y52329D1*
X25858Y52254D1*
X25905Y52178D1*
X25919Y52102D1*
X25926Y52026D1*
X25929Y51950D1*
X25930Y51873D1*
X25931Y51798D1*
Y51721D1*
X25930Y51646D1*
X25925Y51570D1*
X25913Y51494D1*
X25871Y51417D1*
X25830Y51341D1*
X25801Y51266D1*
X25775Y51190D1*
X25742Y51114D1*
X25703Y51038D1*
X25743Y50962D1*
X25779Y50886D1*
X28211Y52329D2*
X28115Y52254D1*
X28037Y52178D1*
X28009Y52102D1*
X27994Y52026D1*
X27991Y51950D1*
X28000Y51873D1*
X28030Y51798D1*
X28078Y51721D1*
X28135Y51646D1*
X28363Y52329D2*
X28530Y52254D1*
X28736Y52178D1*
X28971Y52102D1*
X30871Y52405D2*
X30885Y52329D1*
X30912Y52254D1*
X30947Y52178D1*
X31023Y52405D2*
X31009Y52329D1*
X30982Y52254D1*
X30947Y52178D1*
X20611D2*
X20576Y52102D1*
X20554Y52026D1*
X20547Y51950D1*
X20549Y51873D1*
X20590Y51798D1*
X20647Y51721D1*
X20699Y51646D1*
X20733Y51570D1*
X20750Y51494D1*
X20758Y51417D1*
X20761Y51341D1*
X20762Y51266D1*
X20763Y51190D1*
Y51114D1*
Y51038D1*
Y50962D1*
X20767Y50886D1*
X20775Y50810D1*
X20821Y50733D1*
X20891Y50658D1*
X20974Y50582D1*
X21059Y50506D1*
X21143Y50429D1*
X21067Y52178D2*
X20991Y52102D1*
X21067D2*
Y52026D1*
Y51950D1*
Y51873D1*
Y51798D1*
Y51721D1*
Y51646D1*
X20915D1*
Y51570D1*
Y51494D1*
Y51417D1*
Y51341D1*
Y51266D1*
Y51190D1*
X20918Y51114D1*
X20931Y51038D1*
X20962Y50962D1*
X21012Y50886D1*
X21076Y50810D1*
X21146Y50733D1*
X21219Y50657D1*
X28211Y52102D2*
X28225Y52026D1*
X28252Y51950D1*
X28287Y51873D1*
X28363Y52102D2*
X28349Y52026D1*
X28322Y51950D1*
X28287Y51873D1*
X27375Y51874D2*
X27299Y51798D1*
X27223Y51721D1*
X27147Y51646D1*
X27071Y51570D1*
X27132Y51494D1*
X27177Y51417D1*
X27202Y51341D1*
X27214Y51266D1*
X27216Y51190D1*
X27206Y51114D1*
X27176Y51038D1*
X27128Y50962D1*
X27071Y50886D1*
X27527Y51874D2*
X27539Y51798D1*
X27561Y51721D1*
X27593Y51646D1*
X27637Y51570D1*
X27695Y51494D1*
X27765Y51417D1*
X27848Y51341D1*
X27949Y51266D1*
X28059Y51190D1*
X28667Y51874D2*
X28591Y51798D1*
X28515Y51721D1*
X28439Y51646D1*
X28819Y51874D2*
X28880Y51798D1*
X28927Y51721D1*
X28963Y51646D1*
X28996Y51570D1*
X29034Y51494D1*
X29084Y51417D1*
X29157Y51341D1*
X29258Y51266D1*
X29374Y51190D1*
X29482Y51114D1*
X29539Y51038D1*
X29560Y50962D1*
X29571Y50886D1*
X29576Y50810D1*
X29579Y50733D1*
X29351D1*
X29369Y50658D1*
X29400Y50582D1*
X29477Y50506D1*
X29565Y50429D1*
X29655Y50353D1*
X21447Y51646D2*
X21386Y51570D1*
X21341Y51494D1*
X21316Y51417D1*
X21307Y51341D1*
Y51266D1*
X21339Y51190D1*
X21427Y51114D1*
X21550Y51038D1*
X21689Y50962D1*
X21827Y50886D1*
X21751Y51646D2*
X21812Y51570D1*
X21857Y51494D1*
X21882Y51417D1*
X21894Y51341D1*
X21900Y51266D1*
X21903Y51190D1*
X22359Y51113D1*
X28667Y51570D2*
X28342Y51494D1*
X27983Y51417D1*
X28743Y51570D2*
X28773Y51494D1*
X28763Y51417D1*
X28702Y51341D1*
X28616Y51266D1*
X28515Y51190D1*
X21599Y51417D2*
X21559Y51341D1*
X21523Y51266D1*
X21599Y51417D2*
X21639Y51341D1*
X21675Y51266D1*
X26843Y51342D2*
X26857Y51266D1*
X26884Y51190D1*
X26919Y51113D1*
X26995Y51342D2*
X26981Y51266D1*
X26954Y51190D1*
X26919Y51113D1*
X33379Y50886D2*
X33308Y50810D1*
X33261Y50733D1*
X33227Y50657D1*
X33607Y50886D2*
X33680Y50810D1*
X33743Y50733D1*
X33788Y50658D1*
X33818Y50582D1*
X33819Y50506D1*
X33787Y50429D1*
X33737Y50353D1*
X33675Y50278D1*
X33607Y50202D1*
X23119Y50658D2*
Y50582D1*
Y50506D1*
X23271D1*
X23314Y50429D1*
X23370Y50353D1*
X23531Y50278D1*
X23787Y50202D1*
X24107Y50125D1*
X24563Y50658D2*
X24487Y50582D1*
X24411Y50506D1*
X24333Y50429D1*
X24237Y50353D1*
X24078Y50278D1*
X23821Y50202D1*
X23499Y50125D1*
X29047Y50658D2*
X29111Y50582D1*
X29178Y50506D1*
X29241Y50429D1*
X29317Y50353D1*
X29452Y50278D1*
X29677Y50202D1*
X29959Y50125D1*
X30415Y50658D2*
X30316Y50582D1*
X30227Y50506D1*
X30153Y50429D1*
X30072Y50353D1*
X29935Y50278D1*
X29709Y50202D1*
X29427Y50125D1*
X33455Y50582D2*
X33415Y50506D1*
X33379Y50429D1*
X33455Y50582D2*
X33495Y50506D1*
X33531Y50429D1*
X23043D2*
X23061Y50353D1*
X23092Y50278D1*
X23165Y50202D1*
X23241Y50126D1*
X23306Y50050D1*
X23365Y49974D1*
X23423Y49898D1*
X24563Y50429D2*
X24544Y50353D1*
X24488Y50278D1*
X24419Y50202D1*
X24352Y50126D1*
X24293Y50050D1*
X24238Y49974D1*
X24183Y49898D1*
X28895Y50429D2*
X28971Y50353D1*
X29047Y50278D1*
X29124Y50202D1*
X29209Y50126D1*
X29320Y50050D1*
X29474Y49974D1*
X29655Y49898D1*
X30491Y50429D2*
X30415Y50353D1*
X30339Y50278D1*
X30263Y50202D1*
X30187Y50126D1*
X30111Y50050D1*
X30035Y49974D1*
X29959Y49898D1*
X33227Y50429D2*
X33247Y50353D1*
X33306Y50278D1*
X33379Y50202D1*
X19474Y26140D2*
D52*
X18868D1*
X18808Y25594D1*
X18868Y25654D1*
X19050Y25716D1*
X19232D1*
X19414Y25654D1*
X19536Y25534D1*
X19597Y25351D1*
Y25230D1*
X19536Y25048D1*
X19414Y24926D1*
X19232Y24865D1*
X19050D1*
X18868Y24926D1*
X18808Y24987D1*
X18746Y25108D1*
X19989Y26141D2*
X20474Y24865D1*
X20960Y26141D1*
X22203Y25959D2*
X22082Y26081D1*
X21900Y26141D1*
X21657D1*
X21474Y26081D1*
X21352Y25959D1*
Y25838D1*
X21414Y25716D1*
X21474Y25656D1*
X21595Y25595D1*
X21960Y25473D1*
X22082Y25413D1*
X22143Y25351D1*
X22203Y25230D1*
Y25048D1*
X22082Y24927D1*
X21900Y24865D1*
X21657D1*
X21474Y24927D1*
X21352Y25048D1*
X22595Y25534D2*
X23141D1*
X23324Y25595D1*
X23386Y25656D1*
X23446Y25776D1*
Y25899D1*
X23386Y26019D1*
X23324Y26081D1*
X23141Y26141D1*
X22595D1*
Y24865D1*
X23021Y25534D2*
X23446Y24865D1*
X24749Y25838D2*
X24689Y25959D1*
X24567Y26081D1*
X24446Y26141D1*
X24203D1*
X24081Y26081D1*
X23960Y25959D1*
X23898Y25838D1*
X23838Y25656D1*
Y25351D1*
X23898Y25170D1*
X23960Y25048D1*
X24081Y24927D1*
X24203Y24865D1*
X24446D1*
X24567Y24927D1*
X24689Y25048D1*
X24749Y25170D1*
X54609Y30904D2*
Y29628D1*
X55063Y30599D2*
Y30660D1*
X55123Y30782D1*
X55184Y30842D1*
X55306Y30902D1*
X55549D1*
X55669Y30842D1*
X55730Y30782D1*
X55792Y30660D1*
Y30539D1*
X55730Y30417D1*
X55609Y30236D1*
X55001Y29628D1*
X55852D1*
X57155Y30601D2*
X57095Y30721D1*
X56973Y30844D1*
X56852Y30904D1*
X56609D1*
X56487Y30844D1*
X56366Y30721D1*
X56304Y30601D1*
X56244Y30418D1*
Y30114D1*
X56304Y29932D1*
X56366Y29810D1*
X56487Y29690D1*
X56609Y29628D1*
X56852D1*
X56973Y29690D1*
X57095Y29810D1*
X57155Y29932D1*
X57547Y29628D2*
X58398Y30902D1*
X59641Y30721D2*
X59520Y30844D1*
X59338Y30904D1*
X59095D1*
X58912Y30844D1*
X58790Y30721D1*
Y30601D1*
X58852Y30479D1*
X58912Y30418D1*
X59033Y30358D1*
X59398Y30236D1*
X59520Y30175D1*
X59581Y30114D1*
X59641Y29993D1*
Y29810D1*
X59520Y29690D1*
X59338Y29628D1*
X59095D1*
X58912Y29690D1*
X58790Y29810D1*
X60033Y30236D2*
X60581D1*
X60762Y30296D1*
X60823Y30358D1*
X60884Y30479D1*
Y30661D1*
X60823Y30782D1*
X60762Y30844D1*
X60581Y30904D1*
X60033D1*
Y29628D1*
X61276Y30904D2*
Y29628D1*
X49864Y35491D2*
X50410D1*
X50592Y35553D1*
X50654Y35613D1*
X50714Y35734D1*
Y35856D1*
X50654Y35977D1*
X50592Y36039D1*
X50410Y36099D1*
X49864D1*
Y34823D1*
X50289Y35491D2*
X50714Y34823D1*
X51107Y35855D2*
X51229Y35916D1*
X51411Y36097D1*
Y34823D1*
X49591Y39301D2*
X50137D1*
X50319Y39363D1*
X50381Y39423D1*
X50441Y39544D1*
Y39666D1*
X50381Y39787D1*
X50319Y39849D1*
X50137Y39909D1*
X49591D1*
Y38633D1*
X50016Y39301D2*
X50441Y38633D1*
X50895Y39604D2*
Y39665D1*
X50956Y39787D1*
X51016Y39847D1*
X51138Y39907D1*
X51381D1*
X51502Y39847D1*
X51562Y39787D1*
X51624Y39665D1*
Y39544D1*
X51562Y39422D1*
X51441Y39241D1*
X50834Y38633D1*
X51684D1*
X62070Y35831D2*
Y34860D1*
X62010Y34677D1*
X61948Y34617D1*
X61827Y34555D1*
X61705D1*
X61584Y34617D1*
X61524Y34677D1*
X61462Y34860D1*
Y34981D1*
X62524Y35527D2*
Y35587D1*
X62584Y35709D1*
X62645Y35770D1*
X62767Y35830D1*
X63010D1*
X63130Y35770D1*
X63191Y35709D1*
X63253Y35587D1*
Y35466D1*
X63191Y35344D1*
X63070Y35163D1*
X62462Y34555D1*
X63313D1*
X62070Y38371D2*
Y37400D1*
X62010Y37217D1*
X61948Y37157D1*
X61827Y37095D1*
X61705D1*
X61584Y37157D1*
X61524Y37217D1*
X61462Y37400D1*
Y37521D1*
X62584Y38370D2*
X63251D1*
X62888Y37884D1*
X63070D1*
X63191Y37824D1*
X63251Y37764D1*
X63313Y37581D1*
Y37460D1*
X63251Y37278D1*
X63130Y37156D1*
X62948Y37095D1*
X62765D1*
X62584Y37156D1*
X62524Y37217D1*
X62462Y37338D1*
X67437Y30904D2*
Y29932D1*
X67377Y29750D1*
X67315Y29690D1*
X67194Y29628D1*
X67072D1*
X66952Y29690D1*
X66891Y29750D1*
X66829Y29932D1*
Y30053D1*
X68437Y29628D2*
Y30902D1*
X67829Y30053D1*
X68741D1*
X53534Y23745D2*
X53388Y23684D1*
X53290Y23502D1*
X53242Y23199D1*
Y23016D1*
X53290Y22713D1*
X53388Y22530D1*
X53534Y22470D1*
X53631D1*
X53777Y22530D1*
X53873Y22713D1*
X53923Y23016D1*
Y23199D1*
X53873Y23502D1*
X53777Y23684D1*
X53631Y23745D1*
X53534D1*
X53873Y23502D2*
X53290Y22713D1*
X54236Y22259D2*
X55160D1*
X56056Y23745D2*
X55571D1*
X55523Y23199D1*
X55571Y23259D1*
X55717Y23321D1*
X55862D1*
X56008Y23259D1*
X56106Y23138D1*
X56154Y22956D1*
Y22835D1*
X56106Y22652D1*
X56008Y22530D1*
X55862Y22470D1*
X55717D1*
X55571Y22530D1*
X55523Y22592D1*
X55473Y22713D1*
X59802Y23649D2*
X59656Y23589D1*
X59559Y23407D1*
X59510Y23103D1*
Y22921D1*
X59559Y22618D1*
X59656Y22435D1*
X59802Y22375D1*
X59899D1*
X60045Y22435D1*
X60142Y22618D1*
X60191Y22921D1*
Y23103D1*
X60142Y23407D1*
X60045Y23589D1*
X59899Y23649D1*
X59802D1*
X60142Y23407D2*
X59559Y22618D1*
X60505Y22164D2*
X61428D1*
X61839Y23649D2*
X62373D1*
X62082Y23164D1*
X62228D1*
X62324Y23103D1*
X62373Y23043D1*
X62422Y22861D1*
Y22740D1*
X62373Y22557D1*
X62276Y22435D1*
X62130Y22375D1*
X61984D1*
X61839Y22435D1*
X61791Y22497D1*
X61742Y22618D1*
X14489Y18031D2*
X15765D1*
Y18371D1*
X15703Y18517D1*
X15583Y18615D1*
X15460Y18663D1*
X15279Y18711D1*
X14975D1*
X14792Y18663D1*
X14671Y18615D1*
X14549Y18517D1*
X14489Y18371D1*
Y18031D1*
X14792Y19754D2*
X14671Y19706D1*
X14549Y19608D1*
X14489Y19511D1*
Y19317D1*
X14549Y19219D1*
X14671Y19123D1*
X14792Y19073D1*
X14975Y19025D1*
X15279D1*
X15460Y19073D1*
X15583Y19123D1*
X15703Y19219D1*
X15765Y19317D1*
Y19511D1*
X15703Y19608D1*
X15583Y19706D1*
X15460Y19754D1*
X14489Y20554D2*
X15460D1*
X15643Y20506D1*
X15703Y20456D1*
X15765Y20360D1*
Y20262D1*
X15703Y20165D1*
X15643Y20117D1*
X15460Y20068D1*
X15340D1*
X14914Y21451D2*
X15765D1*
X15097D2*
X14975Y21354D1*
X14914Y21256D1*
Y21111D1*
X14975Y21014D1*
X15097Y20917D1*
X15279Y20868D1*
X15400D1*
X15583Y20917D1*
X15703Y21014D1*
X15765Y21111D1*
Y21256D1*
X15703Y21354D1*
X15583Y21451D1*
X15097Y22348D2*
X14975Y22251D1*
X14914Y22153D1*
Y22008D1*
X14975Y21910D1*
X15097Y21814D1*
X15279Y21764D1*
X15400D1*
X15583Y21814D1*
X15703Y21910D1*
X15765Y22008D1*
Y22153D1*
X15703Y22251D1*
X15583Y22348D1*
X14489Y22662D2*
X15765D1*
X14914Y23148D2*
X15522Y22662D1*
X15279Y22856D2*
X15765Y23197D1*
X14794Y24045D2*
Y23899D1*
X14854Y23802D1*
X14914Y23753D1*
X15036Y23705D1*
X15279D1*
X15340Y23753D1*
Y23851D1*
X15279Y24045D1*
X15400Y24093D1*
Y24141D1*
X15279Y24239D1*
X14976Y24287D1*
X14794Y24239D1*
X14671Y24191D1*
X14551Y24093D1*
X14490Y23997D1*
Y23802D1*
X14551Y23705D1*
X14671Y23608D1*
X14794Y23559D1*
X14976Y23510D1*
X15279D1*
X15462Y23559D1*
X15583Y23608D1*
X15705Y23705D1*
X15765Y23802D1*
Y23997D1*
X15705Y24093D1*
X15583Y24191D1*
X14733Y24045D2*
X15279D1*
X14733Y24601D2*
X14671Y24699D1*
X14490Y24845D1*
X15765D1*
Y25937D2*
X14489Y25547D1*
X15765Y25159D1*
X15340Y25305D2*
Y25791D1*
X27773Y16494D2*
X28685D1*
X28867Y16542D1*
X28988Y16640D1*
X29050Y16786D1*
Y16882D1*
X28988Y17028D1*
X28867Y17126D1*
X28685Y17174D1*
X27773D1*
X27956Y18169D2*
X27834Y18072D1*
X27773Y17926D1*
Y17732D1*
X27834Y17586D1*
X27956Y17488D1*
X28077D1*
X28199Y17537D1*
X28259Y17586D1*
X28320Y17682D1*
X28442Y17974D1*
X28502Y18072D1*
X28564Y18120D1*
X28685Y18169D1*
X28867D1*
X28988Y18072D1*
X29050Y17926D1*
Y17732D1*
X28988Y17586D1*
X28867Y17488D1*
X27773Y18482D2*
X29050D1*
Y18920D1*
X28988Y19066D1*
X28927Y19115D1*
X28807Y19163D1*
X28624D1*
X28502Y19115D1*
X28442Y19066D1*
X28381Y18920D1*
X28320Y19066D1*
X28259Y19115D1*
X28138Y19163D1*
X28016D1*
X27896Y19115D1*
X27834Y19066D1*
X27773Y18920D1*
Y18482D1*
X28381D2*
Y18920D1*
X29050Y19477D2*
X27775Y20157D1*
X27773Y20471D2*
X29050D1*
Y20811D1*
X28988Y20957D1*
X28867Y21055D1*
X28745Y21103D1*
X28564Y21152D1*
X28259D1*
X28077Y21103D1*
X27956Y21055D1*
X27834Y20957D1*
X27773Y20811D1*
Y20471D1*
X28077Y22194D2*
X27956Y22146D1*
X27834Y22048D1*
X27773Y21952D1*
Y21757D1*
X27834Y21660D1*
X27956Y21563D1*
X28077Y21514D1*
X28259Y21465D1*
X28564D1*
X28745Y21514D1*
X28867Y21563D1*
X28988Y21660D1*
X29050Y21757D1*
Y21952D1*
X28988Y22048D1*
X28867Y22146D1*
X28745Y22194D1*
X28078Y23042D2*
Y22896D1*
X28138Y22800D1*
X28199Y22750D1*
X28321Y22702D1*
X28564D1*
X28624Y22750D1*
Y22848D1*
X28564Y23042D1*
X28685Y23091D1*
Y23139D1*
X28564Y23237D1*
X28261Y23285D1*
X28078Y23237D1*
X27956Y23188D1*
X27835Y23091D1*
X27775Y22994D1*
Y22800D1*
X27835Y22702D1*
X27956Y22606D1*
X28078Y22556D1*
X28261Y22508D1*
X28564D1*
X28746Y22556D1*
X28867Y22606D1*
X28989Y22702D1*
X29050Y22800D1*
Y22994D1*
X28989Y23091D1*
X28867Y23188D1*
X28018Y23042D2*
X28564D1*
X28078Y23648D2*
X28018D1*
X27896Y23696D1*
X27835Y23745D1*
X27775Y23842D1*
Y24037D1*
X27835Y24133D1*
X27896Y24182D1*
X28018Y24231D1*
X28138D1*
X28261Y24182D1*
X28442Y24085D1*
X29050Y23599D1*
Y24279D1*
X27775Y25176D2*
Y24691D1*
X28321Y24642D1*
X28261Y24691D1*
X28199Y24837D1*
Y24982D1*
X28261Y25128D1*
X28381Y25225D1*
X28564Y25274D1*
X28685D1*
X28867Y25225D1*
X28989Y25128D1*
X29050Y24982D1*
Y24837D1*
X28989Y24691D1*
X28927Y24642D1*
X28807Y24593D1*
X27775Y25879D2*
X27835Y25733D1*
X28018Y25636D1*
X28321Y25587D1*
X28503D1*
X28807Y25636D1*
X28989Y25733D1*
X29050Y25879D1*
Y25976D1*
X28989Y26122D1*
X28807Y26219D1*
X28503Y26268D1*
X28321D1*
X28018Y26219D1*
X27835Y26122D1*
X27775Y25976D1*
Y25879D1*
X28018Y26219D2*
X28807Y25636D1*
X28199Y26582D2*
X29050D1*
X28442D2*
X28259Y26728D1*
X28199Y26825D1*
Y26970D1*
X28259Y27068D1*
X28442Y27116D1*
X29050D1*
X28442D2*
X28259Y27262D1*
X28199Y27360D1*
Y27505D1*
X28259Y27603D1*
X28442Y27652D1*
X29050D1*
Y28744D2*
X27773Y28354D1*
X29050Y27966D1*
X28624Y28112D2*
Y28598D1*
X49350Y42383D2*
Y41107D1*
X49714Y42079D2*
Y42139D1*
X49762Y42261D1*
X49810Y42322D1*
X49908Y42382D1*
X50102D1*
X50199Y42322D1*
X50247Y42261D1*
X50296Y42139D1*
Y42018D1*
X50247Y41896D1*
X50150Y41715D1*
X49664Y41107D1*
X50345D1*
X51387Y42080D2*
X51339Y42201D1*
X51241Y42323D1*
X51145Y42383D1*
X50950D1*
X50853Y42323D1*
X50756Y42201D1*
X50707Y42080D1*
X50658Y41898D1*
Y41593D1*
X50707Y41412D1*
X50756Y41290D1*
X50853Y41169D1*
X50950Y41107D1*
X51145D1*
X51241Y41169D1*
X51339Y41290D1*
X51387Y41412D1*
X52689Y41715D2*
X53127D1*
X53271Y41776D1*
X53321Y41837D1*
X53369Y41958D1*
Y42141D1*
X53321Y42261D1*
X53271Y42323D1*
X53127Y42383D1*
X52689D1*
Y41107D1*
X53683Y41958D2*
Y41350D1*
X53731Y41169D1*
X53829Y41107D1*
X53975D1*
X54072Y41169D1*
X54218Y41350D1*
Y41958D2*
Y41107D1*
X54531Y42383D2*
Y41107D1*
X54845Y42383D2*
Y41107D1*
X55159Y41958D2*
Y41350D1*
X55207Y41169D1*
X55305Y41107D1*
X55451D1*
X55547Y41169D1*
X55693Y41350D1*
Y41958D2*
Y41107D1*
X56007Y41958D2*
Y40682D1*
Y41776D2*
X56105Y41896D1*
X56201Y41958D1*
X56347D1*
X56445Y41896D1*
X56542Y41776D1*
X56591Y41593D1*
Y41471D1*
X56542Y41290D1*
X56445Y41168D1*
X56347Y41107D1*
X56201D1*
X56105Y41168D1*
X56007Y41290D1*
X57892Y41776D2*
X58329D1*
X58475Y41837D1*
X58525Y41898D1*
X58573Y42018D1*
Y42141D1*
X58525Y42261D1*
X58475Y42323D1*
X58329Y42383D1*
X57892D1*
Y41107D1*
X58233Y41776D2*
X58573Y41107D1*
X58887Y41593D2*
X59469D1*
Y41715D1*
X59421Y41837D1*
X59373Y41898D1*
X59275Y41958D1*
X59129D1*
X59033Y41898D1*
X58935Y41776D1*
X58887Y41593D1*
Y41472D1*
X58935Y41290D1*
X59033Y41169D1*
X59129Y41107D1*
X59275D1*
X59373Y41169D1*
X59469Y41290D1*
X60318Y41776D2*
X60269Y41898D1*
X60123Y41958D1*
X59977D1*
X59831Y41898D1*
X59783Y41776D1*
X59831Y41655D1*
X59929Y41593D1*
X60172Y41533D1*
X60269Y41472D1*
X60318Y41350D1*
Y41290D1*
X60269Y41169D1*
X60123Y41107D1*
X59977D1*
X59831Y41169D1*
X59783Y41290D1*
X60632Y42383D2*
X60680Y42323D1*
X60729Y42383D1*
X60680Y42445D1*
X60632Y42383D1*
X60680Y41958D2*
Y41107D1*
X61578Y41776D2*
X61529Y41898D1*
X61383Y41958D1*
X61237D1*
X61091Y41898D1*
X61043Y41776D1*
X61091Y41655D1*
X61189Y41593D1*
X61432Y41533D1*
X61529Y41472D1*
X61578Y41350D1*
Y41290D1*
X61529Y41169D1*
X61383Y41107D1*
X61237D1*
X61091Y41169D1*
X61043Y41290D1*
X62037Y42383D2*
Y41350D1*
X62086Y41169D1*
X62183Y41107D1*
X62280D1*
X61891Y41958D2*
X62232D1*
X62836D2*
X62740Y41898D1*
X62642Y41776D1*
X62594Y41593D1*
Y41472D1*
X62642Y41290D1*
X62740Y41169D1*
X62836Y41107D1*
X62982D1*
X63080Y41169D1*
X63176Y41290D1*
X63226Y41472D1*
Y41593D1*
X63176Y41776D1*
X63080Y41898D1*
X62982Y41958D1*
X62836D1*
X63540D2*
Y41107D1*
Y41593D2*
X63589Y41776D1*
X63686Y41898D1*
X63783Y41958D1*
X63929D1*
X64778Y41776D2*
X64729Y41898D1*
X64583Y41958D1*
X64437D1*
X64291Y41898D1*
X64243Y41776D1*
X64291Y41655D1*
X64389Y41593D1*
X64632Y41533D1*
X64729Y41472D1*
X64778Y41350D1*
Y41290D1*
X64729Y41169D1*
X64583Y41107D1*
X64437D1*
X64291Y41169D1*
X64243Y41290D1*
X47783Y57537D2*
D53*
Y56006D1*
X48308D1*
X48483Y56080D1*
X48541Y56152D1*
X48599Y56297D1*
Y56516D1*
X48541Y56663D1*
X48483Y56735D1*
X48308Y56808D1*
X48483Y56882D1*
X48541Y56954D1*
X48599Y57099D1*
Y57246D1*
X48541Y57391D1*
X48483Y57465D1*
X48308Y57537D1*
X47783D1*
Y56808D2*
X48308D1*
X48976Y56589D2*
X49675D1*
Y56735D1*
X49617Y56882D1*
X49559Y56954D1*
X49442Y57027D1*
X49267D1*
X49151Y56954D1*
X49034Y56808D1*
X48976Y56589D1*
Y56444D1*
X49034Y56225D1*
X49151Y56080D1*
X49267Y56006D1*
X49442D1*
X49559Y56080D1*
X49675Y56225D1*
X50751Y57027D2*
Y56006D1*
Y56808D2*
X50635Y56954D1*
X50518Y57027D1*
X50344D1*
X50227Y56954D1*
X50111Y56808D1*
X50052Y56589D1*
Y56444D1*
X50111Y56225D1*
X50227Y56080D1*
X50344Y56006D1*
X50518D1*
X50635Y56080D1*
X50751Y56225D1*
X51827Y56954D2*
Y55787D1*
X51769Y55570D1*
X51711Y55495D1*
X51594Y55423D1*
X51419D1*
X51303Y55495D1*
X51827Y56735D2*
X51711Y56880D1*
X51594Y56954D1*
X51419D1*
X51303Y56880D1*
X51185Y56735D1*
X51128Y56516D1*
Y56370D1*
X51185Y56152D1*
X51303Y56006D1*
X51419Y55933D1*
X51594D1*
X51711Y56006D1*
X51827Y56152D1*
X52203Y57537D2*
Y56006D1*
X52580Y56589D2*
X53279D1*
Y56735D1*
X53221Y56882D1*
X53163Y56954D1*
X53046Y57027D1*
X52871D1*
X52755Y56954D1*
X52638Y56808D1*
X52580Y56589D1*
Y56444D1*
X52638Y56225D1*
X52755Y56080D1*
X52871Y56006D1*
X53046D1*
X53163Y56080D1*
X53279Y56225D1*
X53656Y57537D2*
Y56006D1*
X54181D1*
X54357Y56080D1*
X54415Y56152D1*
X54473Y56297D1*
Y56516D1*
X54415Y56663D1*
X54357Y56735D1*
X54181Y56808D1*
X54357Y56882D1*
X54415Y56954D1*
X54473Y57099D1*
Y57246D1*
X54415Y57391D1*
X54357Y57465D1*
X54181Y57537D1*
X53656D1*
Y56808D2*
X54181D1*
X55140Y57027D2*
X55024Y56954D1*
X54907Y56808D1*
X54849Y56589D1*
Y56444D1*
X54907Y56225D1*
X55024Y56080D1*
X55140Y56006D1*
X55315D1*
X55433Y56080D1*
X55548Y56225D1*
X55608Y56444D1*
Y56589D1*
X55548Y56808D1*
X55433Y56954D1*
X55315Y57027D1*
X55140D1*
X55984D2*
Y56006D1*
Y56735D2*
X56159Y56954D1*
X56277Y57027D1*
X56451D1*
X56568Y56954D1*
X56626Y56735D1*
Y56006D1*
X57002Y56589D2*
X57702D1*
Y56735D1*
X57644Y56882D1*
X57586Y56954D1*
X57469Y57027D1*
X57293D1*
X57177Y56954D1*
X57060Y56808D1*
X57002Y56589D1*
Y56444D1*
X57060Y56225D1*
X57177Y56080D1*
X57293Y56006D1*
X57469D1*
X57586Y56080D1*
X57702Y56225D1*
X59263Y57537D2*
Y56006D1*
X59963D1*
X61039Y57027D2*
Y56006D1*
Y56808D2*
X60923Y56954D1*
X60805Y57027D1*
X60632D1*
X60514Y56954D1*
X60398Y56808D1*
X60339Y56589D1*
Y56444D1*
X60398Y56225D1*
X60514Y56080D1*
X60632Y56006D1*
X60805D1*
X60923Y56080D1*
X61039Y56225D1*
X61415Y57027D2*
Y56297D1*
X61473Y56080D1*
X61590Y56006D1*
X61765D1*
X61881Y56080D1*
X62057Y56297D1*
Y57027D2*
Y56006D1*
X62433Y57027D2*
Y56006D1*
Y56735D2*
X62608Y56954D1*
X62725Y57027D1*
X62899D1*
X63017Y56954D1*
X63075Y56735D1*
Y56006D1*
X64152Y56808D2*
X64035Y56954D1*
X63917Y57027D1*
X63743D1*
X63626Y56954D1*
X63510Y56808D1*
X63451Y56589D1*
Y56444D1*
X63510Y56225D1*
X63626Y56080D1*
X63743Y56006D1*
X63917D1*
X64035Y56080D1*
X64152Y56225D1*
X64528Y57537D2*
Y56006D1*
Y56735D2*
X64703Y56954D1*
X64821Y57027D1*
X64996D1*
X65112Y56954D1*
X65170Y56735D1*
Y56006D1*
X65546Y56735D2*
X66072D1*
X66246Y56808D1*
X66305Y56882D1*
X66363Y57027D1*
Y57246D1*
X66305Y57391D1*
X66246Y57465D1*
X66072Y57537D1*
X65546D1*
Y56006D1*
X67439Y57027D2*
Y56006D1*
Y56808D2*
X67323Y56954D1*
X67206Y57027D1*
X67032D1*
X66915Y56954D1*
X66799Y56808D1*
X66739Y56589D1*
Y56444D1*
X66799Y56225D1*
X66915Y56080D1*
X67032Y56006D1*
X67206D1*
X67323Y56080D1*
X67439Y56225D1*
X68515Y57537D2*
Y56006D1*
Y56808D2*
X68399Y56954D1*
X68282Y57027D1*
X68106D1*
X67991Y56954D1*
X67873Y56808D1*
X67815Y56589D1*
Y56444D1*
X67873Y56225D1*
X67991Y56080D1*
X68106Y56006D1*
X68282D1*
X68399Y56080D1*
X68515Y56225D1*
X70951Y57173D2*
X70893Y57318D1*
X70776Y57465D1*
X70660Y57537D1*
X70427D1*
X70310Y57465D1*
X70194Y57318D1*
X70134Y57173D1*
X70076Y56954D1*
Y56589D1*
X70134Y56371D1*
X70194Y56225D1*
X70310Y56080D1*
X70427Y56006D1*
X70660D1*
X70776Y56080D1*
X70893Y56225D1*
X70951Y56371D1*
X72027Y57027D2*
Y56006D1*
Y56808D2*
X71911Y56954D1*
X71794Y57027D1*
X71620D1*
X71503Y56954D1*
X71387Y56808D1*
X71327Y56589D1*
Y56444D1*
X71387Y56225D1*
X71503Y56080D1*
X71620Y56006D1*
X71794D1*
X71911Y56080D1*
X72027Y56225D1*
X72403Y57027D2*
Y55495D1*
Y56808D2*
X72521Y56953D1*
X72637Y57027D1*
X72812D1*
X72929Y56953D1*
X73045Y56808D1*
X73104Y56589D1*
Y56442D1*
X73045Y56225D1*
X72929Y56078D1*
X72812Y56006D1*
X72637D1*
X72521Y56078D1*
X72403Y56225D1*
X73481Y56589D2*
X74180D1*
Y56735D1*
X74122Y56882D1*
X74064Y56954D1*
X73947Y57027D1*
X73772D1*
X73656Y56954D1*
X73539Y56808D1*
X73481Y56589D1*
Y56444D1*
X73539Y56225D1*
X73656Y56080D1*
X73772Y56006D1*
X73947D1*
X74064Y56080D1*
X74180Y56225D1*
X56038Y53950D2*
X56562D1*
X56737Y54024D1*
X56796Y54097D1*
X56854Y54242D1*
Y54388D1*
X56796Y54533D1*
X56737Y54607D1*
X56562Y54680D1*
X56038D1*
Y53148D1*
X56446Y53950D2*
X56854Y53148D1*
X57231Y53731D2*
X57930D1*
Y53878D1*
X57872Y54024D1*
X57814Y54097D1*
X57697Y54169D1*
X57522D1*
X57406Y54097D1*
X57289Y53950D1*
X57231Y53731D1*
Y53586D1*
X57289Y53367D1*
X57406Y53223D1*
X57522Y53148D1*
X57697D1*
X57814Y53223D1*
X57930Y53367D1*
X58307Y54169D2*
X58657Y53148D1*
X59006Y54169D1*
X59383Y54680D2*
X59440Y54607D1*
X59500Y54680D1*
X59440Y54754D1*
X59383Y54680D1*
X59440Y54169D2*
Y53148D1*
X60518Y53950D2*
X60460Y54097D1*
X60285Y54169D1*
X60109D1*
X59934Y54097D1*
X59876Y53950D1*
X59934Y53805D1*
X60051Y53731D1*
X60343Y53659D1*
X60460Y53586D1*
X60518Y53440D1*
Y53367D1*
X60460Y53223D1*
X60285Y53148D1*
X60109D1*
X59934Y53223D1*
X59876Y53367D1*
X60894Y54680D2*
X60952Y54607D1*
X61011Y54680D1*
X60952Y54754D1*
X60894Y54680D1*
X60952Y54169D2*
Y53148D1*
X61679Y54169D2*
X61563Y54097D1*
X61446Y53950D1*
X61388Y53731D1*
Y53586D1*
X61446Y53367D1*
X61563Y53223D1*
X61679Y53148D1*
X61854D1*
X61971Y53223D1*
X62087Y53367D1*
X62147Y53586D1*
Y53731D1*
X62087Y53950D1*
X61971Y54097D1*
X61854Y54169D1*
X61679D1*
X62523D2*
Y53148D1*
Y53878D2*
X62698Y54097D1*
X62816Y54169D1*
X62989D1*
X63107Y54097D1*
X63165Y53878D1*
Y53148D1*
X64843Y54678D2*
X65484D1*
X65135Y54095D1*
X65310D1*
X65426Y54023D1*
X65484Y53950D1*
X65543Y53731D1*
Y53586D1*
X65484Y53367D1*
X65368Y53221D1*
X65193Y53148D1*
X65017D1*
X64843Y53221D1*
X64786Y53295D1*
X64726Y53440D1*
X65977Y53295D2*
X65919Y53221D1*
X65977Y53148D1*
X66037Y53221D1*
X65977Y53295D1*
X66764Y54678D2*
X66588Y54606D1*
X66471Y54387D1*
X66413Y54023D1*
Y53804D1*
X66471Y53440D1*
X66588Y53221D1*
X66764Y53148D1*
X66879D1*
X67055Y53221D1*
X67171Y53440D1*
X67230Y53804D1*
Y54023D1*
X67171Y54387D1*
X67055Y54606D1*
X66879Y54678D1*
X66764D1*
X67171Y54387D2*
X66471Y53440D1*
X18722Y56347D2*
D52*
Y57622D1*
X18235Y56773D1*
X18964D1*
X19376Y57622D2*
X19909D1*
X19618Y57136D1*
X19764D1*
X19861Y57076D1*
X19909Y57016D1*
X19959Y56833D1*
Y56712D1*
X19909Y56530D1*
X19813Y56408D1*
X19667Y56347D1*
X19521D1*
X19376Y56408D1*
X19327Y56469D1*
X19278Y56590D1*
X20515Y57198D2*
X20418Y57138D1*
X20321Y57016D1*
X20272Y56833D1*
Y56712D1*
X20321Y56530D1*
X20418Y56409D1*
X20515Y56347D1*
X20661D1*
X20759Y56409D1*
X20855Y56530D1*
X20905Y56712D1*
Y56833D1*
X20855Y57016D1*
X20759Y57138D1*
X20661Y57198D1*
X20515D1*
X21218Y57623D2*
Y56347D1*
Y56955D2*
X21364Y57138D1*
X21462Y57198D1*
X21608D1*
X21705Y57138D1*
X21753Y56955D1*
Y56347D1*
X22115Y56469D2*
X22067Y56408D1*
X22115Y56347D1*
X22164Y56408D1*
X22115Y56469D1*
X23062Y57016D2*
X22964Y57138D1*
X22867Y57198D1*
X22722D1*
X22624Y57138D1*
X22527Y57016D1*
X22478Y56833D1*
Y56712D1*
X22527Y56530D1*
X22624Y56409D1*
X22722Y56347D1*
X22867D1*
X22964Y56409D1*
X23062Y56530D1*
X23618Y57198D2*
X23522Y57138D1*
X23424Y57016D1*
X23376Y56833D1*
Y56712D1*
X23424Y56530D1*
X23522Y56409D1*
X23618Y56347D1*
X23764D1*
X23862Y56409D1*
X23959Y56530D1*
X24008Y56712D1*
Y56833D1*
X23959Y57016D1*
X23862Y57138D1*
X23764Y57198D1*
X23618D1*
X24322D2*
Y56347D1*
Y56955D2*
X24468Y57138D1*
X24566Y57198D1*
X24710D1*
X24808Y57138D1*
X24856Y56955D1*
Y56347D1*
Y56955D2*
X25002Y57138D1*
X25100Y57198D1*
X25245D1*
X25343Y57138D1*
X25392Y56955D1*
Y56347D1*
X26693D2*
X27374Y57622D1*
X28675Y57623D2*
Y56347D1*
Y57016D2*
X28773Y57138D1*
X28870Y57198D1*
X29016D1*
X29112Y57138D1*
X29210Y57016D1*
X29258Y56833D1*
Y56712D1*
X29210Y56530D1*
X29112Y56409D1*
X29016Y56347D1*
X28870D1*
X28773Y56409D1*
X28675Y56530D1*
X29572Y56833D2*
X30155D1*
Y56955D1*
X30106Y57077D1*
X30058Y57138D1*
X29960Y57198D1*
X29814D1*
X29718Y57138D1*
X29620Y57016D1*
X29572Y56833D1*
Y56712D1*
X29620Y56530D1*
X29718Y56409D1*
X29814Y56347D1*
X29960D1*
X30058Y56409D1*
X30155Y56530D1*
X31051Y57198D2*
Y56347D1*
Y57016D2*
X30955Y57138D1*
X30857Y57198D1*
X30712D1*
X30614Y57138D1*
X30518Y57016D1*
X30468Y56833D1*
Y56712D1*
X30518Y56530D1*
X30614Y56409D1*
X30712Y56347D1*
X30857D1*
X30955Y56409D1*
X31051Y56530D1*
X31948Y57138D2*
Y56165D1*
X31900Y55984D1*
X31851Y55922D1*
X31754Y55862D1*
X31608D1*
X31511Y55922D1*
X31948Y56955D2*
X31851Y57076D1*
X31754Y57138D1*
X31608D1*
X31511Y57076D1*
X31413Y56955D1*
X31365Y56773D1*
Y56651D1*
X31413Y56469D1*
X31511Y56347D1*
X31608Y56287D1*
X31754D1*
X31851Y56347D1*
X31948Y56469D1*
X32262Y57623D2*
Y56347D1*
X32575Y56833D2*
X33158D1*
Y56955D1*
X33110Y57077D1*
X33062Y57138D1*
X32964Y57198D1*
X32818D1*
X32721Y57138D1*
X32624Y57016D1*
X32575Y56833D1*
Y56712D1*
X32624Y56530D1*
X32721Y56409D1*
X32818Y56347D1*
X32964D1*
X33062Y56409D1*
X33158Y56530D1*
X33861Y57623D2*
X33764D1*
X33666Y57563D1*
X33618Y57381D1*
Y56347D1*
X33472Y57198D2*
X33812D1*
X34174D2*
Y56590D1*
X34223Y56409D1*
X34320Y56347D1*
X34466D1*
X34563Y56409D1*
X34709Y56590D1*
Y57198D2*
Y56347D1*
X35071Y56469D2*
X35023Y56408D1*
X35071Y56347D1*
X35120Y56408D1*
X35071Y56469D1*
X36018Y57016D2*
X35920Y57138D1*
X35823Y57198D1*
X35678D1*
X35580Y57138D1*
X35484Y57016D1*
X35434Y56833D1*
Y56712D1*
X35484Y56530D1*
X35580Y56409D1*
X35678Y56347D1*
X35823D1*
X35920Y56409D1*
X36018Y56530D1*
X36574Y57198D2*
X36478Y57138D1*
X36380Y57016D1*
X36332Y56833D1*
Y56712D1*
X36380Y56530D1*
X36478Y56409D1*
X36574Y56347D1*
X36720D1*
X36818Y56409D1*
X36915Y56530D1*
X36964Y56712D1*
Y56833D1*
X36915Y57016D1*
X36818Y57138D1*
X36720Y57198D1*
X36574D1*
X37278D2*
Y56347D1*
Y56955D2*
X37424Y57138D1*
X37522Y57198D1*
X37666D1*
X37764Y57138D1*
X37812Y56955D1*
Y56347D1*
Y56955D2*
X37958Y57138D1*
X38056Y57198D1*
X38201D1*
X38299Y57138D1*
X38348Y56955D1*
Y56347D1*
X70328Y31286D2*
X70230Y31165D1*
X70134Y30983D1*
X70036Y30740D1*
X69988Y30435D1*
Y30192D1*
X70036Y29889D1*
X70134Y29646D1*
X70230Y29464D1*
X70328Y29343D1*
X71420Y29677D2*
X71031Y30953D1*
X70642Y29677D1*
X70788Y30103D2*
X71274D1*
X71734Y30528D2*
Y29677D1*
Y30285D2*
X71880Y30468D1*
X71978Y30528D1*
X72123D1*
X72220Y30468D1*
X72269Y30285D1*
Y29677D1*
X73165Y30528D2*
Y29677D1*
Y30346D2*
X73069Y30468D1*
X72971Y30528D1*
X72826D1*
X72728Y30468D1*
X72632Y30346D1*
X72582Y30163D1*
Y30042D1*
X72632Y29860D1*
X72728Y29739D1*
X72826Y29677D1*
X72971D1*
X73069Y29739D1*
X73165Y29860D1*
X73479Y30953D2*
Y29677D1*
X74035Y30528D2*
X73939Y30468D1*
X73841Y30346D1*
X73793Y30163D1*
Y30042D1*
X73841Y29860D1*
X73939Y29739D1*
X74035Y29677D1*
X74181D1*
X74279Y29739D1*
X74375Y29860D1*
X74425Y30042D1*
Y30163D1*
X74375Y30346D1*
X74279Y30468D1*
X74181Y30528D1*
X74035D1*
X75321Y30468D2*
Y29495D1*
X75273Y29314D1*
X75225Y29252D1*
X75127Y29192D1*
X74981D1*
X74885Y29252D1*
X75321Y30285D2*
X75225Y30406D1*
X75127Y30468D1*
X74981D1*
X74885Y30406D1*
X74787Y30285D1*
X74739Y30103D1*
Y29981D1*
X74787Y29799D1*
X74885Y29677D1*
X74981Y29617D1*
X75127D1*
X75225Y29677D1*
X75321Y29799D1*
X75635Y31286D2*
X75733Y31165D1*
X75829Y30983D1*
X75927Y30740D1*
X75975Y30435D1*
Y30192D1*
X75927Y29889D1*
X75829Y29646D1*
X75733Y29464D1*
X75635Y29343D1*
X32671Y48710D2*
X32962Y47434D1*
X33254Y48710D1*
X33927Y48102D2*
X33854Y48224D1*
X33781Y48285D1*
X33672D1*
X33599Y48224D1*
X33526Y48102D1*
X33489Y47920D1*
Y47799D1*
X33526Y47616D1*
X33599Y47496D1*
X33672Y47434D1*
X33781D1*
X33854Y47496D1*
X33927Y47616D1*
X34600Y48102D2*
X34527Y48224D1*
X34454Y48285D1*
X34345D1*
X34272Y48224D1*
X34200Y48102D1*
X34162Y47920D1*
Y47799D1*
X34200Y47616D1*
X34272Y47496D1*
X34345Y47434D1*
X34454D1*
X34527Y47496D1*
X34600Y47616D1*
X36754Y48709D2*
X36390D1*
X36354Y48163D1*
X36390Y48223D1*
X36500Y48285D1*
X36609D1*
X36718Y48223D1*
X36791Y48102D1*
X36828Y47920D1*
Y47799D1*
X36791Y47616D1*
X36718Y47494D1*
X36609Y47434D1*
X36500D1*
X36390Y47494D1*
X36354Y47556D1*
X36317Y47677D1*
X37063Y48710D2*
X37354Y47434D1*
X37646Y48710D1*
X31338Y45452D2*
X31666D1*
X31775Y45513D1*
X31812Y45574D1*
X31848Y45695D1*
Y45878D1*
X31812Y45998D1*
X31775Y46060D1*
X31666Y46121D1*
X31338D1*
Y44844D1*
X32558Y45695D2*
X32521Y45513D1*
X32448Y45391D1*
X32339Y45330D1*
X32303D1*
X32193Y45391D1*
X32121Y45513D1*
X32084Y45695D1*
Y45756D1*
X32121Y45938D1*
X32193Y46059D1*
X32303Y46119D1*
X32339D1*
X32448Y46059D1*
X32521Y45938D1*
X32558Y45695D1*
Y45391D1*
X32521Y45087D1*
X32448Y44905D1*
X32339Y44844D1*
X32266D1*
X32157Y44905D1*
X32121Y45027D1*
X32793Y44634D2*
X33486D1*
X33721Y45876D2*
X33794Y45938D1*
X33904Y46119D1*
Y44844D1*
X34176Y45816D2*
Y45876D1*
X34212Y45998D1*
X34248Y46059D1*
X34322Y46119D1*
X34467D1*
X34540Y46059D1*
X34576Y45998D1*
X34613Y45876D1*
Y45756D1*
X34576Y45633D1*
X34504Y45452D1*
X34139Y44844D1*
X34649D1*
X36913Y45817D2*
X36876Y45938D1*
X36803Y46060D1*
X36731Y46121D1*
X36585D1*
X36512Y46060D1*
X36439Y45938D1*
X36402Y45817D1*
X36366Y45635D1*
Y45330D1*
X36402Y45149D1*
X36439Y45027D1*
X36512Y44906D1*
X36585Y44844D1*
X36731D1*
X36803Y44906D1*
X36876Y45027D1*
X36913Y45149D1*
Y45330D1*
X36731D1*
X37658Y46121D2*
Y44844D1*
X37148Y46121D1*
Y44844D1*
X37894Y46121D2*
Y44844D1*
X38149D1*
X38258Y44906D1*
X38332Y45027D1*
X38368Y45149D1*
X38404Y45330D1*
Y45635D1*
X38368Y45817D1*
X38332Y45938D1*
X38258Y46060D1*
X38149Y46121D1*
X37894D1*
X31671Y43048D2*
X31999D1*
X32108Y43109D1*
X32145Y43171D1*
X32181Y43291D1*
Y43474D1*
X32145Y43595D1*
X32108Y43656D1*
X31999Y43717D1*
X31671D1*
Y42441D1*
X32891Y43291D2*
X32854Y43109D1*
X32781Y42987D1*
X32672Y42926D1*
X32635D1*
X32526Y42987D1*
X32453Y43109D1*
X32416Y43291D1*
Y43352D1*
X32453Y43534D1*
X32526Y43655D1*
X32635Y43715D1*
X32672D1*
X32781Y43655D1*
X32854Y43534D1*
X32891Y43291D1*
Y42987D1*
X32854Y42683D1*
X32781Y42501D1*
X32672Y42441D1*
X32599D1*
X32490Y42501D1*
X32453Y42623D1*
X33126Y42230D2*
X33818D1*
X34054Y43472D2*
X34127Y43534D1*
X34236Y43715D1*
Y42441D1*
X34472Y43472D2*
X34545Y43534D1*
X34654Y43715D1*
Y42441D1*
X36882Y43717D2*
Y42441D1*
X36371Y43717D1*
Y42441D1*
X37663Y43413D2*
X37627Y43534D1*
X37554Y43656D1*
X37482Y43717D1*
X37336D1*
X37263Y43656D1*
X37190Y43534D1*
X37153Y43413D1*
X37117Y43231D1*
Y42926D1*
X37153Y42745D1*
X37190Y42623D1*
X37263Y42502D1*
X37336Y42441D1*
X37482D1*
X37554Y42502D1*
X37627Y42623D1*
X37663Y42745D1*
X31478Y40592D2*
X31806D1*
X31915Y40652D1*
X31952Y40714D1*
X31988Y40835D1*
Y41017D1*
X31952Y41138D1*
X31915Y41200D1*
X31806Y41260D1*
X31478D1*
Y39984D1*
X32698Y40835D2*
X32661Y40652D1*
X32588Y40530D1*
X32479Y40470D1*
X32443D1*
X32333Y40530D1*
X32261Y40652D1*
X32224Y40835D1*
Y40895D1*
X32261Y41077D1*
X32333Y41198D1*
X32443Y41258D1*
X32479D1*
X32588Y41198D1*
X32661Y41077D1*
X32698Y40835D1*
Y40530D1*
X32661Y40227D1*
X32588Y40044D1*
X32479Y39984D1*
X32406D1*
X32297Y40044D1*
X32261Y40166D1*
X32933Y39773D2*
X33625D1*
X33861Y41016D2*
X33934Y41077D1*
X34044Y41258D1*
Y39984D1*
X34352Y41258D2*
X34752D1*
X34534Y40773D1*
X34644D1*
X34716Y40712D1*
X34752Y40652D1*
X34789Y40470D1*
Y40349D1*
X34752Y40166D1*
X34680Y40044D1*
X34570Y39984D1*
X34461D1*
X34352Y40044D1*
X34316Y40106D1*
X34279Y40227D1*
X31349Y38131D2*
X31678D1*
X31786Y38191D1*
X31824Y38253D1*
X31860Y38374D1*
Y38556D1*
X31824Y38677D1*
X31786Y38739D1*
X31678Y38799D1*
X31349D1*
Y37523D1*
X32569Y38374D2*
X32532Y38191D1*
X32460Y38069D1*
X32350Y38009D1*
X32314D1*
X32205Y38069D1*
X32132Y38191D1*
X32095Y38374D1*
Y38434D1*
X32132Y38617D1*
X32205Y38738D1*
X32314Y38798D1*
X32350D1*
X32460Y38738D1*
X32532Y38617D1*
X32569Y38374D1*
Y38069D1*
X32532Y37766D1*
X32460Y37584D1*
X32350Y37523D1*
X32278D1*
X32168Y37584D1*
X32132Y37706D1*
X32805Y37313D2*
X33497D1*
X33732Y38555D2*
X33806Y38617D1*
X33915Y38798D1*
Y37523D1*
X34587Y38798D2*
X34224D1*
X34187Y38252D1*
X34224Y38312D1*
X34333Y38374D1*
X34442D1*
X34551Y38312D1*
X34625Y38191D1*
X34661Y38009D1*
Y37888D1*
X34625Y37706D1*
X34551Y37584D1*
X34442Y37523D1*
X34333D1*
X34224Y37584D1*
X34187Y37645D1*
X34150Y37766D1*
X31285Y35353D2*
X31614D1*
X31722Y35413D1*
X31759Y35475D1*
X31796Y35596D1*
Y35778D1*
X31759Y35899D1*
X31722Y35961D1*
X31614Y36021D1*
X31285D1*
Y34745D1*
X32505Y35596D2*
X32468Y35413D1*
X32396Y35291D1*
X32286Y35231D1*
X32250D1*
X32140Y35291D1*
X32068Y35413D1*
X32031Y35596D1*
Y35656D1*
X32068Y35839D1*
X32140Y35959D1*
X32250Y36020D1*
X32286D1*
X32396Y35959D1*
X32468Y35839D1*
X32505Y35596D1*
Y35291D1*
X32468Y34988D1*
X32396Y34805D1*
X32286Y34745D1*
X32214D1*
X32104Y34805D1*
X32068Y34928D1*
X32740Y34535D2*
X33433D1*
X33668Y35777D2*
X33741Y35839D1*
X33851Y36020D1*
Y34745D1*
X34523Y35839D2*
X34487Y35959D1*
X34378Y36020D1*
X34305D1*
X34196Y35959D1*
X34122Y35777D1*
X34086Y35474D1*
Y35170D1*
X34122Y34928D1*
X34196Y34805D1*
X34305Y34745D1*
X34341D1*
X34450Y34805D1*
X34523Y34928D1*
X34559Y35110D1*
Y35170D1*
X34523Y35353D1*
X34450Y35474D1*
X34341Y35534D1*
X34305D1*
X34196Y35474D1*
X34122Y35353D1*
X34086Y35170D1*
X30964Y32824D2*
X31292D1*
X31401Y32885D1*
X31438Y32946D1*
X31474Y33067D1*
Y33250D1*
X31438Y33370D1*
X31401Y33432D1*
X31292Y33493D1*
X30964D1*
Y32216D1*
X32184Y33067D2*
X32147Y32885D1*
X32074Y32763D1*
X31965Y32702D1*
X31929D1*
X31819Y32763D1*
X31747Y32885D1*
X31710Y33067D1*
Y33128D1*
X31747Y33310D1*
X31819Y33431D1*
X31929Y33491D1*
X31965D1*
X32074Y33431D1*
X32147Y33310D1*
X32184Y33067D1*
Y32763D1*
X32147Y32459D1*
X32074Y32277D1*
X31965Y32216D1*
X31892D1*
X31783Y32277D1*
X31747Y32399D1*
X32419Y32006D2*
X33111D1*
X33384Y33188D2*
Y33248D1*
X33420Y33370D1*
X33456Y33431D1*
X33530Y33491D1*
X33675D1*
X33748Y33431D1*
X33784Y33370D1*
X33821Y33248D1*
Y33128D1*
X33784Y33005D1*
X33711Y32824D1*
X33347Y32216D1*
X33857D1*
X34130Y33188D2*
Y33248D1*
X34166Y33370D1*
X34202Y33431D1*
X34275Y33491D1*
X34421D1*
X34493Y33431D1*
X34530Y33370D1*
X34567Y33248D1*
Y33128D1*
X34530Y33005D1*
X34457Y32824D1*
X34092Y32216D1*
X34603D1*
X31028Y30420D2*
X31357D1*
X31465Y30481D1*
X31502Y30543D1*
X31539Y30663D1*
Y30846D1*
X31502Y30967D1*
X31465Y31028D1*
X31357Y31089D1*
X31028D1*
Y29813D1*
X32248Y30663D2*
X32211Y30481D1*
X32139Y30359D1*
X32029Y30298D1*
X31993D1*
X31883Y30359D1*
X31811Y30481D1*
X31774Y30663D1*
Y30724D1*
X31811Y30906D1*
X31883Y31027D1*
X31993Y31087D1*
X32029D1*
X32139Y31027D1*
X32211Y30906D1*
X32248Y30663D1*
Y30359D1*
X32211Y30055D1*
X32139Y29873D1*
X32029Y29813D1*
X31957D1*
X31847Y29873D1*
X31811Y29995D1*
X32483Y29602D2*
X33176D1*
X33448Y30784D2*
Y30844D1*
X33484Y30967D1*
X33520Y31027D1*
X33594Y31087D1*
X33739D1*
X33812Y31027D1*
X33848Y30967D1*
X33885Y30844D1*
Y30724D1*
X33848Y30602D1*
X33776Y30420D1*
X33411Y29813D1*
X33921D1*
X34230Y31087D2*
X34630D1*
X34412Y30602D1*
X34521D1*
X34594Y30541D1*
X34630Y30481D1*
X34667Y30298D1*
Y30178D1*
X34630Y29995D1*
X34558Y29873D1*
X34448Y29813D1*
X34339D1*
X34230Y29873D1*
X34194Y29935D1*
X34157Y30055D1*
X30964Y27828D2*
X31292D1*
X31401Y27888D1*
X31438Y27950D1*
X31474Y28070D1*
Y28253D1*
X31438Y28374D1*
X31401Y28435D1*
X31292Y28496D1*
X30964D1*
Y27220D1*
X32184Y28070D2*
X32147Y27888D1*
X32074Y27766D1*
X31965Y27705D1*
X31929D1*
X31819Y27766D1*
X31747Y27888D1*
X31710Y28070D1*
Y28131D1*
X31747Y28313D1*
X31819Y28434D1*
X31929Y28494D1*
X31965D1*
X32074Y28434D1*
X32147Y28313D1*
X32184Y28070D1*
Y27766D1*
X32147Y27463D1*
X32074Y27280D1*
X31965Y27220D1*
X31892D1*
X31783Y27280D1*
X31747Y27402D1*
X32419Y27009D2*
X33111D1*
X33384Y28191D2*
Y28252D1*
X33420Y28374D1*
X33456Y28434D1*
X33530Y28494D1*
X33675D1*
X33748Y28434D1*
X33784Y28374D1*
X33821Y28252D1*
Y28131D1*
X33784Y28009D1*
X33711Y27828D1*
X33347Y27220D1*
X33857D1*
X34457D2*
Y28494D1*
X34092Y27645D1*
X34639D1*
X30900Y25238D2*
X31228D1*
X31337Y25299D1*
X31374Y25361D1*
X31410Y25481D1*
Y25664D1*
X31374Y25785D1*
X31337Y25846D1*
X31228Y25907D1*
X30900D1*
Y24631D1*
X32119Y25481D2*
X32082Y25299D1*
X32010Y25177D1*
X31900Y25116D1*
X31864D1*
X31755Y25177D1*
X31682Y25299D1*
X31645Y25481D1*
Y25542D1*
X31682Y25724D1*
X31755Y25845D1*
X31864Y25905D1*
X31900D1*
X32010Y25845D1*
X32082Y25724D1*
X32119Y25481D1*
Y25177D1*
X32082Y24873D1*
X32010Y24691D1*
X31900Y24631D1*
X31828D1*
X31719Y24691D1*
X31682Y24813D1*
X32355Y24420D2*
X33047D1*
X33320Y25602D2*
Y25662D1*
X33356Y25785D1*
X33392Y25845D1*
X33465Y25905D1*
X33611D1*
X33683Y25845D1*
X33720Y25785D1*
X33757Y25662D1*
Y25542D1*
X33720Y25420D1*
X33647Y25238D1*
X33282Y24631D1*
X33793D1*
X34465Y25724D2*
X34429Y25845D1*
X34320Y25905D1*
X34247D1*
X34138Y25845D1*
X34064Y25662D1*
X34028Y25359D1*
Y25056D1*
X34064Y24813D1*
X34138Y24691D1*
X34247Y24631D1*
X34283D1*
X34392Y24691D1*
X34465Y24813D1*
X34502Y24996D1*
Y25056D1*
X34465Y25238D1*
X34392Y25359D1*
X34283Y25420D1*
X34247D1*
X34138Y25359D1*
X34064Y25238D1*
X34028Y25056D1*
X88105Y48046D2*
X88379D1*
X88469Y48106D1*
X88500Y48168D1*
X88530Y48288D1*
Y48471D1*
X88500Y48592D1*
X88469Y48653D1*
X88379Y48714D1*
X88105D1*
Y47438D1*
X88878Y48712D2*
X88788Y48652D1*
X88757Y48531D1*
Y48409D1*
X88788Y48288D1*
X88848Y48227D1*
X88969Y48166D1*
X89061Y48106D1*
X89121Y47984D1*
X89151Y47863D1*
Y47681D1*
X89121Y47560D1*
X89091Y47498D1*
X88999Y47438D1*
X88878D1*
X88788Y47498D1*
X88757Y47560D1*
X88726Y47681D1*
Y47863D1*
X88757Y47984D1*
X88818Y48106D1*
X88908Y48166D1*
X89030Y48227D1*
X89091Y48288D1*
X89121Y48409D1*
Y48531D1*
X89091Y48652D1*
X88999Y48712D1*
X88878D1*
X89347Y47227D2*
X89924D1*
X90120Y48470D2*
X90181Y48531D1*
X90273Y48712D1*
Y47438D1*
X90864Y48288D2*
X90833Y48106D1*
X90773Y47984D1*
X90681Y47923D1*
X90651D1*
X90560Y47984D1*
X90500Y48106D1*
X90469Y48288D1*
Y48349D1*
X90500Y48531D1*
X90560Y48652D1*
X90651Y48712D1*
X90681D1*
X90773Y48652D1*
X90833Y48531D1*
X90864Y48288D1*
Y47984D1*
X90833Y47681D1*
X90773Y47498D1*
X90681Y47438D1*
X90621D1*
X90530Y47498D1*
X90500Y47620D1*
X92750Y48411D2*
X92720Y48531D1*
X92659Y48653D1*
X92598Y48714D1*
X92477D1*
X92416Y48653D1*
X92355Y48531D1*
X92325Y48411D1*
X92294Y48228D1*
Y47923D1*
X92325Y47742D1*
X92355Y47620D1*
X92416Y47499D1*
X92477Y47438D1*
X92598D1*
X92659Y47499D1*
X92720Y47620D1*
X92750Y47742D1*
Y47923D1*
X92598D1*
X93371Y48714D2*
Y47438D1*
X92946Y48714D1*
Y47438D1*
X93567Y48714D2*
Y47438D1*
X93780D1*
X93871Y47499D1*
X93932Y47620D1*
X93963Y47742D1*
X93993Y47923D1*
Y48228D1*
X93963Y48411D1*
X93932Y48531D1*
X93871Y48653D1*
X93780Y48714D1*
X93567D1*
X88105Y45506D2*
X88379D1*
X88469Y45566D1*
X88500Y45628D1*
X88530Y45748D1*
Y45931D1*
X88500Y46052D1*
X88469Y46113D1*
X88379Y46174D1*
X88105D1*
Y44898D1*
X88878Y46172D2*
X88788Y46112D1*
X88757Y45991D1*
Y45869D1*
X88788Y45748D1*
X88848Y45687D1*
X88969Y45626D1*
X89061Y45566D1*
X89121Y45444D1*
X89151Y45323D1*
Y45141D1*
X89121Y45020D1*
X89091Y44958D1*
X88999Y44898D1*
X88878D1*
X88788Y44958D1*
X88757Y45020D1*
X88726Y45141D1*
Y45323D1*
X88757Y45444D1*
X88818Y45566D1*
X88908Y45626D1*
X89030Y45687D1*
X89091Y45748D1*
X89121Y45869D1*
Y45991D1*
X89091Y46112D1*
X88999Y46172D1*
X88878D1*
X89347Y44687D2*
X89924D1*
X90120Y45930D2*
X90181Y45991D1*
X90273Y46172D1*
Y44898D1*
X90833Y45991D2*
X90803Y46112D1*
X90712Y46172D1*
X90651D1*
X90560Y46112D1*
X90499Y45930D1*
X90469Y45626D1*
Y45323D1*
X90499Y45080D1*
X90560Y44958D1*
X90651Y44898D1*
X90681D1*
X90772Y44958D1*
X90833Y45080D1*
X90863Y45263D1*
Y45323D1*
X90833Y45506D1*
X90772Y45626D1*
X90681Y45687D1*
X90651D1*
X90560Y45626D1*
X90499Y45506D1*
X90469Y45323D1*
X92294Y45506D2*
X92567D1*
X92658Y45566D1*
X92689Y45628D1*
X92719Y45748D1*
Y45931D1*
X92689Y46052D1*
X92658Y46113D1*
X92567Y46174D1*
X92294D1*
Y44898D1*
X93310Y45748D2*
X93279Y45566D1*
X93219Y45444D1*
X93128Y45383D1*
X93098D1*
X93006Y45444D1*
X92946Y45566D1*
X92915Y45748D1*
Y45809D1*
X92946Y45991D1*
X93006Y46112D1*
X93098Y46172D1*
X93128D1*
X93219Y46112D1*
X93279Y45991D1*
X93310Y45748D1*
Y45444D1*
X93279Y45141D1*
X93219Y44958D1*
X93128Y44898D1*
X93067D1*
X92976Y44958D1*
X92946Y45080D1*
X93506Y44687D2*
X94083D1*
X94279Y45930D2*
X94341Y45991D1*
X94432Y46172D1*
Y44898D1*
X94932D2*
Y46172D1*
X94628Y45323D1*
X95083D1*
X88105Y42966D2*
X88379D1*
X88469Y43026D1*
X88500Y43088D1*
X88530Y43208D1*
Y43391D1*
X88500Y43512D1*
X88469Y43573D1*
X88379Y43634D1*
X88105D1*
Y42358D1*
X88878Y43632D2*
X88788Y43572D1*
X88757Y43451D1*
Y43329D1*
X88788Y43208D1*
X88848Y43147D1*
X88969Y43086D1*
X89061Y43026D1*
X89121Y42904D1*
X89151Y42783D1*
Y42601D1*
X89121Y42480D1*
X89091Y42418D1*
X88999Y42358D1*
X88878D1*
X88788Y42418D1*
X88757Y42480D1*
X88726Y42601D1*
Y42783D1*
X88757Y42904D1*
X88818Y43026D1*
X88908Y43086D1*
X89030Y43147D1*
X89091Y43208D1*
X89121Y43329D1*
Y43451D1*
X89091Y43572D1*
X88999Y43632D1*
X88878D1*
X89347Y42147D2*
X89924D1*
X90120Y43390D2*
X90181Y43451D1*
X90273Y43632D1*
Y42358D1*
X90833Y43632D2*
X90530D1*
X90500Y43086D1*
X90530Y43147D1*
X90621Y43208D1*
X90712D1*
X90803Y43147D1*
X90864Y43026D1*
X90894Y42843D1*
Y42723D1*
X90864Y42540D1*
X90803Y42418D1*
X90712Y42358D1*
X90621D1*
X90530Y42418D1*
X90500Y42480D1*
X90469Y42601D1*
X92325Y42966D2*
X92598D1*
X92689Y43026D1*
X92720Y43088D1*
X92750Y43208D1*
Y43391D1*
X92720Y43512D1*
X92689Y43573D1*
X92598Y43634D1*
X92325D1*
Y42358D1*
X93098Y43632D2*
X93007Y43572D1*
X92976Y43451D1*
Y43329D1*
X93007Y43208D1*
X93067Y43147D1*
X93189Y43086D1*
X93280Y43026D1*
X93340Y42904D1*
X93371Y42783D1*
Y42601D1*
X93340Y42480D1*
X93310Y42418D1*
X93219Y42358D1*
X93098D1*
X93007Y42418D1*
X92976Y42480D1*
X92946Y42601D1*
Y42783D1*
X92976Y42904D1*
X93037Y43026D1*
X93128Y43086D1*
X93249Y43147D1*
X93310Y43208D1*
X93340Y43329D1*
Y43451D1*
X93310Y43572D1*
X93219Y43632D1*
X93098D1*
X93567Y42147D2*
X94144D1*
X94371Y43329D2*
Y43390D1*
X94401Y43512D1*
X94431Y43572D1*
X94492Y43632D1*
X94614D1*
X94674Y43572D1*
X94704Y43512D1*
X94735Y43390D1*
Y43269D1*
X94704Y43147D1*
X94644Y42966D1*
X94340Y42358D1*
X94765D1*
X95326Y43451D2*
X95295Y43572D1*
X95204Y43632D1*
X95144D1*
X95052Y43572D1*
X94991Y43390D1*
X94961Y43086D1*
Y42783D1*
X94991Y42540D1*
X95052Y42418D1*
X95144Y42358D1*
X95174D1*
X95264Y42418D1*
X95326Y42540D1*
X95356Y42723D1*
Y42783D1*
X95326Y42966D1*
X95264Y43086D1*
X95174Y43147D1*
X95144D1*
X95052Y43086D1*
X94991Y42966D1*
X94961Y42783D1*
X88105Y40426D2*
X88379D1*
X88469Y40486D1*
X88500Y40548D1*
X88530Y40668D1*
Y40851D1*
X88500Y40972D1*
X88469Y41033D1*
X88379Y41094D1*
X88105D1*
Y39818D1*
X88878Y41092D2*
X88788Y41032D1*
X88757Y40911D1*
Y40789D1*
X88788Y40668D1*
X88848Y40607D1*
X88969Y40546D1*
X89061Y40486D1*
X89121Y40364D1*
X89151Y40243D1*
Y40061D1*
X89121Y39940D1*
X89091Y39878D1*
X88999Y39818D1*
X88878D1*
X88788Y39878D1*
X88757Y39940D1*
X88726Y40061D1*
Y40243D1*
X88757Y40364D1*
X88818Y40486D1*
X88908Y40546D1*
X89030Y40607D1*
X89091Y40668D1*
X89121Y40789D1*
Y40911D1*
X89091Y41032D1*
X88999Y41092D1*
X88878D1*
X89347Y39607D2*
X89924D1*
X90120Y40850D2*
X90181Y40911D1*
X90273Y41092D1*
Y39818D1*
X90530Y41092D2*
X90863D1*
X90681Y40607D1*
X90773D1*
X90833Y40546D1*
X90863Y40486D1*
X90894Y40303D1*
Y40183D1*
X90863Y40000D1*
X90803Y39878D1*
X90712Y39818D1*
X90620D1*
X90530Y39878D1*
X90500Y39940D1*
X90469Y40061D1*
X92750Y41094D2*
Y39818D1*
X92325Y41094D1*
Y39818D1*
X93402Y40791D2*
X93371Y40911D1*
X93310Y41033D1*
X93250Y41094D1*
X93128D1*
X93067Y41033D1*
X93007Y40911D1*
X92976Y40791D1*
X92946Y40608D1*
Y40303D1*
X92976Y40122D1*
X93007Y40000D1*
X93067Y39879D1*
X93128Y39818D1*
X93250D1*
X93310Y39879D1*
X93371Y40000D1*
X93402Y40122D1*
X88105Y37886D2*
X88379D1*
X88469Y37946D1*
X88500Y38008D1*
X88530Y38128D1*
Y38311D1*
X88500Y38432D1*
X88469Y38493D1*
X88379Y38554D1*
X88105D1*
Y37278D1*
X88878Y38552D2*
X88788Y38492D1*
X88757Y38371D1*
Y38249D1*
X88788Y38128D1*
X88848Y38067D1*
X88969Y38006D1*
X89061Y37946D1*
X89121Y37824D1*
X89151Y37703D1*
Y37521D1*
X89121Y37400D1*
X89091Y37338D1*
X88999Y37278D1*
X88878D1*
X88788Y37338D1*
X88757Y37400D1*
X88726Y37521D1*
Y37703D1*
X88757Y37824D1*
X88818Y37946D1*
X88908Y38006D1*
X89030Y38067D1*
X89091Y38128D1*
X89121Y38249D1*
Y38371D1*
X89091Y38492D1*
X88999Y38552D1*
X88878D1*
X89347Y37067D2*
X89924D1*
X90120Y38310D2*
X90181Y38371D1*
X90273Y38552D1*
Y37278D1*
X90500Y38249D2*
Y38310D1*
X90530Y38432D1*
X90560Y38492D1*
X90621Y38552D1*
X90742D1*
X90803Y38492D1*
X90833Y38432D1*
X90864Y38310D1*
Y38189D1*
X90833Y38067D1*
X90773Y37886D1*
X90469Y37278D1*
X90894D1*
X92325Y37946D2*
X92598D1*
X92689Y38008D1*
X92720Y38068D1*
X92750Y38189D1*
Y38311D1*
X92720Y38432D1*
X92689Y38493D1*
X92598Y38554D1*
X92325D1*
Y37278D1*
X92537Y37946D2*
X92750Y37278D1*
X93371Y38371D2*
X93311Y38493D1*
X93220Y38554D1*
X93098D1*
X93007Y38493D1*
X92946Y38371D1*
Y38251D1*
X92977Y38128D1*
X93007Y38068D1*
X93067Y38008D1*
X93250Y37886D1*
X93311Y37825D1*
X93341Y37763D1*
X93371Y37643D1*
Y37460D1*
X93311Y37339D1*
X93220Y37278D1*
X93098D1*
X93007Y37339D1*
X92946Y37460D1*
X93780Y38554D2*
Y37278D1*
X93567Y38554D2*
X93993D1*
X88279Y35355D2*
X88553D1*
X88643Y35415D1*
X88674Y35477D1*
X88704Y35597D1*
Y35780D1*
X88674Y35901D1*
X88643Y35962D1*
X88553Y36023D1*
X88279D1*
Y34747D1*
X89052Y36021D2*
X88961Y35961D1*
X88930Y35840D1*
Y35718D1*
X88961Y35597D1*
X89022Y35536D1*
X89143Y35475D1*
X89234Y35415D1*
X89295Y35293D1*
X89325Y35172D1*
Y34990D1*
X89295Y34869D1*
X89265Y34807D1*
X89173Y34747D1*
X89052D1*
X88961Y34807D1*
X88930Y34869D1*
X88900Y34990D1*
Y35172D1*
X88930Y35293D1*
X88992Y35415D1*
X89082Y35475D1*
X89204Y35536D1*
X89265Y35597D1*
X89295Y35718D1*
Y35840D1*
X89265Y35961D1*
X89173Y36021D1*
X89052D1*
X89521Y34536D2*
X90098D1*
X90294Y35779D2*
X90355Y35840D1*
X90446Y36021D1*
Y34747D1*
X90643Y35779D2*
X90704Y35840D1*
X90795Y36021D1*
Y34747D1*
X92225Y35355D2*
X92499D1*
X92590Y35415D1*
X92621Y35477D1*
X92651Y35597D1*
Y35780D1*
X92621Y35901D1*
X92590Y35962D1*
X92499Y36023D1*
X92225D1*
Y34747D1*
X93242Y35597D2*
X93211Y35415D1*
X93151Y35293D1*
X93059Y35232D1*
X93029D1*
X92938Y35293D1*
X92878Y35415D1*
X92847Y35597D1*
Y35658D1*
X92878Y35840D1*
X92938Y35961D1*
X93029Y36021D1*
X93059D1*
X93151Y35961D1*
X93211Y35840D1*
X93242Y35597D1*
Y35293D1*
X93211Y34990D1*
X93151Y34807D1*
X93059Y34747D1*
X92999D1*
X92908Y34807D1*
X92878Y34929D1*
X93438Y34536D2*
X94015D1*
X94211Y35779D2*
X94272Y35840D1*
X94363Y36021D1*
Y34747D1*
X94711Y36021D2*
X94621Y35961D1*
X94590Y35840D1*
Y35718D1*
X94621Y35597D1*
X94681Y35536D1*
X94802Y35475D1*
X94894Y35415D1*
X94954Y35293D1*
X94984Y35172D1*
Y34990D1*
X94954Y34869D1*
X94924Y34807D1*
X94833Y34747D1*
X94711D1*
X94621Y34807D1*
X94590Y34869D1*
X94560Y34990D1*
Y35172D1*
X94590Y35293D1*
X94651Y35415D1*
X94741Y35475D1*
X94863Y35536D1*
X94924Y35597D1*
X94954Y35718D1*
Y35840D1*
X94924Y35961D1*
X94833Y36021D1*
X94711D1*
X88120Y32869D2*
X88393D1*
X88484Y32929D1*
X88515Y32991D1*
X88545Y33112D1*
Y33294D1*
X88515Y33415D1*
X88484Y33477D1*
X88393Y33537D1*
X88120D1*
Y32261D1*
X88893Y33536D2*
X88802Y33475D1*
X88771Y33355D1*
Y33232D1*
X88802Y33112D1*
X88862Y33050D1*
X88984Y32990D1*
X89075Y32929D1*
X89135Y32807D1*
X89166Y32686D1*
Y32504D1*
X89135Y32383D1*
X89105Y32321D1*
X89014Y32261D1*
X88893D1*
X88802Y32321D1*
X88771Y32383D1*
X88741Y32504D1*
Y32686D1*
X88771Y32807D1*
X88832Y32929D1*
X88923Y32990D1*
X89044Y33050D1*
X89105Y33112D1*
X89135Y33232D1*
Y33355D1*
X89105Y33475D1*
X89014Y33536D1*
X88893D1*
X89362Y32050D2*
X89939D1*
X90135Y33293D2*
X90196Y33355D1*
X90287Y33536D1*
Y32261D1*
X90666Y33536D2*
X90574Y33475D1*
X90513Y33293D1*
X90483Y32990D1*
Y32807D1*
X90513Y32504D1*
X90574Y32321D1*
X90666Y32261D1*
X90726D1*
X90817Y32321D1*
X90878Y32504D1*
X90909Y32807D1*
Y32990D1*
X90878Y33293D1*
X90817Y33475D1*
X90726Y33536D1*
X90666D1*
X90878Y33293D2*
X90513Y32504D1*
X92643Y33537D2*
Y32566D1*
X92613Y32383D1*
X92582Y32323D1*
X92522Y32261D1*
X92461D1*
X92400Y32323D1*
X92370Y32383D1*
X92339Y32566D1*
Y32686D1*
X93325Y32261D2*
Y33537D1*
X93082Y32261D1*
X92839Y33537D1*
Y32261D1*
X93521Y32869D2*
X93795D1*
X93885Y32929D1*
X93916Y32991D1*
X93946Y33112D1*
Y33294D1*
X93916Y33415D1*
X93885Y33477D1*
X93795Y33537D1*
X93521D1*
Y32261D1*
X88438Y30227D2*
X88712D1*
X88803Y30288D1*
X88833Y30349D1*
X88864Y30470D1*
Y30653D1*
X88833Y30773D1*
X88803Y30835D1*
X88712Y30895D1*
X88438D1*
Y29619D1*
X89211Y30894D2*
X89121Y30834D1*
X89090Y30713D1*
Y30591D1*
X89121Y30470D1*
X89181Y30408D1*
X89303Y30348D1*
X89394Y30288D1*
X89454Y30165D1*
X89484Y30045D1*
Y29862D1*
X89454Y29741D1*
X89424Y29680D1*
X89333Y29619D1*
X89211D1*
X89121Y29680D1*
X89090Y29741D1*
X89060Y29862D1*
Y30045D1*
X89090Y30165D1*
X89151Y30288D1*
X89241Y30348D1*
X89363Y30408D1*
X89424Y30470D1*
X89454Y30591D1*
Y30713D1*
X89424Y30834D1*
X89333Y30894D1*
X89211D1*
X89680Y29409D2*
X90257D1*
X90849Y30470D2*
X90818Y30288D1*
X90757Y30165D1*
X90666Y30105D1*
X90636D1*
X90545Y30165D1*
X90484Y30288D1*
X90453Y30470D1*
Y30530D1*
X90484Y30713D1*
X90545Y30834D1*
X90636Y30894D1*
X90666D1*
X90757Y30834D1*
X90818Y30713D1*
X90849Y30470D1*
Y30165D1*
X90818Y29862D1*
X90757Y29680D1*
X90666Y29619D1*
X90606D1*
X90515Y29680D1*
X90484Y29802D1*
X92279Y30227D2*
X92553D1*
X92643Y30288D1*
X92674Y30349D1*
X92705Y30470D1*
Y30653D1*
X92674Y30773D1*
X92643Y30835D1*
X92553Y30895D1*
X92279D1*
Y29619D1*
X93052Y30894D2*
X92962Y30834D1*
X92931Y30713D1*
Y30591D1*
X92962Y30470D1*
X93022Y30408D1*
X93143Y30348D1*
X93235Y30288D1*
X93295Y30165D1*
X93325Y30045D1*
Y29862D1*
X93295Y29741D1*
X93265Y29680D1*
X93174Y29619D1*
X93052D1*
X92962Y29680D1*
X92931Y29741D1*
X92901Y29862D1*
Y30045D1*
X92931Y30165D1*
X92992Y30288D1*
X93082Y30348D1*
X93204Y30408D1*
X93265Y30470D1*
X93295Y30591D1*
Y30713D1*
X93265Y30834D1*
X93174Y30894D1*
X93052D1*
X93521Y29409D2*
X94098D1*
X94294Y30651D2*
X94355Y30713D1*
X94447Y30894D1*
Y29619D1*
X94794Y30894D2*
X94704Y30834D1*
X94673Y30713D1*
Y30591D1*
X94704Y30470D1*
X94764Y30408D1*
X94886Y30348D1*
X94977Y30288D1*
X95037Y30165D1*
X95067Y30045D1*
Y29862D1*
X95037Y29741D1*
X95007Y29680D1*
X94916Y29619D1*
X94794D1*
X94704Y29680D1*
X94673Y29741D1*
X94643Y29862D1*
Y30045D1*
X94673Y30165D1*
X94734Y30288D1*
X94825Y30348D1*
X94946Y30408D1*
X95007Y30470D1*
X95037Y30591D1*
Y30713D1*
X95007Y30834D1*
X94916Y30894D1*
X94794D1*
X88384Y27743D2*
X88658D1*
X88748Y27803D1*
X88779Y27865D1*
X88809Y27985D1*
Y28168D1*
X88779Y28289D1*
X88748Y28350D1*
X88658Y28411D1*
X88384D1*
Y27135D1*
X89157Y28409D2*
X89066Y28349D1*
X89036Y28228D1*
Y28106D1*
X89066Y27985D1*
X89127Y27924D1*
X89248Y27863D1*
X89340Y27803D1*
X89400Y27681D1*
X89430Y27560D1*
Y27378D1*
X89400Y27257D1*
X89370Y27195D1*
X89278Y27135D1*
X89157D1*
X89066Y27195D1*
X89036Y27257D1*
X89005Y27378D1*
Y27560D1*
X89036Y27681D1*
X89097Y27803D1*
X89187Y27863D1*
X89309Y27924D1*
X89370Y27985D1*
X89400Y28106D1*
Y28228D1*
X89370Y28349D1*
X89278Y28409D1*
X89157D1*
X89626Y26924D2*
X90203D1*
X90551Y28409D2*
X90460Y28349D1*
X90429Y28228D1*
Y28106D1*
X90460Y27985D1*
X90521Y27924D1*
X90642Y27863D1*
X90733Y27803D1*
X90794Y27681D1*
X90824Y27560D1*
Y27378D1*
X90794Y27257D1*
X90764Y27195D1*
X90672Y27135D1*
X90551D1*
X90460Y27195D1*
X90429Y27257D1*
X90399Y27378D1*
Y27560D1*
X90429Y27681D1*
X90490Y27803D1*
X90581Y27863D1*
X90702Y27924D1*
X90764Y27985D1*
X90794Y28106D1*
Y28228D1*
X90764Y28349D1*
X90672Y28409D1*
X90551D1*
X92254Y27743D2*
X92528D1*
X92619Y27803D1*
X92650Y27865D1*
X92680Y27985D1*
Y28168D1*
X92650Y28289D1*
X92619Y28350D1*
X92528Y28411D1*
X92254D1*
Y27135D1*
X93027Y28409D2*
X92937Y28349D1*
X92906Y28228D1*
Y28106D1*
X92937Y27985D1*
X92997Y27924D1*
X93119Y27863D1*
X93210Y27803D1*
X93270Y27681D1*
X93301Y27560D1*
Y27378D1*
X93270Y27257D1*
X93240Y27195D1*
X93149Y27135D1*
X93027D1*
X92937Y27195D1*
X92906Y27257D1*
X92876Y27378D1*
Y27560D1*
X92906Y27681D1*
X92967Y27803D1*
X93058Y27863D1*
X93179Y27924D1*
X93240Y27985D1*
X93270Y28106D1*
Y28228D1*
X93240Y28349D1*
X93149Y28409D1*
X93027D1*
X93497Y26924D2*
X94074D1*
X94270Y28167D2*
X94331Y28228D1*
X94422Y28409D1*
Y27135D1*
X94739D2*
X95043Y28409D1*
X94618D1*
X88490Y25260D2*
X88764D1*
X88854Y25321D1*
X88885Y25382D1*
X88916Y25503D1*
Y25686D1*
X88885Y25806D1*
X88854Y25868D1*
X88764Y25928D1*
X88490D1*
Y24652D1*
X89263Y25927D2*
X89173Y25867D1*
X89142Y25746D1*
Y25624D1*
X89173Y25503D1*
X89233Y25441D1*
X89354Y25381D1*
X89446Y25321D1*
X89506Y25198D1*
X89536Y25078D1*
Y24895D1*
X89506Y24774D1*
X89476Y24713D1*
X89385Y24652D1*
X89263D1*
X89173Y24713D1*
X89142Y24774D1*
X89112Y24895D1*
Y25078D1*
X89142Y25198D1*
X89203Y25321D1*
X89293Y25381D1*
X89415Y25441D1*
X89476Y25503D1*
X89506Y25624D1*
Y25746D1*
X89476Y25867D1*
X89385Y25927D1*
X89263D1*
X89732Y24442D2*
X90309D1*
X90627Y24652D2*
X90931Y25927D1*
X90505D1*
X92361Y25260D2*
X92635D1*
X92726Y25321D1*
X92757Y25382D1*
X92787Y25503D1*
Y25686D1*
X92757Y25806D1*
X92726Y25868D1*
X92635Y25928D1*
X92361D1*
Y24652D1*
X93134Y25927D2*
X93044Y25867D1*
X93013Y25746D1*
Y25624D1*
X93044Y25503D1*
X93104Y25441D1*
X93226Y25381D1*
X93317Y25321D1*
X93377Y25198D1*
X93407Y25078D1*
Y24895D1*
X93377Y24774D1*
X93347Y24713D1*
X93256Y24652D1*
X93134D1*
X93044Y24713D1*
X93013Y24774D1*
X92983Y24895D1*
Y25078D1*
X93013Y25198D1*
X93074Y25321D1*
X93165Y25381D1*
X93286Y25441D1*
X93347Y25503D1*
X93377Y25624D1*
Y25746D1*
X93347Y25867D1*
X93256Y25927D1*
X93134D1*
X93604Y24442D2*
X94180D1*
X94377Y25684D2*
X94438Y25746D1*
X94529Y25927D1*
Y24652D1*
X95029D2*
Y25927D1*
X94725Y25078D1*
X95181D1*
X48100Y49951D2*
X48483D1*
X48610Y50011D1*
X48653Y50073D1*
X48696Y50193D1*
Y50376D1*
X48653Y50497D1*
X48610Y50558D1*
X48483Y50619D1*
X48100D1*
Y49343D1*
X49523Y50193D2*
X49480Y50011D1*
X49396Y49889D1*
X49268Y49828D1*
X49226D1*
X49098Y49889D1*
X49013Y50011D1*
X48970Y50193D1*
Y50254D1*
X49013Y50436D1*
X49098Y50557D1*
X49226Y50617D1*
X49268D1*
X49396Y50557D1*
X49480Y50436D1*
X49523Y50193D1*
Y49889D1*
X49480Y49586D1*
X49396Y49403D1*
X49268Y49343D1*
X49183D1*
X49056Y49403D1*
X49013Y49525D1*
X49798Y49132D2*
X50606D1*
X50880Y50375D2*
X50966Y50436D1*
X51093Y50617D1*
Y49343D1*
X51368Y50375D2*
X51453Y50436D1*
X51581Y50617D1*
Y49343D1*
X51941Y49403D2*
X51898Y49343D1*
X51856Y49403D1*
X51898Y49465D1*
X51941Y49403D1*
Y49282D1*
X51898Y49160D1*
X51856Y49100D1*
X53080Y49951D2*
X53463D1*
X53590Y50011D1*
X53633Y50073D1*
X53675Y50193D1*
Y50376D1*
X53633Y50497D1*
X53590Y50558D1*
X53463Y50619D1*
X53080D1*
Y49343D1*
X54503Y50193D2*
X54460Y50011D1*
X54375Y49889D1*
X54247Y49828D1*
X54205D1*
X54077Y49889D1*
X53993Y50011D1*
X53950Y50193D1*
Y50254D1*
X53993Y50436D1*
X54077Y50557D1*
X54205Y50617D1*
X54247D1*
X54375Y50557D1*
X54460Y50436D1*
X54503Y50193D1*
Y49889D1*
X54460Y49586D1*
X54375Y49403D1*
X54247Y49343D1*
X54163D1*
X54035Y49403D1*
X53993Y49525D1*
X54777Y49132D2*
X55585D1*
X55860Y50375D2*
X55945Y50436D1*
X56073Y50617D1*
Y49343D1*
X56433Y50617D2*
X56900D1*
X56645Y50132D1*
X56773D1*
X56858Y50071D1*
X56900Y50011D1*
X56943Y49828D1*
Y49708D1*
X56900Y49525D1*
X56815Y49403D1*
X56688Y49343D1*
X56560D1*
X56433Y49403D1*
X56391Y49465D1*
X56348Y49586D1*
X58082Y50163D2*
X58847D1*
X58082Y49798D2*
X58847D1*
X59986Y50619D2*
Y49708D1*
X60028Y49525D1*
X60114Y49404D1*
X60241Y49343D1*
X60326D1*
X60454Y49404D1*
X60539Y49525D1*
X60581Y49708D1*
Y50619D1*
X61537Y49343D2*
X61196Y50619D1*
X60856Y49343D1*
X60984Y49768D2*
X61409D1*
X61811Y50011D2*
X62194D1*
X62321Y50073D1*
X62365Y50133D1*
X62407Y50254D1*
Y50376D1*
X62365Y50497D1*
X62321Y50558D1*
X62194Y50619D1*
X61811D1*
Y49343D1*
X62109Y50011D2*
X62407Y49343D1*
X62979Y50619D2*
Y49343D1*
X62681Y50619D2*
X63277D1*
X63977Y49343D2*
Y50617D1*
X63551Y49768D1*
X64189D1*
X48100Y47728D2*
X48483D1*
X48610Y47788D1*
X48653Y47850D1*
X48696Y47971D1*
Y48153D1*
X48653Y48274D1*
X48610Y48336D1*
X48483Y48396D1*
X48100D1*
Y47120D1*
X48970Y48396D2*
X49012Y48336D1*
X49056Y48396D1*
X49012Y48458D1*
X48970Y48396D1*
X49012Y47971D2*
Y47120D1*
X49330Y47971D2*
Y47120D1*
Y47728D2*
X49458Y47911D1*
X49543Y47971D1*
X49670D1*
X49756Y47911D1*
X49798Y47728D1*
Y47120D1*
X50540Y47788D2*
X50498Y47911D1*
X50370Y47971D1*
X50242D1*
X50115Y47911D1*
X50072Y47788D1*
X50115Y47668D1*
X50200Y47606D1*
X50412Y47546D1*
X50498Y47485D1*
X50540Y47363D1*
Y47303D1*
X50498Y47182D1*
X50370Y47120D1*
X50242D1*
X50115Y47182D1*
X50072Y47303D1*
X52146Y47788D2*
X52104Y47911D1*
X51976Y47971D1*
X51849D1*
X51721Y47911D1*
X51679Y47788D1*
X51721Y47668D1*
X51806Y47606D1*
X52019Y47546D1*
X52104Y47485D1*
X52146Y47363D1*
Y47303D1*
X52104Y47182D1*
X51976Y47120D1*
X51849D1*
X51721Y47182D1*
X51679Y47303D1*
X52421Y47971D2*
Y47363D1*
X52463Y47182D1*
X52549Y47120D1*
X52676D1*
X52761Y47182D1*
X52889Y47363D1*
Y47971D2*
Y47120D1*
X53163Y47971D2*
Y46695D1*
Y47788D2*
X53249Y47909D1*
X53333Y47971D1*
X53461D1*
X53546Y47909D1*
X53631Y47788D1*
X53674Y47606D1*
Y47484D1*
X53631Y47303D1*
X53546Y47181D1*
X53461Y47120D1*
X53333D1*
X53249Y47181D1*
X53163Y47303D1*
X53949Y47971D2*
Y46695D1*
Y47788D2*
X54034Y47909D1*
X54119Y47971D1*
X54247D1*
X54332Y47909D1*
X54417Y47788D1*
X54460Y47606D1*
Y47484D1*
X54417Y47303D1*
X54332Y47181D1*
X54247Y47120D1*
X54119D1*
X54034Y47181D1*
X53949Y47303D1*
X54947Y47971D2*
X54862Y47911D1*
X54777Y47788D1*
X54734Y47606D1*
Y47485D1*
X54777Y47303D1*
X54862Y47182D1*
X54947Y47120D1*
X55074D1*
X55160Y47182D1*
X55244Y47303D1*
X55288Y47485D1*
Y47606D1*
X55244Y47788D1*
X55160Y47911D1*
X55074Y47971D1*
X54947D1*
X55562D2*
Y47120D1*
Y47606D2*
X55605Y47788D1*
X55690Y47911D1*
X55775Y47971D1*
X55903D1*
X56305Y48396D2*
Y47363D1*
X56348Y47182D1*
X56433Y47120D1*
X56518D1*
X56178Y47971D2*
X56475D1*
X57742Y48395D2*
X58208D1*
X57954Y47909D1*
X58082D1*
X58166Y47849D1*
X58208Y47788D1*
X58252Y47606D1*
Y47485D1*
X58208Y47303D1*
X58124Y47181D1*
X57996Y47120D1*
X57868D1*
X57742Y47181D1*
X57699Y47242D1*
X57656Y47363D1*
X58568Y47242D2*
X58526Y47181D1*
X58568Y47120D1*
X58612Y47181D1*
X58568Y47242D1*
X58972Y48395D2*
X59438D1*
X59184Y47909D1*
X59312D1*
X59396Y47849D1*
X59438Y47788D1*
X59482Y47606D1*
Y47485D1*
X59438Y47303D1*
X59354Y47181D1*
X59226Y47120D1*
X59098D1*
X58972Y47181D1*
X58929Y47242D1*
X58886Y47363D1*
X59756Y48396D2*
X60096Y47120D1*
X60436Y48396D1*
X61575D2*
Y47120D1*
X61849Y47606D2*
X62359D1*
Y47728D1*
X62317Y47850D1*
X62275Y47911D1*
X62189Y47971D1*
X62062D1*
X61977Y47911D1*
X61892Y47788D1*
X61849Y47606D1*
Y47485D1*
X61892Y47303D1*
X61977Y47182D1*
X62062Y47120D1*
X62189D1*
X62275Y47182D1*
X62359Y47303D1*
X62634Y47971D2*
X62889Y47120D1*
X63144Y47971D1*
X63418Y47606D2*
X63928D1*
Y47728D1*
X63886Y47850D1*
X63844Y47911D1*
X63758Y47971D1*
X63631D1*
X63546Y47911D1*
X63461Y47788D1*
X63418Y47606D1*
Y47485D1*
X63461Y47303D1*
X63546Y47182D1*
X63631Y47120D1*
X63758D1*
X63844Y47182D1*
X63928Y47303D1*
X64203Y48396D2*
Y47120D1*
X64945Y47788D2*
X64903Y47911D1*
X64775Y47971D1*
X64647D1*
X64520Y47911D1*
X64477Y47788D1*
X64520Y47668D1*
X64605Y47606D1*
X64817Y47546D1*
X64903Y47485D1*
X64945Y47363D1*
Y47303D1*
X64903Y47182D1*
X64775Y47120D1*
X64647D1*
X64520Y47182D1*
X64477Y47303D1*
X48781Y44898D2*
X48440Y46174D1*
X48100Y44898D1*
X48228Y45323D2*
X48653D1*
X49056Y45748D2*
Y44898D1*
Y45506D2*
X49183Y45688D1*
X49269Y45748D1*
X49396D1*
X49481Y45688D1*
X49523Y45506D1*
Y44898D1*
X50308Y45748D2*
Y44898D1*
Y45566D2*
X50223Y45688D1*
X50138Y45748D1*
X50011D1*
X49926Y45688D1*
X49841Y45566D1*
X49798Y45383D1*
Y45263D1*
X49841Y45080D1*
X49926Y44959D1*
X50011Y44898D1*
X50138D1*
X50223Y44959D1*
X50308Y45080D1*
X50582Y46174D2*
Y44898D1*
X51069Y45748D2*
X50985Y45688D1*
X50899Y45566D1*
X50857Y45383D1*
Y45263D1*
X50899Y45080D1*
X50985Y44959D1*
X51069Y44898D1*
X51197D1*
X51282Y44959D1*
X51367Y45080D1*
X51410Y45263D1*
Y45383D1*
X51367Y45566D1*
X51282Y45688D1*
X51197Y45748D1*
X51069D1*
X52195Y45688D2*
Y44715D1*
X52152Y44534D1*
X52110Y44472D1*
X52025Y44412D1*
X51897D1*
X51812Y44472D1*
X52195Y45506D2*
X52110Y45626D1*
X52025Y45688D1*
X51897D1*
X51812Y45626D1*
X51727Y45506D1*
X51685Y45323D1*
Y45201D1*
X51727Y45020D1*
X51812Y44898D1*
X51897Y44837D1*
X52025D1*
X52110Y44898D1*
X52195Y45020D1*
X53801Y45566D2*
X53759Y45688D1*
X53631Y45748D1*
X53503D1*
X53376Y45688D1*
X53333Y45566D1*
X53376Y45445D1*
X53461Y45383D1*
X53673Y45323D1*
X53759Y45263D1*
X53801Y45141D1*
Y45080D1*
X53759Y44959D1*
X53631Y44898D1*
X53503D1*
X53376Y44959D1*
X53333Y45080D1*
X54076Y45748D2*
Y45141D1*
X54118Y44959D1*
X54203Y44898D1*
X54331D1*
X54416Y44959D1*
X54543Y45141D1*
Y45748D2*
Y44898D1*
X54818Y45748D2*
Y44472D1*
Y45566D2*
X54903Y45687D1*
X54988Y45748D1*
X55116D1*
X55201Y45687D1*
X55286Y45566D1*
X55329Y45383D1*
Y45261D1*
X55286Y45080D1*
X55201Y44958D1*
X55116Y44898D1*
X54988D1*
X54903Y44958D1*
X54818Y45080D1*
X55603Y45748D2*
Y44472D1*
Y45566D2*
X55689Y45687D1*
X55773Y45748D1*
X55901D1*
X55987Y45687D1*
X56071Y45566D1*
X56114Y45383D1*
Y45261D1*
X56071Y45080D1*
X55987Y44958D1*
X55901Y44898D1*
X55773D1*
X55689Y44958D1*
X55603Y45080D1*
X56601Y45748D2*
X56517Y45688D1*
X56431Y45566D1*
X56389Y45383D1*
Y45263D1*
X56431Y45080D1*
X56517Y44959D1*
X56601Y44898D1*
X56729D1*
X56814Y44959D1*
X56899Y45080D1*
X56942Y45263D1*
Y45383D1*
X56899Y45566D1*
X56814Y45688D1*
X56729Y45748D1*
X56601D1*
X57217D2*
Y44898D1*
Y45383D2*
X57260Y45566D1*
X57344Y45688D1*
X57430Y45748D1*
X57558D1*
X57960Y46174D2*
Y45141D1*
X58002Y44959D1*
X58088Y44898D1*
X58172D1*
X57832Y45748D2*
X58130D1*
X59311D2*
Y44898D1*
Y45506D2*
X59438Y45688D1*
X59524Y45748D1*
X59651D1*
X59736Y45688D1*
X59778Y45506D1*
Y44898D1*
X60053Y45383D2*
X60563D1*
Y45506D1*
X60521Y45628D1*
X60479Y45688D1*
X60393Y45748D1*
X60265D1*
X60181Y45688D1*
X60095Y45566D1*
X60053Y45383D1*
Y45263D1*
X60095Y45080D1*
X60181Y44959D1*
X60265Y44898D1*
X60393D1*
X60479Y44959D1*
X60563Y45080D1*
X60838Y45383D2*
X61348D1*
Y45506D1*
X61305Y45628D1*
X61263Y45688D1*
X61178Y45748D1*
X61050D1*
X60965Y45688D1*
X60880Y45566D1*
X60838Y45383D1*
Y45263D1*
X60880Y45080D1*
X60965Y44959D1*
X61050Y44898D1*
X61178D1*
X61263Y44959D1*
X61348Y45080D1*
X62132Y46174D2*
Y44898D1*
Y45566D2*
X62048Y45688D1*
X61962Y45748D1*
X61834D1*
X61750Y45688D1*
X61664Y45566D1*
X61622Y45383D1*
Y45263D1*
X61664Y45080D1*
X61750Y44959D1*
X61834Y44898D1*
X61962D1*
X62048Y44959D1*
X62132Y45080D1*
X62874Y45566D2*
X62832Y45688D1*
X62704Y45748D1*
X62577D1*
X62449Y45688D1*
X62407Y45566D1*
X62449Y45445D1*
X62534Y45383D1*
X62747Y45323D1*
X62832Y45263D1*
X62874Y45141D1*
Y45080D1*
X62832Y44959D1*
X62704Y44898D1*
X62577D1*
X62449Y44959D1*
X62407Y45080D1*
X64523Y45748D2*
Y44898D1*
Y45566D2*
X64438Y45688D1*
X64353Y45748D1*
X64226D1*
X64141Y45688D1*
X64056Y45566D1*
X64013Y45383D1*
Y45263D1*
X64056Y45080D1*
X64141Y44959D1*
X64226Y44898D1*
X64353D1*
X64438Y44959D1*
X64523Y45080D1*
X65308Y46174D2*
Y44898D1*
Y45566D2*
X65223Y45688D1*
X65138Y45748D1*
X65010D1*
X64925Y45688D1*
X64840Y45566D1*
X64798Y45383D1*
Y45263D1*
X64840Y45080D1*
X64925Y44959D1*
X65010Y44898D1*
X65138D1*
X65223Y44959D1*
X65308Y45080D1*
X66092Y45748D2*
Y44898D1*
Y45566D2*
X66008Y45688D1*
X65922Y45748D1*
X65795D1*
X65710Y45688D1*
X65625Y45566D1*
X65582Y45383D1*
Y45263D1*
X65625Y45080D1*
X65710Y44959D1*
X65795Y44898D1*
X65922D1*
X66008Y44959D1*
X66092Y45080D1*
X66367Y45748D2*
Y44472D1*
Y45566D2*
X66452Y45687D1*
X66537Y45748D1*
X66664D1*
X66750Y45687D1*
X66834Y45566D1*
X66878Y45383D1*
Y45261D1*
X66834Y45080D1*
X66750Y44958D1*
X66664Y44898D1*
X66537D1*
X66452Y44958D1*
X66367Y45080D1*
X67280Y46174D2*
Y45141D1*
X67322Y44959D1*
X67408Y44898D1*
X67492D1*
X67152Y45748D2*
X67450D1*
X67767Y45383D2*
X68277D1*
Y45506D1*
X68234Y45628D1*
X68192Y45688D1*
X68107Y45748D1*
X67979D1*
X67894Y45688D1*
X67809Y45566D1*
X67767Y45383D1*
Y45263D1*
X67809Y45080D1*
X67894Y44959D1*
X67979Y44898D1*
X68107D1*
X68192Y44959D1*
X68277Y45080D1*
X68551Y45748D2*
Y44898D1*
Y45383D2*
X68594Y45566D1*
X68679Y45688D1*
X68764Y45748D1*
X68892D1*
X70031D2*
Y44472D1*
Y45566D2*
X70116Y45687D1*
X70201Y45748D1*
X70328D1*
X70414Y45687D1*
X70499Y45566D1*
X70542Y45383D1*
Y45261D1*
X70499Y45080D1*
X70414Y44958D1*
X70328Y44898D1*
X70201D1*
X70116Y44958D1*
X70031Y45080D1*
X71326Y45748D2*
Y44898D1*
Y45566D2*
X71242Y45688D1*
X71156Y45748D1*
X71029D1*
X70944Y45688D1*
X70859Y45566D1*
X70816Y45383D1*
Y45263D1*
X70859Y45080D1*
X70944Y44959D1*
X71029Y44898D1*
X71156D1*
X71242Y44959D1*
X71326Y45080D1*
X72112Y45566D2*
X72026Y45688D1*
X71941Y45748D1*
X71814D1*
X71729Y45688D1*
X71644Y45566D1*
X71601Y45383D1*
Y45263D1*
X71644Y45080D1*
X71729Y44959D1*
X71814Y44898D1*
X71941D1*
X72026Y44959D1*
X72112Y45080D1*
X72386Y46174D2*
Y44898D1*
X72812Y45748D2*
X72386Y45141D1*
X72556Y45383D2*
X72854Y44898D1*
X49881Y29280D2*
D53*
Y28114D1*
X49830Y27895D1*
X49778Y27823D1*
X49677Y27748D1*
X49574D1*
X49473Y27823D1*
X49422Y27895D1*
X49370Y28114D1*
Y28259D1*
X51026Y27748D2*
Y29280D1*
X50618Y27748D1*
X50210Y29280D1*
Y27748D1*
X51355Y28478D2*
X51815D1*
X51967Y28550D1*
X52019Y28624D1*
X52070Y28769D1*
Y28988D1*
X52019Y29133D1*
X51967Y29207D1*
X51815Y29280D1*
X51355D1*
Y27748D1*
M02*
