G04 DipTrace 2.3.1.0*
%INbbblp30.GTL*%
%MOMM*%
%ADD13C,0.3*%
%ADD14C,0.45*%
%ADD15C,0.33*%
%ADD16C,0.4*%
%ADD17C,1.5*%
%ADD18C,1.6*%
%ADD19O,1.5X2.5*%
%ADD20R,1.3X1.5*%
%ADD21C,1.65*%
%ADD27C,0.9*%
%FSLAX53Y53*%
G04*
G71*
G90*
G75*
G01*
%LNTop*%
%LPD*%
X40480Y32854D2*
D13*
X37940Y30314D1*
Y23329D1*
X40480Y20789D1*
X52227D1*
X55085Y17932D1*
Y14439D1*
X40480Y25234D2*
X42068Y23647D1*
X55085D1*
X60165Y18566D1*
Y14439D1*
X40480Y27774D2*
X39210Y26504D1*
Y23964D1*
X40480Y22694D1*
X54133D1*
X57625Y19202D1*
Y14439D1*
X83660Y48094D2*
X83343D1*
X81120Y50316D1*
Y54444D1*
X77945Y57619D1*
X53815D1*
X52545Y58889D1*
Y60159D1*
X83660Y40474D2*
X79215Y44919D1*
Y51904D1*
X75405Y55714D1*
X48100D1*
X44925Y58889D1*
Y60159D1*
X40480Y43014D2*
X35400Y37934D1*
Y22059D1*
X41115Y16344D1*
Y13169D1*
X42385Y11899D1*
X40480Y40474D2*
X36035Y36029D1*
Y22377D1*
X40480Y17931D1*
X43020D1*
X43655Y17296D1*
Y13169D1*
X44925Y11899D1*
X86517Y23329D2*
X86200D1*
X85248Y22377D1*
X82707D1*
X81120Y23964D1*
Y26504D1*
X75405Y32219D1*
X56990D1*
X56038Y31267D1*
X49370Y24599D1*
Y19519D2*
X50005D1*
Y14439D1*
X83660Y37934D2*
X78580Y43014D1*
Y51269D1*
X74770Y55079D1*
X47465D1*
X43655Y58889D1*
Y61429D1*
X42385Y62699D1*
X83660Y35394D2*
X77945Y41109D1*
Y50316D1*
X73817Y54444D1*
X46195D1*
X42385Y58254D1*
Y60159D1*
X83660Y45554D2*
X80485Y48729D1*
Y53492D1*
X76992Y56984D1*
X50640D1*
X48735Y58889D1*
Y61429D1*
X47465Y62699D1*
X83660Y43014D2*
X79850Y46824D1*
Y52539D1*
X76040Y56349D1*
X49688D1*
X47465Y58572D1*
Y60159D1*
X40480Y37934D2*
X36670Y34124D1*
Y22694D1*
X40480Y18884D1*
X45243D1*
X46195Y17931D1*
Y13169D1*
X47465Y11899D1*
X40480Y30314D2*
X38575Y28409D1*
Y23647D1*
X40480Y21742D1*
X53180D1*
X56355Y18566D1*
Y13169D1*
X57625Y11899D1*
X86517Y21742D2*
X82073D1*
X80168Y23647D1*
Y26504D1*
X75087Y31584D1*
X57625D1*
X51275Y25234D1*
X40480Y35394D2*
X37305Y32219D1*
Y23012D1*
X40480Y19837D1*
X46830D1*
X47465Y19202D1*
Y14439D1*
X40480Y45554D2*
X34765Y39839D1*
Y20789D1*
X38575Y16979D1*
X42385Y16344D2*
Y14439D1*
X83660Y25234D2*
Y25869D1*
X75405Y34124D1*
Y47776D1*
X71278Y51904D1*
X43337D1*
X37305Y57936D1*
Y60159D1*
X83660Y27774D2*
X76040Y35394D1*
Y48411D1*
X71913Y52539D1*
X43972D1*
X38575Y57936D1*
Y61429D1*
X37305Y62699D1*
X83660Y32854D2*
X77310Y39204D1*
Y49681D1*
X73183Y53809D1*
X45560D1*
X41115Y58254D1*
Y61429D1*
X39845Y62699D1*
X83660Y30314D2*
X76675Y37299D1*
Y49046D1*
X72547Y53174D1*
X44290D1*
X39845Y57619D1*
Y60159D1*
X68420Y27901D2*
Y27774D1*
X67150Y26504D1*
Y22694D1*
X70325Y19519D1*
Y14439D1*
X69055Y10947D2*
X69373D1*
X69690Y10629D1*
X73817D1*
X74135Y10947D1*
X69055D2*
X68737Y10629D1*
X66832D1*
X66515Y10946D1*
Y17614D1*
X63023Y21107D1*
Y29044D1*
X63340Y29361D1*
X74135Y10947D2*
X74453D1*
X74770Y10629D1*
X78897D1*
X79215Y10947D1*
Y17931D1*
X63340Y29361D2*
X66960D1*
X68420Y27901D1*
X79215Y22059D2*
Y22376D1*
X78897Y22694D1*
Y26821D1*
X76358Y29361D1*
X69880D1*
X68420Y27901D1*
X73500Y25361D2*
Y25234D1*
X76675Y22059D1*
Y13169D1*
X77945Y11899D1*
X76040Y27774D2*
X77945Y25869D1*
Y14439D1*
X70960Y25234D2*
Y23647D1*
X74135Y20471D1*
Y13169D1*
X75405Y11899D1*
X73500Y27901D2*
Y27774D1*
X72230Y26504D1*
Y24282D1*
X75405Y21107D1*
Y14439D1*
X65880Y25234D2*
Y22059D1*
X69055Y18884D1*
Y13169D1*
X70325Y11899D1*
X70960Y27774D2*
X69690Y26504D1*
Y23329D1*
X72865Y20154D1*
Y14439D1*
X68420Y25361D2*
Y23012D1*
X71595Y19837D1*
Y13169D1*
X72865Y11899D1*
X29685Y62699D2*
Y60159D1*
Y11899D2*
Y14439D1*
X83025Y11899D2*
Y14439D1*
X85565D1*
X83025Y11899D2*
X85565D1*
Y14439D1*
Y16027D1*
X89692Y20154D1*
Y44602D1*
X86200Y48094D1*
X29685Y14439D2*
X29367D1*
X26828Y16979D1*
X20795D1*
X17302Y20471D1*
Y24282D1*
X20477Y27457D1*
X28732D1*
X31907Y30631D1*
Y57936D1*
X29685Y60159D1*
X57625Y35394D2*
X54762D1*
X57625Y37934D2*
X56032D1*
X54762Y39204D1*
X51275Y19837D2*
Y13169D1*
X52545Y11899D1*
Y18567D2*
Y14439D1*
X88105Y20472D2*
Y30949D1*
X86200Y32854D1*
X21748Y21742D2*
D14*
Y22694D1*
X23653Y24599D1*
X28732D1*
X32860Y28726D1*
Y44284D1*
X39210Y50634D1*
X42068D1*
X43020Y49681D1*
Y48094D1*
X86200Y37934D2*
D13*
X84930Y36664D1*
Y23964D1*
X84295Y23329D1*
X83025D1*
X82073Y24281D1*
Y26504D1*
X75722Y32854D1*
X56038D1*
X49688Y26504D1*
X47148D1*
X45560Y24916D1*
X65880Y27774D2*
X64293Y26187D1*
Y22059D1*
X67785Y18567D1*
Y14439D1*
X40480Y48094D2*
D14*
X33812Y41426D1*
Y16027D1*
X32225Y14439D1*
X52863Y35394D2*
D13*
Y39204D1*
X51910D1*
X44290Y46824D1*
X41750D1*
X40480Y48094D1*
X56672Y33806D2*
X53498D1*
X52863Y34441D1*
Y35394D1*
D27*
X86517Y23329D3*
X49370Y24599D3*
Y19519D3*
X56038Y31267D3*
X86517Y21742D3*
X51275Y25234D3*
X38575Y16979D3*
X42385Y16344D3*
X51275Y19837D3*
X52545Y18567D3*
X88105Y20472D3*
X45560Y24916D3*
X56672Y33806D3*
X79215Y22059D3*
Y17931D3*
X63340Y29361D3*
X69055Y10947D3*
X74135D3*
X63220Y29505D2*
D15*
X75666D1*
X63220Y29178D2*
X68128D1*
X68709D2*
X73212D1*
X73788D2*
X76022D1*
X63220Y28851D2*
X65116D1*
X66647D2*
X67493D1*
X69344D2*
X70195D1*
X71726D2*
X72578D1*
X74422D2*
X75274D1*
X63220Y28525D2*
X64781D1*
X66977D2*
X67241D1*
X69596D2*
X69860D1*
X72056D2*
X72325D1*
X74675D2*
X74944D1*
X63220Y28198D2*
X64616D1*
X63220Y27871D2*
X64549D1*
X63220Y27545D2*
X64565D1*
X77356D2*
X77801D1*
X63220Y27218D2*
X64405D1*
X67090D2*
X67276D1*
X74644D2*
X74829D1*
X77516D2*
X78157D1*
X63220Y26891D2*
X64075D1*
X66874D2*
X67566D1*
X74355D2*
X75047D1*
X77841D2*
X78518D1*
X63220Y26565D2*
X63760D1*
X66399D2*
X67891D1*
X74031D2*
X75522D1*
X78171D2*
X78873D1*
X63220Y26238D2*
X63631D1*
X66745D2*
X67421D1*
X74495D2*
X75176D1*
X78486D2*
X79018D1*
X63220Y25912D2*
X63631D1*
X67028D2*
X67205D1*
X74716D2*
X74893D1*
X78604D2*
X79018D1*
X63220Y25585D2*
X63631D1*
X78604D2*
X79018D1*
X63220Y25258D2*
X63631D1*
X78604D2*
X79018D1*
X63220Y24931D2*
X63631D1*
X78604D2*
X79018D1*
X63220Y24605D2*
X63631D1*
X67054D2*
X67329D1*
X78604D2*
X79018D1*
X63220Y24278D2*
X63631D1*
X66796D2*
X67664D1*
X76959D2*
X77285D1*
X78604D2*
X79018D1*
X63220Y23951D2*
X63631D1*
X66539D2*
X67762D1*
X73479D2*
X73861D1*
X76305D2*
X77285D1*
X78604D2*
X79018D1*
X63220Y23625D2*
X63631D1*
X66539D2*
X67762D1*
X73809D2*
X74186D1*
X76031D2*
X77285D1*
X78604D2*
X79018D1*
X63220Y23298D2*
X63631D1*
X66539D2*
X67762D1*
X74134D2*
X74516D1*
X76356D2*
X77285D1*
X78604D2*
X79018D1*
X63220Y22972D2*
X63631D1*
X66539D2*
X67762D1*
X74459D2*
X74841D1*
X76681D2*
X77285D1*
X78604D2*
X79018D1*
X63220Y22645D2*
X63631D1*
X66539D2*
X67875D1*
X74789D2*
X75166D1*
X77011D2*
X77285D1*
X78604D2*
X79018D1*
X63220Y22318D2*
X63631D1*
X66544D2*
X68195D1*
X75113D2*
X75496D1*
X78604D2*
X79018D1*
X63220Y21992D2*
X63637D1*
X66869D2*
X68520D1*
X75443D2*
X75821D1*
X78604D2*
X79018D1*
X63220Y21665D2*
X63771D1*
X67193D2*
X68844D1*
X75768D2*
X76009D1*
X78604D2*
X79018D1*
X63220Y21338D2*
X64090D1*
X67523D2*
X69174D1*
X78604D2*
X79018D1*
X63220Y21012D2*
X64420D1*
X67848D2*
X69499D1*
X78604D2*
X79018D1*
X63414Y20685D2*
X64745D1*
X68173D2*
X69824D1*
X78604D2*
X79018D1*
X63775Y20358D2*
X65070D1*
X68503D2*
X70154D1*
X78604D2*
X79018D1*
X64136Y20031D2*
X65400D1*
X68828D2*
X70479D1*
X78604D2*
X79018D1*
X64492Y19705D2*
X65725D1*
X69153D2*
X70804D1*
X78604D2*
X79018D1*
X64852Y19378D2*
X66055D1*
X69483D2*
X70933D1*
X78604D2*
X79018D1*
X65213Y19052D2*
X66380D1*
X69694D2*
X70933D1*
X78604D2*
X79018D1*
X65569Y18725D2*
X66705D1*
X69715D2*
X70933D1*
X78604D2*
X79018D1*
X65930Y18398D2*
X67035D1*
X69715D2*
X70933D1*
X78604D2*
X79018D1*
X66291Y18072D2*
X67122D1*
X69715D2*
X70933D1*
X78604D2*
X79018D1*
X66647Y17745D2*
X67122D1*
X69715D2*
X70933D1*
X78604D2*
X79018D1*
X66714Y17418D2*
X67122D1*
X69715D2*
X70933D1*
X78604D2*
X79018D1*
X66714Y17091D2*
X67122D1*
X69715D2*
X70933D1*
X78604D2*
X79018D1*
X66714Y16765D2*
X67122D1*
X69715D2*
X70933D1*
X78604D2*
X79018D1*
X66714Y16438D2*
X67122D1*
X69715D2*
X70933D1*
X78604D2*
X79018D1*
X66714Y16111D2*
X67122D1*
X69715D2*
X70933D1*
X78604D2*
X79018D1*
X66714Y15785D2*
X67122D1*
X69715D2*
X70933D1*
X78604D2*
X79018D1*
X66714Y15458D2*
X67066D1*
X78661D2*
X79018D1*
X66680Y14970D2*
X66785Y15153D1*
X66890Y15280D1*
X67011Y15392D1*
X67159Y15495D1*
X67157Y18311D1*
X66174Y19289D1*
X63848Y21615D1*
X63748Y21745D1*
X63685Y21897D1*
X63664Y22059D1*
Y26186D1*
X63686Y26350D1*
X63749Y26502D1*
X63848Y26631D1*
X64632Y27415D1*
X64584Y27640D1*
X64577Y27805D1*
X64591Y27969D1*
X64626Y28130D1*
X64681Y28286D1*
X64756Y28433D1*
X64848Y28570D1*
X64957Y28694D1*
X65080Y28803D1*
X65216Y28896D1*
X65363Y28970D1*
X65519Y29026D1*
X65680Y29062D1*
X65844Y29077D1*
X66009Y29071D1*
X66171Y29044D1*
X66329Y28997D1*
X66480Y28931D1*
X66622Y28846D1*
X66751Y28743D1*
X66866Y28626D1*
X66966Y28494D1*
X67048Y28351D1*
X67135Y28115D1*
X67176Y28289D1*
X67249Y28473D1*
X67349Y28643D1*
X67474Y28797D1*
X67620Y28930D1*
X67785Y29039D1*
X67965Y29122D1*
X68155Y29177D1*
X68351Y29202D1*
X68549Y29198D1*
X68743Y29163D1*
X68931Y29100D1*
X69106Y29009D1*
X69266Y28892D1*
X69406Y28753D1*
X69524Y28594D1*
X69616Y28419D1*
X69681Y28232D1*
X69706Y28130D1*
X69761Y28286D1*
X69836Y28433D1*
X69928Y28570D1*
X70037Y28694D1*
X70160Y28803D1*
X70296Y28896D1*
X70443Y28970D1*
X70599Y29026D1*
X70760Y29062D1*
X70924Y29077D1*
X71089Y29071D1*
X71251Y29044D1*
X71409Y28997D1*
X71560Y28931D1*
X71702Y28846D1*
X71831Y28743D1*
X71946Y28626D1*
X72046Y28494D1*
X72128Y28351D1*
X72215Y28115D1*
X72246Y28257D1*
X72301Y28413D1*
X72376Y28560D1*
X72468Y28697D1*
X72577Y28821D1*
X72700Y28930D1*
X72836Y29023D1*
X72983Y29097D1*
X73139Y29153D1*
X73300Y29189D1*
X73464Y29204D1*
X73629Y29198D1*
X73791Y29171D1*
X73949Y29124D1*
X74100Y29058D1*
X74242Y28973D1*
X74371Y28870D1*
X74486Y28753D1*
X74586Y28621D1*
X74668Y28478D1*
X74732Y28326D1*
X74782Y28121D1*
X74841Y28286D1*
X74916Y28433D1*
X75008Y28570D1*
X75117Y28694D1*
X75240Y28803D1*
X75376Y28896D1*
X75523Y28970D1*
X75679Y29026D1*
X75840Y29062D1*
X76004Y29077D1*
X76174Y29070D1*
X75337Y29835D1*
X73755Y29832D1*
X63188D1*
Y20859D1*
X66626Y17736D1*
X66678Y17637D1*
X66680Y14979D1*
X69683Y15486D2*
X69862Y15577D1*
X70051Y15636D1*
X70246Y15665D1*
X70444Y15661D1*
X70639Y15626D1*
X70825Y15561D1*
X70967Y15486D1*
Y19578D1*
X67976Y22567D1*
X67876Y22698D1*
X67813Y22850D1*
X67792Y23012D1*
Y24223D1*
X67704Y24272D1*
X67572Y24371D1*
X67454Y24486D1*
X67351Y24615D1*
X67266Y24756D1*
X67199Y24907D1*
X67164Y25020D1*
X67090Y24751D1*
X67020Y24602D1*
X66931Y24463D1*
X66825Y24337D1*
X66704Y24224D1*
X66511Y24097D1*
X66508Y22321D1*
X69499Y19328D1*
X69599Y19198D1*
X69662Y19046D1*
X69683Y18884D1*
Y15486D1*
X74761Y15485D2*
X74779Y15495D1*
X74763Y15522D1*
X74777Y15594D1*
Y20848D1*
X71786Y23837D1*
X71681Y23977D1*
X71588Y23909D1*
X74579Y20916D1*
X74679Y20785D1*
X74742Y20633D1*
X74763Y20471D1*
Y15522D1*
X77301Y15485D2*
X77319Y15495D1*
X77317Y22194D1*
Y24973D1*
X77250Y24751D1*
X77180Y24602D1*
X77091Y24463D1*
X76985Y24337D1*
X76864Y24224D1*
X76730Y24128D1*
X76585Y24050D1*
X76431Y23991D1*
X76271Y23951D1*
X76107Y23933D1*
X75942Y23934D1*
X75779Y23957D1*
X75625Y23999D1*
X77119Y22503D1*
X77219Y22373D1*
X77282Y22221D1*
X77303Y22059D1*
Y15485D1*
X78575Y15492D2*
X78699Y15408D1*
X78822Y15298D1*
X78930Y15173D1*
X79052Y14965D1*
X79050Y26433D1*
X77321Y28016D1*
X77343Y27774D1*
X77333Y27609D1*
X77290Y27413D1*
X78389Y26313D1*
X78489Y26183D1*
X78552Y26031D1*
X78573Y25869D1*
Y15489D1*
X66176Y26503D2*
X66329Y26457D1*
X66480Y26391D1*
X66622Y26306D1*
X66751Y26203D1*
X66866Y26086D1*
X66966Y25954D1*
X67048Y25811D1*
X67135Y25575D1*
X67166Y25717D1*
X67221Y25873D1*
X67296Y26020D1*
X67388Y26157D1*
X67497Y26281D1*
X67620Y26390D1*
X67756Y26483D1*
X67903Y26557D1*
X68134Y26630D1*
X67938Y26690D1*
X67760Y26777D1*
X67598Y26890D1*
X67454Y27026D1*
X67333Y27182D1*
X67237Y27355D1*
X67164Y27554D1*
X67090Y27291D1*
X67020Y27142D1*
X66931Y27003D1*
X66825Y26877D1*
X66704Y26764D1*
X66570Y26668D1*
X66425Y26590D1*
X66271Y26531D1*
X66166Y26505D1*
X73756Y24085D2*
X73567Y24060D1*
X73326Y24072D1*
X75849Y21551D1*
X75949Y21420D1*
X76012Y21268D1*
X76033Y21107D1*
Y15491D1*
X76047Y15809D1*
Y21795D1*
X73762Y24083D1*
X73796Y26630D2*
X73949Y26584D1*
X74100Y26518D1*
X74242Y26433D1*
X74371Y26330D1*
X74486Y26213D1*
X74586Y26081D1*
X74668Y25938D1*
X74732Y25786D1*
X74782Y25581D1*
X74841Y25746D1*
X74916Y25893D1*
X75008Y26030D1*
X75117Y26154D1*
X75240Y26263D1*
X75376Y26356D1*
X75523Y26430D1*
X75754Y26503D1*
X75620Y26540D1*
X75467Y26603D1*
X75324Y26685D1*
X75192Y26784D1*
X75074Y26899D1*
X74971Y27028D1*
X74886Y27169D1*
X74819Y27320D1*
X74757Y27564D1*
X74710Y27418D1*
X74640Y27269D1*
X74551Y27130D1*
X74445Y27004D1*
X74324Y26891D1*
X74190Y26795D1*
X74045Y26717D1*
X73891Y26658D1*
X73786Y26632D1*
X70325Y15667D2*
D16*
Y14439D1*
X68420Y29204D2*
Y27901D1*
X17572Y63723D2*
D15*
X28974D1*
X30396D2*
X31516D1*
X32938D2*
X34053D1*
X35475D2*
X36595D1*
X38017D2*
X39137D1*
X40554D2*
X41673D1*
X43096D2*
X44216D1*
X45638D2*
X46752D1*
X48174D2*
X49294D1*
X50717D2*
X51836D1*
X53253D2*
X54373D1*
X55795D2*
X56915D1*
X58337D2*
X59452D1*
X60874D2*
X61994D1*
X63416D2*
X64536D1*
X65953D2*
X67073D1*
X68495D2*
X69615D1*
X71037D2*
X72152D1*
X73574D2*
X74694D1*
X76116D2*
X77236D1*
X78653D2*
X79773D1*
X81195D2*
X82315D1*
X83737D2*
X84852D1*
X86274D2*
X88028D1*
X17572Y63396D2*
X23941D1*
X25265D2*
X28644D1*
X30731D2*
X31181D1*
X33268D2*
X33723D1*
X35810D2*
X36259D1*
X38347D2*
X38801D1*
X40889D2*
X41343D1*
X43431D2*
X43880D1*
X45968D2*
X46422D1*
X48510D2*
X48959D1*
X51047D2*
X51501D1*
X53589D2*
X54043D1*
X56131D2*
X56580D1*
X58667D2*
X59122D1*
X61209D2*
X61659D1*
X63746D2*
X64201D1*
X66288D2*
X66743D1*
X68830D2*
X69280D1*
X71367D2*
X71822D1*
X73909D2*
X74359D1*
X76446D2*
X76901D1*
X78988D2*
X79443D1*
X81530D2*
X81980D1*
X84067D2*
X84522D1*
X86609D2*
X89070D1*
X17572Y63070D2*
X23317D1*
X25894D2*
X28484D1*
X30891D2*
X31021D1*
X33428D2*
X33561D1*
X35970D2*
X36100D1*
X38507D2*
X38640D1*
X41049D2*
X41180D1*
X43591D2*
X43724D1*
X46127D2*
X46265D1*
X48669D2*
X48799D1*
X51206D2*
X51343D1*
X53748D2*
X53884D1*
X56290D2*
X56420D1*
X58827D2*
X58960D1*
X61369D2*
X61504D1*
X63906D2*
X64037D1*
X66448D2*
X66581D1*
X68990D2*
X69120D1*
X71527D2*
X71664D1*
X74069D2*
X74202D1*
X76606D2*
X76740D1*
X79148D2*
X79285D1*
X81690D2*
X81820D1*
X84227D2*
X84359D1*
X86769D2*
X89843D1*
X17572Y62743D2*
X22977D1*
X26229D2*
X28427D1*
X86826D2*
X90488D1*
X17572Y62416D2*
X22760D1*
X26451D2*
X28458D1*
X86795D2*
X91039D1*
X17572Y62090D2*
X22616D1*
X26596D2*
X28587D1*
X30782D2*
X31124D1*
X33324D2*
X33666D1*
X35867D2*
X36208D1*
X46024D2*
X46366D1*
X51103D2*
X51445D1*
X53645D2*
X53987D1*
X56182D2*
X56523D1*
X58724D2*
X59066D1*
X61266D2*
X61608D1*
X63803D2*
X64144D1*
X66345D2*
X66686D1*
X68882D2*
X69228D1*
X71424D2*
X71765D1*
X73966D2*
X74307D1*
X76503D2*
X76844D1*
X79045D2*
X79386D1*
X81582D2*
X81928D1*
X84124D2*
X84465D1*
X86666D2*
X91503D1*
X17572Y61763D2*
X22533D1*
X26678D2*
X28855D1*
X30514D2*
X31397D1*
X33051D2*
X33939D1*
X35593D2*
X36476D1*
X45751D2*
X46639D1*
X50835D2*
X51718D1*
X53372D2*
X54260D1*
X55914D2*
X56797D1*
X58451D2*
X59339D1*
X60993D2*
X61876D1*
X63535D2*
X64418D1*
X66072D2*
X66960D1*
X68614D2*
X69497D1*
X71151D2*
X72039D1*
X73693D2*
X74576D1*
X76235D2*
X77118D1*
X78772D2*
X79660D1*
X81314D2*
X82196D1*
X83851D2*
X84738D1*
X86393D2*
X91942D1*
X17572Y61436D2*
X22508D1*
X26704D2*
X37646D1*
X44318D2*
X47804D1*
X49397D2*
X92318D1*
X17572Y61110D2*
X22533D1*
X26678D2*
X28876D1*
X30494D2*
X31413D1*
X33036D2*
X33955D1*
X35573D2*
X36497D1*
X45736D2*
X46654D1*
X50814D2*
X51733D1*
X53357D2*
X54275D1*
X55893D2*
X56817D1*
X58435D2*
X59354D1*
X60977D2*
X61896D1*
X63514D2*
X64433D1*
X66056D2*
X66975D1*
X68593D2*
X69517D1*
X71135D2*
X72054D1*
X73677D2*
X74596D1*
X76214D2*
X77133D1*
X78756D2*
X79675D1*
X81293D2*
X82217D1*
X83835D2*
X84754D1*
X86377D2*
X92674D1*
X17572Y60783D2*
X22611D1*
X26601D2*
X28592D1*
X30777D2*
X31134D1*
X33314D2*
X33676D1*
X35856D2*
X36213D1*
X46014D2*
X46376D1*
X51093D2*
X51455D1*
X53635D2*
X53997D1*
X56177D2*
X56534D1*
X58714D2*
X59076D1*
X61256D2*
X61613D1*
X63798D2*
X64155D1*
X66335D2*
X66697D1*
X68877D2*
X69234D1*
X71414D2*
X71776D1*
X73956D2*
X74313D1*
X76498D2*
X76855D1*
X79035D2*
X79397D1*
X81577D2*
X81933D1*
X84114D2*
X84476D1*
X86656D2*
X92988D1*
X17572Y60456D2*
X22750D1*
X26462D2*
X28463D1*
X86790D2*
X93288D1*
X17572Y60130D2*
X22967D1*
X26245D2*
X28422D1*
X86826D2*
X89745D1*
X91544D2*
X93551D1*
X17572Y59803D2*
X23297D1*
X25910D2*
X28479D1*
X30891D2*
X31021D1*
X33433D2*
X33554D1*
X35975D2*
X36094D1*
X46133D2*
X46258D1*
X51212D2*
X51335D1*
X53754D2*
X53878D1*
X56296D2*
X56419D1*
X58832D2*
X58953D1*
X61374D2*
X61498D1*
X63911D2*
X64039D1*
X66453D2*
X66574D1*
X68995D2*
X69115D1*
X71532D2*
X71657D1*
X74074D2*
X74196D1*
X76611D2*
X76732D1*
X79153D2*
X79278D1*
X81695D2*
X81815D1*
X84232D2*
X84360D1*
X86774D2*
X89245D1*
X92044D2*
X93803D1*
X17572Y59476D2*
X23900D1*
X25312D2*
X28633D1*
X30736D2*
X31170D1*
X33278D2*
X33712D1*
X35820D2*
X36249D1*
X45978D2*
X46412D1*
X51057D2*
X51491D1*
X53599D2*
X54033D1*
X56141D2*
X56570D1*
X58678D2*
X59112D1*
X61220D2*
X61654D1*
X63757D2*
X64191D1*
X66299D2*
X66733D1*
X68841D2*
X69270D1*
X71378D2*
X71812D1*
X73920D2*
X74354D1*
X76457D2*
X76891D1*
X78999D2*
X79433D1*
X81541D2*
X81970D1*
X84077D2*
X84512D1*
X86619D2*
X88946D1*
X92343D2*
X94025D1*
X17572Y59150D2*
X28953D1*
X30416D2*
X31495D1*
X32958D2*
X34032D1*
X35495D2*
X36574D1*
X45658D2*
X46732D1*
X50737D2*
X51811D1*
X53279D2*
X54353D1*
X55816D2*
X56895D1*
X58358D2*
X59432D1*
X60895D2*
X61974D1*
X63437D2*
X64511D1*
X65979D2*
X67053D1*
X68516D2*
X69595D1*
X71058D2*
X72131D1*
X73595D2*
X74673D1*
X76137D2*
X77210D1*
X78679D2*
X79752D1*
X81216D2*
X82294D1*
X83758D2*
X84831D1*
X86295D2*
X88750D1*
X92539D2*
X94241D1*
X17572Y58823D2*
X36646D1*
X45911D2*
X46804D1*
X49721D2*
X51888D1*
X53532D2*
X88626D1*
X92663D2*
X94427D1*
X17572Y58496D2*
X36646D1*
X46241D2*
X46809D1*
X50046D2*
X52022D1*
X53857D2*
X88559D1*
X92730D2*
X94608D1*
X17572Y58170D2*
X36646D1*
X46566D2*
X46948D1*
X50376D2*
X52342D1*
X78282D2*
X88549D1*
X92740D2*
X94773D1*
X17572Y57843D2*
X36651D1*
X46891D2*
X47273D1*
X50701D2*
X52672D1*
X78643D2*
X88590D1*
X92704D2*
X94912D1*
X17572Y57516D2*
X36806D1*
X47221D2*
X47598D1*
X78968D2*
X88683D1*
X92606D2*
X95056D1*
X17572Y57190D2*
X37131D1*
X47545D2*
X47928D1*
X79298D2*
X88843D1*
X92446D2*
X95175D1*
X17572Y56863D2*
X37456D1*
X47870D2*
X48253D1*
X79622D2*
X89085D1*
X92204D2*
X95283D1*
X17572Y56536D2*
X37786D1*
X48200D2*
X48578D1*
X79947D2*
X89467D1*
X91827D2*
X95386D1*
X17572Y56210D2*
X38111D1*
X80277D2*
X90318D1*
X90971D2*
X95463D1*
X17572Y55883D2*
X38435D1*
X80602D2*
X95541D1*
X17572Y55556D2*
X38765D1*
X80927D2*
X95608D1*
X17572Y55230D2*
X39090D1*
X81257D2*
X95654D1*
X17572Y54903D2*
X39415D1*
X81582D2*
X95701D1*
X17572Y54576D2*
X39745D1*
X81767D2*
X95732D1*
X17572Y54250D2*
X40070D1*
X81783D2*
X95747D1*
X17572Y53923D2*
X40400D1*
X81783D2*
X95768D1*
X17572Y53596D2*
X40725D1*
X81783D2*
X83645D1*
X84949D2*
X95773D1*
X17572Y53270D2*
X41050D1*
X81783D2*
X83001D1*
X85588D2*
X95773D1*
X17572Y52943D2*
X41380D1*
X81783D2*
X82655D1*
X85934D2*
X95773D1*
X17572Y52616D2*
X41704D1*
X81783D2*
X82428D1*
X86161D2*
X95773D1*
X17572Y52290D2*
X42029D1*
X81783D2*
X82279D1*
X86310D2*
X95773D1*
X17572Y51963D2*
X42359D1*
X81783D2*
X82191D1*
X86398D2*
X95773D1*
X17572Y51636D2*
X42684D1*
X81783D2*
X82160D1*
X86429D2*
X95773D1*
X17572Y51310D2*
X38982D1*
X42296D2*
X43102D1*
X81783D2*
X82176D1*
X86413D2*
X95773D1*
X17572Y50983D2*
X38533D1*
X42745D2*
X71276D1*
X81783D2*
X82248D1*
X86341D2*
X95773D1*
X17572Y50656D2*
X38203D1*
X43070D2*
X71606D1*
X81783D2*
X82377D1*
X86212D2*
X95773D1*
X17572Y50330D2*
X37878D1*
X43400D2*
X71930D1*
X82025D2*
X82578D1*
X86016D2*
X95773D1*
X17572Y50003D2*
X37554D1*
X43678D2*
X72255D1*
X82355D2*
X82877D1*
X85712D2*
X95773D1*
X17572Y49676D2*
X37224D1*
X39280D2*
X41998D1*
X43756D2*
X72585D1*
X82680D2*
X83382D1*
X85207D2*
X95773D1*
X17572Y49350D2*
X36899D1*
X38955D2*
X40209D1*
X40749D2*
X42282D1*
X43756D2*
X72910D1*
X83010D2*
X83388D1*
X83928D2*
X85930D1*
X86470D2*
X95773D1*
X30906Y49023D2*
X36574D1*
X38625D2*
X39570D1*
X41389D2*
X42112D1*
X43931D2*
X73240D1*
X84572D2*
X85290D1*
X87109D2*
X95773D1*
X30906Y48696D2*
X36244D1*
X38300D2*
X39322D1*
X41642D2*
X41858D1*
X44178D2*
X73565D1*
X84820D2*
X85038D1*
X87362D2*
X95773D1*
X30906Y48370D2*
X35919D1*
X37970D2*
X39198D1*
X44302D2*
X73890D1*
X87481D2*
X95773D1*
X30906Y48043D2*
X35594D1*
X37645D2*
X39173D1*
X44328D2*
X74220D1*
X87512D2*
X95773D1*
X30906Y47716D2*
X35264D1*
X37321D2*
X39075D1*
X44271D2*
X74545D1*
X87455D2*
X95773D1*
X30906Y47390D2*
X34939D1*
X36991D2*
X38750D1*
X44596D2*
X74746D1*
X80509D2*
X80902D1*
X84758D2*
X85099D1*
X87300D2*
X95773D1*
X30906Y47063D2*
X34609D1*
X36666D2*
X38420D1*
X44972D2*
X74746D1*
X80530D2*
X81232D1*
X84449D2*
X85414D1*
X86986D2*
X95773D1*
X30906Y46736D2*
X34285D1*
X36341D2*
X38095D1*
X45297D2*
X74746D1*
X80860D2*
X81557D1*
X84175D2*
X85682D1*
X86717D2*
X95773D1*
X30906Y46410D2*
X33960D1*
X36011D2*
X37770D1*
X45627D2*
X74746D1*
X81185D2*
X81882D1*
X84645D2*
X85218D1*
X87182D2*
X95773D1*
X30906Y46083D2*
X33630D1*
X35686D2*
X37440D1*
X45952D2*
X74746D1*
X81510D2*
X82212D1*
X84856D2*
X85000D1*
X87398D2*
X95773D1*
X30906Y45756D2*
X33305D1*
X35361D2*
X37115D1*
X44312D2*
X44433D1*
X46277D2*
X74746D1*
X79875D2*
X79995D1*
X81840D2*
X82367D1*
X87496D2*
X95773D1*
X30906Y45430D2*
X32980D1*
X35031D2*
X36791D1*
X38842D2*
X39173D1*
X44323D2*
X44762D1*
X46607D2*
X74746D1*
X79875D2*
X80325D1*
X82164D2*
X82356D1*
X87506D2*
X95773D1*
X30906Y45103D2*
X32650D1*
X34706D2*
X36461D1*
X38517D2*
X39106D1*
X44251D2*
X45092D1*
X46932D2*
X74746D1*
X79952D2*
X80650D1*
X87429D2*
X95773D1*
X30906Y44776D2*
X32325D1*
X34382D2*
X36136D1*
X38187D2*
X38781D1*
X41528D2*
X41973D1*
X44065D2*
X45417D1*
X47257D2*
X74746D1*
X80277D2*
X80974D1*
X84707D2*
X85151D1*
X87249D2*
X95773D1*
X30906Y44450D2*
X32145D1*
X34052D2*
X35811D1*
X37862D2*
X38456D1*
X41157D2*
X42344D1*
X43694D2*
X45742D1*
X47587D2*
X74746D1*
X80607D2*
X81304D1*
X84335D2*
X85522D1*
X86877D2*
X95773D1*
X30906Y44123D2*
X32124D1*
X33727D2*
X35481D1*
X37537D2*
X38126D1*
X41147D2*
X42354D1*
X43689D2*
X46072D1*
X47912D2*
X74746D1*
X80932D2*
X81629D1*
X84330D2*
X85533D1*
X86867D2*
X95773D1*
X30906Y43796D2*
X32124D1*
X33598D2*
X35156D1*
X37207D2*
X37801D1*
X41523D2*
X41978D1*
X44065D2*
X46397D1*
X48236D2*
X74746D1*
X79241D2*
X79418D1*
X81257D2*
X81959D1*
X84701D2*
X85156D1*
X87243D2*
X95773D1*
X30906Y43470D2*
X32124D1*
X33598D2*
X34831D1*
X36882D2*
X37476D1*
X44245D2*
X46721D1*
X48566D2*
X74746D1*
X79241D2*
X79742D1*
X81587D2*
X82284D1*
X87429D2*
X95773D1*
X30906Y43143D2*
X32124D1*
X33598D2*
X34501D1*
X36557D2*
X37146D1*
X38991D2*
X39179D1*
X44323D2*
X47051D1*
X48891D2*
X74746D1*
X79370D2*
X80072D1*
X81912D2*
X82356D1*
X87506D2*
X95773D1*
X30906Y42816D2*
X32124D1*
X33598D2*
X34176D1*
X36227D2*
X36821D1*
X38661D2*
X39183D1*
X44318D2*
X47376D1*
X49216D2*
X74746D1*
X79700D2*
X80397D1*
X82237D2*
X82366D1*
X87496D2*
X95773D1*
X30906Y42490D2*
X32124D1*
X33598D2*
X33846D1*
X35903D2*
X36497D1*
X38336D2*
X39033D1*
X41678D2*
X41819D1*
X44220D2*
X47701D1*
X49546D2*
X74746D1*
X80025D2*
X80722D1*
X84856D2*
X85000D1*
X87398D2*
X95773D1*
X30906Y42163D2*
X32124D1*
X35578D2*
X36167D1*
X38012D2*
X38709D1*
X41466D2*
X42034D1*
X44008D2*
X48031D1*
X49871D2*
X74746D1*
X80349D2*
X81052D1*
X84645D2*
X85213D1*
X87187D2*
X95773D1*
X30906Y41836D2*
X32124D1*
X35248D2*
X35842D1*
X37682D2*
X38384D1*
X41007D2*
X42493D1*
X43549D2*
X48356D1*
X50201D2*
X74746D1*
X78607D2*
X78835D1*
X80679D2*
X81377D1*
X84191D2*
X85672D1*
X86728D2*
X95773D1*
X30906Y41510D2*
X32124D1*
X34923D2*
X35517D1*
X37357D2*
X38054D1*
X41260D2*
X42241D1*
X43802D2*
X48686D1*
X50526D2*
X74746D1*
X78607D2*
X79165D1*
X81004D2*
X81701D1*
X84444D2*
X85419D1*
X86980D2*
X95773D1*
X30906Y41183D2*
X32124D1*
X34598D2*
X35187D1*
X37032D2*
X37729D1*
X41574D2*
X41926D1*
X44117D2*
X49011D1*
X50851D2*
X74746D1*
X78792D2*
X79489D1*
X81334D2*
X82031D1*
X84758D2*
X85105D1*
X87295D2*
X95773D1*
X30906Y40856D2*
X32124D1*
X34547D2*
X34862D1*
X36702D2*
X37399D1*
X44271D2*
X49336D1*
X51181D2*
X74746D1*
X79117D2*
X79814D1*
X81659D2*
X82356D1*
X87455D2*
X95773D1*
X30906Y40530D2*
X32124D1*
X36377D2*
X37074D1*
X38919D2*
X39173D1*
X44328D2*
X49666D1*
X51505D2*
X74746D1*
X79447D2*
X80144D1*
X81984D2*
X82351D1*
X87512D2*
X95773D1*
X30906Y40203D2*
X32124D1*
X36052D2*
X36749D1*
X38589D2*
X39198D1*
X44302D2*
X49991D1*
X55924D2*
X74746D1*
X79772D2*
X80469D1*
X87481D2*
X95773D1*
X30906Y39876D2*
X32124D1*
X35722D2*
X36419D1*
X38264D2*
X38961D1*
X41642D2*
X41858D1*
X44184D2*
X50315D1*
X55924D2*
X74746D1*
X77972D2*
X78257D1*
X80097D2*
X80799D1*
X84820D2*
X85038D1*
X87362D2*
X95773D1*
X30906Y39550D2*
X32124D1*
X35428D2*
X36094D1*
X37934D2*
X38636D1*
X41394D2*
X42107D1*
X43936D2*
X50645D1*
X55924D2*
X74746D1*
X77972D2*
X78582D1*
X80427D2*
X81124D1*
X84578D2*
X85285D1*
X87114D2*
X95773D1*
X30906Y39223D2*
X32124D1*
X35428D2*
X35770D1*
X37609D2*
X38306D1*
X40775D2*
X42725D1*
X43312D2*
X50970D1*
X55924D2*
X74746D1*
X78210D2*
X78912D1*
X80752D2*
X81449D1*
X83954D2*
X85909D1*
X86496D2*
X95773D1*
X30906Y38896D2*
X32124D1*
X37284D2*
X37982D1*
X41353D2*
X42148D1*
X43895D2*
X51295D1*
X55991D2*
X56750D1*
X58497D2*
X59292D1*
X61039D2*
X74746D1*
X78540D2*
X79237D1*
X81077D2*
X81779D1*
X84531D2*
X85326D1*
X87073D2*
X95773D1*
X30906Y38570D2*
X32124D1*
X36954D2*
X37657D1*
X41621D2*
X41880D1*
X44163D2*
X51702D1*
X56316D2*
X56485D1*
X58765D2*
X59024D1*
X61307D2*
X74746D1*
X78864D2*
X79562D1*
X81407D2*
X82104D1*
X84799D2*
X85058D1*
X87341D2*
X95773D1*
X30906Y38243D2*
X32124D1*
X36630D2*
X37327D1*
X44292D2*
X51702D1*
X61436D2*
X74746D1*
X79194D2*
X79892D1*
X81731D2*
X82387D1*
X87475D2*
X95773D1*
X30906Y37916D2*
X32124D1*
X36305D2*
X37002D1*
X38842D2*
X39168D1*
X44333D2*
X52203D1*
X53522D2*
X55131D1*
X61478D2*
X74746D1*
X77338D2*
X77674D1*
X79519D2*
X80216D1*
X82056D2*
X82351D1*
X87512D2*
X95773D1*
X30906Y37590D2*
X32124D1*
X36062D2*
X36677D1*
X38517D2*
X39214D1*
X44282D2*
X52203D1*
X53522D2*
X55456D1*
X61426D2*
X74746D1*
X77338D2*
X78004D1*
X79844D2*
X80541D1*
X87465D2*
X95773D1*
X30906Y37263D2*
X32124D1*
X36062D2*
X36347D1*
X38192D2*
X38889D1*
X41600D2*
X41900D1*
X44142D2*
X52203D1*
X53522D2*
X56503D1*
X58745D2*
X59045D1*
X61287D2*
X74746D1*
X77632D2*
X78329D1*
X80174D2*
X80871D1*
X87321D2*
X95773D1*
X30906Y36936D2*
X32124D1*
X37862D2*
X38559D1*
X41312D2*
X42189D1*
X43854D2*
X52203D1*
X53522D2*
X56792D1*
X58456D2*
X59334D1*
X60998D2*
X74746D1*
X77957D2*
X78659D1*
X80499D2*
X81196D1*
X87032D2*
X95773D1*
X30906Y36610D2*
X32124D1*
X37537D2*
X38234D1*
X40909D2*
X42591D1*
X43446D2*
X51702D1*
X55924D2*
X57199D1*
X58054D2*
X59736D1*
X60591D2*
X74746D1*
X78287D2*
X78984D1*
X80824D2*
X81521D1*
X86625D2*
X95773D1*
X30906Y36283D2*
X32124D1*
X37212D2*
X37909D1*
X41430D2*
X42071D1*
X43972D2*
X51702D1*
X55924D2*
X56673D1*
X58575D2*
X59215D1*
X61117D2*
X74746D1*
X78612D2*
X79309D1*
X81154D2*
X81851D1*
X87151D2*
X95773D1*
X30906Y35956D2*
X32124D1*
X36882D2*
X37579D1*
X41662D2*
X41842D1*
X44199D2*
X51702D1*
X58807D2*
X58982D1*
X61344D2*
X74746D1*
X76699D2*
X77097D1*
X78937D2*
X79639D1*
X81479D2*
X82176D1*
X87383D2*
X95773D1*
X30906Y35630D2*
X32124D1*
X36697D2*
X37255D1*
X44307D2*
X51702D1*
X61452D2*
X74746D1*
X76725D2*
X77422D1*
X79267D2*
X79964D1*
X81804D2*
X82372D1*
X87491D2*
X95773D1*
X30906Y35303D2*
X32124D1*
X36697D2*
X36930D1*
X38769D2*
X39173D1*
X44328D2*
X51702D1*
X61472D2*
X74746D1*
X77049D2*
X77752D1*
X79592D2*
X80289D1*
X82134D2*
X82351D1*
X87506D2*
X95773D1*
X30906Y34976D2*
X32124D1*
X38445D2*
X39142D1*
X44261D2*
X51702D1*
X61405D2*
X74746D1*
X77379D2*
X78077D1*
X79916D2*
X80619D1*
X87439D2*
X95773D1*
X30906Y34650D2*
X32124D1*
X38115D2*
X38817D1*
X41554D2*
X41947D1*
X44091D2*
X51702D1*
X58698D2*
X59091D1*
X61235D2*
X74746D1*
X77704D2*
X78401D1*
X80246D2*
X80943D1*
X87269D2*
X95773D1*
X30906Y34323D2*
X32124D1*
X37790D2*
X38487D1*
X41208D2*
X42292D1*
X43750D2*
X51702D1*
X58353D2*
X59437D1*
X60895D2*
X74746D1*
X78034D2*
X78731D1*
X80571D2*
X81268D1*
X86929D2*
X95773D1*
X30906Y33996D2*
X32124D1*
X37465D2*
X38162D1*
X41085D2*
X42416D1*
X43627D2*
X52388D1*
X57616D2*
X74756D1*
X78359D2*
X79056D1*
X80896D2*
X81598D1*
X86805D2*
X95773D1*
X30906Y33670D2*
X32124D1*
X37331D2*
X37837D1*
X41497D2*
X42003D1*
X44039D2*
X52713D1*
X57621D2*
X74936D1*
X78684D2*
X79381D1*
X81226D2*
X81923D1*
X87218D2*
X95773D1*
X30906Y33343D2*
X32124D1*
X37331D2*
X37508D1*
X41693D2*
X41807D1*
X44235D2*
X53043D1*
X79014D2*
X79711D1*
X81551D2*
X82248D1*
X87414D2*
X95773D1*
X30906Y33016D2*
X32124D1*
X44323D2*
X55281D1*
X79339D2*
X80036D1*
X81881D2*
X82361D1*
X87501D2*
X95773D1*
X30906Y32690D2*
X32124D1*
X44323D2*
X54951D1*
X79664D2*
X80366D1*
X82206D2*
X82356D1*
X87501D2*
X95773D1*
X30906Y32363D2*
X32124D1*
X41693D2*
X41807D1*
X44235D2*
X54626D1*
X79994D2*
X80691D1*
X87609D2*
X95773D1*
X30906Y32036D2*
X32124D1*
X41497D2*
X42003D1*
X44034D2*
X54301D1*
X80319D2*
X81016D1*
X87939D2*
X95773D1*
X30906Y31710D2*
X32124D1*
X41079D2*
X42416D1*
X43622D2*
X53971D1*
X80643D2*
X81346D1*
X88264D2*
X95773D1*
X30906Y31383D2*
X32124D1*
X41214D2*
X42287D1*
X43756D2*
X53646D1*
X80973D2*
X81671D1*
X88589D2*
X95773D1*
X30906Y31056D2*
X32124D1*
X41554D2*
X41947D1*
X44091D2*
X53321D1*
X81298D2*
X81995D1*
X88754D2*
X95773D1*
X30906Y30730D2*
X32124D1*
X44261D2*
X52991D1*
X57693D2*
X75019D1*
X81623D2*
X82325D1*
X88764D2*
X95773D1*
X30886Y30403D2*
X32124D1*
X44328D2*
X52667D1*
X57363D2*
X62737D1*
X81953D2*
X82351D1*
X88764D2*
X95773D1*
X10591Y30076D2*
X32124D1*
X44307D2*
X52337D1*
X57038D2*
X62520D1*
X88764D2*
X95773D1*
X10591Y29750D2*
X32124D1*
X41657D2*
X41841D1*
X44199D2*
X52012D1*
X56713D2*
X62463D1*
X88764D2*
X95773D1*
X10591Y29423D2*
X32124D1*
X41430D2*
X42071D1*
X43967D2*
X51687D1*
X56383D2*
X62381D1*
X87151D2*
X87446D1*
X88764D2*
X95773D1*
X10591Y29096D2*
X32124D1*
X40899D2*
X42602D1*
X43441D2*
X51357D1*
X56058D2*
X62366D1*
X86619D2*
X87446D1*
X88764D2*
X95773D1*
X10591Y28770D2*
X31877D1*
X41312D2*
X42184D1*
X43854D2*
X51032D1*
X55734D2*
X62360D1*
X87032D2*
X87446D1*
X88764D2*
X95773D1*
X10591Y28443D2*
X31552D1*
X41600D2*
X41900D1*
X44142D2*
X50707D1*
X55404D2*
X62360D1*
X87321D2*
X87441D1*
X88764D2*
X95773D1*
X10591Y28116D2*
X31222D1*
X44287D2*
X50377D1*
X55079D2*
X62360D1*
X88764D2*
X95773D1*
X10591Y27790D2*
X30897D1*
X32948D2*
X33077D1*
X44333D2*
X50052D1*
X54754D2*
X62360D1*
X88764D2*
X95773D1*
X10591Y27463D2*
X30567D1*
X32623D2*
X33078D1*
X44292D2*
X49728D1*
X54424D2*
X62360D1*
X88764D2*
X95773D1*
X10591Y27136D2*
X30242D1*
X32298D2*
X33078D1*
X41621D2*
X41880D1*
X44163D2*
X49398D1*
X54099D2*
X54796D1*
X56012D2*
X57333D1*
X58549D2*
X59875D1*
X61091D2*
X62360D1*
X88764D2*
X95773D1*
X10591Y26810D2*
X29917D1*
X31968D2*
X33078D1*
X41353D2*
X42148D1*
X43890D2*
X46531D1*
X53769D2*
X54404D1*
X56404D2*
X56941D1*
X58941D2*
X59483D1*
X61483D2*
X62360D1*
X87073D2*
X87446D1*
X88764D2*
X95773D1*
X10591Y26483D2*
X29587D1*
X31644D2*
X33078D1*
X40786D2*
X42715D1*
X43322D2*
X46206D1*
X53444D2*
X54219D1*
X56584D2*
X56761D1*
X59126D2*
X59301D1*
X61663D2*
X62360D1*
X86501D2*
X87446D1*
X88764D2*
X95773D1*
X10591Y26156D2*
X29262D1*
X31319D2*
X33078D1*
X41399D2*
X42101D1*
X43936D2*
X45881D1*
X53119D2*
X54146D1*
X61741D2*
X62360D1*
X87120D2*
X87446D1*
X88764D2*
X95773D1*
X10591Y25830D2*
X28938D1*
X30989D2*
X33078D1*
X41642D2*
X41858D1*
X44184D2*
X45360D1*
X47396D2*
X49681D1*
X52789D2*
X54141D1*
X61746D2*
X62360D1*
X88764D2*
X95773D1*
X10591Y25503D2*
X28608D1*
X30664D2*
X33078D1*
X44302D2*
X44808D1*
X47066D2*
X49129D1*
X52464D2*
X54141D1*
X61746D2*
X62360D1*
X88764D2*
X95773D1*
X10591Y25176D2*
X23219D1*
X30339D2*
X33078D1*
X44328D2*
X44638D1*
X46741D2*
X48609D1*
X52232D2*
X54141D1*
X61746D2*
X62360D1*
X88764D2*
X95773D1*
X10591Y24850D2*
X22874D1*
X30009D2*
X33078D1*
X44271D2*
X44602D1*
X46519D2*
X48444D1*
X52150D2*
X54157D1*
X61725D2*
X62360D1*
X88764D2*
X95773D1*
X10591Y24523D2*
X22549D1*
X29684D2*
X33078D1*
X44117D2*
X44685D1*
X46432D2*
X48413D1*
X50330D2*
X50645D1*
X51902D2*
X54260D1*
X56543D2*
X56802D1*
X59085D2*
X59339D1*
X61622D2*
X62360D1*
X87295D2*
X87446D1*
X88764D2*
X95773D1*
X10591Y24196D2*
X22224D1*
X29359D2*
X33078D1*
X56316D2*
X57029D1*
X58858D2*
X59571D1*
X61395D2*
X62360D1*
X86980D2*
X87446D1*
X88764D2*
X95773D1*
X10591Y23870D2*
X21894D1*
X23950D2*
X33078D1*
X55785D2*
X57575D1*
X58307D2*
X60117D1*
X60849D2*
X62360D1*
X87305D2*
X87446D1*
X88764D2*
X95773D1*
X10591Y23543D2*
X21569D1*
X23626D2*
X33078D1*
X56110D2*
X62360D1*
X88764D2*
X95773D1*
X10591Y23216D2*
X18429D1*
X19985D2*
X20966D1*
X23296D2*
X23511D1*
X25069D2*
X33078D1*
X56435D2*
X62360D1*
X88764D2*
X95773D1*
X10591Y22890D2*
X18130D1*
X20284D2*
X20672D1*
X22971D2*
X23212D1*
X25363D2*
X33078D1*
X56765D2*
X62360D1*
X79726D2*
X80005D1*
X88764D2*
X95773D1*
X10591Y22563D2*
X17991D1*
X20424D2*
X20526D1*
X22966D2*
X23068D1*
X25508D2*
X33078D1*
X57090D2*
X62360D1*
X80025D2*
X80330D1*
X87073D2*
X87446D1*
X88764D2*
X95773D1*
X10591Y22236D2*
X17944D1*
X25549D2*
X33078D1*
X57414D2*
X62360D1*
X80159D2*
X80655D1*
X87336D2*
X87448D1*
X88764D2*
X95773D1*
X10591Y21910D2*
X17944D1*
X25549D2*
X33078D1*
X57744D2*
X62360D1*
X80164D2*
X80985D1*
X88764D2*
X95773D1*
X10591Y21583D2*
X17944D1*
X25549D2*
X33078D1*
X58069D2*
X62360D1*
X80045D2*
X81310D1*
X88764D2*
X95773D1*
X10591Y21256D2*
X17944D1*
X25549D2*
X33078D1*
X58394D2*
X62360D1*
X79726D2*
X81640D1*
X88764D2*
X95773D1*
X10591Y20930D2*
X17986D1*
X22966D2*
X23068D1*
X25508D2*
X33078D1*
X58724D2*
X62386D1*
X79726D2*
X86033D1*
X87001D2*
X87265D1*
X88945D2*
X95773D1*
X10591Y20603D2*
X18125D1*
X20289D2*
X20667D1*
X22832D2*
X23204D1*
X25368D2*
X33078D1*
X59049D2*
X62551D1*
X79726D2*
X87152D1*
X89058D2*
X95763D1*
X10591Y20276D2*
X18414D1*
X20001D2*
X20956D1*
X22538D2*
X23498D1*
X25080D2*
X33078D1*
X59374D2*
X62845D1*
X79726D2*
X87167D1*
X89043D2*
X95747D1*
X10591Y19950D2*
X33078D1*
X34547D2*
X34680D1*
X47638D2*
X48516D1*
X59704D2*
X63201D1*
X79726D2*
X87306D1*
X88904D2*
X95732D1*
X10591Y19623D2*
X33078D1*
X34547D2*
X35012D1*
X47963D2*
X48413D1*
X60029D2*
X63562D1*
X79726D2*
X87698D1*
X88512D2*
X95690D1*
X10591Y19296D2*
X33078D1*
X34547D2*
X35336D1*
X48118D2*
X48438D1*
X58281D2*
X58512D1*
X60354D2*
X63912D1*
X79726D2*
X95644D1*
X10591Y18970D2*
X33078D1*
X34547D2*
X35661D1*
X48128D2*
X48588D1*
X58286D2*
X58839D1*
X60678D2*
X64237D1*
X79726D2*
X95598D1*
X10591Y18643D2*
X33078D1*
X34547D2*
X35991D1*
X48128D2*
X49031D1*
X58286D2*
X59169D1*
X60823D2*
X64567D1*
X79844D2*
X95525D1*
X10591Y18316D2*
X33078D1*
X34547D2*
X36316D1*
X48128D2*
X49346D1*
X53470D2*
X53780D1*
X58286D2*
X59493D1*
X60828D2*
X64892D1*
X80092D2*
X89998D1*
X91291D2*
X95448D1*
X10591Y17990D2*
X33078D1*
X34547D2*
X36641D1*
X43884D2*
X45216D1*
X48128D2*
X49346D1*
X53305D2*
X54105D1*
X58286D2*
X59504D1*
X60828D2*
X65217D1*
X80174D2*
X89364D1*
X91925D2*
X95366D1*
X10591Y17663D2*
X33078D1*
X34547D2*
X36971D1*
X44199D2*
X45536D1*
X48128D2*
X49346D1*
X53207D2*
X54425D1*
X58286D2*
X59504D1*
X60828D2*
X65547D1*
X80138D2*
X89023D1*
X92266D2*
X95257D1*
X10591Y17336D2*
X33078D1*
X34547D2*
X37296D1*
X44312D2*
X45536D1*
X48128D2*
X49346D1*
X53207D2*
X54425D1*
X58286D2*
X59504D1*
X60828D2*
X65856D1*
X79958D2*
X88802D1*
X92487D2*
X95149D1*
X10591Y17010D2*
X33078D1*
X34547D2*
X37616D1*
X44318D2*
X45536D1*
X48128D2*
X49346D1*
X53207D2*
X54425D1*
X58286D2*
X59504D1*
X60828D2*
X65856D1*
X79875D2*
X88657D1*
X92632D2*
X95025D1*
X10591Y16683D2*
X33078D1*
X34547D2*
X37662D1*
X39486D2*
X39853D1*
X44318D2*
X45536D1*
X48128D2*
X49346D1*
X53207D2*
X54425D1*
X58286D2*
X59504D1*
X60828D2*
X65856D1*
X79875D2*
X88575D1*
X92714D2*
X94881D1*
X10591Y16356D2*
X33078D1*
X34547D2*
X37853D1*
X39295D2*
X40183D1*
X44318D2*
X45536D1*
X48128D2*
X49346D1*
X53207D2*
X54425D1*
X58286D2*
X59504D1*
X60828D2*
X65856D1*
X79875D2*
X88549D1*
X92745D2*
X94742D1*
X10622Y16030D2*
X32789D1*
X34547D2*
X40457D1*
X44318D2*
X45536D1*
X48128D2*
X49346D1*
X53207D2*
X54425D1*
X58286D2*
X59504D1*
X60828D2*
X65856D1*
X79875D2*
X88570D1*
X92719D2*
X94566D1*
X10658Y15703D2*
X32464D1*
X34469D2*
X40457D1*
X44318D2*
X45536D1*
X48128D2*
X49346D1*
X53207D2*
X54425D1*
X58286D2*
X59504D1*
X60828D2*
X65856D1*
X79875D2*
X88647D1*
X92642D2*
X94391D1*
X10704Y15376D2*
X28860D1*
X30509D2*
X31397D1*
X35593D2*
X36481D1*
X38130D2*
X39018D1*
X48293D2*
X49181D1*
X53372D2*
X54260D1*
X58451D2*
X59339D1*
X60993D2*
X61881D1*
X63530D2*
X64418D1*
X81314D2*
X82196D1*
X83851D2*
X84738D1*
X86393D2*
X88786D1*
X92503D2*
X94195D1*
X10787Y15050D2*
X23719D1*
X25492D2*
X28587D1*
X30782D2*
X31129D1*
X35861D2*
X36208D1*
X38403D2*
X38745D1*
X48561D2*
X48908D1*
X53645D2*
X53987D1*
X58724D2*
X59066D1*
X61261D2*
X61608D1*
X63803D2*
X64144D1*
X81582D2*
X81928D1*
X84124D2*
X84465D1*
X86661D2*
X89003D1*
X92286D2*
X93973D1*
X10869Y14723D2*
X23209D1*
X25997D2*
X28458D1*
X86795D2*
X89333D1*
X91956D2*
X93757D1*
X10993Y14396D2*
X22910D1*
X26302D2*
X28427D1*
X86826D2*
X89926D1*
X91363D2*
X93494D1*
X11127Y14070D2*
X22714D1*
X26498D2*
X28479D1*
X30891D2*
X31021D1*
X33428D2*
X33561D1*
X35970D2*
X36100D1*
X38507D2*
X38640D1*
X48669D2*
X48799D1*
X53748D2*
X53884D1*
X58827D2*
X58960D1*
X61369D2*
X61504D1*
X63911D2*
X64039D1*
X81690D2*
X81820D1*
X84227D2*
X84359D1*
X86769D2*
X93226D1*
X11282Y13743D2*
X22590D1*
X26621D2*
X28638D1*
X30731D2*
X31181D1*
X33268D2*
X33723D1*
X35810D2*
X36259D1*
X38352D2*
X38801D1*
X48510D2*
X48959D1*
X53589D2*
X54038D1*
X58667D2*
X59122D1*
X61209D2*
X61659D1*
X63752D2*
X64201D1*
X81530D2*
X81980D1*
X84067D2*
X84522D1*
X86609D2*
X92921D1*
X11477Y13416D2*
X22523D1*
X26688D2*
X28974D1*
X30396D2*
X31511D1*
X32938D2*
X34053D1*
X35480D2*
X36595D1*
X38017D2*
X39131D1*
X48180D2*
X49294D1*
X53259D2*
X54373D1*
X58337D2*
X59452D1*
X60879D2*
X61994D1*
X63416D2*
X64531D1*
X81195D2*
X82310D1*
X83737D2*
X84852D1*
X86279D2*
X92602D1*
X11673Y13090D2*
X22508D1*
X26704D2*
X29350D1*
X30019D2*
X31892D1*
X32556D2*
X34434D1*
X35098D2*
X36971D1*
X37640D2*
X39513D1*
X40177D2*
X40457D1*
X47798D2*
X49671D1*
X50340D2*
X50620D1*
X52877D2*
X54750D1*
X55419D2*
X55698D1*
X57956D2*
X59834D1*
X60498D2*
X62371D1*
X63040D2*
X64913D1*
X65577D2*
X65856D1*
X79875D2*
X80149D1*
X80819D2*
X82691D1*
X83356D2*
X85233D1*
X85898D2*
X92236D1*
X11942Y12763D2*
X22549D1*
X26663D2*
X28778D1*
X30592D2*
X31320D1*
X33129D2*
X33862D1*
X35671D2*
X36399D1*
X38213D2*
X38941D1*
X48370D2*
X49098D1*
X53449D2*
X54177D1*
X58528D2*
X59261D1*
X61070D2*
X61798D1*
X63612D2*
X64340D1*
X81391D2*
X82119D1*
X83928D2*
X84661D1*
X86470D2*
X91859D1*
X12204Y12436D2*
X22642D1*
X26570D2*
X28546D1*
X30824D2*
X31088D1*
X33361D2*
X33630D1*
X35903D2*
X36167D1*
X38439D2*
X38709D1*
X48602D2*
X48866D1*
X53681D2*
X53951D1*
X58760D2*
X59029D1*
X61302D2*
X61566D1*
X63844D2*
X64108D1*
X81623D2*
X81887D1*
X84160D2*
X84429D1*
X86702D2*
X91406D1*
X12555Y12110D2*
X22796D1*
X26410D2*
X28443D1*
X86805D2*
X90921D1*
X12926Y11783D2*
X23039D1*
X26168D2*
X28427D1*
X86821D2*
X90364D1*
X13416Y11456D2*
X23415D1*
X25791D2*
X28504D1*
X30865D2*
X31046D1*
X33402D2*
X33591D1*
X35944D2*
X36125D1*
X38481D2*
X38672D1*
X41023D2*
X41208D1*
X43565D2*
X43746D1*
X46102D2*
X46286D1*
X48644D2*
X48825D1*
X51186D2*
X51366D1*
X53723D2*
X53905D1*
X56265D2*
X56446D1*
X58802D2*
X58990D1*
X61344D2*
X61525D1*
X63886D2*
X64070D1*
X81664D2*
X81846D1*
X84201D2*
X84389D1*
X86743D2*
X89694D1*
X14019Y11130D2*
X24245D1*
X24966D2*
X28695D1*
X30674D2*
X31237D1*
X33216D2*
X33774D1*
X35753D2*
X36316D1*
X38295D2*
X38853D1*
X40837D2*
X41395D1*
X43374D2*
X43937D1*
X45916D2*
X46474D1*
X48453D2*
X49016D1*
X50995D2*
X51553D1*
X53537D2*
X54095D1*
X56074D2*
X56637D1*
X58616D2*
X59174D1*
X61153D2*
X61716D1*
X63695D2*
X64253D1*
X81474D2*
X82037D1*
X84016D2*
X84573D1*
X86552D2*
X88874D1*
X14875Y10803D2*
X29097D1*
X30272D2*
X31639D1*
X32814D2*
X34176D1*
X35351D2*
X36718D1*
X37893D2*
X39260D1*
X40430D2*
X41797D1*
X42972D2*
X44339D1*
X45514D2*
X46876D1*
X48051D2*
X49418D1*
X50593D2*
X51960D1*
X53130D2*
X54497D1*
X55672D2*
X57039D1*
X58214D2*
X59576D1*
X60751D2*
X62118D1*
X63293D2*
X64660D1*
X81071D2*
X82439D1*
X83613D2*
X84981D1*
X86150D2*
X87765D1*
X30913Y14406D2*
X30892Y14209D1*
X30839Y14019D1*
X30757Y13839D1*
X30646Y13675D1*
X30511Y13530D1*
X30355Y13409D1*
X30181Y13315D1*
X29994Y13250D1*
X29799Y13216D1*
X29601Y13214D1*
X29406Y13243D1*
X29217Y13303D1*
X29041Y13393D1*
X28882Y13510D1*
X28743Y13651D1*
X28629Y13812D1*
X28542Y13990D1*
X28485Y14179D1*
X28458Y14376D1*
X28464Y14573D1*
X28502Y14767D1*
X28570Y14953D1*
X28667Y15126D1*
X28790Y15280D1*
X28937Y15413D1*
X29103Y15520D1*
X29284Y15600D1*
X29475Y15649D1*
X29672Y15667D1*
X29870Y15653D1*
X30062Y15608D1*
X30245Y15532D1*
X30413Y15428D1*
X30562Y15299D1*
X30689Y15147D1*
X30789Y14976D1*
X30861Y14792D1*
X30903Y14599D1*
X30913Y14406D1*
X38522Y14274D2*
X38489Y14113D1*
X38435Y13957D1*
X38360Y13810D1*
X38266Y13675D1*
X38155Y13553D1*
X38029Y13447D1*
X37890Y13359D1*
X37740Y13290D1*
X37582Y13242D1*
X37419Y13216D1*
X37254Y13212D1*
X37090Y13230D1*
X36930Y13269D1*
X36777Y13330D1*
X36633Y13411D1*
X36502Y13510D1*
X36384Y13626D1*
X36284Y13757D1*
X36202Y13900D1*
X36139Y14052D1*
X36098Y14212D1*
X36078Y14376D1*
X36081Y14540D1*
X36106Y14703D1*
X36152Y14862D1*
X36219Y15012D1*
X36305Y15153D1*
X36410Y15280D1*
X36531Y15392D1*
X36665Y15488D1*
X36812Y15564D1*
X36967Y15620D1*
X37128Y15654D1*
X37292Y15667D1*
X37457Y15658D1*
X37619Y15626D1*
X37775Y15574D1*
X37923Y15501D1*
X38059Y15408D1*
X38182Y15299D1*
X38290Y15173D1*
X38379Y15035D1*
X38449Y14886D1*
X38499Y14728D1*
X38527Y14566D1*
X38533Y14439D1*
X38522Y14274D1*
X44281Y15485D2*
X44432Y15564D1*
X44587Y15620D1*
X44748Y15654D1*
X44912Y15667D1*
X45077Y15658D1*
X45239Y15626D1*
X45395Y15574D1*
X45564Y15486D1*
X45567Y17670D1*
X44981Y18257D1*
X43587Y18256D1*
X44099Y17741D1*
X44199Y17610D1*
X44262Y17458D1*
X44283Y17296D1*
Y15487D1*
X56981Y15485D2*
X56999Y15495D1*
X56997Y18940D1*
X53874Y22064D1*
X53746Y22066D1*
X56799Y19011D1*
X56899Y18880D1*
X56962Y18728D1*
X56983Y18566D1*
Y15488D1*
X63922Y14274D2*
X63889Y14113D1*
X63835Y13957D1*
X63760Y13810D1*
X63666Y13675D1*
X63555Y13553D1*
X63429Y13447D1*
X63290Y13359D1*
X63140Y13290D1*
X62982Y13242D1*
X62819Y13216D1*
X62654Y13212D1*
X62490Y13230D1*
X62330Y13269D1*
X62177Y13330D1*
X62033Y13411D1*
X61902Y13510D1*
X61784Y13626D1*
X61684Y13757D1*
X61602Y13900D1*
X61539Y14052D1*
X61498Y14212D1*
X61478Y14376D1*
X61481Y14540D1*
X61506Y14703D1*
X61552Y14862D1*
X61619Y15012D1*
X61705Y15153D1*
X61810Y15280D1*
X61931Y15392D1*
X62065Y15488D1*
X62212Y15564D1*
X62367Y15620D1*
X62528Y15654D1*
X62692Y15667D1*
X62857Y15658D1*
X63019Y15626D1*
X63175Y15574D1*
X63323Y15501D1*
X63459Y15408D1*
X63582Y15299D1*
X63690Y15173D1*
X63779Y15035D1*
X63849Y14886D1*
X63899Y14728D1*
X63927Y14566D1*
X63933Y14439D1*
X63922Y14274D1*
X84253Y14406D2*
X84232Y14209D1*
X84179Y14019D1*
X84097Y13839D1*
X83986Y13675D1*
X83851Y13530D1*
X83695Y13409D1*
X83521Y13315D1*
X83334Y13250D1*
X83139Y13216D1*
X82941Y13214D1*
X82746Y13243D1*
X82557Y13303D1*
X82381Y13393D1*
X82222Y13510D1*
X82083Y13651D1*
X81969Y13812D1*
X81882Y13990D1*
X81825Y14179D1*
X81798Y14376D1*
X81804Y14573D1*
X81842Y14767D1*
X81910Y14953D1*
X82007Y15126D1*
X82130Y15280D1*
X82277Y15413D1*
X82443Y15520D1*
X82624Y15600D1*
X82815Y15649D1*
X83012Y15667D1*
X83210Y15653D1*
X83402Y15608D1*
X83585Y15532D1*
X83753Y15428D1*
X83902Y15299D1*
X84029Y15147D1*
X84129Y14976D1*
X84201Y14792D1*
X84243Y14599D1*
X84253Y14406D1*
X86793D2*
X86772Y14209D1*
X86719Y14019D1*
X86637Y13839D1*
X86526Y13675D1*
X86391Y13530D1*
X86235Y13409D1*
X86061Y13315D1*
X85874Y13250D1*
X85679Y13216D1*
X85481Y13214D1*
X85286Y13243D1*
X85097Y13303D1*
X84921Y13393D1*
X84762Y13510D1*
X84623Y13651D1*
X84509Y13812D1*
X84422Y13990D1*
X84365Y14179D1*
X84338Y14376D1*
X84344Y14573D1*
X84382Y14767D1*
X84450Y14953D1*
X84547Y15126D1*
X84670Y15280D1*
X84817Y15413D1*
X84983Y15520D1*
X85164Y15600D1*
X85355Y15649D1*
X85552Y15667D1*
X85750Y15653D1*
X85942Y15608D1*
X86125Y15532D1*
X86293Y15428D1*
X86442Y15299D1*
X86569Y15147D1*
X86669Y14976D1*
X86741Y14792D1*
X86783Y14599D1*
X86793Y14406D1*
Y11866D2*
X86772Y11669D1*
X86719Y11479D1*
X86637Y11299D1*
X86526Y11135D1*
X86391Y10990D1*
X86235Y10869D1*
X86061Y10775D1*
X85874Y10710D1*
X85679Y10676D1*
X85481Y10674D1*
X85286Y10703D1*
X85097Y10763D1*
X84921Y10853D1*
X84762Y10970D1*
X84623Y11111D1*
X84509Y11272D1*
X84422Y11450D1*
X84365Y11639D1*
X84338Y11836D1*
X84344Y12033D1*
X84382Y12227D1*
X84450Y12413D1*
X84547Y12586D1*
X84670Y12740D1*
X84817Y12873D1*
X84983Y12980D1*
X85164Y13060D1*
X85355Y13109D1*
X85552Y13127D1*
X85750Y13113D1*
X85942Y13068D1*
X86125Y12992D1*
X86293Y12888D1*
X86442Y12759D1*
X86569Y12607D1*
X86669Y12436D1*
X86741Y12252D1*
X86783Y12059D1*
X86793Y11866D1*
X84253D2*
X84232Y11669D1*
X84179Y11479D1*
X84097Y11299D1*
X83986Y11135D1*
X83851Y10990D1*
X83695Y10869D1*
X83521Y10775D1*
X83334Y10710D1*
X83139Y10676D1*
X82941Y10674D1*
X82746Y10703D1*
X82557Y10763D1*
X82381Y10853D1*
X82222Y10970D1*
X82083Y11111D1*
X81969Y11272D1*
X81882Y11450D1*
X81825Y11639D1*
X81798Y11836D1*
X81804Y12033D1*
X81842Y12227D1*
X81910Y12413D1*
X82007Y12586D1*
X82130Y12740D1*
X82277Y12873D1*
X82443Y12980D1*
X82624Y13060D1*
X82815Y13109D1*
X83012Y13127D1*
X83210Y13113D1*
X83402Y13068D1*
X83585Y12992D1*
X83753Y12888D1*
X83902Y12759D1*
X84029Y12607D1*
X84129Y12436D1*
X84201Y12252D1*
X84243Y12059D1*
X84253Y11866D1*
X63922Y11734D2*
X63889Y11573D1*
X63835Y11417D1*
X63760Y11270D1*
X63666Y11135D1*
X63555Y11013D1*
X63429Y10907D1*
X63290Y10819D1*
X63140Y10750D1*
X62982Y10702D1*
X62819Y10676D1*
X62654Y10672D1*
X62490Y10690D1*
X62330Y10729D1*
X62177Y10790D1*
X62033Y10871D1*
X61902Y10970D1*
X61784Y11086D1*
X61684Y11217D1*
X61602Y11360D1*
X61539Y11512D1*
X61498Y11672D1*
X61478Y11836D1*
X61481Y12000D1*
X61506Y12163D1*
X61552Y12322D1*
X61619Y12472D1*
X61705Y12613D1*
X61810Y12740D1*
X61931Y12852D1*
X62065Y12948D1*
X62212Y13024D1*
X62367Y13080D1*
X62528Y13114D1*
X62692Y13127D1*
X62857Y13118D1*
X63019Y13086D1*
X63175Y13034D1*
X63323Y12961D1*
X63459Y12868D1*
X63582Y12759D1*
X63690Y12633D1*
X63779Y12495D1*
X63849Y12346D1*
X63899Y12188D1*
X63927Y12026D1*
X63933Y11899D1*
X63922Y11734D1*
X61382D2*
X61349Y11573D1*
X61295Y11417D1*
X61220Y11270D1*
X61126Y11135D1*
X61015Y11013D1*
X60889Y10907D1*
X60750Y10819D1*
X60600Y10750D1*
X60442Y10702D1*
X60279Y10676D1*
X60114Y10672D1*
X59950Y10690D1*
X59790Y10729D1*
X59637Y10790D1*
X59493Y10871D1*
X59362Y10970D1*
X59244Y11086D1*
X59144Y11217D1*
X59062Y11360D1*
X58999Y11512D1*
X58958Y11672D1*
X58938Y11836D1*
X58941Y12000D1*
X58966Y12163D1*
X59012Y12322D1*
X59079Y12472D1*
X59165Y12613D1*
X59270Y12740D1*
X59391Y12852D1*
X59525Y12948D1*
X59672Y13024D1*
X59827Y13080D1*
X59988Y13114D1*
X60152Y13127D1*
X60317Y13118D1*
X60479Y13086D1*
X60635Y13034D1*
X60783Y12961D1*
X60919Y12868D1*
X61042Y12759D1*
X61150Y12633D1*
X61239Y12495D1*
X61309Y12346D1*
X61359Y12188D1*
X61387Y12026D1*
X61393Y11899D1*
X61382Y11734D1*
X38522D2*
X38489Y11573D1*
X38435Y11417D1*
X38360Y11270D1*
X38266Y11135D1*
X38155Y11013D1*
X38029Y10907D1*
X37890Y10819D1*
X37740Y10750D1*
X37582Y10702D1*
X37419Y10676D1*
X37254Y10672D1*
X37090Y10690D1*
X36930Y10729D1*
X36777Y10790D1*
X36633Y10871D1*
X36502Y10970D1*
X36384Y11086D1*
X36284Y11217D1*
X36202Y11360D1*
X36139Y11512D1*
X36098Y11672D1*
X36078Y11836D1*
X36081Y12000D1*
X36106Y12163D1*
X36152Y12322D1*
X36219Y12472D1*
X36305Y12613D1*
X36410Y12740D1*
X36531Y12852D1*
X36665Y12948D1*
X36812Y13024D1*
X36967Y13080D1*
X37128Y13114D1*
X37292Y13127D1*
X37457Y13118D1*
X37619Y13086D1*
X37775Y13034D1*
X37923Y12961D1*
X38059Y12868D1*
X38182Y12759D1*
X38290Y12633D1*
X38379Y12495D1*
X38449Y12346D1*
X38499Y12188D1*
X38527Y12026D1*
X38533Y11899D1*
X38522Y11734D1*
X35982D2*
X35949Y11573D1*
X35895Y11417D1*
X35820Y11270D1*
X35726Y11135D1*
X35615Y11013D1*
X35489Y10907D1*
X35350Y10819D1*
X35200Y10750D1*
X35042Y10702D1*
X34879Y10676D1*
X34714Y10672D1*
X34550Y10690D1*
X34390Y10729D1*
X34237Y10790D1*
X34093Y10871D1*
X33962Y10970D1*
X33844Y11086D1*
X33744Y11217D1*
X33662Y11360D1*
X33599Y11512D1*
X33558Y11672D1*
X33538Y11836D1*
X33541Y12000D1*
X33566Y12163D1*
X33612Y12322D1*
X33679Y12472D1*
X33765Y12613D1*
X33870Y12740D1*
X33991Y12852D1*
X34125Y12948D1*
X34272Y13024D1*
X34427Y13080D1*
X34588Y13114D1*
X34752Y13127D1*
X34917Y13118D1*
X35079Y13086D1*
X35235Y13034D1*
X35383Y12961D1*
X35519Y12868D1*
X35642Y12759D1*
X35750Y12633D1*
X35839Y12495D1*
X35909Y12346D1*
X35959Y12188D1*
X35987Y12026D1*
X35993Y11899D1*
X35982Y11734D1*
X33442D2*
X33409Y11573D1*
X33355Y11417D1*
X33280Y11270D1*
X33186Y11135D1*
X33075Y11013D1*
X32949Y10907D1*
X32810Y10819D1*
X32660Y10750D1*
X32502Y10702D1*
X32339Y10676D1*
X32174Y10672D1*
X32010Y10690D1*
X31850Y10729D1*
X31697Y10790D1*
X31553Y10871D1*
X31422Y10970D1*
X31304Y11086D1*
X31204Y11217D1*
X31122Y11360D1*
X31059Y11512D1*
X31018Y11672D1*
X30998Y11836D1*
X31001Y12000D1*
X31026Y12163D1*
X31072Y12322D1*
X31139Y12472D1*
X31225Y12613D1*
X31330Y12740D1*
X31451Y12852D1*
X31585Y12948D1*
X31732Y13024D1*
X31887Y13080D1*
X32048Y13114D1*
X32212Y13127D1*
X32377Y13118D1*
X32539Y13086D1*
X32695Y13034D1*
X32843Y12961D1*
X32979Y12868D1*
X33102Y12759D1*
X33210Y12633D1*
X33299Y12495D1*
X33369Y12346D1*
X33419Y12188D1*
X33447Y12026D1*
X33453Y11899D1*
X33442Y11734D1*
X30913Y11866D2*
X30892Y11669D1*
X30839Y11479D1*
X30757Y11299D1*
X30646Y11135D1*
X30511Y10990D1*
X30355Y10869D1*
X30181Y10775D1*
X29994Y10710D1*
X29799Y10676D1*
X29601Y10674D1*
X29406Y10703D1*
X29217Y10763D1*
X29041Y10853D1*
X28882Y10970D1*
X28743Y11111D1*
X28629Y11272D1*
X28542Y11450D1*
X28485Y11639D1*
X28458Y11836D1*
X28464Y12033D1*
X28502Y12227D1*
X28570Y12413D1*
X28667Y12586D1*
X28790Y12740D1*
X28937Y12873D1*
X29103Y12980D1*
X29284Y13060D1*
X29475Y13109D1*
X29672Y13127D1*
X29870Y13113D1*
X30062Y13068D1*
X30245Y12992D1*
X30413Y12888D1*
X30562Y12759D1*
X30689Y12607D1*
X30789Y12436D1*
X30861Y12252D1*
X30903Y12059D1*
X30913Y11866D1*
Y62666D2*
X30892Y62469D1*
X30839Y62279D1*
X30757Y62099D1*
X30646Y61935D1*
X30511Y61790D1*
X30355Y61669D1*
X30181Y61575D1*
X29994Y61510D1*
X29799Y61476D1*
X29601Y61474D1*
X29406Y61503D1*
X29217Y61563D1*
X29041Y61653D1*
X28882Y61770D1*
X28743Y61911D1*
X28629Y62072D1*
X28542Y62250D1*
X28485Y62439D1*
X28458Y62636D1*
X28464Y62833D1*
X28502Y63027D1*
X28570Y63213D1*
X28667Y63386D1*
X28790Y63540D1*
X28937Y63673D1*
X29103Y63780D1*
X29284Y63860D1*
X29475Y63909D1*
X29672Y63927D1*
X29870Y63913D1*
X30062Y63868D1*
X30245Y63792D1*
X30413Y63688D1*
X30562Y63559D1*
X30689Y63407D1*
X30789Y63236D1*
X30861Y63052D1*
X30903Y62859D1*
X30913Y62666D1*
X33442Y62534D2*
X33409Y62373D1*
X33355Y62217D1*
X33280Y62070D1*
X33186Y61935D1*
X33075Y61813D1*
X32949Y61707D1*
X32810Y61619D1*
X32660Y61550D1*
X32502Y61502D1*
X32339Y61476D1*
X32174Y61472D1*
X32010Y61490D1*
X31850Y61529D1*
X31697Y61590D1*
X31553Y61671D1*
X31422Y61770D1*
X31304Y61886D1*
X31204Y62017D1*
X31122Y62160D1*
X31059Y62312D1*
X31018Y62472D1*
X30998Y62636D1*
X31001Y62800D1*
X31026Y62963D1*
X31072Y63122D1*
X31139Y63272D1*
X31225Y63413D1*
X31330Y63540D1*
X31451Y63652D1*
X31585Y63748D1*
X31732Y63824D1*
X31887Y63880D1*
X32048Y63914D1*
X32212Y63927D1*
X32377Y63918D1*
X32539Y63886D1*
X32695Y63834D1*
X32843Y63761D1*
X32979Y63668D1*
X33102Y63559D1*
X33210Y63433D1*
X33299Y63295D1*
X33369Y63146D1*
X33419Y62988D1*
X33447Y62826D1*
X33453Y62699D1*
X33442Y62534D1*
X35982D2*
X35949Y62373D1*
X35895Y62217D1*
X35820Y62070D1*
X35726Y61935D1*
X35615Y61813D1*
X35489Y61707D1*
X35350Y61619D1*
X35200Y61550D1*
X35042Y61502D1*
X34879Y61476D1*
X34714Y61472D1*
X34550Y61490D1*
X34390Y61529D1*
X34237Y61590D1*
X34093Y61671D1*
X33962Y61770D1*
X33844Y61886D1*
X33744Y62017D1*
X33662Y62160D1*
X33599Y62312D1*
X33558Y62472D1*
X33538Y62636D1*
X33541Y62800D1*
X33566Y62963D1*
X33612Y63122D1*
X33679Y63272D1*
X33765Y63413D1*
X33870Y63540D1*
X33991Y63652D1*
X34125Y63748D1*
X34272Y63824D1*
X34427Y63880D1*
X34588Y63914D1*
X34752Y63927D1*
X34917Y63918D1*
X35079Y63886D1*
X35235Y63834D1*
X35383Y63761D1*
X35519Y63668D1*
X35642Y63559D1*
X35750Y63433D1*
X35839Y63295D1*
X35909Y63146D1*
X35959Y62988D1*
X35987Y62826D1*
X35993Y62699D1*
X35982Y62534D1*
X53762D2*
X53729Y62373D1*
X53675Y62217D1*
X53600Y62070D1*
X53506Y61935D1*
X53395Y61813D1*
X53269Y61707D1*
X53130Y61619D1*
X52980Y61550D1*
X52822Y61502D1*
X52659Y61476D1*
X52494Y61472D1*
X52330Y61490D1*
X52170Y61529D1*
X52017Y61590D1*
X51873Y61671D1*
X51742Y61770D1*
X51624Y61886D1*
X51524Y62017D1*
X51442Y62160D1*
X51379Y62312D1*
X51338Y62472D1*
X51318Y62636D1*
X51321Y62800D1*
X51346Y62963D1*
X51392Y63122D1*
X51459Y63272D1*
X51545Y63413D1*
X51650Y63540D1*
X51771Y63652D1*
X51905Y63748D1*
X52052Y63824D1*
X52207Y63880D1*
X52368Y63914D1*
X52532Y63927D1*
X52697Y63918D1*
X52859Y63886D1*
X53015Y63834D1*
X53163Y63761D1*
X53299Y63668D1*
X53422Y63559D1*
X53530Y63433D1*
X53619Y63295D1*
X53689Y63146D1*
X53739Y62988D1*
X53767Y62826D1*
X53773Y62699D1*
X53762Y62534D1*
X56302D2*
X56269Y62373D1*
X56215Y62217D1*
X56140Y62070D1*
X56046Y61935D1*
X55935Y61813D1*
X55809Y61707D1*
X55670Y61619D1*
X55520Y61550D1*
X55362Y61502D1*
X55199Y61476D1*
X55034Y61472D1*
X54870Y61490D1*
X54710Y61529D1*
X54557Y61590D1*
X54413Y61671D1*
X54282Y61770D1*
X54164Y61886D1*
X54064Y62017D1*
X53982Y62160D1*
X53919Y62312D1*
X53878Y62472D1*
X53858Y62636D1*
X53861Y62800D1*
X53886Y62963D1*
X53932Y63122D1*
X53999Y63272D1*
X54085Y63413D1*
X54190Y63540D1*
X54311Y63652D1*
X54445Y63748D1*
X54592Y63824D1*
X54747Y63880D1*
X54908Y63914D1*
X55072Y63927D1*
X55237Y63918D1*
X55399Y63886D1*
X55555Y63834D1*
X55703Y63761D1*
X55839Y63668D1*
X55962Y63559D1*
X56070Y63433D1*
X56159Y63295D1*
X56229Y63146D1*
X56279Y62988D1*
X56307Y62826D1*
X56313Y62699D1*
X56302Y62534D1*
X58842D2*
X58809Y62373D1*
X58755Y62217D1*
X58680Y62070D1*
X58586Y61935D1*
X58475Y61813D1*
X58349Y61707D1*
X58210Y61619D1*
X58060Y61550D1*
X57902Y61502D1*
X57739Y61476D1*
X57574Y61472D1*
X57410Y61490D1*
X57250Y61529D1*
X57097Y61590D1*
X56953Y61671D1*
X56822Y61770D1*
X56704Y61886D1*
X56604Y62017D1*
X56522Y62160D1*
X56459Y62312D1*
X56418Y62472D1*
X56398Y62636D1*
X56401Y62800D1*
X56426Y62963D1*
X56472Y63122D1*
X56539Y63272D1*
X56625Y63413D1*
X56730Y63540D1*
X56851Y63652D1*
X56985Y63748D1*
X57132Y63824D1*
X57287Y63880D1*
X57448Y63914D1*
X57612Y63927D1*
X57777Y63918D1*
X57939Y63886D1*
X58095Y63834D1*
X58243Y63761D1*
X58379Y63668D1*
X58502Y63559D1*
X58610Y63433D1*
X58699Y63295D1*
X58769Y63146D1*
X58819Y62988D1*
X58847Y62826D1*
X58853Y62699D1*
X58842Y62534D1*
X61382D2*
X61349Y62373D1*
X61295Y62217D1*
X61220Y62070D1*
X61126Y61935D1*
X61015Y61813D1*
X60889Y61707D1*
X60750Y61619D1*
X60600Y61550D1*
X60442Y61502D1*
X60279Y61476D1*
X60114Y61472D1*
X59950Y61490D1*
X59790Y61529D1*
X59637Y61590D1*
X59493Y61671D1*
X59362Y61770D1*
X59244Y61886D1*
X59144Y62017D1*
X59062Y62160D1*
X58999Y62312D1*
X58958Y62472D1*
X58938Y62636D1*
X58941Y62800D1*
X58966Y62963D1*
X59012Y63122D1*
X59079Y63272D1*
X59165Y63413D1*
X59270Y63540D1*
X59391Y63652D1*
X59525Y63748D1*
X59672Y63824D1*
X59827Y63880D1*
X59988Y63914D1*
X60152Y63927D1*
X60317Y63918D1*
X60479Y63886D1*
X60635Y63834D1*
X60783Y63761D1*
X60919Y63668D1*
X61042Y63559D1*
X61150Y63433D1*
X61239Y63295D1*
X61309Y63146D1*
X61359Y62988D1*
X61387Y62826D1*
X61393Y62699D1*
X61382Y62534D1*
X63922D2*
X63889Y62373D1*
X63835Y62217D1*
X63760Y62070D1*
X63666Y61935D1*
X63555Y61813D1*
X63429Y61707D1*
X63290Y61619D1*
X63140Y61550D1*
X62982Y61502D1*
X62819Y61476D1*
X62654Y61472D1*
X62490Y61490D1*
X62330Y61529D1*
X62177Y61590D1*
X62033Y61671D1*
X61902Y61770D1*
X61784Y61886D1*
X61684Y62017D1*
X61602Y62160D1*
X61539Y62312D1*
X61498Y62472D1*
X61478Y62636D1*
X61481Y62800D1*
X61506Y62963D1*
X61552Y63122D1*
X61619Y63272D1*
X61705Y63413D1*
X61810Y63540D1*
X61931Y63652D1*
X62065Y63748D1*
X62212Y63824D1*
X62367Y63880D1*
X62528Y63914D1*
X62692Y63927D1*
X62857Y63918D1*
X63019Y63886D1*
X63175Y63834D1*
X63323Y63761D1*
X63459Y63668D1*
X63582Y63559D1*
X63690Y63433D1*
X63779Y63295D1*
X63849Y63146D1*
X63899Y62988D1*
X63927Y62826D1*
X63933Y62699D1*
X63922Y62534D1*
X66462D2*
X66429Y62373D1*
X66375Y62217D1*
X66300Y62070D1*
X66206Y61935D1*
X66095Y61813D1*
X65969Y61707D1*
X65830Y61619D1*
X65680Y61550D1*
X65522Y61502D1*
X65359Y61476D1*
X65194Y61472D1*
X65030Y61490D1*
X64870Y61529D1*
X64717Y61590D1*
X64573Y61671D1*
X64442Y61770D1*
X64324Y61886D1*
X64224Y62017D1*
X64142Y62160D1*
X64079Y62312D1*
X64038Y62472D1*
X64018Y62636D1*
X64021Y62800D1*
X64046Y62963D1*
X64092Y63122D1*
X64159Y63272D1*
X64245Y63413D1*
X64350Y63540D1*
X64471Y63652D1*
X64605Y63748D1*
X64752Y63824D1*
X64907Y63880D1*
X65068Y63914D1*
X65232Y63927D1*
X65397Y63918D1*
X65559Y63886D1*
X65715Y63834D1*
X65863Y63761D1*
X65999Y63668D1*
X66122Y63559D1*
X66230Y63433D1*
X66319Y63295D1*
X66389Y63146D1*
X66439Y62988D1*
X66467Y62826D1*
X66473Y62699D1*
X66462Y62534D1*
X69002D2*
X68969Y62373D1*
X68915Y62217D1*
X68840Y62070D1*
X68746Y61935D1*
X68635Y61813D1*
X68509Y61707D1*
X68370Y61619D1*
X68220Y61550D1*
X68062Y61502D1*
X67899Y61476D1*
X67734Y61472D1*
X67570Y61490D1*
X67410Y61529D1*
X67257Y61590D1*
X67113Y61671D1*
X66982Y61770D1*
X66864Y61886D1*
X66764Y62017D1*
X66682Y62160D1*
X66619Y62312D1*
X66578Y62472D1*
X66558Y62636D1*
X66561Y62800D1*
X66586Y62963D1*
X66632Y63122D1*
X66699Y63272D1*
X66785Y63413D1*
X66890Y63540D1*
X67011Y63652D1*
X67145Y63748D1*
X67292Y63824D1*
X67447Y63880D1*
X67608Y63914D1*
X67772Y63927D1*
X67937Y63918D1*
X68099Y63886D1*
X68255Y63834D1*
X68403Y63761D1*
X68539Y63668D1*
X68662Y63559D1*
X68770Y63433D1*
X68859Y63295D1*
X68929Y63146D1*
X68979Y62988D1*
X69007Y62826D1*
X69013Y62699D1*
X69002Y62534D1*
X71542D2*
X71509Y62373D1*
X71455Y62217D1*
X71380Y62070D1*
X71286Y61935D1*
X71175Y61813D1*
X71049Y61707D1*
X70910Y61619D1*
X70760Y61550D1*
X70602Y61502D1*
X70439Y61476D1*
X70274Y61472D1*
X70110Y61490D1*
X69950Y61529D1*
X69797Y61590D1*
X69653Y61671D1*
X69522Y61770D1*
X69404Y61886D1*
X69304Y62017D1*
X69222Y62160D1*
X69159Y62312D1*
X69118Y62472D1*
X69098Y62636D1*
X69101Y62800D1*
X69126Y62963D1*
X69172Y63122D1*
X69239Y63272D1*
X69325Y63413D1*
X69430Y63540D1*
X69551Y63652D1*
X69685Y63748D1*
X69832Y63824D1*
X69987Y63880D1*
X70148Y63914D1*
X70312Y63927D1*
X70477Y63918D1*
X70639Y63886D1*
X70795Y63834D1*
X70943Y63761D1*
X71079Y63668D1*
X71202Y63559D1*
X71310Y63433D1*
X71399Y63295D1*
X71469Y63146D1*
X71519Y62988D1*
X71547Y62826D1*
X71553Y62699D1*
X71542Y62534D1*
X74082D2*
X74049Y62373D1*
X73995Y62217D1*
X73920Y62070D1*
X73826Y61935D1*
X73715Y61813D1*
X73589Y61707D1*
X73450Y61619D1*
X73300Y61550D1*
X73142Y61502D1*
X72979Y61476D1*
X72814Y61472D1*
X72650Y61490D1*
X72490Y61529D1*
X72337Y61590D1*
X72193Y61671D1*
X72062Y61770D1*
X71944Y61886D1*
X71844Y62017D1*
X71762Y62160D1*
X71699Y62312D1*
X71658Y62472D1*
X71638Y62636D1*
X71641Y62800D1*
X71666Y62963D1*
X71712Y63122D1*
X71779Y63272D1*
X71865Y63413D1*
X71970Y63540D1*
X72091Y63652D1*
X72225Y63748D1*
X72372Y63824D1*
X72527Y63880D1*
X72688Y63914D1*
X72852Y63927D1*
X73017Y63918D1*
X73179Y63886D1*
X73335Y63834D1*
X73483Y63761D1*
X73619Y63668D1*
X73742Y63559D1*
X73850Y63433D1*
X73939Y63295D1*
X74009Y63146D1*
X74059Y62988D1*
X74087Y62826D1*
X74093Y62699D1*
X74082Y62534D1*
X76622D2*
X76589Y62373D1*
X76535Y62217D1*
X76460Y62070D1*
X76366Y61935D1*
X76255Y61813D1*
X76129Y61707D1*
X75990Y61619D1*
X75840Y61550D1*
X75682Y61502D1*
X75519Y61476D1*
X75354Y61472D1*
X75190Y61490D1*
X75030Y61529D1*
X74877Y61590D1*
X74733Y61671D1*
X74602Y61770D1*
X74484Y61886D1*
X74384Y62017D1*
X74302Y62160D1*
X74239Y62312D1*
X74198Y62472D1*
X74178Y62636D1*
X74181Y62800D1*
X74206Y62963D1*
X74252Y63122D1*
X74319Y63272D1*
X74405Y63413D1*
X74510Y63540D1*
X74631Y63652D1*
X74765Y63748D1*
X74912Y63824D1*
X75067Y63880D1*
X75228Y63914D1*
X75392Y63927D1*
X75557Y63918D1*
X75719Y63886D1*
X75875Y63834D1*
X76023Y63761D1*
X76159Y63668D1*
X76282Y63559D1*
X76390Y63433D1*
X76479Y63295D1*
X76549Y63146D1*
X76599Y62988D1*
X76627Y62826D1*
X76633Y62699D1*
X76622Y62534D1*
X79162D2*
X79129Y62373D1*
X79075Y62217D1*
X79000Y62070D1*
X78906Y61935D1*
X78795Y61813D1*
X78669Y61707D1*
X78530Y61619D1*
X78380Y61550D1*
X78222Y61502D1*
X78059Y61476D1*
X77894Y61472D1*
X77730Y61490D1*
X77570Y61529D1*
X77417Y61590D1*
X77273Y61671D1*
X77142Y61770D1*
X77024Y61886D1*
X76924Y62017D1*
X76842Y62160D1*
X76779Y62312D1*
X76738Y62472D1*
X76718Y62636D1*
X76721Y62800D1*
X76746Y62963D1*
X76792Y63122D1*
X76859Y63272D1*
X76945Y63413D1*
X77050Y63540D1*
X77171Y63652D1*
X77305Y63748D1*
X77452Y63824D1*
X77607Y63880D1*
X77768Y63914D1*
X77932Y63927D1*
X78097Y63918D1*
X78259Y63886D1*
X78415Y63834D1*
X78563Y63761D1*
X78699Y63668D1*
X78822Y63559D1*
X78930Y63433D1*
X79019Y63295D1*
X79089Y63146D1*
X79139Y62988D1*
X79167Y62826D1*
X79173Y62699D1*
X79162Y62534D1*
X81702D2*
X81669Y62373D1*
X81615Y62217D1*
X81540Y62070D1*
X81446Y61935D1*
X81335Y61813D1*
X81209Y61707D1*
X81070Y61619D1*
X80920Y61550D1*
X80762Y61502D1*
X80599Y61476D1*
X80434Y61472D1*
X80270Y61490D1*
X80110Y61529D1*
X79957Y61590D1*
X79813Y61671D1*
X79682Y61770D1*
X79564Y61886D1*
X79464Y62017D1*
X79382Y62160D1*
X79319Y62312D1*
X79278Y62472D1*
X79258Y62636D1*
X79261Y62800D1*
X79286Y62963D1*
X79332Y63122D1*
X79399Y63272D1*
X79485Y63413D1*
X79590Y63540D1*
X79711Y63652D1*
X79845Y63748D1*
X79992Y63824D1*
X80147Y63880D1*
X80308Y63914D1*
X80472Y63927D1*
X80637Y63918D1*
X80799Y63886D1*
X80955Y63834D1*
X81103Y63761D1*
X81239Y63668D1*
X81362Y63559D1*
X81470Y63433D1*
X81559Y63295D1*
X81629Y63146D1*
X81679Y62988D1*
X81707Y62826D1*
X81713Y62699D1*
X81702Y62534D1*
X84242D2*
X84209Y62373D1*
X84155Y62217D1*
X84080Y62070D1*
X83986Y61935D1*
X83875Y61813D1*
X83749Y61707D1*
X83610Y61619D1*
X83460Y61550D1*
X83302Y61502D1*
X83139Y61476D1*
X82974Y61472D1*
X82810Y61490D1*
X82650Y61529D1*
X82497Y61590D1*
X82353Y61671D1*
X82222Y61770D1*
X82104Y61886D1*
X82004Y62017D1*
X81922Y62160D1*
X81859Y62312D1*
X81818Y62472D1*
X81798Y62636D1*
X81801Y62800D1*
X81826Y62963D1*
X81872Y63122D1*
X81939Y63272D1*
X82025Y63413D1*
X82130Y63540D1*
X82251Y63652D1*
X82385Y63748D1*
X82532Y63824D1*
X82687Y63880D1*
X82848Y63914D1*
X83012Y63927D1*
X83177Y63918D1*
X83339Y63886D1*
X83495Y63834D1*
X83643Y63761D1*
X83779Y63668D1*
X83902Y63559D1*
X84010Y63433D1*
X84099Y63295D1*
X84169Y63146D1*
X84219Y62988D1*
X84247Y62826D1*
X84253Y62699D1*
X84242Y62534D1*
X86782D2*
X86749Y62373D1*
X86695Y62217D1*
X86620Y62070D1*
X86526Y61935D1*
X86415Y61813D1*
X86289Y61707D1*
X86150Y61619D1*
X86000Y61550D1*
X85842Y61502D1*
X85679Y61476D1*
X85514Y61472D1*
X85350Y61490D1*
X85190Y61529D1*
X85037Y61590D1*
X84893Y61671D1*
X84762Y61770D1*
X84644Y61886D1*
X84544Y62017D1*
X84462Y62160D1*
X84399Y62312D1*
X84358Y62472D1*
X84338Y62636D1*
X84341Y62800D1*
X84366Y62963D1*
X84412Y63122D1*
X84479Y63272D1*
X84565Y63413D1*
X84670Y63540D1*
X84791Y63652D1*
X84925Y63748D1*
X85072Y63824D1*
X85227Y63880D1*
X85388Y63914D1*
X85552Y63927D1*
X85717Y63918D1*
X85879Y63886D1*
X86035Y63834D1*
X86183Y63761D1*
X86319Y63668D1*
X86442Y63559D1*
X86550Y63433D1*
X86639Y63295D1*
X86709Y63146D1*
X86759Y62988D1*
X86787Y62826D1*
X86793Y62699D1*
X86782Y62534D1*
Y59994D2*
X86749Y59833D1*
X86695Y59677D1*
X86620Y59530D1*
X86526Y59395D1*
X86415Y59273D1*
X86289Y59167D1*
X86150Y59079D1*
X86000Y59010D1*
X85842Y58962D1*
X85679Y58936D1*
X85514Y58932D1*
X85350Y58950D1*
X85190Y58989D1*
X85037Y59050D1*
X84893Y59131D1*
X84762Y59230D1*
X84644Y59346D1*
X84544Y59477D1*
X84462Y59620D1*
X84399Y59772D1*
X84358Y59932D1*
X84338Y60096D1*
X84341Y60260D1*
X84366Y60423D1*
X84412Y60582D1*
X84479Y60732D1*
X84565Y60873D1*
X84670Y61000D1*
X84791Y61112D1*
X84925Y61208D1*
X85072Y61284D1*
X85227Y61340D1*
X85388Y61374D1*
X85552Y61387D1*
X85717Y61378D1*
X85879Y61346D1*
X86035Y61294D1*
X86183Y61221D1*
X86319Y61128D1*
X86442Y61019D1*
X86550Y60893D1*
X86639Y60755D1*
X86709Y60606D1*
X86759Y60448D1*
X86787Y60286D1*
X86793Y60159D1*
X86782Y59994D1*
X84242D2*
X84209Y59833D1*
X84155Y59677D1*
X84080Y59530D1*
X83986Y59395D1*
X83875Y59273D1*
X83749Y59167D1*
X83610Y59079D1*
X83460Y59010D1*
X83302Y58962D1*
X83139Y58936D1*
X82974Y58932D1*
X82810Y58950D1*
X82650Y58989D1*
X82497Y59050D1*
X82353Y59131D1*
X82222Y59230D1*
X82104Y59346D1*
X82004Y59477D1*
X81922Y59620D1*
X81859Y59772D1*
X81818Y59932D1*
X81798Y60096D1*
X81801Y60260D1*
X81826Y60423D1*
X81872Y60582D1*
X81939Y60732D1*
X82025Y60873D1*
X82130Y61000D1*
X82251Y61112D1*
X82385Y61208D1*
X82532Y61284D1*
X82687Y61340D1*
X82848Y61374D1*
X83012Y61387D1*
X83177Y61378D1*
X83339Y61346D1*
X83495Y61294D1*
X83643Y61221D1*
X83779Y61128D1*
X83902Y61019D1*
X84010Y60893D1*
X84099Y60755D1*
X84169Y60606D1*
X84219Y60448D1*
X84247Y60286D1*
X84253Y60159D1*
X84242Y59994D1*
X81702D2*
X81669Y59833D1*
X81615Y59677D1*
X81540Y59530D1*
X81446Y59395D1*
X81335Y59273D1*
X81209Y59167D1*
X81070Y59079D1*
X80920Y59010D1*
X80762Y58962D1*
X80599Y58936D1*
X80434Y58932D1*
X80270Y58950D1*
X80110Y58989D1*
X79957Y59050D1*
X79813Y59131D1*
X79682Y59230D1*
X79564Y59346D1*
X79464Y59477D1*
X79382Y59620D1*
X79319Y59772D1*
X79278Y59932D1*
X79258Y60096D1*
X79261Y60260D1*
X79286Y60423D1*
X79332Y60582D1*
X79399Y60732D1*
X79485Y60873D1*
X79590Y61000D1*
X79711Y61112D1*
X79845Y61208D1*
X79992Y61284D1*
X80147Y61340D1*
X80308Y61374D1*
X80472Y61387D1*
X80637Y61378D1*
X80799Y61346D1*
X80955Y61294D1*
X81103Y61221D1*
X81239Y61128D1*
X81362Y61019D1*
X81470Y60893D1*
X81559Y60755D1*
X81629Y60606D1*
X81679Y60448D1*
X81707Y60286D1*
X81713Y60159D1*
X81702Y59994D1*
X79162D2*
X79129Y59833D1*
X79075Y59677D1*
X79000Y59530D1*
X78906Y59395D1*
X78795Y59273D1*
X78669Y59167D1*
X78530Y59079D1*
X78380Y59010D1*
X78222Y58962D1*
X78059Y58936D1*
X77894Y58932D1*
X77730Y58950D1*
X77570Y58989D1*
X77417Y59050D1*
X77273Y59131D1*
X77142Y59230D1*
X77024Y59346D1*
X76924Y59477D1*
X76842Y59620D1*
X76779Y59772D1*
X76738Y59932D1*
X76718Y60096D1*
X76721Y60260D1*
X76746Y60423D1*
X76792Y60582D1*
X76859Y60732D1*
X76945Y60873D1*
X77050Y61000D1*
X77171Y61112D1*
X77305Y61208D1*
X77452Y61284D1*
X77607Y61340D1*
X77768Y61374D1*
X77932Y61387D1*
X78097Y61378D1*
X78259Y61346D1*
X78415Y61294D1*
X78563Y61221D1*
X78699Y61128D1*
X78822Y61019D1*
X78930Y60893D1*
X79019Y60755D1*
X79089Y60606D1*
X79139Y60448D1*
X79167Y60286D1*
X79173Y60159D1*
X79162Y59994D1*
X76622D2*
X76589Y59833D1*
X76535Y59677D1*
X76460Y59530D1*
X76366Y59395D1*
X76255Y59273D1*
X76129Y59167D1*
X75990Y59079D1*
X75840Y59010D1*
X75682Y58962D1*
X75519Y58936D1*
X75354Y58932D1*
X75190Y58950D1*
X75030Y58989D1*
X74877Y59050D1*
X74733Y59131D1*
X74602Y59230D1*
X74484Y59346D1*
X74384Y59477D1*
X74302Y59620D1*
X74239Y59772D1*
X74198Y59932D1*
X74178Y60096D1*
X74181Y60260D1*
X74206Y60423D1*
X74252Y60582D1*
X74319Y60732D1*
X74405Y60873D1*
X74510Y61000D1*
X74631Y61112D1*
X74765Y61208D1*
X74912Y61284D1*
X75067Y61340D1*
X75228Y61374D1*
X75392Y61387D1*
X75557Y61378D1*
X75719Y61346D1*
X75875Y61294D1*
X76023Y61221D1*
X76159Y61128D1*
X76282Y61019D1*
X76390Y60893D1*
X76479Y60755D1*
X76549Y60606D1*
X76599Y60448D1*
X76627Y60286D1*
X76633Y60159D1*
X76622Y59994D1*
X74082D2*
X74049Y59833D1*
X73995Y59677D1*
X73920Y59530D1*
X73826Y59395D1*
X73715Y59273D1*
X73589Y59167D1*
X73450Y59079D1*
X73300Y59010D1*
X73142Y58962D1*
X72979Y58936D1*
X72814Y58932D1*
X72650Y58950D1*
X72490Y58989D1*
X72337Y59050D1*
X72193Y59131D1*
X72062Y59230D1*
X71944Y59346D1*
X71844Y59477D1*
X71762Y59620D1*
X71699Y59772D1*
X71658Y59932D1*
X71638Y60096D1*
X71641Y60260D1*
X71666Y60423D1*
X71712Y60582D1*
X71779Y60732D1*
X71865Y60873D1*
X71970Y61000D1*
X72091Y61112D1*
X72225Y61208D1*
X72372Y61284D1*
X72527Y61340D1*
X72688Y61374D1*
X72852Y61387D1*
X73017Y61378D1*
X73179Y61346D1*
X73335Y61294D1*
X73483Y61221D1*
X73619Y61128D1*
X73742Y61019D1*
X73850Y60893D1*
X73939Y60755D1*
X74009Y60606D1*
X74059Y60448D1*
X74087Y60286D1*
X74093Y60159D1*
X74082Y59994D1*
X71542D2*
X71509Y59833D1*
X71455Y59677D1*
X71380Y59530D1*
X71286Y59395D1*
X71175Y59273D1*
X71049Y59167D1*
X70910Y59079D1*
X70760Y59010D1*
X70602Y58962D1*
X70439Y58936D1*
X70274Y58932D1*
X70110Y58950D1*
X69950Y58989D1*
X69797Y59050D1*
X69653Y59131D1*
X69522Y59230D1*
X69404Y59346D1*
X69304Y59477D1*
X69222Y59620D1*
X69159Y59772D1*
X69118Y59932D1*
X69098Y60096D1*
X69101Y60260D1*
X69126Y60423D1*
X69172Y60582D1*
X69239Y60732D1*
X69325Y60873D1*
X69430Y61000D1*
X69551Y61112D1*
X69685Y61208D1*
X69832Y61284D1*
X69987Y61340D1*
X70148Y61374D1*
X70312Y61387D1*
X70477Y61378D1*
X70639Y61346D1*
X70795Y61294D1*
X70943Y61221D1*
X71079Y61128D1*
X71202Y61019D1*
X71310Y60893D1*
X71399Y60755D1*
X71469Y60606D1*
X71519Y60448D1*
X71547Y60286D1*
X71553Y60159D1*
X71542Y59994D1*
X69002D2*
X68969Y59833D1*
X68915Y59677D1*
X68840Y59530D1*
X68746Y59395D1*
X68635Y59273D1*
X68509Y59167D1*
X68370Y59079D1*
X68220Y59010D1*
X68062Y58962D1*
X67899Y58936D1*
X67734Y58932D1*
X67570Y58950D1*
X67410Y58989D1*
X67257Y59050D1*
X67113Y59131D1*
X66982Y59230D1*
X66864Y59346D1*
X66764Y59477D1*
X66682Y59620D1*
X66619Y59772D1*
X66578Y59932D1*
X66558Y60096D1*
X66561Y60260D1*
X66586Y60423D1*
X66632Y60582D1*
X66699Y60732D1*
X66785Y60873D1*
X66890Y61000D1*
X67011Y61112D1*
X67145Y61208D1*
X67292Y61284D1*
X67447Y61340D1*
X67608Y61374D1*
X67772Y61387D1*
X67937Y61378D1*
X68099Y61346D1*
X68255Y61294D1*
X68403Y61221D1*
X68539Y61128D1*
X68662Y61019D1*
X68770Y60893D1*
X68859Y60755D1*
X68929Y60606D1*
X68979Y60448D1*
X69007Y60286D1*
X69013Y60159D1*
X69002Y59994D1*
X66462D2*
X66429Y59833D1*
X66375Y59677D1*
X66300Y59530D1*
X66206Y59395D1*
X66095Y59273D1*
X65969Y59167D1*
X65830Y59079D1*
X65680Y59010D1*
X65522Y58962D1*
X65359Y58936D1*
X65194Y58932D1*
X65030Y58950D1*
X64870Y58989D1*
X64717Y59050D1*
X64573Y59131D1*
X64442Y59230D1*
X64324Y59346D1*
X64224Y59477D1*
X64142Y59620D1*
X64079Y59772D1*
X64038Y59932D1*
X64018Y60096D1*
X64021Y60260D1*
X64046Y60423D1*
X64092Y60582D1*
X64159Y60732D1*
X64245Y60873D1*
X64350Y61000D1*
X64471Y61112D1*
X64605Y61208D1*
X64752Y61284D1*
X64907Y61340D1*
X65068Y61374D1*
X65232Y61387D1*
X65397Y61378D1*
X65559Y61346D1*
X65715Y61294D1*
X65863Y61221D1*
X65999Y61128D1*
X66122Y61019D1*
X66230Y60893D1*
X66319Y60755D1*
X66389Y60606D1*
X66439Y60448D1*
X66467Y60286D1*
X66473Y60159D1*
X66462Y59994D1*
X63922D2*
X63889Y59833D1*
X63835Y59677D1*
X63760Y59530D1*
X63666Y59395D1*
X63555Y59273D1*
X63429Y59167D1*
X63290Y59079D1*
X63140Y59010D1*
X62982Y58962D1*
X62819Y58936D1*
X62654Y58932D1*
X62490Y58950D1*
X62330Y58989D1*
X62177Y59050D1*
X62033Y59131D1*
X61902Y59230D1*
X61784Y59346D1*
X61684Y59477D1*
X61602Y59620D1*
X61539Y59772D1*
X61498Y59932D1*
X61478Y60096D1*
X61481Y60260D1*
X61506Y60423D1*
X61552Y60582D1*
X61619Y60732D1*
X61705Y60873D1*
X61810Y61000D1*
X61931Y61112D1*
X62065Y61208D1*
X62212Y61284D1*
X62367Y61340D1*
X62528Y61374D1*
X62692Y61387D1*
X62857Y61378D1*
X63019Y61346D1*
X63175Y61294D1*
X63323Y61221D1*
X63459Y61128D1*
X63582Y61019D1*
X63690Y60893D1*
X63779Y60755D1*
X63849Y60606D1*
X63899Y60448D1*
X63927Y60286D1*
X63933Y60159D1*
X63922Y59994D1*
X61382D2*
X61349Y59833D1*
X61295Y59677D1*
X61220Y59530D1*
X61126Y59395D1*
X61015Y59273D1*
X60889Y59167D1*
X60750Y59079D1*
X60600Y59010D1*
X60442Y58962D1*
X60279Y58936D1*
X60114Y58932D1*
X59950Y58950D1*
X59790Y58989D1*
X59637Y59050D1*
X59493Y59131D1*
X59362Y59230D1*
X59244Y59346D1*
X59144Y59477D1*
X59062Y59620D1*
X58999Y59772D1*
X58958Y59932D1*
X58938Y60096D1*
X58941Y60260D1*
X58966Y60423D1*
X59012Y60582D1*
X59079Y60732D1*
X59165Y60873D1*
X59270Y61000D1*
X59391Y61112D1*
X59525Y61208D1*
X59672Y61284D1*
X59827Y61340D1*
X59988Y61374D1*
X60152Y61387D1*
X60317Y61378D1*
X60479Y61346D1*
X60635Y61294D1*
X60783Y61221D1*
X60919Y61128D1*
X61042Y61019D1*
X61150Y60893D1*
X61239Y60755D1*
X61309Y60606D1*
X61359Y60448D1*
X61387Y60286D1*
X61393Y60159D1*
X61382Y59994D1*
X58842D2*
X58809Y59833D1*
X58755Y59677D1*
X58680Y59530D1*
X58586Y59395D1*
X58475Y59273D1*
X58349Y59167D1*
X58210Y59079D1*
X58060Y59010D1*
X57902Y58962D1*
X57739Y58936D1*
X57574Y58932D1*
X57410Y58950D1*
X57250Y58989D1*
X57097Y59050D1*
X56953Y59131D1*
X56822Y59230D1*
X56704Y59346D1*
X56604Y59477D1*
X56522Y59620D1*
X56459Y59772D1*
X56418Y59932D1*
X56398Y60096D1*
X56401Y60260D1*
X56426Y60423D1*
X56472Y60582D1*
X56539Y60732D1*
X56625Y60873D1*
X56730Y61000D1*
X56851Y61112D1*
X56985Y61208D1*
X57132Y61284D1*
X57287Y61340D1*
X57448Y61374D1*
X57612Y61387D1*
X57777Y61378D1*
X57939Y61346D1*
X58095Y61294D1*
X58243Y61221D1*
X58379Y61128D1*
X58502Y61019D1*
X58610Y60893D1*
X58699Y60755D1*
X58769Y60606D1*
X58819Y60448D1*
X58847Y60286D1*
X58853Y60159D1*
X58842Y59994D1*
X56302D2*
X56269Y59833D1*
X56215Y59677D1*
X56140Y59530D1*
X56046Y59395D1*
X55935Y59273D1*
X55809Y59167D1*
X55670Y59079D1*
X55520Y59010D1*
X55362Y58962D1*
X55199Y58936D1*
X55034Y58932D1*
X54870Y58950D1*
X54710Y58989D1*
X54557Y59050D1*
X54413Y59131D1*
X54282Y59230D1*
X54164Y59346D1*
X54064Y59477D1*
X53982Y59620D1*
X53919Y59772D1*
X53878Y59932D1*
X53858Y60096D1*
X53861Y60260D1*
X53886Y60423D1*
X53932Y60582D1*
X53999Y60732D1*
X54085Y60873D1*
X54190Y61000D1*
X54311Y61112D1*
X54445Y61208D1*
X54592Y61284D1*
X54747Y61340D1*
X54908Y61374D1*
X55072Y61387D1*
X55237Y61378D1*
X55399Y61346D1*
X55555Y61294D1*
X55703Y61221D1*
X55839Y61128D1*
X55962Y61019D1*
X56070Y60893D1*
X56159Y60755D1*
X56229Y60606D1*
X56279Y60448D1*
X56307Y60286D1*
X56313Y60159D1*
X56302Y59994D1*
X35982D2*
X35949Y59833D1*
X35895Y59677D1*
X35820Y59530D1*
X35726Y59395D1*
X35615Y59273D1*
X35489Y59167D1*
X35350Y59079D1*
X35200Y59010D1*
X35042Y58962D1*
X34879Y58936D1*
X34714Y58932D1*
X34550Y58950D1*
X34390Y58989D1*
X34237Y59050D1*
X34093Y59131D1*
X33962Y59230D1*
X33844Y59346D1*
X33744Y59477D1*
X33662Y59620D1*
X33599Y59772D1*
X33558Y59932D1*
X33538Y60096D1*
X33541Y60260D1*
X33566Y60423D1*
X33612Y60582D1*
X33679Y60732D1*
X33765Y60873D1*
X33870Y61000D1*
X33991Y61112D1*
X34125Y61208D1*
X34272Y61284D1*
X34427Y61340D1*
X34588Y61374D1*
X34752Y61387D1*
X34917Y61378D1*
X35079Y61346D1*
X35235Y61294D1*
X35383Y61221D1*
X35519Y61128D1*
X35642Y61019D1*
X35750Y60893D1*
X35839Y60755D1*
X35909Y60606D1*
X35959Y60448D1*
X35987Y60286D1*
X35993Y60159D1*
X35982Y59994D1*
X33442D2*
X33409Y59833D1*
X33355Y59677D1*
X33280Y59530D1*
X33186Y59395D1*
X33075Y59273D1*
X32949Y59167D1*
X32810Y59079D1*
X32660Y59010D1*
X32502Y58962D1*
X32339Y58936D1*
X32174Y58932D1*
X32010Y58950D1*
X31850Y58989D1*
X31697Y59050D1*
X31553Y59131D1*
X31422Y59230D1*
X31304Y59346D1*
X31204Y59477D1*
X31122Y59620D1*
X31059Y59772D1*
X31018Y59932D1*
X30998Y60096D1*
X31001Y60260D1*
X31026Y60423D1*
X31072Y60582D1*
X31139Y60732D1*
X31225Y60873D1*
X31330Y61000D1*
X31451Y61112D1*
X31585Y61208D1*
X31732Y61284D1*
X31887Y61340D1*
X32048Y61374D1*
X32212Y61387D1*
X32377Y61378D1*
X32539Y61346D1*
X32695Y61294D1*
X32843Y61221D1*
X32979Y61128D1*
X33102Y61019D1*
X33210Y60893D1*
X33299Y60755D1*
X33369Y60606D1*
X33419Y60448D1*
X33447Y60286D1*
X33453Y60159D1*
X33442Y59994D1*
X30913Y60126D2*
X30892Y59929D1*
X30839Y59739D1*
X30757Y59559D1*
X30646Y59395D1*
X30511Y59250D1*
X30355Y59129D1*
X30181Y59035D1*
X29994Y58970D1*
X29799Y58936D1*
X29601Y58934D1*
X29406Y58963D1*
X29217Y59023D1*
X29041Y59113D1*
X28882Y59230D1*
X28743Y59371D1*
X28629Y59532D1*
X28542Y59710D1*
X28485Y59899D1*
X28458Y60096D1*
X28464Y60293D1*
X28502Y60487D1*
X28570Y60673D1*
X28667Y60846D1*
X28790Y61000D1*
X28937Y61133D1*
X29103Y61240D1*
X29284Y61320D1*
X29475Y61369D1*
X29672Y61387D1*
X29870Y61373D1*
X30062Y61328D1*
X30245Y61252D1*
X30413Y61148D1*
X30562Y61019D1*
X30689Y60867D1*
X30789Y60696D1*
X30861Y60512D1*
X30903Y60319D1*
X30913Y60126D1*
X92704Y58089D2*
X92652Y57764D1*
X92548Y57451D1*
X92396Y57158D1*
X92200Y56894D1*
X91963Y56664D1*
X91694Y56474D1*
X91397Y56330D1*
X91081Y56235D1*
X90755Y56191D1*
X90425Y56200D1*
X90101Y56261D1*
X89791Y56373D1*
X89503Y56533D1*
X89244Y56736D1*
X89020Y56979D1*
X88838Y57253D1*
X88702Y57554D1*
X88615Y57872D1*
X88580Y58199D1*
X88598Y58529D1*
X88667Y58851D1*
X88787Y59158D1*
X88955Y59442D1*
X89165Y59695D1*
X89414Y59912D1*
X89693Y60087D1*
X89997Y60215D1*
X90317Y60293D1*
X90646Y60320D1*
X90974Y60293D1*
X91294Y60215D1*
X91598Y60087D1*
X91877Y59912D1*
X92125Y59695D1*
X92336Y59441D1*
X92503Y59157D1*
X92623Y58850D1*
X92693Y58527D1*
X92711Y58254D1*
X92704Y58089D1*
Y16179D2*
X92652Y15854D1*
X92548Y15541D1*
X92396Y15248D1*
X92200Y14984D1*
X91963Y14754D1*
X91694Y14564D1*
X91397Y14420D1*
X91081Y14325D1*
X90755Y14281D1*
X90425Y14290D1*
X90101Y14351D1*
X89791Y14463D1*
X89503Y14623D1*
X89244Y14826D1*
X89020Y15069D1*
X88838Y15343D1*
X88702Y15644D1*
X88615Y15962D1*
X88580Y16289D1*
X88598Y16619D1*
X88667Y16941D1*
X88787Y17248D1*
X88955Y17532D1*
X89165Y17785D1*
X89414Y18002D1*
X89693Y18177D1*
X89997Y18305D1*
X90317Y18383D1*
X90646Y18410D1*
X90974Y18383D1*
X91294Y18305D1*
X91598Y18177D1*
X91877Y18002D1*
X92125Y17785D1*
X92336Y17531D1*
X92503Y17247D1*
X92623Y16940D1*
X92693Y16617D1*
X92711Y16344D1*
X92704Y16179D1*
X26664Y61264D2*
X26612Y60939D1*
X26508Y60626D1*
X26356Y60333D1*
X26160Y60069D1*
X25923Y59839D1*
X25654Y59649D1*
X25357Y59505D1*
X25041Y59410D1*
X24715Y59366D1*
X24385Y59375D1*
X24061Y59436D1*
X23751Y59548D1*
X23463Y59708D1*
X23204Y59911D1*
X22980Y60154D1*
X22798Y60428D1*
X22662Y60729D1*
X22575Y61047D1*
X22540Y61374D1*
X22558Y61704D1*
X22627Y62026D1*
X22747Y62333D1*
X22915Y62617D1*
X23125Y62870D1*
X23374Y63087D1*
X23653Y63262D1*
X23957Y63390D1*
X24277Y63468D1*
X24606Y63495D1*
X24934Y63468D1*
X25254Y63390D1*
X25558Y63262D1*
X25837Y63087D1*
X26085Y62870D1*
X26296Y62616D1*
X26463Y62332D1*
X26583Y62025D1*
X26653Y61702D1*
X26671Y61429D1*
X26664Y61264D1*
Y13004D2*
X26612Y12679D1*
X26508Y12366D1*
X26356Y12073D1*
X26160Y11809D1*
X25923Y11579D1*
X25654Y11389D1*
X25357Y11245D1*
X25041Y11150D1*
X24715Y11106D1*
X24385Y11115D1*
X24061Y11176D1*
X23751Y11288D1*
X23463Y11448D1*
X23204Y11651D1*
X22980Y11894D1*
X22798Y12168D1*
X22662Y12469D1*
X22575Y12787D1*
X22540Y13114D1*
X22558Y13444D1*
X22627Y13766D1*
X22747Y14073D1*
X22915Y14357D1*
X23125Y14610D1*
X23374Y14827D1*
X23653Y15002D1*
X23957Y15130D1*
X24277Y15208D1*
X24606Y15235D1*
X24934Y15208D1*
X25254Y15130D1*
X25558Y15002D1*
X25837Y14827D1*
X26085Y14610D1*
X26296Y14356D1*
X26463Y14072D1*
X26583Y13765D1*
X26653Y13442D1*
X26671Y13169D1*
X26664Y13004D1*
X40608Y26504D2*
X40725Y26488D1*
X40885Y26446D1*
X41037Y26384D1*
X41181Y26303D1*
X41312Y26204D1*
X41430Y26089D1*
X41533Y25959D1*
X41617Y25818D1*
X41683Y25666D1*
X41728Y25508D1*
X41749Y25370D1*
X41771Y25506D1*
X41817Y25665D1*
X41882Y25816D1*
X41966Y25958D1*
X42068Y26087D1*
X42186Y26203D1*
X42318Y26302D1*
X42461Y26384D1*
X42614Y26446D1*
X42773Y26488D1*
X42891Y26503D1*
X42721Y26531D1*
X42563Y26580D1*
X42413Y26649D1*
X42273Y26736D1*
X42146Y26841D1*
X42033Y26961D1*
X41937Y27095D1*
X41859Y27240D1*
X41800Y27394D1*
X41751Y27642D1*
X41716Y27448D1*
X41664Y27291D1*
X41592Y27143D1*
X41501Y27005D1*
X41394Y26880D1*
X41271Y26770D1*
X41135Y26676D1*
X40988Y26601D1*
X40833Y26546D1*
X40616Y26505D1*
X40608Y29044D2*
X40725Y29028D1*
X40885Y28986D1*
X41037Y28924D1*
X41181Y28843D1*
X41312Y28744D1*
X41430Y28629D1*
X41533Y28499D1*
X41617Y28358D1*
X41683Y28206D1*
X41728Y28048D1*
X41749Y27910D1*
X41771Y28046D1*
X41817Y28205D1*
X41882Y28356D1*
X41966Y28498D1*
X42068Y28627D1*
X42186Y28743D1*
X42318Y28842D1*
X42461Y28924D1*
X42614Y28986D1*
X42773Y29028D1*
X42891Y29043D1*
X42721Y29071D1*
X42563Y29120D1*
X42413Y29189D1*
X42273Y29276D1*
X42146Y29381D1*
X42033Y29501D1*
X41937Y29635D1*
X41859Y29780D1*
X41800Y29934D1*
X41751Y30182D1*
X41716Y29988D1*
X41664Y29831D1*
X41592Y29683D1*
X41501Y29545D1*
X41394Y29420D1*
X41271Y29310D1*
X41135Y29216D1*
X40988Y29141D1*
X40833Y29086D1*
X40616Y29045D1*
X40608Y31584D2*
X40725Y31568D1*
X40885Y31526D1*
X41037Y31464D1*
X41181Y31383D1*
X41312Y31284D1*
X41430Y31169D1*
X41533Y31039D1*
X41617Y30898D1*
X41683Y30746D1*
X41728Y30588D1*
X41749Y30450D1*
X41771Y30586D1*
X41817Y30745D1*
X41882Y30896D1*
X41966Y31038D1*
X42068Y31167D1*
X42186Y31283D1*
X42318Y31382D1*
X42461Y31464D1*
X42614Y31526D1*
X42773Y31568D1*
X42891Y31583D1*
X42721Y31611D1*
X42563Y31660D1*
X42413Y31729D1*
X42273Y31816D1*
X42146Y31921D1*
X42033Y32041D1*
X41937Y32175D1*
X41859Y32320D1*
X41800Y32474D1*
X41751Y32722D1*
X41716Y32528D1*
X41664Y32371D1*
X41592Y32223D1*
X41501Y32085D1*
X41394Y31960D1*
X41271Y31850D1*
X41135Y31756D1*
X40988Y31681D1*
X40833Y31626D1*
X40616Y31585D1*
X40608Y34124D2*
X40725Y34108D1*
X40885Y34066D1*
X41037Y34004D1*
X41181Y33923D1*
X41312Y33824D1*
X41430Y33709D1*
X41533Y33579D1*
X41617Y33438D1*
X41683Y33286D1*
X41728Y33128D1*
X41749Y32990D1*
X41771Y33126D1*
X41817Y33285D1*
X41882Y33436D1*
X41966Y33578D1*
X42068Y33707D1*
X42186Y33823D1*
X42318Y33922D1*
X42461Y34004D1*
X42614Y34066D1*
X42773Y34108D1*
X42891Y34123D1*
X42721Y34151D1*
X42563Y34200D1*
X42413Y34269D1*
X42273Y34356D1*
X42146Y34461D1*
X42033Y34581D1*
X41937Y34715D1*
X41859Y34860D1*
X41800Y35014D1*
X41751Y35262D1*
X41716Y35068D1*
X41664Y34911D1*
X41592Y34763D1*
X41501Y34625D1*
X41394Y34500D1*
X41271Y34390D1*
X41135Y34296D1*
X40988Y34221D1*
X40833Y34166D1*
X40616Y34125D1*
X39251Y35049D2*
X39221Y35175D1*
X39203Y35338D1*
X39206Y35503D1*
X39231Y35666D1*
X39291Y35858D1*
X37296Y33862D1*
X37298Y33098D1*
X39249Y35051D1*
X40608Y36664D2*
X40725Y36648D1*
X40885Y36606D1*
X41037Y36544D1*
X41181Y36463D1*
X41312Y36364D1*
X41430Y36249D1*
X41533Y36119D1*
X41617Y35978D1*
X41683Y35826D1*
X41728Y35668D1*
X41749Y35530D1*
X41771Y35666D1*
X41817Y35825D1*
X41882Y35976D1*
X41966Y36118D1*
X42068Y36247D1*
X42186Y36363D1*
X42318Y36462D1*
X42461Y36544D1*
X42614Y36606D1*
X42773Y36648D1*
X42891Y36663D1*
X42721Y36691D1*
X42563Y36740D1*
X42413Y36809D1*
X42273Y36896D1*
X42146Y37001D1*
X42033Y37121D1*
X41937Y37255D1*
X41859Y37400D1*
X41800Y37554D1*
X41751Y37802D1*
X41716Y37608D1*
X41664Y37451D1*
X41592Y37303D1*
X41501Y37165D1*
X41394Y37040D1*
X41271Y36930D1*
X41135Y36836D1*
X40988Y36761D1*
X40833Y36706D1*
X40616Y36665D1*
X39251Y37589D2*
X39221Y37715D1*
X39203Y37878D1*
X39206Y38043D1*
X39231Y38206D1*
X39291Y38398D1*
X36662Y35768D1*
X36663Y35003D1*
X39248Y37591D1*
X40608Y39204D2*
X40725Y39188D1*
X40885Y39146D1*
X41037Y39084D1*
X41181Y39003D1*
X41312Y38904D1*
X41430Y38789D1*
X41533Y38659D1*
X41617Y38518D1*
X41683Y38366D1*
X41728Y38208D1*
X41749Y38070D1*
X41771Y38206D1*
X41817Y38365D1*
X41882Y38516D1*
X41966Y38658D1*
X42068Y38787D1*
X42186Y38903D1*
X42318Y39002D1*
X42461Y39084D1*
X42614Y39146D1*
X42773Y39188D1*
X42891Y39203D1*
X42721Y39231D1*
X42563Y39280D1*
X42413Y39349D1*
X42273Y39436D1*
X42146Y39541D1*
X42033Y39661D1*
X41937Y39795D1*
X41859Y39940D1*
X41800Y40094D1*
X41751Y40342D1*
X41716Y40148D1*
X41664Y39991D1*
X41592Y39843D1*
X41501Y39705D1*
X41394Y39580D1*
X41271Y39470D1*
X41135Y39376D1*
X40988Y39301D1*
X40833Y39246D1*
X40616Y39205D1*
X39251Y40129D2*
X39221Y40255D1*
X39203Y40418D1*
X39206Y40583D1*
X39231Y40746D1*
X39291Y40938D1*
X36028Y37673D1*
Y36908D1*
X39248Y40130D1*
X40608Y41744D2*
X40725Y41728D1*
X40885Y41686D1*
X41037Y41624D1*
X41181Y41543D1*
X41312Y41444D1*
X41430Y41329D1*
X41533Y41199D1*
X41617Y41058D1*
X41683Y40906D1*
X41728Y40748D1*
X41749Y40610D1*
X41771Y40746D1*
X41817Y40905D1*
X41882Y41056D1*
X41966Y41198D1*
X42068Y41327D1*
X42186Y41443D1*
X42318Y41542D1*
X42461Y41624D1*
X42614Y41686D1*
X42773Y41728D1*
X42891Y41743D1*
X42721Y41771D1*
X42563Y41820D1*
X42413Y41889D1*
X42273Y41976D1*
X42146Y42081D1*
X42033Y42201D1*
X41937Y42335D1*
X41859Y42480D1*
X41800Y42634D1*
X41751Y42882D1*
X41716Y42688D1*
X41664Y42531D1*
X41592Y42383D1*
X41501Y42245D1*
X41394Y42120D1*
X41271Y42010D1*
X41135Y41916D1*
X40988Y41841D1*
X40833Y41786D1*
X40616Y41745D1*
X39251Y42669D2*
X39221Y42795D1*
X39203Y42958D1*
X39206Y43123D1*
X39231Y43286D1*
X39291Y43478D1*
X35393Y39579D1*
Y38813D1*
X39247Y42670D1*
X40608Y44284D2*
X40725Y44268D1*
X40885Y44226D1*
X41037Y44164D1*
X41181Y44083D1*
X41312Y43984D1*
X41430Y43869D1*
X41533Y43739D1*
X41617Y43598D1*
X41683Y43446D1*
X41728Y43288D1*
X41749Y43150D1*
X41771Y43286D1*
X41817Y43445D1*
X41882Y43596D1*
X41966Y43738D1*
X42068Y43867D1*
X42186Y43983D1*
X42318Y44082D1*
X42461Y44164D1*
X42614Y44226D1*
X42773Y44268D1*
X42891Y44283D1*
X42721Y44311D1*
X42532Y44372D1*
X42356Y44462D1*
X42195Y44577D1*
X42055Y44716D1*
X41937Y44875D1*
X41845Y45050D1*
X41782Y45238D1*
X41750Y45411D1*
X41716Y45228D1*
X41664Y45071D1*
X41592Y44923D1*
X41501Y44785D1*
X41394Y44660D1*
X41271Y44550D1*
X41135Y44456D1*
X40988Y44381D1*
X40833Y44326D1*
X40616Y44285D1*
X39251Y45209D2*
X39221Y45335D1*
X39203Y45498D1*
X39206Y45663D1*
X39241Y45861D1*
X34513Y41132D1*
X34516Y40473D1*
X35254Y41217D1*
X39247Y45209D1*
X39229Y47839D2*
X39203Y48038D1*
X39206Y48203D1*
X39231Y48366D1*
X39277Y48525D1*
X39342Y48676D1*
X39426Y48818D1*
X39528Y48947D1*
X39646Y49063D1*
X39778Y49162D1*
X39921Y49244D1*
X40074Y49306D1*
X40233Y49348D1*
X40397Y49369D1*
X40562Y49370D1*
X40725Y49348D1*
X40885Y49306D1*
X41037Y49244D1*
X41181Y49163D1*
X41312Y49064D1*
X41430Y48949D1*
X41533Y48819D1*
X41617Y48678D1*
X41683Y48526D1*
X41728Y48368D1*
X41749Y48230D1*
X41771Y48366D1*
X41817Y48525D1*
X41882Y48676D1*
X41966Y48818D1*
X42068Y48947D1*
X42186Y49063D1*
X42314Y49159D1*
X42317Y49388D1*
X41775Y49932D1*
X39505Y49931D1*
X37140Y47570D1*
X33564Y43993D1*
X33563Y42175D1*
X38332Y46941D1*
X39225Y47834D1*
X86328Y26504D2*
X86445Y26488D1*
X86605Y26446D1*
X86757Y26384D1*
X86901Y26303D1*
X87032Y26204D1*
X87150Y26089D1*
X87253Y25959D1*
X87337Y25818D1*
X87403Y25666D1*
X87448Y25508D1*
X87477Y25258D1*
Y27726D1*
X87436Y27448D1*
X87384Y27291D1*
X87312Y27143D1*
X87221Y27005D1*
X87114Y26880D1*
X86991Y26770D1*
X86855Y26676D1*
X86708Y26601D1*
X86553Y26546D1*
X86336Y26505D1*
X86328Y29044D2*
X86445Y29028D1*
X86605Y28986D1*
X86757Y28924D1*
X86901Y28843D1*
X87032Y28744D1*
X87150Y28629D1*
X87253Y28499D1*
X87337Y28358D1*
X87403Y28206D1*
X87448Y28048D1*
X87477Y27798D1*
Y30686D1*
X87395Y30771D1*
X87448Y30588D1*
X87477Y30338D1*
X87468Y30149D1*
X87436Y29988D1*
X87384Y29831D1*
X87312Y29683D1*
X87221Y29545D1*
X87114Y29420D1*
X86991Y29310D1*
X86855Y29216D1*
X86708Y29141D1*
X86553Y29086D1*
X86336Y29045D1*
X84930Y38069D2*
X84951Y38206D1*
X84997Y38365D1*
X85062Y38516D1*
X85146Y38658D1*
X85248Y38787D1*
X85366Y38903D1*
X85498Y39002D1*
X85641Y39084D1*
X85794Y39146D1*
X85953Y39188D1*
X86071Y39203D1*
X85901Y39231D1*
X85743Y39280D1*
X85593Y39349D1*
X85453Y39436D1*
X85326Y39541D1*
X85213Y39661D1*
X85117Y39795D1*
X85039Y39940D1*
X84980Y40094D1*
X84931Y40342D1*
X84896Y40148D1*
X84844Y39991D1*
X84772Y39843D1*
X84681Y39705D1*
X84574Y39580D1*
X84451Y39470D1*
X84315Y39376D1*
X84168Y39301D1*
X84013Y39246D1*
X83796Y39205D1*
X84065Y39146D1*
X84217Y39084D1*
X84361Y39003D1*
X84492Y38904D1*
X84610Y38789D1*
X84713Y38659D1*
X84797Y38518D1*
X84863Y38366D1*
X84908Y38208D1*
X84929Y38070D1*
X84930Y40609D2*
X84951Y40746D1*
X84997Y40905D1*
X85062Y41056D1*
X85146Y41198D1*
X85248Y41327D1*
X85366Y41443D1*
X85498Y41542D1*
X85641Y41624D1*
X85794Y41686D1*
X85953Y41728D1*
X86071Y41743D1*
X85901Y41771D1*
X85743Y41820D1*
X85593Y41889D1*
X85453Y41976D1*
X85326Y42081D1*
X85213Y42201D1*
X85117Y42335D1*
X85039Y42480D1*
X84980Y42634D1*
X84931Y42882D1*
X84896Y42688D1*
X84844Y42531D1*
X84772Y42383D1*
X84681Y42245D1*
X84574Y42120D1*
X84451Y42010D1*
X84315Y41916D1*
X84168Y41841D1*
X84013Y41786D1*
X83796Y41745D1*
X84065Y41686D1*
X84217Y41624D1*
X84361Y41543D1*
X84492Y41444D1*
X84610Y41329D1*
X84713Y41199D1*
X84797Y41058D1*
X84863Y40906D1*
X84908Y40748D1*
X84929Y40610D1*
X84930Y43149D2*
X84951Y43286D1*
X84997Y43445D1*
X85062Y43596D1*
X85146Y43738D1*
X85248Y43867D1*
X85366Y43983D1*
X85498Y44082D1*
X85641Y44164D1*
X85794Y44226D1*
X85953Y44268D1*
X86071Y44283D1*
X85901Y44311D1*
X85743Y44360D1*
X85593Y44429D1*
X85453Y44516D1*
X85326Y44621D1*
X85213Y44741D1*
X85117Y44875D1*
X85039Y45020D1*
X84980Y45174D1*
X84931Y45422D1*
X84896Y45228D1*
X84844Y45071D1*
X84772Y44923D1*
X84681Y44785D1*
X84574Y44660D1*
X84451Y44550D1*
X84315Y44456D1*
X84168Y44381D1*
X84013Y44326D1*
X83796Y44285D1*
X84065Y44226D1*
X84217Y44164D1*
X84361Y44083D1*
X84492Y43984D1*
X84610Y43869D1*
X84713Y43739D1*
X84797Y43598D1*
X84863Y43446D1*
X84908Y43288D1*
X84929Y43150D1*
X84930Y45689D2*
X84951Y45826D1*
X84997Y45985D1*
X85062Y46136D1*
X85146Y46278D1*
X85248Y46407D1*
X85366Y46523D1*
X85498Y46622D1*
X85641Y46704D1*
X85794Y46766D1*
X85953Y46808D1*
X86071Y46823D1*
X85901Y46851D1*
X85712Y46912D1*
X85536Y47002D1*
X85375Y47117D1*
X85235Y47256D1*
X85117Y47415D1*
X85025Y47590D1*
X84962Y47778D1*
X84930Y47951D1*
X84896Y47768D1*
X84844Y47611D1*
X84772Y47463D1*
X84681Y47325D1*
X84574Y47200D1*
X84451Y47090D1*
X84315Y46996D1*
X84168Y46921D1*
X84013Y46866D1*
X83796Y46825D1*
X84065Y46766D1*
X84217Y46704D1*
X84361Y46623D1*
X84492Y46524D1*
X84610Y46409D1*
X84713Y46279D1*
X84797Y46138D1*
X84863Y45986D1*
X84908Y45828D1*
X84929Y45690D1*
X43725Y49160D2*
X43852Y49064D1*
X43970Y48949D1*
X44073Y48819D1*
X44157Y48678D1*
X44223Y48526D1*
X44268Y48368D1*
X44298Y48094D1*
X44288Y47929D1*
X44256Y47768D1*
X44204Y47611D1*
X44123Y47450D1*
X44290Y47452D1*
X44453Y47431D1*
X44605Y47367D1*
X44734Y47268D1*
X51738Y40264D1*
X51734Y40432D1*
X53991Y40427D1*
X54129Y40432D1*
X55891D1*
Y38963D1*
X56290Y38565D1*
X56512Y38562D1*
X56673Y38787D1*
X56791Y38903D1*
X56923Y39002D1*
X57066Y39084D1*
X57219Y39146D1*
X57378Y39188D1*
X57542Y39209D1*
X57707Y39210D1*
X57870Y39188D1*
X58030Y39146D1*
X58182Y39084D1*
X58326Y39003D1*
X58457Y38904D1*
X58575Y38789D1*
X58678Y38659D1*
X58762Y38518D1*
X58828Y38366D1*
X58873Y38208D1*
X58894Y38070D1*
X58916Y38206D1*
X58962Y38365D1*
X59027Y38516D1*
X59111Y38658D1*
X59213Y38787D1*
X59331Y38903D1*
X59463Y39002D1*
X59606Y39084D1*
X59759Y39146D1*
X59918Y39188D1*
X60082Y39209D1*
X60247Y39210D1*
X60410Y39188D1*
X60570Y39146D1*
X60722Y39084D1*
X60866Y39003D1*
X60997Y38904D1*
X61115Y38789D1*
X61218Y38659D1*
X61302Y38518D1*
X61368Y38366D1*
X61413Y38208D1*
X61443Y37934D1*
X61433Y37769D1*
X61401Y37608D1*
X61349Y37451D1*
X61277Y37303D1*
X61186Y37165D1*
X61079Y37040D1*
X60956Y36930D1*
X60820Y36836D1*
X60673Y36761D1*
X60518Y36706D1*
X60301Y36665D1*
X60570Y36606D1*
X60722Y36544D1*
X60866Y36463D1*
X60997Y36364D1*
X61115Y36249D1*
X61218Y36119D1*
X61302Y35978D1*
X61368Y35826D1*
X61413Y35668D1*
X61443Y35394D1*
X61433Y35229D1*
X61401Y35068D1*
X61349Y34911D1*
X61277Y34763D1*
X61186Y34625D1*
X61079Y34500D1*
X60956Y34390D1*
X60820Y34296D1*
X60673Y34221D1*
X60518Y34166D1*
X60357Y34130D1*
X60193Y34116D1*
X60028Y34123D1*
X59866Y34151D1*
X59708Y34200D1*
X59558Y34269D1*
X59418Y34356D1*
X59291Y34461D1*
X59178Y34581D1*
X59082Y34715D1*
X59004Y34860D1*
X58945Y35014D1*
X58896Y35262D1*
X58861Y35068D1*
X58809Y34911D1*
X58737Y34763D1*
X58646Y34625D1*
X58539Y34500D1*
X58416Y34390D1*
X58280Y34296D1*
X58133Y34221D1*
X57978Y34166D1*
X57817Y34130D1*
X57653Y34116D1*
X57545Y34121D1*
X57574Y34026D1*
X57601Y33806D1*
X57586Y33642D1*
X57540Y33479D1*
X59998Y33482D1*
X75162D1*
X74961Y33680D1*
X74861Y33810D1*
X74798Y33962D1*
X74777Y34124D1*
Y47515D1*
X71019Y51274D1*
X63852Y51276D1*
X43337D1*
X43174Y51297D1*
X43022Y51361D1*
X42893Y51460D1*
X36861Y57492D1*
X36761Y57623D1*
X36698Y57775D1*
X36677Y57936D1*
X36674Y59108D1*
X36502Y59230D1*
X36384Y59346D1*
X36284Y59477D1*
X36202Y59620D1*
X36139Y59772D1*
X36098Y59932D1*
X36078Y60096D1*
X36081Y60260D1*
X36106Y60423D1*
X36152Y60582D1*
X36219Y60732D1*
X36305Y60873D1*
X36410Y61000D1*
X36531Y61112D1*
X36665Y61208D1*
X36812Y61284D1*
X36967Y61340D1*
X37128Y61374D1*
X37292Y61387D1*
X37457Y61378D1*
X37619Y61346D1*
X37775Y61294D1*
X37872Y61246D1*
X37607Y61510D1*
X37419Y61476D1*
X37254Y61472D1*
X37090Y61490D1*
X36930Y61529D1*
X36777Y61590D1*
X36633Y61671D1*
X36502Y61770D1*
X36384Y61886D1*
X36284Y62017D1*
X36202Y62160D1*
X36139Y62312D1*
X36098Y62472D1*
X36078Y62636D1*
X36081Y62800D1*
X36106Y62963D1*
X36152Y63122D1*
X36219Y63272D1*
X36305Y63413D1*
X36410Y63540D1*
X36531Y63652D1*
X36665Y63748D1*
X36812Y63824D1*
X36967Y63880D1*
X37128Y63914D1*
X37292Y63927D1*
X37457Y63918D1*
X37619Y63886D1*
X37775Y63834D1*
X37923Y63761D1*
X38059Y63668D1*
X38182Y63559D1*
X38290Y63433D1*
X38379Y63295D1*
X38449Y63146D1*
X38499Y62988D1*
X38527Y62826D1*
X38533Y62699D1*
X38522Y62534D1*
X38494Y62398D1*
X38742Y62160D1*
X38679Y62312D1*
X38638Y62472D1*
X38618Y62636D1*
X38621Y62800D1*
X38646Y62963D1*
X38692Y63122D1*
X38759Y63272D1*
X38845Y63413D1*
X38950Y63540D1*
X39071Y63652D1*
X39205Y63748D1*
X39352Y63824D1*
X39507Y63880D1*
X39668Y63914D1*
X39832Y63927D1*
X39997Y63918D1*
X40159Y63886D1*
X40315Y63834D1*
X40463Y63761D1*
X40599Y63668D1*
X40722Y63559D1*
X40830Y63433D1*
X40919Y63295D1*
X40989Y63146D1*
X41039Y62988D1*
X41067Y62826D1*
X41073Y62699D1*
X41062Y62534D1*
X41034Y62398D1*
X41282Y62160D1*
X41219Y62312D1*
X41178Y62472D1*
X41158Y62636D1*
X41161Y62800D1*
X41186Y62963D1*
X41232Y63122D1*
X41299Y63272D1*
X41385Y63413D1*
X41490Y63540D1*
X41611Y63652D1*
X41745Y63748D1*
X41892Y63824D1*
X42047Y63880D1*
X42208Y63914D1*
X42372Y63927D1*
X42537Y63918D1*
X42699Y63886D1*
X42855Y63834D1*
X43003Y63761D1*
X43139Y63668D1*
X43262Y63559D1*
X43370Y63433D1*
X43459Y63295D1*
X43529Y63146D1*
X43579Y62988D1*
X43607Y62826D1*
X43613Y62699D1*
X43602Y62534D1*
X43574Y62398D1*
X43822Y62160D1*
X43759Y62312D1*
X43718Y62472D1*
X43698Y62636D1*
X43701Y62800D1*
X43726Y62963D1*
X43772Y63122D1*
X43839Y63272D1*
X43925Y63413D1*
X44030Y63540D1*
X44151Y63652D1*
X44285Y63748D1*
X44432Y63824D1*
X44587Y63880D1*
X44748Y63914D1*
X44912Y63927D1*
X45077Y63918D1*
X45239Y63886D1*
X45395Y63834D1*
X45543Y63761D1*
X45679Y63668D1*
X45802Y63559D1*
X45910Y63433D1*
X45999Y63295D1*
X46069Y63146D1*
X46119Y62988D1*
X46147Y62826D1*
X46153Y62699D1*
X46142Y62534D1*
X46109Y62373D1*
X46055Y62217D1*
X45980Y62070D1*
X45886Y61935D1*
X45775Y61813D1*
X45649Y61707D1*
X45510Y61619D1*
X45360Y61550D1*
X45202Y61502D1*
X45039Y61476D1*
X44874Y61472D1*
X44710Y61490D1*
X44550Y61529D1*
X44397Y61590D1*
X44224Y61692D1*
X44262Y61591D1*
X44283Y61429D1*
X44285Y61208D1*
X44432Y61284D1*
X44587Y61340D1*
X44748Y61374D1*
X44912Y61387D1*
X45077Y61378D1*
X45239Y61346D1*
X45395Y61294D1*
X45543Y61221D1*
X45679Y61128D1*
X45802Y61019D1*
X45910Y60893D1*
X45999Y60755D1*
X46069Y60606D1*
X46119Y60448D1*
X46147Y60286D1*
X46153Y60159D1*
X46142Y59994D1*
X46109Y59833D1*
X46055Y59677D1*
X45980Y59530D1*
X45886Y59395D1*
X45775Y59273D1*
X45575Y59120D1*
X45836Y58867D1*
X48363Y56340D1*
X48806Y56342D1*
X47021Y58127D1*
X46921Y58258D1*
X46858Y58410D1*
X46837Y58572D1*
Y59103D1*
X46662Y59230D1*
X46544Y59346D1*
X46444Y59477D1*
X46362Y59620D1*
X46299Y59772D1*
X46258Y59932D1*
X46238Y60096D1*
X46241Y60260D1*
X46266Y60423D1*
X46312Y60582D1*
X46379Y60732D1*
X46465Y60873D1*
X46570Y61000D1*
X46691Y61112D1*
X46825Y61208D1*
X46972Y61284D1*
X47127Y61340D1*
X47288Y61374D1*
X47452Y61387D1*
X47617Y61378D1*
X47779Y61346D1*
X47935Y61294D1*
X48032Y61246D1*
X47769Y61506D1*
X47579Y61476D1*
X47414Y61472D1*
X47250Y61490D1*
X47090Y61529D1*
X46937Y61590D1*
X46793Y61671D1*
X46662Y61770D1*
X46544Y61886D1*
X46444Y62017D1*
X46362Y62160D1*
X46299Y62312D1*
X46258Y62472D1*
X46238Y62636D1*
X46241Y62800D1*
X46266Y62963D1*
X46312Y63122D1*
X46379Y63272D1*
X46465Y63413D1*
X46570Y63540D1*
X46691Y63652D1*
X46825Y63748D1*
X46972Y63824D1*
X47127Y63880D1*
X47288Y63914D1*
X47452Y63927D1*
X47617Y63918D1*
X47779Y63886D1*
X47935Y63834D1*
X48083Y63761D1*
X48219Y63668D1*
X48342Y63559D1*
X48450Y63433D1*
X48539Y63295D1*
X48609Y63146D1*
X48659Y62988D1*
X48687Y62826D1*
X48693Y62699D1*
X48682Y62534D1*
X48654Y62398D1*
X48902Y62160D1*
X48839Y62312D1*
X48798Y62472D1*
X48778Y62636D1*
X48781Y62800D1*
X48806Y62963D1*
X48852Y63122D1*
X48919Y63272D1*
X49005Y63413D1*
X49110Y63540D1*
X49231Y63652D1*
X49365Y63748D1*
X49512Y63824D1*
X49667Y63880D1*
X49828Y63914D1*
X49992Y63927D1*
X50157Y63918D1*
X50319Y63886D1*
X50475Y63834D1*
X50623Y63761D1*
X50759Y63668D1*
X50882Y63559D1*
X50990Y63433D1*
X51079Y63295D1*
X51149Y63146D1*
X51199Y62988D1*
X51227Y62826D1*
X51233Y62699D1*
X51222Y62534D1*
X51189Y62373D1*
X51135Y62217D1*
X51060Y62070D1*
X50966Y61935D1*
X50855Y61813D1*
X50729Y61707D1*
X50590Y61619D1*
X50440Y61550D1*
X50282Y61502D1*
X50119Y61476D1*
X49954Y61472D1*
X49790Y61490D1*
X49630Y61529D1*
X49477Y61590D1*
X49304Y61692D1*
X49342Y61591D1*
X49363Y61429D1*
X49365Y61208D1*
X49512Y61284D1*
X49667Y61340D1*
X49828Y61374D1*
X49992Y61387D1*
X50157Y61378D1*
X50319Y61346D1*
X50475Y61294D1*
X50623Y61221D1*
X50759Y61128D1*
X50882Y61019D1*
X50990Y60893D1*
X51079Y60755D1*
X51149Y60606D1*
X51199Y60448D1*
X51227Y60286D1*
X51233Y60159D1*
X51222Y59994D1*
X51189Y59833D1*
X51135Y59677D1*
X51060Y59530D1*
X50966Y59395D1*
X50855Y59273D1*
X50729Y59167D1*
X50590Y59079D1*
X50440Y59010D1*
X50282Y58962D1*
X50119Y58936D1*
X49954Y58932D1*
X49790Y58950D1*
X49630Y58989D1*
X49446Y59068D1*
X50904Y57609D1*
X52290Y57612D1*
X52935D1*
X52101Y58445D1*
X52001Y58575D1*
X51938Y58727D1*
X51917Y58889D1*
Y59100D1*
X51742Y59230D1*
X51624Y59346D1*
X51524Y59477D1*
X51442Y59620D1*
X51379Y59772D1*
X51338Y59932D1*
X51318Y60096D1*
X51321Y60260D1*
X51346Y60423D1*
X51392Y60582D1*
X51459Y60732D1*
X51545Y60873D1*
X51650Y61000D1*
X51771Y61112D1*
X51905Y61208D1*
X52052Y61284D1*
X52207Y61340D1*
X52368Y61374D1*
X52532Y61387D1*
X52697Y61378D1*
X52859Y61346D1*
X53015Y61294D1*
X53163Y61221D1*
X53299Y61128D1*
X53422Y61019D1*
X53530Y60893D1*
X53619Y60755D1*
X53689Y60606D1*
X53739Y60448D1*
X53767Y60286D1*
X53773Y60159D1*
X53762Y59994D1*
X53729Y59833D1*
X53675Y59677D1*
X53600Y59530D1*
X53506Y59395D1*
X53395Y59273D1*
X53195Y59120D1*
X53456Y58867D1*
X54072Y58250D1*
X56125Y58247D1*
X77945D1*
X78108Y58226D1*
X78260Y58162D1*
X78389Y58063D1*
X81564Y54888D1*
X81664Y54758D1*
X81727Y54606D1*
X81748Y54444D1*
Y50572D1*
X82731Y49594D1*
X83085Y49240D1*
X83254Y49306D1*
X83413Y49348D1*
X83577Y49369D1*
X83742Y49370D1*
X83905Y49348D1*
X84065Y49306D1*
X84217Y49244D1*
X84361Y49163D1*
X84492Y49064D1*
X84610Y48949D1*
X84713Y48819D1*
X84797Y48678D1*
X84863Y48526D1*
X84908Y48368D1*
X84929Y48230D1*
X84967Y48430D1*
X85034Y48617D1*
X85128Y48790D1*
X85248Y48947D1*
X85391Y49084D1*
X85554Y49197D1*
X85732Y49283D1*
X85921Y49341D1*
X86117Y49369D1*
X86314Y49367D1*
X86510Y49334D1*
X86697Y49272D1*
X86873Y49181D1*
X87032Y49064D1*
X87172Y48924D1*
X87289Y48764D1*
X87379Y48588D1*
X87441Y48400D1*
X87473Y48205D1*
X87474Y47995D1*
X87444Y47800D1*
X87384Y47611D1*
X87295Y47434D1*
X87180Y47273D1*
X87042Y47132D1*
X86883Y47014D1*
X86708Y46921D1*
X86521Y46857D1*
X86342Y46824D1*
X86605Y46766D1*
X86757Y46704D1*
X86901Y46623D1*
X87032Y46524D1*
X87150Y46409D1*
X87253Y46279D1*
X87337Y46138D1*
X87403Y45986D1*
X87448Y45828D1*
X87478Y45554D1*
X87468Y45389D1*
X87436Y45228D1*
X87384Y45071D1*
X87312Y44923D1*
X87221Y44785D1*
X87114Y44660D1*
X86991Y44550D1*
X86855Y44456D1*
X86708Y44381D1*
X86553Y44326D1*
X86336Y44285D1*
X86605Y44226D1*
X86757Y44164D1*
X86901Y44083D1*
X87032Y43984D1*
X87150Y43869D1*
X87253Y43739D1*
X87337Y43598D1*
X87403Y43446D1*
X87448Y43288D1*
X87478Y43014D1*
X87468Y42849D1*
X87436Y42688D1*
X87384Y42531D1*
X87312Y42383D1*
X87221Y42245D1*
X87114Y42120D1*
X86991Y42010D1*
X86855Y41916D1*
X86708Y41841D1*
X86553Y41786D1*
X86336Y41745D1*
X86605Y41686D1*
X86757Y41624D1*
X86901Y41543D1*
X87032Y41444D1*
X87150Y41329D1*
X87253Y41199D1*
X87337Y41058D1*
X87403Y40906D1*
X87448Y40748D1*
X87478Y40474D1*
X87468Y40309D1*
X87436Y40148D1*
X87384Y39991D1*
X87312Y39843D1*
X87221Y39705D1*
X87114Y39580D1*
X86991Y39470D1*
X86855Y39376D1*
X86708Y39301D1*
X86553Y39246D1*
X86336Y39205D1*
X86605Y39146D1*
X86757Y39084D1*
X86901Y39003D1*
X87032Y38904D1*
X87150Y38789D1*
X87253Y38659D1*
X87337Y38518D1*
X87403Y38366D1*
X87448Y38208D1*
X87478Y37934D1*
X87468Y37769D1*
X87436Y37608D1*
X87384Y37451D1*
X87312Y37303D1*
X87221Y37165D1*
X87114Y37040D1*
X86991Y36930D1*
X86855Y36836D1*
X86708Y36761D1*
X86553Y36706D1*
X86336Y36665D1*
X86605Y36606D1*
X86757Y36544D1*
X86901Y36463D1*
X87032Y36364D1*
X87150Y36249D1*
X87253Y36119D1*
X87337Y35978D1*
X87403Y35826D1*
X87448Y35668D1*
X87478Y35394D1*
X87468Y35229D1*
X87436Y35068D1*
X87384Y34911D1*
X87312Y34763D1*
X87221Y34625D1*
X87114Y34500D1*
X86991Y34390D1*
X86855Y34296D1*
X86708Y34221D1*
X86553Y34166D1*
X86336Y34125D1*
X86605Y34066D1*
X86757Y34004D1*
X86901Y33923D1*
X87032Y33824D1*
X87150Y33709D1*
X87253Y33579D1*
X87337Y33438D1*
X87403Y33286D1*
X87448Y33128D1*
X87478Y32854D1*
X87468Y32689D1*
X87431Y32513D1*
X88549Y31393D1*
X88649Y31263D1*
X88712Y31111D1*
X88733Y30949D1*
Y21157D1*
X88874Y20992D1*
X88954Y20847D1*
X89007Y20691D1*
X89033Y20472D1*
X89019Y20307D1*
X88975Y20148D1*
X88904Y20000D1*
X88808Y19866D1*
X88690Y19751D1*
X88553Y19659D1*
X88403Y19592D1*
X88243Y19554D1*
X88078Y19544D1*
X87914Y19563D1*
X87757Y19611D1*
X87610Y19686D1*
X87479Y19786D1*
X87368Y19908D1*
X87280Y20047D1*
X87218Y20200D1*
X87183Y20361D1*
X87178Y20525D1*
X87203Y20688D1*
X87255Y20845D1*
X87334Y20989D1*
X87481Y21154D1*
X87477Y22617D1*
Y25179D1*
X87436Y24908D1*
X87384Y24751D1*
X87312Y24603D1*
X87221Y24465D1*
X87114Y24340D1*
X86910Y24174D1*
X87057Y24084D1*
X87182Y23977D1*
X87286Y23849D1*
X87366Y23705D1*
X87419Y23549D1*
X87446Y23329D1*
X87431Y23165D1*
X87388Y23006D1*
X87317Y22857D1*
X87221Y22723D1*
X87103Y22608D1*
X86996Y22536D1*
X87182Y22389D1*
X87286Y22262D1*
X87366Y22117D1*
X87419Y21961D1*
X87446Y21742D1*
X87431Y21577D1*
X87388Y21418D1*
X87317Y21270D1*
X87221Y21136D1*
X87103Y21021D1*
X86966Y20929D1*
X86815Y20862D1*
X86655Y20824D1*
X86491Y20814D1*
X86327Y20833D1*
X86169Y20881D1*
X86023Y20956D1*
X85892Y21056D1*
X85839Y21113D1*
X82073D1*
X81909Y21135D1*
X81757Y21198D1*
X81628Y21297D1*
X79717Y23210D1*
X79693Y23204D1*
Y22859D1*
X79880Y22707D1*
X79984Y22579D1*
X80064Y22435D1*
X80117Y22279D1*
X80143Y22059D1*
X80129Y21895D1*
X80085Y21736D1*
X80014Y21587D1*
X79918Y21453D1*
X79800Y21338D1*
X79693Y21266D1*
Y18723D1*
X79755Y18687D1*
X79880Y18579D1*
X79984Y18452D1*
X80064Y18307D1*
X80117Y18151D1*
X80143Y17931D1*
X80129Y17767D1*
X80085Y17608D1*
X80014Y17460D1*
X79918Y17326D1*
X79841Y17250D1*
Y15485D1*
X79992Y15564D1*
X80147Y15620D1*
X80308Y15654D1*
X80472Y15667D1*
X80637Y15658D1*
X80799Y15626D1*
X80955Y15574D1*
X81103Y15501D1*
X81239Y15408D1*
X81362Y15299D1*
X81470Y15173D1*
X81559Y15035D1*
X81629Y14886D1*
X81679Y14728D1*
X81707Y14566D1*
X81713Y14439D1*
X81702Y14274D1*
X81669Y14113D1*
X81615Y13957D1*
X81540Y13810D1*
X81446Y13675D1*
X81335Y13553D1*
X81209Y13447D1*
X81070Y13359D1*
X80920Y13290D1*
X80762Y13242D1*
X80599Y13216D1*
X80434Y13212D1*
X80270Y13230D1*
X80110Y13269D1*
X79957Y13330D1*
X79845Y13393D1*
Y12948D1*
X79992Y13024D1*
X80147Y13080D1*
X80308Y13114D1*
X80472Y13127D1*
X80637Y13118D1*
X80799Y13086D1*
X80955Y13034D1*
X81103Y12961D1*
X81239Y12868D1*
X81362Y12759D1*
X81470Y12633D1*
X81559Y12495D1*
X81629Y12346D1*
X81679Y12188D1*
X81707Y12026D1*
X81713Y11899D1*
X81702Y11734D1*
X81669Y11573D1*
X81615Y11417D1*
X81540Y11270D1*
X81446Y11135D1*
X81335Y11013D1*
X81209Y10907D1*
X81070Y10819D1*
X80920Y10750D1*
X80762Y10702D1*
X80599Y10676D1*
X80434Y10672D1*
X80270Y10690D1*
X80110Y10729D1*
X79957Y10790D1*
X79836Y10858D1*
X79822Y10783D1*
X79753Y10623D1*
X79853Y10555D1*
X85259Y10552D1*
X85885Y10547D1*
X86809Y10624D1*
X87722Y10782D1*
X88617Y11023D1*
X89487Y11342D1*
X90324Y11739D1*
X91123Y12209D1*
X91876Y12749D1*
X92577Y13354D1*
X93221Y14020D1*
X93803Y14742D1*
X94318Y15512D1*
X94761Y16326D1*
X95130Y17176D1*
X95420Y18056D1*
X95631Y18958D1*
X95759Y19876D1*
X95805Y20805D1*
Y53784D1*
X95758Y54728D1*
X95629Y55646D1*
X95418Y56548D1*
X95127Y57428D1*
X94758Y58278D1*
X94314Y59091D1*
X93799Y59861D1*
X93216Y60582D1*
X92572Y61248D1*
X91870Y61853D1*
X91116Y62392D1*
X90317Y62862D1*
X89480Y63258D1*
X88610Y63577D1*
X87715Y63816D1*
X86802Y63974D1*
X85878Y64050D1*
X84598Y64042D1*
X17542D1*
Y49282D1*
X30707Y49274D1*
X30780Y49267D1*
X30874Y49140D1*
X30876Y32452D1*
Y30561D1*
X30795Y30422D1*
X30711Y30396D1*
X10555D1*
Y16376D1*
X10645Y15487D1*
X10859Y14641D1*
X11195Y13832D1*
X11646Y13081D1*
X12202Y12403D1*
X12850Y11814D1*
X13578Y11326D1*
X14369Y10949D1*
X15207Y10692D1*
X16073Y10559D1*
X18143Y10555D1*
X66029D1*
X65971Y10633D1*
X65906Y10795D1*
X65830Y10819D1*
X65680Y10750D1*
X65522Y10702D1*
X65359Y10676D1*
X65194Y10672D1*
X65030Y10690D1*
X64870Y10729D1*
X64717Y10790D1*
X64573Y10871D1*
X64442Y10970D1*
X64324Y11086D1*
X64224Y11217D1*
X64142Y11360D1*
X64079Y11512D1*
X64038Y11672D1*
X64018Y11836D1*
X64021Y12000D1*
X64046Y12163D1*
X64092Y12322D1*
X64159Y12472D1*
X64245Y12613D1*
X64350Y12740D1*
X64471Y12852D1*
X64605Y12948D1*
X64752Y13024D1*
X64907Y13080D1*
X65068Y13114D1*
X65232Y13127D1*
X65397Y13118D1*
X65559Y13086D1*
X65715Y13034D1*
X65884Y12946D1*
X65886Y13395D1*
X65680Y13290D1*
X65522Y13242D1*
X65359Y13216D1*
X65194Y13212D1*
X65030Y13230D1*
X64870Y13269D1*
X64717Y13330D1*
X64573Y13411D1*
X64442Y13510D1*
X64324Y13626D1*
X64224Y13757D1*
X64142Y13900D1*
X64079Y14052D1*
X64038Y14212D1*
X64018Y14376D1*
X64021Y14540D1*
X64046Y14703D1*
X64092Y14862D1*
X64159Y15012D1*
X64245Y15153D1*
X64350Y15280D1*
X64471Y15392D1*
X64605Y15488D1*
X64752Y15564D1*
X64907Y15620D1*
X65068Y15654D1*
X65232Y15667D1*
X65397Y15658D1*
X65559Y15626D1*
X65715Y15574D1*
X65884Y15486D1*
X65887Y17356D1*
X63843Y19398D1*
X62701Y20435D1*
X62599Y20570D1*
X62478Y20793D1*
X62415Y20945D1*
X62394Y21107D1*
Y29044D1*
X62418Y29251D1*
X62413Y29415D1*
X62438Y29578D1*
X62490Y29735D1*
X62542Y29829D1*
X62544Y29996D1*
X62572Y30158D1*
X62654Y30301D1*
X62778Y30408D1*
X62937Y30466D1*
X63188Y30475D1*
X75310D1*
X74827Y30956D1*
X57881D1*
X56086Y29156D1*
X52203Y25273D1*
X52189Y25070D1*
X52145Y24911D1*
X52074Y24762D1*
X51978Y24628D1*
X51860Y24513D1*
X51723Y24421D1*
X51573Y24355D1*
X51413Y24316D1*
X51248Y24306D1*
X51084Y24326D1*
X50927Y24374D1*
X50780Y24449D1*
X50649Y24549D1*
X50538Y24670D1*
X50458Y24796D1*
X50294Y24635D1*
X50284Y24435D1*
X50238Y24271D1*
X51968Y24275D1*
X54448D1*
X54299Y24512D1*
X54237Y24665D1*
X54195Y24824D1*
X54177Y25055D1*
X54174Y26052D1*
X54178Y26153D1*
X54203Y26316D1*
X54249Y26474D1*
X54316Y26625D1*
X54403Y26765D1*
X54507Y26893D1*
X54628Y27005D1*
X54763Y27100D1*
X54909Y27176D1*
X55064Y27232D1*
X55225Y27267D1*
X55390Y27280D1*
X55554Y27270D1*
X55716Y27239D1*
X55872Y27186D1*
X56020Y27113D1*
X56157Y27021D1*
X56280Y26911D1*
X56387Y26786D1*
X56477Y26647D1*
X56547Y26498D1*
X56596Y26341D1*
X56624Y26178D1*
X56631Y25722D1*
X56626Y25052D1*
X56620Y24887D1*
X56587Y24725D1*
X56532Y24570D1*
X56458Y24423D1*
X56364Y24287D1*
X56253Y24165D1*
X56126Y24059D1*
X55987Y23971D1*
X55743Y23874D1*
X60609Y19011D1*
X60709Y18880D1*
X60772Y18728D1*
X60793Y18566D1*
X60796Y15492D1*
X60919Y15408D1*
X61042Y15299D1*
X61150Y15173D1*
X61239Y15035D1*
X61309Y14886D1*
X61359Y14728D1*
X61387Y14566D1*
X61393Y14439D1*
X61382Y14274D1*
X61349Y14113D1*
X61295Y13957D1*
X61220Y13810D1*
X61126Y13675D1*
X61015Y13553D1*
X60889Y13447D1*
X60750Y13359D1*
X60600Y13290D1*
X60442Y13242D1*
X60279Y13216D1*
X60114Y13212D1*
X59950Y13230D1*
X59790Y13269D1*
X59637Y13330D1*
X59493Y13411D1*
X59362Y13510D1*
X59244Y13626D1*
X59144Y13757D1*
X59062Y13900D1*
X58999Y14052D1*
X58958Y14212D1*
X58938Y14376D1*
X58941Y14540D1*
X58966Y14703D1*
X59012Y14862D1*
X59079Y15012D1*
X59165Y15153D1*
X59270Y15280D1*
X59391Y15392D1*
X59539Y15495D1*
X59537Y18311D1*
X58554Y19289D1*
X54824Y23019D1*
X54698Y23018D1*
X58069Y19646D1*
X58169Y19515D1*
X58232Y19363D1*
X58253Y19202D1*
X58256Y15492D1*
X58379Y15408D1*
X58502Y15299D1*
X58610Y15173D1*
X58699Y15035D1*
X58769Y14886D1*
X58819Y14728D1*
X58847Y14566D1*
X58853Y14439D1*
X58842Y14274D1*
X58809Y14113D1*
X58755Y13957D1*
X58680Y13810D1*
X58586Y13675D1*
X58475Y13553D1*
X58349Y13447D1*
X58210Y13359D1*
X58060Y13290D1*
X57902Y13242D1*
X57739Y13216D1*
X57574Y13212D1*
X57410Y13230D1*
X57250Y13269D1*
X57066Y13348D1*
X57321Y13092D1*
X57612Y13127D1*
X57777Y13118D1*
X57939Y13086D1*
X58095Y13034D1*
X58243Y12961D1*
X58379Y12868D1*
X58502Y12759D1*
X58610Y12633D1*
X58699Y12495D1*
X58769Y12346D1*
X58819Y12188D1*
X58847Y12026D1*
X58853Y11899D1*
X58842Y11734D1*
X58809Y11573D1*
X58755Y11417D1*
X58680Y11270D1*
X58586Y11135D1*
X58475Y11013D1*
X58349Y10907D1*
X58210Y10819D1*
X58060Y10750D1*
X57902Y10702D1*
X57739Y10676D1*
X57574Y10672D1*
X57410Y10690D1*
X57250Y10729D1*
X57097Y10790D1*
X56953Y10871D1*
X56822Y10970D1*
X56704Y11086D1*
X56604Y11217D1*
X56522Y11360D1*
X56459Y11512D1*
X56418Y11672D1*
X56398Y11836D1*
X56401Y12000D1*
X56436Y12198D1*
X56178Y12457D1*
X56229Y12346D1*
X56279Y12188D1*
X56307Y12026D1*
X56313Y11899D1*
X56302Y11734D1*
X56269Y11573D1*
X56215Y11417D1*
X56140Y11270D1*
X56046Y11135D1*
X55935Y11013D1*
X55809Y10907D1*
X55670Y10819D1*
X55520Y10750D1*
X55362Y10702D1*
X55199Y10676D1*
X55034Y10672D1*
X54870Y10690D1*
X54710Y10729D1*
X54557Y10790D1*
X54413Y10871D1*
X54282Y10970D1*
X54164Y11086D1*
X54064Y11217D1*
X53982Y11360D1*
X53919Y11512D1*
X53878Y11672D1*
X53858Y11836D1*
X53861Y12000D1*
X53886Y12163D1*
X53932Y12322D1*
X53999Y12472D1*
X54085Y12613D1*
X54190Y12740D1*
X54311Y12852D1*
X54445Y12948D1*
X54592Y13024D1*
X54747Y13080D1*
X54908Y13114D1*
X55072Y13127D1*
X55237Y13118D1*
X55399Y13086D1*
X55555Y13034D1*
X55784Y12906D1*
X55748Y13007D1*
X55727Y13169D1*
X55726Y13395D1*
X55520Y13290D1*
X55362Y13242D1*
X55199Y13216D1*
X55034Y13212D1*
X54870Y13230D1*
X54710Y13269D1*
X54557Y13330D1*
X54413Y13411D1*
X54282Y13510D1*
X54164Y13626D1*
X54064Y13757D1*
X53982Y13900D1*
X53919Y14052D1*
X53878Y14212D1*
X53858Y14376D1*
X53861Y14540D1*
X53886Y14703D1*
X53932Y14862D1*
X53999Y15012D1*
X54085Y15153D1*
X54190Y15280D1*
X54311Y15392D1*
X54459Y15495D1*
X54457Y17672D1*
X53470Y18658D1*
X53459Y18402D1*
X53415Y18243D1*
X53344Y18095D1*
X53248Y17961D1*
X53171Y17885D1*
X53176Y15492D1*
X53299Y15408D1*
X53422Y15299D1*
X53530Y15173D1*
X53619Y15035D1*
X53689Y14886D1*
X53739Y14728D1*
X53767Y14566D1*
X53773Y14439D1*
X53762Y14274D1*
X53729Y14113D1*
X53675Y13957D1*
X53600Y13810D1*
X53506Y13675D1*
X53395Y13553D1*
X53269Y13447D1*
X53130Y13359D1*
X52980Y13290D1*
X52822Y13242D1*
X52659Y13216D1*
X52494Y13212D1*
X52330Y13230D1*
X52170Y13269D1*
X51986Y13348D1*
X52241Y13092D1*
X52532Y13127D1*
X52697Y13118D1*
X52859Y13086D1*
X53015Y13034D1*
X53163Y12961D1*
X53299Y12868D1*
X53422Y12759D1*
X53530Y12633D1*
X53619Y12495D1*
X53689Y12346D1*
X53739Y12188D1*
X53767Y12026D1*
X53773Y11899D1*
X53762Y11734D1*
X53729Y11573D1*
X53675Y11417D1*
X53600Y11270D1*
X53506Y11135D1*
X53395Y11013D1*
X53269Y10907D1*
X53130Y10819D1*
X52980Y10750D1*
X52822Y10702D1*
X52659Y10676D1*
X52494Y10672D1*
X52330Y10690D1*
X52170Y10729D1*
X52017Y10790D1*
X51873Y10871D1*
X51742Y10970D1*
X51624Y11086D1*
X51524Y11217D1*
X51442Y11360D1*
X51379Y11512D1*
X51338Y11672D1*
X51318Y11836D1*
X51321Y12000D1*
X51356Y12198D1*
X51098Y12457D1*
X51149Y12346D1*
X51199Y12188D1*
X51227Y12026D1*
X51233Y11899D1*
X51222Y11734D1*
X51189Y11573D1*
X51135Y11417D1*
X51060Y11270D1*
X50966Y11135D1*
X50855Y11013D1*
X50729Y10907D1*
X50590Y10819D1*
X50440Y10750D1*
X50282Y10702D1*
X50119Y10676D1*
X49954Y10672D1*
X49790Y10690D1*
X49630Y10729D1*
X49477Y10790D1*
X49333Y10871D1*
X49202Y10970D1*
X49084Y11086D1*
X48984Y11217D1*
X48902Y11360D1*
X48839Y11512D1*
X48798Y11672D1*
X48778Y11836D1*
X48781Y12000D1*
X48806Y12163D1*
X48852Y12322D1*
X48919Y12472D1*
X49005Y12613D1*
X49110Y12740D1*
X49231Y12852D1*
X49365Y12948D1*
X49512Y13024D1*
X49667Y13080D1*
X49828Y13114D1*
X49992Y13127D1*
X50157Y13118D1*
X50319Y13086D1*
X50475Y13034D1*
X50704Y12906D1*
X50668Y13007D1*
X50647Y13169D1*
X50646Y13395D1*
X50440Y13290D1*
X50282Y13242D1*
X50119Y13216D1*
X49954Y13212D1*
X49790Y13230D1*
X49630Y13269D1*
X49477Y13330D1*
X49333Y13411D1*
X49202Y13510D1*
X49084Y13626D1*
X48984Y13757D1*
X48902Y13900D1*
X48839Y14052D1*
X48798Y14212D1*
X48778Y14376D1*
X48781Y14540D1*
X48806Y14703D1*
X48852Y14862D1*
X48919Y15012D1*
X49005Y15153D1*
X49110Y15280D1*
X49231Y15392D1*
X49379Y15495D1*
X49377Y18590D1*
X49179Y18611D1*
X49022Y18659D1*
X48875Y18734D1*
X48744Y18834D1*
X48633Y18955D1*
X48545Y19094D1*
X48483Y19247D1*
X48448Y19408D1*
X48443Y19573D1*
X48468Y19736D1*
X48520Y19892D1*
X48599Y20037D1*
X48700Y20161D1*
X47396D1*
X47909Y19646D1*
X48009Y19515D1*
X48072Y19363D1*
X48093Y19202D1*
X48096Y15492D1*
X48219Y15408D1*
X48342Y15299D1*
X48450Y15173D1*
X48539Y15035D1*
X48609Y14886D1*
X48659Y14728D1*
X48687Y14566D1*
X48693Y14439D1*
X48682Y14274D1*
X48649Y14113D1*
X48595Y13957D1*
X48520Y13810D1*
X48426Y13675D1*
X48315Y13553D1*
X48189Y13447D1*
X48050Y13359D1*
X47900Y13290D1*
X47742Y13242D1*
X47579Y13216D1*
X47414Y13212D1*
X47250Y13230D1*
X47090Y13269D1*
X46906Y13348D1*
X47161Y13092D1*
X47452Y13127D1*
X47617Y13118D1*
X47779Y13086D1*
X47935Y13034D1*
X48083Y12961D1*
X48219Y12868D1*
X48342Y12759D1*
X48450Y12633D1*
X48539Y12495D1*
X48609Y12346D1*
X48659Y12188D1*
X48687Y12026D1*
X48693Y11899D1*
X48682Y11734D1*
X48649Y11573D1*
X48595Y11417D1*
X48520Y11270D1*
X48426Y11135D1*
X48315Y11013D1*
X48189Y10907D1*
X48050Y10819D1*
X47900Y10750D1*
X47742Y10702D1*
X47579Y10676D1*
X47414Y10672D1*
X47250Y10690D1*
X47090Y10729D1*
X46937Y10790D1*
X46793Y10871D1*
X46662Y10970D1*
X46544Y11086D1*
X46444Y11217D1*
X46362Y11360D1*
X46299Y11512D1*
X46258Y11672D1*
X46238Y11836D1*
X46241Y12000D1*
X46276Y12198D1*
X46018Y12457D1*
X46069Y12346D1*
X46119Y12188D1*
X46147Y12026D1*
X46153Y11899D1*
X46142Y11734D1*
X46109Y11573D1*
X46055Y11417D1*
X45980Y11270D1*
X45886Y11135D1*
X45775Y11013D1*
X45649Y10907D1*
X45510Y10819D1*
X45360Y10750D1*
X45202Y10702D1*
X45039Y10676D1*
X44874Y10672D1*
X44710Y10690D1*
X44550Y10729D1*
X44397Y10790D1*
X44253Y10871D1*
X44122Y10970D1*
X44004Y11086D1*
X43904Y11217D1*
X43822Y11360D1*
X43759Y11512D1*
X43718Y11672D1*
X43698Y11836D1*
X43701Y12000D1*
X43736Y12198D1*
X43478Y12457D1*
X43529Y12346D1*
X43579Y12188D1*
X43607Y12026D1*
X43613Y11899D1*
X43602Y11734D1*
X43569Y11573D1*
X43515Y11417D1*
X43440Y11270D1*
X43346Y11135D1*
X43235Y11013D1*
X43109Y10907D1*
X42970Y10819D1*
X42820Y10750D1*
X42662Y10702D1*
X42499Y10676D1*
X42334Y10672D1*
X42170Y10690D1*
X42010Y10729D1*
X41857Y10790D1*
X41713Y10871D1*
X41582Y10970D1*
X41464Y11086D1*
X41364Y11217D1*
X41282Y11360D1*
X41219Y11512D1*
X41178Y11672D1*
X41158Y11836D1*
X41161Y12000D1*
X41196Y12198D1*
X40938Y12457D1*
X40989Y12346D1*
X41039Y12188D1*
X41067Y12026D1*
X41073Y11899D1*
X41062Y11734D1*
X41029Y11573D1*
X40975Y11417D1*
X40900Y11270D1*
X40806Y11135D1*
X40695Y11013D1*
X40569Y10907D1*
X40430Y10819D1*
X40280Y10750D1*
X40122Y10702D1*
X39959Y10676D1*
X39794Y10672D1*
X39630Y10690D1*
X39470Y10729D1*
X39317Y10790D1*
X39173Y10871D1*
X39042Y10970D1*
X38924Y11086D1*
X38824Y11217D1*
X38742Y11360D1*
X38679Y11512D1*
X38638Y11672D1*
X38618Y11836D1*
X38621Y12000D1*
X38646Y12163D1*
X38692Y12322D1*
X38759Y12472D1*
X38845Y12613D1*
X38950Y12740D1*
X39071Y12852D1*
X39205Y12948D1*
X39352Y13024D1*
X39507Y13080D1*
X39668Y13114D1*
X39832Y13127D1*
X39997Y13118D1*
X40159Y13086D1*
X40315Y13034D1*
X40544Y12906D1*
X40508Y13007D1*
X40487Y13169D1*
X40486Y13395D1*
X40280Y13290D1*
X40122Y13242D1*
X39959Y13216D1*
X39794Y13212D1*
X39630Y13230D1*
X39470Y13269D1*
X39317Y13330D1*
X39173Y13411D1*
X39042Y13510D1*
X38924Y13626D1*
X38824Y13757D1*
X38742Y13900D1*
X38679Y14052D1*
X38638Y14212D1*
X38618Y14376D1*
X38621Y14540D1*
X38646Y14703D1*
X38692Y14862D1*
X38759Y15012D1*
X38845Y15153D1*
X38950Y15280D1*
X39071Y15392D1*
X39205Y15488D1*
X39352Y15564D1*
X39507Y15620D1*
X39668Y15654D1*
X39832Y15667D1*
X39997Y15658D1*
X40159Y15626D1*
X40315Y15574D1*
X40484Y15486D1*
X40487Y16082D1*
X39500Y17070D1*
X39489Y16815D1*
X39445Y16656D1*
X39374Y16507D1*
X39278Y16373D1*
X39160Y16258D1*
X39023Y16166D1*
X38873Y16100D1*
X38713Y16061D1*
X38548Y16051D1*
X38384Y16071D1*
X38227Y16119D1*
X38080Y16194D1*
X37949Y16294D1*
X37838Y16415D1*
X37750Y16554D1*
X37688Y16707D1*
X37653Y16868D1*
X37649Y17018D1*
X34516Y20142D1*
Y16027D1*
X34496Y15863D1*
X34440Y15710D1*
X34373Y15600D1*
X34588Y15654D1*
X34752Y15667D1*
X34917Y15658D1*
X35079Y15626D1*
X35235Y15574D1*
X35383Y15501D1*
X35519Y15408D1*
X35642Y15299D1*
X35750Y15173D1*
X35839Y15035D1*
X35909Y14886D1*
X35959Y14728D1*
X35987Y14566D1*
X35993Y14439D1*
X35982Y14274D1*
X35949Y14113D1*
X35895Y13957D1*
X35820Y13810D1*
X35726Y13675D1*
X35615Y13553D1*
X35489Y13447D1*
X35350Y13359D1*
X35200Y13290D1*
X35042Y13242D1*
X34879Y13216D1*
X34714Y13212D1*
X34550Y13230D1*
X34390Y13269D1*
X34237Y13330D1*
X34093Y13411D1*
X33962Y13510D1*
X33844Y13626D1*
X33744Y13757D1*
X33662Y13900D1*
X33599Y14052D1*
X33558Y14212D1*
X33538Y14376D1*
X33541Y14540D1*
X33566Y14703D1*
X33599Y14817D1*
X33432Y14652D1*
X33453Y14439D1*
X33442Y14274D1*
X33409Y14113D1*
X33355Y13957D1*
X33280Y13810D1*
X33186Y13675D1*
X33075Y13553D1*
X32949Y13447D1*
X32810Y13359D1*
X32660Y13290D1*
X32502Y13242D1*
X32339Y13216D1*
X32174Y13212D1*
X32010Y13230D1*
X31850Y13269D1*
X31697Y13330D1*
X31553Y13411D1*
X31422Y13510D1*
X31304Y13626D1*
X31204Y13757D1*
X31122Y13900D1*
X31059Y14052D1*
X31018Y14212D1*
X30998Y14376D1*
X31001Y14540D1*
X31026Y14703D1*
X31072Y14862D1*
X31139Y15012D1*
X31225Y15153D1*
X31330Y15280D1*
X31451Y15392D1*
X31585Y15488D1*
X31732Y15564D1*
X31887Y15620D1*
X32048Y15654D1*
X32212Y15667D1*
X32443Y15645D1*
X33110Y16318D1*
X33109Y27984D1*
X29230Y24102D1*
X29101Y24000D1*
X28951Y23931D1*
X28797Y23899D1*
X26422Y23896D1*
X23942D1*
X22841Y22793D1*
X22892Y22688D1*
X22941Y22531D1*
X22969Y22368D1*
X22976Y21912D1*
X22971Y21241D1*
X22965Y21077D1*
X22932Y20915D1*
X22877Y20760D1*
X22803Y20613D1*
X22709Y20477D1*
X22598Y20355D1*
X22471Y20249D1*
X22332Y20161D1*
X22182Y20093D1*
X22024Y20045D1*
X21862Y20019D1*
X21697Y20014D1*
X21533Y20032D1*
X21373Y20072D1*
X21220Y20133D1*
X21076Y20213D1*
X20944Y20313D1*
X20827Y20428D1*
X20726Y20559D1*
X20644Y20702D1*
X20582Y20855D1*
X20540Y21014D1*
X20522Y21245D1*
X20519Y22242D1*
X20435Y22236D1*
X20431Y21241D1*
X20425Y21077D1*
X20392Y20915D1*
X20337Y20760D1*
X20263Y20613D1*
X20169Y20477D1*
X20058Y20355D1*
X19931Y20249D1*
X19792Y20161D1*
X19642Y20093D1*
X19484Y20045D1*
X19322Y20019D1*
X19157Y20014D1*
X18993Y20032D1*
X18833Y20072D1*
X18680Y20133D1*
X18536Y20213D1*
X18404Y20313D1*
X18287Y20428D1*
X18186Y20559D1*
X18104Y20702D1*
X18042Y20855D1*
X18000Y21014D1*
X17982Y21245D1*
X17979Y22242D1*
X17983Y22343D1*
X18008Y22506D1*
X18054Y22664D1*
X18121Y22815D1*
X18208Y22955D1*
X18312Y23083D1*
X18433Y23195D1*
X18568Y23290D1*
X18714Y23366D1*
X18869Y23422D1*
X19030Y23457D1*
X19195Y23470D1*
X19359Y23460D1*
X19521Y23429D1*
X19677Y23376D1*
X19825Y23303D1*
X19962Y23211D1*
X20085Y23101D1*
X20192Y22976D1*
X20282Y22837D1*
X20352Y22688D1*
X20401Y22531D1*
X20429Y22368D1*
X20436Y22242D1*
X20522Y22245D1*
X20548Y22506D1*
X20594Y22664D1*
X20661Y22815D1*
X20748Y22955D1*
X20852Y23083D1*
X20973Y23195D1*
X21108Y23290D1*
X21254Y23366D1*
X21505Y23443D1*
X23155Y25096D1*
X23284Y25198D1*
X23434Y25267D1*
X23588Y25299D1*
X25963Y25302D1*
X28443D1*
X32155Y29016D1*
X32157Y35986D1*
Y44284D1*
X32176Y44447D1*
X32233Y44602D1*
X32320Y44734D1*
X33996Y46415D1*
X38713Y51131D1*
X38842Y51233D1*
X38991Y51302D1*
X39146Y51334D1*
X41520Y51337D1*
X42068D1*
X42231Y51318D1*
X42386Y51261D1*
X42517Y51174D1*
X43517Y50179D1*
X43619Y50050D1*
X43688Y49900D1*
X43720Y49746D1*
X43723Y49161D1*
X44298Y45521D2*
X44277Y45324D1*
X44227Y45133D1*
X44147Y44952D1*
X44041Y44785D1*
X43910Y44637D1*
X43758Y44510D1*
X43588Y44409D1*
X43405Y44335D1*
X43212Y44290D1*
X43162Y44284D1*
X43425Y44226D1*
X43577Y44164D1*
X43721Y44083D1*
X43852Y43984D1*
X43970Y43869D1*
X44073Y43739D1*
X44157Y43598D1*
X44223Y43446D1*
X44268Y43288D1*
X44298Y43014D1*
X44288Y42849D1*
X44256Y42688D1*
X44204Y42531D1*
X44132Y42383D1*
X44041Y42245D1*
X43934Y42120D1*
X43811Y42010D1*
X43675Y41916D1*
X43528Y41841D1*
X43373Y41786D1*
X43156Y41745D1*
X43425Y41686D1*
X43577Y41624D1*
X43721Y41543D1*
X43852Y41444D1*
X43970Y41329D1*
X44073Y41199D1*
X44157Y41058D1*
X44223Y40906D1*
X44268Y40748D1*
X44298Y40474D1*
X44288Y40309D1*
X44256Y40148D1*
X44204Y39991D1*
X44132Y39843D1*
X44041Y39705D1*
X43934Y39580D1*
X43811Y39470D1*
X43675Y39376D1*
X43528Y39301D1*
X43373Y39246D1*
X43156Y39205D1*
X43425Y39146D1*
X43577Y39084D1*
X43721Y39003D1*
X43852Y38904D1*
X43970Y38789D1*
X44073Y38659D1*
X44157Y38518D1*
X44223Y38366D1*
X44268Y38208D1*
X44298Y37934D1*
X44288Y37769D1*
X44256Y37608D1*
X44204Y37451D1*
X44132Y37303D1*
X44041Y37165D1*
X43934Y37040D1*
X43811Y36930D1*
X43675Y36836D1*
X43528Y36761D1*
X43373Y36706D1*
X43156Y36665D1*
X43425Y36606D1*
X43577Y36544D1*
X43721Y36463D1*
X43852Y36364D1*
X43970Y36249D1*
X44073Y36119D1*
X44157Y35978D1*
X44223Y35826D1*
X44268Y35668D1*
X44298Y35394D1*
X44288Y35229D1*
X44256Y35068D1*
X44204Y34911D1*
X44132Y34763D1*
X44041Y34625D1*
X43934Y34500D1*
X43811Y34390D1*
X43675Y34296D1*
X43528Y34221D1*
X43373Y34166D1*
X43156Y34125D1*
X43425Y34066D1*
X43577Y34004D1*
X43721Y33923D1*
X43852Y33824D1*
X43970Y33709D1*
X44073Y33579D1*
X44157Y33438D1*
X44223Y33286D1*
X44268Y33128D1*
X44298Y32854D1*
X44288Y32689D1*
X44256Y32528D1*
X44204Y32371D1*
X44132Y32223D1*
X44041Y32085D1*
X43934Y31960D1*
X43811Y31850D1*
X43675Y31756D1*
X43528Y31681D1*
X43373Y31626D1*
X43156Y31585D1*
X43425Y31526D1*
X43577Y31464D1*
X43721Y31383D1*
X43852Y31284D1*
X43970Y31169D1*
X44073Y31039D1*
X44157Y30898D1*
X44223Y30746D1*
X44268Y30588D1*
X44298Y30314D1*
X44288Y30149D1*
X44256Y29988D1*
X44204Y29831D1*
X44132Y29683D1*
X44041Y29545D1*
X43934Y29420D1*
X43811Y29310D1*
X43675Y29216D1*
X43528Y29141D1*
X43373Y29086D1*
X43156Y29045D1*
X43425Y28986D1*
X43577Y28924D1*
X43721Y28843D1*
X43852Y28744D1*
X43970Y28629D1*
X44073Y28499D1*
X44157Y28358D1*
X44223Y28206D1*
X44268Y28048D1*
X44298Y27774D1*
X44288Y27609D1*
X44256Y27448D1*
X44204Y27291D1*
X44132Y27143D1*
X44041Y27005D1*
X43934Y26880D1*
X43811Y26770D1*
X43675Y26676D1*
X43528Y26601D1*
X43373Y26546D1*
X43156Y26505D1*
X43425Y26446D1*
X43577Y26384D1*
X43721Y26303D1*
X43852Y26204D1*
X43970Y26089D1*
X44073Y25959D1*
X44157Y25818D1*
X44223Y25666D1*
X44268Y25508D1*
X44298Y25234D1*
X44288Y25069D1*
X44256Y24908D1*
X44204Y24751D1*
X44132Y24603D1*
X44041Y24465D1*
X43861Y24275D1*
X44888D1*
X44823Y24353D1*
X44735Y24492D1*
X44673Y24645D1*
X44638Y24806D1*
X44633Y24970D1*
X44658Y25133D1*
X44710Y25290D1*
X44789Y25434D1*
X44893Y25562D1*
X45018Y25670D1*
X45160Y25754D1*
X45314Y25811D1*
X45476Y25841D1*
X45595D1*
X46703Y26948D1*
X46834Y27048D1*
X46986Y27111D1*
X47148Y27132D1*
X49432D1*
X50877Y28582D1*
X55474Y33179D1*
X53498Y33178D1*
X53334Y33200D1*
X53182Y33263D1*
X53053Y33362D1*
X52418Y33997D1*
X52314Y34137D1*
X52176Y34166D1*
X51734D1*
Y36622D1*
X52234D1*
Y37977D1*
X51734Y37976D1*
Y38600D1*
X51595Y38661D1*
X51466Y38760D1*
X44214Y46012D1*
X44275Y45796D1*
X44297Y45599D1*
X44298Y45521D1*
X82471Y45092D2*
X82401Y45335D1*
X82383Y45498D1*
X82386Y45663D1*
X82430Y45891D1*
X81699Y46627D1*
X80478Y47848D1*
Y47089D1*
X81811Y45751D1*
X82471Y45092D1*
Y42552D2*
X82401Y42795D1*
X82383Y42958D1*
X82386Y43123D1*
X82430Y43351D1*
X81699Y44087D1*
X79843Y45942D1*
Y45175D1*
X81643Y43380D1*
X82470Y42552D1*
X82471Y40012D2*
X82401Y40255D1*
X82383Y40418D1*
X82386Y40583D1*
X82430Y40811D1*
X81699Y41547D1*
X79209Y44037D1*
X79208Y43272D1*
X82470Y40013D1*
X82471Y37472D2*
X82401Y37715D1*
X82383Y37878D1*
X82386Y38043D1*
X82430Y38271D1*
X81699Y39007D1*
X78574Y42131D1*
X78573Y41370D1*
X82469Y37473D1*
X82471Y34932D2*
X82401Y35175D1*
X82383Y35338D1*
X82386Y35503D1*
X82430Y35731D1*
X81699Y36467D1*
X77940Y40226D1*
X77938Y39467D1*
X82469Y34934D1*
X82471Y32392D2*
X82401Y32635D1*
X82383Y32798D1*
X82386Y32963D1*
X82430Y33191D1*
X81699Y33927D1*
X77303Y38321D1*
Y37564D1*
X78869Y35993D1*
X82468Y32394D1*
X82471Y29852D2*
X82401Y30095D1*
X82383Y30258D1*
X82386Y30423D1*
X82430Y30651D1*
X81699Y31387D1*
X76671Y36414D1*
X76668Y35650D1*
X78118Y34205D1*
X82467Y29855D1*
X82406Y28011D2*
X82430Y28111D1*
X81699Y28847D1*
X76029Y34516D1*
X76033Y34386D1*
X82401Y28016D1*
X23062Y22245D2*
X23088Y22506D1*
X23134Y22664D1*
X23201Y22815D1*
X23288Y22955D1*
X23392Y23083D1*
X23513Y23195D1*
X23648Y23290D1*
X23794Y23366D1*
X23949Y23422D1*
X24110Y23457D1*
X24275Y23470D1*
X24439Y23460D1*
X24601Y23429D1*
X24757Y23376D1*
X24905Y23303D1*
X25042Y23211D1*
X25165Y23101D1*
X25272Y22976D1*
X25362Y22837D1*
X25432Y22688D1*
X25481Y22531D1*
X25509Y22368D1*
X25516Y21912D1*
X25511Y21241D1*
X25505Y21077D1*
X25472Y20915D1*
X25417Y20760D1*
X25343Y20613D1*
X25249Y20477D1*
X25138Y20355D1*
X25011Y20249D1*
X24872Y20161D1*
X24722Y20093D1*
X24564Y20045D1*
X24402Y20019D1*
X24237Y20014D1*
X24073Y20032D1*
X23913Y20072D1*
X23760Y20133D1*
X23616Y20213D1*
X23484Y20313D1*
X23367Y20428D1*
X23266Y20559D1*
X23184Y20702D1*
X23122Y20855D1*
X23080Y21014D1*
X23062Y21245D1*
X23059Y22242D1*
X23064D1*
X56717Y26055D2*
X56743Y26316D1*
X56789Y26474D1*
X56856Y26625D1*
X56943Y26765D1*
X57047Y26893D1*
X57168Y27005D1*
X57303Y27100D1*
X57449Y27176D1*
X57604Y27232D1*
X57765Y27267D1*
X57930Y27280D1*
X58094Y27270D1*
X58256Y27239D1*
X58412Y27186D1*
X58560Y27113D1*
X58697Y27021D1*
X58820Y26911D1*
X58927Y26786D1*
X59017Y26647D1*
X59087Y26498D1*
X59136Y26341D1*
X59164Y26178D1*
X59171Y25722D1*
X59166Y25052D1*
X59160Y24887D1*
X59127Y24725D1*
X59072Y24570D1*
X58998Y24423D1*
X58904Y24287D1*
X58793Y24165D1*
X58666Y24059D1*
X58527Y23971D1*
X58377Y23903D1*
X58219Y23855D1*
X58057Y23829D1*
X57892Y23824D1*
X57728Y23842D1*
X57568Y23882D1*
X57415Y23943D1*
X57271Y24023D1*
X57139Y24123D1*
X57022Y24238D1*
X56921Y24369D1*
X56839Y24512D1*
X56777Y24665D1*
X56735Y24824D1*
X56717Y25055D1*
X56714Y26052D1*
X56719D1*
X59257Y26055D2*
X59283Y26316D1*
X59329Y26474D1*
X59396Y26625D1*
X59483Y26765D1*
X59587Y26893D1*
X59708Y27005D1*
X59843Y27100D1*
X59989Y27176D1*
X60144Y27232D1*
X60305Y27267D1*
X60470Y27280D1*
X60634Y27270D1*
X60796Y27239D1*
X60952Y27186D1*
X61100Y27113D1*
X61237Y27021D1*
X61360Y26911D1*
X61467Y26786D1*
X61557Y26647D1*
X61627Y26498D1*
X61676Y26341D1*
X61704Y26178D1*
X61711Y25722D1*
X61706Y25052D1*
X61700Y24887D1*
X61667Y24725D1*
X61612Y24570D1*
X61538Y24423D1*
X61444Y24287D1*
X61333Y24165D1*
X61206Y24059D1*
X61067Y23971D1*
X60917Y23903D1*
X60759Y23855D1*
X60597Y23829D1*
X60432Y23824D1*
X60268Y23842D1*
X60108Y23882D1*
X59955Y23943D1*
X59811Y24023D1*
X59679Y24123D1*
X59562Y24238D1*
X59461Y24369D1*
X59379Y24512D1*
X59317Y24665D1*
X59275Y24824D1*
X59257Y25055D1*
X59254Y26052D1*
X59259D1*
X53799Y36622D2*
X55891D1*
Y36019D1*
X56510Y36022D1*
X56673Y36247D1*
X56791Y36363D1*
X56923Y36462D1*
X57066Y36544D1*
X57219Y36606D1*
X57378Y36648D1*
X57496Y36663D1*
X57326Y36691D1*
X57168Y36740D1*
X57018Y36809D1*
X56878Y36896D1*
X56751Y37001D1*
X56638Y37121D1*
X56515Y37305D1*
X56032Y37306D1*
X55869Y37327D1*
X55717Y37391D1*
X55588Y37490D1*
X55103Y37975D1*
X53634Y37981D1*
X53491Y37976D1*
Y36621D1*
X53991Y36617D1*
X57753Y36664D2*
X57870Y36648D1*
X58030Y36606D1*
X58182Y36544D1*
X58326Y36463D1*
X58457Y36364D1*
X58575Y36249D1*
X58678Y36119D1*
X58762Y35978D1*
X58828Y35826D1*
X58873Y35668D1*
X58894Y35530D1*
X58916Y35666D1*
X58962Y35825D1*
X59027Y35976D1*
X59111Y36118D1*
X59213Y36247D1*
X59331Y36363D1*
X59463Y36462D1*
X59606Y36544D1*
X59759Y36606D1*
X59918Y36648D1*
X60036Y36663D1*
X59866Y36691D1*
X59708Y36740D1*
X59558Y36809D1*
X59418Y36896D1*
X59291Y37001D1*
X59178Y37121D1*
X59082Y37255D1*
X59004Y37400D1*
X58945Y37554D1*
X58896Y37802D1*
X58861Y37608D1*
X58809Y37451D1*
X58737Y37303D1*
X58646Y37165D1*
X58539Y37040D1*
X58416Y36930D1*
X58280Y36836D1*
X58133Y36761D1*
X57978Y36706D1*
X57761Y36665D1*
X86392Y51422D2*
X86340Y51096D1*
X86238Y50782D1*
X86089Y50489D1*
X85895Y50222D1*
X85662Y49989D1*
X85396Y49794D1*
X85102Y49644D1*
X84789Y49542D1*
X84464Y49490D1*
X84134Y49489D1*
X83808Y49540D1*
X83494Y49642D1*
X83200Y49791D1*
X82933Y49984D1*
X82699Y50216D1*
X82505Y50482D1*
X82354Y50776D1*
X82252Y51089D1*
X82199Y51414D1*
X82198Y51744D1*
X82248Y52070D1*
X82349Y52384D1*
X82497Y52678D1*
X82690Y52946D1*
X82922Y53180D1*
X83188Y53375D1*
X83481Y53526D1*
X83794Y53629D1*
X84119Y53682D1*
X84449Y53684D1*
X84775Y53634D1*
X85089Y53534D1*
X85383Y53386D1*
X85651Y53194D1*
X85886Y52962D1*
X86081Y52697D1*
X86233Y52404D1*
X86337Y52091D1*
X86391Y51766D1*
X86392Y51422D1*
X52792Y21113D2*
X55529Y18376D1*
X55629Y18245D1*
X55692Y18093D1*
X55713Y17932D1*
Y15493D1*
X55727Y15809D1*
Y18310D1*
X52917Y21116D1*
X52793Y21113D1*
X46229Y24275D2*
X48497D1*
X48448Y24488D1*
X48443Y24653D1*
X48468Y24816D1*
X48520Y24972D1*
X48599Y25117D1*
X48703Y25245D1*
X48828Y25352D1*
X48970Y25436D1*
X49124Y25494D1*
X49286Y25523D1*
X49405Y25524D1*
X49761Y25878D1*
X47403Y25876D1*
X46487Y24955D1*
X46474Y24752D1*
X46430Y24593D1*
X46359Y24445D1*
X46223Y24271D1*
X46587Y55069D2*
X43211Y58445D1*
X43111Y58575D1*
X43048Y58727D1*
X43027Y58889D1*
Y59111D1*
X43013Y58839D1*
Y58514D1*
X46457Y55070D1*
X46582Y55072D1*
X44682Y53799D2*
X40671Y57810D1*
X40571Y57940D1*
X40508Y58092D1*
X40487Y58254D1*
Y59115D1*
X40473Y58839D1*
Y57875D1*
X41923Y56430D1*
X44551Y53801D1*
X44677Y53802D1*
X29685Y15667D2*
D16*
Y13211D1*
X83025Y15667D2*
Y13211D1*
X85565Y15667D2*
Y13211D1*
Y13127D2*
Y10671D1*
X83025Y13127D2*
Y10671D1*
X29685Y13127D2*
Y10671D1*
Y63927D2*
Y61471D1*
Y61387D2*
Y58931D1*
X86200Y49372D2*
Y46816D1*
X43020Y45554D2*
Y44276D1*
D17*
X29685Y14439D3*
X32225D3*
X34765D3*
X37305D3*
X39845D3*
X42385D3*
X44925D3*
X47465D3*
X50005D3*
X52545D3*
X55085D3*
X57625D3*
X60165D3*
X62705D3*
X65245D3*
X67785D3*
X70325D3*
X72865D3*
X75405D3*
X77945D3*
X80485D3*
X83025D3*
X85565D3*
Y11899D3*
X83025D3*
X80485D3*
X77945D3*
X75405D3*
X72865D3*
X70325D3*
X67785D3*
X65245D3*
X62705D3*
X60165D3*
X57625D3*
X55085D3*
X52545D3*
X50005D3*
X47465D3*
X44925D3*
X42385D3*
X39845D3*
X37305D3*
X34765D3*
X32225D3*
X29685D3*
Y62699D3*
X32225D3*
X34765D3*
X37305D3*
X39845D3*
X42385D3*
X44925D3*
X47465D3*
X50005D3*
X52545D3*
X55085D3*
X57625D3*
X60165D3*
X62705D3*
X65245D3*
X67785D3*
X70325D3*
X72865D3*
X75405D3*
X77945D3*
X80485D3*
X83025D3*
X85565D3*
Y60159D3*
X83025D3*
X80485D3*
X77945D3*
X75405D3*
X72865D3*
X70325D3*
X67785D3*
X65245D3*
X62705D3*
X60165D3*
X57625D3*
X55085D3*
X52545D3*
X50005D3*
X47465D3*
X44925D3*
X42385D3*
X39845D3*
X37305D3*
X34765D3*
X32225D3*
X29685D3*
D18*
X40480Y25234D3*
Y27774D3*
Y30314D3*
Y32854D3*
Y35394D3*
Y37934D3*
Y40474D3*
Y43014D3*
Y45554D3*
Y48094D3*
X86200Y25234D3*
Y27774D3*
Y30314D3*
Y32854D3*
Y35394D3*
Y37934D3*
Y40474D3*
Y43014D3*
Y45554D3*
Y48094D3*
X43020D3*
Y45554D3*
Y43014D3*
Y40474D3*
Y37934D3*
Y35394D3*
Y32854D3*
Y30314D3*
Y27774D3*
Y25234D3*
X83660Y48094D3*
Y45554D3*
Y43014D3*
Y40474D3*
Y37934D3*
Y35394D3*
Y32854D3*
Y30314D3*
Y27774D3*
Y25234D3*
D19*
X19207Y21742D3*
X21748D3*
X24287D3*
X55402Y25552D3*
X57942D3*
X60482D3*
D20*
X54762Y35394D3*
X52863D3*
X54762Y39204D3*
X52863D3*
D18*
X57625Y35394D3*
X60165D3*
X57625Y37934D3*
X60165D3*
D21*
X65880Y25234D3*
X68420Y25361D3*
X70960Y25234D3*
X73500Y25361D3*
X76040Y25234D3*
Y27774D3*
X73500Y27901D3*
X70960Y27774D3*
X68420Y27901D3*
X65880Y27774D3*
M02*
