G04 DipTrace 2.3.1.0*
%INbbblp30.GBO*%
%MOMM*%
%ADD10C,0.25*%
%ADD22O,0.635X0.635*%
%ADD52C,0.196*%
%ADD53C,0.235*%
%FSLAX53Y53*%
G04*
G71*
G90*
G75*
G01*
%LNBotSilk*%
%LPD*%
X47148Y34442D2*
D10*
X51593D1*
Y37616D1*
X47148D1*
Y34442D1*
D22*
X47782Y36981D3*
X52848Y33714D2*
D10*
X54147D1*
X46512Y40791D2*
X54133D1*
Y50951D1*
X46512D1*
Y40791D1*
X51434Y27298D2*
X47941D1*
Y30631D1*
X51434D1*
Y27298D1*
X46924Y38956D2*
D52*
Y38045D1*
X46864Y37863D1*
X46742Y37742D1*
X46559Y37680D1*
X46439D1*
X46256Y37742D1*
X46134Y37863D1*
X46074Y38045D1*
Y38956D1*
X45620Y38652D2*
Y38712D1*
X45559Y38834D1*
X45499Y38895D1*
X45377Y38955D1*
X45134D1*
X45013Y38895D1*
X44953Y38834D1*
X44891Y38712D1*
Y38591D1*
X44953Y38469D1*
X45074Y38288D1*
X45681Y37680D1*
X44831D1*
X55001Y35407D2*
X54880Y35467D1*
X54758Y35589D1*
X54698Y35710D1*
Y35953D1*
X54758Y36075D1*
X54880Y36196D1*
X55001Y36258D1*
X55183Y36318D1*
X55488D1*
X55669Y36258D1*
X55791Y36196D1*
X55912Y36075D1*
X55974Y35953D1*
Y35710D1*
X55912Y35589D1*
X55791Y35467D1*
X55669Y35407D1*
X54942Y35015D2*
X54880Y34893D1*
X54699Y34710D1*
X55974D1*
X45243Y50906D2*
Y49935D1*
X45303Y49752D1*
X45365Y49692D1*
X45485Y49630D1*
X45608D1*
X45728Y49692D1*
X45789Y49752D1*
X45850Y49935D1*
Y50056D1*
X44122Y50905D2*
X44728D1*
X44789Y50359D1*
X44728Y50419D1*
X44546Y50481D1*
X44365D1*
X44182Y50419D1*
X44060Y50299D1*
X44000Y50116D1*
Y49995D1*
X44060Y49813D1*
X44182Y49691D1*
X44365Y49630D1*
X44546D1*
X44728Y49691D1*
X44789Y49752D1*
X44850Y49873D1*
X50734Y26169D2*
X50188D1*
X50006Y26230D1*
X49944Y26291D1*
X49884Y26411D1*
Y26534D1*
X49944Y26654D1*
X50006Y26716D1*
X50188Y26776D1*
X50734D1*
Y25500D1*
X50309Y26169D2*
X49884Y25500D1*
X49369Y26775D2*
X48702D1*
X49066Y26289D1*
X48884D1*
X48763Y26229D1*
X48702Y26169D1*
X48641Y25986D1*
Y25865D1*
X48702Y25683D1*
X48823Y25561D1*
X49006Y25500D1*
X49188D1*
X49369Y25561D1*
X49430Y25622D1*
X49491Y25743D1*
X48227Y22791D2*
X47681D1*
X47498Y22853D1*
X47437Y22913D1*
X47376Y23034D1*
Y23156D1*
X47437Y23277D1*
X47498Y23339D1*
X47681Y23399D1*
X48227D1*
Y22123D1*
X47802Y22791D2*
X47376Y22123D1*
X46376D2*
Y23397D1*
X46984Y22548D1*
X46073D1*
X48197Y18981D2*
X47651D1*
X47468Y19043D1*
X47406Y19103D1*
X47346Y19224D1*
Y19346D1*
X47406Y19467D1*
X47468Y19529D1*
X47651Y19589D1*
X48197D1*
Y18313D1*
X47771Y18981D2*
X47346Y18313D1*
X46225Y19587D2*
X46832D1*
X46892Y19041D1*
X46832Y19102D1*
X46649Y19164D1*
X46468D1*
X46286Y19102D1*
X46164Y18981D1*
X46103Y18799D1*
Y18678D1*
X46164Y18495D1*
X46286Y18373D1*
X46468Y18313D1*
X46649D1*
X46832Y18373D1*
X46892Y18435D1*
X46954Y18556D1*
X78538Y55950D2*
D53*
X79202D1*
Y54418D1*
Y55220D2*
X78794D1*
X78209Y55439D2*
Y54710D1*
X78158Y54493D1*
X78055Y54418D1*
X77902D1*
X77801Y54493D1*
X77647Y54710D1*
Y55439D2*
Y54418D1*
X77318Y55950D2*
Y54418D1*
X76989Y55950D2*
Y54418D1*
X76607Y55439D2*
X76302Y54418D1*
X76403Y54127D1*
X76506Y53980D1*
X76607Y53908D1*
X76659D1*
X75995Y55439D2*
X76302Y54418D1*
X74016Y55220D2*
X74118Y55367D1*
X74221Y55439D1*
X74373D1*
X74476Y55367D1*
X74577Y55220D1*
X74629Y55001D1*
Y54856D1*
X74577Y54637D1*
X74476Y54493D1*
X74373Y54418D1*
X74221D1*
X74118Y54493D1*
X74016Y54637D1*
X73432Y55439D2*
X73533Y55367D1*
X73636Y55220D1*
X73686Y55001D1*
Y54856D1*
X73636Y54637D1*
X73533Y54493D1*
X73432Y54418D1*
X73278D1*
X73176Y54493D1*
X73074Y54637D1*
X73022Y54856D1*
Y55001D1*
X73074Y55220D1*
X73176Y55367D1*
X73278Y55439D1*
X73432D1*
X72693D2*
Y54418D1*
Y55148D2*
X72540Y55367D1*
X72437Y55439D1*
X72285D1*
X72182Y55367D1*
X72132Y55148D1*
Y54418D1*
Y55148D2*
X71978Y55367D1*
X71876Y55439D1*
X71724D1*
X71621Y55367D1*
X71569Y55148D1*
Y54418D1*
X71240Y55439D2*
Y53908D1*
Y55220D2*
X71137Y55365D1*
X71036Y55439D1*
X70882D1*
X70780Y55365D1*
X70678Y55220D1*
X70626Y55001D1*
Y54855D1*
X70678Y54637D1*
X70780Y54491D1*
X70882Y54418D1*
X71036D1*
X71137Y54491D1*
X71240Y54637D1*
X69685Y55439D2*
Y54418D1*
Y55220D2*
X69786Y55367D1*
X69889Y55439D1*
X70041D1*
X70144Y55367D1*
X70245Y55220D1*
X70297Y55001D1*
Y54856D1*
X70245Y54637D1*
X70144Y54493D1*
X70041Y54418D1*
X69889D1*
X69786Y54493D1*
X69685Y54637D1*
X69202Y55950D2*
Y54710D1*
X69152Y54493D1*
X69049Y54418D1*
X68948D1*
X69356Y55439D2*
X68998D1*
X68618Y55950D2*
X68568Y55877D1*
X68516Y55950D1*
X68568Y56024D1*
X68618Y55950D1*
X68568Y55439D2*
Y54418D1*
X68186Y55950D2*
Y54418D1*
Y55220D2*
X68084Y55367D1*
X67982Y55439D1*
X67829D1*
X67727Y55367D1*
X67625Y55220D1*
X67574Y55001D1*
Y54856D1*
X67625Y54637D1*
X67727Y54493D1*
X67829Y54418D1*
X67982D1*
X68084Y54493D1*
X68186Y54637D1*
X67245Y55950D2*
Y54418D1*
X66915Y55001D2*
X66303D1*
Y55148D1*
X66354Y55294D1*
X66405Y55367D1*
X66507Y55439D1*
X66661D1*
X66762Y55367D1*
X66865Y55220D1*
X66915Y55001D1*
Y54856D1*
X66865Y54637D1*
X66762Y54493D1*
X66661Y54418D1*
X66507D1*
X66405Y54493D1*
X66303Y54637D1*
X64937Y55439D2*
X64733Y54418D1*
X64529Y55439D1*
X64325Y54418D1*
X64121Y55439D1*
X63792Y55950D2*
X63741Y55877D1*
X63689Y55950D1*
X63741Y56024D1*
X63792Y55950D1*
X63741Y55439D2*
Y54418D1*
X63206Y55950D2*
Y54710D1*
X63156Y54493D1*
X63053Y54418D1*
X62952D1*
X63360Y55439D2*
X63002D1*
X62622Y55950D2*
Y54418D1*
Y55148D2*
X62469Y55367D1*
X62366Y55439D1*
X62213D1*
X62111Y55367D1*
X62061Y55148D1*
Y54418D1*
X60694Y55950D2*
Y54418D1*
X60235D1*
X60081Y54493D1*
X60031Y54565D1*
X59980Y54710D1*
Y54929D1*
X60031Y55075D1*
X60081Y55148D1*
X60235Y55220D1*
X60081Y55294D1*
X60031Y55367D1*
X59980Y55512D1*
Y55658D1*
X60031Y55803D1*
X60081Y55877D1*
X60235Y55950D1*
X60694D1*
Y55220D2*
X60235D1*
X59650Y55001D2*
X59038D1*
Y55148D1*
X59089Y55294D1*
X59140Y55367D1*
X59242Y55439D1*
X59396D1*
X59497Y55367D1*
X59600Y55220D1*
X59650Y55001D1*
Y54856D1*
X59600Y54637D1*
X59497Y54493D1*
X59396Y54418D1*
X59242D1*
X59140Y54493D1*
X59038Y54637D1*
X58097Y55439D2*
Y54418D1*
Y55220D2*
X58198Y55367D1*
X58301Y55439D1*
X58453D1*
X58556Y55367D1*
X58657Y55220D1*
X58709Y55001D1*
Y54856D1*
X58657Y54637D1*
X58556Y54493D1*
X58453Y54418D1*
X58301D1*
X58198Y54493D1*
X58097Y54637D1*
X57156Y55367D2*
Y54199D1*
X57206Y53982D1*
X57257Y53908D1*
X57360Y53836D1*
X57513D1*
X57614Y53908D1*
X57156Y55148D2*
X57257Y55293D1*
X57360Y55367D1*
X57513D1*
X57614Y55293D1*
X57717Y55148D1*
X57768Y54929D1*
Y54782D1*
X57717Y54565D1*
X57614Y54418D1*
X57513Y54346D1*
X57360D1*
X57257Y54418D1*
X57156Y54565D1*
X56826Y55950D2*
Y54418D1*
X56497Y55001D2*
X55885D1*
Y55148D1*
X55935Y55294D1*
X55986Y55367D1*
X56089Y55439D1*
X56242D1*
X56343Y55367D1*
X56446Y55220D1*
X56497Y55001D1*
Y54856D1*
X56446Y54637D1*
X56343Y54493D1*
X56242Y54418D1*
X56089D1*
X55986Y54493D1*
X55885Y54637D1*
X55555Y55950D2*
Y54418D1*
X55095D1*
X54942Y54493D1*
X54891Y54565D1*
X54841Y54710D1*
Y54929D1*
X54891Y55075D1*
X54942Y55148D1*
X55095Y55220D1*
X54942Y55294D1*
X54891Y55367D1*
X54841Y55512D1*
Y55658D1*
X54891Y55803D1*
X54942Y55877D1*
X55095Y55950D1*
X55555D1*
Y55220D2*
X55095D1*
X54257Y55439D2*
X54358Y55367D1*
X54461Y55220D1*
X54511Y55001D1*
Y54856D1*
X54461Y54637D1*
X54358Y54493D1*
X54257Y54418D1*
X54103D1*
X54001Y54493D1*
X53899Y54637D1*
X53847Y54856D1*
Y55001D1*
X53899Y55220D1*
X54001Y55367D1*
X54103Y55439D1*
X54257D1*
X53518D2*
Y54418D1*
Y55148D2*
X53365Y55367D1*
X53262Y55439D1*
X53110D1*
X53007Y55367D1*
X52957Y55148D1*
Y54418D1*
X52627Y55001D2*
X52015D1*
Y55148D1*
X52066Y55294D1*
X52117Y55367D1*
X52219Y55439D1*
X52372D1*
X52474Y55367D1*
X52576Y55220D1*
X52627Y55001D1*
Y54856D1*
X52576Y54637D1*
X52474Y54493D1*
X52372Y54418D1*
X52219D1*
X52117Y54493D1*
X52015Y54637D1*
X50649Y55950D2*
Y54418D1*
X50189D1*
X50036Y54493D1*
X49985Y54565D1*
X49934Y54710D1*
Y54929D1*
X49985Y55075D1*
X50036Y55148D1*
X50189Y55220D1*
X50036Y55294D1*
X49985Y55367D1*
X49934Y55512D1*
Y55658D1*
X49985Y55803D1*
X50036Y55877D1*
X50189Y55950D1*
X50649D1*
Y55220D2*
X50189D1*
X49605Y55950D2*
Y54418D1*
X48663Y55439D2*
Y54418D1*
Y55220D2*
X48765Y55367D1*
X48867Y55439D1*
X49019D1*
X49122Y55367D1*
X49223Y55220D1*
X49275Y55001D1*
Y54856D1*
X49223Y54637D1*
X49122Y54493D1*
X49019Y54418D1*
X48867D1*
X48765Y54493D1*
X48663Y54637D1*
X47721Y55220D2*
X47823Y55367D1*
X47926Y55439D1*
X48078D1*
X48181Y55367D1*
X48282Y55220D1*
X48334Y55001D1*
Y54856D1*
X48282Y54637D1*
X48181Y54493D1*
X48078Y54418D1*
X47926D1*
X47823Y54493D1*
X47721Y54637D1*
X47391Y55950D2*
Y54418D1*
X46881Y55439D2*
X47391Y54710D1*
X47187Y55001D2*
X46830Y54418D1*
X53553Y51561D2*
X53962Y53092D1*
X54370Y51561D1*
X54217Y52071D2*
X53706D1*
X53172Y52727D2*
Y52799D1*
X53121Y52946D1*
X53070Y53018D1*
X52968Y53091D1*
X52764D1*
X52662Y53018D1*
X52612Y52946D1*
X52560Y52799D1*
Y52654D1*
X52612Y52508D1*
X52713Y52290D1*
X53224Y51561D1*
X52509D1*
X50325D2*
X50735Y53092D1*
X51143Y51561D1*
X50989Y52071D2*
X50479D1*
X49996Y52799D2*
X49893Y52873D1*
X49740Y53091D1*
Y51561D1*
X47557D2*
X47966Y53092D1*
X48374Y51561D1*
X48220Y52071D2*
X47710D1*
X46921Y53091D2*
X47074Y53018D1*
X47176Y52799D1*
X47227Y52435D1*
Y52216D1*
X47176Y51852D1*
X47074Y51633D1*
X46921Y51561D1*
X46819D1*
X46666Y51633D1*
X46564Y51852D1*
X46513Y52216D1*
Y52435D1*
X46564Y52799D1*
X46666Y53018D1*
X46819Y53091D1*
X46921D1*
X46564Y52799D2*
X47176Y51852D1*
X56947Y41155D2*
X57091Y41104D1*
X57238Y41001D1*
X57310Y40900D1*
Y40696D1*
X57238Y40593D1*
X57091Y40492D1*
X56947Y40440D1*
X56728Y40389D1*
X56362D1*
X56145Y40440D1*
X55998Y40492D1*
X55853Y40593D1*
X55779Y40696D1*
Y40900D1*
X55853Y41001D1*
X55998Y41104D1*
X56145Y41155D1*
X56800Y42096D2*
X55779D1*
X56581D2*
X56728Y41995D1*
X56800Y41892D1*
Y41740D1*
X56728Y41637D1*
X56581Y41536D1*
X56362Y41484D1*
X56217D1*
X55998Y41536D1*
X55853Y41637D1*
X55779Y41740D1*
Y41892D1*
X55853Y41995D1*
X55998Y42096D1*
X56800Y42425D2*
X55269D1*
X56581D2*
X56726Y42528D1*
X56800Y42629D1*
Y42783D1*
X56726Y42885D1*
X56581Y42987D1*
X56362Y43039D1*
X56215D1*
X55998Y42987D1*
X55852Y42885D1*
X55779Y42783D1*
Y42629D1*
X55852Y42528D1*
X55998Y42425D1*
X56362Y43368D2*
Y43980D1*
X56509D1*
X56655Y43929D1*
X56728Y43879D1*
X56800Y43776D1*
Y43623D1*
X56728Y43521D1*
X56581Y43419D1*
X56362Y43368D1*
X56217D1*
X55998Y43419D1*
X55853Y43521D1*
X55779Y43623D1*
Y43776D1*
X55853Y43879D1*
X55998Y43980D1*
X57310Y46009D2*
Y45346D1*
X55779D1*
Y46009D1*
X56581Y45346D2*
Y45754D1*
X57310Y47001D2*
Y46339D1*
X55779D1*
Y47001D1*
X56581Y46339D2*
Y46747D1*
X56509Y47331D2*
Y47791D1*
X56581Y47943D1*
X56655Y47995D1*
X56800Y48045D1*
X57019D1*
X57164Y47995D1*
X57238Y47943D1*
X57310Y47791D1*
Y47331D1*
X55779D1*
X56581Y48375D2*
Y48833D1*
X56655Y48987D1*
X56728Y49039D1*
X56872Y49089D1*
X57019D1*
X57164Y49039D1*
X57238Y48987D1*
X57310Y48833D1*
Y48375D1*
X55779D1*
X56581Y48732D2*
X55779Y49089D1*
X57310Y49725D2*
X57238Y49623D1*
X57091Y49521D1*
X56947Y49469D1*
X56728Y49419D1*
X56362D1*
X56145Y49469D1*
X55998Y49521D1*
X55853Y49623D1*
X55779Y49725D1*
Y49929D1*
X55853Y50031D1*
X55998Y50133D1*
X56145Y50184D1*
X56362Y50235D1*
X56728D1*
X56947Y50184D1*
X57091Y50133D1*
X57238Y50031D1*
X57310Y49929D1*
Y49725D1*
X55779Y51380D2*
X57310D1*
X55779Y50972D1*
X57310Y50564D1*
X55779D1*
M02*
