M48
METRIC,0000.00
T01C0.4
T02C0.6
T03C0.762
T04C0.9
T05C1.0
T06C1.016
T07C1.1
T08C1.4
T09C2.0
T10C2.9
%
T01
X+002477Y+006223
X+002542Y+006323
X+002607Y+006223
X+002672Y+006323
X+002737Y+006223
X+002964Y+006210G85X+002964Y+006280
X+002250Y+006210G85X+002250Y+006280
T02
X+005840Y+005662
X+005988Y+005514
T03
X+004953Y+004667
X+004953Y+005128
X+005255Y+005286
X+005180Y+005688
X+005005Y+005640
X+005037Y+005926
X+004465Y+005926
X+004365Y+005582
X+004212Y+005582
X+003941Y+005338
X+003941Y+004926
X+004052Y+004783
X+004257Y+004631
X+004450Y+004594
X+004751Y+004100
X+005100Y+004116
X+005144Y+003826
X+005291Y+003863
X+005429Y+004667
X+005602Y+004966
X+006005Y+005021
X+006287Y+005794
X+005858Y+006001
X+005624Y+006132
X+006005Y+006672
X+006005Y+006942
X+006005Y+007132
X+006277Y+006937
X+006477Y+007096
X+005727Y+006927
X+006001Y+007715
X+005461Y+007826
X+005334Y+008541
X+004826Y+007116
X+004005Y+007103
X+003524Y+007565
X+003044Y+008045
X+002985Y+008223
X+002508Y+008223
X+002540Y+008049
X+002096Y+008144
X+002619Y+006890
X+002969Y+006874
X+002953Y+006398
X+003508Y+006636
X+003508Y+005794
X+003048Y+005747
X+002508Y+004223
X+002048Y+003842
X+002159Y+003350
X+002751Y+002782
X+003032Y+003032
X+003132Y+002782
X+003508Y+002905
X+003969Y+002969
X+003973Y+002386
X+003703Y+002195
X+003651Y+001683
X+003413Y+001556
X+002556Y+001556
X+002223Y+001699
X+004260Y+002202
X+004651Y+002794
X+005620Y+003048
X+006580Y+003612
X+006509Y+003794
X+006774Y+004489
X+007238Y+004274
X+007461Y+004509
X+007763Y+004270
X+007938Y+004477
X+007473Y+004044
X+007493Y+005032
X+007842Y+005302
X+006953Y+005096
X+007191Y+006445
X+007779Y+008430
X+003413Y+008747
X+001445Y+006223
X+000191Y+005763
X+003735Y+003735
X+008588Y+004080
T04
X+004636Y+002222
X+005180Y+003052
X+005180Y+003306
X+005180Y+003560
X+005751Y+003703
X+006196Y+005259
X+005650Y+005852
X+006604Y+006842
X+004778Y+007683
X+004449Y+006672
X+004195Y+006672
X+003941Y+006672
X+003687Y+006672
X+002746Y+005175
X+006636Y+001397
T05
X+008842Y+006302
X+008588Y+006302
X+008334Y+006302
T06
X+007042Y+003252
X+006788Y+003278
X+006534Y+003252
X+006280Y+003278
X+006025Y+003252
X+005772Y+003278
T07
X+007339Y+003005
X+007339Y+003259
X+007593Y+003259
X+007593Y+003005
X+007847Y+003005
X+007847Y+003259
X+008101Y+003259
X+008101Y+003005
T08
X+007620Y+001349
X+007270Y+001349
X+000643Y+001794
X+000643Y+002144
X+000643Y+002494
X+000643Y+002844
X+000627Y+004380
X+000627Y+004730
X+000627Y+005080
X+000627Y+005430
X+000608Y+006545
X+000608Y+006895
X+000608Y+007245
X+004794Y+008301
X+004794Y+008651
X+004794Y+009001
T09
X+002977Y+001550
T10
X+001000Y+008500
X+008500Y+008500
X+008500Y+001000
X+001000Y+001000
T00
M30
