G04 DipTrace 3.3.1.3*
G04 HypermaqBottomsidev0.1.gbl*
%MOMM*%
G04 #@! TF.FileFunction,Copper,L2,Bot*
G04 #@! TF.Part,Single*
G04 #@! TA.AperFunction,Conductor*
%ADD14C,0.381*%
%ADD16C,0.508*%
G04 #@! TA.AperFunction,ComponentPad*
%ADD19C,2.0*%
G04 #@! TA.AperFunction,Conductor*
%ADD22C,0.762*%
%ADD29C,0.635*%
G04 #@! TA.AperFunction,CopperBalancing*
%ADD32C,0.29973*%
%ADD33C,0.3302*%
G04 #@! TA.AperFunction,ComponentPad*
%ADD47O,1.7X2.0*%
%ADD48R,1.7X2.0*%
%ADD50C,2.5*%
%ADD51R,2.5X2.5*%
%ADD55C,0.9*%
%ADD56O,0.8X1.35*%
%ADD57O,2.0X1.7*%
%ADD58R,2.0X1.7*%
%ADD61C,1.8796*%
%ADD65R,1.7X1.7*%
%ADD66C,1.7*%
%ADD75C,3.0*%
%ADD78R,2.0X3.0*%
%ADD79O,2.0X3.0*%
%ADD85C,1.2*%
G04 #@! TA.AperFunction,ViaPad*
%ADD86C,1.27*%
%FSLAX35Y35*%
G04*
G71*
G90*
G75*
G01*
G04 Bottom*
%LPD*%
X4364850Y5582250D2*
D14*
X4320400Y5537800D1*
Y4749687D1*
Y4724397D1*
X4450483Y4594313D1*
X4212450Y5582250D2*
X4256900Y5537800D1*
Y4749687D1*
Y4631337D1*
X3131753Y2782500D2*
X2750750D1*
X2736500Y6223003D2*
X2752370Y6238873D1*
X2793997D1*
X2952750Y6397627D1*
X4465250Y5925750D2*
X4719250D1*
X5005000Y5640000D1*
X3941373Y4925627D2*
Y5338373D1*
X3508373Y5794377D2*
Y6635750D1*
X3524250Y7565253D2*
X3044440Y8045063D1*
X2508250Y8223250D2*
D22*
X2984500D1*
X5624127Y6132123D2*
D16*
X5179630Y5687627D1*
X6774137Y4489060D2*
D22*
X6148003Y3862927D1*
X6025500Y3740423D1*
Y3252250D1*
X6148003Y3862927D2*
X5290750D1*
X4826000Y7116377D2*
D29*
Y7103500D1*
X4004873D1*
D86*
X4364850Y5582250D3*
X4450483Y4594313D3*
X4212450Y5582250D3*
X4256900Y4631337D3*
X3131753Y2782500D3*
X2750750D3*
X2952750Y6397627D3*
X4465250Y5925750D3*
X5005000Y5640000D3*
X3941373Y4925627D3*
Y5338373D3*
X3508373Y5794377D3*
Y6635750D3*
X3524250Y7565253D3*
X3044440Y8045063D3*
X2508250Y8223250D3*
X2984500D3*
X5624127Y6132123D3*
X5179630Y5687627D3*
X6774137Y4489060D3*
X5290750Y3862927D3*
X4826000Y7116377D3*
X4004873Y7103500D3*
X4953000Y4667253D3*
X5429250D3*
X4953000Y5127623D3*
X5619750Y3048000D3*
X5857873Y6000750D3*
X6286500Y5794377D3*
X5036750Y5925750D3*
X6005123Y5020873D3*
X5143500Y3825873D3*
X4052500Y4782750D3*
X6579750Y3612250D3*
X6508750Y3794127D3*
X6005123Y7132250D3*
X5100250Y4116000D3*
X5601693Y4966247D3*
X5254623Y5286377D3*
X2047873Y3841750D3*
X3032123Y3032127D3*
X2159000Y3349627D3*
X2508250Y4222750D3*
X190500Y5762627D3*
X2968623Y6873877D3*
X2095500Y8143877D3*
X2619373Y6889750D3*
X2540000Y8048627D3*
X7461250Y4508503D3*
X7493000Y5032377D3*
X7937500Y4476753D3*
X8588373Y4079877D3*
X6953250Y5095877D3*
X4259750Y2202250D3*
X3968750Y2968627D3*
X1444623Y6223000D3*
X3508373Y2905127D3*
X4651373Y2794000D3*
X7842250Y5302250D3*
X3048000Y5746750D3*
X6000750Y7715250D3*
X5461000Y7826377D3*
X6477000Y7096127D3*
X4751000Y4100120D3*
X3973123Y2385620D3*
X5727250Y6927000D3*
X6005123Y6671873D3*
X3703250Y2195123D3*
X6277250Y6937000D3*
X7472750Y4043757D3*
X7238000Y4273997D3*
X7762873Y4270377D3*
X3413123Y8747127D3*
X5334000Y8540750D3*
X7778750Y8429627D3*
X3413123Y1555750D3*
X2555873D3*
X3651250Y1682750D3*
X2222500Y1698627D3*
X7191373Y6445250D3*
X3735000Y3734997D3*
X6005123Y6941753D3*
X776373Y9389333D2*
D32*
X8723849D1*
X681536Y9359693D2*
X8818687D1*
X611578Y9330053D2*
X8888703D1*
X553330Y9300413D2*
X8946893D1*
X503920Y9270773D2*
X8996361D1*
X461770Y9241133D2*
X9038511D1*
X421786Y9211493D2*
X9078436D1*
X388827Y9181853D2*
X4780249D1*
X4808255D2*
X9111454D1*
X356103Y9152213D2*
X4691499D1*
X4897004D2*
X9144120D1*
X328764Y9122573D2*
X4656960D1*
X4931544D2*
X9171518D1*
X301893Y9092933D2*
X4635182D1*
X4953321D2*
X9198388D1*
X278242Y9063293D2*
X4621191D1*
X4967313D2*
X9221980D1*
X256289Y9033653D2*
X4613112D1*
X4975391D2*
X9243992D1*
X235214Y9004013D2*
X4610185D1*
X4978260D2*
X9265009D1*
X217476Y8974373D2*
X4612175D1*
X4976328D2*
X9282805D1*
X199679Y8944733D2*
X4619200D1*
X4969303D2*
X9300543D1*
X184224Y8915093D2*
X4631963D1*
X4956541D2*
X9316057D1*
X170174Y8885453D2*
X4651984D1*
X4936520D2*
X9330048D1*
X156183Y8855813D2*
X3360320D1*
X3465953D2*
X4683245D1*
X4905258D2*
X9344098D1*
X145060Y8826173D2*
X3320395D1*
X3505820D2*
X4744597D1*
X4843907D2*
X9355163D1*
X134464Y8796533D2*
X3301252D1*
X3525022D2*
X4683362D1*
X4905141D2*
X9365759D1*
X123868Y8766893D2*
X3292237D1*
X3534037D2*
X4652042D1*
X4936461D2*
X9376355D1*
X116433Y8737253D2*
X3290949D1*
X3535266D2*
X4631963D1*
X4956541D2*
X9383848D1*
X108998Y8707613D2*
X939915D1*
X1060066D2*
X3297271D1*
X3528944D2*
X4619200D1*
X4969245D2*
X8439922D1*
X8560073D2*
X9391224D1*
X101681Y8677973D2*
X875812D1*
X1124169D2*
X3312609D1*
X3513665D2*
X4612175D1*
X4976328D2*
X8375819D1*
X8624176D2*
X9398542D1*
X97290Y8648333D2*
X840921D1*
X1159060D2*
X3342758D1*
X3483457D2*
X4610185D1*
X4978260D2*
X5278848D1*
X5389164D2*
X8340928D1*
X8659067D2*
X9402933D1*
X92899Y8618693D2*
X817329D1*
X1182652D2*
X4613112D1*
X4975391D2*
X5240328D1*
X5427684D2*
X8317336D1*
X8682660D2*
X9407323D1*
X88626Y8589053D2*
X800937D1*
X1199044D2*
X4621191D1*
X4967313D2*
X5221653D1*
X5446359D2*
X8300944D1*
X8699051D2*
X9411655D1*
X87162Y8559413D2*
X790049D1*
X1209933D2*
X4635124D1*
X4953380D2*
X5212930D1*
X5455082D2*
X8290056D1*
X8709940D2*
X9413060D1*
X85699Y8529773D2*
X783726D1*
X1216255D2*
X4656901D1*
X4931602D2*
X5211935D1*
X5456077D2*
X7710435D1*
X7847036D2*
X8283733D1*
X8716262D2*
X9414524D1*
X84235Y8500133D2*
X781677D1*
X1218304D2*
X4691324D1*
X4897180D2*
X5218550D1*
X5449462D2*
X7679173D1*
X7878297D2*
X8281684D1*
X8718311D2*
X9415988D1*
X84177Y8470493D2*
X783726D1*
X1216314D2*
X4610185D1*
X4978318D2*
X5234239D1*
X5433714D2*
X7663367D1*
X7894103D2*
X8283733D1*
X8716262D2*
X9416105D1*
X84177Y8440853D2*
X789990D1*
X1210050D2*
X4610185D1*
X4978318D2*
X5265325D1*
X5402687D2*
X7656693D1*
X7900777D2*
X8289939D1*
X8710057D2*
X9416105D1*
X84177Y8411213D2*
X800820D1*
X1199161D2*
X4610185D1*
X4978318D2*
X7657630D1*
X7899899D2*
X8300827D1*
X8699168D2*
X9416105D1*
X84177Y8381573D2*
X817153D1*
X1182828D2*
X4610185D1*
X4978318D2*
X7666294D1*
X7891235D2*
X8317160D1*
X8682835D2*
X9416105D1*
X84177Y8351933D2*
X840687D1*
X1159353D2*
X4610185D1*
X4978318D2*
X7684852D1*
X7872618D2*
X8340694D1*
X8659301D2*
X9416105D1*
X84177Y8322293D2*
X875402D1*
X1124579D2*
X2438289D1*
X2578227D2*
X2914526D1*
X3054464D2*
X4610185D1*
X4978318D2*
X7723080D1*
X7834449D2*
X8375409D1*
X8624586D2*
X9416105D1*
X84177Y8292653D2*
X938979D1*
X1061061D2*
X2407906D1*
X3084847D2*
X4610185D1*
X4978318D2*
X8438927D1*
X8561068D2*
X9416105D1*
X84177Y8263013D2*
X2082414D1*
X2108547D2*
X2392510D1*
X3100243D2*
X4610185D1*
X4978318D2*
X9416105D1*
X84177Y8233373D2*
X2013218D1*
X2177802D2*
X2386129D1*
X3106624D2*
X4610185D1*
X4978318D2*
X9416105D1*
X84177Y8203733D2*
X1988982D1*
X2201980D2*
X2387299D1*
X3105453D2*
X4610185D1*
X4978318D2*
X9416105D1*
X84177Y8174093D2*
X1976805D1*
X2214157D2*
X2396256D1*
X3096497D2*
X4610185D1*
X4978318D2*
X9416105D1*
X84177Y8144453D2*
X1972942D1*
X2218079D2*
X2415341D1*
X3113883D2*
X4610185D1*
X4978318D2*
X9416105D1*
X84177Y8114813D2*
X1976513D1*
X2214449D2*
X2437411D1*
X2642565D2*
X2931152D1*
X3144559D2*
X9416105D1*
X84177Y8085173D2*
X1988338D1*
X2202682D2*
X2423185D1*
X2656849D2*
X2928810D1*
X3160073D2*
X9416105D1*
X84177Y8055533D2*
X2011930D1*
X2179090D2*
X2417624D1*
X2662352D2*
X2922312D1*
X3166512D2*
X9416105D1*
X84177Y8025893D2*
X2073165D1*
X2117856D2*
X2419614D1*
X2660361D2*
X2923424D1*
X3172835D2*
X9416105D1*
X84177Y7996253D2*
X2429508D1*
X2650468D2*
X2932322D1*
X3202457D2*
X9416105D1*
X84177Y7966613D2*
X2449998D1*
X2629978D2*
X2951231D1*
X3232138D2*
X9416105D1*
X84177Y7936973D2*
X2494255D1*
X2585779D2*
X2990337D1*
X3261760D2*
X5412557D1*
X5509408D2*
X9416105D1*
X84177Y7907333D2*
X3072939D1*
X3291382D2*
X5369997D1*
X5551968D2*
X9416105D1*
X84177Y7877693D2*
X3102562D1*
X3321004D2*
X5350035D1*
X5571990D2*
X9416105D1*
X84177Y7848053D2*
X3132242D1*
X3350685D2*
X5340434D1*
X5581590D2*
X9416105D1*
X84177Y7818413D2*
X3161864D1*
X3380307D2*
X4696944D1*
X4859830D2*
X5338678D1*
X5583288D2*
X5937325D1*
X6064208D2*
X9416105D1*
X84177Y7788773D2*
X3191486D1*
X3409929D2*
X4660180D1*
X4896594D2*
X5344532D1*
X5577492D2*
X5903488D1*
X6098045D2*
X9416105D1*
X84177Y7759133D2*
X3221167D1*
X3439609D2*
X4638870D1*
X4917903D2*
X5359167D1*
X5562857D2*
X5886510D1*
X6114963D2*
X9416105D1*
X84177Y7729493D2*
X3250789D1*
X3469231D2*
X4626225D1*
X4930490D2*
X5387911D1*
X5534055D2*
X5879017D1*
X6122457D2*
X9416105D1*
X84177Y7699853D2*
X3280411D1*
X3498853D2*
X4620196D1*
X4936578D2*
X5879193D1*
X6122340D2*
X9416105D1*
X84177Y7670213D2*
X3310092D1*
X3584500D2*
X4619903D1*
X4936871D2*
X5886979D1*
X6114495D2*
X9416105D1*
X84177Y7640573D2*
X3339714D1*
X3620093D2*
X4625347D1*
X4931427D2*
X5904366D1*
X6097108D2*
X9416105D1*
X84177Y7610933D2*
X3369336D1*
X3637714D2*
X4637231D1*
X4919543D2*
X5939315D1*
X6062159D2*
X9416105D1*
X84177Y7581293D2*
X3399017D1*
X3645735D2*
X4657428D1*
X4899287D2*
X9416105D1*
X84177Y7551653D2*
X3402470D1*
X3646027D2*
X4691851D1*
X4864865D2*
X9416105D1*
X84177Y7522013D2*
X3409788D1*
X3638710D2*
X9416105D1*
X84177Y7492373D2*
X3426473D1*
X3622025D2*
X9416105D1*
X84177Y7462733D2*
X3459724D1*
X3588773D2*
X9416105D1*
X84177Y7433093D2*
X9416105D1*
X84177Y7403453D2*
X423578D1*
X791653D2*
X9416105D1*
X84177Y7373813D2*
X423578D1*
X791653D2*
X9416105D1*
X84177Y7344173D2*
X423578D1*
X791653D2*
X9416105D1*
X84177Y7314533D2*
X423578D1*
X791653D2*
X9416105D1*
X84177Y7284893D2*
X423578D1*
X791653D2*
X9416105D1*
X84177Y7255253D2*
X423578D1*
X791653D2*
X9416105D1*
X84177Y7225613D2*
X423578D1*
X791653D2*
X4774394D1*
X4877627D2*
X5927431D1*
X6082824D2*
X9416105D1*
X84177Y7195973D2*
X423578D1*
X791653D2*
X3926067D1*
X4083685D2*
X4733767D1*
X4918196D2*
X5900970D1*
X6109285D2*
X6408234D1*
X6545772D2*
X9416105D1*
X84177Y7166333D2*
X423578D1*
X791653D2*
X3900133D1*
X4937632D2*
X5887506D1*
X6122750D2*
X6377207D1*
X6576799D2*
X9416105D1*
X84177Y7136693D2*
X423578D1*
X791653D2*
X3887020D1*
X4946823D2*
X5882647D1*
X6127608D2*
X6361518D1*
X6592488D2*
X9416105D1*
X84177Y7107053D2*
X423578D1*
X791653D2*
X3882395D1*
X4948170D2*
X5885223D1*
X6124974D2*
X6354961D1*
X6599045D2*
X9416105D1*
X84177Y7077413D2*
X423578D1*
X791653D2*
X3885205D1*
X4942023D2*
X5895877D1*
X6114378D2*
X6355898D1*
X6598108D2*
X9416105D1*
X84177Y7047773D2*
X507644D1*
X707587D2*
X3896094D1*
X4926919D2*
X5917538D1*
X6092718D2*
X6229272D1*
X6325245D2*
X6364679D1*
X6589327D2*
X9416105D1*
X84177Y7018133D2*
X471992D1*
X743239D2*
X3918164D1*
X4897121D2*
X5646841D1*
X5807620D2*
X5910161D1*
X6100094D2*
X6186419D1*
X6368039D2*
X6383406D1*
X6570593D2*
X9416105D1*
X84177Y6988493D2*
X449629D1*
X765602D2*
X2548933D1*
X2689808D2*
X2931620D1*
X3005640D2*
X3969212D1*
X4040540D2*
X5621727D1*
X5832793D2*
X5892072D1*
X6118183D2*
X6166340D1*
X6388177D2*
X6421933D1*
X6661157D2*
X9416105D1*
X84177Y6958853D2*
X435228D1*
X780003D2*
X2518784D1*
X2719957D2*
X2881508D1*
X3055752D2*
X5609023D1*
X5845496D2*
X5883818D1*
X6126438D2*
X6156680D1*
X6397778D2*
X6497393D1*
X6710566D2*
X9416105D1*
X84177Y6929213D2*
X426856D1*
X788374D2*
X2503505D1*
X2735236D2*
X2859614D1*
X3077588D2*
X5604691D1*
X5849770D2*
X5883232D1*
X6127023D2*
X6154924D1*
X6399535D2*
X6471517D1*
X6736500D2*
X9416105D1*
X84177Y6899573D2*
X423636D1*
X791594D2*
X2497241D1*
X2741500D2*
X2848842D1*
X3088418D2*
X5607852D1*
X5846608D2*
X5890257D1*
X6119998D2*
X6160720D1*
X6393797D2*
X6455887D1*
X6752131D2*
X9416105D1*
X84177Y6869933D2*
X425275D1*
X789955D2*
X2498470D1*
X2740271D2*
X2846149D1*
X3091111D2*
X5619209D1*
X5835310D2*
X5906532D1*
X6103723D2*
X6175297D1*
X6379221D2*
X6447457D1*
X6760561D2*
X9416105D1*
X84177Y6840293D2*
X432008D1*
X783281D2*
X2507544D1*
X2731197D2*
X2850891D1*
X3086369D2*
X5641923D1*
X5812596D2*
X5938847D1*
X6071350D2*
X6203923D1*
X6350535D2*
X6444939D1*
X6763020D2*
X9416105D1*
X84177Y6810653D2*
X444360D1*
X770929D2*
X2526687D1*
X2712053D2*
X2864121D1*
X3073080D2*
X3616733D1*
X3758017D2*
X3870745D1*
X4012030D2*
X4124699D1*
X4266042D2*
X4305300D1*
X4593407D2*
X5696718D1*
X5757801D2*
X6448159D1*
X6759858D2*
X9416105D1*
X84177Y6781013D2*
X463854D1*
X751376D2*
X2566671D1*
X2672070D2*
X2890289D1*
X3046912D2*
X3579325D1*
X3795426D2*
X3833337D1*
X4049438D2*
X4087349D1*
X4593407D2*
X5953307D1*
X6056949D2*
X6457409D1*
X6750609D2*
X9416105D1*
X84177Y6751373D2*
X494238D1*
X721051D2*
X3474945D1*
X3541823D2*
X3558952D1*
X4593407D2*
X5912796D1*
X6097401D2*
X6474035D1*
X6733983D2*
X9416105D1*
X84177Y6721733D2*
X551667D1*
X663563D2*
X3422316D1*
X4593407D2*
X5893477D1*
X6116778D2*
X6501725D1*
X6706293D2*
X9416105D1*
X84177Y6692093D2*
X499214D1*
X716017D2*
X3399895D1*
X4593407D2*
X5884286D1*
X6125969D2*
X6558042D1*
X6649976D2*
X9416105D1*
X84177Y6662453D2*
X466957D1*
X748332D2*
X3388830D1*
X4593407D2*
X5882939D1*
X6127316D2*
X9416105D1*
X84177Y6632813D2*
X446350D1*
X768880D2*
X3385845D1*
X4593407D2*
X5889145D1*
X6121110D2*
X9416105D1*
X84177Y6603173D2*
X433179D1*
X782052D2*
X3390352D1*
X4593407D2*
X5904249D1*
X6105948D2*
X9416105D1*
X84177Y6573533D2*
X425861D1*
X789370D2*
X3403290D1*
X3804207D2*
X3824559D1*
X4058161D2*
X4078575D1*
X4593407D2*
X5934105D1*
X6076150D2*
X9416105D1*
X84177Y6543893D2*
X423578D1*
X791653D2*
X3428814D1*
X3774819D2*
X3853885D1*
X4028831D2*
X4107898D1*
X4282843D2*
X4305300D1*
X4593407D2*
X7120803D1*
X7261912D2*
X9416105D1*
X84177Y6514253D2*
X426154D1*
X789077D2*
X2923424D1*
X2982106D2*
X3430278D1*
X3586490D2*
X7090713D1*
X7292002D2*
X9416105D1*
X84177Y6484613D2*
X433881D1*
X781349D2*
X2867751D1*
X3037779D2*
X3430278D1*
X3586490D2*
X7075492D1*
X7307282D2*
X8248491D1*
X8420276D2*
X8502503D1*
X9001419D2*
X9416105D1*
X84177Y6454973D2*
X447463D1*
X767768D2*
X2844861D1*
X3060669D2*
X3430278D1*
X3586490D2*
X7069228D1*
X7313546D2*
X8213776D1*
X9001419D2*
X9416105D1*
X84177Y6425333D2*
X468655D1*
X746634D2*
X2833445D1*
X3072026D2*
X3430278D1*
X3586490D2*
X7070457D1*
X7312258D2*
X8193403D1*
X9001419D2*
X9416105D1*
X84177Y6395693D2*
X502024D1*
X713207D2*
X2468263D1*
X3075305D2*
X3430278D1*
X3586490D2*
X7079590D1*
X7303184D2*
X8181461D1*
X9001419D2*
X9416105D1*
X84177Y6366053D2*
X576196D1*
X639035D2*
X2224671D1*
X2274337D2*
X2447070D1*
X3071090D2*
X3430278D1*
X3586490D2*
X7098791D1*
X7283923D2*
X8175899D1*
X9001419D2*
X9416105D1*
X84177Y6336413D2*
X1403799D1*
X1485488D2*
X2174793D1*
X2324215D2*
X2438348D1*
X3058445D2*
X3430278D1*
X3586490D2*
X7138892D1*
X7243881D2*
X8175314D1*
X9001419D2*
X9416105D1*
X84177Y6306773D2*
X1356322D1*
X1532907D2*
X2156762D1*
X2342246D2*
X2416980D1*
X3056747D2*
X3430278D1*
X3586490D2*
X8175314D1*
X9001419D2*
X9416105D1*
X84177Y6277133D2*
X1335013D1*
X1554216D2*
X2150557D1*
X2348451D2*
X2388178D1*
X3062952D2*
X3430278D1*
X3586490D2*
X8175314D1*
X9001419D2*
X9416105D1*
X84177Y6247493D2*
X1324593D1*
X1564637D2*
X2150440D1*
X2348568D2*
X2375474D1*
X3063069D2*
X3430278D1*
X3586490D2*
X5589763D1*
X5658514D2*
X8175373D1*
X9001419D2*
X9416105D1*
X84177Y6217853D2*
X1322192D1*
X1567096D2*
X2150440D1*
X2348568D2*
X2372547D1*
X3063069D2*
X3430278D1*
X3586490D2*
X5537778D1*
X5710441D2*
X8179178D1*
X9001419D2*
X9416105D1*
X84177Y6188213D2*
X1327227D1*
X1562002D2*
X2155006D1*
X2344002D2*
X2378635D1*
X3058503D2*
X3430278D1*
X3586490D2*
X5515532D1*
X5732686D2*
X8189130D1*
X9001419D2*
X9416105D1*
X84177Y6158573D2*
X1340926D1*
X1548362D2*
X2170637D1*
X2328371D2*
X2395612D1*
X4090124D2*
X5504526D1*
X5743751D2*
X8206634D1*
X9001419D2*
X9416105D1*
X84177Y6128933D2*
X1367796D1*
X1521433D2*
X2209333D1*
X2289675D2*
X2436592D1*
X4093168D2*
X5501599D1*
X5746619D2*
X8235905D1*
X8432862D2*
X8489917D1*
X9001419D2*
X9416105D1*
X84177Y6099293D2*
X2498002D1*
X4118985D2*
X5473089D1*
X5742112D2*
X5787165D1*
X5928567D2*
X8301003D1*
X8367705D2*
X8555015D1*
X8621718D2*
X8683339D1*
X9001419D2*
X9416105D1*
X84177Y6069653D2*
X2498002D1*
X4144802D2*
X5443467D1*
X5729057D2*
X5757192D1*
X5958599D2*
X9416105D1*
X84177Y6040013D2*
X2498002D1*
X4170619D2*
X4427067D1*
X4503428D2*
X4998550D1*
X5074971D2*
X5413787D1*
X5703357D2*
X5741971D1*
X5973820D2*
X9416105D1*
X84177Y6010373D2*
X2498002D1*
X4196436D2*
X4377775D1*
X4552721D2*
X4949317D1*
X5124204D2*
X5384164D1*
X5620579D2*
X5735707D1*
X5980025D2*
X9416105D1*
X84177Y5980733D2*
X2498002D1*
X4222194D2*
X4356056D1*
X4773423D2*
X4927598D1*
X5145923D2*
X5354542D1*
X5978737D2*
X9416105D1*
X84177Y5951093D2*
X2498002D1*
X4248011D2*
X4345401D1*
X4803103D2*
X4916885D1*
X5156578D2*
X5324920D1*
X5969605D2*
X9416105D1*
X84177Y5921453D2*
X2498002D1*
X4273828D2*
X4342767D1*
X4832784D2*
X4914250D1*
X5159212D2*
X5295240D1*
X5950344D2*
X9416105D1*
X84177Y5891813D2*
X2498002D1*
X4299645D2*
X4347626D1*
X4862406D2*
X4919109D1*
X5154412D2*
X5265618D1*
X5910126D2*
X6214227D1*
X6358790D2*
X9416105D1*
X84177Y5862173D2*
X121269D1*
X259743D2*
X2498002D1*
X4325462D2*
X4360973D1*
X4892028D2*
X4932515D1*
X5141006D2*
X5235995D1*
X5472352D2*
X5491003D1*
X5808498D2*
X6185014D1*
X6388002D2*
X9416105D1*
X290477Y5832533D2*
X2498002D1*
X4351279D2*
X4387375D1*
X4543120D2*
X4703266D1*
X4921709D2*
X4958859D1*
X5114603D2*
X5206315D1*
X5442730D2*
X5491940D1*
X5807561D2*
X6170203D1*
X6402813D2*
X9416105D1*
X306050Y5802893D2*
X2498002D1*
X4377096D2*
X4732888D1*
X4951331D2*
X5144846D1*
X5413107D2*
X5498672D1*
X5800770D2*
X6164232D1*
X6408784D2*
X9416105D1*
X312606Y5773253D2*
X2928400D1*
X3167566D2*
X3387718D1*
X3629050D2*
X3884385D1*
X4402912D2*
X4762510D1*
X4980953D2*
X5093212D1*
X5383485D2*
X5512137D1*
X5787364D2*
X5802848D1*
X5876640D2*
X6165813D1*
X6407203D2*
X9416105D1*
X311552Y5743613D2*
X2925473D1*
X3170493D2*
X3397143D1*
X3619625D2*
X3909207D1*
X4428729D2*
X4792191D1*
X5353805D2*
X5534734D1*
X5925523D2*
X6175238D1*
X6397720D2*
X9416105D1*
X302713Y5713973D2*
X2930039D1*
X3165986D2*
X3416872D1*
X3599838D2*
X3934029D1*
X4454546D2*
X4821813D1*
X5324183D2*
X5574425D1*
X5946656D2*
X6195025D1*
X6377991D2*
X9416105D1*
X283862Y5684333D2*
X2943035D1*
X3152989D2*
X3458612D1*
X3558098D2*
X3958909D1*
X4518708D2*
X4851435D1*
X5302171D2*
X5722828D1*
X5956667D2*
X6236765D1*
X6336251D2*
X9416105D1*
X84177Y5654693D2*
X136080D1*
X244932D2*
X2968735D1*
X3127290D2*
X3983731D1*
X4518708D2*
X4881057D1*
X5297546D2*
X5720955D1*
X5958540D2*
X9416105D1*
X84177Y5625053D2*
X4008552D1*
X4518708D2*
X4883399D1*
X5284491D2*
X5726809D1*
X6024165D2*
X9416105D1*
X84177Y5595413D2*
X442662D1*
X810796D2*
X4033433D1*
X4518708D2*
X4891068D1*
X5258733D2*
X5741854D1*
X6073692D2*
X9416105D1*
X84177Y5565773D2*
X442662D1*
X810796D2*
X4058254D1*
X4518708D2*
X4908279D1*
X5101724D2*
X5772237D1*
X6095001D2*
X9416105D1*
X84177Y5536133D2*
X442662D1*
X810796D2*
X4069611D1*
X4518708D2*
X4942760D1*
X5067243D2*
X5871348D1*
X6105128D2*
X9416105D1*
X84177Y5506493D2*
X442662D1*
X810796D2*
X4069611D1*
X4518708D2*
X5869416D1*
X6107060D2*
X9416105D1*
X84177Y5476853D2*
X442662D1*
X810796D2*
X4069611D1*
X4518708D2*
X5875212D1*
X6101265D2*
X9416105D1*
X84177Y5447213D2*
X442662D1*
X810796D2*
X3888893D1*
X3993882D2*
X4069611D1*
X4518708D2*
X5890140D1*
X6086337D2*
X9416105D1*
X84177Y5417573D2*
X442662D1*
X810796D2*
X3848792D1*
X4033924D2*
X4069611D1*
X4518708D2*
X5920289D1*
X6056188D2*
X7807672D1*
X7876775D2*
X9416105D1*
X84177Y5387933D2*
X442662D1*
X810796D2*
X3829590D1*
X4053185D2*
X4069611D1*
X4518708D2*
X5188518D1*
X5320729D2*
X6104695D1*
X6286549D2*
X7755863D1*
X7928643D2*
X9416105D1*
X84177Y5358293D2*
X442662D1*
X810796D2*
X3820458D1*
X4518708D2*
X5156086D1*
X5353161D2*
X6072205D1*
X6319040D2*
X7733617D1*
X7950889D2*
X9416105D1*
X84177Y5328653D2*
X442662D1*
X810796D2*
X2714664D1*
X2778030D2*
X3819229D1*
X4518708D2*
X5139812D1*
X5369435D2*
X6052944D1*
X6338300D2*
X7722670D1*
X7961836D2*
X9416105D1*
X84177Y5299013D2*
X442662D1*
X810796D2*
X2648278D1*
X2844416D2*
X3825493D1*
X4518708D2*
X5132728D1*
X5376519D2*
X6041763D1*
X6349481D2*
X7719743D1*
X7964763D2*
X9416105D1*
X84177Y5269373D2*
X442662D1*
X810796D2*
X2618890D1*
X2873863D2*
X3840713D1*
X4042003D2*
X4069611D1*
X4518708D2*
X5133255D1*
X5375992D2*
X6036904D1*
X6354340D2*
X7724309D1*
X7960197D2*
X9416105D1*
X84177Y5239733D2*
X537793D1*
X715724D2*
X2601269D1*
X2891484D2*
X3863252D1*
X4019465D2*
X4069611D1*
X4518708D2*
X4908455D1*
X4997520D2*
X5141509D1*
X5367738D2*
X6037782D1*
X6353462D2*
X7737364D1*
X7947142D2*
X9416105D1*
X84177Y5210093D2*
X497457D1*
X756059D2*
X2591259D1*
X2901494D2*
X3863252D1*
X4019465D2*
X4069611D1*
X4518708D2*
X4863436D1*
X5042539D2*
X5159540D1*
X5349707D2*
X6044397D1*
X6346847D2*
X6914912D1*
X6991625D2*
X7763064D1*
X7921442D2*
X9416105D1*
X84177Y5180453D2*
X472870D1*
X780647D2*
X2587395D1*
X2905358D2*
X3863252D1*
X4019465D2*
X4069611D1*
X4518708D2*
X4842771D1*
X5063262D2*
X5196187D1*
X5313060D2*
X6057745D1*
X6333500D2*
X6865737D1*
X7040741D2*
X9416105D1*
X84177Y5150813D2*
X456947D1*
X796570D2*
X2589210D1*
X2903485D2*
X3863252D1*
X4019465D2*
X4069611D1*
X4518708D2*
X4832702D1*
X5073273D2*
X6080166D1*
X6311078D2*
X6844077D1*
X7062460D2*
X7473634D1*
X7512353D2*
X9416105D1*
X84177Y5121173D2*
X447346D1*
X806171D2*
X2596996D1*
X2895757D2*
X3863252D1*
X4019465D2*
X4069611D1*
X4518708D2*
X4830594D1*
X5075381D2*
X5937032D1*
X6073223D2*
X6119389D1*
X6271855D2*
X6833422D1*
X7073115D2*
X7409940D1*
X7576046D2*
X9416105D1*
X84177Y5091533D2*
X443014D1*
X810445D2*
X2611690D1*
X2881063D2*
X3863252D1*
X4019465D2*
X4069611D1*
X4518708D2*
X4836039D1*
X5069995D2*
X5905654D1*
X6104543D2*
X6830788D1*
X7075749D2*
X7386114D1*
X7599873D2*
X9416105D1*
X84177Y5061893D2*
X443658D1*
X809859D2*
X2636102D1*
X2856651D2*
X3863252D1*
X4019465D2*
X4069611D1*
X4518708D2*
X4850147D1*
X5055886D2*
X5526948D1*
X5676428D2*
X5889847D1*
X6120408D2*
X6835647D1*
X7070890D2*
X7374113D1*
X7611874D2*
X9416105D1*
X84177Y5032253D2*
X449219D1*
X804298D2*
X2680886D1*
X2811867D2*
X3863252D1*
X4019465D2*
X4069611D1*
X4518708D2*
X4877896D1*
X5028079D2*
X5499023D1*
X5704352D2*
X5883115D1*
X6127140D2*
X6849053D1*
X7057484D2*
X7370425D1*
X7615562D2*
X9416105D1*
X84177Y5002613D2*
X460225D1*
X793233D2*
X3846919D1*
X4035856D2*
X4069611D1*
X4518708D2*
X5484798D1*
X5718578D2*
X5883993D1*
X6126262D2*
X6875455D1*
X7031082D2*
X7374230D1*
X7611815D2*
X9416105D1*
X84177Y4972973D2*
X477963D1*
X775495D2*
X3828595D1*
X4054180D2*
X4069611D1*
X4518708D2*
X5479295D1*
X5724081D2*
X5892599D1*
X6117656D2*
X7386231D1*
X7599756D2*
X9416105D1*
X84177Y4943333D2*
X505419D1*
X748098D2*
X3820107D1*
X4518708D2*
X5481344D1*
X5722032D2*
X5911098D1*
X6099157D2*
X7410233D1*
X7575812D2*
X9416105D1*
X84177Y4913693D2*
X553013D1*
X700445D2*
X3819404D1*
X4518708D2*
X5491296D1*
X5712080D2*
X5949150D1*
X6061105D2*
X7475507D1*
X7510480D2*
X9416105D1*
X84177Y4884053D2*
X528016D1*
X725501D2*
X3826254D1*
X4518708D2*
X5511844D1*
X5691532D2*
X9416105D1*
X84177Y4854413D2*
X491837D1*
X761621D2*
X3842353D1*
X4518708D2*
X5556394D1*
X5646981D2*
X9416105D1*
X84177Y4824773D2*
X469240D1*
X784276D2*
X3874141D1*
X4518708D2*
X9416105D1*
X84177Y4795133D2*
X454663D1*
X798853D2*
X3930575D1*
X4772720D2*
X9416105D1*
X84177Y4765493D2*
X446116D1*
X807342D2*
X3931219D1*
X4772720D2*
X4881877D1*
X5024157D2*
X5358113D1*
X5500393D2*
X9416105D1*
X84177Y4735853D2*
X442779D1*
X810737D2*
X3939532D1*
X4772720D2*
X4852079D1*
X5053896D2*
X5328316D1*
X5530191D2*
X9416105D1*
X84177Y4706213D2*
X444302D1*
X809215D2*
X3957621D1*
X4772720D2*
X4836975D1*
X5069058D2*
X5313212D1*
X5545295D2*
X9416105D1*
X84177Y4676573D2*
X450858D1*
X802658D2*
X3994561D1*
X4772720D2*
X4830829D1*
X5075205D2*
X5307065D1*
X5551441D2*
X9416105D1*
X84177Y4646933D2*
X463035D1*
X790423D2*
X4069611D1*
X4772720D2*
X4832175D1*
X5073800D2*
X5308412D1*
X5550095D2*
X9416105D1*
X84177Y4617293D2*
X482354D1*
X771163D2*
X4069611D1*
X4772720D2*
X4841366D1*
X5064609D2*
X5317603D1*
X5540845D2*
X7408652D1*
X7513817D2*
X9416105D1*
X84177Y4587653D2*
X512327D1*
X741190D2*
X4069611D1*
X4772720D2*
X4860802D1*
X5045232D2*
X5337038D1*
X5521468D2*
X6703518D1*
X6844744D2*
X7368668D1*
X7553859D2*
X7889806D1*
X7985194D2*
X9416105D1*
X84177Y4558013D2*
X568293D1*
X685224D2*
X4069611D1*
X4772720D2*
X4901430D1*
X5004604D2*
X5377666D1*
X5480840D2*
X6673486D1*
X6874834D2*
X7349408D1*
X7573061D2*
X7846778D1*
X8028222D2*
X9416105D1*
X84177Y4528373D2*
X519469D1*
X734048D2*
X4069611D1*
X4553189D2*
X6658207D1*
X6890055D2*
X7340334D1*
X7582135D2*
X7826640D1*
X8048361D2*
X9416105D1*
X84177Y4498733D2*
X486744D1*
X766772D2*
X4069611D1*
X4525323D2*
X6647669D1*
X6896319D2*
X7339105D1*
X7583423D2*
X7816980D1*
X8058020D2*
X9416105D1*
X84177Y4469093D2*
X465903D1*
X787555D2*
X6617989D1*
X6895031D2*
X7345369D1*
X7577100D2*
X7815166D1*
X8059835D2*
X9416105D1*
X84177Y4439453D2*
X452614D1*
X800902D2*
X6588367D1*
X6885899D2*
X7360648D1*
X7561879D2*
X7820903D1*
X8054098D2*
X9416105D1*
X84177Y4409813D2*
X445121D1*
X808396D2*
X6558744D1*
X6866638D2*
X7390739D1*
X7531730D2*
X7835421D1*
X8039579D2*
X9416105D1*
X84177Y4380173D2*
X442662D1*
X810796D2*
X6529064D1*
X6826537D2*
X7180047D1*
X7295983D2*
X7712542D1*
X7813199D2*
X7864048D1*
X8010952D2*
X9416105D1*
X84177Y4350533D2*
X445180D1*
X808337D2*
X6499442D1*
X6771801D2*
X7143166D1*
X7332864D2*
X7671153D1*
X7854588D2*
X9416105D1*
X84177Y4320893D2*
X452732D1*
X800785D2*
X2436943D1*
X2579515D2*
X6469820D1*
X6742120D2*
X7125018D1*
X7350954D2*
X7651483D1*
X7874258D2*
X9416105D1*
X84177Y4291253D2*
X466138D1*
X787379D2*
X2407262D1*
X2609254D2*
X6440139D1*
X6712498D2*
X7116705D1*
X7359325D2*
X7642175D1*
X7883624D2*
X9416105D1*
X84177Y4261613D2*
X487095D1*
X766421D2*
X2392158D1*
X2624300D2*
X6410517D1*
X6682876D2*
X7116061D1*
X7359911D2*
X7640653D1*
X7885088D2*
X9416105D1*
X84177Y4231973D2*
X519996D1*
X733462D2*
X2386070D1*
X2630446D2*
X5068157D1*
X5132342D2*
X6380895D1*
X6653196D2*
X7123086D1*
X7352944D2*
X7646624D1*
X7879117D2*
X9416105D1*
X84177Y4202333D2*
X590831D1*
X662685D2*
X2387475D1*
X2629041D2*
X4685997D1*
X4816041D2*
X5014532D1*
X5185966D2*
X6351273D1*
X6623573D2*
X7139302D1*
X7336728D2*
X7661552D1*
X7864188D2*
X9416105D1*
X84177Y4172693D2*
X2396666D1*
X2619850D2*
X4652979D1*
X4849000D2*
X4991994D1*
X5208504D2*
X6321592D1*
X6593951D2*
X7171500D1*
X7304530D2*
X7690940D1*
X7834801D2*
X8509997D1*
X8666736D2*
X9416105D1*
X84177Y4143053D2*
X2416102D1*
X2600356D2*
X4636412D1*
X4865567D2*
X4980812D1*
X5219686D2*
X6291970D1*
X6564271D2*
X7403149D1*
X7542326D2*
X8483887D1*
X8692904D2*
X9416105D1*
X84177Y4113413D2*
X2456847D1*
X2559611D2*
X4629153D1*
X4872826D2*
X4977710D1*
X5222788D2*
X6262348D1*
X6534649D2*
X7372591D1*
X7572944D2*
X8470598D1*
X8706135D2*
X9416105D1*
X84177Y4083773D2*
X4629562D1*
X4872417D2*
X4982100D1*
X5218398D2*
X6232667D1*
X6505027D2*
X7357077D1*
X7588399D2*
X8465856D1*
X8710877D2*
X9416105D1*
X84177Y4054133D2*
X4637641D1*
X4864338D2*
X4994921D1*
X5205577D2*
X6203045D1*
X6475346D2*
X7350638D1*
X7594838D2*
X8468608D1*
X8708125D2*
X9416105D1*
X84177Y4024493D2*
X4655379D1*
X4846600D2*
X5020328D1*
X5180229D2*
X6173423D1*
X6445724D2*
X7351750D1*
X7593726D2*
X8479438D1*
X8697353D2*
X9416105D1*
X84177Y3994853D2*
X4691324D1*
X4810714D2*
X6143743D1*
X6416102D2*
X7360648D1*
X7584828D2*
X8501333D1*
X8675459D2*
X9416105D1*
X84177Y3965213D2*
X5225868D1*
X5355678D2*
X6114120D1*
X6386480D2*
X7379616D1*
X7565919D2*
X8551503D1*
X8625230D2*
X9416105D1*
X84177Y3935573D2*
X1970775D1*
X2124998D2*
X5092978D1*
X6356799D2*
X7418839D1*
X7526637D2*
X9416105D1*
X84177Y3905933D2*
X1944022D1*
X2151751D2*
X5051706D1*
X6327177D2*
X6463380D1*
X6554085D2*
X9416105D1*
X84177Y3876293D2*
X1930440D1*
X2165333D2*
X5032095D1*
X6297555D2*
X6418888D1*
X6598576D2*
X9416105D1*
X84177Y3846653D2*
X1925406D1*
X2170309D2*
X3689266D1*
X3780732D2*
X5022787D1*
X6267874D2*
X6398340D1*
X6619124D2*
X9416105D1*
X84177Y3817013D2*
X1927923D1*
X2167850D2*
X3645009D1*
X3824989D2*
X5021265D1*
X6238252D2*
X6388388D1*
X6629076D2*
X9416105D1*
X84177Y3787373D2*
X1938402D1*
X2157371D2*
X3624519D1*
X3845479D2*
X5027294D1*
X6208630D2*
X6386398D1*
X6631125D2*
X9416105D1*
X84177Y3757733D2*
X1959828D1*
X2135945D2*
X3614625D1*
X3855372D2*
X5042281D1*
X5350585D2*
X5601881D1*
X5900350D2*
X5929948D1*
X6178950D2*
X6391842D1*
X6625622D2*
X9416105D1*
X84177Y3728093D2*
X2007774D1*
X2087999D2*
X3612635D1*
X3857363D2*
X5071669D1*
X5215295D2*
X5594036D1*
X5908194D2*
X5928368D1*
X6149327D2*
X6406068D1*
X6612333D2*
X9416105D1*
X84177Y3698453D2*
X3618138D1*
X3851860D2*
X5020562D1*
X5338701D2*
X5592163D1*
X5910126D2*
X5928368D1*
X6122632D2*
X6434051D1*
X6665606D2*
X9416105D1*
X84177Y3668813D2*
X3632422D1*
X3837576D2*
X5020562D1*
X5338701D2*
X5595910D1*
X5906321D2*
X5928368D1*
X6122632D2*
X6471400D1*
X6688086D2*
X9416105D1*
X84177Y3639173D2*
X3660522D1*
X3809476D2*
X5020562D1*
X5338701D2*
X5605803D1*
X5896427D2*
X5928368D1*
X6122632D2*
X6460277D1*
X6699268D2*
X9416105D1*
X84177Y3609533D2*
X5020562D1*
X5338701D2*
X5623366D1*
X5878923D2*
X5928368D1*
X6122632D2*
X6457233D1*
X6702253D2*
X9416105D1*
X84177Y3579893D2*
X5020562D1*
X5338701D2*
X5652519D1*
X5849711D2*
X5928368D1*
X6122632D2*
X6461624D1*
X6697863D2*
X9416105D1*
X84177Y3550253D2*
X5020562D1*
X5338701D2*
X5717325D1*
X5784906D2*
X5928368D1*
X6122632D2*
X6474503D1*
X6684984D2*
X9416105D1*
X84177Y3520613D2*
X5020562D1*
X5338701D2*
X5928368D1*
X6122632D2*
X6499969D1*
X6659518D2*
X9416105D1*
X84177Y3490973D2*
X5020562D1*
X5338701D2*
X5928368D1*
X6122632D2*
X9416105D1*
X84177Y3461333D2*
X2113383D1*
X2204614D2*
X5020562D1*
X5338701D2*
X5928368D1*
X6122632D2*
X9416105D1*
X84177Y3431693D2*
X2069067D1*
X2248930D2*
X5020562D1*
X5338701D2*
X5928368D1*
X6122632D2*
X9416105D1*
X84177Y3402053D2*
X2048519D1*
X2269478D2*
X5057970D1*
X5301293D2*
X5684600D1*
X5858375D2*
X5928368D1*
X6122632D2*
X6192625D1*
X6366400D2*
X6522039D1*
X6544952D2*
X6700591D1*
X6874366D2*
X7030063D1*
X7052977D2*
X9416105D1*
X84177Y3372413D2*
X2038625D1*
X2279372D2*
X5036954D1*
X5322251D2*
X5652168D1*
X5890807D2*
X5928368D1*
X6122632D2*
X6160193D1*
X6398832D2*
X6440666D1*
X6626325D2*
X6668159D1*
X6906798D2*
X6948632D1*
X7134350D2*
X7252112D1*
X7425185D2*
X7506066D1*
X7679138D2*
X7760078D1*
X7933151D2*
X8014090D1*
X8187163D2*
X9416105D1*
X84177Y3342773D2*
X2036635D1*
X2281362D2*
X5025363D1*
X5333901D2*
X5633318D1*
X7164147D2*
X7222314D1*
X7454924D2*
X7476327D1*
X7708936D2*
X7730339D1*
X7962948D2*
X7984293D1*
X8216902D2*
X9416105D1*
X84177Y3313133D2*
X2042138D1*
X2275860D2*
X5020738D1*
X5338525D2*
X5622722D1*
X7181651D2*
X7205454D1*
X8233762D2*
X9416105D1*
X84177Y3283493D2*
X2056422D1*
X2261575D2*
X5022435D1*
X5336828D2*
X5618565D1*
X8242485D2*
X9416105D1*
X84177Y3253853D2*
X2084405D1*
X2233592D2*
X5030690D1*
X5328515D2*
X5620380D1*
X8244592D2*
X9416105D1*
X84177Y3224213D2*
X5046964D1*
X5312299D2*
X5628283D1*
X8240377D2*
X9416105D1*
X84177Y3194573D2*
X5075591D1*
X5283613D2*
X5643563D1*
X7182998D2*
X7210020D1*
X8229254D2*
X9416105D1*
X84177Y3164933D2*
X5076587D1*
X5282677D2*
X5591812D1*
X5647684D2*
X5669497D1*
X5873538D2*
X5900502D1*
X6150498D2*
X6177463D1*
X6381504D2*
X6408468D1*
X6658523D2*
X6685487D1*
X6889528D2*
X6916493D1*
X7166489D2*
X7230276D1*
X8208940D2*
X9416105D1*
X84177Y3135293D2*
X2968677D1*
X3095560D2*
X5047491D1*
X5311713D2*
X5535026D1*
X5704469D2*
X5721119D1*
X5821904D2*
X5928543D1*
X6122457D2*
X6229096D1*
X6329928D2*
X6436509D1*
X6630481D2*
X6737121D1*
X6837895D2*
X6944534D1*
X7138506D2*
X7194565D1*
X8171883D2*
X9416105D1*
X84177Y3105653D2*
X2934840D1*
X3129397D2*
X5030983D1*
X5328222D2*
X5512019D1*
X5727476D2*
X5990539D1*
X6060461D2*
X6498505D1*
X6568486D2*
X7006530D1*
X7076452D2*
X7194565D1*
X8202208D2*
X9416105D1*
X84177Y3076013D2*
X2917921D1*
X3146316D2*
X3913188D1*
X4024323D2*
X5022553D1*
X5336711D2*
X5500545D1*
X5739009D2*
X7194565D1*
X8225332D2*
X9416105D1*
X84177Y3046373D2*
X2910428D1*
X3153809D2*
X3874902D1*
X4062551D2*
X5020679D1*
X5338584D2*
X5497208D1*
X5742287D2*
X7194565D1*
X8238387D2*
X9416105D1*
X84177Y3016733D2*
X458586D1*
X826661D2*
X2910545D1*
X3153692D2*
X3462476D1*
X3554234D2*
X3856285D1*
X4081226D2*
X5025128D1*
X5334135D2*
X5501365D1*
X5738131D2*
X7194565D1*
X8244182D2*
X9416105D1*
X84177Y2987093D2*
X458586D1*
X826661D2*
X2918389D1*
X3145906D2*
X3418335D1*
X3598433D2*
X3847621D1*
X4089890D2*
X5036603D1*
X5322661D2*
X5513893D1*
X5725661D2*
X7194565D1*
X8243597D2*
X9416105D1*
X84177Y2957453D2*
X458586D1*
X826661D2*
X2935776D1*
X3128519D2*
X3397846D1*
X3618864D2*
X3846685D1*
X4090768D2*
X5057268D1*
X5301995D2*
X5538656D1*
X5700840D2*
X7194565D1*
X8236513D2*
X9416105D1*
X84177Y2927813D2*
X458586D1*
X826661D2*
X2970726D1*
X3093570D2*
X3388011D1*
X3628757D2*
X3853358D1*
X4084153D2*
X5095437D1*
X5263826D2*
X7194565D1*
X8221878D2*
X9416105D1*
X84177Y2898173D2*
X458586D1*
X826661D2*
X2717533D1*
X2784001D2*
X3098522D1*
X3164990D2*
X3386020D1*
X3630748D2*
X3869165D1*
X4068347D2*
X4589695D1*
X4713066D2*
X7194565D1*
X7688037D2*
X7751238D1*
X7942049D2*
X8005192D1*
X8196061D2*
X9416105D1*
X84177Y2868533D2*
X458586D1*
X826661D2*
X2664728D1*
X2836747D2*
X3045718D1*
X3217795D2*
X3391523D1*
X3625186D2*
X3900367D1*
X4037144D2*
X4554863D1*
X4747840D2*
X7194565D1*
X7482672D2*
X7552958D1*
X7632246D2*
X7806970D1*
X7886259D2*
X8060982D1*
X8140271D2*
X9416105D1*
X84177Y2838893D2*
X458586D1*
X826661D2*
X2642307D1*
X3240158D2*
X3405807D1*
X3610902D2*
X4537535D1*
X4765168D2*
X9416105D1*
X84177Y2809253D2*
X458586D1*
X826661D2*
X2631243D1*
X3251281D2*
X3433966D1*
X3582802D2*
X4529807D1*
X4772954D2*
X9416105D1*
X84177Y2779613D2*
X458586D1*
X826661D2*
X2628198D1*
X3254266D2*
X4529690D1*
X4773071D2*
X9416105D1*
X84177Y2749973D2*
X458586D1*
X826661D2*
X2632706D1*
X3249817D2*
X4537242D1*
X4765520D2*
X9416105D1*
X84177Y2720333D2*
X458586D1*
X826661D2*
X2645644D1*
X3236880D2*
X4554219D1*
X4748542D2*
X9416105D1*
X84177Y2690693D2*
X458586D1*
X826661D2*
X2671168D1*
X2830366D2*
X3052157D1*
X3211355D2*
X4588173D1*
X4714588D2*
X9416105D1*
X84177Y2661053D2*
X569229D1*
X716017D2*
X9416105D1*
X84177Y2631413D2*
X521459D1*
X763787D2*
X9416105D1*
X84177Y2601773D2*
X493945D1*
X791301D2*
X9416105D1*
X84177Y2572133D2*
X476148D1*
X809098D2*
X9416105D1*
X84177Y2542493D2*
X465142D1*
X820162D2*
X9416105D1*
X84177Y2512853D2*
X459522D1*
X825724D2*
X9416105D1*
X84177Y2483213D2*
X458878D1*
X826368D2*
X3901070D1*
X4045164D2*
X9416105D1*
X84177Y2453573D2*
X463210D1*
X822036D2*
X3871740D1*
X4074494D2*
X9416105D1*
X84177Y2423933D2*
X472753D1*
X812493D2*
X3856871D1*
X4089363D2*
X9416105D1*
X84177Y2394293D2*
X488676D1*
X796570D2*
X3850900D1*
X4095393D2*
X9416105D1*
X84177Y2364653D2*
X513205D1*
X772100D2*
X3852422D1*
X4093812D2*
X4568094D1*
X4702880D2*
X9416105D1*
X84177Y2335013D2*
X553423D1*
X731823D2*
X3861788D1*
X4084446D2*
X4524363D1*
X4746669D2*
X9416105D1*
X84177Y2305373D2*
X557053D1*
X728193D2*
X3653965D1*
X3752515D2*
X3881517D1*
X4064776D2*
X4196237D1*
X4323237D2*
X4500244D1*
X4770730D2*
X9416105D1*
X84177Y2275733D2*
X515137D1*
X770109D2*
X3611933D1*
X3794547D2*
X3923023D1*
X4023211D2*
X4162458D1*
X4357074D2*
X4485784D1*
X4785190D2*
X9416105D1*
X84177Y2246093D2*
X489905D1*
X795341D2*
X3592087D1*
X3814393D2*
X4145540D1*
X4373993D2*
X4478232D1*
X4792741D2*
X9416105D1*
X84177Y2216453D2*
X473572D1*
X811674D2*
X3582603D1*
X3823877D2*
X4138047D1*
X4381486D2*
X4476534D1*
X4794439D2*
X9416105D1*
X84177Y2186813D2*
X463620D1*
X821626D2*
X3580964D1*
X3825516D2*
X4138164D1*
X4381311D2*
X4480574D1*
X4790400D2*
X9416105D1*
X84177Y2157173D2*
X459054D1*
X826251D2*
X3586877D1*
X3819603D2*
X4146008D1*
X4373466D2*
X4490760D1*
X4780213D2*
X9416105D1*
X84177Y2127533D2*
X459347D1*
X825900D2*
X3601629D1*
X3804851D2*
X4163395D1*
X4356079D2*
X4508674D1*
X4762358D2*
X9416105D1*
X84177Y2097893D2*
X464615D1*
X820631D2*
X3630666D1*
X3775814D2*
X4198403D1*
X4321071D2*
X4538530D1*
X4732443D2*
X9416105D1*
X84177Y2068253D2*
X475270D1*
X809976D2*
X4608780D1*
X4662252D2*
X9416105D1*
X84177Y2038613D2*
X492598D1*
X792706D2*
X9416105D1*
X84177Y2008973D2*
X519293D1*
X765953D2*
X9416105D1*
X84177Y1979333D2*
X564897D1*
X720349D2*
X9416105D1*
X84177Y1949693D2*
X546808D1*
X738438D2*
X9416105D1*
X84177Y1920053D2*
X509400D1*
X775846D2*
X9416105D1*
X84177Y1890413D2*
X486217D1*
X799029D2*
X9416105D1*
X84177Y1860773D2*
X471231D1*
X814016D2*
X9416105D1*
X84177Y1831133D2*
X462391D1*
X822914D2*
X9416105D1*
X84177Y1801493D2*
X458703D1*
X826543D2*
X2158577D1*
X2286456D2*
X3634295D1*
X3668215D2*
X9416105D1*
X84177Y1771853D2*
X459932D1*
X825314D2*
X2124974D1*
X2320000D2*
X3568553D1*
X3733957D2*
X9416105D1*
X84177Y1742213D2*
X466196D1*
X819050D2*
X2108173D1*
X2336860D2*
X2899832D1*
X3053703D2*
X3544551D1*
X3757959D2*
X9416105D1*
X84177Y1712573D2*
X478022D1*
X807225D2*
X2100738D1*
X2344236D2*
X2847320D1*
X3106215D2*
X3532492D1*
X3770018D2*
X9416105D1*
X84177Y1682933D2*
X496813D1*
X788433D2*
X2100972D1*
X2344002D2*
X2816410D1*
X3137066D2*
X3528686D1*
X3773824D2*
X9416105D1*
X84177Y1653293D2*
X525967D1*
X759279D2*
X2108875D1*
X2336157D2*
X2483718D1*
X2627988D2*
X2795510D1*
X3157965D2*
X3341002D1*
X3485272D2*
X3532374D1*
X3770136D2*
X9416105D1*
X84177Y1623653D2*
X578947D1*
X706299D2*
X2126379D1*
X2318653D2*
X2454447D1*
X2657258D2*
X2781343D1*
X3172132D2*
X3311731D1*
X3514543D2*
X3544317D1*
X3758193D2*
X9416105D1*
X84177Y1594013D2*
X2161621D1*
X2283411D2*
X2439577D1*
X2672128D2*
X2772445D1*
X3181031D2*
X3296861D1*
X3529412D2*
X3568143D1*
X3734367D2*
X9416105D1*
X84177Y1564373D2*
X2433606D1*
X2678099D2*
X2768230D1*
X3185304D2*
X3290890D1*
X3535383D2*
X3631485D1*
X3671025D2*
X9416105D1*
X84177Y1534733D2*
X2435187D1*
X2676577D2*
X2768230D1*
X3185246D2*
X3292412D1*
X3533803D2*
X6559388D1*
X6712147D2*
X9416105D1*
X84177Y1505093D2*
X2444553D1*
X2667152D2*
X2772621D1*
X3180855D2*
X3301837D1*
X3524436D2*
X6520165D1*
X6751311D2*
X7085912D1*
X7454046D2*
X7524623D1*
X7715376D2*
X9416105D1*
X84177Y1475453D2*
X2464282D1*
X2647482D2*
X2781578D1*
X3171898D2*
X3321566D1*
X3504708D2*
X6497861D1*
X6773674D2*
X7085912D1*
X7454046D2*
X7487040D1*
X7752959D2*
X9416105D1*
X84177Y1445813D2*
X2505846D1*
X2605859D2*
X2795920D1*
X3157614D2*
X3363130D1*
X3463143D2*
X6484514D1*
X6786963D2*
X7085912D1*
X7776259D2*
X9416105D1*
X84177Y1416173D2*
X2816937D1*
X3136539D2*
X6477898D1*
X6793637D2*
X7085912D1*
X7791304D2*
X9416105D1*
X84177Y1386533D2*
X2848139D1*
X3105395D2*
X6477020D1*
X6794457D2*
X7085912D1*
X7800202D2*
X9416105D1*
X84177Y1356893D2*
X2901529D1*
X3052005D2*
X6481938D1*
X6789539D2*
X7085912D1*
X7803891D2*
X9416105D1*
X84177Y1327253D2*
X6493119D1*
X6778358D2*
X7085912D1*
X7802720D2*
X9416105D1*
X84177Y1297613D2*
X6512438D1*
X6759039D2*
X7085912D1*
X7796514D2*
X9416105D1*
X84177Y1267973D2*
X6544987D1*
X6726548D2*
X7085912D1*
X7784747D2*
X9416105D1*
X84177Y1238333D2*
X7085912D1*
X7454046D2*
X7473985D1*
X7766014D2*
X9416105D1*
X84177Y1208693D2*
X944013D1*
X1056027D2*
X7085912D1*
X7454046D2*
X7503022D1*
X7736977D2*
X8444020D1*
X8556034D2*
X9416105D1*
X84177Y1179053D2*
X877393D1*
X1122589D2*
X7085912D1*
X7454046D2*
X7555592D1*
X7684407D2*
X8377400D1*
X8622596D2*
X9416105D1*
X84177Y1149413D2*
X841975D1*
X1158065D2*
X8341982D1*
X8658013D2*
X9416105D1*
X84177Y1119773D2*
X818090D1*
X1181950D2*
X8318097D1*
X8681957D2*
X9416105D1*
X84177Y1090133D2*
X801464D1*
X1198517D2*
X8301471D1*
X8698524D2*
X9416105D1*
X84177Y1060493D2*
X790341D1*
X1209640D2*
X8290348D1*
X8709647D2*
X9416105D1*
X84177Y1030853D2*
X783902D1*
X1216080D2*
X8283909D1*
X8716087D2*
X9416105D1*
X84177Y1001213D2*
X781677D1*
X1218304D2*
X8281684D1*
X8718311D2*
X9416046D1*
X85640Y971573D2*
X783550D1*
X1216431D2*
X8283558D1*
X8716438D2*
X9414583D1*
X87104Y941933D2*
X789639D1*
X1210343D2*
X8289646D1*
X8710350D2*
X9413178D1*
X88567Y912293D2*
X800352D1*
X1199630D2*
X8300359D1*
X8699637D2*
X9411714D1*
X92724Y882653D2*
X816451D1*
X1183531D2*
X8316458D1*
X8683538D2*
X9407558D1*
X97114Y853013D2*
X839633D1*
X1160348D2*
X8339640D1*
X8660355D2*
X9403108D1*
X101505Y823373D2*
X873880D1*
X1126160D2*
X8373829D1*
X8626167D2*
X9398718D1*
X108647Y793733D2*
X935232D1*
X1064750D2*
X8435239D1*
X8564757D2*
X9391576D1*
X116082Y764093D2*
X9384141D1*
X123517Y734453D2*
X9376765D1*
X133996Y704813D2*
X9366286D1*
X144592Y675173D2*
X9355631D1*
X155539Y645533D2*
X9344742D1*
X169530Y615893D2*
X9330692D1*
X183580Y586253D2*
X9316701D1*
X198860Y556613D2*
X9301363D1*
X216656Y526973D2*
X9283625D1*
X234395Y497333D2*
X9265828D1*
X255294Y467693D2*
X9244987D1*
X277247Y438053D2*
X9222976D1*
X300664Y408413D2*
X9199559D1*
X327534Y378773D2*
X9172747D1*
X354639Y349133D2*
X9145642D1*
X387305Y319493D2*
X9112917D1*
X420030Y289853D2*
X9080251D1*
X459956Y260213D2*
X9040326D1*
X501637Y230573D2*
X8998585D1*
X551105Y200933D2*
X8949176D1*
X608710Y171293D2*
X8891513D1*
X677789Y141653D2*
X8822434D1*
X771046Y112013D2*
X8729235D1*
X977698Y82373D2*
X8522525D1*
X4791533Y2219503D2*
X4790527Y2204556D1*
X4788092Y2189774D1*
X4784252Y2175294D1*
X4779040Y2161249D1*
X4772506Y2147768D1*
X4764709Y2134976D1*
X4755722Y2122990D1*
X4745626Y2111922D1*
X4734516Y2101872D1*
X4722494Y2092934D1*
X4709670Y2085189D1*
X4696163Y2078710D1*
X4682096Y2073556D1*
X4667601Y2069775D1*
X4652809Y2067401D1*
X4637858Y2066456D1*
X4622885Y2066948D1*
X4608029Y2068875D1*
X4593425Y2072216D1*
X4579209Y2076943D1*
X4565512Y2083011D1*
X4552460Y2090364D1*
X4540173Y2098935D1*
X4528765Y2108645D1*
X4518340Y2119403D1*
X4508995Y2131112D1*
X4500815Y2143663D1*
X4493876Y2156940D1*
X4488243Y2170821D1*
X4483966Y2185178D1*
X4481086Y2199880D1*
X4479628Y2214790D1*
X4479607Y2229771D1*
X4481023Y2244685D1*
X4483861Y2259394D1*
X4488098Y2273764D1*
X4493692Y2287661D1*
X4500593Y2300957D1*
X4508737Y2313531D1*
X4518050Y2325266D1*
X4528444Y2336054D1*
X4539825Y2345796D1*
X4552088Y2354401D1*
X4565119Y2361791D1*
X4578799Y2367898D1*
X4593001Y2372664D1*
X4607595Y2376047D1*
X4622446Y2378015D1*
X4637418Y2378550D1*
X4652372Y2377648D1*
X4667170Y2375315D1*
X4681676Y2371574D1*
X4695757Y2366460D1*
X4709283Y2360019D1*
X4722128Y2352311D1*
X4734176Y2343407D1*
X4745314Y2333389D1*
X4755440Y2322348D1*
X4764462Y2310388D1*
X4772294Y2297618D1*
X4778867Y2284156D1*
X4784118Y2270125D1*
X4788000Y2255656D1*
X4790476Y2240881D1*
X4791524Y2225937D1*
X4791533Y2219503D1*
X6791783Y1394006D2*
X6790777Y1379059D1*
X6788342Y1364277D1*
X6784502Y1349797D1*
X6779290Y1335752D1*
X6772756Y1322271D1*
X6764959Y1309479D1*
X6755972Y1297494D1*
X6745876Y1286425D1*
X6734766Y1276375D1*
X6722744Y1267437D1*
X6709920Y1259693D1*
X6696413Y1253214D1*
X6682346Y1248060D1*
X6667851Y1244278D1*
X6653059Y1241904D1*
X6638108Y1240959D1*
X6623135Y1241452D1*
X6608279Y1243378D1*
X6593675Y1246720D1*
X6579459Y1251446D1*
X6565762Y1257514D1*
X6552710Y1264868D1*
X6540423Y1273438D1*
X6529015Y1283148D1*
X6518590Y1293907D1*
X6509245Y1305615D1*
X6501065Y1318166D1*
X6494126Y1331443D1*
X6488493Y1345324D1*
X6484216Y1359682D1*
X6481336Y1374383D1*
X6479878Y1389293D1*
X6479857Y1404274D1*
X6481273Y1419188D1*
X6484111Y1433897D1*
X6488348Y1448267D1*
X6493942Y1462164D1*
X6500843Y1475461D1*
X6508987Y1488034D1*
X6518300Y1499769D1*
X6528694Y1510557D1*
X6540075Y1520299D1*
X6552338Y1528904D1*
X6565369Y1536294D1*
X6579049Y1542401D1*
X6593251Y1547168D1*
X6607845Y1550551D1*
X6622696Y1552519D1*
X6637668Y1553054D1*
X6652622Y1552151D1*
X6667420Y1549818D1*
X6681926Y1546078D1*
X6696007Y1540963D1*
X6709533Y1534523D1*
X6722378Y1526815D1*
X6734426Y1517910D1*
X6745564Y1507892D1*
X6755690Y1496852D1*
X6764712Y1484892D1*
X6772544Y1472121D1*
X6779117Y1458659D1*
X6784368Y1444629D1*
X6788250Y1430160D1*
X6790726Y1415385D1*
X6791774Y1400441D1*
X6791783Y1394006D1*
X6760033Y6839130D2*
X6759027Y6824182D1*
X6756592Y6809401D1*
X6752752Y6794921D1*
X6747540Y6780875D1*
X6741006Y6767395D1*
X6733209Y6754602D1*
X6724222Y6742617D1*
X6714126Y6731548D1*
X6703016Y6721498D1*
X6690994Y6712560D1*
X6678170Y6704816D1*
X6664663Y6698337D1*
X6650596Y6693183D1*
X6636101Y6689401D1*
X6621309Y6687027D1*
X6606358Y6686082D1*
X6591385Y6686575D1*
X6576529Y6688501D1*
X6561925Y6691843D1*
X6547709Y6696570D1*
X6534012Y6702638D1*
X6520960Y6709991D1*
X6508673Y6718562D1*
X6497265Y6728271D1*
X6486840Y6739030D1*
X6477495Y6750738D1*
X6469315Y6763289D1*
X6462376Y6776566D1*
X6456743Y6790448D1*
X6452466Y6804805D1*
X6449586Y6819507D1*
X6448128Y6834416D1*
X6448107Y6849397D1*
X6449523Y6864311D1*
X6452361Y6879021D1*
X6456598Y6893390D1*
X6462192Y6907287D1*
X6469093Y6920584D1*
X6477237Y6933158D1*
X6486550Y6944893D1*
X6496944Y6955681D1*
X6508325Y6965422D1*
X6520588Y6974028D1*
X6533619Y6981418D1*
X6547299Y6987524D1*
X6561501Y6992291D1*
X6576095Y6995674D1*
X6590946Y6997642D1*
X6605918Y6998177D1*
X6620872Y6997274D1*
X6635670Y6994942D1*
X6650176Y6991201D1*
X6664257Y6986087D1*
X6677783Y6979646D1*
X6690628Y6971938D1*
X6702676Y6963034D1*
X6713814Y6953015D1*
X6723940Y6941975D1*
X6732962Y6930015D1*
X6740794Y6917245D1*
X6747367Y6903783D1*
X6752618Y6889752D1*
X6756500Y6875283D1*
X6758976Y6860508D1*
X6760024Y6845564D1*
X6760033Y6839130D1*
X2902407Y5172253D2*
X2901401Y5157306D1*
X2898966Y5142524D1*
X2895125Y5128044D1*
X2889913Y5113999D1*
X2883379Y5100518D1*
X2875582Y5087726D1*
X2866595Y5075740D1*
X2856500Y5064672D1*
X2845390Y5054622D1*
X2833367Y5045684D1*
X2820544Y5037939D1*
X2807036Y5031460D1*
X2792970Y5026306D1*
X2778474Y5022525D1*
X2763682Y5020151D1*
X2748731Y5019206D1*
X2733758Y5019698D1*
X2718902Y5021625D1*
X2704299Y5024966D1*
X2690083Y5029693D1*
X2676386Y5035761D1*
X2663334Y5043114D1*
X2651047Y5051685D1*
X2639638Y5061395D1*
X2629213Y5072153D1*
X2619868Y5083862D1*
X2611688Y5096413D1*
X2604750Y5109690D1*
X2599116Y5123571D1*
X2594839Y5137928D1*
X2591959Y5152630D1*
X2590502Y5167540D1*
X2590481Y5182521D1*
X2591896Y5197435D1*
X2594735Y5212144D1*
X2598971Y5226514D1*
X2604565Y5240411D1*
X2611466Y5253707D1*
X2619611Y5266281D1*
X2628923Y5278016D1*
X2639318Y5288804D1*
X2650699Y5298546D1*
X2662961Y5307151D1*
X2675993Y5314541D1*
X2689673Y5320648D1*
X2703875Y5325414D1*
X2718469Y5328797D1*
X2733320Y5330765D1*
X2748291Y5331300D1*
X2763245Y5330398D1*
X2778043Y5328065D1*
X2792549Y5324324D1*
X2806630Y5319210D1*
X2820156Y5312769D1*
X2833002Y5305061D1*
X2845049Y5296157D1*
X2856187Y5286139D1*
X2866314Y5275098D1*
X2875335Y5263138D1*
X2883168Y5250368D1*
X2889740Y5236906D1*
X2894991Y5222875D1*
X2898873Y5208406D1*
X2901349Y5193631D1*
X2902398Y5178687D1*
X2902407Y5172253D1*
X4934407Y7680503D2*
X4933401Y7665556D1*
X4930966Y7650774D1*
X4927125Y7636294D1*
X4921913Y7622249D1*
X4915379Y7608768D1*
X4907582Y7595976D1*
X4898595Y7583990D1*
X4888500Y7572922D1*
X4877390Y7562872D1*
X4865367Y7553934D1*
X4852544Y7546189D1*
X4839036Y7539710D1*
X4824970Y7534556D1*
X4810474Y7530775D1*
X4795682Y7528401D1*
X4780731Y7527456D1*
X4765758Y7527948D1*
X4750902Y7529875D1*
X4736299Y7533216D1*
X4722083Y7537943D1*
X4708386Y7544011D1*
X4695334Y7551364D1*
X4683047Y7559935D1*
X4671638Y7569645D1*
X4661213Y7580403D1*
X4651868Y7592112D1*
X4643688Y7604663D1*
X4636750Y7617940D1*
X4631116Y7631821D1*
X4626839Y7646178D1*
X4623959Y7660880D1*
X4622502Y7675790D1*
X4622481Y7690771D1*
X4623896Y7705685D1*
X4626735Y7720394D1*
X4630971Y7734764D1*
X4636565Y7748661D1*
X4643466Y7761957D1*
X4651611Y7774531D1*
X4660923Y7786266D1*
X4671318Y7797054D1*
X4682699Y7806796D1*
X4694961Y7815401D1*
X4707993Y7822791D1*
X4721673Y7828898D1*
X4735875Y7833664D1*
X4750469Y7837047D1*
X4765320Y7839015D1*
X4780291Y7839550D1*
X4795245Y7838648D1*
X4810043Y7836315D1*
X4824549Y7832574D1*
X4838630Y7827460D1*
X4852156Y7821019D1*
X4865002Y7813311D1*
X4877049Y7804407D1*
X4888187Y7794389D1*
X4898314Y7783348D1*
X4907335Y7771388D1*
X4915168Y7758618D1*
X4921740Y7745156D1*
X4926991Y7731125D1*
X4930873Y7716656D1*
X4933349Y7701881D1*
X4934398Y7686937D1*
X4934407Y7680503D1*
X3558625Y6744274D2*
X3567098Y6760578D1*
X3573252Y6769788D1*
X3580109Y6778486D1*
X3587627Y6786619D1*
X3595761Y6794138D1*
X3604459Y6800995D1*
X3613669Y6807149D1*
X3623332Y6812561D1*
X3633391Y6817198D1*
X3643783Y6821032D1*
X3654443Y6824038D1*
X3665306Y6826199D1*
X3676306Y6827501D1*
X3687373Y6827936D1*
X3698441Y6827501D1*
X3709440Y6826199D1*
X3720304Y6824038D1*
X3730964Y6821032D1*
X3741356Y6817198D1*
X3751414Y6812561D1*
X3761078Y6807149D1*
X3770288Y6800995D1*
X3778986Y6794138D1*
X3787119Y6786619D1*
X3794638Y6778486D1*
X3801495Y6769788D1*
X3807649Y6760578D1*
X3814311Y6748203D1*
X3821098Y6760578D1*
X3827252Y6769788D1*
X3834109Y6778486D1*
X3841627Y6786619D1*
X3849761Y6794138D1*
X3858459Y6800995D1*
X3867669Y6807149D1*
X3877332Y6812561D1*
X3887391Y6817198D1*
X3897783Y6821032D1*
X3908443Y6824038D1*
X3919306Y6826199D1*
X3930306Y6827501D1*
X3941373Y6827936D1*
X3952441Y6827501D1*
X3963440Y6826199D1*
X3974304Y6824038D1*
X3984964Y6821032D1*
X3995356Y6817198D1*
X4005414Y6812561D1*
X4015078Y6807149D1*
X4024288Y6800995D1*
X4032986Y6794138D1*
X4041119Y6786619D1*
X4048638Y6778486D1*
X4055495Y6769788D1*
X4061649Y6760578D1*
X4068311Y6748203D1*
X4075098Y6760578D1*
X4081252Y6769788D1*
X4088109Y6778486D1*
X4095627Y6786619D1*
X4103761Y6794138D1*
X4112459Y6800995D1*
X4121669Y6807149D1*
X4131332Y6812561D1*
X4141391Y6817198D1*
X4151783Y6821032D1*
X4162443Y6824038D1*
X4173306Y6826199D1*
X4184306Y6827501D1*
X4195373Y6827936D1*
X4206441Y6827501D1*
X4217440Y6826199D1*
X4228304Y6824038D1*
X4238964Y6821032D1*
X4249356Y6817198D1*
X4259414Y6812561D1*
X4269078Y6807149D1*
X4278288Y6800995D1*
X4286986Y6794138D1*
X4295119Y6786619D1*
X4302638Y6778486D1*
X4308290Y6771317D1*
X4308311Y6827935D1*
X4590436D1*
Y6515811D1*
X4308311D1*
Y6572350D1*
X4295119Y6557127D1*
X4286986Y6549609D1*
X4278288Y6542752D1*
X4269078Y6536598D1*
X4259414Y6531186D1*
X4249356Y6526549D1*
X4238964Y6522715D1*
X4228304Y6519709D1*
X4217440Y6517548D1*
X4206441Y6516246D1*
X4195373Y6515811D1*
X4184306Y6516246D1*
X4173306Y6517548D1*
X4162443Y6519709D1*
X4151783Y6522715D1*
X4141391Y6526549D1*
X4131332Y6531186D1*
X4121669Y6536598D1*
X4112459Y6542752D1*
X4103761Y6549609D1*
X4095627Y6557127D1*
X4088109Y6565261D1*
X4081252Y6573959D1*
X4075098Y6583169D1*
X4068436Y6595544D1*
X4061649Y6583169D1*
X4055495Y6573959D1*
X4048638Y6565261D1*
X4041119Y6557127D1*
X4032986Y6549609D1*
X4024288Y6542752D1*
X4015078Y6536598D1*
X4005414Y6531186D1*
X3995356Y6526549D1*
X3984964Y6522715D1*
X3974304Y6519709D1*
X3963440Y6517548D1*
X3952441Y6516246D1*
X3941373Y6515811D1*
X3930306Y6516246D1*
X3919306Y6517548D1*
X3908443Y6519709D1*
X3897783Y6522715D1*
X3887391Y6526549D1*
X3877332Y6531186D1*
X3867669Y6536598D1*
X3858459Y6542752D1*
X3849761Y6549609D1*
X3841627Y6557127D1*
X3834109Y6565261D1*
X3827252Y6573959D1*
X3821098Y6583169D1*
X3814436Y6595544D1*
X3807649Y6583169D1*
X3801495Y6573959D1*
X3794638Y6565261D1*
X3787119Y6557127D1*
X3778986Y6549609D1*
X3770288Y6542752D1*
X3761078Y6536598D1*
X3751414Y6531186D1*
X3741356Y6526549D1*
X3730964Y6522715D1*
X3720304Y6519709D1*
X3709440Y6517548D1*
X3698441Y6516246D1*
X3687373Y6515811D1*
X3676306Y6516246D1*
X3665306Y6517548D1*
X3654443Y6519709D1*
X3643783Y6522715D1*
X3633391Y6526549D1*
X3623332Y6531186D1*
X3613669Y6536598D1*
X3604459Y6542752D1*
X3593441Y6551753D1*
X3583460Y6542814D1*
X3583486Y6166773D1*
X4087114Y6166739D1*
Y6132375D1*
X4458226Y5706324D1*
X4515737Y5706363D1*
Y4817407D1*
X4769737Y4817366D1*
Y4548889D1*
X4560944Y4548559D1*
X4552427Y4531842D1*
X4541399Y4516664D1*
X4528133Y4503397D1*
X4515729Y4494224D1*
X4515737Y4473883D1*
X4072637D1*
X4072365Y4664850D1*
X4060462Y4663453D1*
X4048479Y4663255D1*
X4036537Y4664258D1*
X4024755Y4666451D1*
X4013252Y4669813D1*
X4002143Y4674310D1*
X3991540Y4679895D1*
X3981550Y4686515D1*
X3972272Y4694101D1*
X3963801Y4702578D1*
X3956220Y4711860D1*
X3949607Y4721855D1*
X3944028Y4732461D1*
X3939539Y4743573D1*
X3936184Y4755078D1*
X3933998Y4766861D1*
X3933003Y4778804D1*
X3933208Y4790787D1*
X3934612Y4802688D1*
X3935270Y4806222D1*
X3922670Y4807536D1*
X3904427Y4811916D1*
X3887093Y4819096D1*
X3871096Y4828899D1*
X3856830Y4841083D1*
X3844645Y4855350D1*
X3834843Y4871347D1*
X3827663Y4888680D1*
X3823283Y4906923D1*
X3821811Y4925627D1*
X3823283Y4944330D1*
X3827663Y4962573D1*
X3834843Y4979907D1*
X3844645Y4995904D1*
X3856830Y5010170D1*
X3866287Y5018563D1*
X3866261Y5245323D1*
X3856830Y5253830D1*
X3844645Y5268096D1*
X3834843Y5284093D1*
X3827663Y5301427D1*
X3823283Y5319670D1*
X3821811Y5338373D1*
X3823283Y5357077D1*
X3827663Y5375320D1*
X3834843Y5392653D1*
X3844645Y5408650D1*
X3856830Y5422917D1*
X3871096Y5435101D1*
X3887093Y5444904D1*
X3904427Y5452084D1*
X3922670Y5456464D1*
X3941373Y5457936D1*
X3960077Y5456464D1*
X3978320Y5452084D1*
X3995653Y5444904D1*
X4011650Y5435101D1*
X4025917Y5422917D1*
X4038101Y5408650D1*
X4047904Y5392653D1*
X4055084Y5375320D1*
X4059464Y5357077D1*
X4060936Y5338373D1*
X4059464Y5319670D1*
X4055084Y5301427D1*
X4047904Y5284093D1*
X4038101Y5268096D1*
X4025917Y5253830D1*
X4016460Y5245437D1*
X4016486Y5018677D1*
X4025917Y5010170D1*
X4038101Y4995904D1*
X4047904Y4979907D1*
X4055084Y4962573D1*
X4059464Y4944330D1*
X4060936Y4925627D1*
X4059464Y4906923D1*
X4058512Y4902139D1*
X4072627Y4900598D1*
X4072637Y5552161D1*
X3875750Y5787128D1*
X3627738Y5787136D1*
X3626464Y5775673D1*
X3622084Y5757430D1*
X3614904Y5740097D1*
X3605101Y5724100D1*
X3592917Y5709833D1*
X3578650Y5697649D1*
X3562653Y5687846D1*
X3545320Y5680666D1*
X3527077Y5676286D1*
X3508373Y5674814D1*
X3489670Y5676286D1*
X3471427Y5680666D1*
X3454093Y5687846D1*
X3438096Y5697649D1*
X3423830Y5709833D1*
X3411645Y5724100D1*
X3401843Y5740097D1*
X3394663Y5757430D1*
X3390283Y5775673D1*
X3389095Y5787158D1*
X3160575Y5787136D1*
X3164259Y5774661D1*
X3167194Y5756131D1*
Y5737369D1*
X3164259Y5718839D1*
X3158461Y5700996D1*
X3149944Y5684279D1*
X3138916Y5669101D1*
X3125649Y5655834D1*
X3110471Y5644806D1*
X3093754Y5636289D1*
X3075911Y5630491D1*
X3057381Y5627556D1*
X3038619D1*
X3020089Y5630491D1*
X3002246Y5636289D1*
X2985529Y5644806D1*
X2970351Y5655834D1*
X2957084Y5669101D1*
X2946056Y5684279D1*
X2937539Y5700996D1*
X2931741Y5718839D1*
X2928806Y5737369D1*
Y5756131D1*
X2931741Y5774661D1*
X2935546Y5787103D1*
X2501011Y5787136D1*
Y6124980D1*
X2488352Y6122638D1*
X2476390Y6121941D1*
X2464429Y6122665D1*
X2452638Y6124798D1*
X2441183Y6128313D1*
X2430224Y6133158D1*
X2419916Y6139267D1*
X2410403Y6146552D1*
X2401819Y6154913D1*
X2394285Y6164230D1*
X2387907Y6174374D1*
X2382774Y6185201D1*
X2378959Y6196560D1*
X2376515Y6208290D1*
X2375476Y6220227D1*
X2375857Y6232203D1*
X2377654Y6244050D1*
X2380839Y6255601D1*
X2385370Y6266694D1*
X2391181Y6277173D1*
X2398192Y6286890D1*
X2406304Y6295709D1*
X2415403Y6303506D1*
X2425360Y6310171D1*
X2436036Y6315611D1*
X2440581Y6317456D1*
X2440749Y6330933D1*
X2443230Y6346596D1*
X2448131Y6361678D1*
X2455330Y6375808D1*
X2464652Y6388638D1*
X2475865Y6399852D1*
X2488695Y6409173D1*
X2500995Y6415529D1*
X2501011Y6420739D1*
X2515822D1*
X2525690Y6422821D1*
X2541500Y6424066D1*
X2557310Y6422821D1*
X2566972Y6420743D1*
X2645784Y6420739D1*
X2655690Y6422821D1*
X2671500Y6424066D1*
X2687310Y6422821D1*
X2696972Y6420743D1*
X2835459Y6420739D1*
X2839040Y6434573D1*
X2846219Y6451907D1*
X2856022Y6467904D1*
X2868207Y6482170D1*
X2882473Y6494355D1*
X2898470Y6504157D1*
X2915803Y6511337D1*
X2934046Y6515717D1*
X2952750Y6517189D1*
X2971454Y6515717D1*
X2989697Y6511337D1*
X3007030Y6504157D1*
X3023027Y6494355D1*
X3037293Y6482170D1*
X3049478Y6467904D1*
X3059281Y6451907D1*
X3066460Y6434573D1*
X3070840Y6416330D1*
X3072312Y6397627D1*
X3070840Y6378923D1*
X3066460Y6360680D1*
X3059281Y6343347D1*
X3049478Y6327350D1*
X3045868Y6322771D1*
X3051822Y6311429D1*
X3055985Y6300194D1*
X3058716Y6288528D1*
X3059974Y6276612D1*
X3060016Y6214506D1*
X3058896Y6202577D1*
X3056299Y6190880D1*
X3052267Y6179598D1*
X3046862Y6168905D1*
X3045543Y6166734D1*
X3433287Y6166739D1*
X3433261Y6542715D1*
X3423830Y6551207D1*
X3411645Y6565473D1*
X3401843Y6581470D1*
X3394663Y6598803D1*
X3390283Y6617046D1*
X3388811Y6635750D1*
X3390283Y6654454D1*
X3394663Y6672697D1*
X3401843Y6690030D1*
X3411645Y6706027D1*
X3423830Y6720293D1*
X3438096Y6732478D1*
X3454093Y6742281D1*
X3471427Y6749460D1*
X3489670Y6753840D1*
X3508373Y6755312D1*
X3527077Y6753840D1*
X3545320Y6749460D1*
X3558491Y6744200D1*
X7800504Y1335171D2*
X7798833Y1321052D1*
X7796060Y1307109D1*
X7792200Y1293425D1*
X7787280Y1280087D1*
X7781328Y1267176D1*
X7774381Y1254772D1*
X7766482Y1242951D1*
X7757681Y1231786D1*
X7748030Y1221346D1*
X7737591Y1211696D1*
X7726426Y1202894D1*
X7714605Y1194996D1*
X7702201Y1188049D1*
X7689290Y1182097D1*
X7675951Y1177176D1*
X7662268Y1173317D1*
X7648324Y1170544D1*
X7634206Y1168873D1*
X7620000Y1168314D1*
X7605794Y1168873D1*
X7591676Y1170544D1*
X7577732Y1173317D1*
X7564049Y1177176D1*
X7550710Y1182097D1*
X7537799Y1188049D1*
X7525395Y1194996D1*
X7513574Y1202894D1*
X7502409Y1211696D1*
X7491970Y1221346D1*
X7482319Y1231786D1*
X7473518Y1242951D1*
X7465619Y1254772D1*
X7458672Y1267176D1*
X7451048Y1284620D1*
X7451062Y1168314D1*
X7088938D1*
Y1530439D1*
X7451062D1*
Y1414515D1*
X7458672Y1431577D1*
X7465619Y1443981D1*
X7473518Y1455802D1*
X7482319Y1466967D1*
X7491970Y1477407D1*
X7502409Y1487057D1*
X7513574Y1495859D1*
X7525395Y1503758D1*
X7537799Y1510704D1*
X7550710Y1516656D1*
X7564049Y1521577D1*
X7577732Y1525436D1*
X7591676Y1528210D1*
X7605794Y1529881D1*
X7620000Y1530439D1*
X7634206Y1529881D1*
X7648324Y1528210D1*
X7662268Y1525436D1*
X7675951Y1521577D1*
X7689290Y1516656D1*
X7702201Y1510704D1*
X7714605Y1503758D1*
X7726426Y1495859D1*
X7737591Y1487057D1*
X7748030Y1477407D1*
X7757681Y1466967D1*
X7766482Y1455802D1*
X7774381Y1443981D1*
X7781328Y1431577D1*
X7787280Y1418666D1*
X7792200Y1405328D1*
X7796060Y1391645D1*
X7798833Y1377701D1*
X7800504Y1363583D1*
X7801062Y1349377D1*
X7800504Y1335171D1*
X807254Y4366167D2*
X805583Y4352049D1*
X802810Y4338105D1*
X798950Y4324422D1*
X794030Y4311084D1*
X788078Y4298173D1*
X781131Y4285769D1*
X773232Y4273948D1*
X764431Y4262783D1*
X754780Y4252343D1*
X744341Y4242693D1*
X733176Y4233891D1*
X721355Y4225992D1*
X708951Y4219046D1*
X696040Y4213094D1*
X682701Y4208173D1*
X669018Y4204314D1*
X655074Y4201540D1*
X640956Y4199869D1*
X626750Y4199311D1*
X612544Y4199869D1*
X598426Y4201540D1*
X584482Y4204314D1*
X570799Y4208173D1*
X557460Y4213094D1*
X544549Y4219046D1*
X532145Y4225992D1*
X520324Y4233891D1*
X509159Y4242693D1*
X498720Y4252343D1*
X489069Y4262783D1*
X480268Y4273948D1*
X472369Y4285769D1*
X465422Y4298173D1*
X459470Y4311084D1*
X454550Y4324422D1*
X450690Y4338105D1*
X447917Y4352049D1*
X446246Y4366167D1*
X445688Y4380373D1*
X446246Y4394579D1*
X447917Y4408698D1*
X450690Y4422641D1*
X454550Y4436325D1*
X459470Y4449663D1*
X465422Y4462574D1*
X472369Y4474978D1*
X480268Y4486799D1*
X489069Y4497964D1*
X498720Y4508404D1*
X509159Y4518054D1*
X520324Y4526856D1*
X532145Y4534754D1*
X544549Y4541701D1*
X557460Y4547653D1*
X570799Y4552574D1*
X580473Y4555302D1*
X570799Y4558173D1*
X557460Y4563094D1*
X544549Y4569046D1*
X532145Y4575992D1*
X520324Y4583891D1*
X509159Y4592693D1*
X498720Y4602343D1*
X489069Y4612783D1*
X480268Y4623948D1*
X472369Y4635769D1*
X465422Y4648173D1*
X459470Y4661084D1*
X454550Y4674422D1*
X450690Y4688105D1*
X447917Y4702049D1*
X446246Y4716167D1*
X445688Y4730373D1*
X446246Y4744579D1*
X447917Y4758698D1*
X450690Y4772641D1*
X454550Y4786325D1*
X459470Y4799663D1*
X465422Y4812574D1*
X472369Y4824978D1*
X480268Y4836799D1*
X489069Y4847964D1*
X498720Y4858404D1*
X509159Y4868054D1*
X520324Y4876856D1*
X532145Y4884754D1*
X544549Y4891701D1*
X557460Y4897653D1*
X570799Y4902574D1*
X580473Y4905302D1*
X570799Y4908173D1*
X557460Y4913094D1*
X544549Y4919046D1*
X532145Y4925992D1*
X520324Y4933891D1*
X509159Y4942693D1*
X498720Y4952343D1*
X489069Y4962783D1*
X480268Y4973948D1*
X472369Y4985769D1*
X465422Y4998173D1*
X459470Y5011084D1*
X454550Y5024422D1*
X450690Y5038105D1*
X447917Y5052049D1*
X446246Y5066167D1*
X445688Y5080373D1*
X446246Y5094579D1*
X447917Y5108698D1*
X450690Y5122641D1*
X454550Y5136325D1*
X459470Y5149663D1*
X465422Y5162574D1*
X472369Y5174978D1*
X480268Y5186799D1*
X489069Y5197964D1*
X498720Y5208404D1*
X509159Y5218054D1*
X520324Y5226856D1*
X532145Y5234754D1*
X544549Y5241701D1*
X561993Y5249325D1*
X445688Y5249311D1*
Y5611435D1*
X807813D1*
Y5249311D1*
X691888D1*
X708951Y5241701D1*
X721355Y5234754D1*
X733176Y5226856D1*
X744341Y5218054D1*
X754780Y5208404D1*
X764431Y5197964D1*
X773232Y5186799D1*
X781131Y5174978D1*
X788078Y5162574D1*
X794030Y5149663D1*
X798950Y5136325D1*
X802810Y5122641D1*
X805583Y5108698D1*
X807254Y5094579D1*
X807812Y5080373D1*
X807254Y5066167D1*
X805583Y5052049D1*
X802810Y5038105D1*
X798950Y5024422D1*
X794030Y5011084D1*
X788078Y4998173D1*
X781131Y4985769D1*
X773232Y4973948D1*
X764431Y4962783D1*
X754780Y4952343D1*
X744341Y4942693D1*
X733176Y4933891D1*
X721355Y4925992D1*
X708951Y4919046D1*
X696040Y4913094D1*
X682701Y4908173D1*
X673027Y4905444D1*
X682701Y4902574D1*
X696040Y4897653D1*
X708951Y4891701D1*
X721355Y4884754D1*
X733176Y4876856D1*
X744341Y4868054D1*
X754780Y4858404D1*
X764431Y4847964D1*
X773232Y4836799D1*
X781131Y4824978D1*
X788078Y4812574D1*
X794030Y4799663D1*
X798950Y4786325D1*
X802810Y4772641D1*
X805583Y4758698D1*
X807254Y4744579D1*
X807812Y4730373D1*
X807254Y4716167D1*
X805583Y4702049D1*
X802810Y4688105D1*
X798950Y4674422D1*
X794030Y4661084D1*
X788078Y4648173D1*
X781131Y4635769D1*
X773232Y4623948D1*
X764431Y4612783D1*
X754780Y4602343D1*
X744341Y4592693D1*
X733176Y4583891D1*
X721355Y4575992D1*
X708951Y4569046D1*
X696040Y4563094D1*
X682701Y4558173D1*
X673027Y4555444D1*
X682701Y4552574D1*
X696040Y4547653D1*
X708951Y4541701D1*
X721355Y4534754D1*
X733176Y4526856D1*
X744341Y4518054D1*
X754780Y4508404D1*
X764431Y4497964D1*
X773232Y4486799D1*
X781131Y4474978D1*
X788078Y4462574D1*
X794030Y4449663D1*
X798950Y4436325D1*
X802810Y4422641D1*
X805583Y4408698D1*
X807254Y4394579D1*
X807812Y4380373D1*
X807254Y4366167D1*
X823131Y1780041D2*
X821460Y1765922D1*
X818686Y1751979D1*
X814827Y1738295D1*
X809906Y1724957D1*
X803954Y1712046D1*
X797008Y1699642D1*
X789109Y1687821D1*
X780307Y1676656D1*
X770657Y1666216D1*
X760217Y1656566D1*
X749052Y1647764D1*
X737231Y1639866D1*
X724827Y1632919D1*
X711916Y1626967D1*
X698578Y1622046D1*
X684895Y1618187D1*
X670951Y1615414D1*
X656833Y1613743D1*
X642627Y1613184D1*
X628421Y1613743D1*
X614302Y1615414D1*
X600359Y1618187D1*
X586675Y1622046D1*
X573337Y1626967D1*
X560426Y1632919D1*
X548022Y1639866D1*
X536201Y1647764D1*
X525036Y1656566D1*
X514596Y1666216D1*
X504946Y1676656D1*
X496144Y1687821D1*
X488246Y1699642D1*
X481299Y1712046D1*
X475347Y1724957D1*
X470426Y1738295D1*
X466567Y1751979D1*
X463794Y1765922D1*
X462123Y1780041D1*
X461564Y1794247D1*
X462123Y1808453D1*
X463794Y1822571D1*
X466567Y1836515D1*
X470426Y1850198D1*
X475347Y1863536D1*
X481299Y1876447D1*
X488246Y1888851D1*
X496144Y1900672D1*
X504946Y1911837D1*
X514596Y1922277D1*
X525036Y1931927D1*
X536201Y1940729D1*
X548022Y1948628D1*
X560426Y1955574D1*
X573337Y1961526D1*
X586675Y1966447D1*
X596350Y1969176D1*
X586675Y1972046D1*
X573337Y1976967D1*
X560426Y1982919D1*
X548022Y1989866D1*
X536201Y1997764D1*
X525036Y2006566D1*
X514596Y2016216D1*
X504946Y2026656D1*
X496144Y2037821D1*
X488246Y2049642D1*
X481299Y2062046D1*
X475347Y2074957D1*
X470426Y2088295D1*
X466567Y2101979D1*
X463794Y2115922D1*
X462123Y2130041D1*
X461564Y2144247D1*
X462123Y2158453D1*
X463794Y2172571D1*
X466567Y2186515D1*
X470426Y2200198D1*
X475347Y2213536D1*
X481299Y2226447D1*
X488246Y2238851D1*
X496144Y2250672D1*
X504946Y2261837D1*
X514596Y2272277D1*
X525036Y2281927D1*
X536201Y2290729D1*
X548022Y2298628D1*
X560426Y2305574D1*
X573337Y2311526D1*
X586675Y2316447D1*
X596350Y2319176D1*
X586675Y2322046D1*
X573337Y2326967D1*
X560426Y2332919D1*
X548022Y2339866D1*
X536201Y2347764D1*
X525036Y2356566D1*
X514596Y2366216D1*
X504946Y2376656D1*
X496144Y2387821D1*
X488246Y2399642D1*
X481299Y2412046D1*
X475347Y2424957D1*
X470426Y2438295D1*
X466567Y2451979D1*
X463794Y2465922D1*
X462123Y2480041D1*
X461564Y2494247D1*
X462123Y2508453D1*
X463794Y2522571D1*
X466567Y2536515D1*
X470426Y2550198D1*
X475347Y2563536D1*
X481299Y2576447D1*
X488246Y2588851D1*
X496144Y2600672D1*
X504946Y2611837D1*
X514596Y2622277D1*
X525036Y2631927D1*
X536201Y2640729D1*
X548022Y2648628D1*
X560426Y2655574D1*
X577870Y2663199D1*
X461565Y2663184D1*
Y3025309D1*
X823689D1*
Y2663184D1*
X707765D1*
X724827Y2655574D1*
X737231Y2648628D1*
X749052Y2640729D1*
X760217Y2631927D1*
X770657Y2622277D1*
X780307Y2611837D1*
X789109Y2600672D1*
X797008Y2588851D1*
X803954Y2576447D1*
X809906Y2563536D1*
X814827Y2550198D1*
X818686Y2536515D1*
X821460Y2522571D1*
X823131Y2508453D1*
X823689Y2494247D1*
X823131Y2480041D1*
X821460Y2465922D1*
X818686Y2451979D1*
X814827Y2438295D1*
X809906Y2424957D1*
X803954Y2412046D1*
X797008Y2399642D1*
X789109Y2387821D1*
X780307Y2376656D1*
X770657Y2366216D1*
X760217Y2356566D1*
X749052Y2347764D1*
X737231Y2339866D1*
X724827Y2332919D1*
X711916Y2326967D1*
X698578Y2322046D1*
X688904Y2319318D1*
X698578Y2316447D1*
X711916Y2311526D1*
X724827Y2305574D1*
X737231Y2298628D1*
X749052Y2290729D1*
X760217Y2281927D1*
X770657Y2272277D1*
X780307Y2261837D1*
X789109Y2250672D1*
X797008Y2238851D1*
X803954Y2226447D1*
X809906Y2213536D1*
X814827Y2200198D1*
X818686Y2186515D1*
X821460Y2172571D1*
X823131Y2158453D1*
X823689Y2144247D1*
X823131Y2130041D1*
X821460Y2115922D1*
X818686Y2101979D1*
X814827Y2088295D1*
X809906Y2074957D1*
X803954Y2062046D1*
X797008Y2049642D1*
X789109Y2037821D1*
X780307Y2026656D1*
X770657Y2016216D1*
X760217Y2006566D1*
X749052Y1997764D1*
X737231Y1989866D1*
X724827Y1982919D1*
X711916Y1976967D1*
X698578Y1972046D1*
X688904Y1969318D1*
X698578Y1966447D1*
X711916Y1961526D1*
X724827Y1955574D1*
X737231Y1948628D1*
X749052Y1940729D1*
X760217Y1931927D1*
X770657Y1922277D1*
X780307Y1911837D1*
X789109Y1900672D1*
X797008Y1888851D1*
X803954Y1876447D1*
X809906Y1863536D1*
X814827Y1850198D1*
X818686Y1836515D1*
X821460Y1822571D1*
X823131Y1808453D1*
X823689Y1794247D1*
X823131Y1780041D1*
X4974754Y8986921D2*
X4973083Y8972802D1*
X4970310Y8958859D1*
X4966450Y8945175D1*
X4961530Y8931837D1*
X4955578Y8918926D1*
X4948631Y8906522D1*
X4940732Y8894701D1*
X4931931Y8883536D1*
X4922280Y8873096D1*
X4911841Y8863446D1*
X4900676Y8854644D1*
X4888855Y8846746D1*
X4876451Y8839799D1*
X4863540Y8833847D1*
X4850201Y8828926D1*
X4840527Y8826198D1*
X4850201Y8823327D1*
X4863540Y8818406D1*
X4876451Y8812454D1*
X4888855Y8805508D1*
X4900676Y8797609D1*
X4911841Y8788807D1*
X4922280Y8779157D1*
X4931931Y8768717D1*
X4940732Y8757552D1*
X4948631Y8745731D1*
X4955578Y8733327D1*
X4961530Y8720416D1*
X4966450Y8707078D1*
X4970310Y8693395D1*
X4973083Y8679451D1*
X4974754Y8665333D1*
X4975312Y8651127D1*
X4974754Y8636921D1*
X4973083Y8622802D1*
X4970310Y8608859D1*
X4966450Y8595175D1*
X4961530Y8581837D1*
X4955578Y8568926D1*
X4948631Y8556522D1*
X4940732Y8544701D1*
X4931931Y8533536D1*
X4922280Y8523096D1*
X4911841Y8513446D1*
X4900676Y8504644D1*
X4888855Y8496746D1*
X4876451Y8489799D1*
X4859007Y8482175D1*
X4975313Y8482189D1*
Y8120064D1*
X4613188D1*
Y8482189D1*
X4729112D1*
X4712049Y8489799D1*
X4699645Y8496746D1*
X4687824Y8504644D1*
X4676659Y8513446D1*
X4666220Y8523096D1*
X4656569Y8533536D1*
X4647768Y8544701D1*
X4639869Y8556522D1*
X4632922Y8568926D1*
X4626970Y8581837D1*
X4622050Y8595175D1*
X4618190Y8608859D1*
X4615417Y8622802D1*
X4613746Y8636921D1*
X4613188Y8651127D1*
X4613746Y8665333D1*
X4615417Y8679451D1*
X4618190Y8693395D1*
X4622050Y8707078D1*
X4626970Y8720416D1*
X4632922Y8733327D1*
X4639869Y8745731D1*
X4647768Y8757552D1*
X4656569Y8768717D1*
X4666220Y8779157D1*
X4676659Y8788807D1*
X4687824Y8797609D1*
X4699645Y8805508D1*
X4712049Y8812454D1*
X4724960Y8818406D1*
X4738299Y8823327D1*
X4747973Y8826056D1*
X4738299Y8828926D1*
X4724960Y8833847D1*
X4712049Y8839799D1*
X4699645Y8846746D1*
X4687824Y8854644D1*
X4676659Y8863446D1*
X4666220Y8873096D1*
X4656569Y8883536D1*
X4647768Y8894701D1*
X4639869Y8906522D1*
X4632922Y8918926D1*
X4626970Y8931837D1*
X4622050Y8945175D1*
X4618190Y8958859D1*
X4615417Y8972802D1*
X4613746Y8986921D1*
X4613188Y9001127D1*
X4613746Y9015333D1*
X4615417Y9029451D1*
X4618190Y9043395D1*
X4622050Y9057078D1*
X4626970Y9070416D1*
X4632922Y9083327D1*
X4639869Y9095731D1*
X4647768Y9107552D1*
X4656569Y9118717D1*
X4666220Y9129157D1*
X4676659Y9138807D1*
X4687824Y9147609D1*
X4699645Y9155508D1*
X4712049Y9162454D1*
X4724960Y9168406D1*
X4738299Y9173327D1*
X4751982Y9177186D1*
X4765926Y9179960D1*
X4780044Y9181631D1*
X4794250Y9182189D1*
X4808456Y9181631D1*
X4822574Y9179960D1*
X4836518Y9177186D1*
X4850201Y9173327D1*
X4863540Y9168406D1*
X4876451Y9162454D1*
X4888855Y9155508D1*
X4900676Y9147609D1*
X4911841Y9138807D1*
X4922280Y9129157D1*
X4931931Y9118717D1*
X4940732Y9107552D1*
X4948631Y9095731D1*
X4955578Y9083327D1*
X4961530Y9070416D1*
X4966450Y9057078D1*
X4970310Y9043395D1*
X4973083Y9029451D1*
X4974754Y9015333D1*
X4975312Y9001127D1*
X4974754Y8986921D1*
X2153448Y6272497D2*
X2154307Y6285396D1*
X2156652Y6297146D1*
X2160442Y6308512D1*
X2165617Y6319318D1*
X2172097Y6329396D1*
X2179782Y6338589D1*
X2188551Y6346754D1*
X2198268Y6353763D1*
X2208782Y6359509D1*
X2219929Y6363901D1*
X2231537Y6366871D1*
X2243424Y6368373D1*
X2255406Y6368384D1*
X2267295Y6366903D1*
X2278908Y6363953D1*
X2290063Y6359581D1*
X2300588Y6353854D1*
X2310317Y6346862D1*
X2319101Y6338713D1*
X2326801Y6329534D1*
X2333299Y6319467D1*
X2338494Y6308670D1*
X2342304Y6297311D1*
X2344670Y6285565D1*
X2345563Y6272503D1*
X2345375Y6211513D1*
X2343884Y6199624D1*
X2340924Y6188014D1*
X2336542Y6176863D1*
X2330806Y6166343D1*
X2323805Y6156620D1*
X2315648Y6147844D1*
X2306462Y6140151D1*
X2296389Y6133662D1*
X2285588Y6128477D1*
X2274225Y6124677D1*
X2262477Y6122322D1*
X2250528Y6121447D1*
X2238562Y6122066D1*
X2226767Y6124170D1*
X2215325Y6127726D1*
X2204415Y6132678D1*
X2194206Y6138950D1*
X2184858Y6146445D1*
X2176515Y6155044D1*
X2169307Y6164616D1*
X2163347Y6175010D1*
X2158728Y6186065D1*
X2155520Y6197609D1*
X2153775Y6209463D1*
X2153438Y6226495D1*
Y6272229D1*
X5164667Y2911316D2*
X5153556Y2911749D1*
X5142556Y2913051D1*
X5131693Y2915212D1*
X5121033Y2918218D1*
X5110641Y2922052D1*
X5100582Y2926689D1*
X5090919Y2932101D1*
X5081709Y2938255D1*
X5073011Y2945112D1*
X5064877Y2952631D1*
X5057359Y2960764D1*
X5050502Y2969462D1*
X5044348Y2978672D1*
X5038936Y2988336D1*
X5034299Y2998394D1*
X5030465Y3008786D1*
X5027459Y3019446D1*
X5025298Y3030310D1*
X5023996Y3041309D1*
X5023561Y3052377D1*
X5023996Y3063444D1*
X5025298Y3074444D1*
X5027459Y3085307D1*
X5030465Y3095967D1*
X5034299Y3106359D1*
X5038936Y3116418D1*
X5044348Y3126081D1*
X5050502Y3135291D1*
X5057359Y3143989D1*
X5064877Y3152123D1*
X5073011Y3159641D1*
X5081709Y3166498D1*
X5090919Y3172652D1*
X5103294Y3179314D1*
X5090919Y3186101D1*
X5081709Y3192255D1*
X5073011Y3199112D1*
X5064877Y3206631D1*
X5057359Y3214764D1*
X5050502Y3223462D1*
X5044348Y3232672D1*
X5038936Y3242336D1*
X5034299Y3252394D1*
X5030465Y3262786D1*
X5027459Y3273446D1*
X5025298Y3284310D1*
X5023996Y3295309D1*
X5023561Y3306377D1*
X5023996Y3317444D1*
X5025298Y3328444D1*
X5027459Y3339307D1*
X5030465Y3349967D1*
X5034299Y3360359D1*
X5038936Y3370418D1*
X5044348Y3380081D1*
X5050502Y3389291D1*
X5057359Y3397989D1*
X5064877Y3406123D1*
X5073011Y3413641D1*
X5080180Y3419293D1*
X5023562Y3419314D1*
Y3701438D1*
X5335686D1*
Y3419314D1*
X5279193D1*
X5294369Y3406123D1*
X5301888Y3397989D1*
X5308745Y3389291D1*
X5314899Y3380081D1*
X5320311Y3370418D1*
X5324948Y3360359D1*
X5328782Y3349967D1*
X5331788Y3339307D1*
X5333949Y3328444D1*
X5335251Y3317444D1*
X5335686Y3306377D1*
X5335251Y3295309D1*
X5333949Y3284310D1*
X5331788Y3273446D1*
X5328782Y3262786D1*
X5324948Y3252394D1*
X5320311Y3242336D1*
X5314899Y3232672D1*
X5308745Y3223462D1*
X5301888Y3214764D1*
X5294369Y3206631D1*
X5286236Y3199112D1*
X5277538Y3192255D1*
X5268328Y3186101D1*
X5255953Y3179439D1*
X5268328Y3172652D1*
X5277538Y3166498D1*
X5286236Y3159641D1*
X5294369Y3152123D1*
X5301888Y3143989D1*
X5308745Y3135291D1*
X5314899Y3126081D1*
X5320311Y3116418D1*
X5324948Y3106359D1*
X5328782Y3095967D1*
X5331788Y3085307D1*
X5333949Y3074444D1*
X5335251Y3063444D1*
X5335686Y3052377D1*
X5335251Y3041309D1*
X5333949Y3030310D1*
X5331788Y3019446D1*
X5328782Y3008786D1*
X5324948Y2998394D1*
X5320311Y2988336D1*
X5314899Y2978672D1*
X5308745Y2969462D1*
X5301888Y2960764D1*
X5294369Y2952631D1*
X5286236Y2945112D1*
X5277538Y2938255D1*
X5268328Y2932101D1*
X5258664Y2926689D1*
X5248606Y2922052D1*
X5238214Y2918218D1*
X5227554Y2915212D1*
X5216690Y2913051D1*
X5205691Y2911749D1*
X5179637Y2911314D1*
X5164624Y2911373D1*
X7191080Y3240478D2*
X7189695Y3228778D1*
X7187397Y3217223D1*
X7184199Y3205884D1*
X7180121Y3194831D1*
X7175189Y3184132D1*
X7169432Y3173853D1*
X7162887Y3164057D1*
X7155593Y3154805D1*
X7147596Y3146154D1*
X7138945Y3138157D1*
X7129693Y3130863D1*
X7119897Y3124318D1*
X7109618Y3118561D1*
X7098919Y3113629D1*
X7087866Y3109551D1*
X7076527Y3106353D1*
X7064972Y3104055D1*
X7053272Y3102670D1*
X7041500Y3102208D1*
X7029728Y3102670D1*
X7018028Y3104055D1*
X7006473Y3106353D1*
X6995134Y3109551D1*
X6984081Y3113629D1*
X6973382Y3118561D1*
X6963103Y3124318D1*
X6953307Y3130863D1*
X6944055Y3138157D1*
X6935404Y3146154D1*
X6927407Y3154805D1*
X6920113Y3164057D1*
X6913568Y3173853D1*
X6906713Y3186514D1*
X6893596Y3171554D1*
X6884945Y3163557D1*
X6875693Y3156263D1*
X6865897Y3149718D1*
X6855618Y3143961D1*
X6844919Y3139029D1*
X6833866Y3134951D1*
X6822527Y3131753D1*
X6810972Y3129455D1*
X6799272Y3128070D1*
X6787500Y3127608D1*
X6775728Y3128070D1*
X6764028Y3129455D1*
X6752473Y3131753D1*
X6741134Y3134951D1*
X6730081Y3139029D1*
X6719382Y3143961D1*
X6709103Y3149718D1*
X6699307Y3156263D1*
X6690055Y3163557D1*
X6681404Y3171554D1*
X6673407Y3180205D1*
X6668421Y3186530D1*
X6661432Y3173853D1*
X6654887Y3164057D1*
X6647593Y3154805D1*
X6639596Y3146154D1*
X6630945Y3138157D1*
X6621693Y3130863D1*
X6611897Y3124318D1*
X6601618Y3118561D1*
X6590919Y3113629D1*
X6579866Y3109551D1*
X6568527Y3106353D1*
X6556972Y3104055D1*
X6545272Y3102670D1*
X6533500Y3102208D1*
X6521728Y3102670D1*
X6510028Y3104055D1*
X6498473Y3106353D1*
X6487134Y3109551D1*
X6476081Y3113629D1*
X6465382Y3118561D1*
X6455103Y3124318D1*
X6445307Y3130863D1*
X6436055Y3138157D1*
X6427404Y3146154D1*
X6419407Y3154805D1*
X6412113Y3164057D1*
X6405568Y3173853D1*
X6398713Y3186514D1*
X6388348Y3174379D1*
X6377508Y3164040D1*
X6365690Y3154833D1*
X6353014Y3146851D1*
X6339605Y3140172D1*
X6325596Y3134864D1*
X6311128Y3130979D1*
X6296345Y3128556D1*
X6281394Y3127620D1*
X6266424Y3128179D1*
X6251584Y3130228D1*
X6237023Y3133746D1*
X6222885Y3138699D1*
X6209311Y3145037D1*
X6196437Y3152697D1*
X6184391Y3161603D1*
X6173293Y3171665D1*
X6163254Y3182784D1*
X6160349Y3186472D1*
X6153432Y3173853D1*
X6146887Y3164057D1*
X6139593Y3154805D1*
X6131596Y3146154D1*
X6122945Y3138157D1*
X6113693Y3130863D1*
X6103897Y3124318D1*
X6093618Y3118561D1*
X6082919Y3113629D1*
X6071866Y3109551D1*
X6060527Y3106353D1*
X6048972Y3104055D1*
X6037272Y3102670D1*
X6025500Y3102208D1*
X6013728Y3102670D1*
X6002028Y3104055D1*
X5990473Y3106353D1*
X5979134Y3109551D1*
X5968081Y3113629D1*
X5957382Y3118561D1*
X5947103Y3124318D1*
X5937307Y3130863D1*
X5928055Y3138157D1*
X5919404Y3146154D1*
X5911407Y3154805D1*
X5904113Y3164057D1*
X5897568Y3173853D1*
X5890713Y3186514D1*
X5877596Y3171554D1*
X5868945Y3163557D1*
X5859693Y3156263D1*
X5849897Y3149718D1*
X5839618Y3143961D1*
X5828919Y3139029D1*
X5817866Y3134951D1*
X5806527Y3131753D1*
X5794972Y3129455D1*
X5783272Y3128070D1*
X5771500Y3127608D1*
X5759728Y3128070D1*
X5748028Y3129455D1*
X5736473Y3131753D1*
X5725134Y3134951D1*
X5714081Y3139029D1*
X5703382Y3143961D1*
X5693103Y3149718D1*
X5683307Y3156263D1*
X5674055Y3163557D1*
X5665404Y3171554D1*
X5657407Y3180205D1*
X5650113Y3189457D1*
X5643568Y3199253D1*
X5637811Y3209532D1*
X5632879Y3220231D1*
X5628801Y3231284D1*
X5625603Y3242623D1*
X5623305Y3254178D1*
X5621920Y3265878D1*
X5621458Y3277650D1*
X5621920Y3289422D1*
X5623305Y3301122D1*
X5625603Y3312677D1*
X5628801Y3324016D1*
X5632879Y3335069D1*
X5637811Y3345768D1*
X5643568Y3356047D1*
X5650113Y3365843D1*
X5657407Y3375095D1*
X5665404Y3383746D1*
X5674055Y3391743D1*
X5683307Y3399037D1*
X5693103Y3405582D1*
X5703382Y3411339D1*
X5714081Y3416271D1*
X5725134Y3420349D1*
X5736473Y3423547D1*
X5748028Y3425845D1*
X5759728Y3427230D1*
X5771500Y3427692D1*
X5783272Y3427230D1*
X5794972Y3425845D1*
X5806527Y3423547D1*
X5817866Y3420349D1*
X5828919Y3416271D1*
X5839618Y3411339D1*
X5849897Y3405582D1*
X5859693Y3399037D1*
X5868945Y3391743D1*
X5877596Y3383746D1*
X5885593Y3375095D1*
X5892887Y3365843D1*
X5899432Y3356047D1*
X5906287Y3343386D1*
X5919404Y3358346D1*
X5931344Y3368936D1*
X5931628Y3747811D1*
X5933947Y3762433D1*
X5923203Y3768764D1*
X5892820D1*
X5899551Y3751473D1*
X5902877Y3739679D1*
X5905268Y3727660D1*
X5906708Y3715491D1*
X5907189Y3703247D1*
X5906708Y3691002D1*
X5905268Y3678833D1*
X5902877Y3666815D1*
X5899551Y3655021D1*
X5895309Y3643524D1*
X5890179Y3632396D1*
X5884192Y3621704D1*
X5877384Y3611516D1*
X5869797Y3601892D1*
X5861479Y3592894D1*
X5852481Y3584576D1*
X5842858Y3576990D1*
X5832669Y3570182D1*
X5821977Y3564194D1*
X5810849Y3559064D1*
X5799353Y3554823D1*
X5787559Y3551496D1*
X5775540Y3549106D1*
X5763371Y3547665D1*
X5751127Y3547184D1*
X5738882Y3547665D1*
X5726713Y3549106D1*
X5714695Y3551496D1*
X5702901Y3554823D1*
X5691404Y3559064D1*
X5680276Y3564194D1*
X5669584Y3570182D1*
X5659396Y3576990D1*
X5649772Y3584576D1*
X5640774Y3592894D1*
X5632456Y3601892D1*
X5624870Y3611516D1*
X5618062Y3621704D1*
X5612074Y3632396D1*
X5606944Y3643524D1*
X5602703Y3655021D1*
X5599376Y3666815D1*
X5596986Y3678833D1*
X5595545Y3691002D1*
X5595064Y3703247D1*
X5595545Y3715491D1*
X5596986Y3727660D1*
X5599376Y3739679D1*
X5602703Y3751473D1*
X5609609Y3768751D1*
X5364423Y3768764D1*
X5353221Y3760983D1*
X5336504Y3752466D1*
X5318661Y3746668D1*
X5300131Y3743733D1*
X5281369D1*
X5262839Y3746668D1*
X5244996Y3752466D1*
X5239700Y3754907D1*
X5230813Y3744194D1*
X5222197Y3735863D1*
X5212791Y3728437D1*
X5202689Y3721990D1*
X5191992Y3716586D1*
X5180808Y3712281D1*
X5169249Y3709117D1*
X5157431Y3707125D1*
X5145473Y3706327D1*
X5133496Y3706730D1*
X5121619Y3708330D1*
X5109961Y3711111D1*
X5098641Y3715045D1*
X5087772Y3720093D1*
X5077462Y3726203D1*
X5067816Y3733315D1*
X5058930Y3741356D1*
X5050894Y3750247D1*
X5043789Y3759898D1*
X5037685Y3770211D1*
X5032644Y3781084D1*
X5028717Y3792407D1*
X5025943Y3804065D1*
X5024351Y3815944D1*
X5023955Y3827921D1*
X5024761Y3839879D1*
X5026759Y3851695D1*
X5029931Y3863252D1*
X5034243Y3874434D1*
X5039653Y3885127D1*
X5046107Y3895226D1*
X5053539Y3904627D1*
X5061875Y3913237D1*
X5071031Y3920970D1*
X5080915Y3927747D1*
X5091428Y3933501D1*
X5102464Y3938173D1*
X5113912Y3941717D1*
X5125658Y3944097D1*
X5137583Y3945289D1*
X5149567Y3945282D1*
X5161490Y3944074D1*
X5173233Y3941680D1*
X5184677Y3938121D1*
X5194573Y3933968D1*
X5206207Y3947470D1*
X5220473Y3959655D1*
X5236470Y3969457D1*
X5253803Y3976637D1*
X5272046Y3981017D1*
X5290750Y3982489D1*
X5309454Y3981017D1*
X5327697Y3976637D1*
X5345030Y3969457D1*
X5361027Y3959655D1*
X5364281Y3957089D1*
X6108987D1*
X6655448Y4503537D1*
X6657878Y4516971D1*
X6663676Y4534814D1*
X6672193Y4551531D1*
X6683221Y4566709D1*
X6696487Y4579976D1*
X6711666Y4591004D1*
X6728382Y4599521D1*
X6746225Y4605319D1*
X6764756Y4608254D1*
X6783517D1*
X6802048Y4605319D1*
X6819891Y4599521D1*
X6836608Y4591004D1*
X6851786Y4579976D1*
X6865053Y4566709D1*
X6876080Y4551531D1*
X6884598Y4534814D1*
X6890395Y4516971D1*
X6893330Y4498441D1*
Y4479679D1*
X6890395Y4461149D1*
X6884598Y4443306D1*
X6876080Y4426589D1*
X6865053Y4411411D1*
X6851786Y4398144D1*
X6836608Y4387116D1*
X6819891Y4378599D1*
X6802048Y4372801D1*
X6788725Y4370483D1*
X6119667Y3701424D1*
X6119663Y3369094D1*
X6131596Y3358346D1*
X6139593Y3349695D1*
X6144670Y3343479D1*
X6151906Y3356596D1*
X6160414Y3368926D1*
X6170110Y3380346D1*
X6180895Y3390742D1*
X6192664Y3400011D1*
X6205298Y3408060D1*
X6218672Y3414809D1*
X6232652Y3420191D1*
X6247100Y3424152D1*
X6261870Y3426653D1*
X6276816Y3427668D1*
X6291789Y3427188D1*
X6306639Y3425217D1*
X6321219Y3421776D1*
X6335383Y3416897D1*
X6348989Y3410631D1*
X6361903Y3403039D1*
X6373996Y3394197D1*
X6385147Y3384193D1*
X6395244Y3373127D1*
X6404188Y3361110D1*
X6411889Y3348260D1*
X6414349Y3343430D1*
X6427404Y3358346D1*
X6436055Y3366343D1*
X6445307Y3373637D1*
X6455103Y3380182D1*
X6465382Y3385939D1*
X6476081Y3390871D1*
X6487134Y3394949D1*
X6498473Y3398147D1*
X6510028Y3400445D1*
X6521728Y3401830D1*
X6533500Y3402292D1*
X6545272Y3401830D1*
X6556972Y3400445D1*
X6568527Y3398147D1*
X6579866Y3394949D1*
X6590919Y3390871D1*
X6601618Y3385939D1*
X6611897Y3380182D1*
X6621693Y3373637D1*
X6630945Y3366343D1*
X6639596Y3358346D1*
X6647593Y3349695D1*
X6652579Y3343370D1*
X6659568Y3356047D1*
X6666113Y3365843D1*
X6673407Y3375095D1*
X6681404Y3383746D1*
X6690055Y3391743D1*
X6699307Y3399037D1*
X6709103Y3405582D1*
X6719382Y3411339D1*
X6730081Y3416271D1*
X6741134Y3420349D1*
X6752473Y3423547D1*
X6764028Y3425845D1*
X6775728Y3427230D1*
X6787500Y3427692D1*
X6799272Y3427230D1*
X6810972Y3425845D1*
X6822527Y3423547D1*
X6833866Y3420349D1*
X6844919Y3416271D1*
X6855618Y3411339D1*
X6865897Y3405582D1*
X6875693Y3399037D1*
X6884945Y3391743D1*
X6893596Y3383746D1*
X6901593Y3375095D1*
X6908887Y3365843D1*
X6915432Y3356047D1*
X6922287Y3343386D1*
X6935404Y3358346D1*
X6944055Y3366343D1*
X6953307Y3373637D1*
X6963103Y3380182D1*
X6973382Y3385939D1*
X6984081Y3390871D1*
X6995134Y3394949D1*
X7006473Y3398147D1*
X7018028Y3400445D1*
X7029728Y3401830D1*
X7041500Y3402292D1*
X7053272Y3401830D1*
X7064972Y3400445D1*
X7076527Y3398147D1*
X7087866Y3394949D1*
X7098919Y3390871D1*
X7109618Y3385939D1*
X7119897Y3380182D1*
X7129693Y3373637D1*
X7138945Y3366343D1*
X7147596Y3358346D1*
X7155593Y3349695D1*
X7162887Y3340443D1*
X7169432Y3330647D1*
X7175189Y3320368D1*
X7180121Y3309669D1*
X7184199Y3298616D1*
X7187397Y3287277D1*
X7189695Y3275722D1*
X7191080Y3264022D1*
X7191542Y3252250D1*
X7191080Y3240478D1*
X788124Y6530667D2*
X786453Y6516549D1*
X783680Y6502605D1*
X779820Y6488922D1*
X774900Y6475584D1*
X768948Y6462673D1*
X762001Y6450269D1*
X754102Y6438448D1*
X745301Y6427283D1*
X735650Y6416843D1*
X725211Y6407193D1*
X714046Y6398391D1*
X702225Y6390492D1*
X689821Y6383546D1*
X676910Y6377594D1*
X663571Y6372673D1*
X649888Y6368814D1*
X635944Y6366040D1*
X621826Y6364369D1*
X607620Y6363811D1*
X593414Y6364369D1*
X579296Y6366040D1*
X565352Y6368814D1*
X551669Y6372673D1*
X538330Y6377594D1*
X525419Y6383546D1*
X513015Y6390492D1*
X501194Y6398391D1*
X490029Y6407193D1*
X479590Y6416843D1*
X469939Y6427283D1*
X461138Y6438448D1*
X453239Y6450269D1*
X446292Y6462673D1*
X440340Y6475584D1*
X435420Y6488922D1*
X431560Y6502605D1*
X428787Y6516549D1*
X427116Y6530667D1*
X426558Y6544873D1*
X427116Y6559079D1*
X428787Y6573198D1*
X431560Y6587141D1*
X435420Y6600825D1*
X440340Y6614163D1*
X446292Y6627074D1*
X453239Y6639478D1*
X461138Y6651299D1*
X469939Y6662464D1*
X479590Y6672904D1*
X490029Y6682554D1*
X501194Y6691356D1*
X513015Y6699254D1*
X525419Y6706201D1*
X538330Y6712153D1*
X551669Y6717074D1*
X561343Y6719802D1*
X551669Y6722673D1*
X538330Y6727594D1*
X525419Y6733546D1*
X513015Y6740492D1*
X501194Y6748391D1*
X490029Y6757193D1*
X479590Y6766843D1*
X469939Y6777283D1*
X461138Y6788448D1*
X453239Y6800269D1*
X446292Y6812673D1*
X440340Y6825584D1*
X435420Y6838922D1*
X431560Y6852605D1*
X428787Y6866549D1*
X427116Y6880667D1*
X426558Y6894873D1*
X427116Y6909079D1*
X428787Y6923198D1*
X431560Y6937141D1*
X435420Y6950825D1*
X440340Y6964163D1*
X446292Y6977074D1*
X453239Y6989478D1*
X461138Y7001299D1*
X469939Y7012464D1*
X479590Y7022904D1*
X490029Y7032554D1*
X501194Y7041356D1*
X513015Y7049254D1*
X525419Y7056201D1*
X542863Y7063825D1*
X426558Y7063811D1*
Y7425935D1*
X788683D1*
Y7063811D1*
X672759D1*
X689821Y7056201D1*
X702225Y7049254D1*
X714046Y7041356D1*
X725211Y7032554D1*
X735650Y7022904D1*
X745301Y7012464D1*
X754102Y7001299D1*
X762001Y6989478D1*
X768948Y6977074D1*
X774900Y6964163D1*
X779820Y6950825D1*
X783680Y6937141D1*
X786453Y6923198D1*
X788124Y6909079D1*
X788682Y6894873D1*
X788124Y6880667D1*
X786453Y6866549D1*
X783680Y6852605D1*
X779820Y6838922D1*
X774900Y6825584D1*
X768948Y6812673D1*
X762001Y6800269D1*
X754102Y6788448D1*
X745301Y6777283D1*
X735650Y6766843D1*
X725211Y6757193D1*
X714046Y6748391D1*
X702225Y6740492D1*
X689821Y6733546D1*
X676910Y6727594D1*
X663571Y6722673D1*
X653897Y6719944D1*
X663571Y6717074D1*
X676910Y6712153D1*
X689821Y6706201D1*
X702225Y6699254D1*
X714046Y6691356D1*
X725211Y6682554D1*
X735650Y6672904D1*
X745301Y6662464D1*
X754102Y6651299D1*
X762001Y6639478D1*
X768948Y6627074D1*
X774900Y6614163D1*
X779820Y6600825D1*
X783680Y6587141D1*
X786453Y6573198D1*
X788124Y6559079D1*
X788682Y6544873D1*
X788124Y6530667D1*
X7200559Y3145812D2*
X7254101D1*
X7238877Y3159004D1*
X7231359Y3167137D1*
X7224502Y3175836D1*
X7218348Y3185045D1*
X7212936Y3194709D1*
X7208299Y3204768D1*
X7204465Y3215159D1*
X7201459Y3225820D1*
X7199298Y3236683D1*
X7197996Y3247682D1*
X7197561Y3258750D1*
X7197996Y3269818D1*
X7199298Y3280817D1*
X7201459Y3291680D1*
X7204465Y3302341D1*
X7208299Y3312732D1*
X7212936Y3322791D1*
X7218348Y3332455D1*
X7224502Y3341664D1*
X7231359Y3350363D1*
X7238877Y3358496D1*
X7247011Y3366015D1*
X7255709Y3372872D1*
X7264919Y3379025D1*
X7274582Y3384437D1*
X7284641Y3389075D1*
X7295033Y3392908D1*
X7305693Y3395915D1*
X7316556Y3398076D1*
X7327556Y3399377D1*
X7338623Y3399812D1*
X7349691Y3399377D1*
X7360690Y3398076D1*
X7371554Y3395915D1*
X7382214Y3392908D1*
X7392606Y3389075D1*
X7402664Y3384437D1*
X7412328Y3379025D1*
X7421538Y3372872D1*
X7430236Y3366015D1*
X7438369Y3358496D1*
X7445888Y3350363D1*
X7452745Y3341664D1*
X7458899Y3332455D1*
X7465561Y3320080D1*
X7472348Y3332455D1*
X7478502Y3341664D1*
X7485359Y3350363D1*
X7492877Y3358496D1*
X7501011Y3366015D1*
X7509709Y3372872D1*
X7518919Y3379025D1*
X7528582Y3384437D1*
X7538641Y3389075D1*
X7549033Y3392908D1*
X7559693Y3395915D1*
X7570556Y3398076D1*
X7581556Y3399377D1*
X7592623Y3399812D1*
X7603691Y3399377D1*
X7614690Y3398076D1*
X7625554Y3395915D1*
X7636214Y3392908D1*
X7646606Y3389075D1*
X7656664Y3384437D1*
X7666328Y3379025D1*
X7675538Y3372872D1*
X7684236Y3366015D1*
X7692369Y3358496D1*
X7699888Y3350363D1*
X7706745Y3341664D1*
X7712899Y3332455D1*
X7719561Y3320080D1*
X7726348Y3332455D1*
X7732502Y3341664D1*
X7739359Y3350363D1*
X7746877Y3358496D1*
X7755011Y3366015D1*
X7763709Y3372872D1*
X7772919Y3379025D1*
X7782582Y3384437D1*
X7792641Y3389075D1*
X7803033Y3392908D1*
X7813693Y3395915D1*
X7824556Y3398076D1*
X7835556Y3399377D1*
X7846623Y3399812D1*
X7857691Y3399377D1*
X7868690Y3398076D1*
X7879554Y3395915D1*
X7890214Y3392908D1*
X7900606Y3389075D1*
X7910664Y3384437D1*
X7920328Y3379025D1*
X7929538Y3372872D1*
X7938236Y3366015D1*
X7946369Y3358496D1*
X7953888Y3350363D1*
X7960745Y3341664D1*
X7966899Y3332455D1*
X7973561Y3320080D1*
X7980348Y3332455D1*
X7986502Y3341664D1*
X7993359Y3350363D1*
X8000877Y3358496D1*
X8009011Y3366015D1*
X8017709Y3372872D1*
X8026919Y3379025D1*
X8036582Y3384437D1*
X8046641Y3389075D1*
X8057033Y3392908D1*
X8067693Y3395915D1*
X8078556Y3398076D1*
X8089556Y3399377D1*
X8100623Y3399812D1*
X8111691Y3399377D1*
X8122690Y3398076D1*
X8133554Y3395915D1*
X8144214Y3392908D1*
X8154606Y3389075D1*
X8164664Y3384437D1*
X8174328Y3379025D1*
X8183538Y3372872D1*
X8192236Y3366015D1*
X8200369Y3358496D1*
X8207888Y3350363D1*
X8214745Y3341664D1*
X8220899Y3332455D1*
X8226311Y3322791D1*
X8230948Y3312732D1*
X8234782Y3302341D1*
X8237788Y3291680D1*
X8239949Y3280817D1*
X8241251Y3269818D1*
X8241686Y3258750D1*
X8241251Y3247682D1*
X8239949Y3236683D1*
X8237788Y3225820D1*
X8234782Y3215159D1*
X8230948Y3204768D1*
X8226311Y3194709D1*
X8220899Y3185045D1*
X8214745Y3175836D1*
X8207888Y3167137D1*
X8200369Y3159004D1*
X8192236Y3151485D1*
X8183538Y3144628D1*
X8174328Y3138475D1*
X8161953Y3131813D1*
X8174328Y3125025D1*
X8183538Y3118872D1*
X8192236Y3112015D1*
X8200369Y3104496D1*
X8207888Y3096363D1*
X8214745Y3087664D1*
X8220899Y3078455D1*
X8226311Y3068791D1*
X8230948Y3058732D1*
X8234782Y3048341D1*
X8237788Y3037680D1*
X8239949Y3026817D1*
X8241251Y3015818D1*
X8241686Y3004750D1*
X8241251Y2993682D1*
X8239949Y2982683D1*
X8237788Y2971820D1*
X8234782Y2961159D1*
X8230948Y2950768D1*
X8226311Y2940709D1*
X8220899Y2931045D1*
X8214745Y2921836D1*
X8207888Y2913137D1*
X8200369Y2905004D1*
X8192236Y2897485D1*
X8183538Y2890628D1*
X8174328Y2884475D1*
X8164664Y2879063D1*
X8154606Y2874425D1*
X8144214Y2870592D1*
X8133554Y2867585D1*
X8122690Y2865424D1*
X8111691Y2864123D1*
X8100623Y2863688D1*
X8089556Y2864123D1*
X8078556Y2865424D1*
X8067693Y2867585D1*
X8057033Y2870592D1*
X8046641Y2874425D1*
X8036582Y2879063D1*
X8026919Y2884475D1*
X8017709Y2890628D1*
X8009011Y2897485D1*
X8000877Y2905004D1*
X7993359Y2913137D1*
X7986502Y2921836D1*
X7980348Y2931045D1*
X7973686Y2943420D1*
X7966899Y2931045D1*
X7960745Y2921836D1*
X7953888Y2913137D1*
X7946369Y2905004D1*
X7938236Y2897485D1*
X7929538Y2890628D1*
X7920328Y2884475D1*
X7910664Y2879063D1*
X7900606Y2874425D1*
X7890214Y2870592D1*
X7879554Y2867585D1*
X7868690Y2865424D1*
X7857691Y2864123D1*
X7846623Y2863688D1*
X7835556Y2864123D1*
X7824556Y2865424D1*
X7813693Y2867585D1*
X7803033Y2870592D1*
X7792641Y2874425D1*
X7782582Y2879063D1*
X7772919Y2884475D1*
X7763709Y2890628D1*
X7755011Y2897485D1*
X7746877Y2905004D1*
X7739359Y2913137D1*
X7732502Y2921836D1*
X7726348Y2931045D1*
X7719686Y2943420D1*
X7712899Y2931045D1*
X7706745Y2921836D1*
X7699888Y2913137D1*
X7692369Y2905004D1*
X7684236Y2897485D1*
X7675538Y2890628D1*
X7666328Y2884475D1*
X7656664Y2879063D1*
X7646606Y2874425D1*
X7636214Y2870592D1*
X7625554Y2867585D1*
X7614690Y2865424D1*
X7603691Y2864123D1*
X7592623Y2863688D1*
X7581556Y2864123D1*
X7570556Y2865424D1*
X7559693Y2867585D1*
X7549033Y2870592D1*
X7538641Y2874425D1*
X7528582Y2879063D1*
X7518919Y2884475D1*
X7509709Y2890628D1*
X7501011Y2897485D1*
X7492877Y2905004D1*
X7485359Y2913137D1*
X7479707Y2920307D1*
X7479686Y2863687D1*
X7197562D1*
Y3145812D1*
X7200559D1*
X6351205Y5246752D2*
X6349764Y5234583D1*
X6347374Y5222565D1*
X6344047Y5210771D1*
X6339806Y5199274D1*
X6334676Y5188146D1*
X6328688Y5177454D1*
X6321880Y5167266D1*
X6314294Y5157642D1*
X6305976Y5148644D1*
X6296978Y5140326D1*
X6287354Y5132740D1*
X6277166Y5125932D1*
X6266474Y5119944D1*
X6255346Y5114814D1*
X6243849Y5110573D1*
X6232055Y5107246D1*
X6220037Y5104856D1*
X6207868Y5103415D1*
X6195623Y5102934D1*
X6183379Y5103415D1*
X6171210Y5104856D1*
X6159191Y5107246D1*
X6147397Y5110573D1*
X6135901Y5114814D1*
X6124773Y5119944D1*
X6114081Y5125932D1*
X6103892Y5132740D1*
X6094269Y5140326D1*
X6085271Y5148644D1*
X6076953Y5157642D1*
X6069366Y5167266D1*
X6062558Y5177454D1*
X6056571Y5188146D1*
X6051441Y5199274D1*
X6047199Y5210771D1*
X6043873Y5222565D1*
X6041482Y5234583D1*
X6040042Y5246752D1*
X6039561Y5258997D1*
X6040042Y5271241D1*
X6041482Y5283410D1*
X6043873Y5295429D1*
X6047199Y5307223D1*
X6051441Y5318719D1*
X6056571Y5329847D1*
X6062558Y5340539D1*
X6069366Y5350728D1*
X6076953Y5360351D1*
X6085271Y5369349D1*
X6094269Y5377667D1*
X6103892Y5385254D1*
X6114081Y5392062D1*
X6124773Y5398049D1*
X6135901Y5403179D1*
X6147397Y5407421D1*
X6159191Y5410747D1*
X6171210Y5413138D1*
X6183379Y5414578D1*
X6195623Y5415059D1*
X6207868Y5414578D1*
X6220037Y5413138D1*
X6232055Y5410747D1*
X6243849Y5407421D1*
X6255346Y5403179D1*
X6266474Y5398049D1*
X6277166Y5392062D1*
X6287354Y5385254D1*
X6296978Y5377667D1*
X6305976Y5369349D1*
X6314294Y5360351D1*
X6321880Y5350728D1*
X6328688Y5340539D1*
X6334676Y5329847D1*
X6339806Y5318719D1*
X6344047Y5307223D1*
X6347374Y5295429D1*
X6349764Y5283410D1*
X6351205Y5271241D1*
X6351686Y5258997D1*
X6351205Y5246752D1*
X5805331Y5840005D2*
X5803891Y5827836D1*
X5801500Y5815818D1*
X5798174Y5804024D1*
X5793933Y5792528D1*
X5788802Y5781399D1*
X5782815Y5770708D1*
X5773844Y5757775D1*
X5787059Y5765659D1*
X5803885Y5772628D1*
X5821594Y5776880D1*
X5839750Y5778309D1*
X5857906Y5776880D1*
X5875615Y5772628D1*
X5892441Y5765659D1*
X5907970Y5756143D1*
X5921818Y5744315D1*
X5933646Y5730466D1*
X5943162Y5714938D1*
X5950132Y5698112D1*
X5954383Y5680403D1*
X5955812Y5662247D1*
X5954383Y5644091D1*
X5950132Y5626381D1*
X5948863Y5622941D1*
X5961149Y5626609D1*
X5979137Y5629458D1*
X5997349D1*
X6015338Y5626609D1*
X6032658Y5620981D1*
X6048886Y5612713D1*
X6063620Y5602008D1*
X6076498Y5589130D1*
X6087203Y5574396D1*
X6095471Y5558168D1*
X6101099Y5540848D1*
X6103948Y5522859D1*
Y5504647D1*
X6101099Y5486659D1*
X6095471Y5469338D1*
X6087203Y5453111D1*
X6076498Y5438377D1*
X6063620Y5425499D1*
X6048886Y5414794D1*
X6032658Y5406526D1*
X6015338Y5400898D1*
X5997349Y5398049D1*
X5979137D1*
X5961149Y5400898D1*
X5943828Y5406526D1*
X5927601Y5414794D1*
X5912867Y5425499D1*
X5899989Y5438377D1*
X5889284Y5453111D1*
X5881016Y5469338D1*
X5875388Y5486659D1*
X5872539Y5504647D1*
Y5522859D1*
X5875388Y5540848D1*
X5879131Y5553059D1*
X5866844Y5549391D1*
X5848856Y5546542D1*
X5830644D1*
X5812656Y5549391D1*
X5795335Y5555019D1*
X5779108Y5563287D1*
X5764374Y5573992D1*
X5751496Y5586870D1*
X5740791Y5601604D1*
X5732522Y5617832D1*
X5726895Y5635152D1*
X5724046Y5653141D1*
Y5671353D1*
X5726895Y5689341D1*
X5732522Y5706662D1*
X5740791Y5722889D1*
X5744212Y5728010D1*
X5731292Y5719185D1*
X5720601Y5713198D1*
X5709472Y5708067D1*
X5697976Y5703826D1*
X5686182Y5700500D1*
X5674164Y5698109D1*
X5661995Y5696669D1*
X5649750Y5696188D1*
X5637505Y5696669D1*
X5625336Y5698109D1*
X5613318Y5700500D1*
X5601524Y5703826D1*
X5590028Y5708067D1*
X5578899Y5713198D1*
X5568208Y5719185D1*
X5558019Y5725993D1*
X5548396Y5733579D1*
X5539397Y5741897D1*
X5531079Y5750896D1*
X5523493Y5760519D1*
X5516685Y5770708D1*
X5510698Y5781399D1*
X5505567Y5792528D1*
X5501326Y5804024D1*
X5498000Y5815818D1*
X5495609Y5827836D1*
X5494169Y5840005D1*
X5493688Y5852250D1*
X5494169Y5864495D1*
X5495609Y5876664D1*
X5498818Y5891584D1*
X5299113Y5691905D1*
X5298824Y5678246D1*
X5295889Y5659715D1*
X5290091Y5641872D1*
X5281574Y5625156D1*
X5270546Y5609977D1*
X5257279Y5596711D1*
X5242101Y5585683D1*
X5225384Y5577166D1*
X5207541Y5571368D1*
X5189011Y5568433D1*
X5170249D1*
X5151719Y5571368D1*
X5133876Y5577166D1*
X5117159Y5585683D1*
X5112921Y5588515D1*
X5106944Y5577529D1*
X5095916Y5562351D1*
X5082649Y5549084D1*
X5067471Y5538056D1*
X5050754Y5529539D1*
X5032911Y5523741D1*
X5014381Y5520806D1*
X4995619D1*
X4977089Y5523741D1*
X4959246Y5529539D1*
X4942529Y5538056D1*
X4927351Y5549084D1*
X4914084Y5562351D1*
X4903056Y5577529D1*
X4894539Y5594246D1*
X4888741Y5612089D1*
X4885806Y5630619D1*
Y5649381D1*
X4886190Y5652622D1*
X4688159Y5850616D1*
X4558319Y5850638D1*
X4549793Y5841207D1*
X4535527Y5829022D1*
X4519530Y5819219D1*
X4502197Y5812040D1*
X4483954Y5807660D1*
X4465250Y5806188D1*
X4446546Y5807660D1*
X4428303Y5812040D1*
X4410970Y5819219D1*
X4394973Y5829022D1*
X4380707Y5841207D1*
X4368522Y5855473D1*
X4358719Y5871470D1*
X4351540Y5888803D1*
X4347160Y5907046D1*
X4345688Y5925750D1*
X4347160Y5944454D1*
X4351540Y5962697D1*
X4358719Y5980030D1*
X4368522Y5996027D1*
X4380707Y6010293D1*
X4394973Y6022478D1*
X4410970Y6032281D1*
X4428303Y6039460D1*
X4446546Y6043840D1*
X4465250Y6045312D1*
X4483954Y6043840D1*
X4502197Y6039460D1*
X4519530Y6032281D1*
X4535527Y6022478D1*
X4549793Y6010293D1*
X4558186Y6000836D1*
X4725143Y6000631D1*
X4736785Y5998787D1*
X4747994Y5995145D1*
X4758496Y5989794D1*
X4768032Y5982866D1*
X4804154Y5947071D1*
X4992295Y5758930D1*
X5005000Y5759562D1*
X5023704Y5758090D1*
X5041947Y5753710D1*
X5059280Y5746531D1*
X5071709Y5739112D1*
X5077686Y5750098D1*
X5088714Y5765276D1*
X5101981Y5778543D1*
X5117159Y5789570D1*
X5133876Y5798088D1*
X5151719Y5803885D1*
X5170249Y5806820D1*
X5183844Y5807023D1*
X5504643Y6127845D1*
X5504933Y6141504D1*
X5507868Y6160035D1*
X5513666Y6177878D1*
X5522183Y6194594D1*
X5533211Y6209773D1*
X5546477Y6223039D1*
X5561656Y6234067D1*
X5578372Y6242584D1*
X5596215Y6248382D1*
X5614746Y6251317D1*
X5633507D1*
X5652038Y6248382D1*
X5669881Y6242584D1*
X5686598Y6234067D1*
X5701776Y6223039D1*
X5715043Y6209773D1*
X5726070Y6194594D1*
X5734588Y6177878D1*
X5740385Y6160035D1*
X5743320Y6141504D1*
Y6122743D1*
X5740385Y6104212D1*
X5734588Y6086369D1*
X5726070Y6069652D1*
X5715043Y6054474D1*
X5701776Y6041207D1*
X5686598Y6030180D1*
X5669881Y6021662D1*
X5652038Y6015865D1*
X5633507Y6012930D1*
X5619913Y6012727D1*
X5610488Y6003279D1*
X5625336Y6006391D1*
X5637505Y6007831D1*
X5649750Y6008312D1*
X5661995Y6007831D1*
X5674164Y6006391D1*
X5686182Y6004000D1*
X5697976Y6000674D1*
X5709472Y5996433D1*
X5720601Y5991302D1*
X5731292Y5985315D1*
X5740247Y5979331D1*
X5738513Y5993810D1*
X5738418Y6005794D1*
X5739523Y6017727D1*
X5741817Y6029490D1*
X5745277Y6040964D1*
X5749868Y6052034D1*
X5755545Y6062588D1*
X5762249Y6072522D1*
X5769915Y6081734D1*
X5778464Y6090133D1*
X5787811Y6097633D1*
X5797861Y6104160D1*
X5808515Y6109649D1*
X5819665Y6114043D1*
X5831198Y6117299D1*
X5843000Y6119384D1*
X5854951Y6120277D1*
X5866931Y6119969D1*
X5878821Y6118463D1*
X5890500Y6115775D1*
X5901851Y6111931D1*
X5912760Y6106970D1*
X5923118Y6100941D1*
X5932820Y6093906D1*
X5941769Y6085936D1*
X5949876Y6077109D1*
X5957058Y6067515D1*
X5963243Y6057250D1*
X5968370Y6046418D1*
X5972387Y6035127D1*
X5975253Y6023490D1*
X5976940Y6011625D1*
X5977398Y5997753D1*
X5976498Y5985803D1*
X5974405Y5974002D1*
X5971142Y5962471D1*
X5966741Y5951324D1*
X5961246Y5940673D1*
X5954713Y5930627D1*
X5947206Y5921285D1*
X5938802Y5912741D1*
X5929585Y5905081D1*
X5919648Y5898383D1*
X5909089Y5892713D1*
X5898017Y5888128D1*
X5886541Y5884675D1*
X5874776Y5882389D1*
X5862843Y5881291D1*
X5850859Y5881394D1*
X5838945Y5882696D1*
X5827222Y5885183D1*
X5815807Y5888832D1*
X5804814Y5893606D1*
X5799420Y5896452D1*
X5803891Y5876664D1*
X5805331Y5864495D1*
X5805812Y5852250D1*
X5805331Y5840005D1*
X3182268Y1534903D2*
X3180636Y1520009D1*
X3177927Y1505273D1*
X3174154Y1490772D1*
X3169337Y1476584D1*
X3163502Y1462783D1*
X3156680Y1449443D1*
X3148906Y1436634D1*
X3140223Y1424424D1*
X3130674Y1412877D1*
X3120312Y1402054D1*
X3109191Y1392013D1*
X3097370Y1382807D1*
X3084911Y1374483D1*
X3071880Y1367088D1*
X3058347Y1360658D1*
X3044381Y1355229D1*
X3030059Y1350829D1*
X3015454Y1347482D1*
X3000645Y1345204D1*
X2985709Y1344009D1*
X2970726Y1343902D1*
X2955775Y1344885D1*
X2940935Y1346951D1*
X2926284Y1350090D1*
X2911900Y1354285D1*
X2897859Y1359514D1*
X2884235Y1365750D1*
X2871100Y1372960D1*
X2858523Y1381104D1*
X2846572Y1390141D1*
X2835309Y1400023D1*
X2824794Y1410697D1*
X2815082Y1422107D1*
X2806225Y1434192D1*
X2798270Y1446889D1*
X2791258Y1460131D1*
X2785227Y1473847D1*
X2780209Y1487964D1*
X2776229Y1502410D1*
X2773310Y1517106D1*
X2771467Y1531976D1*
X2770709Y1546940D1*
X2771040Y1561919D1*
X2772459Y1576835D1*
X2774958Y1591609D1*
X2778524Y1606162D1*
X2783138Y1620417D1*
X2788775Y1634299D1*
X2795407Y1647735D1*
X2802997Y1660654D1*
X2811506Y1672987D1*
X2820889Y1684669D1*
X2831095Y1695638D1*
X2842072Y1705837D1*
X2853761Y1715211D1*
X2866100Y1723711D1*
X2879024Y1731291D1*
X2892465Y1737913D1*
X2906351Y1743540D1*
X2920610Y1748144D1*
X2935165Y1751699D1*
X2949941Y1754188D1*
X2964858Y1755595D1*
X2979838Y1755916D1*
X2994801Y1755147D1*
X3009669Y1753292D1*
X3024364Y1750363D1*
X3038806Y1746373D1*
X3052920Y1741344D1*
X3066632Y1735303D1*
X3079868Y1728282D1*
X3092559Y1720317D1*
X3104638Y1711451D1*
X3116041Y1701731D1*
X3126707Y1691208D1*
X3136580Y1679938D1*
X3145609Y1667980D1*
X3153744Y1655398D1*
X3160944Y1642257D1*
X3167170Y1628629D1*
X3172389Y1614584D1*
X3176574Y1600197D1*
X3179702Y1585544D1*
X3181757Y1570702D1*
X3182812Y1549877D1*
X3182268Y1534903D1*
X8701298Y6508438D2*
X8998436D1*
Y6096314D1*
X8686312D1*
Y6130912D1*
X8675367Y6122810D1*
X8662544Y6115066D1*
X8649036Y6108587D1*
X8634970Y6103433D1*
X8620474Y6099651D1*
X8605682Y6097277D1*
X8590731Y6096332D1*
X8575758Y6096825D1*
X8560902Y6098751D1*
X8546299Y6102093D1*
X8532083Y6106820D1*
X8518386Y6112888D1*
X8505334Y6120241D1*
X8493047Y6128812D1*
X8481638Y6138521D1*
X8471213Y6149280D1*
X8461374Y6161686D1*
X8453044Y6151022D1*
X8444726Y6142024D1*
X8435728Y6133706D1*
X8426104Y6126120D1*
X8415916Y6119312D1*
X8405224Y6113324D1*
X8394096Y6108194D1*
X8382599Y6103953D1*
X8370805Y6100626D1*
X8358787Y6098236D1*
X8346618Y6096795D1*
X8334373Y6096314D1*
X8322129Y6096795D1*
X8309960Y6098236D1*
X8297941Y6100626D1*
X8286147Y6103953D1*
X8274651Y6108194D1*
X8263523Y6113324D1*
X8252831Y6119312D1*
X8242642Y6126120D1*
X8233019Y6133706D1*
X8224021Y6142024D1*
X8215703Y6151022D1*
X8208116Y6160646D1*
X8201308Y6170834D1*
X8195321Y6181526D1*
X8190191Y6192654D1*
X8185949Y6204151D1*
X8182623Y6215945D1*
X8180232Y6227963D1*
X8178792Y6240132D1*
X8178312Y6267363D1*
X8178311Y6352377D1*
X8178792Y6364621D1*
X8180232Y6376790D1*
X8182623Y6388809D1*
X8185949Y6400603D1*
X8190191Y6412099D1*
X8195321Y6423227D1*
X8201308Y6433919D1*
X8208116Y6444108D1*
X8215703Y6453731D1*
X8224021Y6462729D1*
X8233019Y6471047D1*
X8242642Y6478634D1*
X8252831Y6485442D1*
X8263523Y6491429D1*
X8274651Y6496559D1*
X8286147Y6500801D1*
X8297941Y6504127D1*
X8309960Y6506518D1*
X8322129Y6507958D1*
X8334373Y6508439D1*
X8346618Y6507958D1*
X8358787Y6506518D1*
X8370805Y6504127D1*
X8382599Y6500801D1*
X8394096Y6496559D1*
X8405224Y6491429D1*
X8415916Y6485442D1*
X8426104Y6478634D1*
X8435728Y6471047D1*
X8444726Y6462729D1*
X8453044Y6453731D1*
X8461348Y6443033D1*
X8470923Y6455143D1*
X8481318Y6465931D1*
X8492699Y6475672D1*
X8504961Y6484278D1*
X8517993Y6491668D1*
X8531673Y6497774D1*
X8545875Y6502541D1*
X8560469Y6505924D1*
X8575320Y6507892D1*
X8590291Y6508427D1*
X8605245Y6507524D1*
X8620043Y6505192D1*
X8634549Y6501451D1*
X8648630Y6496337D1*
X8662156Y6489896D1*
X8675002Y6482188D1*
X8686309Y6473876D1*
X8686312Y6508438D1*
X8701298D1*
X5072525Y4664256D2*
X5071624Y4652306D1*
X5069532Y4640506D1*
X5066269Y4628974D1*
X5061868Y4617827D1*
X5056373Y4607177D1*
X5049839Y4597130D1*
X5042333Y4587788D1*
X5033929Y4579244D1*
X5024712Y4571584D1*
X5014774Y4564886D1*
X5004216Y4559216D1*
X4993143Y4554632D1*
X4981667Y4551179D1*
X4969903Y4548892D1*
X4957969Y4547794D1*
X4945985Y4547897D1*
X4934072Y4549199D1*
X4922349Y4551687D1*
X4910933Y4555336D1*
X4899941Y4560109D1*
X4889481Y4565959D1*
X4879660Y4572827D1*
X4870575Y4580643D1*
X4862319Y4589330D1*
X4854974Y4598799D1*
X4848613Y4608956D1*
X4843302Y4619699D1*
X4839092Y4630920D1*
X4836027Y4642506D1*
X4834137Y4654340D1*
X4833442Y4666304D1*
X4833947Y4678278D1*
X4835649Y4690141D1*
X4838530Y4701774D1*
X4842560Y4713060D1*
X4847701Y4723886D1*
X4853899Y4734142D1*
X4861093Y4743727D1*
X4869211Y4752544D1*
X4878170Y4760503D1*
X4887881Y4767526D1*
X4898246Y4773541D1*
X4909162Y4778489D1*
X4920518Y4782319D1*
X4932200Y4784992D1*
X4944091Y4786483D1*
X4956072Y4786776D1*
X4968022Y4785868D1*
X4979821Y4783769D1*
X4991350Y4780498D1*
X5002494Y4776090D1*
X5013141Y4770589D1*
X5023184Y4764049D1*
X5032521Y4756537D1*
X5041060Y4748127D1*
X5048714Y4738905D1*
X5055406Y4728964D1*
X5061069Y4718402D1*
X5065647Y4707326D1*
X5069093Y4695848D1*
X5071372Y4684082D1*
X5072462Y4672148D1*
X5072525Y4664256D1*
X5548775D2*
X5547874Y4652306D1*
X5545782Y4640506D1*
X5542519Y4628974D1*
X5538118Y4617827D1*
X5532623Y4607177D1*
X5526089Y4597130D1*
X5518583Y4587788D1*
X5510179Y4579244D1*
X5500962Y4571584D1*
X5491024Y4564886D1*
X5480466Y4559216D1*
X5469393Y4554632D1*
X5457917Y4551179D1*
X5446153Y4548892D1*
X5434219Y4547794D1*
X5422235Y4547897D1*
X5410322Y4549199D1*
X5398599Y4551687D1*
X5387183Y4555336D1*
X5376191Y4560109D1*
X5365731Y4565959D1*
X5355910Y4572827D1*
X5346825Y4580643D1*
X5338569Y4589330D1*
X5331224Y4598799D1*
X5324863Y4608956D1*
X5319552Y4619699D1*
X5315342Y4630920D1*
X5312277Y4642506D1*
X5310387Y4654340D1*
X5309692Y4666304D1*
X5310197Y4678278D1*
X5311899Y4690141D1*
X5314780Y4701774D1*
X5318810Y4713060D1*
X5323951Y4723886D1*
X5330149Y4734142D1*
X5337343Y4743727D1*
X5345461Y4752544D1*
X5354420Y4760503D1*
X5364131Y4767526D1*
X5374496Y4773541D1*
X5385412Y4778489D1*
X5396768Y4782319D1*
X5408450Y4784992D1*
X5420341Y4786483D1*
X5432322Y4786776D1*
X5444272Y4785868D1*
X5456071Y4783769D1*
X5467600Y4780498D1*
X5478744Y4776090D1*
X5489391Y4770589D1*
X5499434Y4764049D1*
X5508771Y4756537D1*
X5517310Y4748127D1*
X5524964Y4738905D1*
X5531656Y4728964D1*
X5537319Y4718402D1*
X5541897Y4707326D1*
X5545343Y4695848D1*
X5547622Y4684082D1*
X5548712Y4672148D1*
X5548775Y4664256D1*
X5072525Y5124626D2*
X5071624Y5112676D1*
X5069532Y5100876D1*
X5066269Y5089344D1*
X5061868Y5078197D1*
X5056373Y5067547D1*
X5049839Y5057500D1*
X5042333Y5048158D1*
X5033929Y5039614D1*
X5024712Y5031954D1*
X5014774Y5025256D1*
X5004216Y5019586D1*
X4993143Y5015002D1*
X4981667Y5011549D1*
X4969903Y5009262D1*
X4957969Y5008164D1*
X4945985Y5008267D1*
X4934072Y5009569D1*
X4922349Y5012057D1*
X4910933Y5015706D1*
X4899941Y5020479D1*
X4889481Y5026329D1*
X4879660Y5033197D1*
X4870575Y5041013D1*
X4862319Y5049700D1*
X4854974Y5059169D1*
X4848613Y5069326D1*
X4843302Y5080069D1*
X4839092Y5091290D1*
X4836027Y5102876D1*
X4834137Y5114710D1*
X4833442Y5126674D1*
X4833947Y5138648D1*
X4835649Y5150511D1*
X4838530Y5162144D1*
X4842560Y5173430D1*
X4847701Y5184256D1*
X4853899Y5194512D1*
X4861093Y5204097D1*
X4869211Y5212914D1*
X4878170Y5220873D1*
X4887881Y5227896D1*
X4898246Y5233911D1*
X4909162Y5238859D1*
X4920518Y5242689D1*
X4932200Y5245362D1*
X4944091Y5246853D1*
X4956072Y5247146D1*
X4968022Y5246238D1*
X4979821Y5244139D1*
X4991350Y5240868D1*
X5002494Y5236460D1*
X5013141Y5230959D1*
X5023184Y5224419D1*
X5032521Y5216907D1*
X5041060Y5208497D1*
X5048714Y5199275D1*
X5055406Y5189334D1*
X5061069Y5178772D1*
X5065647Y5167696D1*
X5069093Y5156218D1*
X5071372Y5144452D1*
X5072462Y5132518D1*
X5072525Y5124626D1*
X5739275Y3045003D2*
X5738374Y3033053D1*
X5736282Y3021252D1*
X5733019Y3009721D1*
X5728618Y2998574D1*
X5723123Y2987923D1*
X5716589Y2977877D1*
X5709083Y2968535D1*
X5700679Y2959991D1*
X5691462Y2952331D1*
X5681524Y2945633D1*
X5670966Y2939963D1*
X5659893Y2935378D1*
X5648417Y2931925D1*
X5636653Y2929639D1*
X5624719Y2928541D1*
X5612735Y2928644D1*
X5600822Y2929946D1*
X5589099Y2932433D1*
X5577683Y2936082D1*
X5566691Y2940856D1*
X5556231Y2946706D1*
X5546410Y2953573D1*
X5537325Y2961390D1*
X5529069Y2970076D1*
X5521724Y2979546D1*
X5515363Y2989703D1*
X5510052Y3000446D1*
X5505842Y3011667D1*
X5502777Y3023252D1*
X5500887Y3035087D1*
X5500192Y3047051D1*
X5500697Y3059024D1*
X5502399Y3070887D1*
X5505280Y3082520D1*
X5509310Y3093806D1*
X5514451Y3104632D1*
X5520649Y3114889D1*
X5527843Y3124474D1*
X5535961Y3133290D1*
X5544920Y3141250D1*
X5554631Y3148273D1*
X5564996Y3154288D1*
X5575912Y3159236D1*
X5587268Y3163065D1*
X5598950Y3165739D1*
X5610841Y3167230D1*
X5622822Y3167523D1*
X5634772Y3166615D1*
X5646571Y3164515D1*
X5658100Y3161245D1*
X5669244Y3156837D1*
X5679891Y3151335D1*
X5689934Y3144796D1*
X5699271Y3137283D1*
X5707810Y3128874D1*
X5715464Y3119652D1*
X5722156Y3109710D1*
X5727819Y3099149D1*
X5732397Y3088073D1*
X5735843Y3076595D1*
X5738122Y3064829D1*
X5739212Y3052895D1*
X5739275Y3045003D1*
X6406025Y5791380D2*
X6405124Y5779429D1*
X6403032Y5767629D1*
X6399769Y5756097D1*
X6395368Y5744951D1*
X6389873Y5734300D1*
X6383339Y5724253D1*
X6375833Y5714911D1*
X6367429Y5706367D1*
X6358212Y5698708D1*
X6348274Y5692009D1*
X6337716Y5686339D1*
X6326643Y5681755D1*
X6315167Y5678302D1*
X6303403Y5676015D1*
X6291469Y5674918D1*
X6279485Y5675020D1*
X6267572Y5676322D1*
X6255849Y5678810D1*
X6244433Y5682459D1*
X6233441Y5687233D1*
X6222981Y5693082D1*
X6213160Y5699950D1*
X6204075Y5707766D1*
X6195819Y5716453D1*
X6188474Y5725922D1*
X6182113Y5736080D1*
X6176802Y5746823D1*
X6172592Y5758043D1*
X6169527Y5769629D1*
X6167637Y5781463D1*
X6166942Y5793427D1*
X6167447Y5805401D1*
X6169149Y5817264D1*
X6172030Y5828897D1*
X6176060Y5840183D1*
X6181201Y5851009D1*
X6187399Y5861266D1*
X6194593Y5870851D1*
X6202711Y5879667D1*
X6211670Y5887627D1*
X6221381Y5894649D1*
X6231746Y5900665D1*
X6242662Y5905612D1*
X6254018Y5909442D1*
X6265700Y5912116D1*
X6277591Y5913607D1*
X6289572Y5913899D1*
X6301522Y5912992D1*
X6313321Y5910892D1*
X6324850Y5907622D1*
X6335994Y5903214D1*
X6346641Y5897712D1*
X6356684Y5891172D1*
X6366021Y5883660D1*
X6374560Y5875251D1*
X6382214Y5866029D1*
X6388906Y5856087D1*
X6394569Y5845525D1*
X6399147Y5834450D1*
X6402593Y5822971D1*
X6404872Y5811206D1*
X6405962Y5799271D1*
X6406025Y5791380D1*
X5156275Y5922753D2*
X5155374Y5910803D1*
X5153282Y5899002D1*
X5150019Y5887471D1*
X5145618Y5876324D1*
X5140123Y5865673D1*
X5133589Y5855627D1*
X5126083Y5846285D1*
X5117679Y5837741D1*
X5108462Y5830081D1*
X5098524Y5823383D1*
X5087966Y5817713D1*
X5076893Y5813128D1*
X5065417Y5809675D1*
X5053653Y5807389D1*
X5041719Y5806291D1*
X5029735Y5806394D1*
X5017822Y5807696D1*
X5006099Y5810183D1*
X4994683Y5813832D1*
X4983691Y5818606D1*
X4973231Y5824456D1*
X4963410Y5831323D1*
X4954325Y5839140D1*
X4946069Y5847826D1*
X4938724Y5857296D1*
X4932363Y5867453D1*
X4927052Y5878196D1*
X4922842Y5889417D1*
X4919777Y5901002D1*
X4917887Y5912837D1*
X4917192Y5924801D1*
X4917697Y5936774D1*
X4919399Y5948637D1*
X4922280Y5960270D1*
X4926310Y5971556D1*
X4931451Y5982382D1*
X4937649Y5992639D1*
X4944843Y6002224D1*
X4952961Y6011040D1*
X4961920Y6019000D1*
X4971631Y6026023D1*
X4981996Y6032038D1*
X4992912Y6036986D1*
X5004268Y6040815D1*
X5015950Y6043489D1*
X5027841Y6044980D1*
X5039822Y6045273D1*
X5051772Y6044365D1*
X5063571Y6042265D1*
X5075100Y6038995D1*
X5086244Y6034587D1*
X5096891Y6029085D1*
X5106934Y6022546D1*
X5116271Y6015033D1*
X5124810Y6006624D1*
X5132464Y5997402D1*
X5139156Y5987460D1*
X5144819Y5976899D1*
X5149397Y5965823D1*
X5152843Y5954345D1*
X5155122Y5942579D1*
X5156212Y5930645D1*
X5156275Y5922753D1*
X6124648Y5017876D2*
X6123748Y5005926D1*
X6121655Y4994126D1*
X6118392Y4982594D1*
X6113991Y4971447D1*
X6108496Y4960797D1*
X6101963Y4950750D1*
X6094456Y4941408D1*
X6086052Y4932864D1*
X6076835Y4925204D1*
X6066898Y4918506D1*
X6056339Y4912836D1*
X6045267Y4908252D1*
X6033791Y4904799D1*
X6022026Y4902512D1*
X6010093Y4901414D1*
X5998109Y4901517D1*
X5986195Y4902819D1*
X5974472Y4905307D1*
X5963057Y4908956D1*
X5952064Y4913729D1*
X5941605Y4919579D1*
X5931783Y4926447D1*
X5922699Y4934263D1*
X5914442Y4942950D1*
X5907097Y4952419D1*
X5900737Y4962576D1*
X5895425Y4973319D1*
X5891215Y4984540D1*
X5888150Y4996126D1*
X5886260Y5007960D1*
X5885565Y5019924D1*
X5886070Y5031898D1*
X5887772Y5043761D1*
X5890653Y5055394D1*
X5894684Y5066680D1*
X5899824Y5077506D1*
X5906022Y5087762D1*
X5913216Y5097347D1*
X5921334Y5106164D1*
X5930293Y5114123D1*
X5940004Y5121146D1*
X5950370Y5127161D1*
X5961285Y5132109D1*
X5972641Y5135939D1*
X5984323Y5138612D1*
X5996214Y5140103D1*
X6008195Y5140396D1*
X6020145Y5139488D1*
X6031944Y5137389D1*
X6043473Y5134118D1*
X6054618Y5129710D1*
X6065264Y5124209D1*
X6075307Y5117669D1*
X6084645Y5110157D1*
X6093183Y5101747D1*
X6100837Y5092525D1*
X6107529Y5082584D1*
X6113193Y5072022D1*
X6117770Y5060946D1*
X6121216Y5049468D1*
X6123495Y5037702D1*
X6124585Y5025768D1*
X6124648Y5017876D1*
X6699275Y3609253D2*
X6698374Y3597303D1*
X6696282Y3585502D1*
X6693019Y3573971D1*
X6688618Y3562824D1*
X6683123Y3552173D1*
X6676589Y3542127D1*
X6669083Y3532785D1*
X6660679Y3524241D1*
X6651462Y3516581D1*
X6641524Y3509883D1*
X6630966Y3504213D1*
X6619893Y3499628D1*
X6608417Y3496175D1*
X6596653Y3493889D1*
X6584719Y3492791D1*
X6572735Y3492894D1*
X6560822Y3494196D1*
X6549099Y3496683D1*
X6537683Y3500332D1*
X6526691Y3505106D1*
X6516231Y3510956D1*
X6506410Y3517823D1*
X6497325Y3525640D1*
X6489069Y3534326D1*
X6481724Y3543796D1*
X6475363Y3553953D1*
X6470052Y3564696D1*
X6465842Y3575917D1*
X6462777Y3587502D1*
X6460887Y3599337D1*
X6460192Y3611301D1*
X6460697Y3623274D1*
X6462399Y3635137D1*
X6465280Y3646770D1*
X6469310Y3658056D1*
X6474451Y3668882D1*
X6479961Y3678092D1*
X6466683Y3682209D1*
X6455691Y3686983D1*
X6445231Y3692832D1*
X6435410Y3699700D1*
X6426325Y3707516D1*
X6418069Y3716203D1*
X6410724Y3725672D1*
X6404363Y3735830D1*
X6399052Y3746573D1*
X6394842Y3757793D1*
X6391777Y3769379D1*
X6389887Y3781213D1*
X6389192Y3793177D1*
X6389697Y3805151D1*
X6391399Y3817014D1*
X6394280Y3828647D1*
X6398310Y3839933D1*
X6403451Y3850759D1*
X6409649Y3861016D1*
X6416843Y3870601D1*
X6424961Y3879417D1*
X6433920Y3887377D1*
X6443631Y3894399D1*
X6453996Y3900415D1*
X6464912Y3905362D1*
X6476268Y3909192D1*
X6487950Y3911866D1*
X6499841Y3913357D1*
X6511822Y3913649D1*
X6523772Y3912742D1*
X6535571Y3910642D1*
X6547100Y3907372D1*
X6558244Y3902964D1*
X6568891Y3897462D1*
X6578934Y3890922D1*
X6588271Y3883410D1*
X6596810Y3875001D1*
X6604464Y3865779D1*
X6611156Y3855837D1*
X6616819Y3845275D1*
X6621397Y3834200D1*
X6624843Y3822721D1*
X6627122Y3810956D1*
X6628212Y3799021D1*
X6627974Y3785143D1*
X6626476Y3773253D1*
X6623795Y3761572D1*
X6619958Y3750219D1*
X6615004Y3739306D1*
X6608546Y3728293D1*
X6620927Y3724498D1*
X6631957Y3719812D1*
X6642462Y3714045D1*
X6652338Y3707256D1*
X6661484Y3699512D1*
X6669809Y3690891D1*
X6677230Y3681480D1*
X6683671Y3671374D1*
X6689067Y3660674D1*
X6693366Y3649487D1*
X6696523Y3637926D1*
X6698507Y3626107D1*
X6699312Y3612250D1*
X6699275Y3609253D1*
X6124648Y7129253D2*
X6123748Y7117303D1*
X6121655Y7105502D1*
X6118392Y7093971D1*
X6113991Y7082824D1*
X6108496Y7072173D1*
X6101963Y7062127D1*
X6094456Y7052785D1*
X6086052Y7044241D1*
X6077383Y7037002D1*
X6089667Y7026297D1*
X6101851Y7012030D1*
X6111654Y6996033D1*
X6118834Y6978700D1*
X6123214Y6960457D1*
X6124686Y6941753D1*
X6123214Y6923050D1*
X6118834Y6904807D1*
X6111654Y6887473D1*
X6101851Y6871476D1*
X6089667Y6857210D1*
X6075400Y6845025D1*
X6059403Y6835223D1*
X6042070Y6828043D1*
X6023827Y6823663D1*
X6005123Y6822191D1*
X5986420Y6823663D1*
X5968177Y6828043D1*
X5950843Y6835223D1*
X5934846Y6845025D1*
X5920580Y6857210D1*
X5908395Y6871476D1*
X5898593Y6887473D1*
X5891413Y6904807D1*
X5887033Y6923050D1*
X5885561Y6941753D1*
X5887033Y6960457D1*
X5891413Y6978700D1*
X5898593Y6996033D1*
X5908395Y7012030D1*
X5920580Y7026297D1*
X5932917Y7036960D1*
X5922699Y7045640D1*
X5914442Y7054326D1*
X5907097Y7063796D1*
X5900737Y7073953D1*
X5895425Y7084696D1*
X5891215Y7095917D1*
X5888150Y7107502D1*
X5886260Y7119337D1*
X5885565Y7131301D1*
X5886070Y7143274D1*
X5887772Y7155137D1*
X5890653Y7166770D1*
X5894684Y7178056D1*
X5899824Y7188882D1*
X5906022Y7199139D1*
X5913216Y7208724D1*
X5921334Y7217540D1*
X5930293Y7225500D1*
X5940004Y7232523D1*
X5950370Y7238538D1*
X5961285Y7243486D1*
X5972641Y7247315D1*
X5984323Y7249989D1*
X5996214Y7251480D1*
X6008195Y7251773D1*
X6020145Y7250865D1*
X6031944Y7248765D1*
X6043473Y7245495D1*
X6054618Y7241087D1*
X6065264Y7235585D1*
X6075307Y7229046D1*
X6084645Y7221533D1*
X6093183Y7213124D1*
X6100837Y7203902D1*
X6107529Y7193960D1*
X6113193Y7183399D1*
X6117770Y7172323D1*
X6121216Y7160845D1*
X6123495Y7149079D1*
X6124585Y7137145D1*
X6124648Y7129253D1*
X5219775Y4113003D2*
X5218874Y4101053D1*
X5216782Y4089252D1*
X5213519Y4077721D1*
X5209118Y4066574D1*
X5203623Y4055923D1*
X5197089Y4045877D1*
X5189583Y4036535D1*
X5181179Y4027991D1*
X5171962Y4020331D1*
X5162024Y4013633D1*
X5151466Y4007963D1*
X5140393Y4003378D1*
X5128917Y3999925D1*
X5117153Y3997639D1*
X5105219Y3996541D1*
X5093235Y3996644D1*
X5081322Y3997946D1*
X5069599Y4000433D1*
X5058183Y4004082D1*
X5047191Y4008856D1*
X5036731Y4014706D1*
X5026910Y4021573D1*
X5017825Y4029390D1*
X5009569Y4038076D1*
X5002224Y4047546D1*
X4995863Y4057703D1*
X4990552Y4068446D1*
X4986342Y4079667D1*
X4983277Y4091252D1*
X4981387Y4103087D1*
X4980692Y4115051D1*
X4981197Y4127024D1*
X4982899Y4138887D1*
X4985780Y4150520D1*
X4989810Y4161806D1*
X4994951Y4172632D1*
X5001149Y4182889D1*
X5008343Y4192474D1*
X5016461Y4201290D1*
X5025420Y4209250D1*
X5035131Y4216273D1*
X5045496Y4222288D1*
X5056412Y4227236D1*
X5067768Y4231065D1*
X5079450Y4233739D1*
X5091341Y4235230D1*
X5103322Y4235523D1*
X5115272Y4234615D1*
X5127071Y4232515D1*
X5138600Y4229245D1*
X5149744Y4224837D1*
X5160391Y4219335D1*
X5170434Y4212796D1*
X5179771Y4205283D1*
X5188310Y4196874D1*
X5195964Y4187652D1*
X5202656Y4177710D1*
X5208319Y4167149D1*
X5212897Y4156073D1*
X5216343Y4144595D1*
X5218622Y4132829D1*
X5219712Y4120895D1*
X5219775Y4113003D1*
X5721218Y4963250D2*
X5720318Y4951299D1*
X5718225Y4939499D1*
X5714962Y4927967D1*
X5710561Y4916821D1*
X5705066Y4906170D1*
X5698533Y4896123D1*
X5691026Y4886781D1*
X5682622Y4878237D1*
X5673405Y4870578D1*
X5663468Y4863879D1*
X5652909Y4858209D1*
X5641837Y4853625D1*
X5630361Y4850172D1*
X5618596Y4847885D1*
X5606663Y4846788D1*
X5594679Y4846890D1*
X5582765Y4848192D1*
X5571042Y4850680D1*
X5559627Y4854329D1*
X5548634Y4859103D1*
X5538175Y4864952D1*
X5528353Y4871820D1*
X5519269Y4879636D1*
X5511012Y4888323D1*
X5503667Y4897792D1*
X5497307Y4907950D1*
X5491995Y4918693D1*
X5487785Y4929913D1*
X5484720Y4941499D1*
X5482830Y4953333D1*
X5482135Y4965297D1*
X5482640Y4977271D1*
X5484342Y4989134D1*
X5487223Y5000767D1*
X5491254Y5012053D1*
X5496394Y5022879D1*
X5502592Y5033136D1*
X5509786Y5042721D1*
X5517904Y5051537D1*
X5526863Y5059497D1*
X5536574Y5066519D1*
X5546940Y5072535D1*
X5557855Y5077482D1*
X5569211Y5081312D1*
X5580893Y5083986D1*
X5592784Y5085477D1*
X5604765Y5085769D1*
X5616715Y5084862D1*
X5628514Y5082762D1*
X5640043Y5079492D1*
X5651188Y5075084D1*
X5661834Y5069582D1*
X5671877Y5063042D1*
X5681215Y5055530D1*
X5689753Y5047121D1*
X5697407Y5037899D1*
X5704099Y5027957D1*
X5709763Y5017395D1*
X5714340Y5006320D1*
X5717786Y4994841D1*
X5720065Y4983076D1*
X5721155Y4971141D1*
X5721218Y4963250D1*
X5374148Y5283380D2*
X5373248Y5271429D1*
X5371155Y5259629D1*
X5367892Y5248097D1*
X5363491Y5236951D1*
X5357996Y5226300D1*
X5351463Y5216253D1*
X5343956Y5206911D1*
X5335552Y5198367D1*
X5326335Y5190708D1*
X5316398Y5184009D1*
X5305839Y5178339D1*
X5294767Y5173755D1*
X5283291Y5170302D1*
X5271526Y5168015D1*
X5259593Y5166918D1*
X5247609Y5167020D1*
X5235695Y5168322D1*
X5223972Y5170810D1*
X5212557Y5174459D1*
X5201564Y5179233D1*
X5191105Y5185082D1*
X5181283Y5191950D1*
X5172199Y5199766D1*
X5163942Y5208453D1*
X5156597Y5217922D1*
X5150237Y5228080D1*
X5144925Y5238823D1*
X5140715Y5250043D1*
X5137650Y5261629D1*
X5135760Y5273463D1*
X5135065Y5285427D1*
X5135570Y5297401D1*
X5137272Y5309264D1*
X5140153Y5320897D1*
X5144184Y5332183D1*
X5149324Y5343009D1*
X5155522Y5353266D1*
X5162716Y5362851D1*
X5170834Y5371667D1*
X5179793Y5379627D1*
X5189504Y5386649D1*
X5199870Y5392665D1*
X5210785Y5397612D1*
X5222141Y5401442D1*
X5233823Y5404116D1*
X5245714Y5405607D1*
X5257695Y5405899D1*
X5269645Y5404992D1*
X5281444Y5402892D1*
X5292973Y5399622D1*
X5304118Y5395214D1*
X5314764Y5389712D1*
X5324807Y5383172D1*
X5334145Y5375660D1*
X5342683Y5367251D1*
X5350337Y5358029D1*
X5357029Y5348087D1*
X5362693Y5337525D1*
X5367270Y5326450D1*
X5370716Y5314971D1*
X5372995Y5303206D1*
X5374085Y5291271D1*
X5374148Y5283380D1*
X2167398Y3838753D2*
X2166498Y3826803D1*
X2164405Y3815002D1*
X2161142Y3803471D1*
X2156741Y3792324D1*
X2151246Y3781673D1*
X2144713Y3771627D1*
X2137206Y3762285D1*
X2128802Y3753741D1*
X2119585Y3746081D1*
X2109648Y3739383D1*
X2099089Y3733713D1*
X2088017Y3729128D1*
X2076541Y3725675D1*
X2064776Y3723389D1*
X2052843Y3722291D1*
X2040859Y3722394D1*
X2028945Y3723696D1*
X2017222Y3726183D1*
X2005807Y3729832D1*
X1994814Y3734606D1*
X1984355Y3740456D1*
X1974533Y3747323D1*
X1965449Y3755140D1*
X1957192Y3763826D1*
X1949847Y3773296D1*
X1943487Y3783453D1*
X1938175Y3794196D1*
X1933965Y3805417D1*
X1930900Y3817002D1*
X1929010Y3828837D1*
X1928315Y3840801D1*
X1928820Y3852774D1*
X1930522Y3864637D1*
X1933403Y3876270D1*
X1937434Y3887556D1*
X1942574Y3898382D1*
X1948772Y3908639D1*
X1955966Y3918224D1*
X1964084Y3927040D1*
X1973043Y3935000D1*
X1982754Y3942023D1*
X1993120Y3948038D1*
X2004035Y3952986D1*
X2015391Y3956815D1*
X2027073Y3959489D1*
X2038964Y3960980D1*
X2050945Y3961273D1*
X2062895Y3960365D1*
X2074694Y3958265D1*
X2086223Y3954995D1*
X2097368Y3950587D1*
X2108014Y3945085D1*
X2118057Y3938546D1*
X2127395Y3931033D1*
X2135933Y3922624D1*
X2143587Y3913402D1*
X2150279Y3903460D1*
X2155943Y3892899D1*
X2160520Y3881823D1*
X2163966Y3870345D1*
X2166245Y3858579D1*
X2167335Y3846645D1*
X2167398Y3838753D1*
X3151648Y3029130D2*
X3150748Y3017179D1*
X3148655Y3005379D1*
X3145392Y2993847D1*
X3140991Y2982701D1*
X3135496Y2972050D1*
X3128963Y2962003D1*
X3121456Y2952661D1*
X3113052Y2944117D1*
X3103835Y2936458D1*
X3093898Y2929759D1*
X3083339Y2924089D1*
X3072267Y2919505D1*
X3060791Y2916052D1*
X3049026Y2913765D1*
X3037093Y2912668D1*
X3025109Y2912770D1*
X3013195Y2914072D1*
X3001472Y2916560D1*
X2990057Y2920209D1*
X2979064Y2924983D1*
X2968605Y2930832D1*
X2958783Y2937700D1*
X2949699Y2945516D1*
X2941442Y2954203D1*
X2934097Y2963672D1*
X2927737Y2973830D1*
X2922425Y2984573D1*
X2918215Y2995793D1*
X2915150Y3007379D1*
X2913260Y3019213D1*
X2912565Y3031177D1*
X2913070Y3043151D1*
X2914772Y3055014D1*
X2917653Y3066647D1*
X2921684Y3077933D1*
X2926824Y3088759D1*
X2933022Y3099016D1*
X2940216Y3108601D1*
X2948334Y3117417D1*
X2957293Y3125377D1*
X2967004Y3132399D1*
X2977370Y3138415D1*
X2988285Y3143362D1*
X2999641Y3147192D1*
X3011323Y3149866D1*
X3023214Y3151357D1*
X3035195Y3151649D1*
X3047145Y3150742D1*
X3058944Y3148642D1*
X3070473Y3145372D1*
X3081618Y3140964D1*
X3092264Y3135462D1*
X3102307Y3128922D1*
X3111645Y3121410D1*
X3120183Y3113001D1*
X3127837Y3103779D1*
X3134529Y3093837D1*
X3140193Y3083275D1*
X3144770Y3072200D1*
X3148216Y3060721D1*
X3150495Y3048956D1*
X3151585Y3037021D1*
X3151648Y3029130D1*
X2278525Y3346630D2*
X2277624Y3334679D1*
X2275532Y3322879D1*
X2272269Y3311347D1*
X2267868Y3300201D1*
X2262373Y3289550D1*
X2255839Y3279503D1*
X2248333Y3270161D1*
X2239929Y3261617D1*
X2230712Y3253958D1*
X2220774Y3247259D1*
X2210216Y3241589D1*
X2199143Y3237005D1*
X2187667Y3233552D1*
X2175903Y3231265D1*
X2163969Y3230168D1*
X2151985Y3230270D1*
X2140072Y3231572D1*
X2128349Y3234060D1*
X2116933Y3237709D1*
X2105941Y3242483D1*
X2095481Y3248332D1*
X2085660Y3255200D1*
X2076575Y3263016D1*
X2068319Y3271703D1*
X2060974Y3281172D1*
X2054613Y3291330D1*
X2049302Y3302073D1*
X2045092Y3313293D1*
X2042027Y3324879D1*
X2040137Y3336713D1*
X2039442Y3348677D1*
X2039947Y3360651D1*
X2041649Y3372514D1*
X2044530Y3384147D1*
X2048560Y3395433D1*
X2053701Y3406259D1*
X2059899Y3416516D1*
X2067093Y3426101D1*
X2075211Y3434917D1*
X2084170Y3442877D1*
X2093881Y3449899D1*
X2104246Y3455915D1*
X2115162Y3460862D1*
X2126518Y3464692D1*
X2138200Y3467366D1*
X2150091Y3468857D1*
X2162072Y3469149D1*
X2174022Y3468242D1*
X2185821Y3466142D1*
X2197350Y3462872D1*
X2208494Y3458464D1*
X2219141Y3452962D1*
X2229184Y3446422D1*
X2238521Y3438910D1*
X2247060Y3430501D1*
X2254714Y3421279D1*
X2261406Y3411337D1*
X2267069Y3400775D1*
X2271647Y3389700D1*
X2275093Y3378221D1*
X2277372Y3366456D1*
X2278462Y3354521D1*
X2278525Y3346630D1*
X2627775Y4219753D2*
X2626874Y4207803D1*
X2624782Y4196002D1*
X2621519Y4184471D1*
X2617118Y4173324D1*
X2611623Y4162673D1*
X2605089Y4152627D1*
X2597583Y4143285D1*
X2589179Y4134741D1*
X2579962Y4127081D1*
X2570024Y4120383D1*
X2559466Y4114713D1*
X2548393Y4110128D1*
X2536917Y4106675D1*
X2525153Y4104389D1*
X2513219Y4103291D1*
X2501235Y4103394D1*
X2489322Y4104696D1*
X2477599Y4107183D1*
X2466183Y4110832D1*
X2455191Y4115606D1*
X2444731Y4121456D1*
X2434910Y4128323D1*
X2425825Y4136140D1*
X2417569Y4144826D1*
X2410224Y4154296D1*
X2403863Y4164453D1*
X2398552Y4175196D1*
X2394342Y4186417D1*
X2391277Y4198002D1*
X2389387Y4209837D1*
X2388692Y4221801D1*
X2389197Y4233774D1*
X2390899Y4245637D1*
X2393780Y4257270D1*
X2397810Y4268556D1*
X2402951Y4279382D1*
X2409149Y4289639D1*
X2416343Y4299224D1*
X2424461Y4308040D1*
X2433420Y4316000D1*
X2443131Y4323023D1*
X2453496Y4329038D1*
X2464412Y4333986D1*
X2475768Y4337815D1*
X2487450Y4340489D1*
X2499341Y4341980D1*
X2511322Y4342273D1*
X2523272Y4341365D1*
X2535071Y4339265D1*
X2546600Y4335995D1*
X2557744Y4331587D1*
X2568391Y4326085D1*
X2578434Y4319546D1*
X2587771Y4312033D1*
X2596310Y4303624D1*
X2603964Y4294402D1*
X2610656Y4284460D1*
X2616319Y4273899D1*
X2620897Y4262823D1*
X2624343Y4251345D1*
X2626622Y4239579D1*
X2627712Y4227645D1*
X2627775Y4219753D1*
X309694Y5753246D2*
X306759Y5734715D1*
X300961Y5716872D1*
X292444Y5700156D1*
X281416Y5684977D1*
X268149Y5671711D1*
X252971Y5660683D1*
X236254Y5652166D1*
X218411Y5646368D1*
X199881Y5643433D1*
X181119D1*
X162589Y5646368D1*
X144746Y5652166D1*
X128029Y5660683D1*
X112851Y5671711D1*
X99584Y5684977D1*
X88556Y5700156D1*
X81160Y5714441D1*
X81150Y1001981D1*
X85672Y909944D1*
X98904Y820736D1*
X120815Y733263D1*
X151194Y648360D1*
X189750Y566844D1*
X236107Y489498D1*
X289825Y417070D1*
X350384Y350256D1*
X417197Y289698D1*
X489626Y235980D1*
X566971Y189622D1*
X648489Y151066D1*
X733391Y120688D1*
X820864Y98777D1*
X910062Y85546D1*
X1002100Y81027D1*
X8498142D1*
X8590180Y85549D1*
X8679388Y98780D1*
X8766859Y120689D1*
X8851762Y151069D1*
X8933281Y189623D1*
X9010625Y235983D1*
X9083052Y289700D1*
X9149868Y350255D1*
X9210425Y417069D1*
X9264142Y489498D1*
X9310500Y566843D1*
X9349058Y648360D1*
X9379435Y733263D1*
X9401347Y820735D1*
X9414577Y909932D1*
X9419099Y1001973D1*
X9419096Y8498018D1*
X9414574Y8590056D1*
X9401343Y8679266D1*
X9379434Y8766739D1*
X9349057Y8851642D1*
X9310503Y8933158D1*
X9264143Y9010501D1*
X9210427Y9082932D1*
X9149869Y9149744D1*
X9083056Y9210302D1*
X9010627Y9264017D1*
X8933282Y9310378D1*
X8851766Y9348931D1*
X8766864Y9379308D1*
X8679392Y9401217D1*
X8590192Y9414447D1*
X8498150Y9418969D1*
X1002105Y9418973D1*
X910067Y9414451D1*
X820857Y9401220D1*
X733384Y9379311D1*
X648482Y9348930D1*
X566965Y9310376D1*
X489622Y9264016D1*
X417192Y9210301D1*
X350376Y9149743D1*
X289821Y9082927D1*
X236105Y9010499D1*
X189746Y8933153D1*
X151192Y8851637D1*
X120815Y8766734D1*
X98903Y8679262D1*
X85676Y8590063D1*
X81154Y8498020D1*
X81152Y5811021D1*
X88556Y5825098D1*
X99584Y5840276D1*
X112851Y5853543D1*
X128029Y5864570D1*
X144746Y5873088D1*
X162589Y5878885D1*
X181119Y5881820D1*
X199881D1*
X218411Y5878885D1*
X236254Y5873088D1*
X252971Y5864570D1*
X268149Y5853543D1*
X281416Y5840276D1*
X292444Y5825098D1*
X300961Y5808381D1*
X306759Y5790538D1*
X309694Y5772007D1*
Y5753246D1*
X3088148Y6870880D2*
X3087248Y6858929D1*
X3085155Y6847129D1*
X3081892Y6835597D1*
X3077491Y6824451D1*
X3071996Y6813800D1*
X3065463Y6803753D1*
X3057956Y6794411D1*
X3049552Y6785867D1*
X3040335Y6778208D1*
X3030398Y6771509D1*
X3019839Y6765839D1*
X3008767Y6761255D1*
X2997291Y6757802D1*
X2985526Y6755515D1*
X2973593Y6754418D1*
X2961609Y6754520D1*
X2949695Y6755822D1*
X2937972Y6758310D1*
X2926557Y6761959D1*
X2915564Y6766733D1*
X2905105Y6772582D1*
X2895283Y6779450D1*
X2886199Y6787266D1*
X2877942Y6795953D1*
X2870597Y6805422D1*
X2864237Y6815580D1*
X2858925Y6826323D1*
X2854715Y6837543D1*
X2851650Y6849129D1*
X2849760Y6860963D1*
X2849065Y6872927D1*
X2849570Y6884901D1*
X2851272Y6896764D1*
X2854153Y6908397D1*
X2858184Y6919683D1*
X2863324Y6930509D1*
X2869522Y6940766D1*
X2876716Y6950351D1*
X2884834Y6959167D1*
X2893793Y6967127D1*
X2903504Y6974149D1*
X2913870Y6980165D1*
X2924785Y6985112D1*
X2936141Y6988942D1*
X2947823Y6991616D1*
X2959714Y6993107D1*
X2971695Y6993399D1*
X2983645Y6992492D1*
X2995444Y6990392D1*
X3006973Y6987122D1*
X3018118Y6982714D1*
X3028764Y6977212D1*
X3038807Y6970672D1*
X3048145Y6963160D1*
X3056683Y6954751D1*
X3064337Y6945529D1*
X3071029Y6935587D1*
X3076693Y6925025D1*
X3081270Y6913950D1*
X3084716Y6902471D1*
X3086995Y6890706D1*
X3088085Y6878771D1*
X3088148Y6870880D1*
X2215025Y8140880D2*
X2214124Y8128929D1*
X2212032Y8117129D1*
X2208769Y8105597D1*
X2204368Y8094451D1*
X2198873Y8083800D1*
X2192339Y8073753D1*
X2184833Y8064411D1*
X2176429Y8055867D1*
X2167212Y8048208D1*
X2157274Y8041509D1*
X2146716Y8035839D1*
X2135643Y8031255D1*
X2124167Y8027802D1*
X2112403Y8025515D1*
X2100469Y8024418D1*
X2088485Y8024520D1*
X2076572Y8025822D1*
X2064849Y8028310D1*
X2053433Y8031959D1*
X2042441Y8036733D1*
X2031981Y8042582D1*
X2022160Y8049450D1*
X2013075Y8057266D1*
X2004819Y8065953D1*
X1997474Y8075422D1*
X1991113Y8085580D1*
X1985802Y8096323D1*
X1981592Y8107543D1*
X1978527Y8119129D1*
X1976637Y8130963D1*
X1975942Y8142927D1*
X1976447Y8154901D1*
X1978149Y8166764D1*
X1981030Y8178397D1*
X1985060Y8189683D1*
X1990201Y8200509D1*
X1996399Y8210766D1*
X2003593Y8220351D1*
X2011711Y8229167D1*
X2020670Y8237127D1*
X2030381Y8244149D1*
X2040746Y8250165D1*
X2051662Y8255112D1*
X2063018Y8258942D1*
X2074700Y8261616D1*
X2086591Y8263107D1*
X2098572Y8263399D1*
X2110522Y8262492D1*
X2122321Y8260392D1*
X2133850Y8257122D1*
X2144994Y8252714D1*
X2155641Y8247212D1*
X2165684Y8240672D1*
X2175021Y8233160D1*
X2183560Y8224751D1*
X2191214Y8215529D1*
X2197906Y8205587D1*
X2203569Y8195025D1*
X2208147Y8183950D1*
X2211593Y8172471D1*
X2213872Y8160706D1*
X2214962Y8148771D1*
X2215025Y8140880D1*
X2738898Y6886753D2*
X2737998Y6874803D1*
X2735905Y6863002D1*
X2732642Y6851471D1*
X2728241Y6840324D1*
X2722746Y6829673D1*
X2716213Y6819627D1*
X2708706Y6810285D1*
X2700302Y6801741D1*
X2691085Y6794081D1*
X2681148Y6787383D1*
X2670589Y6781713D1*
X2659517Y6777128D1*
X2648041Y6773675D1*
X2636276Y6771389D1*
X2624343Y6770291D1*
X2612359Y6770394D1*
X2600445Y6771696D1*
X2588722Y6774183D1*
X2577307Y6777832D1*
X2566314Y6782606D1*
X2555855Y6788456D1*
X2546033Y6795323D1*
X2536949Y6803140D1*
X2528692Y6811826D1*
X2521347Y6821296D1*
X2514987Y6831453D1*
X2509675Y6842196D1*
X2505465Y6853417D1*
X2502400Y6865002D1*
X2500510Y6876837D1*
X2499815Y6888801D1*
X2500320Y6900774D1*
X2502022Y6912637D1*
X2504903Y6924270D1*
X2508934Y6935556D1*
X2514074Y6946382D1*
X2520272Y6956639D1*
X2527466Y6966224D1*
X2535584Y6975040D1*
X2544543Y6983000D1*
X2554254Y6990023D1*
X2564620Y6996038D1*
X2575535Y7000986D1*
X2586891Y7004815D1*
X2598573Y7007489D1*
X2610464Y7008980D1*
X2622445Y7009273D1*
X2634395Y7008365D1*
X2646194Y7006265D1*
X2657723Y7002995D1*
X2668868Y6998587D1*
X2679514Y6993085D1*
X2689557Y6986546D1*
X2698895Y6979033D1*
X2707433Y6970624D1*
X2715087Y6961402D1*
X2721779Y6951460D1*
X2727443Y6940899D1*
X2732020Y6929823D1*
X2735466Y6918345D1*
X2737745Y6906579D1*
X2738835Y6894645D1*
X2738898Y6886753D1*
X2659525Y8045630D2*
X2658624Y8033679D1*
X2656532Y8021879D1*
X2653269Y8010347D1*
X2648868Y7999201D1*
X2643373Y7988550D1*
X2636839Y7978503D1*
X2629333Y7969161D1*
X2620929Y7960617D1*
X2611712Y7952958D1*
X2601774Y7946259D1*
X2591216Y7940589D1*
X2580143Y7936005D1*
X2568667Y7932552D1*
X2556903Y7930265D1*
X2544969Y7929168D1*
X2532985Y7929270D1*
X2521072Y7930572D1*
X2509349Y7933060D1*
X2497933Y7936709D1*
X2486941Y7941483D1*
X2476481Y7947332D1*
X2466660Y7954200D1*
X2457575Y7962016D1*
X2449319Y7970703D1*
X2441974Y7980172D1*
X2435613Y7990330D1*
X2430302Y8001073D1*
X2426092Y8012293D1*
X2423027Y8023879D1*
X2421137Y8035713D1*
X2420442Y8047677D1*
X2420947Y8059651D1*
X2422649Y8071514D1*
X2425530Y8083147D1*
X2429560Y8094433D1*
X2434701Y8105259D1*
X2440899Y8115516D1*
X2445298Y8121595D1*
X2430601Y8132334D1*
X2417334Y8145601D1*
X2406306Y8160779D1*
X2397789Y8177496D1*
X2391991Y8195339D1*
X2389056Y8213869D1*
Y8232631D1*
X2391991Y8251161D1*
X2397789Y8269004D1*
X2406306Y8285721D1*
X2417334Y8300899D1*
X2430601Y8314166D1*
X2445779Y8325194D1*
X2462496Y8333711D1*
X2480339Y8339509D1*
X2498869Y8342444D1*
X2517631D1*
X2536161Y8339509D1*
X2554004Y8333711D1*
X2570721Y8325194D1*
X2581781Y8317412D1*
X2910841Y8317413D1*
X2922029Y8325194D1*
X2938746Y8333711D1*
X2956589Y8339509D1*
X2975119Y8342444D1*
X2993881D1*
X3012411Y8339509D1*
X3030254Y8333711D1*
X3046971Y8325194D1*
X3062149Y8314166D1*
X3075416Y8300899D1*
X3086444Y8285721D1*
X3094961Y8269004D1*
X3100759Y8251161D1*
X3103694Y8232631D1*
Y8213869D1*
X3100759Y8195339D1*
X3094961Y8177496D1*
X3086444Y8160779D1*
X3084427Y8157760D1*
X3098720Y8151594D1*
X3114717Y8141791D1*
X3128983Y8129607D1*
X3141168Y8115340D1*
X3150971Y8099343D1*
X3158150Y8082010D1*
X3162530Y8063767D1*
X3164002Y8045063D1*
X3163250Y8032441D1*
X3511546Y7684182D1*
X3524250Y7684816D1*
X3542954Y7683344D1*
X3561197Y7678964D1*
X3578530Y7671784D1*
X3594527Y7661981D1*
X3608793Y7649797D1*
X3620978Y7635530D1*
X3630781Y7619533D1*
X3637960Y7602200D1*
X3642340Y7583957D1*
X3643812Y7565253D1*
X3642340Y7546550D1*
X3637960Y7528307D1*
X3630781Y7510973D1*
X3620978Y7494976D1*
X3608793Y7480710D1*
X3594527Y7468525D1*
X3578530Y7458723D1*
X3561197Y7451543D1*
X3542954Y7447163D1*
X3524250Y7445691D1*
X3505546Y7447163D1*
X3487303Y7451543D1*
X3469970Y7458723D1*
X3453973Y7468525D1*
X3439707Y7480710D1*
X3427522Y7494976D1*
X3417719Y7510973D1*
X3410540Y7528307D1*
X3406160Y7546550D1*
X3404688Y7565253D1*
X3405440Y7577875D1*
X3057144Y7926134D1*
X3044440Y7925501D1*
X3025736Y7926973D1*
X3007493Y7931353D1*
X2990160Y7938533D1*
X2974163Y7948335D1*
X2959897Y7960520D1*
X2947712Y7974786D1*
X2937909Y7990783D1*
X2930730Y8008117D1*
X2926350Y8026360D1*
X2924878Y8045063D1*
X2926350Y8063767D1*
X2930730Y8082010D1*
X2937909Y8099343D1*
X2944513Y8110553D1*
X2930220Y8116719D1*
X2914223Y8126522D1*
X2910969Y8129088D1*
X2628391Y8129087D1*
X2635714Y8120279D1*
X2642406Y8110337D1*
X2648069Y8099775D1*
X2652647Y8088700D1*
X2656093Y8077221D1*
X2658372Y8065456D1*
X2659462Y8053521D1*
X2659525Y8045630D1*
X7580775Y4505506D2*
X7579874Y4493556D1*
X7577782Y4481756D1*
X7574519Y4470224D1*
X7570118Y4459077D1*
X7564623Y4448427D1*
X7558089Y4438380D1*
X7550583Y4429038D1*
X7542179Y4420494D1*
X7532962Y4412834D1*
X7523024Y4406136D1*
X7512466Y4400466D1*
X7501393Y4395882D1*
X7489917Y4392429D1*
X7478153Y4390142D1*
X7466219Y4389044D1*
X7454235Y4389147D1*
X7442322Y4390449D1*
X7430599Y4392937D1*
X7419183Y4396586D1*
X7408191Y4401359D1*
X7397731Y4407209D1*
X7387910Y4414077D1*
X7378825Y4421893D1*
X7370569Y4430580D1*
X7363224Y4440049D1*
X7356863Y4450206D1*
X7351552Y4460949D1*
X7347342Y4472170D1*
X7344277Y4483756D1*
X7342387Y4495590D1*
X7341692Y4507554D1*
X7342197Y4519528D1*
X7343899Y4531391D1*
X7346780Y4543024D1*
X7350810Y4554310D1*
X7355951Y4565136D1*
X7362149Y4575392D1*
X7369343Y4584977D1*
X7377461Y4593794D1*
X7386420Y4601753D1*
X7396131Y4608776D1*
X7406496Y4614791D1*
X7417412Y4619739D1*
X7428768Y4623569D1*
X7440450Y4626242D1*
X7452341Y4627733D1*
X7464322Y4628026D1*
X7476272Y4627118D1*
X7488071Y4625019D1*
X7499600Y4621748D1*
X7510744Y4617340D1*
X7521391Y4611839D1*
X7531434Y4605299D1*
X7540771Y4597787D1*
X7549310Y4589377D1*
X7556964Y4580155D1*
X7563656Y4570214D1*
X7569319Y4559652D1*
X7573897Y4548576D1*
X7577343Y4537098D1*
X7579622Y4525332D1*
X7580712Y4513398D1*
X7580775Y4505506D1*
X7612525Y5029380D2*
X7611624Y5017429D1*
X7609532Y5005629D1*
X7606269Y4994097D1*
X7601868Y4982951D1*
X7596373Y4972300D1*
X7589839Y4962253D1*
X7582333Y4952911D1*
X7573929Y4944367D1*
X7564712Y4936708D1*
X7554774Y4930009D1*
X7544216Y4924339D1*
X7533143Y4919755D1*
X7521667Y4916302D1*
X7509903Y4914015D1*
X7497969Y4912918D1*
X7485985Y4913020D1*
X7474072Y4914322D1*
X7462349Y4916810D1*
X7450933Y4920459D1*
X7439941Y4925233D1*
X7429481Y4931082D1*
X7419660Y4937950D1*
X7410575Y4945766D1*
X7402319Y4954453D1*
X7394974Y4963922D1*
X7388613Y4974080D1*
X7383302Y4984823D1*
X7379092Y4996043D1*
X7376027Y5007629D1*
X7374137Y5019463D1*
X7373442Y5031427D1*
X7373947Y5043401D1*
X7375649Y5055264D1*
X7378530Y5066897D1*
X7382560Y5078183D1*
X7387701Y5089009D1*
X7393899Y5099266D1*
X7401093Y5108851D1*
X7409211Y5117667D1*
X7418170Y5125627D1*
X7427881Y5132649D1*
X7438246Y5138665D1*
X7449162Y5143612D1*
X7460518Y5147442D1*
X7472200Y5150116D1*
X7484091Y5151607D1*
X7496072Y5151899D1*
X7508022Y5150992D1*
X7519821Y5148892D1*
X7531350Y5145622D1*
X7542494Y5141214D1*
X7553141Y5135712D1*
X7563184Y5129172D1*
X7572521Y5121660D1*
X7581060Y5113251D1*
X7588714Y5104029D1*
X7595406Y5094087D1*
X7601069Y5083525D1*
X7605647Y5072450D1*
X7609093Y5060971D1*
X7611372Y5049206D1*
X7612462Y5037271D1*
X7612525Y5029380D1*
X8057025Y4473756D2*
X8056124Y4461806D1*
X8054032Y4450006D1*
X8050769Y4438474D1*
X8046368Y4427327D1*
X8040873Y4416677D1*
X8034339Y4406630D1*
X8026833Y4397288D1*
X8018429Y4388744D1*
X8009212Y4381084D1*
X7999274Y4374386D1*
X7988716Y4368716D1*
X7977643Y4364132D1*
X7966167Y4360679D1*
X7954403Y4358392D1*
X7942469Y4357294D1*
X7930485Y4357397D1*
X7918572Y4358699D1*
X7906849Y4361187D1*
X7895433Y4364836D1*
X7884441Y4369609D1*
X7873981Y4375459D1*
X7864160Y4382327D1*
X7855075Y4390143D1*
X7846819Y4398830D1*
X7839474Y4408299D1*
X7833113Y4418456D1*
X7827802Y4429199D1*
X7823592Y4440420D1*
X7820527Y4452006D1*
X7818637Y4463840D1*
X7817942Y4475804D1*
X7818447Y4487778D1*
X7820149Y4499641D1*
X7823030Y4511274D1*
X7827060Y4522560D1*
X7832201Y4533386D1*
X7838399Y4543642D1*
X7845593Y4553227D1*
X7853711Y4562044D1*
X7862670Y4570003D1*
X7872381Y4577026D1*
X7882746Y4583041D1*
X7893662Y4587989D1*
X7905018Y4591819D1*
X7916700Y4594492D1*
X7928591Y4595983D1*
X7940572Y4596276D1*
X7952522Y4595368D1*
X7964321Y4593269D1*
X7975850Y4589998D1*
X7986994Y4585590D1*
X7997641Y4580089D1*
X8007684Y4573549D1*
X8017021Y4566037D1*
X8025560Y4557627D1*
X8033214Y4548405D1*
X8039906Y4538464D1*
X8045569Y4527902D1*
X8050147Y4516826D1*
X8053593Y4505348D1*
X8055872Y4493582D1*
X8056962Y4481648D1*
X8057025Y4473756D1*
X8707898Y4076880D2*
X8706998Y4064929D1*
X8704905Y4053129D1*
X8701642Y4041597D1*
X8697241Y4030451D1*
X8691746Y4019800D1*
X8685213Y4009753D1*
X8677706Y4000411D1*
X8669302Y3991867D1*
X8660085Y3984208D1*
X8650148Y3977509D1*
X8639589Y3971839D1*
X8628517Y3967255D1*
X8617041Y3963802D1*
X8605276Y3961515D1*
X8593343Y3960418D1*
X8581359Y3960520D1*
X8569445Y3961822D1*
X8557722Y3964310D1*
X8546307Y3967959D1*
X8535314Y3972733D1*
X8524855Y3978582D1*
X8515033Y3985450D1*
X8505949Y3993266D1*
X8497692Y4001953D1*
X8490347Y4011422D1*
X8483987Y4021580D1*
X8478675Y4032323D1*
X8474465Y4043543D1*
X8471400Y4055129D1*
X8469510Y4066963D1*
X8468815Y4078927D1*
X8469320Y4090901D1*
X8471022Y4102764D1*
X8473903Y4114397D1*
X8477934Y4125683D1*
X8483074Y4136509D1*
X8489272Y4146766D1*
X8496466Y4156351D1*
X8504584Y4165167D1*
X8513543Y4173127D1*
X8523254Y4180149D1*
X8533620Y4186165D1*
X8544535Y4191112D1*
X8555891Y4194942D1*
X8567573Y4197616D1*
X8579464Y4199107D1*
X8591445Y4199399D1*
X8603395Y4198492D1*
X8615194Y4196392D1*
X8626723Y4193122D1*
X8637868Y4188714D1*
X8648514Y4183212D1*
X8658557Y4176672D1*
X8667895Y4169160D1*
X8676433Y4160751D1*
X8684087Y4151529D1*
X8690779Y4141587D1*
X8696443Y4131025D1*
X8701020Y4119950D1*
X8704466Y4108471D1*
X8706745Y4096706D1*
X8707835Y4084771D1*
X8707898Y4076880D1*
X7072775Y5092880D2*
X7071874Y5080929D1*
X7069782Y5069129D1*
X7066519Y5057597D1*
X7062118Y5046451D1*
X7056623Y5035800D1*
X7050089Y5025753D1*
X7042583Y5016411D1*
X7034179Y5007867D1*
X7024962Y5000208D1*
X7015024Y4993509D1*
X7004466Y4987839D1*
X6993393Y4983255D1*
X6981917Y4979802D1*
X6970153Y4977515D1*
X6958219Y4976418D1*
X6946235Y4976520D1*
X6934322Y4977822D1*
X6922599Y4980310D1*
X6911183Y4983959D1*
X6900191Y4988733D1*
X6889731Y4994582D1*
X6879910Y5001450D1*
X6870825Y5009266D1*
X6862569Y5017953D1*
X6855224Y5027422D1*
X6848863Y5037580D1*
X6843552Y5048323D1*
X6839342Y5059543D1*
X6836277Y5071129D1*
X6834387Y5082963D1*
X6833692Y5094927D1*
X6834197Y5106901D1*
X6835899Y5118764D1*
X6838780Y5130397D1*
X6842810Y5141683D1*
X6847951Y5152509D1*
X6854149Y5162766D1*
X6861343Y5172351D1*
X6869461Y5181167D1*
X6878420Y5189127D1*
X6888131Y5196149D1*
X6898496Y5202165D1*
X6909412Y5207112D1*
X6920768Y5210942D1*
X6932450Y5213616D1*
X6944341Y5215107D1*
X6956322Y5215399D1*
X6968272Y5214492D1*
X6980071Y5212392D1*
X6991600Y5209122D1*
X7002744Y5204714D1*
X7013391Y5199212D1*
X7023434Y5192672D1*
X7032771Y5185160D1*
X7041310Y5176751D1*
X7048964Y5167529D1*
X7055656Y5157587D1*
X7061319Y5147025D1*
X7065897Y5135950D1*
X7069343Y5124471D1*
X7071622Y5112706D1*
X7072712Y5100771D1*
X7072775Y5092880D1*
X4379275Y2199253D2*
X4378374Y2187303D1*
X4376282Y2175502D1*
X4373019Y2163971D1*
X4368618Y2152824D1*
X4363123Y2142173D1*
X4356589Y2132127D1*
X4349083Y2122785D1*
X4340679Y2114241D1*
X4331462Y2106581D1*
X4321524Y2099883D1*
X4310966Y2094213D1*
X4299893Y2089628D1*
X4288417Y2086175D1*
X4276653Y2083889D1*
X4264719Y2082791D1*
X4252735Y2082894D1*
X4240822Y2084196D1*
X4229099Y2086683D1*
X4217683Y2090332D1*
X4206691Y2095106D1*
X4196231Y2100956D1*
X4186410Y2107823D1*
X4177325Y2115640D1*
X4169069Y2124326D1*
X4161724Y2133796D1*
X4155363Y2143953D1*
X4150052Y2154696D1*
X4145842Y2165917D1*
X4142777Y2177502D1*
X4140887Y2189337D1*
X4140192Y2201301D1*
X4140697Y2213274D1*
X4142399Y2225137D1*
X4145280Y2236770D1*
X4149310Y2248056D1*
X4154451Y2258882D1*
X4160649Y2269139D1*
X4167843Y2278724D1*
X4175961Y2287540D1*
X4184920Y2295500D1*
X4194631Y2302523D1*
X4204996Y2308538D1*
X4215912Y2313486D1*
X4227268Y2317315D1*
X4238950Y2319989D1*
X4250841Y2321480D1*
X4262822Y2321773D1*
X4274772Y2320865D1*
X4286571Y2318765D1*
X4298100Y2315495D1*
X4309244Y2311087D1*
X4319891Y2305585D1*
X4329934Y2299046D1*
X4339271Y2291533D1*
X4347810Y2283124D1*
X4355464Y2273902D1*
X4362156Y2263960D1*
X4367819Y2253399D1*
X4372397Y2242323D1*
X4375843Y2230845D1*
X4378122Y2219079D1*
X4379212Y2207145D1*
X4379275Y2199253D1*
X4088275Y2965630D2*
X4087374Y2953679D1*
X4085282Y2941879D1*
X4082019Y2930347D1*
X4077618Y2919201D1*
X4072123Y2908550D1*
X4065589Y2898503D1*
X4058083Y2889161D1*
X4049679Y2880617D1*
X4040462Y2872958D1*
X4030524Y2866259D1*
X4019966Y2860589D1*
X4008893Y2856005D1*
X3997417Y2852552D1*
X3985653Y2850265D1*
X3973719Y2849168D1*
X3961735Y2849270D1*
X3949822Y2850572D1*
X3938099Y2853060D1*
X3926683Y2856709D1*
X3915691Y2861483D1*
X3905231Y2867332D1*
X3895410Y2874200D1*
X3886325Y2882016D1*
X3878069Y2890703D1*
X3870724Y2900172D1*
X3864363Y2910330D1*
X3859052Y2921073D1*
X3854842Y2932293D1*
X3851777Y2943879D1*
X3849887Y2955713D1*
X3849192Y2967677D1*
X3849697Y2979651D1*
X3851399Y2991514D1*
X3854280Y3003147D1*
X3858310Y3014433D1*
X3863451Y3025259D1*
X3869649Y3035516D1*
X3876843Y3045101D1*
X3884961Y3053917D1*
X3893920Y3061877D1*
X3903631Y3068899D1*
X3913996Y3074915D1*
X3924912Y3079862D1*
X3936268Y3083692D1*
X3947950Y3086366D1*
X3959841Y3087857D1*
X3971822Y3088149D1*
X3983772Y3087242D1*
X3995571Y3085142D1*
X4007100Y3081872D1*
X4018244Y3077464D1*
X4028891Y3071962D1*
X4038934Y3065422D1*
X4048271Y3057910D1*
X4056810Y3049501D1*
X4064464Y3040279D1*
X4071156Y3030337D1*
X4076819Y3019775D1*
X4081397Y3008700D1*
X4084843Y2997221D1*
X4087122Y2985456D1*
X4088212Y2973521D1*
X4088275Y2965630D1*
X1563817Y6213619D2*
X1560882Y6195089D1*
X1555084Y6177246D1*
X1546567Y6160529D1*
X1535539Y6145351D1*
X1522273Y6132084D1*
X1507094Y6121056D1*
X1490378Y6112539D1*
X1472535Y6106741D1*
X1454004Y6103806D1*
X1435243D1*
X1416712Y6106741D1*
X1398869Y6112539D1*
X1382152Y6121056D1*
X1366974Y6132084D1*
X1353707Y6145351D1*
X1342680Y6160529D1*
X1334162Y6177246D1*
X1328365Y6195089D1*
X1325430Y6213619D1*
Y6232381D1*
X1328365Y6250911D1*
X1334162Y6268754D1*
X1342680Y6285471D1*
X1353707Y6300649D1*
X1366974Y6313916D1*
X1382152Y6324944D1*
X1398869Y6333461D1*
X1416712Y6339259D1*
X1435243Y6342194D1*
X1454004D1*
X1472535Y6339259D1*
X1490378Y6333461D1*
X1507094Y6324944D1*
X1522273Y6313916D1*
X1535539Y6300649D1*
X1546567Y6285471D1*
X1555084Y6268754D1*
X1560882Y6250911D1*
X1563817Y6232381D1*
Y6213619D1*
X3627898Y2902130D2*
X3626998Y2890179D1*
X3624905Y2878379D1*
X3621642Y2866847D1*
X3617241Y2855701D1*
X3611746Y2845050D1*
X3605213Y2835003D1*
X3597706Y2825661D1*
X3589302Y2817117D1*
X3580085Y2809458D1*
X3570148Y2802759D1*
X3559589Y2797089D1*
X3548517Y2792505D1*
X3537041Y2789052D1*
X3525276Y2786765D1*
X3513343Y2785668D1*
X3501359Y2785770D1*
X3489445Y2787072D1*
X3477722Y2789560D1*
X3466307Y2793209D1*
X3455314Y2797983D1*
X3444855Y2803832D1*
X3435033Y2810700D1*
X3425949Y2818516D1*
X3417692Y2827203D1*
X3410347Y2836672D1*
X3403987Y2846830D1*
X3398675Y2857573D1*
X3394465Y2868793D1*
X3391400Y2880379D1*
X3389510Y2892213D1*
X3388815Y2904177D1*
X3389320Y2916151D1*
X3391022Y2928014D1*
X3393903Y2939647D1*
X3397934Y2950933D1*
X3403074Y2961759D1*
X3409272Y2972016D1*
X3416466Y2981601D1*
X3424584Y2990417D1*
X3433543Y2998377D1*
X3443254Y3005399D1*
X3453620Y3011415D1*
X3464535Y3016362D1*
X3475891Y3020192D1*
X3487573Y3022866D1*
X3499464Y3024357D1*
X3511445Y3024649D1*
X3523395Y3023742D1*
X3535194Y3021642D1*
X3546723Y3018372D1*
X3557868Y3013964D1*
X3568514Y3008462D1*
X3578557Y3001922D1*
X3587895Y2994410D1*
X3596433Y2986001D1*
X3604087Y2976779D1*
X3610779Y2966837D1*
X3616443Y2956275D1*
X3621020Y2945200D1*
X3624466Y2933721D1*
X3626745Y2921956D1*
X3627835Y2910021D1*
X3627898Y2902130D1*
X4770898Y2791003D2*
X4769998Y2779053D1*
X4767905Y2767252D1*
X4764642Y2755721D1*
X4760241Y2744574D1*
X4754746Y2733923D1*
X4748213Y2723877D1*
X4740706Y2714535D1*
X4732302Y2705991D1*
X4723085Y2698331D1*
X4713148Y2691633D1*
X4702589Y2685963D1*
X4691517Y2681378D1*
X4680041Y2677925D1*
X4668276Y2675639D1*
X4656343Y2674541D1*
X4644359Y2674644D1*
X4632445Y2675946D1*
X4620722Y2678433D1*
X4609307Y2682082D1*
X4598314Y2686856D1*
X4587855Y2692706D1*
X4578033Y2699573D1*
X4568949Y2707390D1*
X4560692Y2716076D1*
X4553347Y2725546D1*
X4546987Y2735703D1*
X4541675Y2746446D1*
X4537465Y2757667D1*
X4534400Y2769252D1*
X4532510Y2781087D1*
X4531815Y2793051D1*
X4532320Y2805024D1*
X4534022Y2816887D1*
X4536903Y2828520D1*
X4540934Y2839806D1*
X4546074Y2850632D1*
X4552272Y2860889D1*
X4559466Y2870474D1*
X4567584Y2879290D1*
X4576543Y2887250D1*
X4586254Y2894273D1*
X4596620Y2900288D1*
X4607535Y2905236D1*
X4618891Y2909065D1*
X4630573Y2911739D1*
X4642464Y2913230D1*
X4654445Y2913523D1*
X4666395Y2912615D1*
X4678194Y2910515D1*
X4689723Y2907245D1*
X4700868Y2902837D1*
X4711514Y2897335D1*
X4721557Y2890796D1*
X4730895Y2883283D1*
X4739433Y2874874D1*
X4747087Y2865652D1*
X4753779Y2855710D1*
X4759443Y2845149D1*
X4764020Y2834073D1*
X4767466Y2822595D1*
X4769745Y2810829D1*
X4770835Y2798895D1*
X4770898Y2791003D1*
X7961775Y5299253D2*
X7960874Y5287303D1*
X7958782Y5275502D1*
X7955519Y5263971D1*
X7951118Y5252824D1*
X7945623Y5242173D1*
X7939089Y5232127D1*
X7931583Y5222785D1*
X7923179Y5214241D1*
X7913962Y5206581D1*
X7904024Y5199883D1*
X7893466Y5194213D1*
X7882393Y5189628D1*
X7870917Y5186175D1*
X7859153Y5183889D1*
X7847219Y5182791D1*
X7835235Y5182894D1*
X7823322Y5184196D1*
X7811599Y5186683D1*
X7800183Y5190332D1*
X7789191Y5195106D1*
X7778731Y5200956D1*
X7768910Y5207823D1*
X7759825Y5215640D1*
X7751569Y5224326D1*
X7744224Y5233796D1*
X7737863Y5243953D1*
X7732552Y5254696D1*
X7728342Y5265917D1*
X7725277Y5277502D1*
X7723387Y5289337D1*
X7722692Y5301301D1*
X7723197Y5313274D1*
X7724899Y5325137D1*
X7727780Y5336770D1*
X7731810Y5348056D1*
X7736951Y5358882D1*
X7743149Y5369139D1*
X7750343Y5378724D1*
X7758461Y5387540D1*
X7767420Y5395500D1*
X7777131Y5402523D1*
X7787496Y5408538D1*
X7798412Y5413486D1*
X7809768Y5417315D1*
X7821450Y5419989D1*
X7833341Y5421480D1*
X7845322Y5421773D1*
X7857272Y5420865D1*
X7869071Y5418765D1*
X7880600Y5415495D1*
X7891744Y5411087D1*
X7902391Y5405585D1*
X7912434Y5399046D1*
X7921771Y5391533D1*
X7930310Y5383124D1*
X7937964Y5373902D1*
X7944656Y5363960D1*
X7950319Y5353399D1*
X7954897Y5342323D1*
X7958343Y5330845D1*
X7960622Y5319079D1*
X7961712Y5307145D1*
X7961775Y5299253D1*
X6120275Y7712253D2*
X6119374Y7700303D1*
X6117282Y7688502D1*
X6114019Y7676971D1*
X6109618Y7665824D1*
X6104123Y7655173D1*
X6097589Y7645127D1*
X6090083Y7635785D1*
X6081679Y7627241D1*
X6072462Y7619581D1*
X6062524Y7612883D1*
X6051966Y7607213D1*
X6040893Y7602628D1*
X6029417Y7599175D1*
X6017653Y7596889D1*
X6005719Y7595791D1*
X5993735Y7595894D1*
X5981822Y7597196D1*
X5970099Y7599683D1*
X5958683Y7603332D1*
X5947691Y7608106D1*
X5937231Y7613956D1*
X5927410Y7620823D1*
X5918325Y7628640D1*
X5910069Y7637326D1*
X5902724Y7646796D1*
X5896363Y7656953D1*
X5891052Y7667696D1*
X5886842Y7678917D1*
X5883777Y7690502D1*
X5881887Y7702337D1*
X5881192Y7714301D1*
X5881697Y7726274D1*
X5883399Y7738137D1*
X5886280Y7749770D1*
X5890310Y7761056D1*
X5895451Y7771882D1*
X5901649Y7782139D1*
X5908843Y7791724D1*
X5916961Y7800540D1*
X5925920Y7808500D1*
X5935631Y7815523D1*
X5945996Y7821538D1*
X5956912Y7826486D1*
X5968268Y7830315D1*
X5979950Y7832989D1*
X5991841Y7834480D1*
X6003822Y7834773D1*
X6015772Y7833865D1*
X6027571Y7831765D1*
X6039100Y7828495D1*
X6050244Y7824087D1*
X6060891Y7818585D1*
X6070934Y7812046D1*
X6080271Y7804533D1*
X6088810Y7796124D1*
X6096464Y7786902D1*
X6103156Y7776960D1*
X6108819Y7766399D1*
X6113397Y7755323D1*
X6116843Y7743845D1*
X6119122Y7732079D1*
X6120212Y7720145D1*
X6120275Y7712253D1*
X5580525Y7823380D2*
X5579624Y7811429D1*
X5577532Y7799629D1*
X5574269Y7788097D1*
X5569868Y7776951D1*
X5564373Y7766300D1*
X5557839Y7756253D1*
X5550333Y7746911D1*
X5541929Y7738367D1*
X5532712Y7730708D1*
X5522774Y7724009D1*
X5512216Y7718339D1*
X5501143Y7713755D1*
X5489667Y7710302D1*
X5477903Y7708015D1*
X5465969Y7706918D1*
X5453985Y7707020D1*
X5442072Y7708322D1*
X5430349Y7710810D1*
X5418933Y7714459D1*
X5407941Y7719233D1*
X5397481Y7725082D1*
X5387660Y7731950D1*
X5378575Y7739766D1*
X5370319Y7748453D1*
X5362974Y7757922D1*
X5356613Y7768080D1*
X5351302Y7778823D1*
X5347092Y7790043D1*
X5344027Y7801629D1*
X5342137Y7813463D1*
X5341442Y7825427D1*
X5341947Y7837401D1*
X5343649Y7849264D1*
X5346530Y7860897D1*
X5350560Y7872183D1*
X5355701Y7883009D1*
X5361899Y7893266D1*
X5369093Y7902851D1*
X5377211Y7911667D1*
X5386170Y7919627D1*
X5395881Y7926649D1*
X5406246Y7932665D1*
X5417162Y7937612D1*
X5428518Y7941442D1*
X5440200Y7944116D1*
X5452091Y7945607D1*
X5464072Y7945899D1*
X5476022Y7944992D1*
X5487821Y7942892D1*
X5499350Y7939622D1*
X5510494Y7935214D1*
X5521141Y7929712D1*
X5531184Y7923172D1*
X5540521Y7915660D1*
X5549060Y7907251D1*
X5556714Y7898029D1*
X5563406Y7888087D1*
X5569069Y7877525D1*
X5573647Y7866450D1*
X5577093Y7854971D1*
X5579372Y7843206D1*
X5580462Y7831271D1*
X5580525Y7823380D1*
X6596525Y7093130D2*
X6595624Y7081179D1*
X6593532Y7069379D1*
X6590269Y7057847D1*
X6585868Y7046701D1*
X6580373Y7036050D1*
X6573839Y7026003D1*
X6566333Y7016661D1*
X6557929Y7008117D1*
X6548712Y7000458D1*
X6538774Y6993759D1*
X6528216Y6988089D1*
X6517143Y6983505D1*
X6505667Y6980052D1*
X6493903Y6977765D1*
X6481969Y6976668D1*
X6469985Y6976770D1*
X6458072Y6978072D1*
X6446349Y6980560D1*
X6434933Y6984209D1*
X6423941Y6988983D1*
X6413481Y6994832D1*
X6403660Y7001700D1*
X6394575Y7009516D1*
X6386319Y7018203D1*
X6378974Y7027672D1*
X6372613Y7037830D1*
X6367302Y7048573D1*
X6363092Y7059793D1*
X6360027Y7071379D1*
X6358137Y7083213D1*
X6357442Y7095177D1*
X6357947Y7107151D1*
X6359649Y7119014D1*
X6362530Y7130647D1*
X6366560Y7141933D1*
X6371701Y7152759D1*
X6377899Y7163016D1*
X6385093Y7172601D1*
X6393211Y7181417D1*
X6402170Y7189377D1*
X6411881Y7196399D1*
X6422246Y7202415D1*
X6433162Y7207362D1*
X6444518Y7211192D1*
X6456200Y7213866D1*
X6468091Y7215357D1*
X6480072Y7215649D1*
X6492022Y7214742D1*
X6503821Y7212642D1*
X6515350Y7209372D1*
X6526494Y7204964D1*
X6537141Y7199462D1*
X6547184Y7192922D1*
X6556521Y7185410D1*
X6565060Y7177001D1*
X6572714Y7167779D1*
X6579406Y7157837D1*
X6585069Y7147275D1*
X6589647Y7136200D1*
X6593093Y7124721D1*
X6595372Y7112956D1*
X6596462Y7101021D1*
X6596525Y7093130D1*
X4870525Y4097123D2*
X4869624Y4085173D1*
X4867532Y4073372D1*
X4864269Y4061841D1*
X4859868Y4050694D1*
X4854373Y4040043D1*
X4847839Y4029997D1*
X4840333Y4020655D1*
X4831929Y4012111D1*
X4822712Y4004451D1*
X4812774Y3997753D1*
X4802216Y3992083D1*
X4791143Y3987498D1*
X4779667Y3984045D1*
X4767903Y3981759D1*
X4755969Y3980661D1*
X4743985Y3980764D1*
X4732072Y3982066D1*
X4720349Y3984553D1*
X4708933Y3988202D1*
X4697941Y3992976D1*
X4687481Y3998826D1*
X4677660Y4005693D1*
X4668575Y4013510D1*
X4660319Y4022196D1*
X4652974Y4031666D1*
X4646613Y4041823D1*
X4641302Y4052566D1*
X4637092Y4063787D1*
X4634027Y4075372D1*
X4632137Y4087207D1*
X4631442Y4099171D1*
X4631947Y4111144D1*
X4633649Y4123007D1*
X4636530Y4134640D1*
X4640560Y4145926D1*
X4645701Y4156752D1*
X4651899Y4167009D1*
X4659093Y4176594D1*
X4667211Y4185410D1*
X4676170Y4193370D1*
X4685881Y4200393D1*
X4696246Y4206408D1*
X4707162Y4211356D1*
X4718518Y4215185D1*
X4730200Y4217859D1*
X4742091Y4219350D1*
X4754072Y4219643D1*
X4766022Y4218735D1*
X4777821Y4216635D1*
X4789350Y4213365D1*
X4800494Y4208957D1*
X4811141Y4203455D1*
X4821184Y4196916D1*
X4830521Y4189403D1*
X4839060Y4180994D1*
X4846714Y4171772D1*
X4853406Y4161830D1*
X4859069Y4151269D1*
X4863647Y4140193D1*
X4867093Y4128715D1*
X4869372Y4116949D1*
X4870462Y4105015D1*
X4870525Y4097123D1*
X4092648Y2382623D2*
X4091748Y2370673D1*
X4089655Y2358872D1*
X4086392Y2347341D1*
X4081991Y2336194D1*
X4076496Y2325543D1*
X4069963Y2315497D1*
X4062456Y2306155D1*
X4054052Y2297611D1*
X4044835Y2289951D1*
X4034898Y2283253D1*
X4024339Y2277583D1*
X4013267Y2272998D1*
X4001791Y2269545D1*
X3990026Y2267259D1*
X3978093Y2266161D1*
X3966109Y2266264D1*
X3954195Y2267566D1*
X3942472Y2270053D1*
X3931057Y2273702D1*
X3920064Y2278476D1*
X3909605Y2284326D1*
X3899783Y2291193D1*
X3890699Y2299010D1*
X3882442Y2307696D1*
X3875097Y2317166D1*
X3868737Y2327323D1*
X3863425Y2338066D1*
X3859215Y2349287D1*
X3856150Y2360872D1*
X3854260Y2372707D1*
X3853565Y2384671D1*
X3854070Y2396644D1*
X3855772Y2408507D1*
X3858653Y2420140D1*
X3862684Y2431426D1*
X3867824Y2442252D1*
X3874022Y2452509D1*
X3881216Y2462094D1*
X3889334Y2470910D1*
X3898293Y2478870D1*
X3908004Y2485893D1*
X3918370Y2491908D1*
X3929285Y2496856D1*
X3940641Y2500685D1*
X3952323Y2503359D1*
X3964214Y2504850D1*
X3976195Y2505143D1*
X3988145Y2504235D1*
X3999944Y2502135D1*
X4011473Y2498865D1*
X4022618Y2494457D1*
X4033264Y2488955D1*
X4043307Y2482416D1*
X4052645Y2474903D1*
X4061183Y2466494D1*
X4068837Y2457272D1*
X4075529Y2447330D1*
X4081193Y2436769D1*
X4085770Y2425693D1*
X4089216Y2414215D1*
X4091495Y2402449D1*
X4092585Y2390515D1*
X4092648Y2382623D1*
X5846775Y6924003D2*
X5845874Y6912053D1*
X5843782Y6900252D1*
X5840519Y6888721D1*
X5836118Y6877574D1*
X5830623Y6866923D1*
X5824089Y6856877D1*
X5816583Y6847535D1*
X5808179Y6838991D1*
X5798962Y6831331D1*
X5789024Y6824633D1*
X5778466Y6818963D1*
X5767393Y6814378D1*
X5755917Y6810925D1*
X5744153Y6808639D1*
X5732219Y6807541D1*
X5720235Y6807644D1*
X5708322Y6808946D1*
X5696599Y6811433D1*
X5685183Y6815082D1*
X5674191Y6819856D1*
X5663731Y6825706D1*
X5653910Y6832573D1*
X5644825Y6840390D1*
X5636569Y6849076D1*
X5629224Y6858546D1*
X5622863Y6868703D1*
X5617552Y6879446D1*
X5613342Y6890667D1*
X5610277Y6902252D1*
X5608387Y6914087D1*
X5607692Y6926051D1*
X5608197Y6938024D1*
X5609899Y6949887D1*
X5612780Y6961520D1*
X5616810Y6972806D1*
X5621951Y6983632D1*
X5628149Y6993889D1*
X5635343Y7003474D1*
X5643461Y7012290D1*
X5652420Y7020250D1*
X5662131Y7027273D1*
X5672496Y7033288D1*
X5683412Y7038236D1*
X5694768Y7042065D1*
X5706450Y7044739D1*
X5718341Y7046230D1*
X5730322Y7046523D1*
X5742272Y7045615D1*
X5754071Y7043515D1*
X5765600Y7040245D1*
X5776744Y7035837D1*
X5787391Y7030335D1*
X5797434Y7023796D1*
X5806771Y7016283D1*
X5815310Y7007874D1*
X5822964Y6998652D1*
X5829656Y6988710D1*
X5835319Y6978149D1*
X5839897Y6967073D1*
X5843343Y6955595D1*
X5845622Y6943829D1*
X5846712Y6931895D1*
X5846775Y6924003D1*
X6124648Y6668876D2*
X6123748Y6656926D1*
X6121655Y6645126D1*
X6118392Y6633594D1*
X6113991Y6622447D1*
X6108496Y6611797D1*
X6101963Y6601750D1*
X6094456Y6592408D1*
X6086052Y6583864D1*
X6076835Y6576204D1*
X6066898Y6569506D1*
X6056339Y6563836D1*
X6045267Y6559252D1*
X6033791Y6555799D1*
X6022026Y6553512D1*
X6010093Y6552414D1*
X5998109Y6552517D1*
X5986195Y6553819D1*
X5974472Y6556307D1*
X5963057Y6559956D1*
X5952064Y6564729D1*
X5941605Y6570579D1*
X5931783Y6577447D1*
X5922699Y6585263D1*
X5914442Y6593950D1*
X5907097Y6603419D1*
X5900737Y6613576D1*
X5895425Y6624319D1*
X5891215Y6635540D1*
X5888150Y6647126D1*
X5886260Y6658960D1*
X5885565Y6670924D1*
X5886070Y6682898D1*
X5887772Y6694761D1*
X5890653Y6706394D1*
X5894684Y6717680D1*
X5899824Y6728506D1*
X5906022Y6738762D1*
X5913216Y6748347D1*
X5921334Y6757164D1*
X5930293Y6765123D1*
X5940004Y6772146D1*
X5950370Y6778161D1*
X5961285Y6783109D1*
X5972641Y6786939D1*
X5984323Y6789612D1*
X5996214Y6791103D1*
X6008195Y6791396D1*
X6020145Y6790488D1*
X6031944Y6788389D1*
X6043473Y6785118D1*
X6054618Y6780710D1*
X6065264Y6775209D1*
X6075307Y6768669D1*
X6084645Y6761157D1*
X6093183Y6752747D1*
X6100837Y6743525D1*
X6107529Y6733584D1*
X6113193Y6723022D1*
X6117770Y6711946D1*
X6121216Y6700468D1*
X6123495Y6688702D1*
X6124585Y6676768D1*
X6124648Y6668876D1*
X3822775Y2192126D2*
X3821874Y2180176D1*
X3819782Y2168376D1*
X3816519Y2156844D1*
X3812118Y2145697D1*
X3806623Y2135047D1*
X3800089Y2125000D1*
X3792583Y2115658D1*
X3784179Y2107114D1*
X3774962Y2099454D1*
X3765024Y2092756D1*
X3754466Y2087086D1*
X3743393Y2082502D1*
X3731917Y2079049D1*
X3720153Y2076762D1*
X3708219Y2075664D1*
X3696235Y2075767D1*
X3684322Y2077069D1*
X3672599Y2079557D1*
X3661183Y2083206D1*
X3650191Y2087979D1*
X3639731Y2093829D1*
X3629910Y2100697D1*
X3620825Y2108513D1*
X3612569Y2117200D1*
X3605224Y2126669D1*
X3598863Y2136826D1*
X3593552Y2147569D1*
X3589342Y2158790D1*
X3586277Y2170376D1*
X3584387Y2182210D1*
X3583692Y2194174D1*
X3584197Y2206148D1*
X3585899Y2218011D1*
X3588780Y2229644D1*
X3592810Y2240930D1*
X3597951Y2251756D1*
X3604149Y2262012D1*
X3611343Y2271597D1*
X3619461Y2280414D1*
X3628420Y2288373D1*
X3638131Y2295396D1*
X3648496Y2301411D1*
X3659412Y2306359D1*
X3670768Y2310189D1*
X3682450Y2312862D1*
X3694341Y2314353D1*
X3706322Y2314646D1*
X3718272Y2313738D1*
X3730071Y2311639D1*
X3741600Y2308368D1*
X3752744Y2303960D1*
X3763391Y2298459D1*
X3773434Y2291919D1*
X3782771Y2284407D1*
X3791310Y2275997D1*
X3798964Y2266775D1*
X3805656Y2256834D1*
X3811319Y2246272D1*
X3815897Y2235196D1*
X3819343Y2223718D1*
X3821622Y2211952D1*
X3822712Y2200018D1*
X3822775Y2192126D1*
X6396775Y6934003D2*
X6395874Y6922053D1*
X6393782Y6910252D1*
X6390519Y6898721D1*
X6386118Y6887574D1*
X6380623Y6876923D1*
X6374089Y6866877D1*
X6366583Y6857535D1*
X6358179Y6848991D1*
X6348962Y6841331D1*
X6339024Y6834633D1*
X6328466Y6828963D1*
X6317393Y6824378D1*
X6305917Y6820925D1*
X6294153Y6818639D1*
X6282219Y6817541D1*
X6270235Y6817644D1*
X6258322Y6818946D1*
X6246599Y6821433D1*
X6235183Y6825082D1*
X6224191Y6829856D1*
X6213731Y6835706D1*
X6203910Y6842573D1*
X6194825Y6850390D1*
X6186569Y6859076D1*
X6179224Y6868546D1*
X6172863Y6878703D1*
X6167552Y6889446D1*
X6163342Y6900667D1*
X6160277Y6912252D1*
X6158387Y6924087D1*
X6157692Y6936051D1*
X6158197Y6948024D1*
X6159899Y6959887D1*
X6162780Y6971520D1*
X6166810Y6982806D1*
X6171951Y6993632D1*
X6178149Y7003889D1*
X6185343Y7013474D1*
X6193461Y7022290D1*
X6202420Y7030250D1*
X6212131Y7037273D1*
X6222496Y7043288D1*
X6233412Y7048236D1*
X6244768Y7052065D1*
X6256450Y7054739D1*
X6268341Y7056230D1*
X6280322Y7056523D1*
X6292272Y7055615D1*
X6304071Y7053515D1*
X6315600Y7050245D1*
X6326744Y7045837D1*
X6337391Y7040335D1*
X6347434Y7033796D1*
X6356771Y7026283D1*
X6365310Y7017874D1*
X6372964Y7008652D1*
X6379656Y6998710D1*
X6385319Y6988149D1*
X6389897Y6977073D1*
X6393343Y6965595D1*
X6395622Y6953829D1*
X6396712Y6941895D1*
X6396775Y6934003D1*
X7592275Y4040760D2*
X7591374Y4028809D1*
X7589282Y4017009D1*
X7586019Y4005477D1*
X7581618Y3994331D1*
X7576123Y3983680D1*
X7569589Y3973633D1*
X7562083Y3964291D1*
X7553679Y3955747D1*
X7544462Y3948088D1*
X7534524Y3941389D1*
X7523966Y3935719D1*
X7512893Y3931135D1*
X7501417Y3927682D1*
X7489653Y3925395D1*
X7477719Y3924298D1*
X7465735Y3924400D1*
X7453822Y3925702D1*
X7442099Y3928190D1*
X7430683Y3931839D1*
X7419691Y3936613D1*
X7409231Y3942462D1*
X7399410Y3949330D1*
X7390325Y3957146D1*
X7382069Y3965833D1*
X7374724Y3975302D1*
X7368363Y3985460D1*
X7363052Y3996203D1*
X7358842Y4007423D1*
X7355777Y4019009D1*
X7353887Y4030843D1*
X7353192Y4042807D1*
X7353697Y4054781D1*
X7355399Y4066644D1*
X7358280Y4078277D1*
X7362310Y4089563D1*
X7367451Y4100389D1*
X7373649Y4110646D1*
X7380843Y4120231D1*
X7388961Y4129047D1*
X7397920Y4137007D1*
X7407631Y4144029D1*
X7417996Y4150045D1*
X7428912Y4154992D1*
X7440268Y4158822D1*
X7451950Y4161496D1*
X7463841Y4162987D1*
X7475822Y4163279D1*
X7487772Y4162372D1*
X7499571Y4160272D1*
X7511100Y4157002D1*
X7522244Y4152594D1*
X7532891Y4147092D1*
X7542934Y4140552D1*
X7552271Y4133040D1*
X7560810Y4124631D1*
X7568464Y4115409D1*
X7575156Y4105467D1*
X7580819Y4094905D1*
X7585397Y4083830D1*
X7588843Y4072351D1*
X7591122Y4060586D1*
X7592212Y4048651D1*
X7592275Y4040760D1*
X7357525Y4271000D2*
X7356624Y4259049D1*
X7354532Y4247249D1*
X7351269Y4235717D1*
X7346868Y4224571D1*
X7341373Y4213920D1*
X7334839Y4203873D1*
X7327333Y4194531D1*
X7318929Y4185987D1*
X7309712Y4178328D1*
X7299774Y4171629D1*
X7289216Y4165959D1*
X7278143Y4161375D1*
X7266667Y4157922D1*
X7254903Y4155635D1*
X7242969Y4154538D1*
X7230985Y4154640D1*
X7219072Y4155942D1*
X7207349Y4158430D1*
X7195933Y4162079D1*
X7184941Y4166853D1*
X7174481Y4172702D1*
X7164660Y4179570D1*
X7155575Y4187386D1*
X7147319Y4196073D1*
X7139974Y4205542D1*
X7133613Y4215700D1*
X7128302Y4226443D1*
X7124092Y4237663D1*
X7121027Y4249249D1*
X7119137Y4261083D1*
X7118442Y4273047D1*
X7118947Y4285021D1*
X7120649Y4296884D1*
X7123530Y4308517D1*
X7127560Y4319803D1*
X7132701Y4330629D1*
X7138899Y4340886D1*
X7146093Y4350471D1*
X7154211Y4359287D1*
X7163170Y4367247D1*
X7172881Y4374269D1*
X7183246Y4380285D1*
X7194162Y4385232D1*
X7205518Y4389062D1*
X7217200Y4391736D1*
X7229091Y4393227D1*
X7241072Y4393519D1*
X7253022Y4392612D1*
X7264821Y4390512D1*
X7276350Y4387242D1*
X7287494Y4382834D1*
X7298141Y4377332D1*
X7308184Y4370792D1*
X7317521Y4363280D1*
X7326060Y4354871D1*
X7333714Y4345649D1*
X7340406Y4335707D1*
X7346069Y4325145D1*
X7350647Y4314070D1*
X7354093Y4302591D1*
X7356372Y4290826D1*
X7357462Y4278891D1*
X7357525Y4271000D1*
X7882398Y4267380D2*
X7881498Y4255429D1*
X7879405Y4243629D1*
X7876142Y4232097D1*
X7871741Y4220951D1*
X7866246Y4210300D1*
X7859713Y4200253D1*
X7852206Y4190911D1*
X7843802Y4182367D1*
X7834585Y4174708D1*
X7824648Y4168009D1*
X7814089Y4162339D1*
X7803017Y4157755D1*
X7791541Y4154302D1*
X7779776Y4152015D1*
X7767843Y4150918D1*
X7755859Y4151020D1*
X7743945Y4152322D1*
X7732222Y4154810D1*
X7720807Y4158459D1*
X7709814Y4163233D1*
X7699355Y4169082D1*
X7689533Y4175950D1*
X7680449Y4183766D1*
X7672192Y4192453D1*
X7664847Y4201922D1*
X7658487Y4212080D1*
X7653175Y4222823D1*
X7648965Y4234043D1*
X7645900Y4245629D1*
X7644010Y4257463D1*
X7643315Y4269427D1*
X7643820Y4281401D1*
X7645522Y4293264D1*
X7648403Y4304897D1*
X7652434Y4316183D1*
X7657574Y4327009D1*
X7663772Y4337266D1*
X7670966Y4346851D1*
X7679084Y4355667D1*
X7688043Y4363627D1*
X7697754Y4370649D1*
X7708120Y4376665D1*
X7719035Y4381612D1*
X7730391Y4385442D1*
X7742073Y4388116D1*
X7753964Y4389607D1*
X7765945Y4389899D1*
X7777895Y4388992D1*
X7789694Y4386892D1*
X7801223Y4383622D1*
X7812368Y4379214D1*
X7823014Y4373712D1*
X7833057Y4367172D1*
X7842395Y4359660D1*
X7850933Y4351251D1*
X7858587Y4342029D1*
X7865279Y4332087D1*
X7870943Y4321525D1*
X7875520Y4310450D1*
X7878966Y4298971D1*
X7881245Y4287206D1*
X7882335Y4275271D1*
X7882398Y4267380D1*
X3532317Y8737746D2*
X3529382Y8719215D1*
X3523584Y8701372D1*
X3515067Y8684656D1*
X3504039Y8669477D1*
X3490773Y8656211D1*
X3475594Y8645183D1*
X3458878Y8636666D1*
X3441035Y8630868D1*
X3422504Y8627933D1*
X3403743D1*
X3385212Y8630868D1*
X3367369Y8636666D1*
X3350652Y8645183D1*
X3335474Y8656211D1*
X3322207Y8669477D1*
X3311180Y8684656D1*
X3302662Y8701372D1*
X3296865Y8719215D1*
X3293930Y8737746D1*
Y8756507D1*
X3296865Y8775038D1*
X3302662Y8792881D1*
X3311180Y8809598D1*
X3322207Y8824776D1*
X3335474Y8838043D1*
X3350652Y8849070D1*
X3367369Y8857588D1*
X3385212Y8863385D1*
X3403743Y8866320D1*
X3422504D1*
X3441035Y8863385D1*
X3458878Y8857588D1*
X3475594Y8849070D1*
X3490773Y8838043D1*
X3504039Y8824776D1*
X3515067Y8809598D1*
X3523584Y8792881D1*
X3529382Y8775038D1*
X3532317Y8756507D1*
Y8737746D1*
X5453194Y8531369D2*
X5450259Y8512839D1*
X5444461Y8494996D1*
X5435944Y8478279D1*
X5424916Y8463101D1*
X5411649Y8449834D1*
X5396471Y8438806D1*
X5379754Y8430289D1*
X5361911Y8424491D1*
X5343381Y8421556D1*
X5324619D1*
X5306089Y8424491D1*
X5288246Y8430289D1*
X5271529Y8438806D1*
X5256351Y8449834D1*
X5243084Y8463101D1*
X5232056Y8478279D1*
X5223539Y8494996D1*
X5217741Y8512839D1*
X5214806Y8531369D1*
Y8550131D1*
X5217741Y8568661D1*
X5223539Y8586504D1*
X5232056Y8603221D1*
X5243084Y8618399D1*
X5256351Y8631666D1*
X5271529Y8642694D1*
X5288246Y8651211D1*
X5306089Y8657009D1*
X5324619Y8659944D1*
X5343381D1*
X5361911Y8657009D1*
X5379754Y8651211D1*
X5396471Y8642694D1*
X5411649Y8631666D1*
X5424916Y8618399D1*
X5435944Y8603221D1*
X5444461Y8586504D1*
X5450259Y8568661D1*
X5453194Y8550131D1*
Y8531369D1*
X7898275Y8426630D2*
X7897374Y8414679D1*
X7895282Y8402879D1*
X7892019Y8391347D1*
X7887618Y8380201D1*
X7882123Y8369550D1*
X7875589Y8359503D1*
X7868083Y8350161D1*
X7859679Y8341617D1*
X7850462Y8333958D1*
X7840524Y8327259D1*
X7829966Y8321589D1*
X7818893Y8317005D1*
X7807417Y8313552D1*
X7795653Y8311265D1*
X7783719Y8310168D1*
X7771735Y8310270D1*
X7759822Y8311572D1*
X7748099Y8314060D1*
X7736683Y8317709D1*
X7725691Y8322483D1*
X7715231Y8328332D1*
X7705410Y8335200D1*
X7696325Y8343016D1*
X7688069Y8351703D1*
X7680724Y8361172D1*
X7674363Y8371330D1*
X7669052Y8382073D1*
X7664842Y8393293D1*
X7661777Y8404879D1*
X7659887Y8416713D1*
X7659192Y8428677D1*
X7659697Y8440651D1*
X7661399Y8452514D1*
X7664280Y8464147D1*
X7668310Y8475433D1*
X7673451Y8486259D1*
X7679649Y8496516D1*
X7686843Y8506101D1*
X7694961Y8514917D1*
X7703920Y8522877D1*
X7713631Y8529899D1*
X7723996Y8535915D1*
X7734912Y8540862D1*
X7746268Y8544692D1*
X7757950Y8547366D1*
X7769841Y8548857D1*
X7781822Y8549149D1*
X7793772Y8548242D1*
X7805571Y8546142D1*
X7817100Y8542872D1*
X7828244Y8538464D1*
X7838891Y8532962D1*
X7848934Y8526422D1*
X7858271Y8518910D1*
X7866810Y8510501D1*
X7874464Y8501279D1*
X7881156Y8491337D1*
X7886819Y8480775D1*
X7891397Y8469700D1*
X7894843Y8458221D1*
X7897122Y8446456D1*
X7898212Y8434521D1*
X7898275Y8426630D1*
X3532648Y1552753D2*
X3531748Y1540803D1*
X3529655Y1529002D1*
X3526392Y1517471D1*
X3521991Y1506324D1*
X3516496Y1495673D1*
X3509963Y1485627D1*
X3502456Y1476285D1*
X3494052Y1467741D1*
X3484835Y1460081D1*
X3474898Y1453383D1*
X3464339Y1447713D1*
X3453267Y1443128D1*
X3441791Y1439675D1*
X3430026Y1437389D1*
X3418093Y1436291D1*
X3406109Y1436394D1*
X3394195Y1437696D1*
X3382472Y1440183D1*
X3371057Y1443832D1*
X3360064Y1448606D1*
X3349605Y1454456D1*
X3339783Y1461323D1*
X3330699Y1469140D1*
X3322442Y1477826D1*
X3315097Y1487296D1*
X3308737Y1497453D1*
X3303425Y1508196D1*
X3299215Y1519417D1*
X3296150Y1531002D1*
X3294260Y1542837D1*
X3293565Y1554801D1*
X3294070Y1566774D1*
X3295772Y1578637D1*
X3298653Y1590270D1*
X3302684Y1601556D1*
X3307824Y1612382D1*
X3314022Y1622639D1*
X3321216Y1632224D1*
X3329334Y1641040D1*
X3338293Y1649000D1*
X3348004Y1656023D1*
X3358370Y1662038D1*
X3369285Y1666986D1*
X3380641Y1670815D1*
X3392323Y1673489D1*
X3404214Y1674980D1*
X3416195Y1675273D1*
X3428145Y1674365D1*
X3439944Y1672265D1*
X3451473Y1668995D1*
X3462618Y1664587D1*
X3473264Y1659085D1*
X3483307Y1652546D1*
X3492645Y1645033D1*
X3501183Y1636624D1*
X3508837Y1627402D1*
X3515529Y1617460D1*
X3521193Y1606899D1*
X3525770Y1595823D1*
X3529216Y1584345D1*
X3531495Y1572579D1*
X3532585Y1560645D1*
X3532648Y1552753D1*
X2675398D2*
X2674498Y1540803D1*
X2672405Y1529002D1*
X2669142Y1517471D1*
X2664741Y1506324D1*
X2659246Y1495673D1*
X2652713Y1485627D1*
X2645206Y1476285D1*
X2636802Y1467741D1*
X2627585Y1460081D1*
X2617648Y1453383D1*
X2607089Y1447713D1*
X2596017Y1443128D1*
X2584541Y1439675D1*
X2572776Y1437389D1*
X2560843Y1436291D1*
X2548859Y1436394D1*
X2536945Y1437696D1*
X2525222Y1440183D1*
X2513807Y1443832D1*
X2502814Y1448606D1*
X2492355Y1454456D1*
X2482533Y1461323D1*
X2473449Y1469140D1*
X2465192Y1477826D1*
X2457847Y1487296D1*
X2451487Y1497453D1*
X2446175Y1508196D1*
X2441965Y1519417D1*
X2438900Y1531002D1*
X2437010Y1542837D1*
X2436315Y1554801D1*
X2436820Y1566774D1*
X2438522Y1578637D1*
X2441403Y1590270D1*
X2445434Y1601556D1*
X2450574Y1612382D1*
X2456772Y1622639D1*
X2463966Y1632224D1*
X2472084Y1641040D1*
X2481043Y1649000D1*
X2490754Y1656023D1*
X2501120Y1662038D1*
X2512035Y1666986D1*
X2523391Y1670815D1*
X2535073Y1673489D1*
X2546964Y1674980D1*
X2558945Y1675273D1*
X2570895Y1674365D1*
X2582694Y1672265D1*
X2594223Y1668995D1*
X2605368Y1664587D1*
X2616014Y1659085D1*
X2626057Y1652546D1*
X2635395Y1645033D1*
X2643933Y1636624D1*
X2651587Y1627402D1*
X2658279Y1617460D1*
X2663943Y1606899D1*
X2668520Y1595823D1*
X2671966Y1584345D1*
X2674245Y1572579D1*
X2675335Y1560645D1*
X2675398Y1552753D1*
X3770775Y1679753D2*
X3769874Y1667803D1*
X3767782Y1656002D1*
X3764519Y1644471D1*
X3760118Y1633324D1*
X3754623Y1622673D1*
X3748089Y1612627D1*
X3740583Y1603285D1*
X3732179Y1594741D1*
X3722962Y1587081D1*
X3713024Y1580383D1*
X3702466Y1574713D1*
X3691393Y1570128D1*
X3679917Y1566675D1*
X3668153Y1564389D1*
X3656219Y1563291D1*
X3644235Y1563394D1*
X3632322Y1564696D1*
X3620599Y1567183D1*
X3609183Y1570832D1*
X3598191Y1575606D1*
X3587731Y1581456D1*
X3577910Y1588323D1*
X3568825Y1596140D1*
X3560569Y1604826D1*
X3553224Y1614296D1*
X3546863Y1624453D1*
X3541552Y1635196D1*
X3537342Y1646417D1*
X3534277Y1658002D1*
X3532387Y1669837D1*
X3531692Y1681801D1*
X3532197Y1693774D1*
X3533899Y1705637D1*
X3536780Y1717270D1*
X3540810Y1728556D1*
X3545951Y1739382D1*
X3552149Y1749639D1*
X3559343Y1759224D1*
X3567461Y1768040D1*
X3576420Y1776000D1*
X3586131Y1783023D1*
X3596496Y1789038D1*
X3607412Y1793986D1*
X3618768Y1797815D1*
X3630450Y1800489D1*
X3642341Y1801980D1*
X3654322Y1802273D1*
X3666272Y1801365D1*
X3678071Y1799265D1*
X3689600Y1795995D1*
X3700744Y1791587D1*
X3711391Y1786085D1*
X3721434Y1779546D1*
X3730771Y1772033D1*
X3739310Y1763624D1*
X3746964Y1754402D1*
X3753656Y1744460D1*
X3759319Y1733899D1*
X3763897Y1722823D1*
X3767343Y1711345D1*
X3769622Y1699579D1*
X3770712Y1687645D1*
X3770775Y1679753D1*
X2342025Y1695630D2*
X2341124Y1683679D1*
X2339032Y1671879D1*
X2335769Y1660347D1*
X2331368Y1649201D1*
X2325873Y1638550D1*
X2319339Y1628503D1*
X2311833Y1619161D1*
X2303429Y1610617D1*
X2294212Y1602958D1*
X2284274Y1596259D1*
X2273716Y1590589D1*
X2262643Y1586005D1*
X2251167Y1582552D1*
X2239403Y1580265D1*
X2227469Y1579168D1*
X2215485Y1579270D1*
X2203572Y1580572D1*
X2191849Y1583060D1*
X2180433Y1586709D1*
X2169441Y1591483D1*
X2158981Y1597332D1*
X2149160Y1604200D1*
X2140075Y1612016D1*
X2131819Y1620703D1*
X2124474Y1630172D1*
X2118113Y1640330D1*
X2112802Y1651073D1*
X2108592Y1662293D1*
X2105527Y1673879D1*
X2103637Y1685713D1*
X2102942Y1697677D1*
X2103447Y1709651D1*
X2105149Y1721514D1*
X2108030Y1733147D1*
X2112060Y1744433D1*
X2117201Y1755259D1*
X2123399Y1765516D1*
X2130593Y1775101D1*
X2138711Y1783917D1*
X2147670Y1791877D1*
X2157381Y1798899D1*
X2167746Y1804915D1*
X2178662Y1809862D1*
X2190018Y1813692D1*
X2201700Y1816366D1*
X2213591Y1817857D1*
X2225572Y1818149D1*
X2237522Y1817242D1*
X2249321Y1815142D1*
X2260850Y1811872D1*
X2271994Y1807464D1*
X2282641Y1801962D1*
X2292684Y1795422D1*
X2302021Y1787910D1*
X2310560Y1779501D1*
X2318214Y1770279D1*
X2324906Y1760337D1*
X2330569Y1749775D1*
X2335147Y1738700D1*
X2338593Y1727221D1*
X2340872Y1715456D1*
X2341962Y1703521D1*
X2342025Y1695630D1*
X7310898Y6442253D2*
X7309998Y6430303D1*
X7307905Y6418502D1*
X7304642Y6406971D1*
X7300241Y6395824D1*
X7294746Y6385173D1*
X7288213Y6375127D1*
X7280706Y6365785D1*
X7272302Y6357241D1*
X7263085Y6349581D1*
X7253148Y6342883D1*
X7242589Y6337213D1*
X7231517Y6332628D1*
X7220041Y6329175D1*
X7208276Y6326889D1*
X7196343Y6325791D1*
X7184359Y6325894D1*
X7172445Y6327196D1*
X7160722Y6329683D1*
X7149307Y6333332D1*
X7138314Y6338106D1*
X7127855Y6343956D1*
X7118033Y6350823D1*
X7108949Y6358640D1*
X7100692Y6367326D1*
X7093347Y6376796D1*
X7086987Y6386953D1*
X7081675Y6397696D1*
X7077465Y6408917D1*
X7074400Y6420502D1*
X7072510Y6432337D1*
X7071815Y6444301D1*
X7072320Y6456274D1*
X7074022Y6468137D1*
X7076903Y6479770D1*
X7080934Y6491056D1*
X7086074Y6501882D1*
X7092272Y6512139D1*
X7099466Y6521724D1*
X7107584Y6530540D1*
X7116543Y6538500D1*
X7126254Y6545523D1*
X7136620Y6551538D1*
X7147535Y6556486D1*
X7158891Y6560315D1*
X7170573Y6562989D1*
X7182464Y6564480D1*
X7194445Y6564773D1*
X7206395Y6563865D1*
X7218194Y6561765D1*
X7229723Y6558495D1*
X7240868Y6554087D1*
X7251514Y6548585D1*
X7261557Y6542046D1*
X7270895Y6534533D1*
X7279433Y6526124D1*
X7287087Y6516902D1*
X7293779Y6506960D1*
X7299443Y6496399D1*
X7304020Y6485323D1*
X7307466Y6473845D1*
X7309745Y6462079D1*
X7310835Y6450145D1*
X7310898Y6442253D1*
X3854525Y3732000D2*
X3853624Y3720049D1*
X3851532Y3708249D1*
X3848269Y3696717D1*
X3843868Y3685571D1*
X3838373Y3674920D1*
X3831839Y3664873D1*
X3824333Y3655531D1*
X3815929Y3646987D1*
X3806712Y3639328D1*
X3796774Y3632629D1*
X3786216Y3626959D1*
X3775143Y3622375D1*
X3763667Y3618922D1*
X3751903Y3616635D1*
X3739969Y3615538D1*
X3727985Y3615640D1*
X3716072Y3616942D1*
X3704349Y3619430D1*
X3692933Y3623079D1*
X3681941Y3627853D1*
X3671481Y3633702D1*
X3661660Y3640570D1*
X3652575Y3648386D1*
X3644319Y3657073D1*
X3636974Y3666542D1*
X3630613Y3676700D1*
X3625302Y3687443D1*
X3621092Y3698663D1*
X3618027Y3710249D1*
X3616137Y3722083D1*
X3615442Y3734047D1*
X3615947Y3746021D1*
X3617649Y3757884D1*
X3620530Y3769517D1*
X3624560Y3780803D1*
X3629701Y3791629D1*
X3635899Y3801886D1*
X3643093Y3811471D1*
X3651211Y3820287D1*
X3660170Y3828247D1*
X3669881Y3835269D1*
X3680246Y3841285D1*
X3691162Y3846232D1*
X3702518Y3850062D1*
X3714200Y3852736D1*
X3726091Y3854227D1*
X3738072Y3854519D1*
X3750022Y3853612D1*
X3761821Y3851512D1*
X3773350Y3848242D1*
X3784494Y3843834D1*
X3795141Y3838332D1*
X3805184Y3831792D1*
X3814521Y3824280D1*
X3823060Y3815871D1*
X3830714Y3806649D1*
X3837406Y3796707D1*
X3843069Y3786145D1*
X3847647Y3775070D1*
X3851093Y3763591D1*
X3853372Y3751826D1*
X3854462Y3739891D1*
X3854525Y3732000D1*
X1214799Y8485025D2*
X1213237Y8470123D1*
X1210643Y8455366D1*
X1207029Y8440825D1*
X1202412Y8426570D1*
X1196816Y8412671D1*
X1190266Y8399195D1*
X1182794Y8386207D1*
X1174438Y8373770D1*
X1165237Y8361944D1*
X1155236Y8350787D1*
X1144483Y8340352D1*
X1133030Y8330690D1*
X1120933Y8321849D1*
X1108251Y8313870D1*
X1095044Y8306792D1*
X1081377Y8300650D1*
X1067316Y8295473D1*
X1052929Y8291287D1*
X1038286Y8288111D1*
X1023457Y8285962D1*
X1008515Y8284848D1*
X993532Y8284777D1*
X978579Y8285748D1*
X963731Y8287757D1*
X949058Y8290793D1*
X934632Y8294842D1*
X920522Y8299885D1*
X906798Y8305897D1*
X893524Y8312849D1*
X880767Y8320707D1*
X868586Y8329433D1*
X857042Y8338985D1*
X846191Y8349317D1*
X836084Y8360379D1*
X826770Y8372116D1*
X818296Y8384473D1*
X810702Y8397390D1*
X804024Y8410803D1*
X798295Y8424648D1*
X793543Y8438859D1*
X789791Y8453365D1*
X787057Y8468097D1*
X785353Y8482983D1*
X784690Y8497952D1*
X785069Y8512931D1*
X786488Y8527847D1*
X788942Y8542629D1*
X792418Y8557204D1*
X796899Y8571502D1*
X802363Y8585453D1*
X808784Y8598991D1*
X816132Y8612050D1*
X824369Y8624566D1*
X833458Y8636478D1*
X843352Y8647730D1*
X854006Y8658267D1*
X865366Y8668037D1*
X877378Y8676993D1*
X889984Y8685092D1*
X903123Y8692295D1*
X916731Y8698567D1*
X930742Y8703877D1*
X945088Y8708200D1*
X959701Y8711515D1*
X974508Y8713806D1*
X989439Y8715061D1*
X1004421Y8715275D1*
X1019382Y8714446D1*
X1034249Y8712579D1*
X1048950Y8709682D1*
X1063414Y8705770D1*
X1077571Y8700862D1*
X1091352Y8694981D1*
X1104691Y8688156D1*
X1117523Y8680419D1*
X1129786Y8671809D1*
X1141420Y8662367D1*
X1152370Y8652139D1*
X1162581Y8641174D1*
X1172006Y8629525D1*
X1180597Y8617249D1*
X1188314Y8604406D1*
X1195119Y8591057D1*
X1200979Y8577266D1*
X1205866Y8563102D1*
X1209756Y8548632D1*
X1212630Y8533927D1*
X1214475Y8519057D1*
X1215320Y8500000D1*
X1214799Y8485025D1*
X8714799D2*
X8713237Y8470123D1*
X8710643Y8455366D1*
X8707029Y8440825D1*
X8702412Y8426570D1*
X8696816Y8412671D1*
X8690266Y8399195D1*
X8682794Y8386207D1*
X8674438Y8373770D1*
X8665237Y8361944D1*
X8655236Y8350787D1*
X8644483Y8340352D1*
X8633030Y8330690D1*
X8620933Y8321849D1*
X8608251Y8313870D1*
X8595044Y8306792D1*
X8581377Y8300650D1*
X8567316Y8295473D1*
X8552929Y8291287D1*
X8538286Y8288111D1*
X8523457Y8285962D1*
X8508515Y8284848D1*
X8493532Y8284777D1*
X8478579Y8285748D1*
X8463731Y8287757D1*
X8449058Y8290793D1*
X8434632Y8294842D1*
X8420522Y8299885D1*
X8406798Y8305897D1*
X8393524Y8312849D1*
X8380767Y8320707D1*
X8368586Y8329433D1*
X8357042Y8338985D1*
X8346191Y8349317D1*
X8336084Y8360379D1*
X8326770Y8372116D1*
X8318296Y8384473D1*
X8310702Y8397390D1*
X8304024Y8410803D1*
X8298295Y8424648D1*
X8293543Y8438859D1*
X8289791Y8453365D1*
X8287057Y8468097D1*
X8285353Y8482983D1*
X8284690Y8497952D1*
X8285069Y8512931D1*
X8286488Y8527847D1*
X8288942Y8542629D1*
X8292418Y8557204D1*
X8296899Y8571502D1*
X8302363Y8585453D1*
X8308784Y8598991D1*
X8316132Y8612050D1*
X8324369Y8624566D1*
X8333458Y8636478D1*
X8343352Y8647730D1*
X8354006Y8658267D1*
X8365366Y8668037D1*
X8377378Y8676993D1*
X8389984Y8685092D1*
X8403123Y8692295D1*
X8416731Y8698567D1*
X8430742Y8703877D1*
X8445088Y8708200D1*
X8459701Y8711515D1*
X8474508Y8713806D1*
X8489439Y8715061D1*
X8504421Y8715275D1*
X8519382Y8714446D1*
X8534249Y8712579D1*
X8548950Y8709682D1*
X8563414Y8705770D1*
X8577571Y8700862D1*
X8591352Y8694981D1*
X8604691Y8688156D1*
X8617523Y8680419D1*
X8629786Y8671809D1*
X8641420Y8662367D1*
X8652370Y8652139D1*
X8662581Y8641174D1*
X8672006Y8629525D1*
X8680597Y8617249D1*
X8688314Y8604406D1*
X8695119Y8591057D1*
X8700979Y8577266D1*
X8705866Y8563102D1*
X8709756Y8548632D1*
X8712630Y8533927D1*
X8714475Y8519057D1*
X8715320Y8500000D1*
X8714799Y8485025D1*
Y985025D2*
X8713237Y970123D1*
X8710643Y955366D1*
X8707029Y940825D1*
X8702412Y926570D1*
X8696816Y912671D1*
X8690266Y899195D1*
X8682794Y886207D1*
X8674438Y873770D1*
X8665237Y861944D1*
X8655236Y850787D1*
X8644483Y840352D1*
X8633030Y830690D1*
X8620933Y821849D1*
X8608251Y813870D1*
X8595044Y806792D1*
X8581377Y800650D1*
X8567316Y795473D1*
X8552929Y791287D1*
X8538286Y788111D1*
X8523457Y785962D1*
X8508515Y784848D1*
X8493532Y784777D1*
X8478579Y785748D1*
X8463731Y787757D1*
X8449058Y790793D1*
X8434632Y794842D1*
X8420522Y799885D1*
X8406798Y805897D1*
X8393524Y812849D1*
X8380767Y820707D1*
X8368586Y829433D1*
X8357042Y838985D1*
X8346191Y849317D1*
X8336084Y860379D1*
X8326770Y872116D1*
X8318296Y884473D1*
X8310702Y897390D1*
X8304024Y910803D1*
X8298295Y924648D1*
X8293543Y938859D1*
X8289791Y953365D1*
X8287057Y968097D1*
X8285353Y982983D1*
X8284690Y997952D1*
X8285069Y1012931D1*
X8286488Y1027847D1*
X8288942Y1042629D1*
X8292418Y1057204D1*
X8296899Y1071502D1*
X8302363Y1085453D1*
X8308784Y1098991D1*
X8316132Y1112050D1*
X8324369Y1124566D1*
X8333458Y1136478D1*
X8343352Y1147730D1*
X8354006Y1158267D1*
X8365366Y1168037D1*
X8377378Y1176993D1*
X8389984Y1185092D1*
X8403123Y1192295D1*
X8416731Y1198567D1*
X8430742Y1203877D1*
X8445088Y1208200D1*
X8459701Y1211515D1*
X8474508Y1213806D1*
X8489439Y1215061D1*
X8504421Y1215275D1*
X8519382Y1214446D1*
X8534249Y1212579D1*
X8548950Y1209682D1*
X8563414Y1205770D1*
X8577571Y1200862D1*
X8591352Y1194981D1*
X8604691Y1188156D1*
X8617523Y1180419D1*
X8629786Y1171809D1*
X8641420Y1162367D1*
X8652370Y1152139D1*
X8662581Y1141174D1*
X8672006Y1129525D1*
X8680597Y1117249D1*
X8688314Y1104406D1*
X8695119Y1091057D1*
X8700979Y1077266D1*
X8705866Y1063102D1*
X8709756Y1048632D1*
X8712630Y1033927D1*
X8714475Y1019057D1*
X8715320Y1000000D1*
X8714799Y985025D1*
X1214799D2*
X1213237Y970123D1*
X1210643Y955366D1*
X1207029Y940825D1*
X1202412Y926570D1*
X1196816Y912671D1*
X1190266Y899195D1*
X1182794Y886207D1*
X1174438Y873770D1*
X1165237Y861944D1*
X1155236Y850787D1*
X1144483Y840352D1*
X1133030Y830690D1*
X1120933Y821849D1*
X1108251Y813870D1*
X1095044Y806792D1*
X1081377Y800650D1*
X1067316Y795473D1*
X1052929Y791287D1*
X1038286Y788111D1*
X1023457Y785962D1*
X1008515Y784848D1*
X993532Y784777D1*
X978579Y785748D1*
X963731Y787757D1*
X949058Y790793D1*
X934632Y794842D1*
X920522Y799885D1*
X906798Y805897D1*
X893524Y812849D1*
X880767Y820707D1*
X868586Y829433D1*
X857042Y838985D1*
X846191Y849317D1*
X836084Y860379D1*
X826770Y872116D1*
X818296Y884473D1*
X810702Y897390D1*
X804024Y910803D1*
X798295Y924648D1*
X793543Y938859D1*
X789791Y953365D1*
X787057Y968097D1*
X785353Y982983D1*
X784690Y997952D1*
X785069Y1012931D1*
X786488Y1027847D1*
X788942Y1042629D1*
X792418Y1057204D1*
X796899Y1071502D1*
X802363Y1085453D1*
X808784Y1098991D1*
X816132Y1112050D1*
X824369Y1124566D1*
X833458Y1136478D1*
X843352Y1147730D1*
X854006Y1158267D1*
X865366Y1168037D1*
X877378Y1176993D1*
X889984Y1185092D1*
X903123Y1192295D1*
X916731Y1198567D1*
X930742Y1203877D1*
X945088Y1208200D1*
X959701Y1211515D1*
X974508Y1213806D1*
X989439Y1215061D1*
X1004421Y1215275D1*
X1019382Y1214446D1*
X1034249Y1212579D1*
X1048950Y1209682D1*
X1063414Y1205770D1*
X1077571Y1200862D1*
X1091352Y1194981D1*
X1104691Y1188156D1*
X1117523Y1180419D1*
X1129786Y1171809D1*
X1141420Y1162367D1*
X1152370Y1152139D1*
X1162581Y1141174D1*
X1172006Y1129525D1*
X1180597Y1117249D1*
X1188314Y1104406D1*
X1195119Y1091057D1*
X1200979Y1077266D1*
X1205866Y1063102D1*
X1209756Y1048632D1*
X1212630Y1033927D1*
X1214475Y1019057D1*
X1215320Y1000000D1*
X1214799Y985025D1*
X3038731Y2707388D2*
X2843787D1*
X2835293Y2697957D1*
X2821027Y2685772D1*
X2805030Y2675969D1*
X2787697Y2668790D1*
X2769454Y2664410D1*
X2750750Y2662938D1*
X2732046Y2664410D1*
X2713803Y2668790D1*
X2696470Y2675969D1*
X2680473Y2685772D1*
X2666207Y2697957D1*
X2654022Y2712223D1*
X2644219Y2728220D1*
X2637040Y2745553D1*
X2632660Y2763796D1*
X2631188Y2782500D1*
X2632660Y2801204D1*
X2637040Y2819447D1*
X2644219Y2836780D1*
X2654022Y2852777D1*
X2666207Y2867043D1*
X2680473Y2879228D1*
X2696470Y2889031D1*
X2713803Y2896210D1*
X2732046Y2900590D1*
X2750750Y2902062D1*
X2769454Y2900590D1*
X2787697Y2896210D1*
X2805030Y2889031D1*
X2821027Y2879228D1*
X2835293Y2867043D1*
X2843686Y2857586D1*
X3038716Y2857612D1*
X3047210Y2867043D1*
X3061476Y2879228D1*
X3077473Y2889031D1*
X3094807Y2896210D1*
X3113050Y2900590D1*
X3131753Y2902062D1*
X3150457Y2900590D1*
X3168700Y2896210D1*
X3186033Y2889031D1*
X3202030Y2879228D1*
X3216297Y2867043D1*
X3228481Y2852777D1*
X3238284Y2836780D1*
X3245464Y2819447D1*
X3249844Y2801204D1*
X3251316Y2782500D1*
X3249844Y2763796D1*
X3245464Y2745553D1*
X3238284Y2728220D1*
X3228481Y2712223D1*
X3216297Y2697957D1*
X3202030Y2685772D1*
X3186033Y2675969D1*
X3168700Y2668790D1*
X3150457Y2664410D1*
X3131753Y2662938D1*
X3113050Y2664410D1*
X3094807Y2668790D1*
X3077473Y2675969D1*
X3061476Y2685772D1*
X3047210Y2697957D1*
X3038817Y2707414D1*
X4761546Y7015688D2*
X4085975D1*
X4075150Y7006772D1*
X4059153Y6996969D1*
X4041820Y6989790D1*
X4023577Y6985410D1*
X4004873Y6983938D1*
X3986170Y6985410D1*
X3967927Y6989790D1*
X3950593Y6996969D1*
X3934596Y7006772D1*
X3920330Y7018957D1*
X3908145Y7033223D1*
X3898343Y7049220D1*
X3891163Y7066553D1*
X3886783Y7084796D1*
X3885311Y7103500D1*
X3886783Y7122204D1*
X3891163Y7140447D1*
X3898343Y7157780D1*
X3908145Y7173777D1*
X3920330Y7188043D1*
X3934596Y7200228D1*
X3950593Y7210031D1*
X3967927Y7217210D1*
X3986170Y7221590D1*
X4004873Y7223062D1*
X4023577Y7221590D1*
X4041820Y7217210D1*
X4059153Y7210031D1*
X4075150Y7200228D1*
X4085889Y7191304D1*
X4732839Y7191312D1*
X4741457Y7200920D1*
X4755723Y7213105D1*
X4771720Y7222907D1*
X4789053Y7230087D1*
X4807296Y7234467D1*
X4826000Y7235939D1*
X4844704Y7234467D1*
X4862947Y7230087D1*
X4880280Y7222907D1*
X4896277Y7213105D1*
X4910543Y7200920D1*
X4922728Y7186654D1*
X4932531Y7170657D1*
X4939710Y7153323D1*
X4944090Y7135080D1*
X4945562Y7116377D1*
X4944090Y7097673D1*
X4939710Y7079430D1*
X4932531Y7062097D1*
X4922728Y7046100D1*
X4910543Y7031833D1*
X4896277Y7019649D1*
X4880280Y7009846D1*
X4862947Y7002666D1*
X4844704Y6998286D1*
X4826000Y6996814D1*
X4807296Y6998286D1*
X4789053Y7002666D1*
X4771720Y7009846D1*
X4761669Y7015676D1*
X4525189Y2332811D2*
D33*
X4745811Y2112189D1*
Y2332811D2*
X4525189Y2112189D1*
X6525439Y1507315D2*
X6746061Y1286692D1*
Y1507315D2*
X6525439Y1286692D1*
X6493689Y6952438D2*
X6714311Y6731815D1*
Y6952438D2*
X6493689Y6731815D1*
X2636062Y5285561D2*
X2856685Y5064939D1*
Y5285561D2*
X2636062Y5064939D1*
X4668062Y7793811D2*
X4888685Y7573189D1*
Y7793811D2*
X4668062Y7573189D1*
X4308350Y6827892D2*
X4590397Y6515854D1*
Y6827892D2*
X4308350Y6515854D1*
X7088979Y1530397D2*
X7451021Y1168356D1*
Y1530397D2*
X7088979Y1168356D1*
X445729Y5611394D2*
X807771Y5249352D1*
Y5611394D2*
X445729Y5249352D1*
X461606Y3025267D2*
X823648Y2663226D1*
Y3025267D2*
X461606Y2663226D1*
X4613229Y8482147D2*
X4975271Y8120105D1*
Y8482147D2*
X4613229Y8120105D1*
X2405080Y6294424D2*
X2476500Y6223003D1*
X2405080Y6151583D1*
X2964000Y6245003D2*
X3044488Y6165049D1*
Y6324958D2*
X2964000Y6245003D1*
X2169013Y6324958D2*
X2329988Y6165049D1*
Y6324958D2*
X2169013Y6165049D1*
X6173445Y3383705D2*
X6385555Y3171595D1*
Y3383705D2*
X6173445Y3171595D1*
X426600Y7425894D2*
X788641Y7063852D1*
Y7425894D2*
X426600Y7063852D1*
X7197603Y3145770D2*
X7479645Y2863729D1*
X7338623Y3004750D2*
X7197603Y2863729D1*
X8457259Y6437096D2*
X8588373Y6302377D1*
X8457259Y6167657D1*
X4868498Y4751755D2*
X5037502Y4582751D1*
Y4751755D2*
X4868498Y4582751D1*
X5344748Y4751755D2*
X5513752Y4582751D1*
Y4751755D2*
X5344748Y4582751D1*
X4868498Y5212125D2*
X5037502Y5043121D1*
Y5212125D2*
X4868498Y5043121D1*
X5535248Y3132502D2*
X5704252Y2963498D1*
Y3132502D2*
X5535248Y2963498D1*
X5773371Y6085252D2*
X5942375Y5916248D1*
Y6085252D2*
X5857873Y6000750D1*
X6201998Y5878879D2*
X6371002Y5709875D1*
Y5878879D2*
X6201998Y5709875D1*
X4952248Y6010252D2*
X5121252Y5841248D1*
Y6010252D2*
X4952248Y5841248D1*
X5920621Y5105375D2*
X6089625Y4936371D1*
Y5105375D2*
X5920621Y4936371D1*
X5058998Y3910375D2*
X5228002Y3741371D1*
X5143500Y3825873D2*
X5058998Y3741371D1*
X4052500Y4782750D2*
X3967998Y4698248D1*
X6579750Y3612250D2*
X6664252Y3527748D1*
Y3696752D2*
X6495248Y3527748D1*
X6424248Y3878629D2*
X6508750Y3794127D1*
X6593252Y3878629D2*
X6424248Y3709625D1*
X5920621Y7216752D2*
X6089625Y7047748D1*
Y7216752D2*
X5920621Y7047748D1*
X5015748Y4200502D2*
X5184752Y4031498D1*
Y4200502D2*
X5015748Y4031498D1*
X5517191Y5050749D2*
X5686195Y4881745D1*
Y5050749D2*
X5517191Y4881745D1*
X5170121Y5370879D2*
X5339125Y5201875D1*
Y5370879D2*
X5170121Y5201875D1*
X1963371Y3926252D2*
X2132375Y3757248D1*
Y3926252D2*
X1963371Y3757248D1*
X2947621Y3116629D2*
X3116625Y2947625D1*
Y3116629D2*
X2947621Y2947625D1*
X2074498Y3434129D2*
X2243502Y3265125D1*
Y3434129D2*
X2074498Y3265125D1*
X2423748Y4307252D2*
X2592752Y4138248D1*
Y4307252D2*
X2423748Y4138248D1*
X2884121Y6958379D2*
X3053125Y6789375D1*
Y6958379D2*
X2884121Y6789375D1*
X2010998Y8228379D2*
X2180002Y8059375D1*
Y8228379D2*
X2010998Y8059375D1*
X2534871Y6974252D2*
X2703875Y6805248D1*
Y6974252D2*
X2534871Y6805248D1*
X2540000Y8048627D2*
X2624502Y7964125D1*
Y8133129D2*
X2455498Y7964125D1*
X7376748Y4593005D2*
X7545752Y4424001D1*
Y4593005D2*
X7376748Y4424001D1*
X7408498Y5116879D2*
X7577502Y4947875D1*
Y5116879D2*
X7408498Y4947875D1*
X7852998Y4561255D2*
X8022002Y4392251D1*
Y4561255D2*
X7852998Y4392251D1*
X8503871Y4164379D2*
X8672875Y3995375D1*
Y4164379D2*
X8503871Y3995375D1*
X6868748Y5180379D2*
X7037752Y5011375D1*
Y5180379D2*
X6868748Y5011375D1*
X4175248Y2286752D2*
X4344252Y2117748D1*
Y2286752D2*
X4175248Y2117748D1*
X3884248Y3053129D2*
X4053252Y2884125D1*
Y3053129D2*
X3884248Y2884125D1*
X3423871Y2989629D2*
X3592875Y2820625D1*
Y2989629D2*
X3423871Y2820625D1*
X4566871Y2878502D2*
X4735875Y2709498D1*
Y2878502D2*
X4566871Y2709498D1*
X7757748Y5386752D2*
X7926752Y5217748D1*
Y5386752D2*
X7757748Y5217748D1*
X5916248Y7799752D2*
X6085252Y7630748D1*
Y7799752D2*
X5916248Y7630748D1*
X5376498Y7910879D2*
X5545502Y7741875D1*
Y7910879D2*
X5376498Y7741875D1*
X6392498Y7180629D2*
X6561502Y7011625D1*
Y7180629D2*
X6392498Y7011625D1*
X4666498Y4184622D2*
X4835502Y4015618D1*
Y4184622D2*
X4666498Y4015618D1*
X3888621Y2470122D2*
X4057625Y2301118D1*
Y2470122D2*
X3888621Y2301118D1*
X5642748Y7011502D2*
X5811752Y6842498D1*
Y7011502D2*
X5642748Y6842498D1*
X5920621Y6756375D2*
X6089625Y6587371D1*
Y6756375D2*
X5920621Y6587371D1*
X3618748Y2279625D2*
X3787752Y2110621D1*
Y2279625D2*
X3618748Y2110621D1*
X6192748Y7021502D2*
X6361752Y6852498D1*
Y7021502D2*
X6192748Y6852498D1*
X7388248Y4128259D2*
X7557252Y3959255D1*
Y4128259D2*
X7388248Y3959255D1*
X7153498Y4358499D2*
X7322502Y4189495D1*
Y4358499D2*
X7153498Y4189495D1*
X7678371Y4354879D2*
X7847375Y4185875D1*
Y4354879D2*
X7678371Y4185875D1*
X7694248Y8514129D2*
X7863252Y8345125D1*
Y8514129D2*
X7694248Y8345125D1*
X3328621Y1640252D2*
X3497625Y1471248D1*
Y1640252D2*
X3328621Y1471248D1*
X2471371Y1640252D2*
X2640375Y1471248D1*
Y1640252D2*
X2471371Y1471248D1*
X3566748Y1767252D2*
X3735752Y1598248D1*
Y1767252D2*
X3566748Y1598248D1*
X2137998Y1783129D2*
X2307002Y1614125D1*
Y1783129D2*
X2137998Y1614125D1*
X7106871Y6529752D2*
X7275875Y6360748D1*
Y6529752D2*
X7106871Y6360748D1*
X3650498Y3819499D2*
X3819502Y3650495D1*
Y3819499D2*
X3650498Y3650495D1*
D19*
X4635500Y2222500D3*
X6635750Y1397003D3*
X6604000Y6842127D3*
X2746373Y5175250D3*
X4778373Y7683500D3*
D47*
X3687373Y6671873D3*
X3941373D3*
X4195373D3*
D48*
X4449373D3*
D50*
X7620000Y1349377D3*
D51*
X7270000D3*
D50*
X626750Y4380373D3*
Y4730373D3*
Y5080373D3*
D51*
Y5430373D3*
D50*
X642627Y1794247D3*
Y2144247D3*
Y2494247D3*
D51*
Y2844247D3*
D50*
X4794250Y9001127D3*
Y8651127D3*
D51*
Y8301127D3*
D55*
X2476500Y6223003D3*
D56*
X2964000Y6245003D3*
D55*
X2671500Y6323003D3*
X2606500Y6223003D3*
X2736500D3*
X2541500Y6323003D3*
D56*
X2249500Y6245003D3*
D57*
X5179623Y3052377D3*
Y3306377D3*
D58*
Y3560377D3*
D61*
X7041500Y3252250D3*
X6787500Y3277650D3*
X6533500Y3252250D3*
X6279500Y3277650D3*
X6025500Y3252250D3*
X5771500Y3277650D3*
D50*
X607620Y6544873D3*
Y6894873D3*
D51*
Y7244873D3*
D65*
X7338623Y3004750D3*
D66*
Y3258750D3*
X7592623Y3004750D3*
Y3258750D3*
X7846623Y3004750D3*
Y3258750D3*
X8100623Y3004750D3*
Y3258750D3*
D19*
X5751127Y3703247D3*
X6195623Y5258997D3*
X5649750Y5852250D3*
D75*
X2976750Y1549877D3*
D78*
X8842373Y6302377D3*
D79*
X8588373D3*
X8334373D3*
D85*
X5839750Y5662247D3*
X5988243Y5513753D3*
M02*
