G04 DipTrace 3.3.1.3*
G04 HypermaqBottomsidev0.1.gts*
%MOMM*%
G04 #@! TF.FileFunction,Soldermask,Top*
G04 #@! TF.Part,Single*
%AMOUTLINE1*
4,1,4,
-0.55008,-0.45008,
-0.55008,0.45008,
0.55008,0.45008,
0.55008,-0.45008,
-0.55008,-0.45008,
0*%
%AMOUTLINE4*
4,1,4,
0.45008,-0.55008,
-0.45008,-0.55008,
-0.45008,0.55008,
0.45008,0.55008,
0.45008,-0.55008,
0*%
%AMOUTLINE7*
4,1,4,
1.00008,-0.60008,
-1.00008,-0.60008,
-1.00008,0.60008,
1.00008,0.60008,
1.00008,-0.60008,
0*%
%ADD45R,1.8X1.6*%
%ADD46R,0.8X0.8*%
%ADD57O,2.0X1.7*%
%ADD58R,2.0X1.7*%
%ADD61C,1.8796*%
%ADD70R,1.5X0.5*%
%ADD71R,0.5X1.5*%
%ADD77O,1.2X2.5*%
%ADD84O,2.5X1.2*%
%ADD87C,2.9*%
%ADD96C,1.40015*%
%ADD100R,3.45015X2.35015*%
%ADD102R,1.15015X2.35015*%
%ADD104O,2.20015X3.20015*%
%ADD106R,2.20015X3.20015*%
%ADD110C,3.20015*%
%ADD112R,7.20015X7.20015*%
%ADD114R,1.70015X2.70015*%
%ADD120R,0.80015X2.20015*%
%ADD122C,1.90015*%
%ADD124R,1.90015X1.90015*%
%ADD126R,1.20015X1.00015*%
%ADD128R,1.20015X0.80015*%
%ADD130R,1.00015X1.40015*%
%ADD136O,2.20015X1.90015*%
%ADD138O,1.00015X1.55015*%
%ADD140C,1.10015*%
%ADD142R,2.70015X2.70015*%
%ADD144C,2.70015*%
%ADD146R,1.90015X2.20015*%
%ADD148O,1.90015X2.20015*%
%ADD152C,2.20015*%
%ADD156R,1.40015X1.00015*%
%ADD158R,1.80015X2.00015*%
%ADD160R,1.50015X1.70015*%
%ADD162R,0.90015X1.10015*%
%ADD164R,1.10015X0.90015*%
%ADD166R,1.70015X1.50015*%
%ADD168R,1.30015X1.20015*%
%ADD170R,1.20015X1.30015*%
%ADD177OUTLINE1*%
%ADD180OUTLINE4*%
%ADD183OUTLINE7*%
%FSLAX35Y35*%
G04*
G71*
G90*
G75*
G01*
G04 TopMask*
%LPD*%
D170*
X3036500Y3306373D3*
Y3136373D3*
X3074500Y7049253D3*
Y6879253D3*
X2206623Y7366000D3*
Y7196000D3*
D168*
X2745623Y7054247D3*
X2915623D3*
X2206623Y8143877D3*
X2376623D3*
D170*
X2505623Y7049253D3*
Y6879253D3*
D168*
X2555873Y3211497D3*
X2385873D3*
D170*
X2861873Y3115877D3*
Y3285877D3*
X2153123Y3840500D3*
Y4010500D3*
D166*
X5481000Y3242620D3*
Y3052620D3*
D170*
X2163373Y3639747D3*
Y3469747D3*
X5983623Y5979000D3*
Y5809000D3*
D168*
X6306750Y5671750D3*
X6136750D3*
D164*
X5036750Y5798750D3*
X5166750D3*
D162*
X6116250Y5020877D3*
Y4890877D3*
D164*
X5159373Y3984627D3*
X5289373D3*
D160*
X4401753Y4846250D3*
X4211753D3*
D158*
X8890000Y3889377D3*
X8610000D3*
D160*
X8302623Y4445003D3*
X8112623D3*
D168*
X4370000Y2893623D3*
X4540000D3*
D170*
X7842250Y5032377D3*
Y5202377D3*
D168*
X7254873Y5095873D3*
X7084873D3*
X3671500Y3004747D3*
X3501500D3*
D170*
X6492873Y7445373D3*
Y7275373D3*
X5508623Y7524750D3*
Y7694750D3*
D156*
X2222500Y2000253D3*
Y1820253D3*
X3651250Y1793877D3*
Y1973877D3*
D166*
X7191623Y6778377D3*
Y6588377D3*
D45*
X6651623Y1899250D3*
Y1619250D3*
D152*
X4635500Y2222500D3*
X6635750Y1397003D3*
X6604000Y6842127D3*
X2746373Y5175250D3*
X4778373Y7683500D3*
D46*
X4497000Y3893753D3*
Y4043753D3*
D148*
X3687373Y6671873D3*
X3941373D3*
X4195373D3*
D146*
X4449373D3*
D144*
X7620000Y1349377D3*
D142*
X7270000D3*
D144*
X626750Y4380373D3*
Y4730373D3*
Y5080373D3*
D142*
Y5430373D3*
D144*
X642627Y1794247D3*
Y2144247D3*
Y2494247D3*
D142*
Y2844247D3*
D144*
X4794250Y9001127D3*
Y8651127D3*
D142*
Y8301127D3*
D140*
X2476500Y6223003D3*
D138*
X2964000Y6245003D3*
D140*
X2671500Y6323003D3*
X2606500Y6223003D3*
X2736500D3*
X2541500Y6323003D3*
D138*
X2249500Y6245003D3*
D136*
X5179623Y3052377D3*
D57*
Y3306377D3*
D58*
Y3560377D3*
D61*
X7041500Y3252250D3*
X6787500Y3277650D3*
X6533500Y3252250D3*
X6279500Y3277650D3*
X6025500Y3252250D3*
X5771500Y3277650D3*
D144*
X607620Y6544873D3*
Y6894873D3*
D142*
Y7244873D3*
D130*
X3929060Y8866187D3*
X4089060Y8866887D3*
X3921123Y8636000D3*
X4081123Y8636700D3*
X1988753Y4433497D3*
X1828753Y4432797D3*
X2004623Y4719250D3*
X1844623Y4718550D3*
X2424753Y2429997D3*
X2264753Y2429297D3*
X2424753Y2790000D3*
X2264753Y2789300D3*
X1603377Y6572250D3*
X1443377Y6571550D3*
X1607753Y6894123D3*
X1447753Y6893423D3*
D46*
X5195500Y6195623D3*
Y6045623D3*
X8175623Y4175127D3*
Y4025127D3*
X6143623Y4318003D3*
X5993623D3*
D164*
X5449500Y3592123D3*
X5579500D3*
D162*
X5419750Y3992250D3*
Y3862250D3*
D164*
X6699750Y3602250D3*
X6829750D3*
X6259123Y4116000D3*
X6129123D3*
X6402000Y3782623D3*
X6272000D3*
D162*
X3893753Y6973500D3*
Y7103500D3*
X4109750Y6982250D3*
Y7112250D3*
X5036750Y6068623D3*
Y6198623D3*
X4671623Y3992000D3*
Y3862000D3*
X7969250Y4318000D3*
Y4188000D3*
D177*
X6397623Y5889627D3*
X6527623D3*
D180*
X6546377Y5051123D3*
Y5181123D3*
D164*
X6848000Y5117623D3*
X6718000D3*
D128*
X4116000Y4004877D3*
X3676000D3*
Y3634877D3*
X4116000D3*
D126*
X3896000Y4079877D3*
Y3559877D3*
D183*
X6544873Y5719377D3*
X6934873Y5544377D3*
X6544873Y5369377D3*
D46*
X6207123Y3937000D3*
X6057123D3*
D124*
X7338623Y3004750D3*
D122*
Y3258750D3*
X7592623Y3004750D3*
Y3258750D3*
X7846623Y3004750D3*
Y3258750D3*
X8100623Y3004750D3*
Y3258750D3*
D152*
X5751127Y3703247D3*
X6195623Y5258997D3*
X5649750Y5852250D3*
D120*
X2385627Y7306877D3*
X2512627D3*
X2639627D3*
X2766627D3*
X2893627D3*
X3020627D3*
X3147627D3*
X3274627D3*
Y7846877D3*
X3147627D3*
X3020627D3*
X2893627D3*
X2766627D3*
X2639627D3*
X2512627D3*
X2385627D3*
Y3528627D3*
X2512627D3*
X2639627D3*
X2766627D3*
X2893627D3*
X3020627D3*
X3147627D3*
X3274627D3*
Y4068627D3*
X3147627D3*
X3020627D3*
X2893627D3*
X2766627D3*
X2639627D3*
X2512627D3*
X2385627D3*
D70*
X4626753Y5286250D3*
Y5206250D3*
Y5126250D3*
Y5046250D3*
Y4966250D3*
Y4886250D3*
Y4806250D3*
Y4726250D3*
Y4646250D3*
Y4566250D3*
Y4486250D3*
D71*
X4806753Y4306250D3*
X4886753D3*
X4966753D3*
X5046753D3*
X5126753D3*
X5206753D3*
X5286753D3*
X5366753D3*
X5446753D3*
X5526753D3*
X5606753D3*
D70*
X5786753Y4486250D3*
Y4566250D3*
Y4646250D3*
Y4726250D3*
Y4806250D3*
Y4886250D3*
Y4966250D3*
Y5046250D3*
Y5126250D3*
Y5206250D3*
Y5286250D3*
D71*
X5606753Y5466250D3*
X5526753D3*
X5446753D3*
X5366753D3*
X5286753D3*
X5206753D3*
X5126753D3*
X5046753D3*
X4966753D3*
X4886753D3*
X4806753D3*
D114*
X3206750Y2174877D3*
X2746750D3*
D112*
X2976750Y1549877D3*
D110*
D3*
D77*
X4175283Y1801350D3*
X4375283D3*
D106*
X8842373Y6302377D3*
D104*
X8588373D3*
X8334373D3*
D102*
X7699373Y4810127D3*
X7469373D3*
X7239373D3*
D100*
X7469373Y4230127D3*
D102*
X4199750Y2772250D3*
X3969750D3*
X3739750D3*
D100*
X3969750Y2192250D3*
D84*
X4973250Y7116377D3*
Y6916377D3*
Y7316377D3*
D102*
X6227250Y7517000D3*
X5997250D3*
X5767250D3*
D100*
X5997250Y6937000D3*
D96*
X5839750Y5662247D3*
X5988243Y5513753D3*
D87*
X1000000Y8500000D3*
X8500000D3*
Y1000000D3*
X1000000D3*
M02*
