G04 DipTrace 3.3.1.3*
G04 HypermaqBottomsidev0.1.gtl*
%MOMM*%
G04 #@! TF.FileFunction,Copper,L1,Top*
G04 #@! TF.Part,Single*
%AMOUTLINE0*
4,1,4,
-0.45,-0.35,
-0.45,0.35,
0.45,0.35,
0.45,-0.35,
-0.45,-0.35,
0*%
%AMOUTLINE3*
4,1,4,
0.35,-0.45,
-0.35,-0.45,
-0.35,0.45,
0.35,0.45,
0.35,-0.45,
0*%
%AMOUTLINE6*
4,1,4,
0.9,-0.5,
-0.9,-0.5,
-0.9,0.5,
0.9,0.5,
0.9,-0.5,
0*%
G04 #@! TA.AperFunction,Conductor*
%ADD14C,0.381*%
%ADD15C,0.254*%
%ADD16C,0.508*%
%ADD17C,0.5*%
%ADD18C,1.6*%
G04 #@! TA.AperFunction,ComponentPad*
%ADD19C,2.0*%
G04 #@! TA.AperFunction,Conductor*
%ADD20C,0.8*%
%ADD21C,0.7*%
%ADD22C,0.762*%
%ADD23C,1.524*%
%ADD24C,1.2*%
%ADD25C,1.016*%
%ADD26C,2.032*%
%ADD27C,1.0*%
%ADD28C,1.3*%
%ADD29C,0.635*%
%ADD30C,1.778*%
G04 #@! TA.AperFunction,CopperBalancing*
%ADD31C,0.29997*%
%ADD34R,1.0X1.1*%
%ADD35R,1.1X1.0*%
%ADD36R,1.5X1.3*%
%ADD37R,0.9X0.7*%
%ADD38R,0.7X0.9*%
%ADD39R,1.3X1.5*%
%ADD42R,1.6X1.8*%
%ADD44R,1.2X0.8*%
%ADD45R,1.8X1.6*%
%ADD46R,0.8X0.8*%
G04 #@! TA.AperFunction,ComponentPad*
%ADD47O,1.7X2.0*%
%ADD48R,1.7X2.0*%
%ADD50C,2.5*%
%ADD51R,2.5X2.5*%
%ADD55C,0.9*%
%ADD56O,0.8X1.35*%
%ADD57O,2.0X1.7*%
%ADD58R,2.0X1.7*%
%ADD61C,1.8796*%
%ADD62R,0.8X1.2*%
%ADD63R,1.0X0.6*%
%ADD64R,1.0X0.8*%
G04 #@! TA.AperFunction,ComponentPad*
%ADD65R,1.7X1.7*%
%ADD66C,1.7*%
%ADD68R,0.6X2.0*%
%ADD70R,1.5X0.5*%
%ADD71R,0.5X1.5*%
%ADD73R,1.5X2.5*%
%ADD74R,7.0X7.0*%
G04 #@! TA.AperFunction,ComponentPad*
%ADD75C,3.0*%
%ADD77O,1.2X2.5*%
G04 #@! TA.AperFunction,ComponentPad*
%ADD78R,2.0X3.0*%
%ADD79O,2.0X3.0*%
%ADD81R,0.95X2.15*%
%ADD82R,3.25X2.15*%
%ADD84O,2.5X1.2*%
G04 #@! TA.AperFunction,ComponentPad*
%ADD85C,1.2*%
G04 #@! TA.AperFunction,ViaPad*
%ADD86C,1.27*%
%ADD176OUTLINE0*%
%ADD179OUTLINE3*%
%ADD182OUTLINE6*%
%FSLAX35Y35*%
G04*
G71*
G90*
G75*
G01*
G04 Top*
%LPD*%
X1447753Y6893423D2*
D14*
X607620D1*
Y6894873D1*
Y6544873D2*
X634297Y6571550D1*
X1443377D1*
X4886753Y4306250D2*
X4879750Y4299247D1*
Y2971250D1*
X5132000Y2719000D1*
X7640250D1*
X7846623Y2925373D1*
Y3004750D1*
X5046753Y4306250D2*
X5049750Y4303253D1*
Y4224253D1*
X4989123Y4163627D1*
Y3020627D1*
X5163750Y2846000D1*
X7624373D1*
X7715250Y2936877D1*
D15*
Y3127377D1*
D14*
X7846623Y3258750D1*
X4794250Y8651127D2*
X4779123Y8636000D1*
X4081123D1*
Y8636700D1*
X4794250Y9001127D2*
X4660010Y8866887D1*
X4089060D1*
X2671500Y6323003D2*
X2773373D1*
X2841623Y6254753D1*
Y6096000D1*
X2884883Y6052743D1*
X2900757D1*
X3971000D1*
X4320400Y5703350D1*
Y5626700D1*
X4364850Y5582250D1*
X4450483Y4594313D2*
Y4626407D1*
X4570003Y4652247D1*
X4626750D1*
X4626753Y4646250D1*
X2606500Y6223003D2*
X2840260Y5989243D1*
X2900757D1*
X3944700D1*
X4256900Y5677050D1*
Y5626700D1*
X4212450Y5582250D1*
X4256900Y4631337D2*
X4282090D1*
X4366500Y4715747D1*
X4570003D1*
X4626750D1*
X4626753Y4726250D1*
X5481000Y3052620D2*
D16*
X5619750D1*
Y3048000D1*
X5983623Y5979000D2*
X5857873D1*
Y6000750D1*
X6306750Y5671750D2*
X6318250D1*
Y5730877D1*
X6286500Y5762627D1*
Y5794377D1*
X6116250Y5020877D2*
X6005123D1*
Y5020873D1*
X5159373Y3984627D2*
Y3825873D1*
X5143500D1*
X4211753Y4846250D2*
X4116000D1*
X4052500Y4782750D1*
X6699750Y3602250D2*
X6579750D1*
Y3612250D1*
X6259123Y4116000D2*
X6508750Y3866373D1*
Y3794127D1*
X5126753Y4306250D2*
D17*
Y4116000D1*
X5100250D1*
X5786753Y4966250D2*
X5601693D1*
Y4966247D1*
X5206753Y5466250D2*
Y5286377D1*
X5254623D1*
X2153123Y3840500D2*
D16*
X2047873D1*
Y3841750D1*
X3036500Y3136373D2*
Y3036503D1*
X3032123Y3032127D1*
X2163373Y3469747D2*
X2159000Y3349627D1*
X2512627Y4068627D2*
X2508250D1*
Y4222750D1*
X3074500Y6879253D2*
X3060733D1*
X3055357Y6873877D1*
X2968623D1*
X2206623Y8143877D2*
X2174873D1*
X2095500D1*
X2505623Y6879253D2*
X2536127D1*
X2546623Y6889750D1*
X2619373D1*
X2512627Y7846877D2*
Y7941873D1*
X2540000Y7969247D1*
Y8048627D1*
X7461250Y4508503D2*
Y4230127D1*
X7469373D1*
X7493000Y5032377D2*
X7469373Y5008750D1*
Y4810127D1*
X7937500Y4476753D2*
Y4445003D1*
X8112623D1*
X6953250Y5095877D2*
D14*
Y5095873D1*
X7084873D1*
X3968750Y2968627D2*
D16*
X3969750Y2967627D1*
Y2772250D1*
Y2192250D2*
X3979750Y2202250D1*
X4259750D1*
X3501500Y3004747D2*
Y2905127D1*
X3508373D1*
X4540000Y2893623D2*
X4639623Y2794000D1*
X4651373D1*
X7842250Y5302250D2*
Y5202377D1*
X6402000Y3782623D2*
X6413503Y3794127D1*
X6508750D1*
X5997250Y6937000D2*
X6005123Y6944873D1*
Y7132250D1*
X5997250Y7517000D2*
X6000750Y7520500D1*
Y7715250D1*
X6477000Y7096127D2*
D14*
Y7275373D1*
X6492873D1*
X5461000Y7826377D2*
Y7762877D1*
X5508623Y7715253D1*
Y7694750D1*
X4671623Y3992000D2*
D16*
Y4036617D1*
X4735127Y4100120D1*
X4751000D1*
X3703250Y2195123D2*
Y2192250D1*
X3969750D1*
X3973123Y2385620D2*
X3969750D1*
Y2192250D1*
X5727250Y6927000D2*
D14*
X5737250Y6937000D1*
X5997250D1*
D16*
X6277250D1*
X5997250D2*
X6005123Y6929127D1*
Y6671873D1*
X7238000Y4273997D2*
X7469373D1*
Y4230127D1*
X7762873Y4270377D2*
X7469373D1*
Y4230127D1*
X7472750Y4043757D2*
X7469373Y4047133D1*
Y4230127D1*
X3651250Y1793877D2*
Y1682750D1*
X2222500Y1820253D2*
Y1698627D1*
X7191373Y6445250D2*
X7191623D1*
Y6588377D1*
X3735000Y3734997D2*
Y3687373D1*
X3682503Y3634877D1*
X3676000D1*
X5036750Y5925750D2*
Y5798750D1*
Y6068623D2*
Y5925750D1*
X6848000Y5117623D2*
D14*
X6953250D1*
Y5095877D1*
X7969250Y4318000D2*
D16*
Y4476753D1*
X7937500D1*
X6651623Y1619250D2*
D18*
X6635750D1*
D19*
Y1397003D1*
X6397623Y5889627D2*
D16*
X6302373Y5794377D1*
X6286500D1*
X8588373Y4079877D2*
Y3889377D1*
X8610000D1*
X2555873Y1555750D2*
X2561747Y1549877D1*
X2976750D1*
X3413123Y1555750D2*
X3407250Y1549877D1*
X2976750D1*
X642627Y2494247D2*
D14*
X684497D1*
X873127Y2682877D1*
X1651000D1*
X1757423Y2789300D1*
X2264753D1*
X642627Y2144247D2*
X699623D1*
X873127Y2317750D1*
X1571623D1*
X1683170Y2429297D1*
X2264753D1*
X5786753Y4486250D2*
X5782873D1*
Y4274750D1*
X6057123Y4000500D1*
Y3937000D1*
X5786753Y4566250D2*
X5790753Y4562250D1*
X5899750D1*
X5993623Y4468377D1*
Y4318003D1*
X4806753Y4306250D2*
X4759497D1*
X4497000Y4043753D1*
X5286753Y5466250D2*
X5289750Y5469247D1*
Y5895000D1*
X5195500Y5989250D1*
Y6045623D1*
X5286753Y4306250D2*
Y4185247D1*
X5419750Y4052250D1*
Y3992250D1*
X4116000Y4004877D2*
X4322380D1*
X4766877Y4449373D1*
X5227257D1*
X5286753Y4389877D1*
Y4306250D1*
X5786753Y4806250D2*
X5790753Y4802250D1*
X6230880D1*
X7592623Y3440507D1*
Y3258750D1*
X5786753Y4726250D2*
X5790753Y4722250D1*
X6168000D1*
X7461250Y3429000D1*
D15*
Y3136123D1*
D14*
X7592623Y3004750D1*
X3921123Y8636000D2*
X3111497D1*
X2778123Y8302627D1*
Y7858373D1*
X2766627Y7846877D1*
Y4068627D2*
Y4472377D1*
X2519753Y4719250D1*
X2004623D1*
X2639627Y4068627D2*
Y4306493D1*
X2516993Y4429127D1*
X2428873D1*
Y4433497D1*
X1988753D1*
X3929060Y8866187D2*
X3103560D1*
X2651123Y8413750D1*
Y7858373D1*
X2639627Y7846877D1*
X2505623Y7049253D2*
X2495623D1*
Y7306877D1*
X2512627D1*
X3020627D2*
X3026873Y7300630D1*
Y7049253D1*
X3074500D1*
X2206623Y7196000D2*
Y7182247D1*
X2260997D1*
X2385627Y7306877D1*
X2206623Y7366000D2*
X2333623Y7493000D1*
X2359497D1*
X2365623Y7486873D1*
X2565627D1*
X2639627Y7412873D1*
Y7306877D1*
X2766627D2*
X2762250Y7302500D1*
Y7054247D1*
X2745623D1*
X2915623D2*
X2893627Y7076243D1*
Y7306877D1*
X4497000Y3893753D2*
Y3889373D1*
X4671623D1*
Y3862000D1*
X5195500Y6195623D2*
X5192500Y6198623D1*
X5036750D1*
X8175623Y4175127D2*
D20*
Y4159250D1*
X7998000D1*
D21*
X7969250Y4188000D1*
X5179623Y3306377D2*
D22*
X5243380Y3242620D1*
X5481000D1*
X2163373Y3639747D2*
D14*
X2226873D1*
X2290373Y3703247D1*
X2401510D1*
X2512627Y3592130D1*
Y3528627D1*
X3036500Y3306373D2*
X3020627Y3322247D1*
Y3528627D1*
X2385627D2*
Y3211580D1*
X2385710Y3211497D1*
X2555873D2*
Y3238497D1*
X2639627Y3322250D1*
Y3528627D1*
X2766627D2*
Y3195250D1*
X2846000Y3115877D1*
X2861873D1*
Y3285877D2*
X2893627D1*
Y3528627D1*
X6207123Y3937000D2*
X6215877D1*
X6272000Y3880877D1*
Y3782623D1*
X6143623Y4318003D2*
X6129123Y4303503D1*
Y4116000D1*
X6544873Y5719377D2*
X6527623Y5736627D1*
Y5889627D1*
X6546377Y5181123D2*
X6544873Y5182627D1*
Y5369377D1*
X5771500Y3277650D2*
X5723477D1*
X5449500Y3551627D1*
Y3592123D1*
X5419750Y3862250D2*
D21*
Y3779147D1*
D22*
X5449500Y3749397D1*
Y3665223D1*
D21*
Y3592123D1*
X5179623Y3560377D2*
D22*
X5211370Y3592123D1*
X5366400D1*
D21*
X5449500D1*
X7041500Y3252250D2*
D14*
X6829750Y3464000D1*
Y3602250D1*
X3147627Y3528627D2*
Y2988873D1*
X2798377Y2639623D1*
X2623750D1*
X2460627Y2476500D1*
X2424753D1*
Y2429997D1*
X3274627Y3528627D2*
Y2925373D1*
X3131753Y2782500D1*
X2750750D2*
Y2814257D1*
X2726493Y2790000D1*
X2424753D1*
X3206750Y2174877D2*
D23*
X3450250D1*
X3651250Y1973877D1*
X4175283Y1801350D2*
D24*
X4044720D1*
D23*
X4024777D1*
X3889373Y1936750D1*
X3824577D1*
X3787450Y1973877D1*
D20*
X3651250D1*
X3147627Y7306877D2*
D14*
Y7433870D1*
X3009120Y7572377D1*
X2222500D1*
X1857373Y7207250D1*
Y6826247D1*
X1603377Y6572250D1*
X3274627Y7306877D2*
Y7417993D1*
X3040870Y7651750D1*
X2127247D1*
X1607753Y7132257D1*
Y6894123D1*
X5606753Y5466250D2*
X5802750Y5662247D1*
X5839750D1*
Y5680997D1*
X5967753Y5809000D1*
X5983623D1*
X5786753Y5286250D2*
X5988243Y5487740D1*
Y5513753D1*
X6136750Y5662260D1*
Y5671750D1*
X2952750Y6397627D2*
X3143253Y6207123D1*
X4183877D1*
X4465250Y5925750D1*
X5005000Y5640000D2*
Y5608250D1*
X4973250Y5576500D1*
Y5466250D1*
X4966753D1*
X4401753Y4846250D2*
X4441753Y4806250D1*
X4626753D1*
X5606753Y4306250D2*
Y4245247D1*
X6379750Y3472250D1*
X6592900D1*
X6787500Y3277650D1*
X5526753Y4306250D2*
X5529750Y4303253D1*
Y4222250D1*
X6449750Y3302250D1*
X6499750D1*
X6533500Y3268500D1*
Y3252250D1*
X626750Y5080373D2*
X642997Y5064127D1*
X1492250D1*
X1837827Y4718550D1*
X1844623D1*
X626750Y4730373D2*
X1460877D1*
X1758453Y4432797D1*
X1828753D1*
X5786753Y4646250D2*
X5790757Y4642247D1*
X5969753D1*
X7338623Y3273377D1*
Y3258750D1*
X4195373Y6671873D2*
Y6624250D1*
X4805623Y6014000D1*
Y5466250D1*
X4806753D1*
X4109750Y6982250D2*
X4195373Y6896627D1*
Y6671873D1*
X3941373D2*
Y6622250D1*
X4022757D1*
X4626753Y6018253D1*
Y5286250D1*
X3893753Y6973500D2*
X3941373Y6925880D1*
Y6671873D1*
X5786753Y5206250D2*
X5792753Y5212250D1*
X6148877D1*
X6195623Y5258997D1*
X6481003Y5544377D1*
X6934873D1*
X6718000Y5327503D1*
Y5117623D1*
X5366753Y4306250D2*
X5369750Y4303253D1*
Y4202250D1*
X5751127Y3820873D1*
Y3703247D1*
X5649750Y5852250D2*
Y5832247D1*
X5526753Y5709250D1*
Y5466250D1*
X2893627Y4068627D2*
Y4338253D1*
X3761623Y5206250D1*
X4626753D1*
X3020627Y4068627D2*
Y4338247D1*
X3808630Y5126250D1*
X4626753D1*
Y4486250D2*
X4622753Y4482250D1*
X3688250D1*
X3274627Y4068627D1*
X3147627D2*
Y4338247D1*
X3855630Y5046250D1*
X4626753D1*
Y4966250D2*
X4619753Y4973250D1*
X3988997D1*
X3941373Y4925627D1*
Y5338373D2*
Y5361377D1*
X3508373Y5794377D1*
Y6635750D2*
X3524250D1*
Y7565253D1*
X3044440Y8045063D2*
X3020627Y8021250D1*
X2973000D1*
X2893627Y7941877D1*
Y7846877D1*
X3020627D2*
Y7767243D1*
X3115873Y7671997D1*
X3735003D1*
X4886753Y6520247D1*
Y5466250D1*
X3274627Y7846877D2*
X3279253Y7842250D1*
X3698877D1*
X5366753Y6174373D1*
Y5466250D1*
X5446753D2*
X5449500Y5468997D1*
Y6218627D1*
X3651250Y8016877D1*
X3222627D1*
X3147627Y7941877D1*
Y7846877D1*
X8302623Y4445003D2*
D22*
X8334373Y4476753D1*
D23*
Y6302377D1*
X4370000Y2893623D2*
D25*
X4248627Y2772250D1*
D16*
X4199750D1*
X8302623Y4445003D2*
D23*
X8334373D1*
Y3397247D1*
X8195877Y3258750D1*
X8100623D1*
X8155377D1*
X8286750Y3127377D1*
Y2825750D1*
X7874000Y2413000D1*
X4746630D1*
X4370000Y2789630D1*
Y2893623D1*
X7699373Y4810127D2*
D16*
X7767247D1*
Y4862120D1*
X8334373Y6302377D2*
D23*
Y5302253D1*
X8064497Y5032377D1*
X7842250D1*
D25*
X7699373Y4889500D1*
D16*
Y4810127D1*
X6227250Y7517000D2*
D25*
Y7540627D1*
D26*
X6397620D1*
D27*
X6492873Y7445373D1*
X8334373Y6302377D2*
D23*
X8000997D1*
X7445373Y6858000D1*
X7254877D1*
X7177347Y6935530D1*
D26*
X7103407Y6861593D1*
X6687063Y6445250D1*
X5635623D1*
X5164497Y6916377D1*
X4973250D1*
X6651627Y7445373D2*
D27*
X6492873D1*
X6667503D1*
D23*
X7177347Y6935530D1*
X7191623Y6778377D2*
D28*
X7103407Y6861593D1*
X5508623Y7524750D2*
D14*
Y7517000D1*
X5767250D1*
X2385627Y7846877D2*
D22*
Y8100627D1*
X2508250Y8223250D1*
X2984500D2*
X3778250D1*
X4143373Y7858127D1*
X5095873D1*
X5445123Y7508877D1*
X5767250D1*
Y7517000D1*
D29*
X5516750D1*
X5302250Y7302500D1*
X5036750D1*
Y7316377D1*
X4973250D1*
X2376623Y8143877D2*
D14*
Y7846877D1*
X2385627D1*
X2153123Y4010500D2*
X2211250Y4068627D1*
X2385627D1*
X3671500Y3004747D2*
D16*
X3719123Y2957123D1*
X3739750D1*
Y2772250D1*
X2385627Y4068627D2*
D22*
X2369750D1*
Y3916750D1*
X2519753Y3766747D1*
X3297630D1*
X3750873Y3313503D1*
Y2957123D1*
X3739750D1*
Y2772250D1*
Y2712250D1*
X3750873Y2701127D1*
Y3036497D1*
X3909627Y3195250D1*
X4449373D1*
X5052623Y2592000D1*
X7703750D1*
X8100623Y2988873D1*
Y3004750D1*
X5166750Y5798750D2*
D16*
Y5727623D1*
X5126753Y5687627D1*
D17*
Y5466250D1*
X6025500Y3252250D2*
D16*
X6029750D1*
Y3292247D1*
X5809247Y3512750D1*
X5687623D1*
X5608250Y3592123D1*
X5579500D1*
X5289373Y3984627D2*
Y4062630D1*
D17*
X5206753Y4145250D1*
Y4306250D1*
X6116250Y4890877D2*
D16*
X6111623Y4886250D1*
X5887150D1*
D17*
X5786753D1*
X7254873Y5095873D2*
D16*
X7164000Y5186747D1*
Y5560623D1*
X6592500Y6132123D1*
X5624127D1*
X5179630Y5687627D2*
X5126753D1*
X6116250Y4890877D2*
X6546377D1*
X7113380D1*
X7254873Y5032370D1*
Y5095873D1*
X7239373Y5080373D1*
D25*
Y4810127D1*
X6546377Y5051123D2*
D16*
Y4890877D1*
X7254873Y5095873D2*
D22*
X7270750D1*
Y4985673D1*
X6774137Y4489060D1*
X8175623Y4025127D2*
D16*
Y4016370D1*
X8016877Y3857623D1*
X7381877D1*
X6750440Y4489060D1*
X6774137D1*
X5290750Y3862927D2*
D22*
Y3983250D1*
X5289373Y3984627D1*
X4626753Y4886250D2*
D17*
X4743373D1*
D16*
X4794250Y4937127D1*
Y5238750D1*
X4841877Y5286377D1*
X5064127D1*
X5126753Y5349003D1*
D17*
Y5466250D1*
X3687373Y6671873D2*
D29*
Y6957623D1*
X3833250Y7103500D1*
X3893753D1*
D14*
Y7112250D1*
X4109750D1*
X4973250Y7116377D2*
D29*
X4826000D1*
X4004873Y7103500D2*
X3893753D1*
X8842373Y6302377D2*
D26*
Y5810250D1*
X8890000D1*
Y2698750D1*
X7620000Y1428750D1*
Y1349377D1*
X8890000Y3889377D2*
D25*
X8858250Y3873680D1*
X8842373Y5810250D1*
X6651623Y1899250D2*
D18*
Y1957000D1*
D30*
X7075877D1*
X7620000Y1412877D1*
Y1349377D1*
X6651623Y1899250D2*
D23*
X4615020D1*
X4517120Y1801350D1*
D24*
X4375283D1*
X626750Y4380373D2*
D23*
Y3357250D1*
X317500Y3048000D1*
Y2016127D1*
X539380Y1794247D1*
X642627D1*
Y1778000D1*
X1478367D1*
X1688553Y1988187D1*
X1795867Y2095500D1*
X2256243D1*
X2746750D1*
Y2174877D1*
D14*
D3*
X2222500Y2000253D2*
X2238990Y2143127D1*
X1809750D1*
X1688553Y2021930D1*
Y1988187D1*
X2222500Y2000253D2*
D25*
X2256243Y2095500D1*
D86*
X4364850Y5582250D3*
X4450483Y4594313D3*
X4212450Y5582250D3*
X4256900Y4631337D3*
X3131753Y2782500D3*
X2750750D3*
X2952750Y6397627D3*
X4465250Y5925750D3*
X5005000Y5640000D3*
X3941373Y4925627D3*
Y5338373D3*
X3508373Y5794377D3*
Y6635750D3*
X3524250Y7565253D3*
X3044440Y8045063D3*
X2508250Y8223250D3*
X2984500D3*
X5624127Y6132123D3*
X5179630Y5687627D3*
X6774137Y4489060D3*
X5290750Y3862927D3*
X4826000Y7116377D3*
X4004873Y7103500D3*
X4953000Y4667253D3*
X5429250D3*
X4953000Y5127623D3*
X5619750Y3048000D3*
X5857873Y6000750D3*
X6286500Y5794377D3*
X5036750Y5925750D3*
X6005123Y5020873D3*
X5143500Y3825873D3*
X4052500Y4782750D3*
X6579750Y3612250D3*
X6508750Y3794127D3*
X6005123Y7132250D3*
X5100250Y4116000D3*
X5601693Y4966247D3*
X5254623Y5286377D3*
X2047873Y3841750D3*
X3032123Y3032127D3*
X2159000Y3349627D3*
X2508250Y4222750D3*
X190500Y5762627D3*
X2968623Y6873877D3*
X2095500Y8143877D3*
X2619373Y6889750D3*
X2540000Y8048627D3*
X7461250Y4508503D3*
X7493000Y5032377D3*
X7937500Y4476753D3*
X8588373Y4079877D3*
X6953250Y5095877D3*
X4259750Y2202250D3*
X3968750Y2968627D3*
X1444623Y6223000D3*
X3508373Y2905127D3*
X4651373Y2794000D3*
X7842250Y5302250D3*
X3048000Y5746750D3*
X6000750Y7715250D3*
X5461000Y7826377D3*
X6477000Y7096127D3*
X4751000Y4100120D3*
X3973123Y2385620D3*
X5727250Y6927000D3*
X6005123Y6671873D3*
X3703250Y2195123D3*
X6277250Y6937000D3*
X7472750Y4043757D3*
X7238000Y4273997D3*
X7762873Y4270377D3*
X3413123Y8747127D3*
X5334000Y8540750D3*
X7778750Y8429627D3*
X3413123Y1555750D3*
X2555873D3*
X3651250Y1682750D3*
X2222500Y1698627D3*
X7191373Y6445250D3*
X3735000Y3734997D3*
X6005123Y6941753D3*
X5153724Y5257592D2*
D31*
X5601775D1*
X5124079Y5227928D2*
X5601775D1*
X4878832Y5198265D2*
X5601775D1*
X4878832Y5168602D2*
X5601775D1*
X4878832Y5138938D2*
X5601775D1*
X4878832Y5109275D2*
X5601775D1*
X4878832Y5079612D2*
X5601775D1*
X4878832Y5049948D2*
X5601775D1*
X4878832Y5020285D2*
X5601775D1*
X4878832Y4990622D2*
X5601775D1*
X4878832Y4960958D2*
X5601775D1*
X4878657Y4931295D2*
X5601775D1*
X4870747Y4901632D2*
X5601775D1*
X4847488Y4871968D2*
X5601775D1*
X4817843Y4842305D2*
X5601775D1*
X4812277Y4812642D2*
X5601775D1*
X4812277Y4782978D2*
X5601775D1*
X4812277Y4753315D2*
X5601775D1*
X4812277Y4723652D2*
X5601775D1*
X4812277Y4693988D2*
X5601775D1*
X4812277Y4664325D2*
X5601775D1*
X4812277Y4634662D2*
X5601775D1*
X4812277Y4604998D2*
X5601775D1*
X4812277Y4575335D2*
X5601775D1*
X4812277Y4545672D2*
X5601775D1*
X5265215Y4516008D2*
X5601775D1*
X5299723Y4486345D2*
X5601775D1*
X4809235Y4524628D2*
X5233161Y4524396D1*
X5244825Y4522549D1*
X5256055Y4518900D1*
X5266577Y4513539D1*
X5276131Y4506598D1*
X5307191Y4475866D1*
X5604804Y4475872D1*
X5604751Y5287246D1*
X5180404Y5287255D1*
X5117125Y5224324D1*
X5106765Y5216797D1*
X5095356Y5210983D1*
X5083177Y5207026D1*
X5070529Y5205023D1*
X5019132Y5204772D1*
X4875886D1*
X4875603Y4930724D1*
X4873600Y4918076D1*
X4869643Y4905898D1*
X4863830Y4894488D1*
X4856303Y4884128D1*
X4820137Y4847607D1*
X4809235Y4836704D1*
X4809249Y4524625D1*
D34*
X3036500Y3306373D3*
Y3136373D3*
X3074500Y7049253D3*
Y6879253D3*
X2206623Y7366000D3*
Y7196000D3*
D35*
X2745623Y7054247D3*
X2915623D3*
X2206623Y8143877D3*
X2376623D3*
D34*
X2505623Y7049253D3*
Y6879253D3*
D35*
X2555873Y3211497D3*
X2385873D3*
D34*
X2861873Y3115877D3*
Y3285877D3*
X2153123Y3840500D3*
Y4010500D3*
D36*
X5481000Y3242620D3*
Y3052620D3*
D34*
X2163373Y3639747D3*
Y3469747D3*
X5983623Y5979000D3*
Y5809000D3*
D35*
X6306750Y5671750D3*
X6136750D3*
D37*
X5036750Y5798750D3*
X5166750D3*
D38*
X6116250Y5020877D3*
Y4890877D3*
D37*
X5159373Y3984627D3*
X5289373D3*
D39*
X4401753Y4846250D3*
X4211753D3*
D42*
X8890000Y3889377D3*
X8610000D3*
D39*
X8302623Y4445003D3*
X8112623D3*
D35*
X4370000Y2893623D3*
X4540000D3*
D34*
X7842250Y5032377D3*
Y5202377D3*
D35*
X7254873Y5095873D3*
X7084873D3*
X3671500Y3004747D3*
X3501500D3*
D34*
X6492873Y7445373D3*
Y7275373D3*
X5508623Y7524750D3*
Y7694750D3*
D44*
X2222500Y2000253D3*
Y1820253D3*
X3651250Y1793877D3*
Y1973877D3*
D36*
X7191623Y6778377D3*
Y6588377D3*
D45*
X6651623Y1899250D3*
Y1619250D3*
D19*
X4635500Y2222500D3*
X6635750Y1397003D3*
X6604000Y6842127D3*
X2746373Y5175250D3*
X4778373Y7683500D3*
D46*
X4497000Y3893753D3*
Y4043753D3*
D47*
X3687373Y6671873D3*
X3941373D3*
X4195373D3*
D48*
X4449373D3*
D50*
X7620000Y1349377D3*
D51*
X7270000D3*
D50*
X626750Y4380373D3*
Y4730373D3*
Y5080373D3*
D51*
Y5430373D3*
D50*
X642627Y1794247D3*
Y2144247D3*
Y2494247D3*
D51*
Y2844247D3*
D50*
X4794250Y9001127D3*
Y8651127D3*
D51*
Y8301127D3*
D55*
X2476500Y6223003D3*
D56*
X2964000Y6245003D3*
D55*
X2671500Y6323003D3*
X2606500Y6223003D3*
X2736500D3*
X2541500Y6323003D3*
D56*
X2249500Y6245003D3*
D57*
X5179623Y3052377D3*
Y3306377D3*
D58*
Y3560377D3*
D61*
X7041500Y3252250D3*
X6787500Y3277650D3*
X6533500Y3252250D3*
X6279500Y3277650D3*
X6025500Y3252250D3*
X5771500Y3277650D3*
D50*
X607620Y6544873D3*
Y6894873D3*
D51*
Y7244873D3*
D62*
X3929060Y8866187D3*
X4089060Y8866887D3*
X3921123Y8636000D3*
X4081123Y8636700D3*
X1988753Y4433497D3*
X1828753Y4432797D3*
X2004623Y4719250D3*
X1844623Y4718550D3*
X2424753Y2429997D3*
X2264753Y2429297D3*
X2424753Y2790000D3*
X2264753Y2789300D3*
X1603377Y6572250D3*
X1443377Y6571550D3*
X1607753Y6894123D3*
X1447753Y6893423D3*
D46*
X5195500Y6195623D3*
Y6045623D3*
X8175623Y4175127D3*
Y4025127D3*
X6143623Y4318003D3*
X5993623D3*
D37*
X5449500Y3592123D3*
X5579500D3*
D38*
X5419750Y3992250D3*
Y3862250D3*
D37*
X6699750Y3602250D3*
X6829750D3*
X6259123Y4116000D3*
X6129123D3*
X6402000Y3782623D3*
X6272000D3*
D38*
X3893753Y6973500D3*
Y7103500D3*
X4109750Y6982250D3*
Y7112250D3*
X5036750Y6068623D3*
Y6198623D3*
X4671623Y3992000D3*
Y3862000D3*
X7969250Y4318000D3*
Y4188000D3*
D176*
X6397623Y5889627D3*
X6527623D3*
D179*
X6546377Y5051123D3*
Y5181123D3*
D37*
X6848000Y5117623D3*
X6718000D3*
D63*
X4116000Y4004877D3*
X3676000D3*
Y3634877D3*
X4116000D3*
D64*
X3896000Y4079877D3*
Y3559877D3*
D182*
X6544873Y5719377D3*
X6934873Y5544377D3*
X6544873Y5369377D3*
D46*
X6207123Y3937000D3*
X6057123D3*
D65*
X7338623Y3004750D3*
D66*
Y3258750D3*
X7592623Y3004750D3*
Y3258750D3*
X7846623Y3004750D3*
Y3258750D3*
X8100623Y3004750D3*
Y3258750D3*
D19*
X5751127Y3703247D3*
X6195623Y5258997D3*
X5649750Y5852250D3*
D68*
X2385627Y7306877D3*
X2512627D3*
X2639627D3*
X2766627D3*
X2893627D3*
X3020627D3*
X3147627D3*
X3274627D3*
Y7846877D3*
X3147627D3*
X3020627D3*
X2893627D3*
X2766627D3*
X2639627D3*
X2512627D3*
X2385627D3*
Y3528627D3*
X2512627D3*
X2639627D3*
X2766627D3*
X2893627D3*
X3020627D3*
X3147627D3*
X3274627D3*
Y4068627D3*
X3147627D3*
X3020627D3*
X2893627D3*
X2766627D3*
X2639627D3*
X2512627D3*
X2385627D3*
D70*
X4626753Y5286250D3*
Y5206250D3*
Y5126250D3*
Y5046250D3*
Y4966250D3*
Y4886250D3*
Y4806250D3*
Y4726250D3*
Y4646250D3*
Y4566250D3*
Y4486250D3*
D71*
X4806753Y4306250D3*
X4886753D3*
X4966753D3*
X5046753D3*
X5126753D3*
X5206753D3*
X5286753D3*
X5366753D3*
X5446753D3*
X5526753D3*
X5606753D3*
D70*
X5786753Y4486250D3*
Y4566250D3*
Y4646250D3*
Y4726250D3*
Y4806250D3*
Y4886250D3*
Y4966250D3*
Y5046250D3*
Y5126250D3*
Y5206250D3*
Y5286250D3*
D71*
X5606753Y5466250D3*
X5526753D3*
X5446753D3*
X5366753D3*
X5286753D3*
X5206753D3*
X5126753D3*
X5046753D3*
X4966753D3*
X4886753D3*
X4806753D3*
D73*
X3206750Y2174877D3*
X2746750D3*
D74*
X2976750Y1549877D3*
D75*
D3*
D77*
X4175283Y1801350D3*
X4375283D3*
D78*
X8842373Y6302377D3*
D79*
X8588373D3*
X8334373D3*
D81*
X7699373Y4810127D3*
X7469373D3*
X7239373D3*
D82*
X7469373Y4230127D3*
D81*
X4199750Y2772250D3*
X3969750D3*
X3739750D3*
D82*
X3969750Y2192250D3*
D84*
X4973250Y7116377D3*
Y6916377D3*
Y7316377D3*
D81*
X6227250Y7517000D3*
X5997250D3*
X5767250D3*
D82*
X5997250Y6937000D3*
D85*
X5839750Y5662247D3*
X5988243Y5513753D3*
M02*
