G04 DipTrace 3.3.1.3*
G04 Topsidev0.gbs*
%MOMM*%
G04 #@! TF.FileFunction,Soldermask,Bot*
G04 #@! TF.Part,Single*
%ADD41C,1.8796*%
%ADD63O,1.9X1.6*%
%ADD64C,3.586*%
%ADD65C,0.9*%
%ADD66C,4.0*%
%ADD80C,1.4*%
%ADD84O,2.2X3.2*%
%ADD86R,2.2X3.2*%
%ADD104C,1.9*%
%ADD106R,1.9X1.9*%
%ADD114R,2.7X2.7*%
%ADD116C,2.7*%
%ADD118R,1.9X2.2*%
%ADD120O,1.9X2.2*%
%ADD122C,2.2*%
%FSLAX35Y35*%
G04*
G71*
G90*
G75*
G01*
G04 BotMask*
%LPD*%
D122*
X3476623Y3063873D3*
X6746873Y635000D3*
X6619873Y6492873D3*
X2478000Y4700000D3*
X3873500Y6905623D3*
X3863250Y7620003D3*
X4413250D3*
X3323250D3*
X2143500Y7935623D3*
X1873250Y7937500D3*
X2393500Y7935623D3*
X2653500D3*
D120*
X3156000Y5892700D3*
X3410000D3*
X3664000D3*
D118*
X3918000D3*
D116*
X8338000Y3090000D3*
D114*
Y2740000D3*
D116*
X8318000Y5670000D3*
D114*
Y5320000D3*
D116*
X701750Y3360000D3*
Y3710000D3*
Y4060000D3*
D114*
Y4410000D3*
D116*
Y1520000D3*
Y1870000D3*
Y2220000D3*
D114*
Y2570000D3*
D116*
X720000Y6900000D3*
Y7250000D3*
D114*
Y7600000D3*
D65*
X528000Y5730000D3*
Y5290000D3*
D41*
X4658000Y2520000D3*
Y2809560D3*
X6418000Y2470000D3*
X6164000Y2495400D3*
X5910000Y2470000D3*
X5656000Y2495400D3*
X5402000Y2470000D3*
X5148000Y2495400D3*
D106*
X2647500Y8518627D3*
D104*
Y8264627D3*
X2393500Y8518627D3*
Y8264627D3*
X2139500Y8518627D3*
Y8264627D3*
X1885500Y8518627D3*
Y8264627D3*
D122*
X5905500Y4270373D3*
D106*
X6858000Y2254250D3*
D104*
Y2508250D3*
X7112000Y2254250D3*
Y2508250D3*
X7366000Y2254250D3*
Y2508250D3*
X7620000Y2254250D3*
Y2508250D3*
D122*
X4988000Y2980000D3*
X5248000Y2930000D3*
X6128000Y4600000D3*
X5058000Y5070000D3*
D86*
X8388000Y4020000D3*
D84*
X8134000D3*
X7880000D3*
D80*
X5248000Y4880000D3*
X5396493Y4731507D3*
D63*
X7921623Y6794500D3*
Y7044500D3*
Y7244500D3*
Y7494500D3*
D64*
X8192623Y7801500D3*
Y6487500D3*
D66*
X1000000Y8500000D3*
Y600000D3*
X8000000Y8500000D3*
Y600000D3*
M02*
