G04 DipTrace 3.3.1.3*
G04 HypermaqI2Csensorboardv0.1.gbl*
%MOMM*%
G04 #@! TF.FileFunction,Copper,L2,Bot*
G04 #@! TF.Part,Single*
%AMOUTLINE0*
4,1,4,
0.9398,0.9398,
0.9398,-0.9398,
-0.9398,-0.9398,
-0.9398,0.9398,
0.9398,0.9398,
0*%
G04 #@! TA.AperFunction,Conductor*
%ADD16C,1.143*%
%ADD17C,0.635*%
%ADD18C,0.2032*%
G04 #@! TA.AperFunction,ViaPad*
%ADD19C,1.016*%
G04 #@! TA.AperFunction,Conductor*
%ADD20C,0.381*%
%ADD22C,0.254*%
G04 #@! TA.AperFunction,CopperBalancing*
%ADD23C,0.3*%
G04 #@! TA.AperFunction,ViaPad*
%ADD27C,1.27*%
G04 #@! TA.AperFunction,CopperBalancing*
%ADD28C,0.33*%
G04 #@! TA.AperFunction,ComponentPad*
%ADD29R,4.0X3.0*%
%ADD42C,2.159*%
%ADD44C,2.0*%
%ADD96OUTLINE0*%
%FSLAX35Y35*%
G04*
G71*
G90*
G75*
G01*
G04 Bottom*
%LPD*%
X4500000Y870000D2*
D16*
X4416000D1*
X4276000Y1010000D1*
Y1330000D1*
X4266000Y1340000D1*
Y2527663D2*
X4086017Y2707647D1*
X1530000D1*
X853647D1*
X526000Y2380000D1*
Y2130000D1*
X500000D1*
X1530000Y2840000D2*
D18*
Y2707647D1*
X2896000Y1770000D2*
D20*
X3096000Y1570000D1*
X2846000Y390000D2*
X2817097Y330000D1*
X2936000Y940000D2*
D17*
Y448903D1*
X2817097Y330000D1*
X2400617Y737283D2*
D22*
X2406000D1*
Y200000D1*
X3296000Y1610000D2*
D20*
X3176000Y1730000D1*
Y1810000D1*
X3246000Y200000D2*
Y873770D1*
D17*
Y940000D1*
D27*
X4266000Y1340000D3*
Y2527663D3*
D19*
X1530000Y2840000D3*
X2896000Y1770000D3*
X3096000Y1570000D3*
X2817097Y330000D3*
D3*
X2400617Y737283D3*
X2406000Y200000D3*
D27*
X3296000Y1610000D3*
D19*
X3176000Y1810000D3*
X3246000Y200000D3*
D27*
X2700000Y1660000D3*
X3646880Y1854687D3*
X3290000Y2330000D3*
X2070000Y860000D3*
X2528447Y899807D3*
X3037527Y2440343D3*
X2730000Y2250000D3*
D19*
X3288340Y1974173D3*
D27*
X2600000Y2380000D3*
D19*
X710000Y2760000D3*
D27*
X1500000Y2510000D3*
X1250000Y1880000D3*
X1266000Y1250750D3*
X2660000Y1260000D3*
X1740000Y1070000D3*
X1680000Y1880000D3*
X1540843Y1608270D3*
Y2096887D3*
X353010Y2880333D2*
D23*
X1443885D1*
X1616115D2*
X4647322D1*
X292307Y2850667D2*
X689197D1*
X730822D2*
X1435213D1*
X1624787D2*
X4568865D1*
X249943Y2821000D2*
X637576D1*
X782385D2*
X1436561D1*
X1623439D2*
X4516131D1*
X217189Y2791333D2*
X620057D1*
X4141447D2*
X4484549D1*
X188010Y2761667D2*
X614607D1*
X4174670D2*
X4462869D1*
X167268Y2732000D2*
X618943D1*
X4204318D2*
X4447869D1*
X147053Y2702333D2*
X634822D1*
X4233967D2*
X4438143D1*
X133225Y2672667D2*
X676014D1*
X4263674D2*
X4432869D1*
X119396Y2643000D2*
X646365D1*
X4293322D2*
X4431756D1*
X4868244D2*
X4879506D1*
X110900Y2613333D2*
X616658D1*
X4329885D2*
X4434803D1*
X4865197D2*
X4888553D1*
X102932Y2583667D2*
X587010D1*
X872326D2*
X1422029D1*
X1577971D2*
X4067361D1*
X4357951D2*
X4442127D1*
X4857873D2*
X4897576D1*
X98068Y2554000D2*
X557361D1*
X842678D2*
X1401580D1*
X1598420D2*
X4097010D1*
X4370725D2*
X4454256D1*
X4845744D2*
X4901268D1*
X95490Y2524333D2*
X527654D1*
X812971D2*
X1392908D1*
X1607092D2*
X2971365D1*
X3103693D2*
X4126658D1*
X4374064D2*
X4472127D1*
X4827873D2*
X4904139D1*
X93029Y2494667D2*
X498006D1*
X783322D2*
X1393025D1*
X1606975D2*
X2944529D1*
X3130471D2*
X4156365D1*
X4368791D2*
X4497850D1*
X4802150D2*
X4907010D1*
X93029Y2465000D2*
X468357D1*
X753674D2*
X1402049D1*
X1597951D2*
X2535193D1*
X2664826D2*
X2932342D1*
X3142717D2*
X4178631D1*
X4353381D2*
X4536814D1*
X4763186D2*
X4907010D1*
X93029Y2435333D2*
X441229D1*
X723967D2*
X1423025D1*
X1576975D2*
X2507654D1*
X2692365D2*
X2929529D1*
X3145529D2*
X4212791D1*
X4319221D2*
X4630096D1*
X4669904D2*
X4907010D1*
X93029Y2405667D2*
X427635D1*
X694318D2*
X1484314D1*
X1515675D2*
X2495057D1*
X2704904D2*
X2935330D1*
X3139729D2*
X3214061D1*
X3365959D2*
X4907010D1*
X93029Y2376000D2*
X424236D1*
X664670D2*
X2491951D1*
X2708010D2*
X2951443D1*
X3123615D2*
X3192498D1*
X3387521D2*
X4907010D1*
X93029Y2346333D2*
X424236D1*
X634963D2*
X2497459D1*
X2775041D2*
X2987537D1*
X3087521D2*
X3183182D1*
X3396838D2*
X4907010D1*
X93029Y2316667D2*
X424236D1*
X627756D2*
X2513104D1*
X2814240D2*
X3182771D1*
X3397248D2*
X4907010D1*
X93029Y2287000D2*
X424236D1*
X627756D2*
X2548025D1*
X2831350D2*
X3191092D1*
X3388928D2*
X4907010D1*
X93029Y2257333D2*
X418553D1*
X627756D2*
X2622146D1*
X2837854D2*
X3211072D1*
X3368947D2*
X4368592D1*
X4631408D2*
X4907010D1*
X93029Y2227667D2*
X383748D1*
X627756D2*
X2624314D1*
X2835686D2*
X3263045D1*
X3316975D2*
X4361443D1*
X4638557D2*
X4907010D1*
X93029Y2198000D2*
X363826D1*
X636193D2*
X1509158D1*
X1572521D2*
X2635682D1*
X2824318D2*
X4361443D1*
X4638557D2*
X4907010D1*
X93029Y2168333D2*
X352459D1*
X647561D2*
X1460760D1*
X1620920D2*
X2660818D1*
X2799182D2*
X4361443D1*
X4638557D2*
X4907010D1*
X93029Y2138667D2*
X347713D1*
X652307D2*
X1441424D1*
X1640256D2*
X4361443D1*
X4638557D2*
X4907010D1*
X93029Y2109000D2*
X348943D1*
X651076D2*
X1433455D1*
X1648225D2*
X4361443D1*
X4638557D2*
X4907010D1*
X93029Y2079333D2*
X356268D1*
X643693D2*
X1434217D1*
X1647463D2*
X4361443D1*
X4638557D2*
X4907010D1*
X93029Y2049667D2*
X370857D1*
X629162D2*
X1443943D1*
X1637736D2*
X3232049D1*
X3344631D2*
X4361443D1*
X4638557D2*
X4907010D1*
X93029Y2020000D2*
X395701D1*
X604318D2*
X1466209D1*
X1615471D2*
X3205096D1*
X3371584D2*
X4370584D1*
X4629416D2*
X4907010D1*
X93029Y1990333D2*
X413279D1*
X612111D2*
X3194373D1*
X3382307D2*
X4402576D1*
X4622854D2*
X4907010D1*
X93029Y1960667D2*
X386443D1*
X638947D2*
X1179627D1*
X1320393D2*
X1609646D1*
X1750354D2*
X3193904D1*
X3382775D2*
X4380135D1*
X4645295D2*
X4907010D1*
X93029Y1931000D2*
X370623D1*
X654768D2*
X1155076D1*
X1344885D2*
X1585096D1*
X1774904D2*
X3203631D1*
X3373049D2*
X3571600D1*
X3722150D2*
X4367068D1*
X4658303D2*
X4907010D1*
X93029Y1901333D2*
X362303D1*
X663088D2*
X1144061D1*
X1355900D2*
X1574080D1*
X1785920D2*
X3158982D1*
X3192990D2*
X3228475D1*
X3348205D2*
X3549686D1*
X3744064D2*
X4360916D1*
X4664455D2*
X4907010D1*
X93029Y1871667D2*
X360193D1*
X665197D2*
X1142244D1*
X1357775D2*
X1572205D1*
X1787795D2*
X3104197D1*
X3247834D2*
X3540135D1*
X3753615D2*
X4360857D1*
X4664572D2*
X4907010D1*
X93029Y1842000D2*
X364061D1*
X661330D2*
X1148982D1*
X1350979D2*
X1579002D1*
X1780998D2*
X2835076D1*
X2956916D2*
X3086326D1*
X3265705D2*
X3539549D1*
X3754201D2*
X4366775D1*
X4658654D2*
X4907010D1*
X93029Y1812333D2*
X374373D1*
X651018D2*
X1166561D1*
X1333400D2*
X1596580D1*
X1763420D2*
X2810877D1*
X2981115D2*
X3080643D1*
X3271389D2*
X3547693D1*
X3746057D2*
X4379549D1*
X4645822D2*
X4907010D1*
X93029Y1782667D2*
X392830D1*
X632561D2*
X1207342D1*
X1292678D2*
X1637361D1*
X1722639D2*
X2801443D1*
X2990549D2*
X3084744D1*
X3267287D2*
X3567322D1*
X3726428D2*
X4401580D1*
X4623791D2*
X4907010D1*
X93029Y1753000D2*
X412166D1*
X600744D2*
X2648045D1*
X2751955D2*
X2802205D1*
X3001799D2*
X3100271D1*
X3251701D2*
X3617303D1*
X3676447D2*
X4396424D1*
X4584064D2*
X4907010D1*
X93029Y1723333D2*
X374314D1*
X600275D2*
X2613123D1*
X2786877D2*
X2813279D1*
X3031447D2*
X3112693D1*
X3271447D2*
X4365896D1*
X4608732D2*
X4907010D1*
X93029Y1693667D2*
X353045D1*
X621545D2*
X1476580D1*
X1605100D2*
X2597420D1*
X2802580D2*
X2840936D1*
X3061096D2*
X3124412D1*
X3362619D2*
X4348084D1*
X4626545D2*
X4907010D1*
X93029Y1664000D2*
X340740D1*
X633850D2*
X1448748D1*
X1632932D2*
X2591971D1*
X2808029D2*
X2913240D1*
X3090744D2*
X3153240D1*
X3389162D2*
X4338240D1*
X4636389D2*
X4907010D1*
X93029Y1634333D2*
X335232D1*
X639357D2*
X1436033D1*
X1645646D2*
X2595076D1*
X2804924D2*
X2942889D1*
X3165334D2*
X3182889D1*
X3401232D2*
X4334783D1*
X4639846D2*
X4907010D1*
X93029Y1604667D2*
X335760D1*
X638830D2*
X1432811D1*
X1648869D2*
X2607674D1*
X2792326D2*
X2972537D1*
X3403986D2*
X4337244D1*
X4637326D2*
X4907010D1*
X93029Y1575000D2*
X342322D1*
X632268D2*
X1438143D1*
X1643537D2*
X2635213D1*
X2764787D2*
X3000721D1*
X3398127D2*
X4346033D1*
X4628537D2*
X4907010D1*
X93029Y1545333D2*
X355916D1*
X618732D2*
X1453670D1*
X2100627D2*
X3003943D1*
X3188068D2*
X3210135D1*
X3381838D2*
X4362439D1*
X4612189D2*
X4907010D1*
X93029Y1515667D2*
X379119D1*
X595471D2*
X1488123D1*
X1593557D2*
X1611422D1*
X2100627D2*
X3018240D1*
X3173713D2*
X3246639D1*
X3345334D2*
X4390330D1*
X4584299D2*
X4907010D1*
X93029Y1486000D2*
X417850D1*
X607600D2*
X1611404D1*
X2100627D2*
X3054510D1*
X3137502D2*
X4406268D1*
X4619162D2*
X4907010D1*
X93029Y1456333D2*
X389021D1*
X636369D2*
X1611404D1*
X2100627D2*
X4382303D1*
X4643068D2*
X4907010D1*
X93029Y1426667D2*
X372146D1*
X653244D2*
X1611404D1*
X2100627D2*
X4203533D1*
X4328479D2*
X4368299D1*
X4657131D2*
X4907010D1*
X93029Y1397000D2*
X363006D1*
X662385D2*
X1611404D1*
X2100627D2*
X4174705D1*
X4664045D2*
X4907010D1*
X93029Y1367333D2*
X360135D1*
X665256D2*
X1611404D1*
X2100627D2*
X4161521D1*
X4664865D2*
X4907010D1*
X93029Y1337667D2*
X363240D1*
X662150D2*
X1203885D1*
X1328068D2*
X1611404D1*
X2100627D2*
X2586170D1*
X2733791D2*
X4157947D1*
X4659709D2*
X4907010D1*
X93029Y1308000D2*
X372732D1*
X652658D2*
X1174881D1*
X1357131D2*
X1611404D1*
X2100627D2*
X2563494D1*
X2756525D2*
X4162869D1*
X4647873D2*
X4907010D1*
X93029Y1278333D2*
X390018D1*
X635373D2*
X1161580D1*
X1370432D2*
X1611404D1*
X2100627D2*
X2553533D1*
X2766486D2*
X4174236D1*
X4377756D2*
X4398182D1*
X4627189D2*
X4907010D1*
X93029Y1248667D2*
X419256D1*
X605842D2*
X1157947D1*
X1374064D2*
X1611404D1*
X2100627D2*
X2552537D1*
X2767482D2*
X4174236D1*
X4377756D2*
X4401697D1*
X4590803D2*
X4907010D1*
X93029Y1219000D2*
X377830D1*
X596818D2*
X1162811D1*
X1369201D2*
X1611404D1*
X2100627D2*
X2560213D1*
X2759748D2*
X4174236D1*
X4605803D2*
X4907010D1*
X93029Y1189333D2*
X355096D1*
X619494D2*
X1177693D1*
X1354260D2*
X1611404D1*
X2100627D2*
X2579197D1*
X2740822D2*
X4174236D1*
X4624846D2*
X4907010D1*
X93029Y1159667D2*
X341912D1*
X632678D2*
X1210564D1*
X1321447D2*
X1682186D1*
X1797814D2*
X2625721D1*
X2694299D2*
X4174236D1*
X4635510D2*
X4907010D1*
X93029Y1130000D2*
X335584D1*
X639006D2*
X1135389D1*
X1624611D2*
X1650721D1*
X1829279D2*
X4174236D1*
X4639729D2*
X4907010D1*
X93029Y1100333D2*
X335350D1*
X639240D2*
X1135389D1*
X1624611D2*
X1636410D1*
X1843635D2*
X4174236D1*
X4637971D2*
X4907010D1*
X93029Y1070667D2*
X341150D1*
X633439D2*
X1135389D1*
X1848088D2*
X2878436D1*
X2993537D2*
X3188455D1*
X3303557D2*
X4174236D1*
X4630002D2*
X4907010D1*
X93029Y1041000D2*
X353748D1*
X620842D2*
X1135389D1*
X1624611D2*
X1635966D1*
X1844045D2*
X2833729D1*
X3038244D2*
X3143748D1*
X3348264D2*
X4174236D1*
X4614709D2*
X4907010D1*
X93029Y1011333D2*
X375545D1*
X599045D2*
X1135389D1*
X1624611D2*
X1649783D1*
X1830217D2*
X2810701D1*
X3061330D2*
X3120662D1*
X3371291D2*
X4174236D1*
X4588635D2*
X4907010D1*
X93029Y981667D2*
X371971D1*
X628049D2*
X1135389D1*
X1624611D2*
X1680076D1*
X1799924D2*
X2459549D1*
X2597385D2*
X2797693D1*
X3074338D2*
X3107654D1*
X3384357D2*
X4178396D1*
X4602463D2*
X4907010D1*
X93029Y952000D2*
X361424D1*
X638596D2*
X1135389D1*
X1624611D2*
X2016170D1*
X2123830D2*
X2434236D1*
X2622697D2*
X2791893D1*
X3080080D2*
X3101945D1*
X3390100D2*
X4193104D1*
X4628068D2*
X4907010D1*
X93029Y922333D2*
X361424D1*
X638596D2*
X1135389D1*
X1624611D2*
X1982361D1*
X2157639D2*
X2422811D1*
X2634123D2*
X2792479D1*
X3079494D2*
X3102498D1*
X3389514D2*
X4220994D1*
X4643068D2*
X4907010D1*
X93029Y892667D2*
X361424D1*
X638596D2*
X1135389D1*
X1624611D2*
X1967127D1*
X2172873D2*
X2420584D1*
X2636291D2*
X2799568D1*
X3072463D2*
X3109529D1*
X3382482D2*
X4250701D1*
X4650803D2*
X4907010D1*
X93029Y863000D2*
X361424D1*
X638596D2*
X1135389D1*
X1624611D2*
X1961971D1*
X2178029D2*
X2427029D1*
X2629904D2*
X2814158D1*
X3057814D2*
X3124178D1*
X3367834D2*
X4280350D1*
X4652385D2*
X4907010D1*
X93029Y833333D2*
X361424D1*
X638596D2*
X1135389D1*
X1624611D2*
X1965311D1*
X2174689D2*
X2444021D1*
X2612854D2*
X2839881D1*
X3032150D2*
X3149900D1*
X3342111D2*
X4309998D1*
X4647990D2*
X4907010D1*
X93029Y803667D2*
X361424D1*
X638596D2*
X1135389D1*
X1624611D2*
X1978260D1*
X2161740D2*
X2333338D1*
X2467893D2*
X2483028D1*
X2573889D2*
X2859627D1*
X3012346D2*
X3182361D1*
X3309650D2*
X4339705D1*
X4637033D2*
X4907010D1*
X93029Y774000D2*
X361424D1*
X638596D2*
X1135389D1*
X1624611D2*
X2006561D1*
X2133439D2*
X2312830D1*
X2488400D2*
X2859627D1*
X3012346D2*
X3182361D1*
X3309650D2*
X4382303D1*
X4617697D2*
X4907010D1*
X93029Y744333D2*
X367518D1*
X632502D2*
X2305506D1*
X2495725D2*
X2859627D1*
X3012346D2*
X3182361D1*
X3309650D2*
X4415936D1*
X4584064D2*
X4907010D1*
X93029Y714667D2*
X2308025D1*
X2493205D2*
X2859627D1*
X3012346D2*
X3182361D1*
X3309650D2*
X4907010D1*
X93029Y685000D2*
X2321443D1*
X2479787D2*
X2859627D1*
X3012346D2*
X3182361D1*
X3309650D2*
X4907010D1*
X93029Y655333D2*
X2348689D1*
X2463322D2*
X2859627D1*
X3012346D2*
X3182361D1*
X3309650D2*
X4907010D1*
X93029Y625667D2*
X2348689D1*
X2463322D2*
X2859627D1*
X3012346D2*
X3182361D1*
X3309650D2*
X4907010D1*
X93029Y596000D2*
X2348689D1*
X2463322D2*
X2859627D1*
X3012346D2*
X3182361D1*
X3309650D2*
X4907010D1*
X93029Y566333D2*
X2348689D1*
X2463322D2*
X2859627D1*
X3012346D2*
X3182361D1*
X3309650D2*
X4907010D1*
X93029Y536667D2*
X239666D1*
X460354D2*
X2348689D1*
X2463322D2*
X2859627D1*
X3012346D2*
X3182361D1*
X3309650D2*
X4907010D1*
X93029Y507000D2*
X199646D1*
X500373D2*
X2348689D1*
X2463322D2*
X2859627D1*
X3012346D2*
X3182361D1*
X3309650D2*
X4907010D1*
X95314Y477333D2*
X173338D1*
X526623D2*
X2348689D1*
X2463322D2*
X2857693D1*
X3012346D2*
X3182361D1*
X3309650D2*
X4904314D1*
X97951Y447667D2*
X155115D1*
X544904D2*
X2348689D1*
X2463322D2*
X2824236D1*
X3012346D2*
X3182361D1*
X3309650D2*
X4901385D1*
X102463Y418000D2*
X142693D1*
X557326D2*
X2348689D1*
X2463322D2*
X2785916D1*
X3005549D2*
X3182361D1*
X3309650D2*
X4898045D1*
X110432Y388333D2*
X135135D1*
X564885D2*
X2348689D1*
X2463322D2*
X2742439D1*
X2982170D2*
X3182361D1*
X3309650D2*
X4889080D1*
X118635Y358667D2*
X131811D1*
X568166D2*
X2348689D1*
X2463322D2*
X2726268D1*
X2952521D2*
X3182361D1*
X3309650D2*
X4880057D1*
X567287Y329000D2*
X2348689D1*
X2463322D2*
X2721697D1*
X2922814D2*
X3182361D1*
X3309650D2*
X4867752D1*
X562307Y299333D2*
X2348689D1*
X2463322D2*
X2726912D1*
X2907287D2*
X3182361D1*
X3309650D2*
X4851932D1*
X552814Y269667D2*
X2342303D1*
X2469709D2*
X2744139D1*
X2890061D2*
X3182303D1*
X3309709D2*
X4835232D1*
X538107Y240000D2*
X2319686D1*
X2492268D2*
X2793182D1*
X2841018D2*
X3159686D1*
X3332268D2*
X4810916D1*
X516896Y210333D2*
X2311189D1*
X2500822D2*
X3151189D1*
X3340822D2*
X4786541D1*
X486018Y180667D2*
X2312654D1*
X2499357D2*
X3152654D1*
X3339357D2*
X4750389D1*
X435275Y151000D2*
X2324666D1*
X2487346D2*
X3164666D1*
X3327346D2*
X4708729D1*
X349436Y121333D2*
X2354549D1*
X2457463D2*
X3194549D1*
X3297463D2*
X4652830D1*
X487893Y91667D2*
X4509510D1*
X1639302Y1571600D2*
X2097600D1*
Y1188400D1*
X1614400D1*
X1614125Y1532932D1*
X1605064Y1525073D1*
X1595168Y1518298D1*
X1584563Y1512695D1*
X1573390Y1508336D1*
X1561793Y1505279D1*
X1549923Y1503563D1*
X1537934Y1503210D1*
X1525984Y1504226D1*
X1514227Y1506596D1*
X1502817Y1510290D1*
X1491902Y1515261D1*
X1481624Y1521442D1*
X1472117Y1528754D1*
X1463506Y1537102D1*
X1455901Y1546376D1*
X1449403Y1556457D1*
X1444095Y1567212D1*
X1440047Y1578502D1*
X1437312Y1590179D1*
X1435925Y1602092D1*
X1435904Y1614086D1*
X1437250Y1626003D1*
X1439945Y1637690D1*
X1443954Y1648994D1*
X1449224Y1659767D1*
X1455688Y1669870D1*
X1463260Y1679171D1*
X1471843Y1687548D1*
X1481324Y1694893D1*
X1491581Y1701110D1*
X1502479Y1706118D1*
X1513876Y1709851D1*
X1525625Y1712262D1*
X1537572Y1713319D1*
X1549561Y1713008D1*
X1561437Y1711333D1*
X1573045Y1708315D1*
X1584233Y1703995D1*
X1594857Y1698429D1*
X1604777Y1691688D1*
X1613864Y1683861D1*
X1622001Y1675049D1*
X1629080Y1665369D1*
X1635011Y1654944D1*
X1639715Y1643912D1*
X1643132Y1632415D1*
X1645217Y1620604D1*
X1645943Y1608270D1*
X1645259Y1596296D1*
X1643215Y1584478D1*
X1639326Y1571597D1*
X1141400Y1151600D2*
X1230785Y1151725D1*
X1219733Y1156382D1*
X1209283Y1162267D1*
X1199571Y1169305D1*
X1190725Y1177404D1*
X1182859Y1186457D1*
X1176075Y1196348D1*
X1170463Y1206947D1*
X1166095Y1218117D1*
X1163027Y1229712D1*
X1161301Y1241580D1*
X1160938Y1253568D1*
X1161943Y1265520D1*
X1164303Y1277279D1*
X1167988Y1288692D1*
X1172949Y1299611D1*
X1179121Y1309895D1*
X1186425Y1319407D1*
X1194765Y1328026D1*
X1204033Y1335639D1*
X1214108Y1342146D1*
X1224858Y1347463D1*
X1236145Y1351520D1*
X1247820Y1354266D1*
X1259732Y1355663D1*
X1271725Y1355694D1*
X1283644Y1354358D1*
X1295333Y1351674D1*
X1306640Y1347675D1*
X1317418Y1342413D1*
X1327526Y1335959D1*
X1336834Y1328394D1*
X1345218Y1319819D1*
X1352571Y1310344D1*
X1358797Y1300093D1*
X1363815Y1289199D1*
X1367558Y1277805D1*
X1369979Y1266058D1*
X1371046Y1254112D1*
X1370715Y1241761D1*
X1369009Y1229889D1*
X1365962Y1218290D1*
X1361613Y1207112D1*
X1356018Y1196503D1*
X1349252Y1186601D1*
X1341402Y1177534D1*
X1332569Y1169420D1*
X1322870Y1162365D1*
X1312430Y1156462D1*
X1300842Y1151600D1*
X1621600D1*
Y768400D1*
X1138400D1*
Y1151600D1*
X1141400D1*
X4364420Y2142079D2*
X4364580Y2237630D1*
X4366330Y2246440D1*
X4369930Y2254670D1*
X4375213Y2261935D1*
X4381932Y2267896D1*
X4389774Y2272277D1*
X4398373Y2274871D1*
X4406020Y2275580D1*
X4596977Y2275472D1*
X4605814Y2273861D1*
X4614099Y2270391D1*
X4621446Y2265224D1*
X4627513Y2258599D1*
X4632016Y2250827D1*
X4634746Y2242269D1*
X4635580Y2233921D1*
X4635420Y2042370D1*
X4633670Y2033560D1*
X4630070Y2025330D1*
X4624787Y2018065D1*
X4618068Y2012104D1*
X4610226Y2007723D1*
X4604542Y2005783D1*
X4609825Y1999719D1*
X4618448Y1991748D1*
X4626419Y1983125D1*
X4633688Y1973903D1*
X4640212Y1964140D1*
X4645950Y1953894D1*
X4650866Y1943230D1*
X4654931Y1932213D1*
X4658118Y1920912D1*
X4660409Y1909395D1*
X4661789Y1897734D1*
X4662250Y1886000D1*
X4661789Y1874266D1*
X4660409Y1862605D1*
X4658118Y1851088D1*
X4654931Y1839787D1*
X4650866Y1828770D1*
X4645950Y1818106D1*
X4640212Y1807860D1*
X4633688Y1798097D1*
X4626419Y1788875D1*
X4618448Y1780252D1*
X4609825Y1772281D1*
X4600603Y1765012D1*
X4590840Y1758488D1*
X4577470Y1751310D1*
X4593048Y1737748D1*
X4601019Y1729125D1*
X4608288Y1719903D1*
X4614812Y1710140D1*
X4620550Y1699894D1*
X4625466Y1689230D1*
X4629531Y1678213D1*
X4632718Y1666912D1*
X4635009Y1655395D1*
X4636389Y1643734D1*
X4636850Y1632000D1*
X4636389Y1620266D1*
X4635009Y1608605D1*
X4632718Y1597088D1*
X4629531Y1585787D1*
X4625466Y1574770D1*
X4620550Y1564106D1*
X4614812Y1553860D1*
X4608288Y1544097D1*
X4601019Y1534875D1*
X4593048Y1526252D1*
X4584425Y1518281D1*
X4577473Y1512801D1*
X4590840Y1505512D1*
X4600603Y1498988D1*
X4609825Y1491719D1*
X4618448Y1483748D1*
X4626419Y1475125D1*
X4633688Y1465903D1*
X4640212Y1456140D1*
X4645950Y1445894D1*
X4650866Y1435230D1*
X4654931Y1424213D1*
X4658118Y1412912D1*
X4660409Y1401395D1*
X4661789Y1389734D1*
X4662250Y1378000D1*
X4661789Y1366266D1*
X4660409Y1354605D1*
X4658118Y1343088D1*
X4654931Y1331787D1*
X4650866Y1320770D1*
X4645950Y1310106D1*
X4640212Y1299860D1*
X4633688Y1290097D1*
X4626419Y1280875D1*
X4618448Y1272252D1*
X4609825Y1264281D1*
X4600603Y1257012D1*
X4590840Y1250488D1*
X4577470Y1243310D1*
X4593048Y1229748D1*
X4601019Y1221125D1*
X4608288Y1211903D1*
X4614812Y1202140D1*
X4620550Y1191894D1*
X4625466Y1181230D1*
X4629531Y1170213D1*
X4632718Y1158912D1*
X4635009Y1147395D1*
X4636389Y1135734D1*
X4636850Y1124000D1*
X4636389Y1112266D1*
X4635009Y1100605D1*
X4632718Y1089088D1*
X4629531Y1077787D1*
X4625466Y1066770D1*
X4620550Y1056106D1*
X4614812Y1045860D1*
X4608288Y1036097D1*
X4601019Y1026875D1*
X4593048Y1018252D1*
X4584425Y1010281D1*
X4572190Y1000998D1*
X4587903Y990988D1*
X4597125Y983719D1*
X4605748Y975748D1*
X4613719Y967125D1*
X4620988Y957903D1*
X4627512Y948140D1*
X4633250Y937894D1*
X4638166Y927230D1*
X4642231Y916213D1*
X4645418Y904912D1*
X4647709Y893395D1*
X4649089Y881734D1*
X4649550Y870000D1*
X4649089Y858266D1*
X4647709Y846605D1*
X4645418Y835088D1*
X4642231Y823787D1*
X4638166Y812770D1*
X4633250Y802106D1*
X4627512Y791860D1*
X4620988Y782097D1*
X4613719Y772875D1*
X4605748Y764252D1*
X4597125Y756281D1*
X4587903Y749012D1*
X4578140Y742488D1*
X4567894Y736750D1*
X4557230Y731834D1*
X4546213Y727769D1*
X4534912Y724582D1*
X4523395Y722291D1*
X4511734Y720911D1*
X4500000Y720450D1*
X4488266Y720911D1*
X4476605Y722291D1*
X4465088Y724582D1*
X4453787Y727769D1*
X4442770Y731834D1*
X4432106Y736750D1*
X4421860Y742488D1*
X4412097Y749012D1*
X4402875Y756281D1*
X4394252Y764252D1*
X4383129Y776874D1*
X4371168Y782013D1*
X4357956Y790109D1*
X4346173Y800173D1*
X4200910Y945867D1*
X4191802Y958403D1*
X4184767Y972210D1*
X4179978Y986947D1*
X4177554Y1002252D1*
X4177250Y1040000D1*
Y1283691D1*
X4172355Y1292286D1*
X4166044Y1307522D1*
X4162194Y1323559D1*
X4160900Y1340000D1*
X4162194Y1356441D1*
X4166044Y1372478D1*
X4172355Y1387714D1*
X4180972Y1401776D1*
X4191683Y1414317D1*
X4204224Y1425028D1*
X4218286Y1433645D1*
X4233522Y1439956D1*
X4249559Y1443806D1*
X4266000Y1445100D1*
X4282441Y1443806D1*
X4298478Y1439956D1*
X4313714Y1433645D1*
X4327776Y1425028D1*
X4340317Y1414317D1*
X4351028Y1401776D1*
X4359645Y1387714D1*
X4363156Y1380069D1*
X4363611Y1389734D1*
X4364991Y1401395D1*
X4367282Y1412912D1*
X4370469Y1424213D1*
X4374534Y1435230D1*
X4379450Y1445894D1*
X4385188Y1456140D1*
X4391712Y1465903D1*
X4398981Y1475125D1*
X4406952Y1483748D1*
X4415575Y1491719D1*
X4422527Y1497199D1*
X4409160Y1504488D1*
X4399397Y1511012D1*
X4390175Y1518281D1*
X4381552Y1526252D1*
X4373581Y1534875D1*
X4366312Y1544097D1*
X4359788Y1553860D1*
X4354050Y1564106D1*
X4349134Y1574770D1*
X4345069Y1585787D1*
X4341882Y1597088D1*
X4339591Y1608605D1*
X4338211Y1620266D1*
X4337750Y1632000D1*
X4338211Y1643734D1*
X4339591Y1655395D1*
X4341882Y1666912D1*
X4345069Y1678213D1*
X4349134Y1689230D1*
X4354050Y1699894D1*
X4359788Y1710140D1*
X4366312Y1719903D1*
X4373581Y1729125D1*
X4381552Y1737748D1*
X4390175Y1745719D1*
X4399397Y1752988D1*
X4409160Y1759512D1*
X4422530Y1766690D1*
X4406952Y1780252D1*
X4398981Y1788875D1*
X4391712Y1798097D1*
X4385188Y1807860D1*
X4379450Y1818106D1*
X4374534Y1828770D1*
X4370469Y1839787D1*
X4367282Y1851088D1*
X4364991Y1862605D1*
X4363611Y1874266D1*
X4363150Y1886000D1*
X4363611Y1897734D1*
X4364991Y1909395D1*
X4367282Y1920912D1*
X4370469Y1932213D1*
X4374534Y1943230D1*
X4379450Y1953894D1*
X4385188Y1964140D1*
X4391712Y1973903D1*
X4398981Y1983125D1*
X4406952Y1991748D1*
X4421519Y2004404D1*
X4402370Y2004580D1*
X4393560Y2006330D1*
X4385330Y2009930D1*
X4378065Y2015213D1*
X4372104Y2021932D1*
X4367723Y2029774D1*
X4365129Y2038373D1*
X4364420Y2046020D1*
Y2141891D1*
X4422527Y1258801D2*
X4415575Y1264281D1*
X4406952Y1272252D1*
X4398981Y1280875D1*
X4391712Y1290097D1*
X4385188Y1299860D1*
X4379450Y1310106D1*
X4374745Y1320311D1*
X4374750Y1222480D1*
X4381552Y1229748D1*
X4390175Y1237719D1*
X4399397Y1244988D1*
X4409160Y1251512D1*
X4422530Y1258690D1*
X635580Y953921D2*
X635420Y762370D1*
X633670Y753560D1*
X630071Y745330D1*
X624788Y738065D1*
X618069Y732104D1*
X610227Y727724D1*
X601628Y725129D1*
X593980Y724420D1*
X402370Y724580D1*
X393560Y726330D1*
X385330Y729929D1*
X378065Y735212D1*
X372104Y741931D1*
X367724Y749773D1*
X365129Y758372D1*
X364420Y766020D1*
X364580Y957630D1*
X366329Y966440D1*
X369929Y974670D1*
X375212Y981935D1*
X381931Y987896D1*
X389773Y992276D1*
X395457Y994217D1*
X390175Y1000281D1*
X381552Y1008252D1*
X373581Y1016875D1*
X366312Y1026097D1*
X359788Y1035860D1*
X354050Y1046106D1*
X349134Y1056770D1*
X345069Y1067787D1*
X341882Y1079088D1*
X339591Y1090605D1*
X338211Y1102266D1*
X337750Y1114000D1*
X338211Y1125734D1*
X339591Y1137395D1*
X341882Y1148912D1*
X345069Y1160213D1*
X349134Y1171230D1*
X354050Y1181894D1*
X359788Y1192140D1*
X366312Y1201903D1*
X373581Y1211125D1*
X381552Y1219748D1*
X390175Y1227719D1*
X399397Y1234988D1*
X409160Y1241512D1*
X422530Y1248690D1*
X406952Y1262252D1*
X398981Y1270875D1*
X391712Y1280097D1*
X385188Y1289860D1*
X379450Y1300106D1*
X374534Y1310770D1*
X370469Y1321787D1*
X367282Y1333088D1*
X364991Y1344605D1*
X363611Y1356266D1*
X363150Y1368000D1*
X363611Y1379734D1*
X364991Y1391395D1*
X367282Y1402912D1*
X370469Y1414213D1*
X374534Y1425230D1*
X379450Y1435894D1*
X385188Y1446140D1*
X391712Y1455903D1*
X398981Y1465125D1*
X406952Y1473748D1*
X415575Y1481719D1*
X422527Y1487199D1*
X409160Y1494488D1*
X399397Y1501012D1*
X390175Y1508281D1*
X381552Y1516252D1*
X373581Y1524875D1*
X366312Y1534097D1*
X359788Y1543860D1*
X354050Y1554106D1*
X349134Y1564770D1*
X345069Y1575787D1*
X341882Y1587088D1*
X339591Y1598605D1*
X338211Y1610266D1*
X337750Y1622000D1*
X338211Y1633734D1*
X339591Y1645395D1*
X341882Y1656912D1*
X345069Y1668213D1*
X349134Y1679230D1*
X354050Y1689894D1*
X359788Y1700140D1*
X366312Y1709903D1*
X373581Y1719125D1*
X381552Y1727748D1*
X390175Y1735719D1*
X399397Y1742988D1*
X409160Y1749512D1*
X422530Y1756690D1*
X406952Y1770252D1*
X398981Y1778875D1*
X391712Y1788097D1*
X385188Y1797860D1*
X379450Y1808106D1*
X374534Y1818770D1*
X370469Y1829787D1*
X367282Y1841088D1*
X364991Y1852605D1*
X363611Y1864266D1*
X363150Y1876000D1*
X363611Y1887734D1*
X364991Y1899395D1*
X367282Y1910912D1*
X370469Y1922213D1*
X374534Y1933230D1*
X379450Y1943894D1*
X385188Y1954140D1*
X391712Y1963903D1*
X398981Y1973125D1*
X406952Y1981748D1*
X415575Y1989719D1*
X427810Y1999002D1*
X412097Y2009012D1*
X402875Y2016281D1*
X394252Y2024252D1*
X386281Y2032875D1*
X379012Y2042097D1*
X372488Y2051860D1*
X366750Y2062106D1*
X361834Y2072770D1*
X357769Y2083787D1*
X354582Y2095088D1*
X352291Y2106605D1*
X350911Y2118266D1*
X350450Y2130000D1*
X350911Y2141734D1*
X352291Y2153395D1*
X354582Y2164912D1*
X357769Y2176213D1*
X361834Y2187230D1*
X366750Y2197894D1*
X372488Y2208140D1*
X379012Y2217903D1*
X386281Y2227125D1*
X394252Y2235748D1*
X402875Y2243719D1*
X412097Y2250988D1*
X427263Y2260538D1*
X427554Y2387748D1*
X429978Y2403053D1*
X434767Y2417790D1*
X441802Y2431597D1*
X450910Y2444133D1*
X477386Y2471040D1*
X679202Y2672856D1*
X667770Y2677815D1*
X657482Y2683976D1*
X648079Y2691418D1*
X639719Y2700014D1*
X632542Y2709621D1*
X626670Y2720077D1*
X622201Y2731205D1*
X619212Y2742817D1*
X617751Y2754720D1*
X617844Y2766711D1*
X619489Y2778589D1*
X622659Y2790154D1*
X627299Y2801211D1*
X633333Y2811575D1*
X640658Y2821069D1*
X649151Y2829535D1*
X658668Y2836830D1*
X669050Y2842830D1*
X680122Y2847436D1*
X691697Y2850569D1*
X703580Y2852177D1*
X715572Y2852232D1*
X727469Y2850734D1*
X739073Y2847707D1*
X750187Y2843203D1*
X760623Y2837298D1*
X770208Y2830091D1*
X778778Y2821704D1*
X786190Y2812277D1*
X792318Y2801970D1*
X797060Y2790956D1*
X797708Y2789035D1*
X808815Y2795634D1*
X823131Y2801564D1*
X838199Y2805181D1*
X853677Y2806396D1*
X1443979Y2806397D1*
X1440153Y2818430D1*
X1437885Y2832750D1*
Y2847250D1*
X1440153Y2861570D1*
X1444634Y2875360D1*
X1451216Y2888279D1*
X1459738Y2900009D1*
X1469720Y2910011D1*
X503928Y2910000D1*
X428865Y2903431D1*
X359840Y2884937D1*
X295125Y2854751D1*
X236636Y2813786D1*
X186148Y2763285D1*
X145197Y2704786D1*
X115028Y2640063D1*
X96555Y2571086D1*
X90004Y2496076D1*
X90000Y503956D1*
X96569Y428865D1*
X115063Y359840D1*
X138491Y309623D1*
X135298Y333526D1*
X134672Y348510D1*
X135090Y363502D1*
X136551Y378427D1*
X139048Y393215D1*
X142567Y407793D1*
X147093Y422091D1*
X152603Y436039D1*
X159070Y449570D1*
X166463Y462618D1*
X174747Y475119D1*
X183881Y487014D1*
X193820Y498244D1*
X204517Y508755D1*
X215920Y518496D1*
X227973Y527420D1*
X240618Y535483D1*
X253793Y542647D1*
X267435Y548876D1*
X281478Y554140D1*
X295853Y558414D1*
X310491Y561678D1*
X325320Y563914D1*
X340269Y565113D1*
X355265Y565269D1*
X370236Y564380D1*
X385108Y562452D1*
X399810Y559493D1*
X414271Y555518D1*
X428420Y550546D1*
X442188Y544602D1*
X455509Y537713D1*
X468319Y529914D1*
X480555Y521242D1*
X492157Y511740D1*
X503070Y501453D1*
X513240Y490432D1*
X522619Y478729D1*
X531160Y466402D1*
X538823Y453510D1*
X545569Y440117D1*
X551368Y426286D1*
X556189Y412085D1*
X560010Y397583D1*
X562813Y382850D1*
X564583Y367958D1*
X565333Y350000D1*
X564811Y335012D1*
X563247Y320097D1*
X560648Y305327D1*
X557028Y290773D1*
X552404Y276507D1*
X546797Y262598D1*
X540237Y249112D1*
X532753Y236115D1*
X524383Y223671D1*
X515167Y211840D1*
X505151Y200679D1*
X494381Y190242D1*
X482911Y180580D1*
X470797Y171740D1*
X458096Y163765D1*
X444872Y156692D1*
X431187Y150558D1*
X417108Y145391D1*
X402704Y141216D1*
X388044Y138054D1*
X373200Y135920D1*
X358243Y134824D1*
X343246Y134773D1*
X328282Y135765D1*
X309237Y138669D1*
X359940Y115024D1*
X428915Y96552D1*
X503922Y90001D1*
X4495568Y90000D1*
X4579933Y98309D1*
X4656760Y121620D1*
X4727568Y159473D1*
X4789627Y210413D1*
X4840559Y272480D1*
X4878401Y343290D1*
X4901705Y420124D1*
X4910007Y504457D1*
X4910000Y2495576D1*
X4901690Y2579933D1*
X4878379Y2656759D1*
X4862097Y2687209D1*
X4864583Y2667958D1*
X4865333Y2650000D1*
X4864811Y2635012D1*
X4863247Y2620097D1*
X4860648Y2605327D1*
X4857028Y2590773D1*
X4852404Y2576507D1*
X4846797Y2562598D1*
X4840237Y2549112D1*
X4832753Y2536115D1*
X4824383Y2523671D1*
X4815167Y2511840D1*
X4805151Y2500679D1*
X4794381Y2490242D1*
X4782911Y2480580D1*
X4770797Y2471740D1*
X4758096Y2463765D1*
X4744872Y2456692D1*
X4731187Y2450558D1*
X4717108Y2445391D1*
X4702704Y2441216D1*
X4688044Y2438054D1*
X4673200Y2435920D1*
X4658243Y2434824D1*
X4643246Y2434773D1*
X4628282Y2435765D1*
X4613423Y2437796D1*
X4598742Y2440856D1*
X4584309Y2444931D1*
X4570195Y2450001D1*
X4556468Y2456041D1*
X4543195Y2463021D1*
X4530439Y2470909D1*
X4518264Y2479665D1*
X4506728Y2489247D1*
X4495886Y2499609D1*
X4485792Y2510701D1*
X4476495Y2522468D1*
X4468039Y2534854D1*
X4460466Y2547798D1*
X4453812Y2561238D1*
X4448110Y2575109D1*
X4443387Y2589343D1*
X4439666Y2603871D1*
X4436965Y2618622D1*
X4435298Y2633526D1*
X4434672Y2648510D1*
X4435090Y2663502D1*
X4436551Y2678427D1*
X4439048Y2693215D1*
X4442567Y2707793D1*
X4447093Y2722091D1*
X4452603Y2736039D1*
X4459070Y2749570D1*
X4466463Y2762618D1*
X4474747Y2775119D1*
X4483881Y2787014D1*
X4493820Y2798244D1*
X4504517Y2808755D1*
X4515920Y2818496D1*
X4527973Y2827420D1*
X4540618Y2835483D1*
X4553793Y2842647D1*
X4567435Y2848876D1*
X4581478Y2854140D1*
X4595853Y2858414D1*
X4610491Y2861678D1*
X4625320Y2863914D1*
X4640269Y2865113D1*
X4655265Y2865269D1*
X4670236Y2864380D1*
X4687463Y2861978D1*
X4656710Y2878398D1*
X4579879Y2901699D1*
X4495546Y2910000D1*
X1590363Y2909999D1*
X1600262Y2900009D1*
X1608784Y2888279D1*
X1615366Y2875360D1*
X1619847Y2861570D1*
X1622115Y2847250D1*
Y2832750D1*
X1619847Y2818430D1*
X1616024Y2806422D1*
X4086017Y2806397D1*
X4101465Y2805181D1*
X4116532Y2801564D1*
X4130848Y2795634D1*
X4144061Y2787537D1*
X4155864Y2777451D1*
X4310427Y2622891D1*
X4320915Y2617276D1*
X4334257Y2607582D1*
X4345919Y2595920D1*
X4355612Y2582578D1*
X4363100Y2567883D1*
X4368196Y2552198D1*
X4370776Y2535909D1*
Y2519417D1*
X4368196Y2503128D1*
X4363100Y2487443D1*
X4355612Y2472749D1*
X4345919Y2459406D1*
X4334257Y2447745D1*
X4320915Y2438051D1*
X4306220Y2430564D1*
X4290535Y2425467D1*
X4274246Y2422887D1*
X4257754D1*
X4241465Y2425467D1*
X4225780Y2430564D1*
X4211085Y2438051D1*
X4197743Y2447745D1*
X4186081Y2459406D1*
X4176388Y2472749D1*
X4170884Y2483140D1*
X4045153Y2608856D1*
X1535570Y2608896D1*
X1546104Y2604448D1*
X1556564Y2598580D1*
X1566288Y2591559D1*
X1575148Y2583476D1*
X1583030Y2574436D1*
X1589831Y2564557D1*
X1595461Y2553967D1*
X1599849Y2542805D1*
X1602936Y2531216D1*
X1604683Y2519350D1*
X1605057Y2507000D1*
X1604031Y2495051D1*
X1601651Y2483296D1*
X1597947Y2471889D1*
X1592967Y2460978D1*
X1586777Y2450706D1*
X1579456Y2441205D1*
X1571101Y2432601D1*
X1561820Y2425004D1*
X1551734Y2418515D1*
X1540975Y2413216D1*
X1529681Y2409178D1*
X1518001Y2406453D1*
X1506087Y2405076D1*
X1494094Y2405066D1*
X1482177Y2406422D1*
X1470493Y2409127D1*
X1459193Y2413146D1*
X1448424Y2418425D1*
X1438327Y2424898D1*
X1429032Y2432478D1*
X1420663Y2441068D1*
X1413326Y2450556D1*
X1407118Y2460818D1*
X1402119Y2471720D1*
X1398395Y2483121D1*
X1395995Y2494871D1*
X1394948Y2506819D1*
X1395270Y2518808D1*
X1396955Y2530683D1*
X1399982Y2542288D1*
X1404312Y2553473D1*
X1409888Y2564091D1*
X1416637Y2574005D1*
X1424472Y2583086D1*
X1433291Y2591215D1*
X1442978Y2598286D1*
X1453407Y2604208D1*
X1464433Y2608899D1*
X894551Y2608896D1*
X624790Y2339136D1*
X624750Y2212480D1*
X633250Y2197894D1*
X638166Y2187230D1*
X642231Y2176213D1*
X645418Y2164912D1*
X647709Y2153395D1*
X649089Y2141734D1*
X649550Y2130000D1*
X649089Y2118266D1*
X647709Y2106605D1*
X645418Y2095088D1*
X642231Y2083787D1*
X638166Y2072770D1*
X633250Y2062106D1*
X627512Y2051860D1*
X620988Y2042097D1*
X613719Y2032875D1*
X605748Y2024252D1*
X597125Y2016281D1*
X584890Y2006998D1*
X600603Y1996988D1*
X609825Y1989719D1*
X618448Y1981748D1*
X626419Y1973125D1*
X633688Y1963903D1*
X640212Y1954140D1*
X645950Y1943894D1*
X650866Y1933230D1*
X654931Y1922213D1*
X658118Y1910912D1*
X660409Y1899395D1*
X661789Y1887734D1*
X662250Y1876000D1*
X661789Y1864266D1*
X660409Y1852605D1*
X658118Y1841088D1*
X654931Y1829787D1*
X650866Y1818770D1*
X645950Y1808106D1*
X640212Y1797860D1*
X633688Y1788097D1*
X626419Y1778875D1*
X618448Y1770252D1*
X609825Y1762281D1*
X600603Y1755012D1*
X590840Y1748488D1*
X577470Y1741310D1*
X593048Y1727748D1*
X601019Y1719125D1*
X608288Y1709903D1*
X614812Y1700140D1*
X620550Y1689894D1*
X625466Y1679230D1*
X629531Y1668213D1*
X632718Y1656912D1*
X635009Y1645395D1*
X636389Y1633734D1*
X636850Y1622000D1*
X636389Y1610266D1*
X635009Y1598605D1*
X632718Y1587088D1*
X629531Y1575787D1*
X625466Y1564770D1*
X620550Y1554106D1*
X614812Y1543860D1*
X608288Y1534097D1*
X601019Y1524875D1*
X593048Y1516252D1*
X584425Y1508281D1*
X577473Y1502801D1*
X590840Y1495512D1*
X600603Y1488988D1*
X609825Y1481719D1*
X618448Y1473748D1*
X626419Y1465125D1*
X633688Y1455903D1*
X640212Y1446140D1*
X645950Y1435894D1*
X650866Y1425230D1*
X654931Y1414213D1*
X658118Y1402912D1*
X660409Y1391395D1*
X661789Y1379734D1*
X662250Y1368000D1*
X661789Y1356266D1*
X660409Y1344605D1*
X658118Y1333088D1*
X654931Y1321787D1*
X650866Y1310770D1*
X645950Y1300106D1*
X640212Y1289860D1*
X633688Y1280097D1*
X626419Y1270875D1*
X618448Y1262252D1*
X609825Y1254281D1*
X600603Y1247012D1*
X590840Y1240488D1*
X577470Y1233310D1*
X593048Y1219748D1*
X601019Y1211125D1*
X608288Y1201903D1*
X614812Y1192140D1*
X620550Y1181894D1*
X625466Y1171230D1*
X629531Y1160213D1*
X632718Y1148912D1*
X635009Y1137395D1*
X636389Y1125734D1*
X636850Y1114000D1*
X636389Y1102266D1*
X635009Y1090605D1*
X632718Y1079088D1*
X629531Y1067787D1*
X625466Y1056770D1*
X620550Y1046106D1*
X614812Y1035860D1*
X608288Y1026097D1*
X601019Y1016875D1*
X593048Y1008252D1*
X578481Y995596D1*
X596977Y995472D1*
X605814Y993862D1*
X614099Y990392D1*
X621447Y985224D1*
X627513Y978600D1*
X632016Y970827D1*
X634746Y962270D1*
X635514Y956313D1*
X3077163Y928890D2*
X3075857Y917849D1*
X3073688Y906944D1*
X3070670Y896243D1*
X3066821Y885812D1*
X3062167Y875715D1*
X3056734Y866014D1*
X3050557Y856770D1*
X3043673Y848038D1*
X3036126Y839874D1*
X3027962Y832327D1*
X3019230Y825443D1*
X3009342Y818905D1*
X3009124Y443148D1*
X3007324Y431780D1*
X3003767Y420833D1*
X2998541Y410578D1*
X2991776Y401266D1*
X2956047Y365217D1*
X2908690Y317860D1*
X2906944Y308430D1*
X2902463Y294640D1*
X2895881Y281721D1*
X2887358Y269991D1*
X2877106Y259738D1*
X2865376Y251216D1*
X2852457Y244634D1*
X2838667Y240153D1*
X2824346Y237885D1*
X2809847D1*
X2795526Y240153D1*
X2781737Y244634D1*
X2768818Y251216D1*
X2757088Y259738D1*
X2746835Y269991D1*
X2738313Y281721D1*
X2731730Y294640D1*
X2727250Y308430D1*
X2724982Y322750D1*
Y337250D1*
X2727250Y351570D1*
X2731730Y365360D1*
X2738313Y378279D1*
X2746835Y390009D1*
X2757088Y400262D1*
X2768818Y408784D1*
X2781737Y415366D1*
X2792771Y419070D1*
X2799013Y428350D1*
X2805591Y435228D1*
X2813164Y440993D1*
X2821545Y445502D1*
X2830529Y448644D1*
X2832436Y449068D1*
X2862637Y479273D1*
X2862650Y818923D1*
X2852770Y825443D1*
X2844038Y832327D1*
X2835874Y839874D1*
X2828327Y848038D1*
X2821443Y856770D1*
X2815266Y866014D1*
X2809833Y875715D1*
X2805179Y885812D1*
X2801330Y896243D1*
X2798312Y906944D1*
X2796143Y917849D1*
X2794837Y928890D1*
X2794400Y940000D1*
X2794837Y951110D1*
X2796143Y962151D1*
X2798312Y973056D1*
X2801330Y983757D1*
X2805179Y994188D1*
X2809833Y1004285D1*
X2815266Y1013986D1*
X2821443Y1023230D1*
X2828327Y1031962D1*
X2835874Y1040126D1*
X2844038Y1047673D1*
X2852770Y1054557D1*
X2862014Y1060734D1*
X2871715Y1066167D1*
X2881812Y1070821D1*
X2892243Y1074670D1*
X2902944Y1077688D1*
X2913849Y1079857D1*
X2924890Y1081163D1*
X2936000Y1081600D1*
X2947110Y1081163D1*
X2958151Y1079857D1*
X2969056Y1077688D1*
X2979757Y1074670D1*
X2990188Y1070821D1*
X3000285Y1066167D1*
X3009986Y1060734D1*
X3019230Y1054557D1*
X3027962Y1047673D1*
X3036126Y1040126D1*
X3043673Y1031962D1*
X3050557Y1023230D1*
X3056734Y1013986D1*
X3062167Y1004285D1*
X3066821Y994188D1*
X3070670Y983757D1*
X3073688Y973056D1*
X3075857Y962151D1*
X3077163Y951110D1*
X3077600Y940000D1*
X3077163Y928890D1*
X3387163D2*
X3385857Y917849D1*
X3383688Y906944D1*
X3380670Y896243D1*
X3376821Y885812D1*
X3372167Y875715D1*
X3366734Y866014D1*
X3360557Y856770D1*
X3353673Y848038D1*
X3346126Y839874D1*
X3337962Y832327D1*
X3329230Y825443D1*
X3319986Y819266D1*
X3306617Y812142D1*
X3306650Y269727D1*
X3316262Y260009D1*
X3324784Y248279D1*
X3331366Y235360D1*
X3335847Y221570D1*
X3338115Y207250D1*
Y192750D1*
X3335847Y178430D1*
X3331366Y164640D1*
X3324784Y151721D1*
X3316262Y139991D1*
X3306009Y129738D1*
X3294279Y121216D1*
X3281360Y114634D1*
X3267570Y110153D1*
X3253250Y107885D1*
X3238750D1*
X3224430Y110153D1*
X3210640Y114634D1*
X3197721Y121216D1*
X3185991Y129738D1*
X3175738Y139991D1*
X3167216Y151721D1*
X3160634Y164640D1*
X3156153Y178430D1*
X3153885Y192750D1*
Y207250D1*
X3156153Y221570D1*
X3160634Y235360D1*
X3167216Y248279D1*
X3175738Y260009D1*
X3185346Y269665D1*
X3185350Y812012D1*
X3172014Y819266D1*
X3162770Y825443D1*
X3154038Y832327D1*
X3145874Y839874D1*
X3138327Y848038D1*
X3131443Y856770D1*
X3125266Y866014D1*
X3119833Y875715D1*
X3115179Y885812D1*
X3111330Y896243D1*
X3108312Y906944D1*
X3106143Y917849D1*
X3104837Y928890D1*
X3104400Y940000D1*
X3104837Y951110D1*
X3106143Y962151D1*
X3108312Y973056D1*
X3111330Y983757D1*
X3115179Y994188D1*
X3119833Y1004285D1*
X3125266Y1013986D1*
X3131443Y1023230D1*
X3138327Y1031962D1*
X3145874Y1040126D1*
X3154038Y1047673D1*
X3162770Y1054557D1*
X3172014Y1060734D1*
X3181715Y1066167D1*
X3191812Y1070821D1*
X3202243Y1074670D1*
X3212944Y1077688D1*
X3223849Y1079857D1*
X3234890Y1081163D1*
X3246000Y1081600D1*
X3257110Y1081163D1*
X3268151Y1079857D1*
X3279056Y1077688D1*
X3289757Y1074670D1*
X3300188Y1070821D1*
X3310285Y1066167D1*
X3319986Y1060734D1*
X3329230Y1054557D1*
X3337962Y1047673D1*
X3346126Y1040126D1*
X3353673Y1031962D1*
X3360557Y1023230D1*
X3366734Y1013986D1*
X3372167Y1004285D1*
X3376821Y994188D1*
X3380670Y983757D1*
X3383688Y973056D1*
X3385857Y962151D1*
X3387163Y951110D1*
X3387600Y940000D1*
X3387163Y928890D1*
X2805057Y1657000D2*
X2804031Y1645051D1*
X2801651Y1633296D1*
X2797947Y1621889D1*
X2792967Y1610978D1*
X2786777Y1600706D1*
X2779456Y1591205D1*
X2771101Y1582601D1*
X2761820Y1575004D1*
X2751734Y1568515D1*
X2740975Y1563216D1*
X2729681Y1559178D1*
X2718001Y1556453D1*
X2706087Y1555076D1*
X2694094Y1555066D1*
X2682177Y1556422D1*
X2670493Y1559127D1*
X2659193Y1563146D1*
X2648424Y1568425D1*
X2638327Y1574898D1*
X2629032Y1582478D1*
X2620663Y1591068D1*
X2613326Y1600556D1*
X2607118Y1610818D1*
X2602119Y1621720D1*
X2598395Y1633121D1*
X2595995Y1644871D1*
X2594948Y1656819D1*
X2595270Y1668808D1*
X2596955Y1680683D1*
X2599982Y1692288D1*
X2604312Y1703473D1*
X2609888Y1714091D1*
X2616637Y1724005D1*
X2624472Y1733086D1*
X2633291Y1741215D1*
X2642978Y1748286D1*
X2653407Y1754208D1*
X2664444Y1758903D1*
X2675943Y1762310D1*
X2687756Y1764384D1*
X2699728Y1765100D1*
X2711704Y1764446D1*
X2723527Y1762433D1*
X2735044Y1759086D1*
X2746104Y1754448D1*
X2756564Y1748580D1*
X2766288Y1741559D1*
X2775148Y1733476D1*
X2783030Y1724436D1*
X2789831Y1714557D1*
X2795461Y1703967D1*
X2799849Y1692805D1*
X2802936Y1681216D1*
X2804683Y1669350D1*
X2805057Y1657000D1*
X3751937Y1851687D2*
X3750911Y1839738D1*
X3748531Y1827983D1*
X3744827Y1816576D1*
X3739847Y1805665D1*
X3733657Y1795392D1*
X3726336Y1785892D1*
X3717981Y1777288D1*
X3708700Y1769691D1*
X3698614Y1763201D1*
X3687855Y1757903D1*
X3676561Y1753865D1*
X3664881Y1751140D1*
X3652967Y1749763D1*
X3640974Y1749753D1*
X3629057Y1751109D1*
X3617373Y1753814D1*
X3606073Y1757832D1*
X3595304Y1763112D1*
X3585207Y1769584D1*
X3575912Y1777165D1*
X3567543Y1785755D1*
X3560206Y1795243D1*
X3553998Y1805504D1*
X3548999Y1816407D1*
X3545275Y1827807D1*
X3542875Y1839558D1*
X3541828Y1851506D1*
X3542150Y1863495D1*
X3543835Y1875369D1*
X3546862Y1886975D1*
X3551192Y1898159D1*
X3556768Y1908778D1*
X3563517Y1918692D1*
X3571352Y1927773D1*
X3580171Y1935902D1*
X3589858Y1942973D1*
X3600287Y1948895D1*
X3611324Y1953589D1*
X3622823Y1956996D1*
X3634636Y1959071D1*
X3646608Y1959786D1*
X3658584Y1959133D1*
X3670407Y1957120D1*
X3681924Y1953772D1*
X3692984Y1949135D1*
X3703444Y1943267D1*
X3713168Y1936246D1*
X3722028Y1928163D1*
X3729910Y1919123D1*
X3736711Y1909244D1*
X3742341Y1898654D1*
X3746729Y1887492D1*
X3749816Y1875903D1*
X3751563Y1864037D1*
X3751937Y1851687D1*
X3395057Y2327000D2*
X3394031Y2315051D1*
X3391651Y2303296D1*
X3387947Y2291889D1*
X3382967Y2280978D1*
X3376777Y2270706D1*
X3369456Y2261205D1*
X3361101Y2252601D1*
X3351820Y2245004D1*
X3341734Y2238515D1*
X3330975Y2233216D1*
X3319681Y2229178D1*
X3308001Y2226453D1*
X3296087Y2225076D1*
X3284094Y2225066D1*
X3272177Y2226422D1*
X3260493Y2229127D1*
X3249193Y2233146D1*
X3238424Y2238425D1*
X3228327Y2244898D1*
X3219032Y2252478D1*
X3210663Y2261068D1*
X3203326Y2270556D1*
X3197118Y2280818D1*
X3192119Y2291720D1*
X3188395Y2303121D1*
X3185995Y2314871D1*
X3184948Y2326819D1*
X3185270Y2338808D1*
X3186955Y2350683D1*
X3189982Y2362288D1*
X3194312Y2373473D1*
X3199888Y2384091D1*
X3206637Y2394005D1*
X3214472Y2403086D1*
X3223291Y2411215D1*
X3232978Y2418286D1*
X3243407Y2424208D1*
X3254444Y2428903D1*
X3265943Y2432310D1*
X3277756Y2434384D1*
X3289728Y2435100D1*
X3301704Y2434446D1*
X3313527Y2432433D1*
X3325044Y2429086D1*
X3336104Y2424448D1*
X3346564Y2418580D1*
X3356288Y2411559D1*
X3365148Y2403476D1*
X3373030Y2394436D1*
X3379831Y2384557D1*
X3385461Y2373967D1*
X3389849Y2362805D1*
X3392936Y2351216D1*
X3394683Y2339350D1*
X3395057Y2327000D1*
X2175057Y857000D2*
X2174031Y845051D1*
X2171651Y833296D1*
X2167947Y821889D1*
X2162967Y810978D1*
X2156777Y800706D1*
X2149456Y791205D1*
X2141101Y782601D1*
X2131820Y775004D1*
X2121734Y768515D1*
X2110975Y763216D1*
X2099681Y759178D1*
X2088001Y756453D1*
X2076087Y755076D1*
X2064094Y755066D1*
X2052177Y756422D1*
X2040493Y759127D1*
X2029193Y763146D1*
X2018424Y768425D1*
X2008327Y774898D1*
X1999032Y782478D1*
X1990663Y791068D1*
X1983326Y800556D1*
X1977118Y810818D1*
X1972119Y821720D1*
X1968395Y833121D1*
X1965995Y844871D1*
X1964948Y856819D1*
X1965270Y868808D1*
X1966955Y880683D1*
X1969982Y892288D1*
X1974312Y903473D1*
X1979888Y914091D1*
X1986637Y924005D1*
X1994472Y933086D1*
X2003291Y941215D1*
X2012978Y948286D1*
X2023407Y954208D1*
X2034444Y958903D1*
X2045943Y962310D1*
X2057756Y964384D1*
X2069728Y965100D1*
X2081704Y964446D1*
X2093527Y962433D1*
X2105044Y959086D1*
X2116104Y954448D1*
X2126564Y948580D1*
X2136288Y941559D1*
X2145148Y933476D1*
X2153030Y924436D1*
X2159831Y914557D1*
X2165461Y903967D1*
X2169849Y892805D1*
X2172936Y881216D1*
X2174683Y869350D1*
X2175057Y857000D1*
X2633504Y896807D2*
X2632478Y884858D1*
X2630098Y873103D1*
X2626393Y861696D1*
X2621414Y850785D1*
X2615223Y840512D1*
X2607903Y831012D1*
X2599548Y822408D1*
X2590267Y814811D1*
X2580181Y808321D1*
X2569421Y803023D1*
X2558128Y798985D1*
X2546448Y796260D1*
X2534534Y794883D1*
X2522540Y794873D1*
X2510624Y796229D1*
X2498939Y798934D1*
X2487639Y802952D1*
X2476870Y808232D1*
X2466773Y814704D1*
X2457479Y822285D1*
X2449109Y830875D1*
X2441772Y840363D1*
X2435564Y850624D1*
X2430566Y861527D1*
X2426842Y872927D1*
X2424441Y884678D1*
X2423395Y896626D1*
X2423716Y908615D1*
X2425402Y920489D1*
X2428429Y932095D1*
X2432759Y943279D1*
X2438335Y953898D1*
X2445084Y963812D1*
X2452919Y972893D1*
X2461737Y981022D1*
X2471424Y988093D1*
X2481854Y994015D1*
X2492890Y998709D1*
X2504390Y1002116D1*
X2516202Y1004191D1*
X2528175Y1004906D1*
X2540150Y1004253D1*
X2551974Y1002240D1*
X2563490Y998892D1*
X2574551Y994255D1*
X2585011Y988387D1*
X2594735Y981366D1*
X2603595Y973283D1*
X2611477Y964243D1*
X2618277Y954364D1*
X2623908Y943774D1*
X2628296Y932612D1*
X2631383Y921023D1*
X2633130Y909157D1*
X2633504Y896807D1*
X3142584Y2437344D2*
X3141558Y2425394D1*
X3139178Y2413639D1*
X3135473Y2402232D1*
X3130494Y2391321D1*
X3124303Y2381049D1*
X3116983Y2371549D1*
X3108628Y2362944D1*
X3099347Y2355348D1*
X3089261Y2348858D1*
X3078501Y2343560D1*
X3067208Y2339522D1*
X3055528Y2336796D1*
X3043614Y2335420D1*
X3031620Y2335409D1*
X3019704Y2336766D1*
X3008019Y2339470D1*
X2996719Y2343489D1*
X2985950Y2348769D1*
X2975853Y2355241D1*
X2966559Y2362822D1*
X2958189Y2371412D1*
X2950852Y2380899D1*
X2944644Y2391161D1*
X2939646Y2402063D1*
X2935922Y2413464D1*
X2933521Y2425215D1*
X2932475Y2437162D1*
X2932796Y2449152D1*
X2934482Y2461026D1*
X2937509Y2472631D1*
X2941839Y2483816D1*
X2947415Y2494434D1*
X2954164Y2504349D1*
X2961999Y2513429D1*
X2970817Y2521558D1*
X2980504Y2528630D1*
X2990934Y2534551D1*
X3001970Y2539246D1*
X3013470Y2542653D1*
X3025282Y2544728D1*
X3037255Y2545443D1*
X3049230Y2544790D1*
X3061054Y2542776D1*
X3072570Y2539429D1*
X3083631Y2534791D1*
X3094091Y2528924D1*
X3103815Y2521903D1*
X3112675Y2513819D1*
X3120557Y2504779D1*
X3127357Y2494900D1*
X3132988Y2484311D1*
X3137376Y2473149D1*
X3140463Y2461559D1*
X3142210Y2449694D1*
X3142584Y2437344D1*
X2835057Y2247000D2*
X2834031Y2235051D1*
X2831651Y2223296D1*
X2827947Y2211889D1*
X2822967Y2200978D1*
X2816777Y2190706D1*
X2809456Y2181205D1*
X2801101Y2172601D1*
X2791820Y2165004D1*
X2781734Y2158515D1*
X2770975Y2153216D1*
X2759681Y2149178D1*
X2748001Y2146453D1*
X2736087Y2145076D1*
X2724094Y2145066D1*
X2712177Y2146422D1*
X2700493Y2149127D1*
X2689193Y2153146D1*
X2678424Y2158425D1*
X2668327Y2164898D1*
X2659032Y2172478D1*
X2650663Y2181068D1*
X2643326Y2190556D1*
X2637118Y2200818D1*
X2632119Y2211720D1*
X2628395Y2223121D1*
X2625995Y2234871D1*
X2624948Y2246819D1*
X2625270Y2258808D1*
X2626955Y2270683D1*
X2628980Y2278980D1*
X2618001Y2276453D1*
X2606087Y2275076D1*
X2594094Y2275066D1*
X2582177Y2276422D1*
X2570493Y2279127D1*
X2559193Y2283146D1*
X2548424Y2288425D1*
X2538327Y2294898D1*
X2529032Y2302478D1*
X2520663Y2311068D1*
X2513326Y2320556D1*
X2507118Y2330818D1*
X2502119Y2341720D1*
X2498395Y2353121D1*
X2495995Y2364871D1*
X2494948Y2376819D1*
X2495270Y2388808D1*
X2496955Y2400683D1*
X2499982Y2412288D1*
X2504312Y2423473D1*
X2509888Y2434091D1*
X2516637Y2444005D1*
X2524472Y2453086D1*
X2533291Y2461215D1*
X2542978Y2468286D1*
X2553407Y2474208D1*
X2564444Y2478903D1*
X2575943Y2482310D1*
X2587756Y2484384D1*
X2599728Y2485100D1*
X2611704Y2484446D1*
X2623527Y2482433D1*
X2635044Y2479086D1*
X2646104Y2474448D1*
X2656564Y2468580D1*
X2666288Y2461559D1*
X2675148Y2453476D1*
X2683030Y2444436D1*
X2689831Y2434557D1*
X2695461Y2423967D1*
X2699849Y2412805D1*
X2702936Y2401216D1*
X2704683Y2389350D1*
X2705057Y2377000D1*
X2704031Y2365051D1*
X2701651Y2353296D1*
X2701020Y2351027D1*
X2714782Y2353992D1*
X2726728Y2355049D1*
X2738718Y2354738D1*
X2750594Y2353063D1*
X2762202Y2350045D1*
X2773390Y2345725D1*
X2784013Y2340159D1*
X2793933Y2333418D1*
X2803021Y2325591D1*
X2811157Y2316779D1*
X2818237Y2307099D1*
X2824168Y2296674D1*
X2828872Y2285642D1*
X2832289Y2274145D1*
X2834374Y2262334D1*
X2835100Y2250000D1*
X2835057Y2247000D1*
X3380691Y1971174D2*
X3379525Y1959239D1*
X3376823Y1947556D1*
X3372631Y1936321D1*
X3367019Y1925724D1*
X3360082Y1915942D1*
X3351937Y1907142D1*
X3342720Y1899470D1*
X3332588Y1893057D1*
X3321710Y1888010D1*
X3310270Y1884414D1*
X3298461Y1882329D1*
X3286482Y1881792D1*
X3274533Y1882811D1*
X3262818Y1885368D1*
X3251532Y1889421D1*
X3240866Y1894902D1*
X3231000Y1901717D1*
X3222099Y1909753D1*
X3214314Y1918875D1*
X3207776Y1928927D1*
X3202595Y1939741D1*
X3198858Y1951136D1*
X3196628Y1962918D1*
X3195943Y1974890D1*
X3196814Y1986850D1*
X3199226Y1998596D1*
X3203140Y2009931D1*
X3208488Y2020664D1*
X3215181Y2030614D1*
X3223107Y2039613D1*
X3232131Y2047510D1*
X3242102Y2054172D1*
X3252851Y2059486D1*
X3264199Y2063364D1*
X3275953Y2065739D1*
X3287915Y2066572D1*
X3299885Y2065849D1*
X3311660Y2063582D1*
X3323043Y2059809D1*
X3333841Y2054594D1*
X3343873Y2048024D1*
X3352969Y2040210D1*
X3360977Y2031284D1*
X3367761Y2021396D1*
X3373208Y2010713D1*
X3377226Y1999415D1*
X3379746Y1987691D1*
X3380727Y1975740D1*
X3380691Y1971174D1*
X1355057Y1877000D2*
X1354031Y1865051D1*
X1351651Y1853296D1*
X1347947Y1841889D1*
X1342967Y1830978D1*
X1336777Y1820706D1*
X1329456Y1811205D1*
X1321101Y1802601D1*
X1311820Y1795004D1*
X1301734Y1788515D1*
X1290975Y1783216D1*
X1279681Y1779178D1*
X1268001Y1776453D1*
X1256087Y1775076D1*
X1244094Y1775066D1*
X1232177Y1776422D1*
X1220493Y1779127D1*
X1209193Y1783146D1*
X1198424Y1788425D1*
X1188327Y1794898D1*
X1179032Y1802478D1*
X1170663Y1811068D1*
X1163326Y1820556D1*
X1157118Y1830818D1*
X1152119Y1841720D1*
X1148395Y1853121D1*
X1145995Y1864871D1*
X1144948Y1876819D1*
X1145270Y1888808D1*
X1146955Y1900683D1*
X1149982Y1912288D1*
X1154312Y1923473D1*
X1159888Y1934091D1*
X1166637Y1944005D1*
X1174472Y1953086D1*
X1183291Y1961215D1*
X1192978Y1968286D1*
X1203407Y1974208D1*
X1214444Y1978903D1*
X1225943Y1982310D1*
X1237756Y1984384D1*
X1249728Y1985100D1*
X1261704Y1984446D1*
X1273527Y1982433D1*
X1285044Y1979086D1*
X1296104Y1974448D1*
X1306564Y1968580D1*
X1316288Y1961559D1*
X1325148Y1953476D1*
X1333030Y1944436D1*
X1339831Y1934557D1*
X1345461Y1923967D1*
X1349849Y1912805D1*
X1352936Y1901216D1*
X1354683Y1889350D1*
X1355057Y1877000D1*
X2765057Y1257000D2*
X2764031Y1245051D1*
X2761651Y1233296D1*
X2757947Y1221889D1*
X2752967Y1210978D1*
X2746777Y1200706D1*
X2739456Y1191205D1*
X2731101Y1182601D1*
X2721820Y1175004D1*
X2711734Y1168515D1*
X2700975Y1163216D1*
X2689681Y1159178D1*
X2678001Y1156453D1*
X2666087Y1155076D1*
X2654094Y1155066D1*
X2642177Y1156422D1*
X2630493Y1159127D1*
X2619193Y1163146D1*
X2608424Y1168425D1*
X2598327Y1174898D1*
X2589032Y1182478D1*
X2580663Y1191068D1*
X2573326Y1200556D1*
X2567118Y1210818D1*
X2562119Y1221720D1*
X2558395Y1233121D1*
X2555995Y1244871D1*
X2554948Y1256819D1*
X2555270Y1268808D1*
X2556955Y1280683D1*
X2559982Y1292288D1*
X2564312Y1303473D1*
X2569888Y1314091D1*
X2576637Y1324005D1*
X2584472Y1333086D1*
X2593291Y1341215D1*
X2602978Y1348286D1*
X2613407Y1354208D1*
X2624444Y1358903D1*
X2635943Y1362310D1*
X2647756Y1364384D1*
X2659728Y1365100D1*
X2671704Y1364446D1*
X2683527Y1362433D1*
X2695044Y1359086D1*
X2706104Y1354448D1*
X2716564Y1348580D1*
X2726288Y1341559D1*
X2735148Y1333476D1*
X2743030Y1324436D1*
X2749831Y1314557D1*
X2755461Y1303967D1*
X2759849Y1292805D1*
X2762936Y1281216D1*
X2764683Y1269350D1*
X2765057Y1257000D1*
X1845057Y1067000D2*
X1844031Y1055051D1*
X1841651Y1043296D1*
X1837947Y1031889D1*
X1832967Y1020978D1*
X1826777Y1010706D1*
X1819456Y1001205D1*
X1811101Y992601D1*
X1801820Y985004D1*
X1791734Y978515D1*
X1780975Y973216D1*
X1769681Y969178D1*
X1758001Y966453D1*
X1746087Y965076D1*
X1734094Y965066D1*
X1722177Y966422D1*
X1710493Y969127D1*
X1699193Y973146D1*
X1688424Y978425D1*
X1678327Y984898D1*
X1669032Y992478D1*
X1660663Y1001068D1*
X1653326Y1010556D1*
X1647118Y1020818D1*
X1642119Y1031720D1*
X1638395Y1043121D1*
X1635995Y1054871D1*
X1634948Y1066819D1*
X1635270Y1078808D1*
X1636955Y1090683D1*
X1639982Y1102288D1*
X1644312Y1113473D1*
X1649888Y1124091D1*
X1656637Y1134005D1*
X1664472Y1143086D1*
X1673291Y1151215D1*
X1682978Y1158286D1*
X1693407Y1164208D1*
X1704444Y1168903D1*
X1715943Y1172310D1*
X1727756Y1174384D1*
X1739728Y1175100D1*
X1751704Y1174446D1*
X1763527Y1172433D1*
X1775044Y1169086D1*
X1786104Y1164448D1*
X1796564Y1158580D1*
X1806288Y1151559D1*
X1815148Y1143476D1*
X1823030Y1134436D1*
X1829831Y1124557D1*
X1835461Y1113967D1*
X1839849Y1102805D1*
X1842936Y1091216D1*
X1844683Y1079350D1*
X1845057Y1067000D1*
X1785057Y1877000D2*
X1784031Y1865051D1*
X1781651Y1853296D1*
X1777947Y1841889D1*
X1772967Y1830978D1*
X1766777Y1820706D1*
X1759456Y1811205D1*
X1751101Y1802601D1*
X1741820Y1795004D1*
X1731734Y1788515D1*
X1720975Y1783216D1*
X1709681Y1779178D1*
X1698001Y1776453D1*
X1686087Y1775076D1*
X1674094Y1775066D1*
X1662177Y1776422D1*
X1650493Y1779127D1*
X1639193Y1783146D1*
X1628424Y1788425D1*
X1618327Y1794898D1*
X1609032Y1802478D1*
X1600663Y1811068D1*
X1593326Y1820556D1*
X1587118Y1830818D1*
X1582119Y1841720D1*
X1578395Y1853121D1*
X1575995Y1864871D1*
X1574948Y1876819D1*
X1575270Y1888808D1*
X1576955Y1900683D1*
X1579982Y1912288D1*
X1584312Y1923473D1*
X1589888Y1934091D1*
X1596637Y1944005D1*
X1604472Y1953086D1*
X1613291Y1961215D1*
X1622978Y1968286D1*
X1633407Y1974208D1*
X1644444Y1978903D1*
X1655943Y1982310D1*
X1667756Y1984384D1*
X1679728Y1985100D1*
X1691704Y1984446D1*
X1703527Y1982433D1*
X1715044Y1979086D1*
X1726104Y1974448D1*
X1736564Y1968580D1*
X1746288Y1961559D1*
X1755148Y1953476D1*
X1763030Y1944436D1*
X1769831Y1934557D1*
X1775461Y1923967D1*
X1779849Y1912805D1*
X1782936Y1901216D1*
X1784683Y1889350D1*
X1785057Y1877000D1*
X1645901Y2093887D2*
X1644875Y2081938D1*
X1642494Y2070183D1*
X1638790Y2058776D1*
X1633810Y2047865D1*
X1627620Y2037592D1*
X1620300Y2028092D1*
X1611945Y2019488D1*
X1602664Y2011891D1*
X1592578Y2005401D1*
X1581818Y2000103D1*
X1570525Y1996065D1*
X1558845Y1993340D1*
X1546931Y1991963D1*
X1534937Y1991953D1*
X1523021Y1993309D1*
X1511336Y1996014D1*
X1500036Y2000032D1*
X1489267Y2005312D1*
X1479170Y2011784D1*
X1469876Y2019365D1*
X1461506Y2027955D1*
X1454169Y2037443D1*
X1447961Y2047704D1*
X1442963Y2058607D1*
X1439239Y2070007D1*
X1436838Y2081758D1*
X1435791Y2093706D1*
X1436113Y2105695D1*
X1437799Y2117569D1*
X1440826Y2129175D1*
X1445156Y2140359D1*
X1450731Y2150978D1*
X1457481Y2160892D1*
X1465316Y2169973D1*
X1474134Y2178102D1*
X1483821Y2185173D1*
X1494251Y2191095D1*
X1505287Y2195789D1*
X1516786Y2199196D1*
X1528599Y2201271D1*
X1540571Y2201986D1*
X1552547Y2201333D1*
X1564370Y2199320D1*
X1575887Y2195972D1*
X1586948Y2191335D1*
X1597408Y2185467D1*
X1607131Y2178446D1*
X1615992Y2170363D1*
X1623873Y2161323D1*
X1630674Y2151444D1*
X1636305Y2140854D1*
X1640692Y2129692D1*
X1643780Y2118103D1*
X1645527Y2106237D1*
X1645901Y2093887D1*
X2988149Y1763624D2*
X3089575Y1662198D1*
X3103250Y1662115D1*
X3117570Y1659847D1*
X3131360Y1655366D1*
X3144279Y1648784D1*
X3156009Y1640262D1*
X3166262Y1630009D1*
X3174784Y1618279D1*
X3181366Y1605360D1*
X3185847Y1591570D1*
X3188115Y1577250D1*
Y1562750D1*
X3185847Y1548430D1*
X3181366Y1534640D1*
X3174784Y1521721D1*
X3166262Y1509991D1*
X3156009Y1499738D1*
X3144279Y1491216D1*
X3131360Y1484634D1*
X3117570Y1480153D1*
X3103250Y1477885D1*
X3088750D1*
X3074430Y1480153D1*
X3060640Y1484634D1*
X3047721Y1491216D1*
X3035991Y1499738D1*
X3025738Y1509991D1*
X3017216Y1521721D1*
X3010634Y1534640D1*
X3006153Y1548430D1*
X3003885Y1562750D1*
X3003850Y1576372D1*
X2902425Y1677802D1*
X2888750Y1677885D1*
X2874430Y1680153D1*
X2860640Y1684634D1*
X2847721Y1691216D1*
X2835991Y1699738D1*
X2825738Y1709991D1*
X2817216Y1721721D1*
X2810634Y1734640D1*
X2806153Y1748430D1*
X2803885Y1762750D1*
Y1777250D1*
X2806153Y1791570D1*
X2810634Y1805360D1*
X2817216Y1818279D1*
X2825738Y1830009D1*
X2835991Y1840262D1*
X2847721Y1848784D1*
X2860640Y1855366D1*
X2874430Y1859847D1*
X2888750Y1862115D1*
X2903250D1*
X2917570Y1859847D1*
X2931360Y1855366D1*
X2944279Y1848784D1*
X2956009Y1840262D1*
X2966262Y1830009D1*
X2974784Y1818279D1*
X2981366Y1805360D1*
X2985847Y1791570D1*
X2988115Y1777250D1*
X2988150Y1763628D1*
X2908622Y317769D2*
X2906944Y308430D1*
X2902463Y294640D1*
X2895881Y281721D1*
X2887358Y269991D1*
X2877106Y259738D1*
X2865376Y251216D1*
X2852457Y244634D1*
X2838667Y240153D1*
X2824346Y237885D1*
X2809847D1*
X2795526Y240153D1*
X2781737Y244634D1*
X2768818Y251216D1*
X2757088Y259738D1*
X2746835Y269991D1*
X2738313Y281721D1*
X2731730Y294640D1*
X2727250Y308430D1*
X2724982Y322750D1*
Y337250D1*
X2727250Y351570D1*
X2731730Y365360D1*
X2738313Y378279D1*
X2746835Y390009D1*
X2757088Y400262D1*
X2768818Y408784D1*
X2781737Y415366D1*
X2792771Y419070D1*
X2460300Y666795D2*
X2460311Y274753D1*
X2471337Y265337D1*
X2480753Y254311D1*
X2488329Y241949D1*
X2493878Y228553D1*
X2497262Y214455D1*
X2498400Y200000D1*
X2497262Y185545D1*
X2493878Y171447D1*
X2488329Y158051D1*
X2480753Y145689D1*
X2471337Y134663D1*
X2460311Y125247D1*
X2447949Y117671D1*
X2434553Y112122D1*
X2420455Y108738D1*
X2406000Y107600D1*
X2391545Y108738D1*
X2377447Y112122D1*
X2364051Y117671D1*
X2351689Y125247D1*
X2340663Y134663D1*
X2331247Y145689D1*
X2323671Y158051D1*
X2318122Y171447D1*
X2314738Y185545D1*
X2313600Y200000D1*
X2314738Y214455D1*
X2318122Y228553D1*
X2323671Y241949D1*
X2331247Y254311D1*
X2340663Y265337D1*
X2351712Y274769D1*
X2351700Y658848D1*
X2340608Y667022D1*
X2330355Y677274D1*
X2321833Y689004D1*
X2315250Y701923D1*
X2310770Y715713D1*
X2308502Y730034D1*
Y744533D1*
X2310770Y758854D1*
X2315250Y772643D1*
X2321833Y785562D1*
X2330355Y797292D1*
X2340608Y807545D1*
X2352338Y816067D1*
X2365257Y822650D1*
X2379046Y827130D1*
X2393367Y829398D1*
X2407866D1*
X2422187Y827130D1*
X2435977Y822650D1*
X2448896Y816067D1*
X2460626Y807545D1*
X2470878Y797292D1*
X2479401Y785562D1*
X2485983Y772643D1*
X2490464Y758854D1*
X2492732Y744533D1*
Y730034D1*
X2490464Y715713D1*
X2485983Y701923D1*
X2479401Y689004D1*
X2470878Y677274D1*
X2460292Y666759D1*
X3192416Y1627812D2*
X3129881Y1690611D1*
X3124287Y1698310D1*
X3119967Y1706790D1*
X3117026Y1715842D1*
X3115537Y1725241D1*
X3115350Y1740254D1*
X3105738Y1749991D1*
X3097216Y1761721D1*
X3090634Y1774640D1*
X3086153Y1788430D1*
X3083885Y1802750D1*
Y1817250D1*
X3086153Y1831570D1*
X3090634Y1845360D1*
X3097216Y1858279D1*
X3105738Y1870009D1*
X3115991Y1880262D1*
X3127721Y1888784D1*
X3140640Y1895366D1*
X3154430Y1899847D1*
X3168750Y1902115D1*
X3183250D1*
X3197570Y1899847D1*
X3211360Y1895366D1*
X3224279Y1888784D1*
X3236009Y1880262D1*
X3246262Y1870009D1*
X3254784Y1858279D1*
X3261366Y1845360D1*
X3265847Y1831570D1*
X3268115Y1817250D1*
Y1802750D1*
X3265847Y1788430D1*
X3261366Y1774640D1*
X3254784Y1761721D1*
X3246262Y1749991D1*
X3244126Y1747681D1*
X3278175Y1713597D1*
X3287754Y1714776D1*
X3304246D1*
X3320535Y1712196D1*
X3336220Y1707100D1*
X3350915Y1699612D1*
X3364257Y1689919D1*
X3375919Y1678257D1*
X3385612Y1664915D1*
X3393100Y1650220D1*
X3398196Y1634535D1*
X3400776Y1618246D1*
Y1601754D1*
X3398196Y1585465D1*
X3393100Y1569780D1*
X3385612Y1555085D1*
X3375919Y1541743D1*
X3364257Y1530081D1*
X3350915Y1520388D1*
X3336220Y1512900D1*
X3320535Y1507804D1*
X3304246Y1505224D1*
X3287754D1*
X3271465Y1507804D1*
X3255780Y1512900D1*
X3241085Y1520388D1*
X3227743Y1530081D1*
X3216081Y1541743D1*
X3206388Y1555085D1*
X3198900Y1569780D1*
X3193804Y1585465D1*
X3191224Y1601754D1*
Y1618246D1*
X3192464Y1627801D1*
X1138446Y1151564D2*
D28*
X1621554Y768436D1*
Y1151564D2*
X1138446Y768436D1*
X4376640Y2263360D2*
X4623360Y2016640D1*
Y2263360D2*
X4376640Y2016640D1*
X376639Y983361D2*
X623361Y736640D1*
Y983361D2*
X376639Y736640D1*
X2625725Y1734275D2*
X2774275Y1585725D1*
Y1734275D2*
X2625725Y1585725D1*
X3572605Y1928962D2*
X3721155Y1780411D1*
Y1928962D2*
X3572605Y1780411D1*
X3215725Y2404275D2*
X3364275Y2255725D1*
Y2404275D2*
X3215725Y2255725D1*
X1995725Y934275D2*
X2144275Y785725D1*
Y934275D2*
X1995725Y785725D1*
X2454171Y974082D2*
X2602722Y825531D1*
Y974082D2*
X2454171Y825531D1*
X2963251Y2514619D2*
X3111802Y2366068D1*
Y2514619D2*
X2963251Y2366068D1*
X2730000Y2250000D2*
X2804275Y2175725D1*
Y2324275D2*
X2655725Y2175725D1*
X3223045Y2039469D2*
X3353635Y1908878D1*
Y2039469D2*
X3223045Y1908878D1*
X2525725Y2454275D2*
X2600000Y2380000D1*
X2674275Y2454275D2*
X2525725Y2305725D1*
X644705Y2825295D2*
X710000Y2760000D1*
X775295Y2825295D2*
X644705Y2694705D1*
X1425725Y2584275D2*
X1574275Y2435725D1*
Y2584275D2*
X1425725Y2435725D1*
X1175725Y1954275D2*
X1324275Y1805725D1*
Y1954275D2*
X1175725Y1805725D1*
X1191725Y1325025D2*
X1340275Y1176475D1*
Y1325025D2*
X1191725Y1176475D1*
X2585725Y1334275D2*
X2734275Y1185725D1*
Y1334275D2*
X2585725Y1185725D1*
X1665725Y1144275D2*
X1814275Y995725D1*
Y1144275D2*
X1665725Y995725D1*
X1605725Y1954275D2*
X1754275Y1805725D1*
Y1954275D2*
X1605725Y1805725D1*
X1466568Y1682545D2*
X1615119Y1533995D1*
Y1682545D2*
X1466568Y1533995D1*
Y2171162D2*
X1615119Y2022611D1*
Y2171162D2*
X1466568Y2022611D1*
D29*
X1856000Y1380000D3*
X1380000Y960000D3*
D96*
X4500000Y2140000D3*
D42*
X4512700Y1886000D3*
X4487300Y1632000D3*
X4512700Y1378000D3*
X4487300Y1124000D3*
X4500000Y870000D3*
D96*
X500000Y860000D3*
D42*
X487300Y1114000D3*
X512700Y1368000D3*
X487300Y1622000D3*
X512700Y1876000D3*
X500000Y2130000D3*
D44*
X2936000Y940000D3*
X3246000D3*
M02*
