G04 DipTrace 3.3.1.3*
G04 HypermaqI2Csensorboardv0.1.gbo*
%MOMM*%
G04 #@! TF.FileFunction,Legend,Bot*
G04 #@! TF.Part,Single*
%ADD18C,0.2032*%
%ADD41O,1.46898X1.46819*%
%ADD93C,0.15686*%
%ADD95C,0.19608*%
%FSLAX35Y35*%
G04*
G71*
G90*
G75*
G01*
G04 BotSilk*
%LPD*%
D41*
X4247337Y2159496D3*
X4432025Y985249D2*
D18*
X4368499Y921668D1*
Y794660D1*
X4432025Y731233D1*
X4372985Y1441525D2*
Y1314518D1*
X4436511Y1250937D1*
X4559032Y731233D2*
X4622513Y794660D1*
Y921668D1*
X4559032Y985249D1*
X4563518Y1250937D2*
X4626998Y1314518D1*
X4432025Y731233D2*
X4559032D1*
X4436511Y1250937D2*
X4372985Y1187510D1*
Y1060502D1*
X4436511Y997075D1*
X4563518D2*
X4626998Y1060502D1*
Y1187510D1*
X4563518Y1250937D1*
X4436511Y1758968D2*
X4372985Y1695541D1*
Y1568533D1*
X4436511Y1504953D1*
X4563518D2*
X4626998Y1568533D1*
Y1695541D1*
X4563518Y1758968D1*
X4372985Y1441525D2*
X4436511Y1504953D1*
X4563518D2*
X4626998Y1441525D1*
Y1314518D2*
Y1441525D1*
X4372985Y2203573D2*
Y2076565D1*
X4436511Y2012984D1*
X4563518D2*
X4626998Y2076565D1*
X4436511Y2012984D2*
X4372985Y1949557D1*
Y1822549D1*
X4436511Y1758968D1*
X4563518D2*
X4626998Y1822549D1*
Y1949557D1*
X4563518Y2012984D1*
X4436511Y2267000D2*
X4563518D1*
X4372985Y2203573D2*
X4436511Y2267000D1*
X4563518D2*
X4626998Y2203573D1*
Y2076565D2*
Y2203573D1*
D41*
X752663Y840504D3*
X567975Y2014751D2*
D18*
X631501Y2078332D1*
Y2205340D1*
X567975Y2268767D1*
X627015Y1558475D2*
Y1685482D1*
X563489Y1749063D1*
X440968Y2268767D2*
X377487Y2205340D1*
Y2078332D1*
X440968Y2014751D1*
X436482Y1749063D2*
X373002Y1685482D1*
X567975Y2268767D2*
X440968D1*
X563489Y1749063D2*
X627015Y1812490D1*
Y1939498D1*
X563489Y2002925D1*
X436482D2*
X373002Y1939498D1*
Y1812490D1*
X436482Y1749063D1*
X563489Y1241032D2*
X627015Y1304459D1*
Y1431467D1*
X563489Y1495047D1*
X436482D2*
X373002Y1431467D1*
Y1304459D1*
X436482Y1241032D1*
X627015Y1558475D2*
X563489Y1495047D1*
X436482D2*
X373002Y1558475D1*
Y1685482D2*
Y1558475D1*
X627015Y796427D2*
Y923435D1*
X563489Y987016D1*
X436482D2*
X373002Y923435D1*
X563489Y987016D2*
X627015Y1050443D1*
Y1177451D1*
X563489Y1241032D1*
X436482D2*
X373002Y1177451D1*
Y1050443D1*
X436482Y987016D1*
X563489Y733000D2*
X436482D1*
X627015Y796427D2*
X563489Y733000D1*
X436482D2*
X373002Y796427D1*
Y923435D2*
Y796427D1*
X4284000Y1945789D2*
D93*
Y1868072D1*
X4288830Y1853472D1*
X4293771Y1848643D1*
X4303430Y1843702D1*
X4313200D1*
X4322859Y1848643D1*
X4327688Y1853472D1*
X4332630Y1868072D1*
Y1877731D1*
X4252628Y1926248D2*
X4242857Y1931189D1*
X4228257Y1945677D1*
Y1843702D1*
X714958Y1147556D2*
Y1069839D1*
X719787Y1055239D1*
X724728Y1050410D1*
X734387Y1045468D1*
X744158D1*
X753816Y1050410D1*
X758645Y1055239D1*
X763587Y1069839D1*
Y1079497D1*
X678643Y1123185D2*
Y1128014D1*
X673814Y1137785D1*
X668985Y1142614D1*
X659214Y1147444D1*
X639785D1*
X630127Y1142614D1*
X625297Y1137785D1*
X620356Y1128014D1*
Y1118356D1*
X625297Y1108585D1*
X634956Y1094097D1*
X683585Y1045468D1*
X615527D1*
X3291712Y579525D2*
D95*
Y451915D1*
X3206639Y579525D2*
Y451915D1*
X3291712Y518738D2*
X3206639D1*
X3137100Y536988D2*
X3149173Y530952D1*
X3161387Y518738D1*
X3167423Y500488D1*
Y488415D1*
X3161387Y470165D1*
X3149173Y458092D1*
X3137100Y451915D1*
X3118850D1*
X3106637Y458092D1*
X3094564Y470165D1*
X3088387Y488415D1*
Y500488D1*
X3094564Y518738D1*
X3106637Y530952D1*
X3118850Y536988D1*
X3137100D1*
X3049171Y579525D2*
Y451915D1*
X3009955Y500488D2*
X2937096D1*
Y512702D1*
X2943132Y524915D1*
X2949169Y530952D1*
X2961382Y536988D1*
X2979632D1*
X2991705Y530952D1*
X3003919Y518738D1*
X3009955Y500488D1*
Y488415D1*
X3003919Y470165D1*
X2991705Y458092D1*
X2979632Y451915D1*
X2961382D1*
X2949169Y458092D1*
X2937096Y470165D1*
X2701574Y579525D2*
Y451915D1*
Y518738D2*
X2713647Y530952D1*
X2725860Y536988D1*
X2744110D1*
X2756183Y530952D1*
X2768397Y518738D1*
X2774433Y500488D1*
Y488415D1*
X2768397Y470165D1*
X2756183Y458092D1*
X2744110Y451915D1*
X2725860D1*
X2713647Y458092D1*
X2701574Y470165D1*
X2662358Y579525D2*
X2656322Y573488D1*
X2650145Y579525D1*
X2656322Y585702D1*
X2662358Y579525D1*
X2656322Y536988D2*
Y451915D1*
X2538069Y536988D2*
Y451915D1*
Y518738D2*
X2550142Y530952D1*
X2562356Y536988D1*
X2580466D1*
X2592679Y530952D1*
X2604752Y518738D1*
X2610929Y500488D1*
Y488415D1*
X2604752Y470165D1*
X2592679Y458092D1*
X2580466Y451915D1*
X2562356D1*
X2550142Y458092D1*
X2538069Y470165D1*
X2492677Y536988D2*
X2498854Y530811D1*
X2492677Y524775D1*
X2486640Y530811D1*
X2492677Y536988D1*
Y464129D2*
X2498854Y457952D1*
X2492677Y451915D1*
X2486640Y457952D1*
X2492677Y464129D1*
X2311765Y579385D2*
X2245082D1*
X2281442Y530811D1*
X2263192D1*
X2251118Y524775D1*
X2245082Y518738D1*
X2238905Y500488D1*
Y488415D1*
X2245082Y470165D1*
X2257155Y457952D1*
X2275405Y451915D1*
X2293655D1*
X2311765Y457952D1*
X2317801Y464129D1*
X2323978Y476202D1*
X2199689Y536988D2*
Y451915D1*
Y512702D2*
X2181439Y530952D1*
X2169226Y536988D1*
X2151116D1*
X2138903Y530952D1*
X2132866Y512702D1*
Y451915D1*
Y512702D2*
X2114616Y530952D1*
X2102403Y536988D1*
X2084293D1*
X2072080Y530952D1*
X2065903Y512702D1*
Y451915D1*
X2026687Y536988D2*
Y451915D1*
Y512702D2*
X2008437Y530952D1*
X1996224Y536988D1*
X1978114D1*
X1965901Y530952D1*
X1959864Y512702D1*
Y451915D1*
Y512702D2*
X1941614Y530952D1*
X1929401Y536988D1*
X1911291D1*
X1899078Y530952D1*
X1892901Y512702D1*
Y451915D1*
X759268Y1141302D2*
X747195Y1129088D1*
X728945Y1123052D1*
X704659D1*
X686409Y1129088D1*
X674195Y1141302D1*
Y1153375D1*
X680372Y1165588D1*
X686409Y1171625D1*
X698482Y1177661D1*
X734982Y1189875D1*
X747195Y1195911D1*
X753232Y1202088D1*
X759268Y1214161D1*
Y1232411D1*
X747195Y1244484D1*
X728945Y1250661D1*
X704659D1*
X686409Y1244484D1*
X674195Y1232411D1*
X798484Y1123052D2*
Y1250661D1*
X841021D1*
X859271Y1244485D1*
X871484Y1232411D1*
X877521Y1220198D1*
X883557Y1202088D1*
Y1171625D1*
X877520Y1153375D1*
X871484Y1141302D1*
X859270Y1129088D1*
X841020Y1123052D1*
X798484D1*
X1020059Y1250661D2*
X971346Y1123052D1*
X922773Y1250661D1*
X941023Y1208125D2*
X1001809D1*
X759269Y1397302D2*
X747196Y1385088D1*
X728946Y1379052D1*
X704659D1*
X686409Y1385088D1*
X674196Y1397302D1*
Y1409375D1*
X680373Y1421588D1*
X686409Y1427625D1*
X698482Y1433661D1*
X734982Y1445875D1*
X747196Y1451911D1*
X753232Y1458088D1*
X759269Y1470161D1*
Y1488411D1*
X747196Y1500485D1*
X728946Y1506661D1*
X704659D1*
X686409Y1500484D1*
X674196Y1488411D1*
X889594Y1409375D2*
X883557Y1397302D1*
X871344Y1385088D1*
X859271Y1379052D1*
X834984D1*
X822771Y1385088D1*
X810698Y1397302D1*
X804521Y1409375D1*
X798484Y1427625D1*
Y1458088D1*
X804521Y1476198D1*
X810698Y1488411D1*
X822771Y1500485D1*
X834984Y1506661D1*
X859271D1*
X871344Y1500485D1*
X883557Y1488412D1*
X889594Y1476198D1*
X928810Y1379052D2*
Y1506662D1*
X1001669Y1506661D1*
X765305Y897375D2*
X759269Y885302D1*
X747055Y873088D1*
X734982Y867052D1*
X710696D1*
X698482Y873088D1*
X686409Y885302D1*
X680232Y897375D1*
X674196Y915625D1*
Y946088D1*
X680232Y964198D1*
X686409Y976411D1*
X698482Y988484D1*
X710696Y994661D1*
X734982D1*
X747055Y988485D1*
X759269Y976411D1*
X765305Y964198D1*
Y946088D1*
X734982D1*
X889594Y867052D2*
Y994661D1*
X804521Y867052D1*
Y994661D1*
X928809Y867052D2*
X928810Y994662D1*
X971346D1*
X989596Y988485D1*
X1001809Y976411D1*
X1007846Y964198D1*
X1013882Y946088D1*
Y915625D1*
X1007846Y897375D1*
X1001809Y885302D1*
X989596Y873088D1*
X971346Y867052D1*
X928809D1*
X835304Y1921375D2*
X829268Y1909302D1*
X817054Y1897088D1*
X804981Y1891052D1*
X780695D1*
X768481Y1897088D1*
X756408Y1909302D1*
X750231Y1921375D1*
X744195Y1939625D1*
Y1970088D1*
X750231Y1988198D1*
X756408Y2000411D1*
X768481Y2012484D1*
X780695Y2018661D1*
X804981D1*
X817054Y2012484D1*
X829268Y2000411D1*
X835304Y1988198D1*
Y1970088D1*
X804981D1*
X874520Y1957875D2*
X929270D1*
X947380Y1951838D1*
X953557Y1945661D1*
X959593Y1933588D1*
Y1915338D1*
X953557Y1903265D1*
X947380Y1897088D1*
X929270Y1891052D1*
X874520D1*
Y2018661D1*
X998809Y1891052D2*
Y2018661D1*
X1074524Y1891052D2*
X1062311Y1897088D1*
X1050238Y1909302D1*
X1044061Y1921375D1*
X1038024Y1939625D1*
Y1970088D1*
X1044061Y1988198D1*
X1050238Y2000411D1*
X1062311Y2012485D1*
X1074524Y2018661D1*
X1098811D1*
X1110884Y2012485D1*
X1123098Y2000411D1*
X1129134Y1988198D1*
X1135171Y1970088D1*
X1135170Y1939625D1*
X1129134Y1921375D1*
X1123097Y1909302D1*
X1110884Y1897088D1*
X1098811Y1891052D1*
X1074524D1*
X1180563Y1921515D2*
Y1915479D1*
X1186600Y1903265D1*
X1192636Y1897229D1*
X1204849Y1891192D1*
X1229136D1*
X1241209Y1897229D1*
X1247246Y1903265D1*
X1253423Y1915479D1*
Y1927552D1*
X1247246Y1939765D1*
X1235173Y1957875D1*
X1174386Y2018662D1*
X1259459Y2018661D1*
X798805Y2156247D2*
Y2265607D1*
X744196Y2210997D2*
X853555D1*
X965631Y2147192D2*
X904984D1*
X898948Y2201802D1*
X904985Y2195765D1*
X923235Y2189588D1*
X941344D1*
X959594Y2195765D1*
X971808Y2207838D1*
X977844Y2226088D1*
Y2238162D1*
X971808Y2256411D1*
X959594Y2268625D1*
X941344Y2274661D1*
X923235D1*
X904985Y2268625D1*
X898948Y2262448D1*
X892771Y2250375D1*
X1017060Y2147052D2*
X1065633Y2274662D1*
X1114206Y2147052D1*
X835304Y1665375D2*
X829267Y1653302D1*
X817054Y1641088D1*
X804981Y1635052D1*
X780694D1*
X768481Y1641088D1*
X756408Y1653302D1*
X750231Y1665375D1*
X744194Y1683625D1*
Y1714088D1*
X750231Y1732198D1*
X756408Y1744411D1*
X768481Y1756484D1*
X780694Y1762661D1*
X804981D1*
X817054Y1756484D1*
X829267Y1744411D1*
X835304Y1732198D1*
Y1714088D1*
X804981D1*
X874520Y1701875D2*
X929270D1*
X947379Y1695838D1*
X953556Y1689661D1*
X959593Y1677588D1*
Y1659338D1*
X953556Y1647265D1*
X947379Y1641088D1*
X929270Y1635052D1*
X874520D1*
Y1762661D1*
X998808Y1635052D2*
Y1762661D1*
X1074524Y1635052D2*
X1062310Y1641088D1*
X1050237Y1653302D1*
X1044060Y1665375D1*
X1038024Y1683625D1*
Y1714088D1*
X1044061Y1732198D1*
X1050238Y1744411D1*
X1062311Y1756485D1*
X1074524Y1762661D1*
X1098811D1*
X1110884Y1756485D1*
X1123097Y1744412D1*
X1129134Y1732198D1*
X1135170Y1714088D1*
Y1683625D1*
X1129133Y1665375D1*
X1123097Y1653302D1*
X1110883Y1641088D1*
X1098810Y1635052D1*
X1074524D1*
X1174386Y1659479D2*
X1186599Y1653302D1*
X1204849Y1635192D1*
Y1762661D1*
X3509667Y2779528D2*
Y2651919D1*
X3464274Y2749065D2*
Y2755101D1*
X3458237Y2767315D1*
X3452201Y2773351D1*
X3439987Y2779388D1*
X3415701D1*
X3403628Y2773351D1*
X3397591Y2767315D1*
X3391414Y2755101D1*
Y2743028D1*
X3397591Y2730815D1*
X3409664Y2712705D1*
X3470451Y2651919D1*
X3385378D1*
X3255053Y2749205D2*
X3261089Y2761278D1*
X3273303Y2773492D1*
X3285376Y2779528D1*
X3309662D1*
X3321876Y2773492D1*
X3333949Y2761278D1*
X3340126Y2749205D1*
X3346162Y2730955D1*
Y2700492D1*
X3340126Y2682382D1*
X3333949Y2670169D1*
X3321876Y2658096D1*
X3309662Y2651919D1*
X3285376D1*
X3273303Y2658096D1*
X3261089Y2670169D1*
X3255053Y2682382D1*
X3007317Y2761278D2*
X3019390Y2773492D1*
X3037640Y2779528D1*
X3061927D1*
X3080177Y2773492D1*
X3092390Y2761278D1*
Y2749205D1*
X3086213Y2736992D1*
X3080177Y2730955D1*
X3068104Y2724919D1*
X3031604Y2712705D1*
X3019390Y2706669D1*
X3013354Y2700492D1*
X3007317Y2688419D1*
Y2670169D1*
X3019390Y2658096D1*
X3037640Y2651919D1*
X3061927D1*
X3080177Y2658096D1*
X3092390Y2670169D1*
X2968102Y2700492D2*
X2895242D1*
Y2712705D1*
X2901279Y2724919D1*
X2907315Y2730955D1*
X2919529Y2736992D1*
X2937779D1*
X2949852Y2730955D1*
X2962065Y2718742D1*
X2968102Y2700492D1*
Y2688419D1*
X2962065Y2670169D1*
X2949852Y2658096D1*
X2937779Y2651919D1*
X2919529D1*
X2907315Y2658096D1*
X2895242Y2670169D1*
X2856026Y2736992D2*
Y2651919D1*
Y2712705D2*
X2837776Y2730955D1*
X2825563Y2736992D1*
X2807453D1*
X2795240Y2730955D1*
X2789203Y2712705D1*
Y2651919D1*
X2683165Y2718742D2*
X2689201Y2730955D1*
X2707451Y2736992D1*
X2725701D1*
X2743951Y2730955D1*
X2749988Y2718742D1*
X2743951Y2706669D1*
X2731738Y2700492D1*
X2701415Y2694455D1*
X2689201Y2688419D1*
X2683165Y2676205D1*
Y2670169D1*
X2689201Y2658096D1*
X2707451Y2651919D1*
X2725701D1*
X2743951Y2658096D1*
X2749988Y2670169D1*
X2613626Y2736992D2*
X2625699Y2730955D1*
X2637912Y2718742D1*
X2643949Y2700492D1*
Y2688419D1*
X2637912Y2670169D1*
X2625699Y2658096D1*
X2613626Y2651919D1*
X2595376D1*
X2583162Y2658096D1*
X2571089Y2670169D1*
X2564912Y2688419D1*
Y2700492D1*
X2571089Y2718742D1*
X2583162Y2730955D1*
X2595376Y2736992D1*
X2613626D1*
X2525697D2*
Y2651919D1*
Y2700492D2*
X2519520Y2718742D1*
X2507447Y2730955D1*
X2495233Y2736992D1*
X2476983D1*
X2314321Y2779528D2*
Y2651919D1*
Y2718742D2*
X2302108Y2730955D1*
X2290034Y2736992D1*
X2271784D1*
X2259711Y2730955D1*
X2247498Y2718742D1*
X2241461Y2700492D1*
Y2688419D1*
X2247498Y2670169D1*
X2259711Y2658096D1*
X2271784Y2651919D1*
X2290034D1*
X2302108Y2658096D1*
X2314321Y2670169D1*
X2171923Y2736992D2*
X2183996Y2730955D1*
X2196209Y2718742D1*
X2202246Y2700492D1*
Y2688419D1*
X2196209Y2670169D1*
X2183996Y2658096D1*
X2171923Y2651919D1*
X2153673D1*
X2141459Y2658096D1*
X2129386Y2670169D1*
X2123209Y2688419D1*
Y2700492D1*
X2129386Y2718742D1*
X2141459Y2730955D1*
X2153673Y2736992D1*
X2171923D1*
X2011134D2*
Y2651919D1*
Y2718742D2*
X2023207Y2730955D1*
X2035420Y2736992D1*
X2053530D1*
X2065743Y2730955D1*
X2077817Y2718742D1*
X2083993Y2700492D1*
Y2688419D1*
X2077817Y2670169D1*
X2065743Y2658096D1*
X2053530Y2651919D1*
X2035420D1*
X2023207Y2658096D1*
X2011134Y2670169D1*
X1971918Y2736992D2*
Y2651919D1*
Y2700492D2*
X1965741Y2718742D1*
X1953668Y2730955D1*
X1941455Y2736992D1*
X1923205D1*
X1811129Y2779528D2*
Y2651919D1*
Y2718742D2*
X1823202Y2730955D1*
X1835416Y2736992D1*
X1853666D1*
X1865739Y2730955D1*
X1877952Y2718742D1*
X1883989Y2700492D1*
Y2688419D1*
X1877952Y2670169D1*
X1865739Y2658096D1*
X1853666Y2651919D1*
X1835416D1*
X1823202Y2658096D1*
X1811129Y2670169D1*
X1648467Y2736992D2*
X1611967Y2651919D1*
X1575608Y2736992D1*
X1499892Y2779388D2*
X1518142Y2773351D1*
X1530355Y2755101D1*
X1536392Y2724778D1*
Y2706528D1*
X1530355Y2676205D1*
X1518142Y2657955D1*
X1499892Y2651919D1*
X1487819D1*
X1469569Y2657955D1*
X1457496Y2676205D1*
X1451319Y2706528D1*
Y2724778D1*
X1457496Y2755101D1*
X1469569Y2773351D1*
X1487819Y2779388D1*
X1499892D1*
X1457496Y2755101D2*
X1530355Y2676205D1*
X1406067Y2664132D2*
X1412103Y2657955D1*
X1406067Y2651919D1*
X1399890Y2657955D1*
X1406067Y2664132D1*
X1360674Y2755101D2*
X1348461Y2761278D1*
X1330211Y2779388D1*
Y2651919D1*
X3519020Y419525D2*
Y291915D1*
X3464270D1*
X3446020Y298092D1*
X3439984Y304129D1*
X3433947Y316202D1*
Y334452D1*
X3439984Y346665D1*
X3446020Y352702D1*
X3464270Y358738D1*
X3446020Y364915D1*
X3439984Y370952D1*
X3433947Y383025D1*
Y395238D1*
X3439984Y407311D1*
X3446020Y413488D1*
X3464270Y419525D1*
X3519020D1*
Y358738D2*
X3464270D1*
X3364409Y376988D2*
X3376482Y370952D1*
X3388695Y358738D1*
X3394732Y340488D1*
Y328415D1*
X3388695Y310165D1*
X3376482Y298092D1*
X3364409Y291915D1*
X3346159D1*
X3333945Y298092D1*
X3321872Y310165D1*
X3315695Y328415D1*
Y340488D1*
X3321872Y358738D1*
X3333945Y370952D1*
X3346159Y376988D1*
X3364409D1*
X3203620D2*
Y291915D1*
Y358738D2*
X3215693Y370952D1*
X3227906Y376988D1*
X3246016D1*
X3258229Y370952D1*
X3270303Y358738D1*
X3276479Y340488D1*
Y328415D1*
X3270303Y310165D1*
X3258229Y298092D1*
X3246016Y291915D1*
X3227906D1*
X3215693Y298092D1*
X3203620Y310165D1*
X3164404Y376988D2*
Y291915D1*
Y340488D2*
X3158227Y358738D1*
X3146154Y370952D1*
X3133941Y376988D1*
X3115691D1*
X3003615Y419525D2*
Y291915D1*
Y358738D2*
X3015688Y370952D1*
X3027902Y376988D1*
X3046152D1*
X3058225Y370952D1*
X3070438Y358738D1*
X3076475Y340488D1*
Y328415D1*
X3070438Y310165D1*
X3058225Y298092D1*
X3046152Y291915D1*
X3027902D1*
X3015688Y298092D1*
X3003615Y310165D1*
X2768094Y419525D2*
Y291915D1*
Y358738D2*
X2780167Y370952D1*
X2792380Y376988D1*
X2810630D1*
X2822703Y370952D1*
X2834917Y358738D1*
X2840953Y340488D1*
Y328415D1*
X2834917Y310165D1*
X2822703Y298092D1*
X2810630Y291915D1*
X2792380D1*
X2780167Y298092D1*
X2768094Y310165D1*
X2728878Y419525D2*
X2722841Y413488D1*
X2716664Y419525D1*
X2722841Y425702D1*
X2728878Y419525D1*
X2722841Y376988D2*
Y291915D1*
X2677449Y376988D2*
Y291915D1*
Y352702D2*
X2659199Y370952D1*
X2646985Y376988D1*
X2628876D1*
X2616662Y370952D1*
X2610626Y352702D1*
Y291915D1*
Y352702D2*
X2592376Y370952D1*
X2580162Y376988D1*
X2562053D1*
X2549839Y370952D1*
X2543662Y352702D1*
Y291915D1*
X2437623Y358738D2*
X2443660Y370952D1*
X2461910Y376988D1*
X2480160D1*
X2498410Y370952D1*
X2504447Y358738D1*
X2498410Y346665D1*
X2486197Y340488D1*
X2455873Y334452D1*
X2443660Y328415D1*
X2437623Y316202D1*
Y310165D1*
X2443660Y298092D1*
X2461910Y291915D1*
X2480160D1*
X2498410Y298092D1*
X2504447Y310165D1*
X2392231Y376988D2*
X2398408Y370811D1*
X2392231Y364775D1*
X2386194Y370811D1*
X2392231Y376988D1*
Y304129D2*
X2398408Y297952D1*
X2392231Y291915D1*
X2386194Y297952D1*
X2392231Y304129D1*
X2150673Y419385D2*
X2211319D1*
X2217355Y364775D1*
X2211319Y370811D1*
X2193069Y376988D1*
X2174959D1*
X2156709Y370811D1*
X2144496Y358738D1*
X2138459Y340488D1*
Y328415D1*
X2144496Y310165D1*
X2156709Y297952D1*
X2174959Y291915D1*
X2193069D1*
X2211319Y297952D1*
X2217355Y304129D1*
X2223532Y316202D1*
X2062743Y419385D2*
X2080993Y413348D1*
X2093207Y395098D1*
X2099243Y364775D1*
Y346525D1*
X2093207Y316202D1*
X2080993Y297952D1*
X2062743Y291915D1*
X2050670D1*
X2032420Y297952D1*
X2020347Y316202D1*
X2014170Y346525D1*
Y364775D1*
X2020347Y395098D1*
X2032420Y413348D1*
X2050670Y419385D1*
X2062743D1*
X2020347Y395098D2*
X2093207Y316202D1*
X1944491Y392080D2*
Y319220D1*
X1974955Y373970D2*
X1914168Y337470D1*
Y373970D2*
X1974955Y337470D1*
X1862739Y419385D2*
X1796056D1*
X1832416Y370811D1*
X1814166D1*
X1802093Y364775D1*
X1796056Y358738D1*
X1789879Y340488D1*
Y328415D1*
X1796056Y310165D1*
X1808129Y297952D1*
X1826379Y291915D1*
X1844629D1*
X1862739Y297952D1*
X1868776Y304129D1*
X1874952Y316202D1*
X1714164Y419385D2*
X1732414Y413348D1*
X1744627Y395098D1*
X1750664Y364775D1*
Y346525D1*
X1744627Y316202D1*
X1732414Y297952D1*
X1714164Y291915D1*
X1702091D1*
X1683841Y297952D1*
X1671768Y316202D1*
X1665591Y346525D1*
Y364775D1*
X1671768Y395098D1*
X1683841Y413348D1*
X1702091Y419385D1*
X1714164D1*
X1671768Y395098D2*
X1744627Y316202D1*
X4058668Y1849302D2*
X4046595Y1837088D1*
X4028345Y1831052D1*
X4004059D1*
X3985809Y1837088D1*
X3973595Y1849302D1*
Y1861375D1*
X3979772Y1873588D1*
X3985809Y1879625D1*
X3997882Y1885661D1*
X4034382Y1897875D1*
X4046595Y1903911D1*
X4052632Y1910088D1*
X4058668Y1922161D1*
Y1940411D1*
X4046595Y1952484D1*
X4028345Y1958661D1*
X4004059D1*
X3985809Y1952484D1*
X3973595Y1940411D1*
X4097884Y1831052D2*
Y1958661D1*
X4140421D1*
X4158671Y1952485D1*
X4170884Y1940411D1*
X4176921Y1928198D1*
X4182957Y1910088D1*
Y1879625D1*
X4176920Y1861375D1*
X4170884Y1849302D1*
X4158670Y1837088D1*
X4140420Y1831052D1*
X4097884D1*
X4319459Y1958661D2*
X4270746Y1831052D1*
X4222173Y1958661D1*
X4240423Y1916125D2*
X4301209D1*
X4077059Y1593302D2*
X4064986Y1581088D1*
X4046736Y1575052D1*
X4022449D1*
X4004199Y1581088D1*
X3991986Y1593302D1*
Y1605375D1*
X3998163Y1617588D1*
X4004199Y1623625D1*
X4016272Y1629661D1*
X4052772Y1641875D1*
X4064986Y1647911D1*
X4071022Y1654088D1*
X4077059Y1666161D1*
Y1684411D1*
X4064986Y1696485D1*
X4046736Y1702661D1*
X4022449D1*
X4004199Y1696484D1*
X3991986Y1684411D1*
X4207384Y1605375D2*
X4201347Y1593302D1*
X4189134Y1581088D1*
X4177061Y1575052D1*
X4152774D1*
X4140561Y1581088D1*
X4128488Y1593302D1*
X4122311Y1605375D1*
X4116274Y1623625D1*
Y1654088D1*
X4122311Y1672198D1*
X4128488Y1684411D1*
X4140561Y1696485D1*
X4152774Y1702661D1*
X4177061D1*
X4189134Y1696485D1*
X4201347Y1684412D1*
X4207384Y1672198D1*
X4246600Y1575052D2*
Y1702662D1*
X4319459Y1702661D1*
X4070882Y2117375D2*
X4064845Y2105302D1*
X4052632Y2093088D1*
X4040559Y2087052D1*
X4016272D1*
X4004059Y2093088D1*
X3991986Y2105302D1*
X3985809Y2117375D1*
X3979772Y2135625D1*
Y2166088D1*
X3985809Y2184198D1*
X3991986Y2196411D1*
X4004059Y2208484D1*
X4016272Y2214661D1*
X4040559D1*
X4052632Y2208485D1*
X4064845Y2196411D1*
X4070882Y2184198D1*
Y2166088D1*
X4040559D1*
X4195170Y2087052D2*
X4195171Y2214661D1*
X4110097Y2087052D1*
X4110098Y2214661D1*
X4234386Y2087052D2*
Y2214662D1*
X4276923D1*
X4295173Y2208485D1*
X4307386Y2196411D1*
X4313423Y2184198D1*
X4319459Y2166088D1*
Y2135625D1*
X4313423Y2117375D1*
X4307386Y2105302D1*
X4295173Y2093088D1*
X4276923Y2087052D1*
X4234386D1*
X3895304Y1093375D2*
X3889268Y1081302D1*
X3877054Y1069088D1*
X3864981Y1063052D1*
X3840695D1*
X3828481Y1069088D1*
X3816408Y1081302D1*
X3810231Y1093375D1*
X3804195Y1111625D1*
Y1142088D1*
X3810231Y1160198D1*
X3816408Y1172411D1*
X3828481Y1184484D1*
X3840695Y1190661D1*
X3864981D1*
X3877054Y1184484D1*
X3889268Y1172411D1*
X3895304Y1160198D1*
Y1142088D1*
X3864981D1*
X3934520Y1129875D2*
X3989270D1*
X4007380Y1123838D1*
X4013557Y1117661D1*
X4019593Y1105588D1*
Y1087338D1*
X4013557Y1075265D1*
X4007380Y1069088D1*
X3989270Y1063052D1*
X3934520D1*
Y1190661D1*
X4058809Y1063052D2*
Y1190661D1*
X4134524Y1063052D2*
X4122311Y1069088D1*
X4110238Y1081302D1*
X4104061Y1093375D1*
X4098024Y1111625D1*
Y1142088D1*
X4104061Y1160198D1*
X4110238Y1172411D1*
X4122311Y1184485D1*
X4134524Y1190661D1*
X4158811D1*
X4170884Y1184485D1*
X4183098Y1172411D1*
X4189134Y1160198D1*
X4195171Y1142088D1*
X4195170Y1111625D1*
X4189134Y1093375D1*
X4183097Y1081302D1*
X4170884Y1069088D1*
X4158811Y1063052D1*
X4134524D1*
X4240563Y1093515D2*
Y1087479D1*
X4246600Y1075265D1*
X4252636Y1069229D1*
X4264849Y1063192D1*
X4289136D1*
X4301209Y1069229D1*
X4307246Y1075265D1*
X4313423Y1087479D1*
Y1099552D1*
X4307246Y1111765D1*
X4295173Y1129875D1*
X4234386Y1190662D1*
X4319459Y1190661D1*
X4004059Y816247D2*
Y925607D1*
X3949449Y870997D2*
X4058809D1*
X4170884Y807192D2*
X4110238D1*
X4104201Y861802D1*
X4110238Y855765D1*
X4128488Y849588D1*
X4146597D1*
X4164847Y855765D1*
X4177061Y867838D1*
X4183097Y886088D1*
Y898162D1*
X4177061Y916411D1*
X4164848Y928625D1*
X4146598Y934661D1*
X4128488D1*
X4110238Y928625D1*
X4104201Y922448D1*
X4098024Y910375D1*
X4222313Y807052D2*
X4270886Y934662D1*
X4319459Y807052D1*
X3949914Y1349375D2*
X3943877Y1337302D1*
X3931664Y1325088D1*
X3919591Y1319052D1*
X3895304D1*
X3883091Y1325088D1*
X3871018Y1337302D1*
X3864841Y1349375D1*
X3858804Y1367625D1*
Y1398088D1*
X3864841Y1416198D1*
X3871018Y1428411D1*
X3883091Y1440484D1*
X3895304Y1446661D1*
X3919591D1*
X3931664Y1440484D1*
X3943877Y1428411D1*
X3949914Y1416198D1*
Y1398088D1*
X3919591D1*
X3989130Y1385875D2*
X4043880D1*
X4061989Y1379838D1*
X4068166Y1373661D1*
X4074203Y1361588D1*
Y1343338D1*
X4068166Y1331265D1*
X4061989Y1325088D1*
X4043880Y1319052D1*
X3989130D1*
Y1446661D1*
X4113418Y1319052D2*
Y1446661D1*
X4189134Y1319052D2*
X4176920Y1325088D1*
X4164847Y1337302D1*
X4158670Y1349375D1*
X4152634Y1367625D1*
Y1398088D1*
X4158671Y1416198D1*
X4164848Y1428411D1*
X4176921Y1440485D1*
X4189134Y1446661D1*
X4213421D1*
X4225494Y1440485D1*
X4237707Y1428412D1*
X4243744Y1416198D1*
X4249780Y1398088D1*
Y1367625D1*
X4243743Y1349375D1*
X4237707Y1337302D1*
X4225493Y1325088D1*
X4213420Y1319052D1*
X4189134D1*
X4288996Y1343479D2*
X4301209Y1337302D1*
X4319459Y1319192D1*
Y1446661D1*
X2916601Y2579528D2*
X2868028Y2451919D1*
X2819455Y2579528D1*
X2780239D2*
Y2451919D1*
X2707380D1*
X2668164Y2579528D2*
Y2451919D1*
X2628949Y2579528D2*
X2543875D1*
X2628949Y2451919D1*
X2543875D1*
X2375036Y2549065D2*
Y2555101D1*
X2369000Y2567315D1*
X2362963Y2573351D1*
X2350750Y2579388D1*
X2326463D1*
X2314390Y2573351D1*
X2308354Y2567315D1*
X2302177Y2555101D1*
Y2543028D1*
X2308354Y2530815D1*
X2320427Y2512705D1*
X2381213Y2451919D1*
X2296140D1*
X2220425Y2579388D2*
X2238675Y2573351D1*
X2250888Y2555101D1*
X2256925Y2524778D1*
Y2506528D1*
X2250888Y2476205D1*
X2238675Y2457955D1*
X2220425Y2451919D1*
X2208351D1*
X2190101Y2457955D1*
X2178028Y2476205D1*
X2171851Y2506528D1*
Y2524778D1*
X2178028Y2555101D1*
X2190101Y2573351D1*
X2208351Y2579388D1*
X2220425D1*
X2178028Y2555101D2*
X2250888Y2476205D1*
X2126459Y2549065D2*
Y2555101D1*
X2120422Y2567315D1*
X2114386Y2573351D1*
X2102172Y2579388D1*
X2077886D1*
X2065813Y2573351D1*
X2059776Y2567315D1*
X2053599Y2555101D1*
Y2543028D1*
X2059776Y2530815D1*
X2071849Y2512705D1*
X2132636Y2451919D1*
X2047563D1*
X1971847Y2579388D2*
X1990097Y2573351D1*
X2002310Y2555101D1*
X2008347Y2524778D1*
Y2506528D1*
X2002310Y2476205D1*
X1990097Y2457955D1*
X1971847Y2451919D1*
X1959774D1*
X1941524Y2457955D1*
X1929451Y2476205D1*
X1923274Y2506528D1*
Y2524778D1*
X1929451Y2555101D1*
X1941524Y2573351D1*
X1959774Y2579388D1*
X1971847D1*
X1929451Y2555101D2*
X2002310Y2476205D1*
M02*
