G04 DipTrace 3.3.1.3*
G04 HypermaqI2Csensorboardv0.1.gtl*
%MOMM*%
G04 #@! TF.FileFunction,Copper,L1,Top*
G04 #@! TF.Part,Single*
%AMOUTLINE0*
4,1,4,
0.9398,0.9398,
0.9398,-0.9398,
-0.9398,-0.9398,
-0.9398,0.9398,
0.9398,0.9398,
0*%
G04 #@! TA.AperFunction,Conductor*
%ADD14C,0.889*%
%ADD15C,0.762*%
%ADD16C,1.143*%
%ADD17C,0.635*%
%ADD18C,0.2032*%
G04 #@! TA.AperFunction,ViaPad*
%ADD19C,1.016*%
G04 #@! TA.AperFunction,Conductor*
%ADD20C,0.381*%
%ADD21C,0.2286*%
%ADD22C,0.254*%
%ADD23C,0.3*%
%ADD24C,0.508*%
%ADD25C,0.23*%
%ADD26C,1.2*%
G04 #@! TA.AperFunction,ViaPad*
%ADD27C,1.27*%
G04 #@! TA.AperFunction,ComponentPad*
%ADD29R,4.0X3.0*%
%ADD32R,1.0X1.1*%
%ADD33R,1.1X1.0*%
%ADD36R,0.8X1.2*%
%ADD37R,0.9X0.7*%
%ADD39R,0.6X0.6*%
%ADD40R,0.8X0.8*%
G04 #@! TA.AperFunction,ComponentPad*
%ADD42C,2.159*%
%ADD43R,0.8X0.9*%
G04 #@! TA.AperFunction,ComponentPad*
%ADD44C,2.0*%
%ADD46R,0.23X0.4*%
%ADD47R,0.4X0.23*%
%ADD49R,0.85X0.3*%
%ADD50R,1.1X1.6*%
%ADD52R,2.15X0.95*%
%ADD53R,2.15X3.25*%
%ADD55O,2.5X1.2*%
G04 #@! TA.AperFunction,ComponentPad*
%ADD96OUTLINE0*%
%FSLAX35Y35*%
G04*
G71*
G90*
G75*
G01*
G04 Top*
%LPD*%
X1186000Y2430000D2*
D14*
Y2331310D1*
X1110573D1*
X1079263Y2300000D1*
X995000D1*
Y2110000D1*
X940000D1*
X995000Y2300000D2*
X1083283D1*
X1118283Y2335000D1*
X1351000D1*
X1401000D1*
X1506000Y2230000D1*
X1626000D1*
X1796000Y2060000D1*
X1936000D1*
X921173Y2477133D2*
D15*
Y2510000D1*
X900000D1*
X4266000Y1340000D2*
D16*
Y2527663D1*
X1716000Y2840000D2*
D17*
X1530000D1*
X900000Y2510000D2*
D15*
X880000Y2490000D1*
D14*
X810000D1*
X500000Y2180000D1*
D17*
Y2130000D1*
X1520000Y1880000D2*
D19*
X1250000D1*
X940000D1*
D20*
D3*
X836000Y2640000D2*
D19*
X710000Y2760000D1*
X1250000Y1880000D2*
D20*
D3*
X1351000Y2505000D2*
Y2500000D1*
D19*
X1500000D1*
D20*
Y2510000D1*
X1139000Y1239500D2*
D19*
X1266000D1*
D20*
Y1250750D1*
X3146793Y1976407D2*
D21*
X3107607D1*
X3101230Y1970030D1*
X3288340Y1974173D2*
D22*
X3264167Y1950000D1*
D17*
X3150000D1*
D22*
X3140000Y1960000D1*
X3101230D1*
Y1970030D1*
X2596000Y2270000D2*
D19*
Y2380000D1*
D20*
X2600000D1*
X2776000Y1260000D2*
D19*
X2660000D1*
X2704437Y1802770D2*
Y1660000D1*
D20*
X2700000D1*
X3520980Y1852430D2*
D19*
X3646880D1*
Y1854687D1*
X3380793Y2265923D2*
D17*
Y2289207D1*
X3340000Y2330000D1*
X3290000D1*
X2400617Y906337D2*
D23*
X2332717D1*
D24*
X2305617D1*
X2280617Y931337D1*
X2160617Y906337D2*
D23*
X2228517D1*
D24*
X2255617D1*
X2280617Y931337D1*
X2160617Y856337D2*
D23*
X2176953Y840000D1*
D24*
X2189280D1*
X2280617Y931337D1*
X2070000Y860000D2*
D23*
X2156000D1*
Y856337D1*
X2160617D1*
X2400617Y906337D2*
X2468517D1*
D24*
X2521917D1*
X2528447Y899807D1*
X1860000Y1080000D2*
D19*
X1740000D1*
Y1070000D1*
X1540843Y2096887D2*
Y1900843D1*
X1520000Y1880000D1*
X1540843Y1608270D2*
Y1859157D1*
X1520000Y1880000D1*
X1680000D1*
X2926713Y2277407D2*
D18*
X2757407D1*
X2730000Y2250000D1*
X3058253Y2283803D2*
Y2419617D1*
X3037527Y2440343D1*
X2972253Y2283803D2*
Y2432777D1*
X3005073Y2465597D1*
X3012273D1*
X3037527Y2440343D1*
X3015253Y2283803D2*
Y2414357D1*
X3028950Y2428053D1*
Y2431767D1*
X3037527Y2440343D1*
X3101253Y2283803D2*
Y2426087D1*
X3086997Y2440343D1*
X3037527D1*
X3146793Y2277407D2*
D22*
X3169387Y2300000D1*
D24*
X3260000D1*
D18*
X3290000Y2330000D1*
X2926713Y2191407D2*
X2790573D1*
X2771633Y2210347D1*
X2769653D1*
X2730000Y2250000D1*
X2926713Y2234407D2*
X2745593D1*
X2730000Y2250000D1*
X1715000Y2355000D2*
D24*
X1655000D1*
X1500000Y2510000D1*
X2160617Y906337D2*
D23*
X2117094Y862814D1*
D20*
X2072814D1*
X2070000Y860000D1*
X487300Y1622000D2*
D17*
X513750D1*
X880000Y1255750D1*
Y810000D1*
X1220000Y470000D1*
X4376000D1*
X4690000Y784000D1*
Y1250000D1*
X4562000Y1378000D1*
X4512700D1*
X512700Y1876000D2*
X484000D1*
X1010000Y1350000D1*
Y850000D1*
X1260000Y600000D1*
X4120000D1*
X4314000Y794000D1*
Y996750D1*
X4504500Y1187250D1*
Y1141200D1*
X4487300Y1124000D1*
X1006000Y2640000D2*
X1186000D1*
D20*
Y2650000D1*
Y2561467D1*
X1016423Y2391890D1*
X896890D1*
X805000Y2300000D1*
X2926713Y2019407D2*
D25*
X2894013D1*
D22*
X2751073D1*
X2704437Y1972770D1*
X2926713Y2148407D2*
X2596000D1*
Y2140000D1*
X1716000Y2690000D2*
D17*
Y2525000D1*
X1715000D1*
X512700Y1368000D2*
X609000D1*
X758000Y1219000D1*
Y632000D1*
X1060000Y330000D1*
X2817097D1*
X4500000D1*
X4790250Y620250D1*
Y1409750D1*
X4527650Y1672350D1*
X4487300Y1632000D1*
X2972253Y1970007D2*
D18*
X2966000D1*
Y1930000D1*
X2896000Y1860000D1*
Y1770000D1*
X3096000Y1570000D2*
D14*
Y1210000D1*
X2919710Y1033710D1*
D20*
Y990000D1*
X2960000D1*
Y1050000D1*
D14*
X2450000D1*
D20*
X2406337Y1006337D1*
X2400617D1*
X2936000Y940000D2*
D18*
X2919710D1*
Y990000D1*
X487300Y1114000D2*
D17*
X576000D1*
X662750Y1027250D1*
Y447250D1*
X910000Y200000D1*
X2406000D1*
X3246000D1*
X4630000D1*
X4900000Y470000D1*
Y1586000D1*
X4596000Y1890000D1*
X4516700D1*
X4512700Y1886000D1*
X2400617Y856337D2*
D22*
Y737283D1*
X3246000Y940000D2*
D18*
X3296000D1*
D14*
Y1610000D1*
X3176000Y1810000D2*
D20*
X3077183Y1908817D1*
D18*
X3088680D1*
X3058253Y1939243D1*
Y1970007D1*
X940000Y1650000D2*
D19*
Y1608500D1*
X1139000Y1409500D1*
X2926713Y2105407D2*
D18*
Y2062407D1*
D22*
X2970300D1*
X3015253Y2017453D1*
Y1970007D1*
X3146793Y2062407D2*
D25*
X3143900Y2059513D1*
D22*
Y2039967D1*
X3146793Y2037073D1*
D25*
Y2019407D1*
X3143900Y2059513D2*
D22*
X3344383D1*
X3380793Y2095923D1*
D24*
X3396890D1*
Y1898340D1*
X3350980Y1852430D1*
Y1834980D1*
X3216000Y1700000D1*
X3105303D1*
X3015253Y1790050D1*
X2996000Y1809303D1*
Y1716000D1*
X2950000Y1670000D1*
Y1260000D1*
X2956000D1*
X2030000Y1080000D2*
Y1050000D1*
X2073663Y1006337D1*
D23*
X2160617D1*
X1139000Y1409500D2*
D19*
X1810743D1*
X2030000D1*
X2900500D1*
X2956000Y1354000D1*
Y1260000D1*
X2030000Y1080000D2*
Y1409500D1*
X2926713Y2105407D2*
D18*
X2724917D1*
X2926713Y2062407D2*
X2722277D1*
X1856000Y1380000D2*
X1840243D1*
X1810743Y1409500D1*
X3015253Y1970007D2*
D25*
Y1840000D1*
D17*
Y1790050D1*
X2926737Y1976423D2*
D25*
X2903613Y1953300D1*
D22*
X2806000Y1855687D1*
Y1730000D1*
X2866000Y1670000D1*
X2950000D1*
X1936000Y1860000D2*
D26*
Y1736500D1*
D27*
Y1460000D1*
X1856000Y1380000D1*
X4266000Y1340000D3*
Y2527663D3*
D19*
X1530000Y2840000D3*
X2896000Y1770000D3*
X3096000Y1570000D3*
X2817097Y330000D3*
D3*
X2400617Y737283D3*
X2406000Y200000D3*
D27*
X3296000Y1610000D3*
D19*
X3176000Y1810000D3*
X3246000Y200000D3*
D27*
X2700000Y1660000D3*
X3646880Y1854687D3*
X3290000Y2330000D3*
X2070000Y860000D3*
X2528447Y899807D3*
X3037527Y2440343D3*
X2730000Y2250000D3*
D19*
X3288340Y1974173D3*
D27*
X2600000Y2380000D3*
D19*
X710000Y2760000D3*
D27*
X1500000Y2510000D3*
X1250000Y1880000D3*
X1266000Y1250750D3*
X2660000Y1260000D3*
X1740000Y1070000D3*
X1680000Y1880000D3*
X1540843Y1608270D3*
Y2096887D3*
D29*
X1856000Y1380000D3*
D32*
X1351000Y2335000D3*
Y2505000D3*
X1139000Y1409500D3*
Y1239500D3*
D33*
X3350980Y1852430D3*
X3520980D3*
D32*
X3380793Y2095923D3*
Y2265923D3*
D36*
X2956000Y1260000D3*
X2776000D3*
D33*
X2030000Y1080000D3*
X1860000D3*
D32*
X2704437Y1972770D3*
Y1802770D3*
D37*
X2596000Y2140000D3*
Y2270000D3*
D39*
X1186000Y2430000D3*
Y2650000D3*
D40*
X1716000Y2840000D3*
Y2690000D3*
D29*
X1380000Y960000D3*
D96*
X4500000Y2140000D3*
D42*
X4512700Y1886000D3*
X4487300Y1632000D3*
X4512700Y1378000D3*
X4487300Y1124000D3*
X4500000Y870000D3*
D96*
X500000Y860000D3*
D42*
X487300Y1114000D3*
X512700Y1368000D3*
X487300Y1622000D3*
X512700Y1876000D3*
X500000Y2130000D3*
D43*
X900000Y2510000D3*
X995000Y2300000D3*
X805000D3*
D33*
X836000Y2640000D3*
X1006000D3*
D32*
X1715000Y2355000D3*
Y2525000D3*
D44*
X2936000Y940000D3*
X3246000D3*
D46*
X2972253Y1970007D3*
X3015253D3*
X3058253D3*
X3101230Y1970030D3*
D47*
X3146793Y1976407D3*
Y2019407D3*
Y2062407D3*
Y2105407D3*
Y2148407D3*
Y2191407D3*
Y2234407D3*
Y2277407D3*
D46*
X3101253Y2283803D3*
X3058253D3*
X3015253D3*
X2972253D3*
D47*
X2926713Y2277407D3*
Y2234407D3*
Y2191407D3*
Y2148407D3*
Y2105407D3*
Y2062407D3*
Y2019407D3*
X2926737Y1976423D3*
D49*
X2400617Y856337D3*
Y906337D3*
Y956337D3*
Y1006337D3*
X2160617D3*
Y956337D3*
Y906337D3*
Y856337D3*
D50*
X2280617Y931337D3*
D52*
X940000Y2110000D3*
Y1880000D3*
Y1650000D3*
D53*
X1520000Y1880000D3*
D55*
X1936000Y1860000D3*
Y2060000D3*
M02*
