G04 DipTrace 3.3.1.3*
G04 HypermaqI2Csensorboardv0.1.gts*
%MOMM*%
G04 #@! TF.FileFunction,Soldermask,Top*
G04 #@! TF.Part,Single*
%AMOUTLINE0*
4,1,4,
0.9398,0.9398,
0.9398,-0.9398,
-0.9398,-0.9398,
-0.9398,0.9398,
0.9398,0.9398,
0*%
%ADD32R,1.0X1.1*%
%ADD33R,1.1X1.0*%
%ADD37R,0.9X0.7*%
%ADD40R,0.8X0.8*%
%ADD42C,2.159*%
%ADD43R,0.8X0.9*%
%ADD44C,2.0*%
%ADD55O,2.5X1.2*%
%ADD56C,3.0*%
%ADD65R,2.35X3.45*%
%ADD67R,2.35X1.15*%
%ADD69R,1.3X1.8*%
%ADD71R,1.05X0.5*%
%ADD73R,0.6X0.43*%
%ADD75R,0.43X0.6*%
%ADD86R,1.0X1.4*%
%ADD91R,4.2X3.2*%
%ADD96OUTLINE0*%
%FSLAX35Y35*%
G04*
G71*
G90*
G75*
G01*
G04 TopMask*
%LPD*%
D91*
X1856000Y1380000D3*
D32*
X1351000Y2335000D3*
Y2505000D3*
X1139000Y1409500D3*
Y1239500D3*
D33*
X3350980Y1852430D3*
X3520980D3*
D32*
X3380793Y2095923D3*
Y2265923D3*
D86*
X2956000Y1260000D3*
X2776000D3*
D33*
X2030000Y1080000D3*
X1860000D3*
D32*
X2704437Y1972770D3*
Y1802770D3*
D37*
X2596000Y2140000D3*
Y2270000D3*
D40*
X1186000Y2430000D3*
Y2650000D3*
X1716000Y2840000D3*
Y2690000D3*
D91*
X1380000Y960000D3*
D96*
X4500000Y2140000D3*
D42*
X4512700Y1886000D3*
X4487300Y1632000D3*
X4512700Y1378000D3*
X4487300Y1124000D3*
X4500000Y870000D3*
D96*
X500000Y860000D3*
D42*
X487300Y1114000D3*
X512700Y1368000D3*
X487300Y1622000D3*
X512700Y1876000D3*
X500000Y2130000D3*
D43*
X900000Y2510000D3*
X995000Y2300000D3*
X805000D3*
D33*
X836000Y2640000D3*
X1006000D3*
D32*
X1715000Y2355000D3*
Y2525000D3*
D44*
X2936000Y940000D3*
X3246000D3*
D75*
X2972253Y1970007D3*
X3015253D3*
X3058253D3*
X3101230Y1970030D3*
D73*
X3146793Y1976407D3*
Y2019407D3*
Y2062407D3*
Y2105407D3*
Y2148407D3*
Y2191407D3*
Y2234407D3*
Y2277407D3*
D75*
X3101253Y2283803D3*
X3058253D3*
X3015253D3*
X2972253D3*
D73*
X2926713Y2277407D3*
Y2234407D3*
Y2191407D3*
Y2148407D3*
Y2105407D3*
Y2062407D3*
Y2019407D3*
X2926737Y1976423D3*
D71*
X2400617Y856337D3*
Y906337D3*
Y956337D3*
Y1006337D3*
X2160617D3*
Y956337D3*
Y906337D3*
Y856337D3*
D69*
X2280617Y931337D3*
D67*
X940000Y2110000D3*
Y1880000D3*
Y1650000D3*
D65*
X1520000Y1880000D3*
D55*
X1936000Y1860000D3*
Y2060000D3*
D56*
X350000Y350000D3*
X4650000Y2650000D3*
M02*
