G04 DipTrace 3.3.1.3*
G04 HypermaqI2Csensorboardv0.1.gto*
%MOMM*%
G04 #@! TF.FileFunction,Legend,Top*
G04 #@! TF.Part,Single*
%ADD10C,0.25*%
%ADD18C,0.2032*%
%ADD22C,0.254*%
%ADD35C,0.1524*%
%ADD38O,0.23999X0.23961*%
%ADD45C,0.127*%
%ADD48O,0.3916X0.39148*%
%ADD51O,1.09392X1.13934*%
%ADD54O,0.41059X0.40856*%
%ADD93C,0.15686*%
%ADD94C,0.23529*%
%ADD95C,0.19608*%
%FSLAX35Y35*%
G04*
G71*
G90*
G75*
G01*
G04 TopSilk*
%LPD*%
X2094250Y1187617D2*
D10*
X1620617D1*
Y1569383D1*
X2094250D1*
Y1187617D1*
G36*
X1389103Y2397140D2*
X1312904D1*
Y2442849D1*
X1389103D1*
Y2397140D1*
G37*
G36*
X1100897Y1347360D2*
X1177096D1*
Y1301651D1*
X1100897D1*
Y1347360D1*
G37*
G36*
X3413120Y1814327D2*
X3458829D1*
Y1890526D1*
X3413120D1*
Y1814327D1*
G37*
G36*
X3418896Y2158063D2*
X3342697D1*
Y2203772D1*
X3418896D1*
Y2158063D1*
G37*
X2992465Y1185189D2*
D35*
X2737267Y1184812D1*
X2990064Y1333818D2*
X2741785Y1333893D1*
G36*
X1967860Y1118103D2*
X1922151D1*
Y1041904D1*
X1967860D1*
Y1118103D1*
G37*
G36*
X2666334Y1910630D2*
X2742533D1*
Y1864921D1*
X2666334D1*
Y1910630D1*
G37*
G36*
X2559598Y2185020D2*
X2631564D1*
Y2225332D1*
X2559598D1*
Y2185020D1*
G37*
X1126002Y2459987D2*
D10*
Y2619985D1*
X1245998Y2459987D2*
Y2619985D1*
D38*
X1186000Y2365987D3*
X1643210Y2893482D2*
D10*
X1789979D1*
Y2643845D1*
X1643210D1*
Y2893482D1*
X1791297Y2791006D2*
D18*
X1715995Y2790906D1*
X1651829Y2791430D2*
X1715995Y2790906D1*
X1768565Y2728147D1*
X1713462Y2789358D2*
X1661632Y2722805D1*
X1618250Y767617D2*
D10*
X1144617D1*
Y1149383D1*
X1618250D1*
Y767617D1*
X854512Y2324780D2*
X944009D1*
X820004Y2470010D2*
D18*
X760007D1*
Y2390000D1*
X979996Y2470010D2*
X1039993D1*
Y2390000D1*
G36*
X898140Y2601897D2*
X943849D1*
Y2678096D1*
X898140D1*
Y2601897D1*
G37*
G36*
X1753103Y2417140D2*
X1676904D1*
Y2462849D1*
X1753103D1*
Y2417140D1*
G37*
X2806000Y806433D2*
D10*
X3070133D1*
Y1070567D1*
X2806000D1*
Y806433D1*
X3116000D2*
X3380133D1*
Y1070567D1*
X3116000D1*
Y806433D1*
X3163840Y2135480D2*
D45*
G03X3036796Y2008444I-126989J-48D01*
G01*
X3011431Y2033842D1*
X3036796Y2008444D2*
X3011431Y1983046D1*
X2873373Y2276968D2*
D18*
Y2326947D1*
X2923367D1*
X3036796Y2160878D2*
D45*
Y2110034D1*
X2873373Y1986695D2*
D18*
Y1936716D1*
X2923367D1*
X3011431Y2135480D2*
D45*
X3062205D1*
X3157683Y1936716D2*
D18*
X3207676D1*
Y1986695D1*
X2919768Y1938396D2*
D10*
X2876062Y1984199D1*
X3160935Y2326947D2*
D18*
X3210928D1*
Y2276968D1*
X2777332Y1886953D2*
X2777431Y1889751D1*
X2777727Y1892536D1*
X2778219Y1895293D1*
X2778905Y1898010D1*
X2779781Y1900672D1*
X2780842Y1903268D1*
X2782085Y1905785D1*
X2783502Y1908210D1*
X2785087Y1910531D1*
X2786832Y1912737D1*
X2788728Y1914818D1*
X2790767Y1916763D1*
X2792938Y1918562D1*
X2795231Y1920208D1*
X2797635Y1921692D1*
X2800137Y1923006D1*
X2802727Y1924145D1*
X2805390Y1925103D1*
X2808114Y1925874D1*
X2810887Y1926456D1*
X2813693Y1926846D1*
X2816521Y1927041D1*
X2819355D1*
X2822183Y1926846D1*
X2824989Y1926456D1*
X2827762Y1925874D1*
X2830486Y1925103D1*
X2833149Y1924145D1*
X2835739Y1923006D1*
X2838241Y1921692D1*
X2840645Y1920208D1*
X2842938Y1918562D1*
X2845109Y1916763D1*
X2847148Y1914818D1*
X2849044Y1912737D1*
X2850789Y1910531D1*
X2852374Y1908210D1*
X2853791Y1905785D1*
X2855034Y1903268D1*
X2856095Y1900672D1*
X2856971Y1898010D1*
X2857657Y1895293D1*
X2858149Y1892536D1*
X2858445Y1889751D1*
X2858544Y1886953D1*
X2858445Y1884155D1*
X2858149Y1881370D1*
X2857657Y1878613D1*
X2856971Y1875896D1*
X2856095Y1873233D1*
X2855034Y1870638D1*
X2853791Y1868121D1*
X2852374Y1865696D1*
X2850789Y1863375D1*
X2849044Y1861169D1*
X2847148Y1859088D1*
X2845109Y1857143D1*
X2842938Y1855344D1*
X2840645Y1853698D1*
X2838241Y1852214D1*
X2835739Y1850900D1*
X2833149Y1849761D1*
X2830486Y1848803D1*
X2827762Y1848032D1*
X2824989Y1847449D1*
X2822183Y1847060D1*
X2819355Y1846864D1*
X2816521D1*
X2813693Y1847060D1*
X2810887Y1847449D1*
X2808114Y1848032D1*
X2805390Y1848803D1*
X2802727Y1849761D1*
X2800137Y1850900D1*
X2797635Y1852214D1*
X2795231Y1853698D1*
X2792938Y1855344D1*
X2790767Y1857143D1*
X2788728Y1859088D1*
X2786832Y1861169D1*
X2785087Y1863375D1*
X2783502Y1865696D1*
X2782085Y1868121D1*
X2780842Y1870638D1*
X2779781Y1873233D1*
X2778905Y1875896D1*
X2778219Y1878613D1*
X2777727Y1881370D1*
X2777431Y1884155D1*
X2777332Y1886953D1*
D48*
X2487410Y847975D3*
X2400516Y796890D2*
D10*
X2176759D1*
Y1058397D1*
X2400516D1*
Y796890D1*
D51*
X898326Y2244591D3*
X1090080Y2210020D2*
D10*
Y1550015D1*
X1369920Y2210020D2*
Y1550015D1*
X1090080D2*
X1369920D1*
X1090080Y2210020D2*
X1369920D1*
X2087997Y2152183D2*
X1789517D1*
Y1773883D1*
X2087997D1*
Y2152183D1*
D54*
X2126021Y2065174D3*
X1388853Y2933253D2*
D22*
X4210000D1*
Y2590000D1*
X1388853D1*
Y2933253D1*
X3710000Y2210000D2*
G03X3530000Y2330000I-70000J90000D01*
G01*
X3640000Y2340000D2*
Y2260000D1*
X3530000Y2320000D2*
X3510000Y2400000D1*
X3530000Y2320000D2*
Y2330000D1*
X3600000Y2300000D2*
X3680000D1*
X3530000Y2320000D2*
X3600000Y2360000D1*
X1320843Y1454060D2*
D93*
X1374189D1*
X1345101Y1415202D1*
X1359701D1*
X1369360Y1410373D1*
X1374189Y1405543D1*
X1379131Y1390943D1*
Y1381285D1*
X1374189Y1366685D1*
X1364531Y1356914D1*
X1349931Y1352085D1*
X1335331D1*
X1320843Y1356914D1*
X1316014Y1361856D1*
X1311072Y1371514D1*
X1415332Y1361856D2*
X1410503Y1356914D1*
X1415332Y1352085D1*
X1420274Y1356914D1*
X1415332Y1361856D1*
X1461417Y1454060D2*
X1514763D1*
X1485676Y1415202D1*
X1500276D1*
X1509934Y1410373D1*
X1514763Y1405543D1*
X1519705Y1390943D1*
Y1381285D1*
X1514763Y1366685D1*
X1505105Y1356914D1*
X1490505Y1352085D1*
X1475905D1*
X1461417Y1356914D1*
X1456588Y1361856D1*
X1451647Y1371514D1*
X1551078Y1454173D2*
X1589936Y1352085D1*
X1628794Y1454173D1*
X1470063Y2364406D2*
X1460404Y2359577D1*
X1450633Y2349806D1*
X1445804Y2340147D1*
Y2320718D1*
X1450633Y2310947D1*
X1460404Y2301289D1*
X1470063Y2296347D1*
X1484663Y2291518D1*
X1509033D1*
X1523521Y2296347D1*
X1533292Y2301289D1*
X1542950Y2310947D1*
X1547892Y2320718D1*
Y2340147D1*
X1542950Y2349806D1*
X1533292Y2359576D1*
X1523521Y2364406D1*
X1465346Y2395778D2*
X1460404Y2405549D1*
X1445917Y2420149D1*
X1547892D1*
X942239Y1252015D2*
X932581Y1247186D1*
X922810Y1237415D1*
X917981Y1227757D1*
Y1208328D1*
X922810Y1198557D1*
X932581Y1188898D1*
X942239Y1183957D1*
X956839Y1179128D1*
X981210D1*
X995698Y1183957D1*
X1005468Y1188898D1*
X1015127Y1198557D1*
X1020069Y1208328D1*
Y1227757D1*
X1015127Y1237415D1*
X1005469Y1247186D1*
X995698Y1252015D1*
X942352Y1288329D2*
X937522D1*
X927752Y1293159D1*
X922922Y1297988D1*
X918093Y1307759D1*
Y1327188D1*
X922922Y1336846D1*
X927752Y1341675D1*
X937522Y1346617D1*
X947181D1*
X956952Y1341675D1*
X971439Y1332017D1*
X1020069Y1283388D1*
X1020068Y1351446D1*
X3425364Y1689709D2*
X3415706Y1684879D1*
X3405935Y1675109D1*
X3401106Y1665450D1*
Y1646021D1*
X3405935Y1636250D1*
X3415706Y1626592D1*
X3425364Y1621650D1*
X3439964Y1616821D1*
X3464335D1*
X3478823Y1621650D1*
X3488593Y1626592D1*
X3498252Y1636250D1*
X3503194Y1646021D1*
Y1665450D1*
X3498252Y1675108D1*
X3488594Y1684879D1*
X3478823Y1689708D1*
X3401218Y1730852D2*
Y1784198D1*
X3440077Y1755110D1*
Y1769710D1*
X3444906Y1779369D1*
X3449735Y1784198D1*
X3464335Y1789139D1*
X3473994D1*
X3488593Y1784198D1*
X3498364Y1774539D1*
X3503193Y1759939D1*
Y1745339D1*
X3498364Y1730852D1*
X3493423Y1726022D1*
X3483764Y1721081D1*
X3472206Y2160127D2*
X3462548Y2155298D1*
X3452777Y2145527D1*
X3447947Y2135869D1*
Y2116440D1*
X3452777Y2106669D1*
X3462547Y2097010D1*
X3472206Y2092069D1*
X3486806Y2087240D1*
X3511177D1*
X3525664Y2092069D1*
X3535435Y2097010D1*
X3545094Y2106669D1*
X3550035Y2116440D1*
Y2135869D1*
X3545094Y2145527D1*
X3535435Y2155298D1*
X3525664Y2160127D1*
X3550035Y2240129D2*
X3448060D1*
X3516006Y2191500D1*
Y2264387D1*
X3063778Y1253859D2*
X3054119Y1249029D1*
X3044348Y1239259D1*
X3039519Y1229600D1*
Y1210171D1*
X3044348Y1200400D1*
X3054119Y1190742D1*
X3063778Y1185800D1*
X3078378Y1180971D1*
X3102748D1*
X3117236Y1185800D1*
X3127007Y1190742D1*
X3136665Y1200400D1*
X3141607Y1210171D1*
Y1229600D1*
X3136665Y1239258D1*
X3127007Y1249029D1*
X3117236Y1253858D1*
X3039632Y1343519D2*
Y1295002D1*
X3083319Y1290173D1*
X3078490Y1295002D1*
X3073548Y1309602D1*
Y1324089D1*
X3078490Y1338689D1*
X3088148Y1348460D1*
X3102748Y1353289D1*
X3112407D1*
X3127007Y1348460D1*
X3136778Y1338689D1*
X3141607Y1324089D1*
Y1309602D1*
X3136778Y1295002D1*
X3131836Y1290172D1*
X3122178Y1285231D1*
X1801258Y885679D2*
X1791599Y880850D1*
X1781828Y871079D1*
X1776999Y861421D1*
Y841992D1*
X1781828Y832221D1*
X1791599Y822563D1*
X1801258Y817621D1*
X1815858Y812792D1*
X1840228D1*
X1854716Y817621D1*
X1864487Y822563D1*
X1874145Y832221D1*
X1879087Y841992D1*
Y861421D1*
X1874145Y871079D1*
X1864487Y880850D1*
X1854716Y885679D1*
X1791599Y975339D2*
X1781941Y970510D1*
X1777112Y955910D1*
Y946252D1*
X1781941Y931652D1*
X1796541Y921881D1*
X1820799Y917052D1*
X1845058D1*
X1864487Y921881D1*
X1874258Y931652D1*
X1879087Y946252D1*
Y951081D1*
X1874258Y965569D1*
X1864487Y975339D1*
X1849887Y980169D1*
X1845058D1*
X1830458Y975339D1*
X1820799Y965569D1*
X1815970Y951081D1*
Y946252D1*
X1820799Y931652D1*
X1830458Y921881D1*
X1845058Y917052D1*
X2565763Y1871485D2*
X2556104Y1866656D1*
X2546333Y1856885D1*
X2541504Y1847227D1*
Y1827798D1*
X2546333Y1818027D1*
X2556104Y1808368D1*
X2565763Y1803427D1*
X2580363Y1798598D1*
X2604733D1*
X2619221Y1803427D1*
X2628992Y1808368D1*
X2638650Y1818027D1*
X2643592Y1827798D1*
Y1847227D1*
X2638650Y1856885D1*
X2628992Y1866656D1*
X2619221Y1871485D1*
X2643592Y1922287D2*
X2541617Y1970916D1*
Y1902858D1*
X2594716Y2412775D2*
X2585058Y2407946D1*
X2575287Y2398175D1*
X2570457Y2388516D1*
Y2369087D1*
X2575287Y2359316D1*
X2585057Y2349658D1*
X2594716Y2344716D1*
X2609316Y2339887D1*
X2633687D1*
X2648174Y2344716D1*
X2657945Y2349658D1*
X2667604Y2359316D1*
X2672545Y2369087D1*
Y2388516D1*
X2667604Y2398175D1*
X2657945Y2407945D1*
X2648174Y2412775D1*
X2570570Y2468406D2*
X2575399Y2453918D1*
X2585058Y2448976D1*
X2594828D1*
X2604487Y2453918D1*
X2609428Y2463576D1*
X2614258Y2483006D1*
X2619087Y2497606D1*
X2628858Y2507264D1*
X2638516Y2512093D1*
X2653116D1*
X2662774Y2507264D1*
X2667716Y2502435D1*
X2672545Y2487835D1*
Y2468406D1*
X2667716Y2453918D1*
X2662774Y2448976D1*
X2653116Y2444147D1*
X2638516D1*
X2628858Y2448976D1*
X2619087Y2458747D1*
X2614258Y2473235D1*
X2609428Y2492664D1*
X2604487Y2502435D1*
X2594828Y2507264D1*
X2585058D1*
X2575399Y2502435D1*
X2570570Y2487835D1*
Y2468406D1*
X1151936Y2723303D2*
X1254023D1*
X1254024Y2757332D1*
X1249082Y2771932D1*
X1239424Y2781703D1*
X1229653Y2786532D1*
X1215165Y2791361D1*
X1190794D1*
X1176194Y2786532D1*
X1166536Y2781703D1*
X1156765Y2771932D1*
X1151936Y2757332D1*
Y2723303D1*
X1171477Y2822734D2*
X1166536Y2832504D1*
X1152048Y2847104D1*
X1254023D1*
X1499241Y2668962D2*
X1601328D1*
X1601329Y2702991D1*
X1596387Y2717591D1*
X1586729Y2727362D1*
X1576958Y2732191D1*
X1562470Y2737021D1*
X1538099D1*
X1523499Y2732191D1*
X1513841Y2727362D1*
X1504070Y2717591D1*
X1499241Y2702991D1*
Y2668962D1*
X1523612Y2773335D2*
X1518782D1*
X1509012Y2778164D1*
X1504182Y2782993D1*
X1499353Y2792764D1*
Y2812193D1*
X1504182Y2821852D1*
X1509012Y2826681D1*
X1518782Y2831622D1*
X1528441D1*
X1538212Y2826681D1*
X1552699Y2817022D1*
X1601329Y2768393D1*
X1601328Y2836451D1*
X1352653Y532396D2*
X1342994Y527567D1*
X1333223Y517796D1*
X1328394Y508138D1*
Y488709D1*
X1333223Y478938D1*
X1342994Y469280D1*
X1352653Y464338D1*
X1367253Y459509D1*
X1391623D1*
X1406111Y464338D1*
X1415882Y469280D1*
X1425540Y478938D1*
X1430482Y488709D1*
Y508138D1*
X1425540Y517796D1*
X1415882Y527567D1*
X1406111Y532396D1*
X1391623D1*
Y508138D1*
X1328394Y631827D2*
X1430482D1*
X1328394Y563769D1*
X1430482D1*
X1328394Y663200D2*
X1430482D1*
Y697229D1*
X1425540Y711829D1*
X1415882Y721600D1*
X1406111Y726429D1*
X1391623Y731258D1*
X1367253D1*
X1352653Y726429D1*
X1342994Y721600D1*
X1333223Y711829D1*
X1328394Y697229D1*
Y663200D1*
X612461Y2291070D2*
X617178Y2281412D1*
X626948Y2271641D1*
X636719Y2266812D1*
X651319Y2261870D1*
X675578D1*
X690178Y2266812D1*
X699836Y2271641D1*
X709607Y2281412D1*
X714436Y2291070D1*
Y2310499D1*
X709607Y2320270D1*
X699836Y2329928D1*
X690178Y2334758D1*
X675578Y2339699D1*
X651319D1*
X636719Y2334758D1*
X626949Y2329929D1*
X617178Y2320270D1*
X612461Y2310499D1*
Y2291070D1*
X695007Y2305670D2*
X724207Y2334758D1*
X636832Y2376013D2*
X632002D1*
X622232Y2380843D1*
X617402Y2385672D1*
X612573Y2395443D1*
Y2414872D1*
X617402Y2424530D1*
X622232Y2429359D1*
X632002Y2434301D1*
X641661D1*
X651432Y2429359D1*
X665919Y2419701D1*
X714549Y2371072D1*
X714548Y2439130D1*
X936055Y2731963D2*
Y2775650D1*
X931114Y2790250D1*
X926284Y2795192D1*
X916626Y2800021D1*
X906855D1*
X897197Y2795192D1*
X892255Y2790250D1*
X887426Y2775650D1*
Y2731963D1*
X989513D1*
X936055Y2765992D2*
X989514Y2800021D1*
X906967Y2831394D2*
X902026Y2841164D1*
X887538Y2855764D1*
X989513D1*
X1862827Y2361112D2*
Y2404800D1*
X1857885Y2419400D1*
X1853056Y2424341D1*
X1843398Y2429171D1*
X1833627D1*
X1823968Y2424341D1*
X1819027Y2419400D1*
X1814197Y2404800D1*
Y2361112D1*
X1916285D1*
X1862827Y2395141D2*
X1916285Y2429170D1*
X1838568Y2465485D2*
X1833739D1*
X1823968Y2470314D1*
X1819139Y2475143D1*
X1814310Y2484914D1*
Y2504343D1*
X1819139Y2514002D1*
X1823968Y2518831D1*
X1833739Y2523772D1*
X1843398D1*
X1853168Y2518831D1*
X1867656Y2509172D1*
X1916285Y2460543D1*
Y2528601D1*
X2677878Y887136D2*
X2668107Y877477D1*
X2663277Y862877D1*
Y843448D1*
X2668107Y828848D1*
X2677877Y819078D1*
X2687536D1*
X2697307Y824019D1*
X2702136Y828848D1*
X2706965Y838507D1*
X2716736Y867707D1*
X2721565Y877477D1*
X2726507Y882307D1*
X2736165Y887136D1*
X2750765D1*
X2760424Y877477D1*
X2765365Y862877D1*
Y843448D1*
X2760424Y828848D1*
X2750765Y819078D1*
X2687536Y991396D2*
X2677878Y986567D1*
X2668107Y976796D1*
X2663278Y967138D1*
Y947708D1*
X2668107Y937938D1*
X2677878Y928279D1*
X2687536Y923338D1*
X2702136Y918508D1*
X2726507D1*
X2740994Y923338D1*
X2750765Y928279D1*
X2760424Y937937D1*
X2765365Y947708D1*
Y967137D1*
X2760424Y976796D1*
X2750765Y986567D1*
X2740994Y991396D1*
X2663278Y1022769D2*
X2765365Y1022768D1*
Y1081056D1*
X3437878Y869780D2*
X3428107Y860121D1*
X3423277Y845521D1*
Y826092D1*
X3428107Y811492D1*
X3437877Y801721D1*
X3447536D1*
X3457307Y806663D1*
X3462136Y811492D1*
X3466965Y821151D1*
X3476736Y850351D1*
X3481565Y860121D1*
X3486507Y864950D1*
X3496165Y869780D1*
X3510765D1*
X3520424Y860121D1*
X3525365Y845521D1*
Y826092D1*
X3520424Y811492D1*
X3510765Y801721D1*
X3423278Y901152D2*
X3525365D1*
Y935181D1*
X3520424Y949781D1*
X3510765Y959552D1*
X3500994Y964381D1*
X3486507Y969211D1*
X3462136D1*
X3447536Y964381D1*
X3437878Y959552D1*
X3428107Y949781D1*
X3423278Y935181D1*
Y901152D1*
X3525365Y1078412D2*
X3423278Y1039442D1*
X3525365Y1000583D1*
X3491336Y1015183D2*
Y1063812D1*
X2817296Y2358952D2*
X2890183D1*
X2904783Y2363781D1*
X2914442Y2373552D1*
X2919384Y2388152D1*
Y2397811D1*
X2914442Y2412411D1*
X2904784Y2422181D1*
X2890184Y2427011D1*
X2817296D1*
X2841667Y2463325D2*
X2836837D1*
X2827067Y2468154D1*
X2822237Y2472983D1*
X2817408Y2482754D1*
Y2502183D1*
X2822237Y2511842D1*
X2827067Y2516671D1*
X2836837Y2521612D1*
X2846496D1*
X2856267Y2516671D1*
X2870754Y2507012D1*
X2919384Y2458383D1*
X2919383Y2526441D1*
X2243764Y1094652D2*
X2316652D1*
X2331252Y1099481D1*
X2340910Y1109252D1*
X2345852Y1123852D1*
Y1133511D1*
X2340910Y1148111D1*
X2331252Y1157881D1*
X2316652Y1162711D1*
X2243764D1*
X2243877Y1203854D2*
Y1257200D1*
X2282735Y1228112D1*
Y1242712D1*
X2287564Y1252371D1*
X2292393Y1257200D1*
X2306993Y1262141D1*
X2316652D1*
X2331252Y1257200D1*
X2341023Y1247541D1*
X2345852Y1232941D1*
Y1218341D1*
X2341023Y1203854D1*
X2336081Y1199025D1*
X2326423Y1194083D1*
X716961Y1823909D2*
X789848D1*
X804448Y1828739D1*
X814107Y1838509D1*
X819049Y1853109D1*
Y1862768D1*
X814107Y1877368D1*
X804449Y1887138D1*
X789849Y1891968D1*
X716961D1*
X736502Y1923340D2*
X731561Y1933111D1*
X717073Y1947711D1*
X819048D1*
X1796155Y2768406D2*
D94*
X1861686D1*
X1883586Y2775818D1*
X1890999Y2783062D1*
X1898242Y2797550D1*
Y2812206D1*
X1890999Y2826694D1*
X1883586Y2834106D1*
X1861686Y2841350D1*
X1796155D1*
Y2688218D1*
X1847199Y2768406D2*
X1898242Y2688218D1*
X2039977Y2841350D2*
X1945301D1*
Y2688218D1*
X2039977D1*
X1945301Y2768406D2*
X2003589D1*
X2087035Y2841350D2*
X2145323Y2688218D1*
X2203611Y2841350D1*
X2345345D2*
X2250670D1*
Y2688218D1*
X2345345D1*
X2250670Y2768406D2*
X2308957D1*
X2392404D2*
X2457935D1*
X2479835Y2775818D1*
X2487248Y2783062D1*
X2494492Y2797550D1*
Y2812206D1*
X2487248Y2826694D1*
X2479835Y2834106D1*
X2457935Y2841350D1*
X2392404D1*
Y2688218D1*
X2443448Y2768406D2*
X2494492Y2688218D1*
X2643638Y2819450D2*
X2629150Y2834106D1*
X2607250Y2841350D1*
X2578107D1*
X2556207Y2834106D1*
X2541550Y2819450D1*
Y2804962D1*
X2548963Y2790306D1*
X2556207Y2783062D1*
X2570694Y2775818D1*
X2614494Y2761162D1*
X2629150Y2753918D1*
X2636394Y2746506D1*
X2643638Y2732018D1*
Y2710118D1*
X2629150Y2695631D1*
X2607250Y2688218D1*
X2578107D1*
X2556207Y2695631D1*
X2541550Y2710118D1*
X2785372Y2841350D2*
X2690697D1*
Y2688218D1*
X2785372D1*
X2690697Y2768406D2*
X2748985D1*
X2980567Y2761162D2*
X3046267D1*
X3067998Y2768406D1*
X3075411Y2775818D1*
X3082655Y2790306D1*
Y2812206D1*
X3075411Y2826694D1*
X3067998Y2834106D1*
X3046267Y2841350D1*
X2980567D1*
Y2688218D1*
X3173513Y2841350D2*
X3158857Y2834106D1*
X3144370Y2819450D1*
X3136957Y2804962D1*
X3129713Y2783062D1*
Y2746506D1*
X3136957Y2724775D1*
X3144370Y2710118D1*
X3158857Y2695631D1*
X3173513Y2688218D1*
X3202657D1*
X3217145Y2695631D1*
X3231801Y2710118D1*
X3239045Y2724775D1*
X3246289Y2746506D1*
Y2783062D1*
X3239045Y2804962D1*
X3231801Y2819450D1*
X3217145Y2834106D1*
X3202657Y2841350D1*
X3173513D1*
X3293348D2*
Y2688218D1*
X3380779D1*
X3544582D2*
X3486126Y2841350D1*
X3427838Y2688218D1*
X3449738Y2739262D2*
X3522682D1*
X3591641Y2768406D2*
X3657172D1*
X3679072Y2775818D1*
X3686484Y2783062D1*
X3693728Y2797550D1*
Y2812206D1*
X3686484Y2826694D1*
X3679072Y2834106D1*
X3657172Y2841350D1*
X3591641D1*
Y2688218D1*
X3642684Y2768406D2*
X3693728Y2688218D1*
X3740787Y2841350D2*
Y2688218D1*
X3838890Y2841350D2*
Y2688218D1*
X3787846Y2841350D2*
X3889934D1*
X3936992D2*
X3995280Y2768406D1*
Y2688218D1*
X4053568Y2841350D2*
X3995280Y2768406D1*
X4108039Y2841181D2*
Y2739262D1*
Y2702875D2*
X4100627Y2695462D1*
X4108039Y2688218D1*
X4115283Y2695462D1*
X4108039Y2702875D1*
X4068667Y1911715D2*
D95*
X4056594Y1923928D1*
X4038344Y1929965D1*
X4014057D1*
X3995807Y1923928D1*
X3983594Y1911715D1*
Y1899642D1*
X3989771Y1887428D1*
X3995807Y1881392D1*
X4007880Y1875355D1*
X4044380Y1863142D1*
X4056594Y1857105D1*
X4062630Y1850928D1*
X4068667Y1838855D1*
Y1820605D1*
X4056594Y1808532D1*
X4038344Y1802355D1*
X4014057D1*
X3995807Y1808532D1*
X3983594Y1820605D1*
X4107883Y1929965D2*
Y1802355D1*
X4150419D1*
X4168669Y1808532D1*
X4180883Y1820605D1*
X4186919Y1832819D1*
X4192956Y1850928D1*
Y1881392D1*
X4186919Y1899642D1*
X4180883Y1911715D1*
X4168669Y1923928D1*
X4150419Y1929965D1*
X4107883D1*
X4329458Y1802355D2*
X4280745Y1929965D1*
X4232171Y1802355D1*
X4250421Y1844892D2*
X4311208D1*
X4087057Y1651715D2*
X4074984Y1663928D1*
X4056734Y1669965D1*
X4032447D1*
X4014197Y1663928D1*
X4001984Y1651715D1*
Y1639642D1*
X4008161Y1627428D1*
X4014197Y1621392D1*
X4026270Y1615355D1*
X4062770Y1603142D1*
X4074984Y1597105D1*
X4081020Y1590928D1*
X4087057Y1578855D1*
Y1560605D1*
X4074984Y1548532D1*
X4056734Y1542355D1*
X4032447D1*
X4014197Y1548532D1*
X4001984Y1560605D1*
X4217382Y1639642D2*
X4211346Y1651715D1*
X4199132Y1663928D1*
X4187059Y1669965D1*
X4162773D1*
X4150559Y1663928D1*
X4138486Y1651715D1*
X4132309Y1639642D1*
X4126273Y1621392D1*
Y1590928D1*
X4132309Y1572819D1*
X4138486Y1560605D1*
X4150559Y1548532D1*
X4162773Y1542355D1*
X4187059D1*
X4199132Y1548532D1*
X4211346Y1560605D1*
X4217382Y1572819D1*
X4256598Y1669965D2*
Y1542355D1*
X4329458D1*
X4080880Y2159642D2*
X4074844Y2171715D1*
X4062630Y2183928D1*
X4050557Y2189965D1*
X4026271D1*
X4014057Y2183928D1*
X4001984Y2171715D1*
X3995807Y2159642D1*
X3989771Y2141392D1*
Y2110928D1*
X3995807Y2092819D1*
X4001984Y2080605D1*
X4014057Y2068532D1*
X4026271Y2062355D1*
X4050557D1*
X4062630Y2068532D1*
X4074844Y2080605D1*
X4080880Y2092819D1*
Y2110928D1*
X4050557D1*
X4205169Y2189965D2*
Y2062355D1*
X4120096Y2189965D1*
Y2062355D1*
X4244385Y2189965D2*
Y2062355D1*
X4286921D1*
X4305171Y2068532D1*
X4317385Y2080605D1*
X4323421Y2092819D1*
X4329458Y2110928D1*
Y2141392D1*
X4323421Y2159642D1*
X4317385Y2171715D1*
X4305171Y2183928D1*
X4286921Y2189965D1*
X4244385D1*
X3905304Y1119642D2*
X3899267Y1131715D1*
X3887054Y1143928D1*
X3874980Y1149965D1*
X3850694D1*
X3838480Y1143928D1*
X3826407Y1131715D1*
X3820230Y1119642D1*
X3814194Y1101392D1*
Y1070928D1*
X3820230Y1052819D1*
X3826407Y1040605D1*
X3838480Y1028532D1*
X3850694Y1022355D1*
X3874980D1*
X3887054Y1028532D1*
X3899267Y1040605D1*
X3905304Y1052819D1*
Y1070928D1*
X3874980D1*
X3944519Y1083142D2*
X3999269D1*
X4017379Y1089178D1*
X4023556Y1095355D1*
X4029592Y1107428D1*
Y1125678D1*
X4023556Y1137751D1*
X4017379Y1143928D1*
X3999269Y1149965D1*
X3944519D1*
Y1022355D1*
X4068808Y1149965D2*
Y1022355D1*
X4144524Y1149965D2*
X4132310Y1143928D1*
X4120237Y1131715D1*
X4114060Y1119642D1*
X4108024Y1101392D1*
Y1070928D1*
X4114060Y1052819D1*
X4120237Y1040605D1*
X4132310Y1028532D1*
X4144524Y1022355D1*
X4168810D1*
X4180883Y1028532D1*
X4193097Y1040605D1*
X4199133Y1052819D1*
X4205170Y1070928D1*
Y1101392D1*
X4199133Y1119642D1*
X4193097Y1131715D1*
X4180883Y1143928D1*
X4168810Y1149965D1*
X4144524D1*
X4250562Y1119501D2*
Y1125538D1*
X4256599Y1137751D1*
X4262636Y1143788D1*
X4274849Y1149825D1*
X4299136D1*
X4311209Y1143788D1*
X4317245Y1137751D1*
X4323422Y1125538D1*
Y1113465D1*
X4317245Y1101251D1*
X4305172Y1083142D1*
X4244386Y1022355D1*
X4329459D1*
X4014057Y880770D2*
Y771410D1*
X3959447Y826020D2*
X4068807D1*
X4180882Y889825D2*
X4120236D1*
X4114199Y835215D1*
X4120236Y841251D1*
X4138486Y847428D1*
X4156596D1*
X4174846Y841251D1*
X4187059Y829178D1*
X4193096Y810928D1*
Y798855D1*
X4187059Y780605D1*
X4174846Y768392D1*
X4156596Y762355D1*
X4138486D1*
X4120236Y768392D1*
X4114199Y774569D1*
X4108023Y786642D1*
X4232311Y889965D2*
X4280884Y762355D1*
X4329457Y889965D1*
X3959914Y1379642D2*
X3953877Y1391715D1*
X3941664Y1403928D1*
X3929590Y1409965D1*
X3905304D1*
X3893090Y1403928D1*
X3881017Y1391715D1*
X3874840Y1379642D1*
X3868804Y1361392D1*
Y1330928D1*
X3874840Y1312819D1*
X3881017Y1300605D1*
X3893090Y1288532D1*
X3905304Y1282355D1*
X3929590D1*
X3941664Y1288532D1*
X3953877Y1300605D1*
X3959914Y1312819D1*
Y1330928D1*
X3929590D1*
X3999129Y1343142D2*
X4053879D1*
X4071989Y1349178D1*
X4078166Y1355355D1*
X4084202Y1367428D1*
Y1385678D1*
X4078166Y1397751D1*
X4071989Y1403928D1*
X4053879Y1409965D1*
X3999129D1*
Y1282355D1*
X4123418Y1409965D2*
Y1282355D1*
X4199134Y1409965D2*
X4186920Y1403928D1*
X4174847Y1391715D1*
X4168670Y1379642D1*
X4162634Y1361392D1*
Y1330928D1*
X4168670Y1312819D1*
X4174847Y1300605D1*
X4186920Y1288532D1*
X4199134Y1282355D1*
X4223420D1*
X4235493Y1288532D1*
X4247707Y1300605D1*
X4253743Y1312819D1*
X4259780Y1330928D1*
Y1361392D1*
X4253743Y1379642D1*
X4247707Y1391715D1*
X4235493Y1403928D1*
X4223420Y1409965D1*
X4199134D1*
X4298996Y1385538D2*
X4311209Y1391715D1*
X4329459Y1409825D1*
Y1282355D1*
X2125402Y1800034D2*
X2253011D1*
X2253012Y1872894D1*
X2125402Y1912109D2*
X2253011D1*
Y1954646D1*
X2246835Y1972896D1*
X2234761Y1985109D1*
X2222548Y1991146D1*
X2204438Y1997182D1*
X2173975D1*
X2155725Y1991146D1*
X2143652Y1985109D1*
X2131438Y1972896D1*
X2125402Y1954646D1*
Y1912109D1*
Y2072898D2*
X2131438Y2060685D1*
X2143652Y2048612D1*
X2155725Y2042435D1*
X2173975Y2036398D1*
X2204438D1*
X2222548Y2042435D1*
X2234761Y2048611D1*
X2246835Y2060685D1*
X2253011Y2072898D1*
Y2097185D1*
X2246834Y2109258D1*
X2234761Y2121471D1*
X2222548Y2127508D1*
X2204438Y2133544D1*
X2173975D1*
X2155725Y2127508D1*
X2143652Y2121471D1*
X2131438Y2109258D1*
X2125402Y2097185D1*
Y2072898D1*
X2285402Y1590034D2*
X2413011D1*
X2413012Y1644784D1*
X2406835Y1663034D1*
X2400798Y1669071D1*
X2388725Y1675107D1*
X2370475D1*
X2358262Y1669071D1*
X2352225Y1663034D1*
X2346188Y1644784D1*
X2340012Y1663034D1*
X2333975Y1669071D1*
X2321902Y1675107D1*
X2309688D1*
X2297615Y1669071D1*
X2291438Y1663034D1*
X2285402Y1644784D1*
Y1590034D1*
X2346188D2*
Y1644784D1*
X2285402Y1714323D2*
X2346188Y1762896D1*
X2413011D1*
X2285402Y1811469D2*
X2346188Y1762896D1*
X2352225Y1850685D2*
Y1905435D1*
X2346188Y1923544D1*
X2340011Y1929721D1*
X2327938Y1935758D1*
X2309688D1*
X2297615Y1929721D1*
X2291438Y1923544D1*
X2285402Y1905435D1*
Y1850685D1*
X2413011D1*
Y2072260D2*
X2285402Y2023546D1*
X2413011Y1974973D1*
X2370475Y1993223D2*
Y2054010D1*
X2303652Y2196549D2*
X2291438Y2184476D1*
X2285402Y2166226D1*
Y2141939D1*
X2291438Y2123689D1*
X2303652Y2111476D1*
X2315725D1*
X2327938Y2117652D1*
X2333975Y2123689D1*
X2340011Y2135762D1*
X2352225Y2172262D1*
X2358261Y2184476D1*
X2364438Y2190512D1*
X2376511Y2196549D1*
X2394761D1*
X2406834Y2184476D1*
X2413011Y2166226D1*
Y2141939D1*
X2406834Y2123689D1*
X2394761Y2111476D1*
X2303652Y2320837D2*
X2291438Y2308764D1*
X2285402Y2290514D1*
Y2266228D1*
X2291438Y2247978D1*
X2303652Y2235764D1*
X2315725D1*
X2327938Y2241941D1*
X2333975Y2247978D1*
X2340011Y2260051D1*
X2352225Y2296551D1*
X2358261Y2308764D1*
X2364438Y2314801D1*
X2376511Y2320837D1*
X2394761D1*
X2406834Y2308764D1*
X2413011Y2290514D1*
Y2266228D1*
X2406834Y2247978D1*
X2394761Y2235764D1*
X1386155Y321350D2*
D94*
Y212018D1*
X1393399Y190118D1*
X1408055Y175631D1*
X1429955Y168218D1*
X1444442D1*
X1466342Y175631D1*
X1480999Y190118D1*
X1488242Y212018D1*
Y321350D1*
X1549957Y321181D2*
X1629977D1*
X1586345Y262894D1*
X1608245D1*
X1622733Y255650D1*
X1629977Y248406D1*
X1637389Y226506D1*
Y212018D1*
X1629977Y190118D1*
X1615489Y175462D1*
X1593589Y168218D1*
X1571689D1*
X1549957Y175462D1*
X1542714Y182875D1*
X1535301Y197362D1*
X1691860Y270306D2*
X1684448Y262894D1*
X1691860Y255650D1*
X1699104Y262894D1*
X1691860Y270306D1*
Y182875D2*
X1684448Y175462D1*
X1691860Y168218D1*
X1699104Y175462D1*
X1691860Y182875D1*
X1996386Y299450D2*
X1981898Y314106D1*
X1959998Y321350D1*
X1930855D1*
X1908955Y314106D1*
X1894298Y299450D1*
Y284962D1*
X1901711Y270306D1*
X1908955Y263062D1*
X1923442Y255818D1*
X1967242Y241162D1*
X1981898Y233918D1*
X1989142Y226506D1*
X1996386Y212018D1*
Y190118D1*
X1981898Y175631D1*
X1959998Y168218D1*
X1930855D1*
X1908955Y175631D1*
X1894298Y190118D1*
X2043445Y321350D2*
Y168218D1*
X2145533Y321350D2*
Y168218D1*
X2043445Y248406D2*
X2145533D1*
X2243635Y321350D2*
Y168218D1*
X2192591Y321350D2*
X2294679D1*
X2356394Y321181D2*
X2436413D1*
X2392782Y262894D1*
X2414682D1*
X2429170Y255650D1*
X2436413Y248406D1*
X2443826Y226506D1*
Y212018D1*
X2436413Y190118D1*
X2421926Y175462D1*
X2400026Y168218D1*
X2378126D1*
X2356394Y175462D1*
X2349150Y182875D1*
X2341738Y197362D1*
X2490885Y292038D2*
X2505541Y299450D1*
X2527441Y321181D1*
Y168218D1*
X2773679Y321350D2*
Y168218D1*
X2722635Y321350D2*
X2824723D1*
X2966457D2*
X2871782D1*
Y168218D1*
X2966457D1*
X2871782Y248406D2*
X2930069D1*
X3130091Y168218D2*
Y321350D1*
X3071804Y168218D1*
X3013516Y321350D1*
Y168218D1*
X3177150Y241162D2*
X3242850D1*
X3264582Y248406D1*
X3271994Y255818D1*
X3279238Y270306D1*
Y292206D1*
X3271994Y306694D1*
X3264582Y314106D1*
X3242850Y321350D1*
X3177150D1*
Y168218D1*
X3474432Y321350D2*
Y168218D1*
X3576520Y321350D2*
Y168218D1*
X3474432Y248406D2*
X3576520D1*
X3623579Y321350D2*
Y212018D1*
X3630823Y190118D1*
X3645479Y175631D1*
X3667379Y168218D1*
X3681867D1*
X3703767Y175631D1*
X3718423Y190118D1*
X3725667Y212018D1*
Y321350D1*
X3889301Y168218D2*
Y321350D1*
X3831013Y168218D1*
X3772725Y321350D1*
Y168218D1*
X1667658Y591350D2*
Y482018D1*
X1674902Y460118D1*
X1689558Y445631D1*
X1711458Y438218D1*
X1725946D1*
X1747846Y445631D1*
X1762502Y460118D1*
X1769746Y482018D1*
Y591350D1*
X1824217Y554794D2*
Y562038D1*
X1831461Y576694D1*
X1838705Y583938D1*
X1853361Y591181D1*
X1882505D1*
X1896992Y583938D1*
X1904236Y576694D1*
X1911648Y562038D1*
Y547550D1*
X1904236Y532894D1*
X1889748Y511162D1*
X1816805Y438218D1*
X1918892D1*
X1973363Y540306D2*
X1965951Y532894D1*
X1973363Y525650D1*
X1980607Y532894D1*
X1973363Y540306D1*
Y452875D2*
X1965951Y445462D1*
X1973363Y438218D1*
X1980607Y445462D1*
X1973363Y452875D1*
X2175802Y591350D2*
Y438218D1*
X2263233D1*
X2412380Y569450D2*
X2397892Y584106D1*
X2375992Y591350D1*
X2346848D1*
X2324948Y584106D1*
X2310292Y569450D1*
Y554962D1*
X2317704Y540306D1*
X2324948Y533062D1*
X2339436Y525818D1*
X2383236Y511162D1*
X2397892Y503918D1*
X2405136Y496506D1*
X2412380Y482018D1*
Y460118D1*
X2397892Y445631D1*
X2375992Y438218D1*
X2346848D1*
X2324948Y445631D1*
X2310292Y460118D1*
X2576014Y438218D2*
Y591350D1*
X2517726Y438218D1*
X2459439Y591350D1*
Y438218D1*
X2717917Y540306D2*
X2710504Y518406D1*
X2696017Y503750D1*
X2674117Y496506D1*
X2666873D1*
X2644973Y503750D1*
X2630485Y518406D1*
X2623073Y540306D1*
Y547550D1*
X2630485Y569450D1*
X2644973Y583938D1*
X2666873Y591181D1*
X2674117D1*
X2696017Y583938D1*
X2710504Y569450D1*
X2717917Y540306D1*
Y503750D1*
X2710504Y467362D1*
X2696017Y445462D1*
X2674117Y438218D1*
X2659629D1*
X2637729Y445462D1*
X2630485Y460118D1*
X2764976Y591350D2*
Y438218D1*
X2816019D1*
X2837919Y445631D1*
X2852576Y460118D1*
X2859819Y474775D1*
X2867063Y496506D1*
Y533062D1*
X2859819Y554962D1*
X2852576Y569450D1*
X2837919Y584106D1*
X2816019Y591350D1*
X2764976D1*
X3016210Y569450D2*
X3001722Y584106D1*
X2979822Y591350D1*
X2950678D1*
X2928778Y584106D1*
X2914122Y569450D1*
Y554962D1*
X2921534Y540306D1*
X2928778Y533062D1*
X2943266Y525818D1*
X2987066Y511162D1*
X3001722Y503918D1*
X3008966Y496506D1*
X3016210Y482018D1*
Y460118D1*
X3001722Y445631D1*
X2979822Y438218D1*
X2950678D1*
X2928778Y445631D1*
X2914122Y460118D1*
X3063269Y562038D2*
X3077925Y569450D1*
X3099825Y591181D1*
Y438218D1*
X3295019Y591350D2*
Y438218D1*
X3458654D2*
Y591350D1*
X3400366Y438218D1*
X3342078Y591350D1*
Y438218D1*
X3505712Y591350D2*
Y482018D1*
X3512956Y460118D1*
X3527612Y445631D1*
X3549512Y438218D1*
X3564000D1*
X3585900Y445631D1*
X3600556Y460118D1*
X3607800Y482018D1*
Y591350D1*
M02*
