M48
METRIC,0000.00
T01C0.508
T02C0.762
T03C0.9
T04C1.016
T05C3.0
%
T01
X+003288Y+001974
X+003176Y+001810
X+003096Y+001570
X+002896Y+001770
X+002401Y+000737
X+002406Y+000200
X+002817Y+000330
X+003246Y+000200
X+001530Y+002840
X+000710Y+002760
T02
X+002700Y+001660
X+002660Y+001260
X+002528Y+000900
X+002070Y+000860
X+001740Y+001070
X+001266Y+001251
X+001541Y+001608
X+001680Y+001880
X+001541Y+002097
X+001250Y+001880
X+001500Y+002510
X+002600Y+002380
X+002730Y+002250
X+003038Y+002440
X+003290Y+002330
X+003647Y+001855
X+003296Y+001610
X+004266Y+001340
X+004266Y+002528
T03
X+001856Y+001380
X+001380Y+000960
X+002936Y+000940
X+003246Y+000940
T04
X+004500Y+002135
X+004487Y+001881
X+004513Y+001627
X+004487Y+001373
X+004513Y+001119
X+004500Y+000865
X+000513Y+001119
X+000500Y+000865
X+000487Y+001373
X+000513Y+001627
X+000487Y+001881
X+000500Y+002135
T05
X+000350Y+000350
X+004650Y+002650
T00
M30
