M48
METRIC,0000.00
T01C0.9
T02C1.016
T03C1.4
T04C4.0
%
T01
X+000100Y+000508
X+000103Y+000976
X+000100Y+001453
X+000508Y+000127
X+000762Y+000127
X+001016Y+000127
X+001270Y+000127
X+001524Y+000127
X+001778Y+000127
X+002032Y+000127
X+002286Y+000127
X+002540Y+000127
X+002794Y+000127
X+003048Y+000127
X+003302Y+000127
X+003556Y+000127
X+003810Y+000127
X+004064Y+000127
X+004318Y+000127
X+004572Y+000127
X+004826Y+000127
X+005080Y+000127
X+005334Y+000127
X+005588Y+000127
X+005842Y+000127
X+006096Y+000127
X+006096Y-000127
X+005842Y-000127
X+005588Y-000127
X+005334Y-000127
X+005080Y-000127
X+004826Y-000127
X+004572Y-000127
X+004318Y-000127
X+004064Y-000127
X+003810Y-000127
X+003556Y-000127
X+003302Y-000127
X+003048Y-000127
X+002794Y-000127
X+002540Y-000127
X+002286Y-000127
X+002032Y-000127
X+001778Y-000127
X+001524Y-000127
X+001270Y-000127
X+001016Y-000127
X+000762Y-000127
X+000508Y-000127
X+000508Y+004699
X+000762Y+004699
X+001016Y+004699
X+001270Y+004699
X+001524Y+004699
X+001778Y+004699
X+002032Y+004699
X+002286Y+004699
X+002540Y+004699
X+002794Y+004699
X+003048Y+004699
X+003302Y+004699
X+003556Y+004699
X+003810Y+004699
X+004064Y+004699
X+004318Y+004699
X+004572Y+004699
X+004826Y+004699
X+005080Y+004699
X+005334Y+004699
X+005588Y+004699
X+005842Y+004699
X+006096Y+004699
X+006096Y+004953
X+005842Y+004953
X+005588Y+004953
X+005334Y+004953
X+005080Y+004953
X+004826Y+004953
X+004572Y+004953
X+004318Y+004953
X+004064Y+004953
X+003810Y+004953
X+003556Y+004953
X+003302Y+004953
X+003048Y+004953
X+002794Y+004953
X+002540Y+004953
X+002286Y+004953
X+002032Y+004953
X+001778Y+004953
X+001524Y+004953
X+001270Y+004953
X+001016Y+004953
X+000762Y+004953
X+000508Y+004953
X+007002Y+004950
T02
X+003368Y+004244
X+004205Y+003551
X+004474Y+003533
X+004889Y+003461
X+004889Y+002975
X+005208Y+003088
X+005208Y+004115
X+004437Y+004004
X+004792Y+005301
X+002189Y+005262
X+001248Y+003592
X+001092Y+003193
X+001235Y+002751
X+001092Y+002568
X+001455Y+002455
X+001972Y+002473
X+001971Y+001496
X+002303Y+001532
X+002666Y+001153
X+002807Y+000997
X+002541Y+000338
X+002233Y+000338
X+001971Y+000694
X+001716Y+000804
X+001398Y+000550
X+001269Y+000804
X+001153Y+000997
X+001334Y+001153
X+001851Y-000459
X+003366Y-000473
X+004082Y+000338
X+003862Y+000897
X+004349Y+000881
X+003813Y+001889
X+003175Y+001878
X+000259Y-000442
T03
X+003605Y+006147
X+003955Y+006147
X+004305Y+006147
X+004655Y+006147
X+005005Y+006147
X+002128Y+006159
X+001778Y+006159
X+001428Y+006159
X+001840Y-001251
X+002190Y-001251
X+002540Y-001251
X+003428Y-001251
X+003778Y-001251
X+004128Y-001251
X+000953Y-001251
X+000603Y-001251
X+000253Y-001251
T04
X+000000Y+004826
X+000000Y+000000
X+006604Y+000317
X+006604Y+004508
T00
M30
