G04 DipTrace 3.3.1.1*
G04 Adapterboard.gts*
%MOIN*%
G04 #@! TF.FileFunction,Soldermask,Top*
G04 #@! TF.Part,Single*
%ADD23O,0.059055X0.07874*%
%ADD24R,0.074X0.074*%
%ADD34O,0.047244X0.098425*%
%ADD36C,0.125984*%
%ADD37C,0.11811*%
%ADD46R,0.066935X0.059061*%
%ADD48C,0.08662*%
%ADD50R,0.070872X0.114179*%
%ADD52R,0.092526X0.135833*%
%ADD54R,0.092526X0.045282*%
%ADD56R,0.106305X0.106305*%
%ADD58C,0.106305*%
%FSLAX26Y26*%
G04*
G70*
G90*
G75*
G01*
G04 TopMask*
%LPD*%
D23*
X1262367Y468701D3*
X1212367Y368701D3*
X1162367Y468701D3*
X1062367D3*
X962367D3*
X1112367Y368701D3*
X1012367D3*
D24*
X912367D3*
D36*
X862367Y118701D3*
X1312367D3*
D58*
X350000Y1925000D3*
D56*
Y2062795D3*
D58*
Y1275000D3*
Y1412795D3*
D56*
Y1550591D3*
D58*
X1806060Y2006042D3*
Y1868247D3*
D56*
Y1730451D3*
D58*
X1800000Y650000D3*
D56*
Y512205D3*
D54*
X912500Y950000D3*
Y1040551D3*
Y1131102D3*
D52*
X684154Y1040551D3*
D58*
X350000Y500000D3*
Y637795D3*
Y775591D3*
D56*
Y913386D3*
D58*
X1250000Y2250000D3*
X1387795D3*
X1525591D3*
D56*
X1663386D3*
D58*
X475000D3*
X612795D3*
X750591D3*
D56*
X888386D3*
D50*
X775000Y1287500D3*
X664764D3*
D58*
X1806060Y1343612D3*
Y1205816D3*
D56*
Y1068021D3*
D48*
X1537500Y412500D3*
X475000Y1050000D3*
X537500Y1200000D3*
X1600000Y1275000D3*
X1687500Y1450000D3*
X1587500Y2062500D3*
X1550000Y1925000D3*
X537500Y125000D3*
X1312500Y1525000D3*
X775000D3*
D46*
X1487500Y562500D3*
Y637303D3*
D34*
X1087500Y1175000D3*
X1166240D3*
X1008760D3*
D37*
X196850Y2362205D3*
X1968504D3*
Y196850D3*
X196850D3*
M02*
