G04 DipTrace 3.3.1.1*
G04 Adapterboard.gbl*
%MOIN*%
G04 #@! TF.FileFunction,Copper,L2,Bot*
G04 #@! TF.Part,Single*
G04 #@! TA.AperFunction,CopperBalancing*
%ADD16C,0.025*%
%ADD20C,0.03*%
G04 #@! TA.AperFunction,ComponentPad*
%ADD23O,0.059055X0.07874*%
%ADD24R,0.074X0.074*%
%ADD25C,0.098425*%
%ADD26R,0.098425X0.098425*%
%ADD31C,0.07874*%
G04 #@! TA.AperFunction,ViaPad*
%ADD35C,0.04*%
%FSLAX26Y26*%
G04*
G70*
G90*
G75*
G01*
G04 Bottom*
%LPD*%
D35*
X687500Y1150000D3*
X1062500Y1050000D3*
X687500Y925000D3*
X600000Y1037500D3*
X1300000Y1050000D3*
X122560Y2482261D2*
D16*
X2049851D1*
X93781Y2457392D2*
X2077303D1*
X76161Y2432524D2*
X134641D1*
X259063D2*
X1906315D1*
X2030701D2*
X2094850D1*
X65360Y2407655D2*
X114079D1*
X279625D2*
X1885717D1*
X2051263D2*
X2105867D1*
X59511Y2382786D2*
X104426D1*
X289278D2*
X1876100D1*
X2060916D2*
X2111859D1*
X57538Y2357917D2*
X102201D1*
X291502D2*
X1873875D1*
X2063141D2*
X2114120D1*
X57538Y2333049D2*
X106830D1*
X286873D2*
X1878504D1*
X2058512D2*
X2114120D1*
X57538Y2308180D2*
X119569D1*
X274134D2*
X414142D1*
X535838D2*
X551938D1*
X673633D2*
X689733D1*
X973302D2*
X1189133D1*
X1310865D2*
X1326929D1*
X1448660D2*
X1464724D1*
X1748293D2*
X1891243D1*
X2045773D2*
X2114120D1*
X57538Y2283311D2*
X146554D1*
X247150D2*
X397133D1*
X973302D2*
X1172124D1*
X1748293D2*
X1918192D1*
X2018788D2*
X2114120D1*
X57538Y2258442D2*
X390531D1*
X973302D2*
X1165521D1*
X1748293D2*
X2114120D1*
X57538Y2233574D2*
X391751D1*
X973302D2*
X1166742D1*
X1748293D2*
X2114120D1*
X57538Y2208705D2*
X401188D1*
X973302D2*
X1176179D1*
X1748293D2*
X2114120D1*
X57538Y2183836D2*
X423365D1*
X526616D2*
X561160D1*
X664411D2*
X698955D1*
X973302D2*
X1198391D1*
X1301606D2*
X1336187D1*
X1439402D2*
X1473982D1*
X1748293D2*
X2114120D1*
X57538Y2158967D2*
X2114120D1*
X57538Y2134099D2*
X265115D1*
X434896D2*
X1573238D1*
X1601778D2*
X2114120D1*
X57538Y2109230D2*
X265115D1*
X434896D2*
X1529495D1*
X1645520D2*
X2114120D1*
X57538Y2084361D2*
X265115D1*
X434896D2*
X1515823D1*
X1659192D2*
X1777957D1*
X1834164D2*
X2114120D1*
X57538Y2059492D2*
X265115D1*
X434896D2*
X1512486D1*
X1662494D2*
X1740853D1*
X1871268D2*
X2114120D1*
X57538Y2034623D2*
X265115D1*
X434896D2*
X1518012D1*
X1657003D2*
X1726284D1*
X1885837D2*
X2114120D1*
X57538Y2009755D2*
X265115D1*
X434896D2*
X1535164D1*
X1639815D2*
X1721224D1*
X1890896D2*
X2114120D1*
X57538Y1984886D2*
X265115D1*
X434896D2*
X1506529D1*
X1593488D2*
X1723915D1*
X1888205D2*
X2114120D1*
X57538Y1960017D2*
X272902D1*
X427109D2*
X1483958D1*
X1616060D2*
X1735219D1*
X1876902D2*
X2114120D1*
X57538Y1935148D2*
X265725D1*
X434286D2*
X1475668D1*
X1624349D2*
X1755457D1*
X1856663D2*
X2114120D1*
X57538Y1910280D2*
X266407D1*
X433568D2*
X1476458D1*
X1623559D2*
X1732671D1*
X1879449D2*
X2114120D1*
X57538Y1885411D2*
X275235D1*
X424776D2*
X1486685D1*
X1613296D2*
X1722982D1*
X1889138D2*
X2114120D1*
X57538Y1860542D2*
X296155D1*
X403820D2*
X1514172D1*
X1585809D2*
X1721511D1*
X1890609D2*
X2114120D1*
X57538Y1835673D2*
X1727863D1*
X1884258D2*
X2114120D1*
X57538Y1810805D2*
X1721152D1*
X1890968D2*
X2114120D1*
X57538Y1785936D2*
X1721152D1*
X1890968D2*
X2114120D1*
X57538Y1761067D2*
X1721152D1*
X1890968D2*
X2114120D1*
X57538Y1736198D2*
X1721152D1*
X1890968D2*
X2114120D1*
X57538Y1711329D2*
X1721152D1*
X1890968D2*
X2114120D1*
X57538Y1686461D2*
X1721152D1*
X1890968D2*
X2114120D1*
X57538Y1661592D2*
X1721152D1*
X1890968D2*
X2114120D1*
X57538Y1636723D2*
X2114120D1*
X57538Y1611854D2*
X265115D1*
X434896D2*
X2114120D1*
X57538Y1586986D2*
X265115D1*
X434896D2*
X734768D1*
X815232D2*
X1272277D1*
X1352705D2*
X2114120D1*
X57538Y1562117D2*
X265115D1*
X434896D2*
X710151D1*
X839849D2*
X1247660D1*
X1377358D2*
X2114120D1*
X57538Y1537248D2*
X265115D1*
X434896D2*
X700965D1*
X849035D2*
X1238474D1*
X1386508D2*
X2114120D1*
X57538Y1512379D2*
X265115D1*
X434896D2*
X701037D1*
X848963D2*
X1238546D1*
X1386437D2*
X1647948D1*
X1727049D2*
X2114120D1*
X57538Y1487511D2*
X265115D1*
X434896D2*
X710366D1*
X839633D2*
X1247876D1*
X1377143D2*
X1622901D1*
X1752096D2*
X2114120D1*
X57538Y1462642D2*
X281873D1*
X418102D2*
X735414D1*
X814586D2*
X1272887D1*
X1352095D2*
X1613536D1*
X1761462D2*
X2114120D1*
X57538Y1437773D2*
X268991D1*
X431020D2*
X1613464D1*
X1761534D2*
X2114120D1*
X57538Y1412904D2*
X265080D1*
X434896D2*
X1622650D1*
X1853146D2*
X2114120D1*
X57538Y1388036D2*
X268919D1*
X431092D2*
X1647231D1*
X1877978D2*
X2114120D1*
X57538Y1363167D2*
X281730D1*
X418281D2*
X1723521D1*
X1888600D2*
X2114120D1*
X57538Y1338298D2*
X294756D1*
X405255D2*
X1562042D1*
X1637985D2*
X1721332D1*
X1890789D2*
X2114120D1*
X57538Y1313429D2*
X274625D1*
X425386D2*
X1535954D1*
X1664037D2*
X1726894D1*
X1885227D2*
X2114120D1*
X57538Y1288560D2*
X266228D1*
X433783D2*
X1526229D1*
X1673797D2*
X1742252D1*
X1869868D2*
X2114120D1*
X57538Y1263692D2*
X265869D1*
X434106D2*
X500229D1*
X574772D2*
X1525835D1*
X1674156D2*
X1744908D1*
X1867213D2*
X2114120D1*
X57538Y1238823D2*
X273476D1*
X426535D2*
X473710D1*
X601291D2*
X1534590D1*
X1665400D2*
X1728042D1*
X1884078D2*
X2114120D1*
X57538Y1213954D2*
X292136D1*
X407839D2*
X463806D1*
X611195D2*
X1558274D1*
X1641717D2*
X1721547D1*
X1890574D2*
X2114120D1*
X57538Y1189085D2*
X463268D1*
X611733D2*
X1722875D1*
X1889246D2*
X2114120D1*
X57538Y1164217D2*
X471880D1*
X603121D2*
X1732420D1*
X1879701D2*
X2114120D1*
X57538Y1139348D2*
X495169D1*
X579832D2*
X1721152D1*
X1890968D2*
X2114120D1*
X57538Y1114479D2*
X439226D1*
X510791D2*
X1721152D1*
X1890968D2*
X2114120D1*
X57538Y1089610D2*
X411702D1*
X538278D2*
X1721152D1*
X1890968D2*
X2114120D1*
X57538Y1064742D2*
X401439D1*
X548541D2*
X1721152D1*
X1890968D2*
X2114120D1*
X57538Y1039873D2*
X400650D1*
X549366D2*
X1721152D1*
X1890968D2*
X2114120D1*
X57538Y1015004D2*
X408939D1*
X541077D2*
X1721152D1*
X1890968D2*
X2114120D1*
X57538Y990135D2*
X265115D1*
X518506D2*
X1721152D1*
X1890968D2*
X2114120D1*
X57538Y965267D2*
X265115D1*
X434896D2*
X2114120D1*
X57538Y940398D2*
X265115D1*
X434896D2*
X2114120D1*
X57538Y915529D2*
X265115D1*
X434896D2*
X2114120D1*
X57538Y890660D2*
X265115D1*
X434896D2*
X2114120D1*
X57538Y865791D2*
X265115D1*
X434896D2*
X2114120D1*
X57538Y840923D2*
X265115D1*
X434896D2*
X2114120D1*
X57538Y816054D2*
X275701D1*
X424274D2*
X2114120D1*
X57538Y791185D2*
X266587D1*
X433424D2*
X2114120D1*
X57538Y766316D2*
X265618D1*
X434393D2*
X2114120D1*
X57538Y741448D2*
X272508D1*
X427503D2*
X2114120D1*
X57538Y716579D2*
X289983D1*
X410028D2*
X1748962D1*
X1851065D2*
X2114120D1*
X57538Y691710D2*
X285175D1*
X414800D2*
X1726427D1*
X1873564D2*
X2114120D1*
X57538Y666841D2*
X270390D1*
X429621D2*
X1716846D1*
X1883146D2*
X2114120D1*
X57538Y641973D2*
X265187D1*
X434788D2*
X1715482D1*
X1884509D2*
X2114120D1*
X57538Y617104D2*
X267735D1*
X432276D2*
X1721942D1*
X1878050D2*
X2114120D1*
X57538Y592235D2*
X278823D1*
X421152D2*
X1715088D1*
X1884904D2*
X2114120D1*
X57538Y567366D2*
X300031D1*
X399944D2*
X1715088D1*
X1884904D2*
X2114120D1*
X57538Y542497D2*
X276885D1*
X423090D2*
X1715088D1*
X1884904D2*
X2114120D1*
X57538Y517629D2*
X267017D1*
X432994D2*
X910815D1*
X1313915D2*
X1715088D1*
X1884904D2*
X2114120D1*
X57538Y492760D2*
X265403D1*
X434573D2*
X898794D1*
X1325936D2*
X1715088D1*
X1884904D2*
X2114120D1*
X57538Y467891D2*
X271610D1*
X428401D2*
X897144D1*
X1327587D2*
X1488120D1*
X1586886D2*
X1715088D1*
X1884904D2*
X2114120D1*
X57538Y443022D2*
X287974D1*
X412037D2*
X899189D1*
X1325541D2*
X1469173D1*
X1605833D2*
X1715088D1*
X1884904D2*
X2114120D1*
X57538Y418154D2*
X337924D1*
X362051D2*
X839693D1*
X1312587D2*
X1462678D1*
X1612328D2*
X2114120D1*
X57538Y393285D2*
X839693D1*
X1275842D2*
X1465047D1*
X1609959D2*
X2114120D1*
X57538Y368416D2*
X839693D1*
X1277600D2*
X1477355D1*
X1597651D2*
X2114120D1*
X57538Y343547D2*
X839693D1*
X1275698D2*
X1512414D1*
X1562592D2*
X2114120D1*
X57538Y318679D2*
X839693D1*
X1263031D2*
X2114120D1*
X57538Y293810D2*
X2114120D1*
X57538Y268941D2*
X136794D1*
X256910D2*
X1908468D1*
X2028548D2*
X2114120D1*
X57538Y244072D2*
X115120D1*
X278584D2*
X1886758D1*
X2050258D2*
X2114120D1*
X57538Y219204D2*
X104857D1*
X288847D2*
X1876495D1*
X2060485D2*
X2114120D1*
X57932Y194335D2*
X102129D1*
X291574D2*
X513613D1*
X561387D2*
X800436D1*
X924284D2*
X1250459D1*
X1374272D2*
X1873804D1*
X2063212D2*
X2113653D1*
X60516Y169466D2*
X106256D1*
X287448D2*
X477657D1*
X597343D2*
X778188D1*
X946568D2*
X1228175D1*
X1396556D2*
X1877930D1*
X2059086D2*
X2111177D1*
X67693Y144597D2*
X118349D1*
X275355D2*
X465134D1*
X609867D2*
X767243D1*
X957513D2*
X1217231D1*
X1407501D2*
X1889987D1*
X2047029D2*
X2103821D1*
X80396Y119728D2*
X143755D1*
X249949D2*
X462622D1*
X612379D2*
X763690D1*
X961030D2*
X1213678D1*
X1411053D2*
X1915393D1*
X2021623D2*
X2091262D1*
X100455Y94860D2*
X469009D1*
X605991D2*
X766705D1*
X958051D2*
X1216692D1*
X1408039D2*
X2071812D1*
X133146Y69991D2*
X487669D1*
X587332D2*
X776932D1*
X947788D2*
X1226919D1*
X1397812D2*
X2037471D1*
X1212402Y516390D2*
X1218019Y522891D1*
X1225503Y529283D1*
X1233894Y534425D1*
X1242987Y538191D1*
X1252556Y540489D1*
X1262367Y541261D1*
X1272179Y540489D1*
X1281748Y538191D1*
X1290841Y534425D1*
X1299232Y529283D1*
X1306715Y522891D1*
X1313107Y515408D1*
X1318249Y507016D1*
X1322015Y497924D1*
X1324313Y488354D1*
X1325085Y478543D1*
X1324892Y453938D1*
X1323352Y444217D1*
X1320311Y434857D1*
X1315843Y426088D1*
X1310058Y418126D1*
X1303099Y411167D1*
X1295137Y405383D1*
X1286368Y400915D1*
X1277009Y397874D1*
X1272311Y396939D1*
X1273957Y390386D1*
X1274919Y383104D1*
X1275085Y369357D1*
X1274843Y353354D1*
X1273771Y346087D1*
X1271857Y338996D1*
X1269127Y332178D1*
X1265618Y325725D1*
X1261380Y319726D1*
X1256469Y314265D1*
X1250953Y309415D1*
X1244908Y305243D1*
X1238417Y301806D1*
X1231568Y299152D1*
X1224456Y297317D1*
X1217178Y296326D1*
X1209835Y296192D1*
X1202526Y296918D1*
X1195352Y298493D1*
X1188411Y300896D1*
X1181799Y304094D1*
X1175606Y308044D1*
X1169918Y312690D1*
X1164811Y317969D1*
X1162366Y321003D1*
X1156715Y314510D1*
X1149232Y308119D1*
X1140841Y302977D1*
X1131748Y299210D1*
X1122179Y296913D1*
X1112367Y296141D1*
X1102556Y296913D1*
X1092987Y299210D1*
X1083894Y302977D1*
X1075503Y308119D1*
X1068019Y314510D1*
X1062402Y321012D1*
X1056715Y314510D1*
X1049232Y308119D1*
X1040841Y302977D1*
X1031748Y299210D1*
X1022179Y296913D1*
X1012367Y296141D1*
X1002556Y296913D1*
X992987Y299210D1*
X983894Y302977D1*
X982568Y303719D1*
X982558Y298511D1*
X842178D1*
Y438891D1*
X902930D1*
X901383Y444217D1*
X899843Y453938D1*
X899650Y478543D1*
X900422Y488354D1*
X902720Y497924D1*
X906486Y507016D1*
X911628Y515408D1*
X918019Y522891D1*
X925503Y529283D1*
X933894Y534425D1*
X942987Y538191D1*
X952556Y540489D1*
X962367Y541261D1*
X972179Y540489D1*
X981748Y538191D1*
X990841Y534425D1*
X999232Y529283D1*
X1006715Y522891D1*
X1012333Y516390D1*
X1018019Y522891D1*
X1025503Y529283D1*
X1033894Y534425D1*
X1042987Y538191D1*
X1052556Y540489D1*
X1062367Y541261D1*
X1072179Y540489D1*
X1081748Y538191D1*
X1090841Y534425D1*
X1099232Y529283D1*
X1106715Y522891D1*
X1112333Y516390D1*
X1118019Y522891D1*
X1125503Y529283D1*
X1133894Y534425D1*
X1142987Y538191D1*
X1152556Y540489D1*
X1162367Y541261D1*
X1172179Y540489D1*
X1181748Y538191D1*
X1190841Y534425D1*
X1199232Y529283D1*
X1206715Y522891D1*
X1212333Y516390D1*
X958253Y111154D2*
X957365Y103655D1*
X955892Y96248D1*
X953842Y88979D1*
X951228Y81893D1*
X948066Y75035D1*
X944376Y68446D1*
X940180Y62166D1*
X935505Y56235D1*
X931400Y51795D1*
X1243257Y51815D1*
X1239230Y56235D1*
X1234554Y62166D1*
X1230359Y68446D1*
X1226669Y75035D1*
X1223507Y81893D1*
X1220893Y88979D1*
X1218843Y96248D1*
X1217369Y103655D1*
X1216482Y111154D1*
X1216185Y118701D1*
X1216482Y126247D1*
X1217369Y133747D1*
X1218843Y141154D1*
X1220893Y148423D1*
X1223507Y155508D1*
X1226669Y162367D1*
X1230359Y168956D1*
X1234554Y175235D1*
X1239230Y181166D1*
X1244356Y186712D1*
X1249902Y191838D1*
X1255833Y196514D1*
X1262112Y200710D1*
X1268702Y204400D1*
X1275560Y207561D1*
X1282646Y210175D1*
X1289914Y212225D1*
X1297321Y213699D1*
X1304821Y214586D1*
X1312367Y214883D1*
X1319914Y214586D1*
X1327414Y213699D1*
X1334821Y212225D1*
X1342089Y210175D1*
X1349175Y207561D1*
X1356033Y204400D1*
X1362622Y200710D1*
X1368902Y196514D1*
X1374833Y191838D1*
X1380378Y186712D1*
X1385505Y181166D1*
X1390180Y175235D1*
X1394376Y168956D1*
X1398066Y162367D1*
X1401228Y155508D1*
X1403842Y148423D1*
X1405892Y141154D1*
X1407365Y133747D1*
X1408253Y126247D1*
X1408550Y118701D1*
X1408253Y111154D1*
X1407365Y103655D1*
X1405892Y96248D1*
X1403842Y88979D1*
X1401228Y81893D1*
X1398066Y75035D1*
X1394376Y68446D1*
X1390180Y62166D1*
X1385505Y56235D1*
X1381400Y51795D1*
X1969109Y51815D1*
X1999876Y54846D1*
X2027029Y63080D1*
X2052052Y76453D1*
X2073985Y94450D1*
X2091986Y116380D1*
X2105362Y141401D1*
X2113600Y168550D1*
X2116633Y199325D1*
X2116634Y2359595D1*
X2113603Y2390373D1*
X2105369Y2417526D1*
X2091997Y2442548D1*
X2073999Y2464481D1*
X2052069Y2482481D1*
X2027049Y2495856D1*
X1999899Y2504094D1*
X1969125Y2507127D1*
X202263Y2507130D1*
X174853Y2504732D1*
X150484Y2498201D1*
X127611Y2487536D1*
X106938Y2473061D1*
X89092Y2455215D1*
X74617Y2434542D1*
X63951Y2411670D1*
X57419Y2387293D1*
X55020Y2359879D1*
Y199063D1*
X57418Y171648D1*
X63949Y147279D1*
X74614Y124406D1*
X89090Y103733D1*
X106935Y85887D1*
X127608Y71411D1*
X150480Y60745D1*
X174857Y54212D1*
X202269Y51814D1*
X793269Y51815D1*
X789230Y56235D1*
X784554Y62166D1*
X780359Y68446D1*
X776669Y75035D1*
X773507Y81893D1*
X770893Y88979D1*
X768843Y96248D1*
X767369Y103655D1*
X766482Y111154D1*
X766185Y118701D1*
X766482Y126247D1*
X767369Y133747D1*
X768843Y141154D1*
X770893Y148423D1*
X773507Y155508D1*
X776669Y162367D1*
X780359Y168956D1*
X784554Y175235D1*
X789230Y181166D1*
X794356Y186712D1*
X799902Y191838D1*
X805833Y196514D1*
X812112Y200710D1*
X818702Y204400D1*
X825560Y207561D1*
X832646Y210175D1*
X839914Y212225D1*
X847321Y213699D1*
X854821Y214586D1*
X862367Y214883D1*
X869914Y214586D1*
X877414Y213699D1*
X884821Y212225D1*
X892089Y210175D1*
X899175Y207561D1*
X906033Y204400D1*
X912622Y200710D1*
X918902Y196514D1*
X924833Y191838D1*
X930378Y186712D1*
X935505Y181166D1*
X940180Y175235D1*
X944376Y168956D1*
X948066Y162367D1*
X951228Y155508D1*
X953842Y148423D1*
X955892Y141154D1*
X957365Y133747D1*
X958253Y126247D1*
X958550Y118701D1*
X958253Y111154D1*
X432149Y1918535D2*
X431388Y1912109D1*
X430126Y1905763D1*
X428370Y1899536D1*
X426130Y1893466D1*
X423421Y1887590D1*
X420260Y1881945D1*
X416665Y1876565D1*
X412659Y1871484D1*
X408267Y1866733D1*
X403516Y1862341D1*
X398435Y1858335D1*
X393055Y1854740D1*
X387410Y1851579D1*
X381534Y1848870D1*
X375464Y1846630D1*
X369237Y1844874D1*
X362891Y1843612D1*
X356465Y1842851D1*
X350000Y1842597D1*
X343535Y1842851D1*
X337109Y1843612D1*
X330763Y1844874D1*
X324536Y1846630D1*
X318466Y1848870D1*
X312590Y1851579D1*
X306945Y1854740D1*
X301565Y1858335D1*
X296484Y1862341D1*
X291733Y1866733D1*
X287341Y1871484D1*
X283335Y1876565D1*
X279740Y1881945D1*
X276579Y1887590D1*
X273870Y1893466D1*
X271630Y1899536D1*
X269874Y1905763D1*
X268612Y1912109D1*
X267851Y1918535D1*
X267597Y1925000D1*
X267851Y1931465D1*
X268612Y1937891D1*
X269874Y1944237D1*
X271630Y1950464D1*
X273870Y1956534D1*
X276579Y1962410D1*
X279740Y1968055D1*
X283335Y1973435D1*
X289073Y1980391D1*
X267598Y1980393D1*
Y2145198D1*
X432403D1*
Y1980393D1*
X411009D1*
X416665Y1973435D1*
X420260Y1968055D1*
X423421Y1962410D1*
X426130Y1956534D1*
X428370Y1950464D1*
X430126Y1944237D1*
X431388Y1937891D1*
X432149Y1931465D1*
X432403Y1925000D1*
X432149Y1918535D1*
Y1268535D2*
X431388Y1262109D1*
X430126Y1255763D1*
X428370Y1249536D1*
X426130Y1243466D1*
X423421Y1237590D1*
X420260Y1231945D1*
X416665Y1226565D1*
X412659Y1221484D1*
X408267Y1216733D1*
X403516Y1212341D1*
X398435Y1208335D1*
X393055Y1204740D1*
X387410Y1201579D1*
X381534Y1198870D1*
X375464Y1196630D1*
X369237Y1194874D1*
X362891Y1193612D1*
X356465Y1192851D1*
X350000Y1192597D1*
X343535Y1192851D1*
X337109Y1193612D1*
X330763Y1194874D1*
X324536Y1196630D1*
X318466Y1198870D1*
X312590Y1201579D1*
X306945Y1204740D1*
X301565Y1208335D1*
X296484Y1212341D1*
X291733Y1216733D1*
X287341Y1221484D1*
X283335Y1226565D1*
X279740Y1231945D1*
X276579Y1237590D1*
X273870Y1243466D1*
X271630Y1249536D1*
X269874Y1255763D1*
X268612Y1262109D1*
X267851Y1268535D1*
X267597Y1275000D1*
X267851Y1281465D1*
X268612Y1287891D1*
X269874Y1294237D1*
X271630Y1300464D1*
X273870Y1306534D1*
X276579Y1312410D1*
X279740Y1318055D1*
X283335Y1323435D1*
X287341Y1328516D1*
X291733Y1333267D1*
X296484Y1337659D1*
X304864Y1343870D1*
X296484Y1350136D1*
X291733Y1354528D1*
X287341Y1359279D1*
X283335Y1364360D1*
X279740Y1369740D1*
X276579Y1375385D1*
X273870Y1381261D1*
X271630Y1387331D1*
X269874Y1393559D1*
X268612Y1399905D1*
X267851Y1406330D1*
X267597Y1412795D1*
X267851Y1419261D1*
X268612Y1425686D1*
X269874Y1432032D1*
X271630Y1438259D1*
X273870Y1444329D1*
X276579Y1450205D1*
X279740Y1455851D1*
X283335Y1461230D1*
X289073Y1468186D1*
X267598Y1468188D1*
Y1632993D1*
X432403D1*
Y1468188D1*
X411009D1*
X416665Y1461230D1*
X420260Y1455851D1*
X423421Y1450205D1*
X426130Y1444329D1*
X428370Y1438259D1*
X430126Y1432032D1*
X431388Y1425686D1*
X432149Y1419261D1*
X432403Y1412795D1*
X432149Y1406330D1*
X431388Y1399905D1*
X430126Y1393559D1*
X428370Y1387331D1*
X426130Y1381261D1*
X423421Y1375385D1*
X420260Y1369740D1*
X416665Y1364360D1*
X412659Y1359279D1*
X408267Y1354528D1*
X403516Y1350136D1*
X395136Y1343926D1*
X403516Y1337659D1*
X408267Y1333267D1*
X412659Y1328516D1*
X416665Y1323435D1*
X420260Y1318055D1*
X423421Y1312410D1*
X426130Y1306534D1*
X428370Y1300464D1*
X430126Y1294237D1*
X431388Y1287891D1*
X432149Y1281465D1*
X432403Y1275000D1*
X432149Y1268535D1*
X1888209Y1999577D2*
X1887448Y1993151D1*
X1886186Y1986805D1*
X1884430Y1980578D1*
X1882190Y1974508D1*
X1879482Y1968632D1*
X1876320Y1962987D1*
X1872725Y1957607D1*
X1868720Y1952526D1*
X1864328Y1947775D1*
X1859577Y1943383D1*
X1851196Y1937172D1*
X1859577Y1930906D1*
X1864328Y1926514D1*
X1868720Y1921763D1*
X1872725Y1916682D1*
X1876320Y1911302D1*
X1879482Y1905657D1*
X1882190Y1899781D1*
X1884430Y1893711D1*
X1886186Y1887483D1*
X1887448Y1881137D1*
X1888209Y1874712D1*
X1888463Y1868247D1*
X1888209Y1861781D1*
X1887448Y1855356D1*
X1886186Y1849010D1*
X1884430Y1842783D1*
X1882190Y1836713D1*
X1879482Y1830837D1*
X1876320Y1825191D1*
X1872725Y1819812D1*
X1866987Y1812856D1*
X1888463Y1812854D1*
Y1648049D1*
X1723658D1*
Y1812854D1*
X1745052D1*
X1739395Y1819812D1*
X1735801Y1825191D1*
X1732639Y1830837D1*
X1729930Y1836713D1*
X1727691Y1842783D1*
X1725935Y1849010D1*
X1724672Y1855356D1*
X1723912Y1861781D1*
X1723658Y1868247D1*
X1723912Y1874712D1*
X1724672Y1881137D1*
X1725935Y1887483D1*
X1727691Y1893711D1*
X1729930Y1899781D1*
X1732639Y1905657D1*
X1735801Y1911302D1*
X1739395Y1916682D1*
X1743401Y1921763D1*
X1747793Y1926514D1*
X1752544Y1930906D1*
X1760925Y1937116D1*
X1752544Y1943383D1*
X1747793Y1947775D1*
X1743401Y1952526D1*
X1739395Y1957607D1*
X1735801Y1962987D1*
X1732639Y1968632D1*
X1729930Y1974508D1*
X1727691Y1980578D1*
X1725935Y1986805D1*
X1724672Y1993151D1*
X1723912Y1999577D1*
X1723658Y2006042D1*
X1723912Y2012507D1*
X1724672Y2018933D1*
X1725935Y2025278D1*
X1727691Y2031506D1*
X1729930Y2037576D1*
X1732639Y2043452D1*
X1735801Y2049097D1*
X1739395Y2054477D1*
X1743401Y2059558D1*
X1747793Y2064309D1*
X1752544Y2068701D1*
X1757625Y2072707D1*
X1763005Y2076302D1*
X1768650Y2079463D1*
X1774526Y2082172D1*
X1780597Y2084412D1*
X1786824Y2086168D1*
X1793170Y2087430D1*
X1799595Y2088191D1*
X1806060Y2088445D1*
X1812526Y2088191D1*
X1818951Y2087430D1*
X1825297Y2086168D1*
X1831524Y2084412D1*
X1837594Y2082172D1*
X1843470Y2079463D1*
X1849116Y2076302D1*
X1854495Y2072707D1*
X1859577Y2068701D1*
X1864328Y2064309D1*
X1868720Y2059558D1*
X1872725Y2054477D1*
X1876320Y2049097D1*
X1879482Y2043452D1*
X1882190Y2037576D1*
X1884430Y2031506D1*
X1886186Y2025278D1*
X1887448Y2018933D1*
X1888209Y2012507D1*
X1888463Y2006042D1*
X1888209Y1999577D1*
X1882149Y643535D2*
X1881388Y637109D1*
X1880126Y630763D1*
X1878370Y624536D1*
X1876130Y618466D1*
X1873421Y612590D1*
X1870260Y606945D1*
X1866665Y601565D1*
X1860927Y594609D1*
X1882403Y594607D1*
Y429802D1*
X1717598D1*
Y594607D1*
X1738992D1*
X1733335Y601565D1*
X1729740Y606945D1*
X1726579Y612590D1*
X1723870Y618466D1*
X1721630Y624536D1*
X1719874Y630763D1*
X1718612Y637109D1*
X1717851Y643535D1*
X1717597Y650000D1*
X1717851Y656465D1*
X1718612Y662891D1*
X1719874Y669237D1*
X1721630Y675464D1*
X1723870Y681534D1*
X1726579Y687410D1*
X1729740Y693055D1*
X1733335Y698435D1*
X1737341Y703516D1*
X1741733Y708267D1*
X1746484Y712659D1*
X1751565Y716665D1*
X1756945Y720260D1*
X1762590Y723421D1*
X1768466Y726130D1*
X1774536Y728370D1*
X1780763Y730126D1*
X1787109Y731388D1*
X1793535Y732149D1*
X1800000Y732403D1*
X1806465Y732149D1*
X1812891Y731388D1*
X1819237Y730126D1*
X1825464Y728370D1*
X1831534Y726130D1*
X1837410Y723421D1*
X1843055Y720260D1*
X1848435Y716665D1*
X1853516Y712659D1*
X1858267Y708267D1*
X1862659Y703516D1*
X1866665Y698435D1*
X1870260Y693055D1*
X1873421Y687410D1*
X1876130Y681534D1*
X1878370Y675464D1*
X1880126Y669237D1*
X1881388Y662891D1*
X1882149Y656465D1*
X1882403Y650000D1*
X1882149Y643535D1*
X432149Y493535D2*
X431388Y487109D1*
X430126Y480763D1*
X428370Y474536D1*
X426130Y468466D1*
X423421Y462590D1*
X420260Y456945D1*
X416665Y451565D1*
X412659Y446484D1*
X408267Y441733D1*
X403516Y437341D1*
X398435Y433335D1*
X393055Y429740D1*
X387410Y426579D1*
X381534Y423870D1*
X375464Y421630D1*
X369237Y419874D1*
X362891Y418612D1*
X356465Y417851D1*
X350000Y417597D1*
X343535Y417851D1*
X337109Y418612D1*
X330763Y419874D1*
X324536Y421630D1*
X318466Y423870D1*
X312590Y426579D1*
X306945Y429740D1*
X301565Y433335D1*
X296484Y437341D1*
X291733Y441733D1*
X287341Y446484D1*
X283335Y451565D1*
X279740Y456945D1*
X276579Y462590D1*
X273870Y468466D1*
X271630Y474536D1*
X269874Y480763D1*
X268612Y487109D1*
X267851Y493535D1*
X267597Y500000D1*
X267851Y506465D1*
X268612Y512891D1*
X269874Y519237D1*
X271630Y525464D1*
X273870Y531534D1*
X276579Y537410D1*
X279740Y543055D1*
X283335Y548435D1*
X287341Y553516D1*
X291733Y558267D1*
X296484Y562659D1*
X304864Y568870D1*
X296484Y575136D1*
X291733Y579528D1*
X287341Y584279D1*
X283335Y589360D1*
X279740Y594740D1*
X276579Y600385D1*
X273870Y606261D1*
X271630Y612331D1*
X269874Y618559D1*
X268612Y624905D1*
X267851Y631330D1*
X267597Y637795D1*
X267851Y644261D1*
X268612Y650686D1*
X269874Y657032D1*
X271630Y663259D1*
X273870Y669329D1*
X276579Y675205D1*
X279740Y680851D1*
X283335Y686230D1*
X287341Y691311D1*
X291733Y696063D1*
X296484Y700455D1*
X304864Y706665D1*
X296484Y712931D1*
X291733Y717323D1*
X287341Y722074D1*
X283335Y727156D1*
X279740Y732535D1*
X276579Y738181D1*
X273870Y744056D1*
X271630Y750127D1*
X269874Y756354D1*
X268612Y762700D1*
X267851Y769125D1*
X267597Y775591D1*
X267851Y782056D1*
X268612Y788481D1*
X269874Y794827D1*
X271630Y801054D1*
X273870Y807125D1*
X276579Y813001D1*
X279740Y818646D1*
X283335Y824026D1*
X289073Y830981D1*
X267598Y830983D1*
Y995788D1*
X426768D1*
X419825Y1002876D1*
X413132Y1012087D1*
X407963Y1022232D1*
X404445Y1033061D1*
X402664Y1044307D1*
Y1055693D1*
X404445Y1066939D1*
X407963Y1077768D1*
X413132Y1087913D1*
X419825Y1097124D1*
X427876Y1105175D1*
X437087Y1111868D1*
X447232Y1117037D1*
X458061Y1120555D1*
X469307Y1122336D1*
X480693D1*
X491939Y1120555D1*
X502768Y1117037D1*
X512913Y1111868D1*
X522124Y1105175D1*
X530175Y1097124D1*
X536868Y1087913D1*
X542037Y1077768D1*
X545555Y1066939D1*
X547336Y1055693D1*
Y1044307D1*
X545555Y1033061D1*
X542037Y1022232D1*
X536868Y1012087D1*
X530175Y1002876D1*
X522124Y994825D1*
X512913Y988132D1*
X502768Y982963D1*
X491939Y979445D1*
X480693Y977664D1*
X469307D1*
X458061Y979445D1*
X447232Y982963D1*
X437087Y988132D1*
X432406Y991261D1*
X432403Y830983D1*
X410980D1*
X416665Y824026D1*
X420260Y818646D1*
X423421Y813001D1*
X426130Y807125D1*
X428370Y801054D1*
X430126Y794827D1*
X431388Y788481D1*
X432149Y782056D1*
X432403Y775591D1*
X432149Y769125D1*
X431388Y762700D1*
X430126Y756354D1*
X428370Y750127D1*
X426130Y744056D1*
X423421Y738181D1*
X420260Y732535D1*
X416665Y727156D1*
X412659Y722074D1*
X408267Y717323D1*
X403516Y712931D1*
X395136Y706721D1*
X403516Y700455D1*
X408267Y696063D1*
X412659Y691311D1*
X416665Y686230D1*
X420260Y680851D1*
X423421Y675205D1*
X426130Y669329D1*
X428370Y663259D1*
X430126Y657032D1*
X431388Y650686D1*
X432149Y644261D1*
X432403Y637795D1*
X432149Y631330D1*
X431388Y624905D1*
X430126Y618559D1*
X428370Y612331D1*
X426130Y606261D1*
X423421Y600385D1*
X420260Y594740D1*
X416665Y589360D1*
X412659Y584279D1*
X408267Y579528D1*
X403516Y575136D1*
X395136Y568926D1*
X403516Y562659D1*
X408267Y558267D1*
X412659Y553516D1*
X416665Y548435D1*
X420260Y543055D1*
X423421Y537410D1*
X426130Y531534D1*
X428370Y525464D1*
X430126Y519237D1*
X431388Y512891D1*
X432149Y506465D1*
X432403Y500000D1*
X432149Y493535D1*
X1318870Y2204864D2*
X1312659Y2196484D1*
X1308267Y2191733D1*
X1303516Y2187341D1*
X1298435Y2183335D1*
X1293055Y2179740D1*
X1287410Y2176579D1*
X1281534Y2173870D1*
X1275464Y2171630D1*
X1269237Y2169874D1*
X1262891Y2168612D1*
X1256465Y2167851D1*
X1250000Y2167597D1*
X1243535Y2167851D1*
X1237109Y2168612D1*
X1230763Y2169874D1*
X1224536Y2171630D1*
X1218466Y2173870D1*
X1212590Y2176579D1*
X1206945Y2179740D1*
X1201565Y2183335D1*
X1196484Y2187341D1*
X1191733Y2191733D1*
X1187341Y2196484D1*
X1183335Y2201565D1*
X1179740Y2206945D1*
X1176579Y2212590D1*
X1173870Y2218466D1*
X1171630Y2224536D1*
X1169874Y2230763D1*
X1168612Y2237109D1*
X1167851Y2243535D1*
X1167597Y2250000D1*
X1167851Y2256465D1*
X1168612Y2262891D1*
X1169874Y2269237D1*
X1171630Y2275464D1*
X1173870Y2281534D1*
X1176579Y2287410D1*
X1179740Y2293055D1*
X1183335Y2298435D1*
X1187341Y2303516D1*
X1191733Y2308267D1*
X1196484Y2312659D1*
X1201565Y2316665D1*
X1206945Y2320260D1*
X1212590Y2323421D1*
X1218466Y2326130D1*
X1224536Y2328370D1*
X1230763Y2330126D1*
X1237109Y2331388D1*
X1243535Y2332149D1*
X1250000Y2332403D1*
X1256465Y2332149D1*
X1262891Y2331388D1*
X1269237Y2330126D1*
X1275464Y2328370D1*
X1281534Y2326130D1*
X1287410Y2323421D1*
X1293055Y2320260D1*
X1298435Y2316665D1*
X1303516Y2312659D1*
X1308267Y2308267D1*
X1312659Y2303516D1*
X1318870Y2295136D1*
X1325136Y2303516D1*
X1329528Y2308267D1*
X1334279Y2312659D1*
X1339360Y2316665D1*
X1344740Y2320260D1*
X1350385Y2323421D1*
X1356261Y2326130D1*
X1362331Y2328370D1*
X1368559Y2330126D1*
X1374905Y2331388D1*
X1381330Y2332149D1*
X1387795Y2332403D1*
X1394261Y2332149D1*
X1400686Y2331388D1*
X1407032Y2330126D1*
X1413259Y2328370D1*
X1419329Y2326130D1*
X1425205Y2323421D1*
X1430851Y2320260D1*
X1436230Y2316665D1*
X1441311Y2312659D1*
X1446063Y2308267D1*
X1450455Y2303516D1*
X1456665Y2295136D1*
X1462931Y2303516D1*
X1467323Y2308267D1*
X1472074Y2312659D1*
X1477156Y2316665D1*
X1482535Y2320260D1*
X1488181Y2323421D1*
X1494056Y2326130D1*
X1500127Y2328370D1*
X1506354Y2330126D1*
X1512700Y2331388D1*
X1519125Y2332149D1*
X1525591Y2332403D1*
X1532056Y2332149D1*
X1538481Y2331388D1*
X1544827Y2330126D1*
X1551054Y2328370D1*
X1557125Y2326130D1*
X1563001Y2323421D1*
X1568646Y2320260D1*
X1574026Y2316665D1*
X1580981Y2310927D1*
X1580983Y2332402D1*
X1745789D1*
Y2167597D1*
X1580983D1*
Y2188991D1*
X1574026Y2183335D1*
X1568646Y2179740D1*
X1563001Y2176579D1*
X1557125Y2173870D1*
X1551054Y2171630D1*
X1544827Y2169874D1*
X1538481Y2168612D1*
X1532056Y2167851D1*
X1525591Y2167597D1*
X1519125Y2167851D1*
X1512700Y2168612D1*
X1506354Y2169874D1*
X1500127Y2171630D1*
X1494056Y2173870D1*
X1488181Y2176579D1*
X1482535Y2179740D1*
X1477156Y2183335D1*
X1472074Y2187341D1*
X1467323Y2191733D1*
X1462931Y2196484D1*
X1456721Y2204864D1*
X1450455Y2196484D1*
X1446063Y2191733D1*
X1441311Y2187341D1*
X1436230Y2183335D1*
X1430851Y2179740D1*
X1425205Y2176579D1*
X1419329Y2173870D1*
X1413259Y2171630D1*
X1407032Y2169874D1*
X1400686Y2168612D1*
X1394261Y2167851D1*
X1387795Y2167597D1*
X1381330Y2167851D1*
X1374905Y2168612D1*
X1368559Y2169874D1*
X1362331Y2171630D1*
X1356261Y2173870D1*
X1350385Y2176579D1*
X1344740Y2179740D1*
X1339360Y2183335D1*
X1334279Y2187341D1*
X1329528Y2191733D1*
X1325136Y2196484D1*
X1318926Y2204864D1*
X543870D2*
X537659Y2196484D1*
X533267Y2191733D1*
X528516Y2187341D1*
X523435Y2183335D1*
X518055Y2179740D1*
X512410Y2176579D1*
X506534Y2173870D1*
X500464Y2171630D1*
X494237Y2169874D1*
X487891Y2168612D1*
X481465Y2167851D1*
X475000Y2167597D1*
X468535Y2167851D1*
X462109Y2168612D1*
X455763Y2169874D1*
X449536Y2171630D1*
X443466Y2173870D1*
X437590Y2176579D1*
X431945Y2179740D1*
X426565Y2183335D1*
X421484Y2187341D1*
X416733Y2191733D1*
X412341Y2196484D1*
X408335Y2201565D1*
X404740Y2206945D1*
X401579Y2212590D1*
X398870Y2218466D1*
X396630Y2224536D1*
X394874Y2230763D1*
X393612Y2237109D1*
X392851Y2243535D1*
X392597Y2250000D1*
X392851Y2256465D1*
X393612Y2262891D1*
X394874Y2269237D1*
X396630Y2275464D1*
X398870Y2281534D1*
X401579Y2287410D1*
X404740Y2293055D1*
X408335Y2298435D1*
X412341Y2303516D1*
X416733Y2308267D1*
X421484Y2312659D1*
X426565Y2316665D1*
X431945Y2320260D1*
X437590Y2323421D1*
X443466Y2326130D1*
X449536Y2328370D1*
X455763Y2330126D1*
X462109Y2331388D1*
X468535Y2332149D1*
X475000Y2332403D1*
X481465Y2332149D1*
X487891Y2331388D1*
X494237Y2330126D1*
X500464Y2328370D1*
X506534Y2326130D1*
X512410Y2323421D1*
X518055Y2320260D1*
X523435Y2316665D1*
X528516Y2312659D1*
X533267Y2308267D1*
X537659Y2303516D1*
X543870Y2295136D1*
X550136Y2303516D1*
X554528Y2308267D1*
X559279Y2312659D1*
X564360Y2316665D1*
X569740Y2320260D1*
X575385Y2323421D1*
X581261Y2326130D1*
X587331Y2328370D1*
X593559Y2330126D1*
X599905Y2331388D1*
X606330Y2332149D1*
X612795Y2332403D1*
X619261Y2332149D1*
X625686Y2331388D1*
X632032Y2330126D1*
X638259Y2328370D1*
X644329Y2326130D1*
X650205Y2323421D1*
X655851Y2320260D1*
X661230Y2316665D1*
X666311Y2312659D1*
X671063Y2308267D1*
X675455Y2303516D1*
X681665Y2295136D1*
X687931Y2303516D1*
X692323Y2308267D1*
X697074Y2312659D1*
X702156Y2316665D1*
X707535Y2320260D1*
X713181Y2323421D1*
X719056Y2326130D1*
X725127Y2328370D1*
X731354Y2330126D1*
X737700Y2331388D1*
X744125Y2332149D1*
X750591Y2332403D1*
X757056Y2332149D1*
X763481Y2331388D1*
X769827Y2330126D1*
X776054Y2328370D1*
X782125Y2326130D1*
X788001Y2323421D1*
X793646Y2320260D1*
X799026Y2316665D1*
X805981Y2310927D1*
X805983Y2332402D1*
X970789D1*
Y2167597D1*
X805983D1*
Y2188991D1*
X799026Y2183335D1*
X793646Y2179740D1*
X788001Y2176579D1*
X782125Y2173870D1*
X776054Y2171630D1*
X769827Y2169874D1*
X763481Y2168612D1*
X757056Y2167851D1*
X750591Y2167597D1*
X744125Y2167851D1*
X737700Y2168612D1*
X731354Y2169874D1*
X725127Y2171630D1*
X719056Y2173870D1*
X713181Y2176579D1*
X707535Y2179740D1*
X702156Y2183335D1*
X697074Y2187341D1*
X692323Y2191733D1*
X687931Y2196484D1*
X681721Y2204864D1*
X675455Y2196484D1*
X671063Y2191733D1*
X666311Y2187341D1*
X661230Y2183335D1*
X655851Y2179740D1*
X650205Y2176579D1*
X644329Y2173870D1*
X638259Y2171630D1*
X632032Y2169874D1*
X625686Y2168612D1*
X619261Y2167851D1*
X612795Y2167597D1*
X606330Y2167851D1*
X599905Y2168612D1*
X593559Y2169874D1*
X587331Y2171630D1*
X581261Y2173870D1*
X575385Y2176579D1*
X569740Y2179740D1*
X564360Y2183335D1*
X559279Y2187341D1*
X554528Y2191733D1*
X550136Y2196484D1*
X543926Y2204864D1*
X1888209Y1337146D2*
X1887448Y1330721D1*
X1886186Y1324375D1*
X1884430Y1318148D1*
X1882190Y1312077D1*
X1879482Y1306202D1*
X1876320Y1300556D1*
X1872725Y1295177D1*
X1868720Y1290095D1*
X1864328Y1285344D1*
X1859577Y1280952D1*
X1851196Y1274742D1*
X1859577Y1268476D1*
X1864328Y1264084D1*
X1868720Y1259332D1*
X1872725Y1254251D1*
X1876320Y1248872D1*
X1879482Y1243226D1*
X1882190Y1237350D1*
X1884430Y1231280D1*
X1886186Y1225053D1*
X1887448Y1218707D1*
X1888209Y1212282D1*
X1888463Y1205816D1*
X1888209Y1199351D1*
X1887448Y1192926D1*
X1886186Y1186580D1*
X1884430Y1180352D1*
X1882190Y1174282D1*
X1879482Y1168406D1*
X1876320Y1162761D1*
X1872725Y1157381D1*
X1866987Y1150426D1*
X1888463Y1150423D1*
Y985618D1*
X1723658D1*
Y1150423D1*
X1745052D1*
X1739395Y1157381D1*
X1735801Y1162761D1*
X1732639Y1168406D1*
X1729930Y1174282D1*
X1727691Y1180352D1*
X1725935Y1186580D1*
X1724672Y1192926D1*
X1723912Y1199351D1*
X1723658Y1205816D1*
X1723912Y1212282D1*
X1724672Y1218707D1*
X1725935Y1225053D1*
X1727691Y1231280D1*
X1729930Y1237350D1*
X1732639Y1243226D1*
X1735801Y1248872D1*
X1739395Y1254251D1*
X1743401Y1259332D1*
X1747793Y1264084D1*
X1752544Y1268476D1*
X1760925Y1274686D1*
X1752544Y1280952D1*
X1747793Y1285344D1*
X1743401Y1290095D1*
X1739395Y1295177D1*
X1735801Y1300556D1*
X1732639Y1306202D1*
X1729930Y1312077D1*
X1727691Y1318148D1*
X1725935Y1324375D1*
X1724672Y1330721D1*
X1723912Y1337146D1*
X1723658Y1343612D1*
X1723912Y1350077D1*
X1724672Y1356502D1*
X1725935Y1362848D1*
X1727691Y1369075D1*
X1729930Y1375146D1*
X1732639Y1381022D1*
X1735801Y1386667D1*
X1739395Y1392047D1*
X1743401Y1397128D1*
X1747793Y1401879D1*
X1752544Y1406271D1*
X1757625Y1410277D1*
X1763005Y1413871D1*
X1768650Y1417033D1*
X1774526Y1419742D1*
X1780597Y1421981D1*
X1786824Y1423737D1*
X1793170Y1425000D1*
X1799595Y1425760D1*
X1806060Y1426014D1*
X1812526Y1425760D1*
X1818951Y1425000D1*
X1825297Y1423737D1*
X1831524Y1421981D1*
X1837594Y1419742D1*
X1843470Y1417033D1*
X1849116Y1413871D1*
X1854495Y1410277D1*
X1859577Y1406271D1*
X1864328Y1401879D1*
X1868720Y1397128D1*
X1872725Y1392047D1*
X1876320Y1386667D1*
X1879482Y1381022D1*
X1882190Y1375146D1*
X1884430Y1369075D1*
X1886186Y1362848D1*
X1887448Y1356502D1*
X1888209Y1350077D1*
X1888463Y1343612D1*
X1888209Y1337146D1*
X1610037Y410663D2*
X1609479Y403338D1*
X1608184Y396107D1*
X1606164Y389044D1*
X1603441Y382222D1*
X1600042Y375710D1*
X1596001Y369575D1*
X1591361Y363880D1*
X1586169Y358683D1*
X1580479Y354038D1*
X1574347Y349992D1*
X1567838Y346587D1*
X1561018Y343857D1*
X1553957Y341831D1*
X1546728Y340529D1*
X1539403Y339965D1*
X1532060Y340144D1*
X1524772Y341065D1*
X1517614Y342718D1*
X1510660Y345086D1*
X1503982Y348146D1*
X1497647Y351864D1*
X1491720Y356205D1*
X1486263Y361122D1*
X1481330Y366566D1*
X1476974Y372481D1*
X1473238Y378805D1*
X1470160Y385476D1*
X1467773Y392423D1*
X1466100Y399576D1*
X1465159Y406861D1*
X1464960Y414204D1*
X1465504Y421530D1*
X1466786Y428763D1*
X1468793Y435830D1*
X1471504Y442657D1*
X1474891Y449176D1*
X1478920Y455318D1*
X1483550Y461022D1*
X1488732Y466228D1*
X1494415Y470883D1*
X1500539Y474940D1*
X1507041Y478358D1*
X1513856Y481100D1*
X1520913Y483139D1*
X1528141Y484454D1*
X1535464Y485032D1*
X1542808Y484866D1*
X1550098Y483958D1*
X1557258Y482318D1*
X1564216Y479963D1*
X1570900Y476916D1*
X1577242Y473208D1*
X1583177Y468879D1*
X1588643Y463972D1*
X1593585Y458537D1*
X1597953Y452630D1*
X1601701Y446312D1*
X1604790Y439648D1*
X1607190Y432705D1*
X1608876Y425555D1*
X1609830Y418271D1*
X1610037Y410663D1*
X609836Y1194307D2*
X608055Y1183061D1*
X604537Y1172232D1*
X599368Y1162087D1*
X592675Y1152876D1*
X584624Y1144825D1*
X575413Y1138132D1*
X565268Y1132963D1*
X554439Y1129445D1*
X543193Y1127664D1*
X531807D1*
X520561Y1129445D1*
X509732Y1132963D1*
X499587Y1138132D1*
X490376Y1144825D1*
X482325Y1152876D1*
X475632Y1162087D1*
X470463Y1172232D1*
X466945Y1183061D1*
X465164Y1194307D1*
Y1205693D1*
X466945Y1216939D1*
X470463Y1227768D1*
X475632Y1237913D1*
X482325Y1247124D1*
X490376Y1255175D1*
X499587Y1261868D1*
X509732Y1267037D1*
X520561Y1270555D1*
X531807Y1272336D1*
X543193D1*
X554439Y1270555D1*
X565268Y1267037D1*
X575413Y1261868D1*
X584624Y1255175D1*
X592675Y1247124D1*
X599368Y1237913D1*
X604537Y1227768D1*
X608055Y1216939D1*
X609836Y1205693D1*
Y1194307D1*
X1672336Y1269307D2*
X1670555Y1258061D1*
X1667037Y1247232D1*
X1661868Y1237087D1*
X1655175Y1227876D1*
X1647124Y1219825D1*
X1637913Y1213132D1*
X1627768Y1207963D1*
X1616939Y1204445D1*
X1605693Y1202664D1*
X1594307D1*
X1583061Y1204445D1*
X1572232Y1207963D1*
X1562087Y1213132D1*
X1552876Y1219825D1*
X1544825Y1227876D1*
X1538132Y1237087D1*
X1532963Y1247232D1*
X1529445Y1258061D1*
X1527664Y1269307D1*
Y1280693D1*
X1529445Y1291939D1*
X1532963Y1302768D1*
X1538132Y1312913D1*
X1544825Y1322124D1*
X1552876Y1330175D1*
X1562087Y1336868D1*
X1572232Y1342037D1*
X1583061Y1345555D1*
X1594307Y1347336D1*
X1605693D1*
X1616939Y1345555D1*
X1627768Y1342037D1*
X1637913Y1336868D1*
X1647124Y1330175D1*
X1655175Y1322124D1*
X1661868Y1312913D1*
X1667037Y1302768D1*
X1670555Y1291939D1*
X1672336Y1280693D1*
Y1269307D1*
X1759836Y1444307D2*
X1758055Y1433061D1*
X1754537Y1422232D1*
X1749368Y1412087D1*
X1742675Y1402876D1*
X1734624Y1394825D1*
X1725413Y1388132D1*
X1715268Y1382963D1*
X1704439Y1379445D1*
X1693193Y1377664D1*
X1681807D1*
X1670561Y1379445D1*
X1659732Y1382963D1*
X1649587Y1388132D1*
X1640376Y1394825D1*
X1632325Y1402876D1*
X1625632Y1412087D1*
X1620463Y1422232D1*
X1616945Y1433061D1*
X1615164Y1444307D1*
Y1455693D1*
X1616945Y1466939D1*
X1620463Y1477768D1*
X1625632Y1487913D1*
X1632325Y1497124D1*
X1640376Y1505175D1*
X1649587Y1511868D1*
X1659732Y1517037D1*
X1670561Y1520555D1*
X1681807Y1522336D1*
X1693193D1*
X1704439Y1520555D1*
X1715268Y1517037D1*
X1725413Y1511868D1*
X1734624Y1505175D1*
X1742675Y1497124D1*
X1749368Y1487913D1*
X1754537Y1477768D1*
X1758055Y1466939D1*
X1759836Y1455693D1*
Y1444307D1*
X1659836Y2056807D2*
X1658055Y2045561D1*
X1654537Y2034732D1*
X1649368Y2024587D1*
X1642675Y2015376D1*
X1634624Y2007325D1*
X1625413Y2000632D1*
X1615268Y1995463D1*
X1604439Y1991945D1*
X1593193Y1990164D1*
X1581918Y1990159D1*
X1587913Y1986868D1*
X1597124Y1980175D1*
X1605175Y1972124D1*
X1611868Y1962913D1*
X1617037Y1952768D1*
X1620555Y1941939D1*
X1622336Y1930693D1*
Y1919307D1*
X1620555Y1908061D1*
X1617037Y1897232D1*
X1611868Y1887087D1*
X1605175Y1877876D1*
X1597124Y1869825D1*
X1587913Y1863132D1*
X1577768Y1857963D1*
X1566939Y1854445D1*
X1555693Y1852664D1*
X1544307D1*
X1533061Y1854445D1*
X1522232Y1857963D1*
X1512087Y1863132D1*
X1502876Y1869825D1*
X1494825Y1877876D1*
X1488132Y1887087D1*
X1482963Y1897232D1*
X1479445Y1908061D1*
X1477664Y1919307D1*
Y1930693D1*
X1479445Y1941939D1*
X1482963Y1952768D1*
X1488132Y1962913D1*
X1494825Y1972124D1*
X1502876Y1980175D1*
X1512087Y1986868D1*
X1522232Y1992037D1*
X1533061Y1995555D1*
X1544307Y1997336D1*
X1555582Y1997341D1*
X1549587Y2000632D1*
X1540376Y2007325D1*
X1532325Y2015376D1*
X1525632Y2024587D1*
X1520463Y2034732D1*
X1516945Y2045561D1*
X1515164Y2056807D1*
Y2068193D1*
X1516945Y2079439D1*
X1520463Y2090268D1*
X1525632Y2100413D1*
X1532325Y2109624D1*
X1540376Y2117675D1*
X1549587Y2124368D1*
X1559732Y2129537D1*
X1570561Y2133055D1*
X1581807Y2134836D1*
X1593193D1*
X1604439Y2133055D1*
X1615268Y2129537D1*
X1625413Y2124368D1*
X1634624Y2117675D1*
X1642675Y2109624D1*
X1649368Y2100413D1*
X1654537Y2090268D1*
X1658055Y2079439D1*
X1659836Y2068193D1*
Y2056807D1*
X610037Y123163D2*
X609479Y115838D1*
X608184Y108607D1*
X606164Y101544D1*
X603441Y94722D1*
X600042Y88210D1*
X596001Y82075D1*
X591361Y76380D1*
X586169Y71183D1*
X580479Y66538D1*
X574347Y62492D1*
X567838Y59087D1*
X561018Y56357D1*
X553957Y54331D1*
X546728Y53029D1*
X539403Y52465D1*
X532060Y52644D1*
X524772Y53565D1*
X517614Y55218D1*
X510660Y57586D1*
X503982Y60646D1*
X497647Y64364D1*
X491720Y68705D1*
X486263Y73622D1*
X481330Y79066D1*
X476974Y84981D1*
X473238Y91305D1*
X470160Y97976D1*
X467773Y104923D1*
X466100Y112076D1*
X465159Y119361D1*
X464960Y126704D1*
X465504Y134030D1*
X466786Y141263D1*
X468793Y148330D1*
X471504Y155157D1*
X474891Y161676D1*
X478920Y167818D1*
X483550Y173522D1*
X488732Y178728D1*
X494415Y183383D1*
X500539Y187440D1*
X507041Y190858D1*
X513856Y193600D1*
X520913Y195639D1*
X528141Y196954D1*
X535464Y197532D1*
X542808Y197366D1*
X550098Y196458D1*
X557258Y194818D1*
X564216Y192463D1*
X570900Y189416D1*
X577242Y185708D1*
X583177Y181379D1*
X588643Y176472D1*
X593585Y171037D1*
X597953Y165130D1*
X601701Y158812D1*
X604790Y152148D1*
X607190Y145205D1*
X608876Y138055D1*
X609830Y130771D1*
X610037Y123163D1*
X1385037Y1523163D2*
X1384479Y1515838D1*
X1383184Y1508607D1*
X1381164Y1501544D1*
X1378441Y1494722D1*
X1375042Y1488210D1*
X1371001Y1482075D1*
X1366361Y1476380D1*
X1361169Y1471183D1*
X1355479Y1466538D1*
X1349347Y1462492D1*
X1342838Y1459087D1*
X1336018Y1456357D1*
X1328957Y1454331D1*
X1321728Y1453029D1*
X1314403Y1452465D1*
X1307060Y1452644D1*
X1299772Y1453565D1*
X1292614Y1455218D1*
X1285660Y1457586D1*
X1278982Y1460646D1*
X1272647Y1464364D1*
X1266720Y1468705D1*
X1261263Y1473622D1*
X1256330Y1479066D1*
X1251974Y1484981D1*
X1248238Y1491305D1*
X1245160Y1497976D1*
X1242773Y1504923D1*
X1241100Y1512076D1*
X1240159Y1519361D1*
X1239960Y1526704D1*
X1240504Y1534030D1*
X1241786Y1541263D1*
X1243793Y1548330D1*
X1246504Y1555157D1*
X1249891Y1561676D1*
X1253920Y1567818D1*
X1258550Y1573522D1*
X1263732Y1578728D1*
X1269415Y1583383D1*
X1275539Y1587440D1*
X1282041Y1590858D1*
X1288856Y1593600D1*
X1295913Y1595639D1*
X1303141Y1596954D1*
X1310464Y1597532D1*
X1317808Y1597366D1*
X1325098Y1596458D1*
X1332258Y1594818D1*
X1339216Y1592463D1*
X1345900Y1589416D1*
X1352242Y1585708D1*
X1358177Y1581379D1*
X1363643Y1576472D1*
X1368585Y1571037D1*
X1372953Y1565130D1*
X1376701Y1558812D1*
X1379790Y1552148D1*
X1382190Y1545205D1*
X1383876Y1538055D1*
X1384830Y1530771D1*
X1385037Y1523163D1*
X847537D2*
X846979Y1515838D1*
X845684Y1508607D1*
X843664Y1501544D1*
X840941Y1494722D1*
X837542Y1488210D1*
X833501Y1482075D1*
X828861Y1476380D1*
X823669Y1471183D1*
X817979Y1466538D1*
X811847Y1462492D1*
X805338Y1459087D1*
X798518Y1456357D1*
X791457Y1454331D1*
X784228Y1453029D1*
X776903Y1452465D1*
X769560Y1452644D1*
X762272Y1453565D1*
X755114Y1455218D1*
X748160Y1457586D1*
X741482Y1460646D1*
X735147Y1464364D1*
X729220Y1468705D1*
X723763Y1473622D1*
X718830Y1479066D1*
X714474Y1484981D1*
X710738Y1491305D1*
X707660Y1497976D1*
X705273Y1504923D1*
X703600Y1512076D1*
X702659Y1519361D1*
X702460Y1526704D1*
X703004Y1534030D1*
X704286Y1541263D1*
X706293Y1548330D1*
X709004Y1555157D1*
X712391Y1561676D1*
X716420Y1567818D1*
X721050Y1573522D1*
X726232Y1578728D1*
X731915Y1583383D1*
X738039Y1587440D1*
X744541Y1590858D1*
X751356Y1593600D1*
X758413Y1595639D1*
X765641Y1596954D1*
X772964Y1597532D1*
X780308Y1597366D1*
X787598Y1596458D1*
X794758Y1594818D1*
X801716Y1592463D1*
X808400Y1589416D1*
X814742Y1585708D1*
X820677Y1581379D1*
X826143Y1576472D1*
X831085Y1571037D1*
X835453Y1565130D1*
X839201Y1558812D1*
X842290Y1552148D1*
X844690Y1545205D1*
X846376Y1538055D1*
X847330Y1530771D1*
X847537Y1523163D1*
X288811Y2354967D2*
X287960Y2347774D1*
X286547Y2340671D1*
X284581Y2333699D1*
X282074Y2326904D1*
X279041Y2320326D1*
X275502Y2314007D1*
X271478Y2307984D1*
X266994Y2302296D1*
X262078Y2296978D1*
X256759Y2292061D1*
X251071Y2287577D1*
X245048Y2283553D1*
X238729Y2280014D1*
X232151Y2276981D1*
X225356Y2274474D1*
X218385Y2272508D1*
X211281Y2271095D1*
X204088Y2270244D1*
X196850Y2269960D1*
X189613Y2270244D1*
X182420Y2271095D1*
X175316Y2272508D1*
X168345Y2274474D1*
X161550Y2276981D1*
X154972Y2280014D1*
X148652Y2283553D1*
X142630Y2287577D1*
X136942Y2292061D1*
X131623Y2296978D1*
X126707Y2302296D1*
X122223Y2307984D1*
X118199Y2314007D1*
X114659Y2320326D1*
X111627Y2326904D1*
X109120Y2333699D1*
X107154Y2340671D1*
X105741Y2347774D1*
X104890Y2354967D1*
X104605Y2362205D1*
X104890Y2369442D1*
X105741Y2376635D1*
X107154Y2383739D1*
X109120Y2390710D1*
X111627Y2397505D1*
X114659Y2404083D1*
X118199Y2410403D1*
X122223Y2416425D1*
X126707Y2422113D1*
X131623Y2427432D1*
X136942Y2432348D1*
X142630Y2436833D1*
X148652Y2440857D1*
X154972Y2444396D1*
X161550Y2447428D1*
X168345Y2449935D1*
X175316Y2451901D1*
X182420Y2453314D1*
X189613Y2454165D1*
X196850Y2454450D1*
X204088Y2454165D1*
X211281Y2453314D1*
X218385Y2451901D1*
X225356Y2449935D1*
X232151Y2447428D1*
X238729Y2444396D1*
X245048Y2440857D1*
X251071Y2436833D1*
X256759Y2432348D1*
X262078Y2427432D1*
X266994Y2422113D1*
X271478Y2416425D1*
X275502Y2410403D1*
X279041Y2404083D1*
X282074Y2397505D1*
X284581Y2390710D1*
X286547Y2383739D1*
X287960Y2376635D1*
X288811Y2369442D1*
X289096Y2362205D1*
X288811Y2354967D1*
X2060465D2*
X2059613Y2347774D1*
X2058200Y2340671D1*
X2056234Y2333699D1*
X2053727Y2326904D1*
X2050695Y2320326D1*
X2047156Y2314007D1*
X2043132Y2307984D1*
X2038648Y2302296D1*
X2033731Y2296978D1*
X2028412Y2292061D1*
X2022724Y2287577D1*
X2016702Y2283553D1*
X2010382Y2280014D1*
X2003805Y2276981D1*
X1997009Y2274474D1*
X1990038Y2272508D1*
X1982934Y2271095D1*
X1975741Y2270244D1*
X1968504Y2269960D1*
X1961266Y2270244D1*
X1954074Y2271095D1*
X1946970Y2272508D1*
X1939999Y2274474D1*
X1933203Y2276981D1*
X1926626Y2280014D1*
X1920306Y2283553D1*
X1914284Y2287577D1*
X1908596Y2292061D1*
X1903277Y2296978D1*
X1898360Y2302296D1*
X1893876Y2307984D1*
X1889852Y2314007D1*
X1886313Y2320326D1*
X1883281Y2326904D1*
X1880774Y2333699D1*
X1878808Y2340671D1*
X1877395Y2347774D1*
X1876543Y2354967D1*
X1876259Y2362205D1*
X1876543Y2369442D1*
X1877395Y2376635D1*
X1878808Y2383739D1*
X1880774Y2390710D1*
X1883281Y2397505D1*
X1886313Y2404083D1*
X1889852Y2410403D1*
X1893876Y2416425D1*
X1898360Y2422113D1*
X1903277Y2427432D1*
X1908596Y2432348D1*
X1914284Y2436833D1*
X1920306Y2440857D1*
X1926626Y2444396D1*
X1933203Y2447428D1*
X1939999Y2449935D1*
X1946970Y2451901D1*
X1954074Y2453314D1*
X1961266Y2454165D1*
X1968504Y2454450D1*
X1975741Y2454165D1*
X1982934Y2453314D1*
X1990038Y2451901D1*
X1997009Y2449935D1*
X2003805Y2447428D1*
X2010382Y2444396D1*
X2016702Y2440857D1*
X2022724Y2436833D1*
X2028412Y2432348D1*
X2033731Y2427432D1*
X2038648Y2422113D1*
X2043132Y2416425D1*
X2047156Y2410403D1*
X2050695Y2404083D1*
X2053727Y2397505D1*
X2056234Y2390710D1*
X2058200Y2383739D1*
X2059613Y2376635D1*
X2060465Y2369442D1*
X2060749Y2362205D1*
X2060465Y2354967D1*
Y189613D2*
X2059613Y182420D1*
X2058200Y175316D1*
X2056234Y168345D1*
X2053727Y161550D1*
X2050695Y154972D1*
X2047156Y148652D1*
X2043132Y142630D1*
X2038648Y136942D1*
X2033731Y131623D1*
X2028412Y126707D1*
X2022724Y122223D1*
X2016702Y118199D1*
X2010382Y114659D1*
X2003805Y111627D1*
X1997009Y109120D1*
X1990038Y107154D1*
X1982934Y105741D1*
X1975741Y104890D1*
X1968504Y104605D1*
X1961266Y104890D1*
X1954074Y105741D1*
X1946970Y107154D1*
X1939999Y109120D1*
X1933203Y111627D1*
X1926626Y114659D1*
X1920306Y118199D1*
X1914284Y122223D1*
X1908596Y126707D1*
X1903277Y131623D1*
X1898360Y136942D1*
X1893876Y142630D1*
X1889852Y148652D1*
X1886313Y154972D1*
X1883281Y161550D1*
X1880774Y168345D1*
X1878808Y175316D1*
X1877395Y182420D1*
X1876543Y189613D1*
X1876259Y196850D1*
X1876543Y204088D1*
X1877395Y211281D1*
X1878808Y218385D1*
X1880774Y225356D1*
X1883281Y232151D1*
X1886313Y238729D1*
X1889852Y245048D1*
X1893876Y251071D1*
X1898360Y256759D1*
X1903277Y262078D1*
X1908596Y266994D1*
X1914284Y271478D1*
X1920306Y275502D1*
X1926626Y279041D1*
X1933203Y282074D1*
X1939999Y284581D1*
X1946970Y286547D1*
X1954074Y287960D1*
X1961266Y288811D1*
X1968504Y289096D1*
X1975741Y288811D1*
X1982934Y287960D1*
X1990038Y286547D1*
X1997009Y284581D1*
X2003805Y282074D1*
X2010382Y279041D1*
X2016702Y275502D1*
X2022724Y271478D1*
X2028412Y266994D1*
X2033731Y262078D1*
X2038648Y256759D1*
X2043132Y251071D1*
X2047156Y245048D1*
X2050695Y238729D1*
X2053727Y232151D1*
X2056234Y225356D1*
X2058200Y218385D1*
X2059613Y211281D1*
X2060465Y204088D1*
X2060749Y196850D1*
X2060465Y189613D1*
X288811D2*
X287960Y182420D1*
X286547Y175316D1*
X284581Y168345D1*
X282074Y161550D1*
X279041Y154972D1*
X275502Y148652D1*
X271478Y142630D1*
X266994Y136942D1*
X262078Y131623D1*
X256759Y126707D1*
X251071Y122223D1*
X245048Y118199D1*
X238729Y114659D1*
X232151Y111627D1*
X225356Y109120D1*
X218385Y107154D1*
X211281Y105741D1*
X204088Y104890D1*
X196850Y104605D1*
X189613Y104890D1*
X182420Y105741D1*
X175316Y107154D1*
X168345Y109120D1*
X161550Y111627D1*
X154972Y114659D1*
X148652Y118199D1*
X142630Y122223D1*
X136942Y126707D1*
X131623Y131623D1*
X126707Y136942D1*
X122223Y142630D1*
X118199Y148652D1*
X114659Y154972D1*
X111627Y161550D1*
X109120Y168345D1*
X107154Y175316D1*
X105741Y182420D1*
X104890Y189613D1*
X104605Y196850D1*
X104890Y204088D1*
X105741Y211281D1*
X107154Y218385D1*
X109120Y225356D1*
X111627Y232151D1*
X114659Y238729D1*
X118199Y245048D1*
X122223Y251071D1*
X126707Y256759D1*
X131623Y262078D1*
X136942Y266994D1*
X142630Y271478D1*
X148652Y275502D1*
X154972Y279041D1*
X161550Y282074D1*
X168345Y284581D1*
X175316Y286547D1*
X182420Y287960D1*
X189613Y288811D1*
X196850Y289096D1*
X204088Y288811D1*
X211281Y287960D1*
X218385Y286547D1*
X225356Y284581D1*
X232151Y282074D1*
X238729Y279041D1*
X245048Y275502D1*
X251071Y271478D1*
X256759Y266994D1*
X262078Y262078D1*
X266994Y256759D1*
X271478Y251071D1*
X275502Y245048D1*
X279041Y238729D1*
X282074Y232151D1*
X284581Y225356D1*
X286547Y218385D1*
X287960Y211281D1*
X288811Y204088D1*
X289096Y196850D1*
X288811Y189613D1*
X1212367Y368701D2*
D20*
X1264360Y323777D1*
X1212367Y368701D2*
X1160375Y323777D1*
X267623Y2145172D2*
X432377Y1980418D1*
Y2145172D2*
X267623Y1980418D1*
Y1632968D2*
X432377Y1468213D1*
Y1632968D2*
X267623Y1468213D1*
X1723683Y1812828D2*
X1888438Y1648074D1*
Y1812828D2*
X1723683Y1648074D1*
X1717623Y594582D2*
X1882377Y429827D1*
Y594582D2*
X1717623Y429827D1*
X1581009Y2332377D2*
X1745763Y2167623D1*
Y2332377D2*
X1581009Y2167623D1*
X806009Y2332377D2*
X970763Y2167623D1*
Y2332377D2*
X806009Y2167623D1*
X1723683Y1150398D2*
X1888438Y985644D1*
Y1150398D2*
X1723683Y985644D1*
X1486218Y463782D2*
X1588782Y361218D1*
Y463782D2*
X1486218Y361218D1*
X486218Y176282D2*
X588782Y73718D1*
Y176282D2*
X486218Y73718D1*
X1261218Y1576282D2*
X1363782Y1473718D1*
Y1576282D2*
X1261218Y1473718D1*
X723718Y1576282D2*
X826282Y1473718D1*
Y1576282D2*
X723718Y1473718D1*
D23*
X1262367Y468701D3*
X1212367Y368701D3*
X1162367Y468701D3*
X1062367D3*
X962367D3*
X1112367Y368701D3*
X1012367D3*
D24*
X912367D3*
D25*
X350000Y1925000D3*
D26*
Y2062795D3*
D25*
Y1275000D3*
Y1412795D3*
D26*
Y1550591D3*
D25*
X1806060Y2006042D3*
Y1868247D3*
D26*
Y1730451D3*
D25*
X1800000Y650000D3*
D26*
Y512205D3*
D25*
X350000Y500000D3*
Y637795D3*
Y775591D3*
D26*
Y913386D3*
D25*
X1250000Y2250000D3*
X1387795D3*
X1525591D3*
D26*
X1663386D3*
D25*
X475000D3*
X612795D3*
X750591D3*
D26*
X888386D3*
D25*
X1806060Y1343612D3*
Y1205816D3*
D26*
Y1068021D3*
D31*
X1537500Y412500D3*
X475000Y1050000D3*
X537500Y1200000D3*
X1600000Y1275000D3*
X1687500Y1450000D3*
X1587500Y2062500D3*
X1550000Y1925000D3*
X537500Y125000D3*
X1312500Y1525000D3*
X775000D3*
M02*
