M48
INCH
T01C0.015
T02C0.0354
T03C0.0394
T04C0.0551
T05C0.1181
T06C0.126
%
T01
X+006875Y+011500
X+006000Y+010375
X+006875Y+009250
X+010625Y+010500
X+013000Y+010500
T02
X+015375Y+004125
X+016000Y+012750
X+016875Y+014500
X+013125Y+015250
X+015500Y+019250
X+015875Y+020625
X+007750Y+015250
X+005375Y+012000
X+004750Y+010500
X+005375Y+001250
T03
X+012624Y+004687
X+011624Y+004687
X+010624Y+004687
X+009624Y+004687
X+010124Y+003687
X+011124Y+003687
X+012124Y+003687
X+009124Y+003687
T04
X+003500Y+019250
X+003500Y+020628
X+004750Y+022500
X+006128Y+022500
X+007506Y+022500
X+008884Y+022500
X+012500Y+022500
X+013878Y+022500
X+015256Y+022500
X+016634Y+022500
X+018061Y+020060
X+018061Y+018682
X+018061Y+017305
X+018061Y+013436
X+018061Y+012058
X+018061Y+010680
X+018000Y+006500
X+018000Y+005122
X+003500Y+005000
X+003500Y+006378
X+003500Y+007756
X+003500Y+009134
X+003500Y+012750
X+003500Y+014128
X+003500Y+015506
T05
X+001969Y+023622
X+019685Y+023622
X+019685Y+001969
X+001969Y+001969
T06
X+008624Y+001187
X+013124Y+001187
T00
M30
