M48
METRIC,0000.00
T01C0.4
T02C0.762
T03C0.9
T04C1.0
T05C1.016
T06C1.1
T07C1.3
T08C1.4
T09C3.0
%
T01
X-003977Y+005548
X-003912Y+005648
X-003847Y+005548
X-003782Y+005648
X-003717Y+005548
X-003489Y+005535G85X-003489Y+005605
X-004204Y+005535G85X-004204Y+005605
T02
X-001500Y+003993
X-001500Y+004453
X-001199Y+004612
X-001274Y+005013
X-001448Y+004965
X-001445Y+005239
X-001988Y+005251
X-002088Y+004908
X-002241Y+004908
X-002512Y+004687
X-002512Y+004251
X-002401Y+004108
X-002196Y+003957
X-002003Y+003920
X-001702Y+003425
X-001353Y+003441
X-001310Y+003151
X-001164Y+003172
X-001024Y+003993
X-000851Y+004292
X-000448Y+004346
X-000087Y+005120
X-000595Y+005326
X-000829Y+005457
X-000429Y+005794
X-000429Y+006029
X-000429Y+006219
X-000222Y+006033
X+000048Y+006255
X-000433Y+006802
X-001079Y+006413
X-001651Y+006413
X-002286Y+006398
X-002048Y+007033
X-002238Y+007223
X-001651Y+007366
X-001968Y+008303
X-001810Y+008525
X-003469Y+007549
X-003429Y+007366
X-003937Y+007366
X-003945Y+007549
X-004326Y+007374
X-004191Y+008573
X-002937Y+006763
X-003334Y+006144
X-002945Y+005961
X-003500Y+005723
X-004032Y+006128
X-005009Y+005548
X-005818Y+005088
X-004508Y+003254
X-004286Y+002699
X-003702Y+002108
X-003496Y+002298
X-003321Y+002108
X-002984Y+002238
X-002492Y+002254
X-002480Y+001711
X-002750Y+001520
X-002810Y+000984
X-003096Y+000873
X-003477Y+000556
X-003842Y+000841
X-004127Y+000968
X-003492Y+001302
X-002193Y+001528
X-001826Y+002159
X-000829Y+002362
X+000159Y+002969
X+000076Y+003124
X+000349Y+003794
X+000785Y+003568
X+001008Y+003802
X+001310Y+003564
X+001556Y+003762
X+001667Y+003159
X+001020Y+003337
X+001040Y+004326
X+000516Y+004374
X+001500Y+004643
X-000651Y+006033
X-002945Y+005120
X-003302Y+004683
X-003937Y+003556
X-002718Y+003060
X+002985Y+002540
T03
X-001818Y+001548
X-001274Y+002378
X-001274Y+002632
X-001274Y+002886
X-000651Y+002985
X-000258Y+004584
X-000803Y+005178
X-002004Y+005997
X-002258Y+005997
X-002512Y+005997
X-002766Y+005997
X-001286Y+006842
X-000958Y+007636
X-000708Y+007636
X-000508Y+007636
X-000258Y+007636
X+000857Y+006763
X-003707Y+004501
X+000595Y+000722
T04
X+002270Y+003064
X+002270Y+003318
X+002270Y+003572
T05
X+000588Y+002578
X+000334Y+002603
X+000080Y+002578
X-000174Y+002603
X-000428Y+002578
X-000682Y+002603
X+002331Y+004448
X+002585Y+004435
X+002839Y+004461
X+003093Y+004435
X+003347Y+004461
X+003601Y+004448
X+003604Y+008445
X+003350Y+008458
X+003096Y+008433
X+002842Y+008458
X+002588Y+008433
X+002334Y+008445
T06
X+000885Y+002330
X+000885Y+002584
X+001139Y+002584
X+001139Y+002330
X+001393Y+002330
X+001393Y+002584
X+001647Y+002584
X+001647Y+002330
T07
X+000049Y+007526G85X+000049Y+007626
X-000558Y+007158G85X-000658Y+007158
X-001265Y+007526G85X-001265Y+007626
T08
X+001580Y+000675
X+001230Y+000675
X-005398Y+001120
X-005398Y+001470
X-005398Y+001820
X-005398Y+002170
X-005382Y+003706
X-005382Y+004056
X-005382Y+004406
X-005382Y+004756
X-005846Y+005870
X-005846Y+006220
X-005846Y+006570
X-003214Y+007885
X-002864Y+007885
X-002514Y+007885
X+000419Y+007592
X+000769Y+007592
X-006048Y+012192
X-006398Y+012192
T09
X+004118Y+004297
X+001818Y+008597
T00
M30
