G04 DipTrace 3.3.1.3*
G04 Topsidev0.4d.gto*
%MOMM*%
G04 #@! TF.FileFunction,Legend,Top*
G04 #@! TF.Part,Single*
%ADD10C,0.25*%
%ADD14C,0.381*%
%ADD15C,0.254*%
%ADD40C,0.1*%
%ADD41C,0.1524*%
%ADD48C,0.2032*%
%ADD50O,1.46947X1.46877*%
%ADD53O,1.30116X1.30816*%
%ADD56O,1.89504X1.91229*%
%ADD60O,1.49905X1.50528*%
%ADD61O,1.49869X1.49836*%
%ADD62O,1.517X1.47648*%
%ADD65O,1.4692X1.46938*%
%ADD68O,1.25075X1.2855*%
%ADD69C,0.127*%
%ADD71O,1.49836X1.49869*%
%ADD76O,0.69724X0.69708*%
%ADD80O,0.39192X0.38938*%
%ADD83O,1.46826X1.46674*%
%ADD84O,1.46826X1.47175*%
%ADD89O,1.13934X1.09392*%
%ADD92O,0.41059X0.40794*%
%ADD177C,0.15686*%
%ADD178C,0.31373*%
%ADD179C,0.23529*%
%ADD180C,0.19608*%
%ADD181C,0.27451*%
%ADD182C,0.39216*%
%FSLAX35Y35*%
G04*
G71*
G90*
G75*
G01*
G04 TopSilk*
%LPD*%
G36*
X-3454793Y2569560D2*
X-3378594D1*
Y2523851D1*
X-3454793D1*
Y2569560D1*
G37*
G36*
X-3419476Y6335483D2*
X-3343277D1*
Y6289775D1*
X-3419476D1*
Y6335483D1*
G37*
G36*
X-4308476Y6557733D2*
X-4232277D1*
Y6512025D1*
X-4308476D1*
Y6557733D1*
G37*
G36*
X-3645427Y6341474D2*
X-3599718D1*
Y6417673D1*
X-3645427D1*
Y6341474D1*
G37*
G36*
X-4184427Y7431100D2*
X-4138718D1*
Y7507299D1*
X-4184427D1*
Y7431100D1*
G37*
G36*
X-3985670Y6312443D2*
X-3909471D1*
Y6266735D1*
X-3985670D1*
Y6312443D1*
G37*
G36*
X-3959457Y2574930D2*
X-4005165D1*
Y2498731D1*
X-3959457D1*
Y2574930D1*
G37*
G36*
X-3668487Y2406647D2*
X-3622778D1*
Y2482846D1*
X-3668487D1*
Y2406647D1*
G37*
G36*
X-4340860Y3206024D2*
X-4295151D1*
Y3282223D1*
X-4340860D1*
Y3206024D1*
G37*
X-897379Y2599415D2*
D41*
X-897002Y2344217D1*
X-1046008Y2597014D2*
X-1046083Y2348735D1*
G36*
X-4327920Y2902937D2*
X-4251721D1*
Y2857228D1*
X-4327920D1*
Y2902937D1*
G37*
G36*
X-507670Y5242187D2*
X-431471D1*
Y5196478D1*
X-507670D1*
Y5242187D1*
G37*
G36*
X-208580Y5035183D2*
X-254289D1*
Y4958984D1*
X-208580D1*
Y5035183D1*
G37*
G36*
X-1371420Y5160478D2*
X-1331108D1*
Y5088513D1*
X-1371420D1*
Y5160478D1*
G37*
G36*
X-296972Y4320604D2*
X-368937D1*
Y4280291D1*
X-296972D1*
Y4320604D1*
G37*
G36*
X-1248797Y3346355D2*
X-1208484D1*
Y3274390D1*
X-1248797D1*
Y3346355D1*
G37*
X-2027285Y4084439D2*
D41*
X-2282483Y4084062D1*
X-2029686Y4233068D2*
X-2277965Y4233143D1*
X2405847Y2638262D2*
D10*
X2889120D1*
Y2439592D1*
X2405847D1*
Y2638262D1*
X1880899Y3695522D2*
D41*
X1625700Y3695145D1*
X1878497Y3844151D2*
X1630219Y3844227D1*
G36*
X-2021050Y2180847D2*
X-1975341D1*
Y2257046D1*
X-2021050D1*
Y2180847D1*
G37*
G36*
X1427163Y4419843D2*
X1350964D1*
Y4465552D1*
X1427163D1*
Y4419843D1*
G37*
G36*
X739543Y4459306D2*
X693835D1*
Y4383107D1*
X739543D1*
Y4459306D1*
G37*
G36*
X-2843830Y2368180D2*
X-2889539D1*
Y2291981D1*
X-2843830D1*
Y2368180D1*
G37*
G36*
X21144Y6470233D2*
X97343D1*
Y6424525D1*
X21144D1*
Y6470233D1*
G37*
G36*
X-1022353Y6541860D2*
X-946154D1*
Y6496151D1*
X-1022353D1*
Y6541860D1*
G37*
X-4052689Y1354089D2*
D41*
X-4052312Y1098890D1*
X-4201318Y1351687D2*
X-4201393Y1103409D1*
X-2884688Y1043035D2*
X-2885065Y1298233D1*
X-2736059Y1045436D2*
X-2735983Y1293715D1*
X508535Y6848188D2*
X763733Y6848565D1*
X510936Y6699559D2*
X759215Y6699483D1*
X709445Y1326983D2*
D10*
X510775D1*
Y843710D1*
X709445D1*
Y1326983D1*
X-1883400Y3165598D2*
X-2030169D1*
Y3415235D1*
X-1883400D1*
Y3165598D1*
X-2031487Y3268074D2*
D48*
X-1956185Y3268174D1*
X-1892019Y3267650D2*
X-1956185Y3268174D1*
X-2008755Y3330933D1*
X-1953652Y3269722D2*
X-1901822Y3336275D1*
X-2174701Y5999579D2*
D10*
X-2174292Y6009511D1*
X-2173067Y6019395D1*
X-2171033Y6029182D1*
X-2168198Y6038825D1*
X-2164578Y6048277D1*
X-2160189Y6057492D1*
X-2155052Y6066424D1*
X-2149194Y6075031D1*
X-2142642Y6083270D1*
X-2135429Y6091102D1*
X-2127589Y6098487D1*
X-2119161Y6105391D1*
X-2110185Y6111779D1*
X-2100707Y6117621D1*
X-2090770Y6122887D1*
X-2080425Y6127553D1*
X-2069722Y6131595D1*
X-2058712Y6134994D1*
X-2047449Y6137733D1*
X-2035988Y6139800D1*
X-2024386Y6141183D1*
X-2012698Y6141876D1*
X-2000981D1*
X-1989293Y6141183D1*
X-1977691Y6139800D1*
X-1966230Y6137733D1*
X-1954968Y6134994D1*
X-1943958Y6131595D1*
X-1933254Y6127553D1*
X-1922909Y6122887D1*
X-1912973Y6117621D1*
X-1903494Y6111779D1*
X-1894519Y6105391D1*
X-1886090Y6098487D1*
X-1878250Y6091102D1*
X-1871037Y6083270D1*
X-1864485Y6075031D1*
X-1858627Y6066424D1*
X-1853491Y6057492D1*
X-1849102Y6048277D1*
X-1845481Y6038825D1*
X-1842647Y6029182D1*
X-1840612Y6019395D1*
X-1839387Y6009511D1*
X-1838978Y5999579D1*
X-1839387Y5989647D1*
X-1840612Y5979763D1*
X-1842647Y5969976D1*
X-1845481Y5960333D1*
X-1849102Y5950881D1*
X-1853491Y5941666D1*
X-1858627Y5932734D1*
X-1864485Y5924127D1*
X-1871037Y5915888D1*
X-1878250Y5908057D1*
X-1886090Y5900671D1*
X-1894519Y5893767D1*
X-1903494Y5887379D1*
X-1912973Y5881538D1*
X-1922909Y5876271D1*
X-1933254Y5871606D1*
X-1943958Y5867563D1*
X-1954968Y5864164D1*
X-1966230Y5861425D1*
X-1977691Y5859359D1*
X-1989293Y5857975D1*
X-2000981Y5857282D1*
X-2012698D1*
X-2024386Y5857975D1*
X-2035988Y5859359D1*
X-2047449Y5861425D1*
X-2058712Y5864164D1*
X-2069722Y5867563D1*
X-2080425Y5871606D1*
X-2090770Y5876271D1*
X-2100707Y5881538D1*
X-2110185Y5887379D1*
X-2119161Y5893767D1*
X-2127589Y5900671D1*
X-2135429Y5908057D1*
X-2142642Y5915888D1*
X-2149194Y5924127D1*
X-2155052Y5932734D1*
X-2160189Y5941666D1*
X-2164578Y5950881D1*
X-2168198Y5960333D1*
X-2171033Y5969976D1*
X-2173067Y5979763D1*
X-2174292Y5989647D1*
X-2174701Y5999579D1*
X-2430070Y5994169D2*
X-2429661Y6004101D1*
X-2428437Y6013985D1*
X-2426402Y6023772D1*
X-2423568Y6033415D1*
X-2419947Y6042867D1*
X-2415558Y6052082D1*
X-2410422Y6061014D1*
X-2404563Y6069621D1*
X-2398012Y6077860D1*
X-2390798Y6085691D1*
X-2382958Y6093077D1*
X-2374530Y6099981D1*
X-2365555Y6106369D1*
X-2356076Y6112210D1*
X-2346140Y6117477D1*
X-2335795Y6122143D1*
X-2325091Y6126185D1*
X-2314081Y6129584D1*
X-2302818Y6132323D1*
X-2291358Y6134389D1*
X-2279755Y6135773D1*
X-2268067Y6136466D1*
X-2256351D1*
X-2244663Y6135773D1*
X-2233060Y6134389D1*
X-2221600Y6132323D1*
X-2210337Y6129584D1*
X-2199327Y6126185D1*
X-2188623Y6122143D1*
X-2178278Y6117477D1*
X-2168342Y6112210D1*
X-2158863Y6106369D1*
X-2149888Y6099981D1*
X-2141460Y6093077D1*
X-2133620Y6085691D1*
X-2126406Y6077860D1*
X-2119855Y6069621D1*
X-2113996Y6061014D1*
X-2108860Y6052082D1*
X-2104471Y6042867D1*
X-2100850Y6033415D1*
X-2098016Y6023772D1*
X-2095981Y6013985D1*
X-2094757Y6004101D1*
X-2094348Y5994169D1*
X-2094757Y5984237D1*
X-2095981Y5974353D1*
X-2098016Y5964566D1*
X-2100850Y5954923D1*
X-2104471Y5945471D1*
X-2108860Y5936256D1*
X-2113996Y5927324D1*
X-2119855Y5918717D1*
X-2126406Y5910478D1*
X-2133620Y5902646D1*
X-2141460Y5895261D1*
X-2149888Y5888357D1*
X-2158863Y5881969D1*
X-2168342Y5876127D1*
X-2178278Y5870861D1*
X-2188623Y5866195D1*
X-2199327Y5862153D1*
X-2210337Y5858754D1*
X-2221600Y5856015D1*
X-2233060Y5853948D1*
X-2244663Y5852565D1*
X-2256351Y5851872D1*
X-2268067D1*
X-2279755Y5852565D1*
X-2291358Y5853948D1*
X-2302818Y5856015D1*
X-2314081Y5858754D1*
X-2325091Y5862153D1*
X-2335795Y5866195D1*
X-2346140Y5870861D1*
X-2356076Y5876127D1*
X-2365555Y5881969D1*
X-2374530Y5888357D1*
X-2382958Y5895261D1*
X-2390798Y5902646D1*
X-2398012Y5910478D1*
X-2404563Y5918717D1*
X-2410422Y5927324D1*
X-2415558Y5936256D1*
X-2419947Y5945471D1*
X-2423568Y5954923D1*
X-2426402Y5964566D1*
X-2428437Y5974353D1*
X-2429661Y5984237D1*
X-2430070Y5994169D1*
X-2684889Y6000144D2*
X-2684480Y6010076D1*
X-2683256Y6019960D1*
X-2681221Y6029747D1*
X-2678387Y6039390D1*
X-2674766Y6048842D1*
X-2670377Y6058056D1*
X-2665241Y6066989D1*
X-2659382Y6075596D1*
X-2652831Y6083835D1*
X-2645617Y6091666D1*
X-2637777Y6099052D1*
X-2629349Y6105955D1*
X-2620374Y6112344D1*
X-2610895Y6118185D1*
X-2600959Y6123452D1*
X-2590614Y6128117D1*
X-2579910Y6132160D1*
X-2568900Y6135559D1*
X-2557637Y6138298D1*
X-2546177Y6140364D1*
X-2534574Y6141747D1*
X-2522886Y6142441D1*
X-2511170D1*
X-2499482Y6141747D1*
X-2487879Y6140364D1*
X-2476419Y6138298D1*
X-2465156Y6135559D1*
X-2454146Y6132160D1*
X-2443442Y6128117D1*
X-2433097Y6123452D1*
X-2423161Y6118185D1*
X-2413682Y6112344D1*
X-2404707Y6105955D1*
X-2396279Y6099052D1*
X-2388439Y6091666D1*
X-2381225Y6083835D1*
X-2374674Y6075596D1*
X-2368815Y6066989D1*
X-2363679Y6058056D1*
X-2359290Y6048842D1*
X-2355669Y6039390D1*
X-2352835Y6029747D1*
X-2350800Y6019960D1*
X-2349576Y6010076D1*
X-2349167Y6000144D1*
X-2349576Y5990212D1*
X-2350800Y5980328D1*
X-2352835Y5970540D1*
X-2355669Y5960897D1*
X-2359290Y5951446D1*
X-2363679Y5942231D1*
X-2368815Y5933299D1*
X-2374674Y5924692D1*
X-2381225Y5916453D1*
X-2388439Y5908621D1*
X-2396279Y5901236D1*
X-2404707Y5894332D1*
X-2413682Y5887944D1*
X-2423161Y5882102D1*
X-2433097Y5876836D1*
X-2443442Y5872170D1*
X-2454146Y5868128D1*
X-2465156Y5864729D1*
X-2476419Y5861989D1*
X-2487879Y5859923D1*
X-2499482Y5858540D1*
X-2511170Y5857847D1*
X-2522886D1*
X-2534574Y5858540D1*
X-2546177Y5859923D1*
X-2557637Y5861989D1*
X-2568900Y5864729D1*
X-2579910Y5868128D1*
X-2590614Y5872170D1*
X-2600959Y5876836D1*
X-2610895Y5882102D1*
X-2620374Y5887944D1*
X-2629349Y5894332D1*
X-2637777Y5901236D1*
X-2645617Y5908621D1*
X-2652831Y5916453D1*
X-2659382Y5924692D1*
X-2665241Y5933299D1*
X-2670377Y5942231D1*
X-2674766Y5951446D1*
X-2678387Y5960897D1*
X-2681221Y5970540D1*
X-2683256Y5980328D1*
X-2684480Y5990212D1*
X-2684889Y6000144D1*
X-2939708Y6003155D2*
X-2939299Y6013087D1*
X-2938075Y6022971D1*
X-2936040Y6032758D1*
X-2933206Y6042401D1*
X-2929585Y6051853D1*
X-2925196Y6061067D1*
X-2920060Y6070000D1*
X-2914201Y6078606D1*
X-2907650Y6086846D1*
X-2900436Y6094677D1*
X-2892596Y6102063D1*
X-2884168Y6108966D1*
X-2875193Y6115355D1*
X-2865714Y6121196D1*
X-2855778Y6126463D1*
X-2845433Y6131128D1*
X-2834729Y6135171D1*
X-2823719Y6138570D1*
X-2812456Y6141309D1*
X-2800996Y6143375D1*
X-2789393Y6144758D1*
X-2777705Y6145452D1*
X-2765989D1*
X-2754301Y6144758D1*
X-2742698Y6143375D1*
X-2731238Y6141309D1*
X-2719975Y6138570D1*
X-2708965Y6135171D1*
X-2698261Y6131128D1*
X-2687916Y6126463D1*
X-2677980Y6121196D1*
X-2668501Y6115355D1*
X-2659526Y6108966D1*
X-2651098Y6102063D1*
X-2643258Y6094677D1*
X-2636044Y6086846D1*
X-2629493Y6078606D1*
X-2623634Y6070000D1*
X-2618498Y6061067D1*
X-2614109Y6051853D1*
X-2610488Y6042401D1*
X-2607654Y6032758D1*
X-2605619Y6022971D1*
X-2604395Y6013087D1*
X-2603986Y6003155D1*
X-2604395Y5993222D1*
X-2605619Y5983339D1*
X-2607654Y5973551D1*
X-2610488Y5963908D1*
X-2614109Y5954457D1*
X-2618498Y5945242D1*
X-2623634Y5936310D1*
X-2629493Y5927703D1*
X-2636044Y5919464D1*
X-2643258Y5911632D1*
X-2651098Y5904247D1*
X-2659526Y5897343D1*
X-2668501Y5890955D1*
X-2677980Y5885113D1*
X-2687916Y5879847D1*
X-2698261Y5875181D1*
X-2708965Y5871139D1*
X-2719975Y5867740D1*
X-2731238Y5865000D1*
X-2742698Y5862934D1*
X-2754301Y5861551D1*
X-2765989Y5860858D1*
X-2777705D1*
X-2789393Y5861551D1*
X-2800996Y5862934D1*
X-2812456Y5865000D1*
X-2823719Y5867740D1*
X-2834729Y5871139D1*
X-2845433Y5875181D1*
X-2855778Y5879847D1*
X-2865714Y5885113D1*
X-2875193Y5890955D1*
X-2884168Y5897343D1*
X-2892596Y5904247D1*
X-2900436Y5911632D1*
X-2907650Y5919464D1*
X-2914201Y5927703D1*
X-2920060Y5936310D1*
X-2925196Y5945242D1*
X-2929585Y5954457D1*
X-2933206Y5963908D1*
X-2936040Y5973551D1*
X-2938075Y5983339D1*
X-2939299Y5993222D1*
X-2939708Y6003155D1*
D50*
X-2000290Y5748520D3*
X1824567Y306263D2*
D10*
X984729D1*
Y1054775D1*
X1824567D1*
Y306263D1*
D53*
X979725Y1069070D3*
X1223123Y675321D2*
D10*
X1224033Y1169131D1*
X1576164Y677920D2*
X1577074Y1172597D1*
X116931Y7108501D2*
X-1332925D1*
Y8028789D1*
X116931D1*
Y7108501D1*
D56*
X-254557Y8053779D3*
X-5774507Y3465533D2*
D10*
X-5021392D1*
Y5012454D1*
X-5774507D1*
Y3465533D1*
D60*
X-5043384Y4991636D3*
X-5387627Y3705738D2*
D10*
X-4893928D1*
X-5377753Y4056438D2*
X-4884054Y4054836D1*
X-5381343Y4408738D2*
X-4886747D1*
X-5371469Y4757836D2*
X-4876873D1*
X-5790380Y879407D2*
X-5037266D1*
Y2426327D1*
X-5790380D1*
Y879407D1*
D60*
X-5059258Y2405509D3*
X-5403500Y1119612D2*
D10*
X-4909802D1*
X-5393626Y1470311D2*
X-4899928Y1468710D1*
X-5397217Y1822612D2*
X-4902621D1*
X-5387343Y2171710D2*
X-4892747D1*
X-3459417Y8252953D2*
X-2280121D1*
Y7504650D1*
X-3459417D1*
Y8252953D1*
D61*
X-2305918Y7505964D3*
X-2864855Y7874421D2*
D10*
Y7379349D1*
X-3217415Y7870916D2*
Y7376720D1*
X-2518437Y7886688D2*
Y7392492D1*
X-3436690Y5452499D2*
X-4256690D1*
Y5722367D1*
X-3436690D1*
Y5452499D1*
D62*
X-3688840Y5386057D3*
X-1418302Y2882664D2*
D10*
X-1417956Y2894374D1*
X-1416917Y2906027D1*
X-1415191Y2917567D1*
X-1412787Y2928936D1*
X-1409716Y2940080D1*
X-1405993Y2950944D1*
X-1401637Y2961476D1*
X-1396668Y2971624D1*
X-1391111Y2981338D1*
X-1384992Y2990571D1*
X-1378343Y2999279D1*
X-1371194Y3007419D1*
X-1363581Y3014951D1*
X-1355541Y3021838D1*
X-1347113Y3028047D1*
X-1338339Y3033548D1*
X-1329260Y3038314D1*
X-1319922Y3042322D1*
X-1310369Y3045552D1*
X-1300648Y3047988D1*
X-1290807Y3049619D1*
X-1280893Y3050436D1*
X-1270956D1*
X-1261042Y3049619D1*
X-1251201Y3047988D1*
X-1241480Y3045552D1*
X-1231927Y3042322D1*
X-1222589Y3038314D1*
X-1213510Y3033548D1*
X-1204736Y3028047D1*
X-1196308Y3021838D1*
X-1188268Y3014951D1*
X-1180655Y3007419D1*
X-1173506Y2999279D1*
X-1166857Y2990571D1*
X-1160738Y2981338D1*
X-1155181Y2971624D1*
X-1150212Y2961476D1*
X-1145856Y2950944D1*
X-1142133Y2940080D1*
X-1139062Y2928936D1*
X-1136658Y2917567D1*
X-1134932Y2906027D1*
X-1133893Y2894374D1*
X-1133547Y2882664D1*
X-1133893Y2870953D1*
X-1134932Y2859300D1*
X-1136658Y2847760D1*
X-1139062Y2836391D1*
X-1142133Y2825247D1*
X-1145856Y2814383D1*
X-1150212Y2803851D1*
X-1155181Y2793703D1*
X-1160738Y2783989D1*
X-1166857Y2774756D1*
X-1173506Y2766048D1*
X-1180655Y2757908D1*
X-1188268Y2750376D1*
X-1196308Y2743489D1*
X-1204736Y2737280D1*
X-1213510Y2731779D1*
X-1222589Y2727013D1*
X-1231927Y2723005D1*
X-1241480Y2719775D1*
X-1251201Y2717339D1*
X-1261042Y2715708D1*
X-1270956Y2714891D1*
X-1280893D1*
X-1290807Y2715708D1*
X-1300648Y2717339D1*
X-1310369Y2719775D1*
X-1319922Y2723005D1*
X-1329260Y2727013D1*
X-1338339Y2731779D1*
X-1347113Y2737280D1*
X-1355541Y2743489D1*
X-1363581Y2750376D1*
X-1371194Y2757908D1*
X-1378343Y2766048D1*
X-1384992Y2774756D1*
X-1391111Y2783989D1*
X-1396668Y2793703D1*
X-1401637Y2803851D1*
X-1405993Y2814383D1*
X-1409716Y2825247D1*
X-1412787Y2836391D1*
X-1415191Y2847760D1*
X-1416917Y2859300D1*
X-1417956Y2870953D1*
X-1418302Y2882664D1*
X-1412926Y2627277D2*
X-1412579Y2638988D1*
X-1411540Y2650641D1*
X-1409814Y2662180D1*
X-1407410Y2673550D1*
X-1404338Y2684694D1*
X-1400615Y2695558D1*
X-1396258Y2706090D1*
X-1391288Y2716237D1*
X-1385730Y2725952D1*
X-1379611Y2735185D1*
X-1372960Y2743893D1*
X-1365810Y2752033D1*
X-1358196Y2759564D1*
X-1350155Y2766452D1*
X-1341726Y2772661D1*
X-1332950Y2778162D1*
X-1323869Y2782928D1*
X-1314529Y2786936D1*
X-1304975Y2790165D1*
X-1295253Y2792602D1*
X-1285410Y2794232D1*
X-1275495Y2795050D1*
X-1265555D1*
X-1255640Y2794232D1*
X-1245797Y2792602D1*
X-1236075Y2790165D1*
X-1226521Y2786936D1*
X-1217181Y2782928D1*
X-1208101Y2778162D1*
X-1199325Y2772661D1*
X-1190895Y2766452D1*
X-1182854Y2759564D1*
X-1175240Y2752033D1*
X-1168090Y2743893D1*
X-1161439Y2735185D1*
X-1155320Y2725952D1*
X-1149762Y2716237D1*
X-1144792Y2706090D1*
X-1140435Y2695558D1*
X-1136712Y2684694D1*
X-1133640Y2673550D1*
X-1131236Y2662180D1*
X-1129510Y2650641D1*
X-1128471Y2638988D1*
X-1128124Y2627277D1*
X-1128471Y2615567D1*
X-1129510Y2603914D1*
X-1131236Y2592374D1*
X-1133640Y2581005D1*
X-1136712Y2569861D1*
X-1140435Y2558996D1*
X-1144792Y2548465D1*
X-1149762Y2538317D1*
X-1155320Y2528603D1*
X-1161439Y2519369D1*
X-1168090Y2510662D1*
X-1175240Y2502522D1*
X-1182854Y2494990D1*
X-1190895Y2488103D1*
X-1199325Y2481893D1*
X-1208101Y2476392D1*
X-1217181Y2471626D1*
X-1226521Y2467619D1*
X-1236075Y2464389D1*
X-1245797Y2461953D1*
X-1255640Y2460322D1*
X-1265555Y2459505D1*
X-1275495D1*
X-1285410Y2460322D1*
X-1295253Y2461953D1*
X-1304975Y2464389D1*
X-1314529Y2467619D1*
X-1323869Y2471626D1*
X-1332950Y2476392D1*
X-1341726Y2481893D1*
X-1350155Y2488103D1*
X-1358196Y2494990D1*
X-1365810Y2502522D1*
X-1372960Y2510662D1*
X-1379611Y2519369D1*
X-1385730Y2528603D1*
X-1391288Y2538317D1*
X-1396258Y2548465D1*
X-1400615Y2558996D1*
X-1404338Y2569861D1*
X-1407410Y2581005D1*
X-1409814Y2592374D1*
X-1411540Y2603914D1*
X-1412579Y2615567D1*
X-1412926Y2627277D1*
X-1418905Y2372483D2*
X-1418558Y2384193D1*
X-1417519Y2395847D1*
X-1415793Y2407386D1*
X-1413389Y2418756D1*
X-1410317Y2429900D1*
X-1406594Y2440764D1*
X-1402237Y2451296D1*
X-1397267Y2461443D1*
X-1391709Y2471157D1*
X-1385589Y2480391D1*
X-1378939Y2489099D1*
X-1371789Y2497238D1*
X-1364175Y2504770D1*
X-1356134Y2511658D1*
X-1347704Y2517867D1*
X-1338928Y2523368D1*
X-1329848Y2528134D1*
X-1320508Y2532142D1*
X-1310954Y2535371D1*
X-1301232Y2537808D1*
X-1291389Y2539438D1*
X-1281474Y2540256D1*
X-1271534D1*
X-1261619Y2539438D1*
X-1251776Y2537808D1*
X-1242054Y2535371D1*
X-1232499Y2532142D1*
X-1223159Y2528134D1*
X-1214079Y2523368D1*
X-1205303Y2517867D1*
X-1196874Y2511658D1*
X-1188833Y2504770D1*
X-1181219Y2497238D1*
X-1174069Y2489099D1*
X-1167418Y2480391D1*
X-1161299Y2471157D1*
X-1155741Y2461443D1*
X-1150771Y2451296D1*
X-1146414Y2440764D1*
X-1142691Y2429900D1*
X-1139619Y2418756D1*
X-1137214Y2407386D1*
X-1135489Y2395847D1*
X-1134450Y2384193D1*
X-1134103Y2372483D1*
X-1134450Y2360773D1*
X-1135489Y2349119D1*
X-1137214Y2337580D1*
X-1139619Y2326211D1*
X-1142691Y2315067D1*
X-1146414Y2304202D1*
X-1150771Y2293671D1*
X-1155741Y2283523D1*
X-1161299Y2273809D1*
X-1167418Y2264575D1*
X-1174069Y2255868D1*
X-1181219Y2247728D1*
X-1188833Y2240196D1*
X-1196874Y2233309D1*
X-1205303Y2227099D1*
X-1214079Y2221598D1*
X-1223159Y2216832D1*
X-1232499Y2212825D1*
X-1242054Y2209595D1*
X-1251776Y2207159D1*
X-1261619Y2205528D1*
X-1271534Y2204711D1*
X-1281474D1*
X-1291389Y2205528D1*
X-1301232Y2207159D1*
X-1310954Y2209595D1*
X-1320508Y2212825D1*
X-1329848Y2216832D1*
X-1338928Y2221598D1*
X-1347704Y2227099D1*
X-1356134Y2233309D1*
X-1364175Y2240196D1*
X-1371789Y2247728D1*
X-1378939Y2255868D1*
X-1385589Y2264575D1*
X-1391709Y2273809D1*
X-1397267Y2283523D1*
X-1402237Y2293671D1*
X-1406594Y2304202D1*
X-1410317Y2315067D1*
X-1413389Y2326211D1*
X-1415793Y2337580D1*
X-1417519Y2349119D1*
X-1418558Y2360773D1*
X-1418905Y2372483D1*
D65*
X-1028895Y2881225D3*
D68*
X606325Y2938895D3*
X715557Y2272770D2*
D69*
Y2831526D1*
X-808690Y2272770D2*
Y2831526D1*
Y2272770D2*
X715557D1*
X-808690Y2831526D2*
X-681947D1*
X588815D1*
X715557D1*
X588815D2*
Y2704436D1*
X-681947D1*
Y2831526D1*
X-6214017Y5625203D2*
D10*
X-5465713D1*
Y6804499D1*
X-6214017D1*
Y5625203D1*
D71*
X-5467028Y6778702D3*
X-5835484Y6219765D2*
D10*
X-5340412D1*
X-5831979Y5867205D2*
X-5337783D1*
X-5847751Y6566183D2*
X-5353556D1*
G36*
X-3851274Y7825013D2*
X-3927473D1*
Y7870722D1*
X-3851274D1*
Y7825013D1*
G37*
G36*
X-3666397Y7613013D2*
X-3742596D1*
Y7658722D1*
X-3666397D1*
Y7613013D1*
G37*
G36*
X-4077077Y3796926D2*
X-4122785D1*
Y3720727D1*
X-4077077D1*
Y3796926D1*
G37*
G36*
X-4061207Y4082680D2*
X-4106915D1*
Y4006481D1*
X-4061207D1*
Y4082680D1*
G37*
G36*
X-4085577Y1793430D2*
X-4131285D1*
Y1717231D1*
X-4085577D1*
Y1793430D1*
G37*
G36*
Y2153426D2*
X-4131285D1*
Y2077227D1*
X-4085577D1*
Y2153426D1*
G37*
G36*
X-4906953Y5935676D2*
X-4952662D1*
Y5859477D1*
X-4906953D1*
Y5935676D1*
G37*
G36*
X-4902577Y6257556D2*
X-4948285D1*
Y6181357D1*
X-4902577D1*
Y6257556D1*
G37*
X-1358667Y5514482D2*
D10*
X-1211898D1*
Y5264845D1*
X-1358667D1*
Y5514482D1*
X-1210580Y5412006D2*
D48*
X-1285882Y5411906D1*
X-1350048Y5412430D2*
X-1285882Y5411906D1*
X-1233311Y5349147D1*
X-1288414Y5410358D2*
X-1340245Y5343805D1*
X1192105Y3220417D2*
D10*
X942468D1*
Y3073648D1*
X1192105D1*
Y3220417D1*
X1089629Y3072330D2*
D48*
X1089529Y3147632D1*
X1090054Y3211798D2*
X1089529Y3147632D1*
X1026771Y3095061D1*
X1087982Y3150164D2*
X1021428Y3201995D1*
X-256085Y3716120D2*
D10*
X-505722D1*
Y3569351D1*
X-256085D1*
Y3716120D1*
X-358561Y3568033D2*
D48*
X-358661Y3643335D1*
X-358136Y3707501D2*
X-358661Y3643335D1*
X-421419Y3590765D1*
X-360208Y3645868D2*
X-426762Y3697698D1*
X1013723Y7223550D2*
D10*
X173886D1*
Y7972062D1*
X1013723D1*
Y7223550D1*
D53*
X168881Y7986356D3*
X412279Y7592608D2*
D10*
X413189Y8086418D1*
X765321Y7595207D2*
X766231Y8089883D1*
G36*
X-958670Y2953855D2*
X-918358D1*
Y2881890D1*
X-958670D1*
Y2953855D1*
G37*
G36*
X-997038Y3272557D2*
X-1069004D1*
Y3232244D1*
X-997038D1*
Y3272557D1*
G37*
G36*
X291580Y2963978D2*
X331892D1*
Y2892013D1*
X291580D1*
Y2963978D1*
G37*
G36*
X-239086Y3404928D2*
X-279399D1*
Y3476894D1*
X-239086D1*
Y3404928D1*
G37*
G36*
X-96210Y3071548D2*
X-136522D1*
Y3143514D1*
X-96210D1*
Y3071548D1*
G37*
G36*
X-2595838Y6343850D2*
X-2523873D1*
Y6384162D1*
X-2595838D1*
Y6343850D1*
G37*
G36*
X-2449402Y6331520D2*
X-2377436D1*
Y6371832D1*
X-2449402D1*
Y6331520D1*
G37*
G36*
X-1422397Y5443763D2*
X-1498596D1*
Y5489472D1*
X-1422397D1*
Y5443763D1*
G37*
G36*
X-1745165Y3272310D2*
X-1817130D1*
Y3231998D1*
X-1745165D1*
Y3272310D1*
G37*
G36*
X1467483Y3191603D2*
X1421775D1*
Y3115404D1*
X1467483D1*
Y3191603D1*
G37*
G36*
X24080Y5285975D2*
X64392D1*
Y5214010D1*
X24080D1*
Y5285975D1*
G37*
G36*
X56785Y4421473D2*
Y4461786D1*
X128750D1*
Y4421473D1*
X56785D1*
G37*
G36*
X349790Y4406545D2*
X309478D1*
Y4478510D1*
X349790D1*
Y4406545D1*
G37*
X-2253433Y3423120D2*
D10*
X-2855820D1*
Y2863080D1*
X-2253433D1*
Y3423120D1*
X-2373549Y3330060D2*
X-2732632D1*
X-2371863Y2961180D2*
X-2727271D1*
X-2554627Y3326700D2*
Y3253920D1*
X-2559687Y3064440D2*
Y2967960D1*
X-2558000Y3248880D2*
X-2448004Y3086400D1*
X166698Y5169700D2*
X406668D1*
Y4569700D1*
X166698D1*
Y5169700D1*
X-184645Y3374790D2*
X-434282D1*
Y3228021D1*
X-184645D1*
Y3374790D1*
X-287121Y3226703D2*
D48*
X-287221Y3302005D1*
X-286696Y3366171D2*
X-287221Y3302005D1*
X-349979Y3249435D1*
X-288768Y3304538D2*
X-355322Y3356368D1*
X-5803370Y11823560D2*
D10*
X-6643208D1*
Y12572072D1*
X-5803370D1*
Y11823560D1*
D53*
X-6648212Y12586366D3*
X-6404814Y12192618D2*
D10*
X-6403904Y12686428D1*
X-6051773Y12195217D2*
X-6050863Y12689893D1*
X758433Y2711077D2*
X1774433D1*
Y2203077D1*
X758433D1*
Y2711077D1*
X-4123062Y6771967D2*
X-3123098D1*
X-4123062Y7032447D2*
X-3123098D1*
Y6771967D2*
Y7032447D1*
X-4123062Y6771967D2*
Y6851887D1*
Y6952527D2*
Y7032447D1*
Y6851887D2*
G03X-4123062Y6952527I-268J50320D01*
G01*
D76*
X-4181093Y6627741D3*
X-4123062Y2993713D2*
D10*
X-3123098D1*
X-4123062Y3254193D2*
X-3123098D1*
Y2993713D2*
Y3254193D1*
X-4123062Y2993713D2*
Y3073633D1*
Y3174273D2*
Y3254193D1*
Y3073633D2*
G03X-4123062Y3174273I-268J50320D01*
G01*
D76*
X-4181093Y2849487D3*
X-1726421Y4651606D2*
D48*
X-1686466Y4691561D1*
X-806408D1*
X-766453Y4651606D1*
Y3771548D1*
X-806408Y3731593D1*
X-1686466D1*
X-1726421Y3771548D1*
Y4651606D1*
X-1674676Y4611585D2*
D15*
G02X-1674676Y4611585I28230J0D01*
G01*
X-3146429Y1486418D2*
D10*
X-3806447D1*
X-3146429Y936510D2*
Y1486418D1*
X-3806447Y936510D2*
Y1486418D1*
D80*
X-3146803Y1758313D3*
D83*
X2314044Y8698245D3*
X3488354Y8513276D2*
D48*
X3551839Y8576851D1*
X3679108D1*
X3742292Y8513276D1*
X3032230Y8572346D2*
X3159199D1*
X3222683Y8508771D1*
X3742292Y8386626D2*
X3679108Y8323050D1*
X3551839D1*
X3488354Y8386626D1*
X3222683Y8382121D2*
X3159199Y8318545D1*
X3742292Y8513276D2*
Y8386626D1*
X3222683Y8508771D2*
X3286167Y8572346D1*
X3413136D1*
X3476620Y8508771D1*
Y8382121D2*
X3413136Y8318545D1*
X3286167D1*
X3222683Y8382121D1*
X2714507Y8508771D2*
X2777992Y8572346D1*
X2904960D1*
X2968746Y8508771D1*
Y8382121D2*
X2904960Y8318545D1*
X2777992D1*
X2714507Y8382121D1*
X3032230Y8572346D2*
X2968746Y8508771D1*
Y8382121D2*
X3032230Y8318545D1*
X3159199D2*
X3032230D1*
X2270117Y8572346D2*
X2397086D1*
X2460570Y8508771D1*
Y8382121D2*
X2397086Y8318545D1*
X2460570Y8508771D2*
X2524054Y8572346D1*
X2651023D1*
X2714507Y8508771D1*
Y8382121D2*
X2651023Y8318545D1*
X2524054D1*
X2460570Y8382121D1*
X2206633Y8508771D2*
Y8382121D1*
X2270117Y8572346D2*
X2206633Y8508771D1*
Y8382121D2*
X2270117Y8318545D1*
X2397086D2*
X2270117D1*
D84*
X3621040Y4195155D3*
X2446730Y4379874D2*
D48*
X2383245Y4316299D1*
X2255976D1*
X2192792Y4379874D1*
X2902854Y4320804D2*
X2775886D1*
X2712401Y4384380D1*
X2192792Y4507025D2*
X2255976Y4570100D1*
X2383245D1*
X2446730Y4507025D1*
X2712401Y4511530D2*
X2775886Y4574605D1*
X2192792Y4379874D2*
Y4507025D1*
X2712401Y4384380D2*
X2648917Y4320804D1*
X2521948D1*
X2458464Y4384380D1*
Y4511530D2*
X2521948Y4574605D1*
X2648917D1*
X2712401Y4511530D1*
X3220276Y4384380D2*
X3157092Y4320804D1*
X3029823D1*
X2966339Y4384380D1*
Y4511530D2*
X3029823Y4574605D1*
X3157092D1*
X3220276Y4511530D1*
X2902854Y4320804D2*
X2966339Y4384380D1*
Y4511530D2*
X2902854Y4574605D1*
X2775886D2*
X2902854D1*
X3664967Y4320804D2*
X3537999D1*
X3474514Y4384380D1*
Y4511530D2*
X3537999Y4574605D1*
X3474514Y4384380D2*
X3411030Y4320804D1*
X3284061D1*
X3220276Y4384380D1*
Y4511530D2*
X3284061Y4574605D1*
X3411030D1*
X3474514Y4511530D1*
X3728452Y4384380D2*
Y4511530D1*
X3664967Y4320804D2*
X3728452Y4384380D1*
Y4511530D2*
X3664967Y4574605D1*
X3537999D2*
X3664967D1*
X4465291Y8542811D2*
D10*
X4471008Y4310292D1*
X1464076Y8571345D2*
G02X1867247Y8944788I356762J19192D01*
G01*
X1839266Y3945859D2*
G02X1465280Y4348837I-19730J356718D01*
G01*
X4470406Y4319803D2*
G02X4067235Y3945859I-356772J-19656D01*
G01*
X4091004Y8946290D2*
G02X4464990Y8542811I19684J-356819D01*
G01*
X4078067Y3944358D2*
X1828133Y3947862D1*
X4101535Y8943787D2*
X1851000Y8948793D1*
X1464979Y8579354D2*
X1467687Y4313796D1*
X3099620Y2688017D2*
X2032820D1*
Y3932617D1*
X3099620D1*
Y2688017D1*
D89*
X1380775Y4145381D3*
X1346204Y3953627D2*
D10*
X686198D1*
X1346204Y3673787D2*
X686198D1*
Y3953627D2*
Y3673787D1*
X1346204Y3953627D2*
Y3673787D1*
D89*
X-2118849Y2139251D3*
X-2153420Y1947497D2*
D10*
X-2813425D1*
X-2153420Y1667657D2*
X-2813425D1*
Y1947497D2*
Y1667657D1*
X-2153420Y1947497D2*
Y1667657D1*
X-1561660Y6168973D2*
X-1266393D1*
Y6691973D1*
X-1561660D1*
Y6168973D1*
D92*
X-1602897Y6223888D3*
D89*
X-71785Y6645674D3*
X-106356Y6453920D2*
D10*
X-766362D1*
X-106356Y6174080D2*
X-766362D1*
Y6453920D2*
Y6174080D1*
X-106356Y6453920D2*
Y6174080D1*
X-599314Y5119098D2*
D40*
X-333425Y4853209D1*
X-478366Y4708268D1*
X-744255Y4974158D1*
X-599314Y5119098D1*
X-2554047Y1018873D2*
D14*
X313937D1*
Y344163D1*
X-2554047D1*
Y1018873D1*
X769933Y2706703D2*
X2801933D1*
Y1547827D1*
X769933D1*
Y2706703D1*
X-4639690Y1466330D2*
D15*
X-4949690D1*
X-4819690Y1356323D2*
X-4949690Y1466330D1*
X-4839690Y1576327D1*
X-2958793Y8637253D2*
Y8327257D1*
X-2848793Y8457250D2*
X-2958793Y8327257D1*
X-3068793Y8437253D1*
X-3311797Y8318127D2*
Y8628133D1*
X-3421787Y8498127D2*
X-3311797Y8628133D1*
X-3201797Y8518127D1*
X-5444753Y6227513D2*
X-5134747D1*
X-5264750Y6337517D2*
X-5134747Y6227513D1*
X-5244753Y6117513D1*
X-5128880Y5865757D2*
X-5438880D1*
X-5308877Y5755760D2*
X-5438880Y5865757D1*
X-5328880Y5975760D1*
X552060Y4870077D2*
X1409310D1*
X-479817Y3965200D2*
X456810D1*
Y3155577D1*
X-479817D1*
Y3965200D1*
X-5786443Y2770200D2*
D14*
X-4310063D1*
Y881077D1*
X-5786443D1*
Y2770200D1*
X-2928940Y6881827D2*
X-1627190D1*
Y5246703D1*
X-2928940D1*
Y6881827D1*
X409183Y5171703D2*
X1425183D1*
Y4568450D1*
X409183D1*
Y5171703D1*
X-2099067Y2901577D2*
X-1289440D1*
Y2345950D1*
X-2099067D1*
Y2901577D1*
Y2631700D2*
D15*
X-1257690D1*
X-4892067Y4415707D2*
X-4582060D1*
X-4712063Y4525700D2*
X-4582060Y4415707D1*
X-4692067Y4305703D1*
X754060Y2071703D2*
Y2198703D1*
X1436683Y1055703D2*
Y1468450D1*
X614340Y7231240D2*
X609967Y8306363D1*
X-5770567Y5357827D2*
D14*
X-4294190D1*
Y3468703D1*
X-5770567D1*
Y5357827D1*
X-4516440Y6088077D2*
X-3151190D1*
Y5453073D1*
X-4516440D1*
Y6088077D1*
X785003Y1539873D2*
X3524250D1*
Y301510D1*
X785003D1*
Y1539873D1*
X-1412870Y9017000D2*
X1158880D1*
Y7112000D1*
X-1412870D1*
Y9017000D1*
X-6215063Y7167580D2*
X-4611690D1*
Y5611830D1*
X-6215063D1*
Y7167580D1*
X-3563667Y9384693D2*
X-2198420D1*
Y7352693D1*
X-3563667D1*
Y9384693D1*
X-1325567Y6278573D2*
X-881067D1*
Y4929203D1*
X-1325567D1*
Y6278573D1*
X-849317Y2738450D2*
X674683D1*
Y1674827D1*
X-849317D1*
Y2738450D1*
X-4592067Y4053953D2*
D15*
X-4902063D1*
X-4772060Y3943943D2*
X-4902063Y4053953D1*
X-4792067Y4163950D1*
X-4939693Y1828080D2*
X-4629687D1*
X-4759690Y1938077D2*
X-4629687Y1828080D1*
X-4739693Y1718080D1*
X754060Y2062077D2*
D10*
X1262060D1*
Y1808077D1*
X754060D1*
Y2062077D1*
Y1808077D2*
X1262060D1*
Y1554077D1*
X754060D1*
Y1808077D1*
X1262060Y2062077D2*
X1770060D1*
Y1808077D1*
X1262060D1*
Y2062077D1*
Y1808077D2*
X1770060D1*
Y1554077D1*
X1262060D1*
Y1808077D1*
X1770060Y2062077D2*
X2278060D1*
Y1808077D1*
X1770060D1*
Y2062077D1*
Y1808077D2*
X2278060D1*
Y1554077D1*
X1770060D1*
Y1808077D1*
X2278060Y2062077D2*
X2786060D1*
Y1808077D1*
X2278060D1*
Y2062077D1*
Y1808077D2*
X2786060D1*
Y1554077D1*
X2278060D1*
Y1808077D1*
X-3291701Y2557809D2*
D177*
X-3301359Y2552980D1*
X-3311130Y2543209D1*
X-3315959Y2533551D1*
Y2514121D1*
X-3311130Y2504351D1*
X-3301359Y2494692D1*
X-3291701Y2489751D1*
X-3277101Y2484921D1*
X-3252730D1*
X-3238242Y2489751D1*
X-3228472Y2494692D1*
X-3218813Y2504351D1*
X-3213871Y2514121D1*
Y2533551D1*
X-3218813Y2543209D1*
X-3228471Y2552980D1*
X-3238242Y2557809D1*
X-3296418Y2589182D2*
X-3301359Y2598952D1*
X-3315847Y2613552D1*
X-3213872D1*
X-3256384Y6301889D2*
X-3266042Y6297059D1*
X-3275813Y6287289D1*
X-3280643Y6277630D1*
Y6258201D1*
X-3275813Y6248430D1*
X-3266043Y6238772D1*
X-3256384Y6233830D1*
X-3241784Y6229001D1*
X-3217413D1*
X-3202926Y6233830D1*
X-3193155Y6238772D1*
X-3183496Y6248430D1*
X-3178555Y6258201D1*
Y6277630D1*
X-3183496Y6287288D1*
X-3193155Y6297059D1*
X-3202926Y6301888D1*
X-3256272Y6338203D2*
X-3261101D1*
X-3270872Y6343032D1*
X-3275701Y6347861D1*
X-3280530Y6357632D1*
Y6377061D1*
X-3275701Y6386719D1*
X-3270872Y6391549D1*
X-3261101Y6396490D1*
X-3251442D1*
X-3241672Y6391549D1*
X-3227184Y6381890D1*
X-3178555Y6333261D1*
Y6401319D1*
X-4435384Y6506512D2*
X-4445042Y6501683D1*
X-4454813Y6491912D1*
X-4459643Y6482254D1*
Y6462824D1*
X-4454813Y6453054D1*
X-4445043Y6443395D1*
X-4435384Y6438454D1*
X-4420784Y6433624D1*
X-4396413D1*
X-4381926Y6438454D1*
X-4372155Y6443395D1*
X-4362496Y6453053D1*
X-4357555Y6462824D1*
Y6482253D1*
X-4362496Y6491912D1*
X-4372155Y6501683D1*
X-4381926Y6506512D1*
X-4459530Y6547655D2*
Y6601001D1*
X-4420672Y6571914D1*
Y6586514D1*
X-4415842Y6596172D1*
X-4411013Y6601001D1*
X-4396413Y6605943D1*
X-4386755D1*
X-4372155Y6601001D1*
X-4362384Y6591343D1*
X-4357555Y6576743D1*
Y6562143D1*
X-4362384Y6547655D1*
X-4367326Y6542826D1*
X-4376984Y6537884D1*
X-3675859Y6192711D2*
X-3685517Y6187881D1*
X-3695288Y6178111D1*
X-3700118Y6168452D1*
Y6149023D1*
X-3695288Y6139252D1*
X-3685518Y6129594D1*
X-3675859Y6124652D1*
X-3661259Y6119823D1*
X-3636888D1*
X-3622401Y6124652D1*
X-3612630Y6129594D1*
X-3602971Y6139252D1*
X-3598030Y6149023D1*
Y6168452D1*
X-3602971Y6178111D1*
X-3612630Y6187881D1*
X-3622401Y6192711D1*
X-3598030Y6272712D2*
X-3700005D1*
X-3632059Y6224083D1*
Y6296971D1*
X-4170236Y7636875D2*
X-4179894Y7632046D1*
X-4189665Y7622275D1*
X-4194494Y7612617D1*
Y7593188D1*
X-4189665Y7583417D1*
X-4179894Y7573758D1*
X-4170236Y7568817D1*
X-4155636Y7563988D1*
X-4131265D1*
X-4116777Y7568817D1*
X-4107007Y7573758D1*
X-4097348Y7583417D1*
X-4092406Y7593188D1*
Y7612617D1*
X-4097348Y7622275D1*
X-4107006Y7632046D1*
X-4116777Y7636875D1*
X-4194382Y7726535D2*
Y7678019D1*
X-4150694Y7673189D1*
X-4155523Y7678018D1*
X-4160465Y7692618D1*
Y7707106D1*
X-4155523Y7721706D1*
X-4145865Y7731477D1*
X-4131265Y7736306D1*
X-4121606D1*
X-4107007Y7731477D1*
X-4097236Y7721706D1*
X-4092407Y7707106D1*
Y7692618D1*
X-4097236Y7678018D1*
X-4102177Y7673189D1*
X-4111836Y7668248D1*
X-4144327Y6279569D2*
X-4153986Y6274740D1*
X-4163757Y6264969D1*
X-4168586Y6255311D1*
Y6235882D1*
X-4163757Y6226111D1*
X-4153986Y6216453D1*
X-4144327Y6211511D1*
X-4129727Y6206682D1*
X-4105357D1*
X-4090869Y6211511D1*
X-4081098Y6216453D1*
X-4071440Y6226111D1*
X-4066498Y6235882D1*
Y6255311D1*
X-4071440Y6264969D1*
X-4081098Y6274740D1*
X-4090869Y6279569D1*
X-4153986Y6369229D2*
X-4163644Y6364400D1*
X-4168473Y6349800D1*
Y6340142D1*
X-4163644Y6325542D1*
X-4149044Y6315771D1*
X-4124786Y6310942D1*
X-4100527D1*
X-4081098Y6315771D1*
X-4071327Y6325542D1*
X-4066498Y6340142D1*
Y6344971D1*
X-4071327Y6359459D1*
X-4081098Y6369229D1*
X-4095698Y6374059D1*
X-4100527D1*
X-4115127Y6369229D1*
X-4124786Y6359459D1*
X-4129615Y6344971D1*
Y6340142D1*
X-4124786Y6325542D1*
X-4115127Y6315771D1*
X-4100527Y6310942D1*
X-3990536Y2363735D2*
X-4000194Y2358906D1*
X-4009965Y2349135D1*
X-4014794Y2339477D1*
Y2320048D1*
X-4009965Y2310277D1*
X-4000194Y2300618D1*
X-3990536Y2295677D1*
X-3975936Y2290848D1*
X-3951565D1*
X-3937077Y2295677D1*
X-3927307Y2300618D1*
X-3917648Y2310277D1*
X-3912706Y2320048D1*
Y2339477D1*
X-3917648Y2349135D1*
X-3927306Y2358906D1*
X-3937077Y2363735D1*
X-3912707Y2414537D2*
X-4014682Y2463166D1*
Y2395108D1*
X-3654296Y2242728D2*
X-3663954Y2237899D1*
X-3673725Y2228128D1*
X-3678554Y2218470D1*
Y2199040D1*
X-3673725Y2189270D1*
X-3663954Y2179611D1*
X-3654296Y2174670D1*
X-3639696Y2169840D1*
X-3615325D1*
X-3600837Y2174670D1*
X-3591067Y2179611D1*
X-3581408Y2189270D1*
X-3576466Y2199040D1*
Y2218469D1*
X-3581408Y2228128D1*
X-3591066Y2237899D1*
X-3600837Y2242728D1*
X-3678442Y2298359D2*
X-3673613Y2283871D1*
X-3663954Y2278930D1*
X-3654183D1*
X-3644525Y2283871D1*
X-3639583Y2293530D1*
X-3634754Y2312959D1*
X-3629925Y2327559D1*
X-3620154Y2337217D1*
X-3610496Y2342047D1*
X-3595896D1*
X-3586237Y2337217D1*
X-3581296Y2332388D1*
X-3576467Y2317788D1*
Y2298359D1*
X-3581296Y2283871D1*
X-3586237Y2278930D1*
X-3595896Y2274100D1*
X-3610496D1*
X-3620154Y2278930D1*
X-3629925Y2288701D1*
X-3634754Y2303188D1*
X-3639583Y2322617D1*
X-3644525Y2332388D1*
X-3654183Y2337217D1*
X-3663954D1*
X-3673613Y2332388D1*
X-3678442Y2317788D1*
Y2298359D1*
X-4250270Y3407021D2*
X-4255100Y3416679D1*
X-4264870Y3426450D1*
X-4274529Y3431279D1*
X-4293958D1*
X-4303729Y3426450D1*
X-4313387Y3416679D1*
X-4318329Y3407021D1*
X-4323158Y3392421D1*
Y3368050D1*
X-4318329Y3353562D1*
X-4313387Y3343792D1*
X-4303729Y3334133D1*
X-4293958Y3329192D1*
X-4274529D1*
X-4264870Y3334133D1*
X-4255100Y3343792D1*
X-4250270Y3353562D1*
X-4155669Y3397250D2*
X-4160610Y3382650D1*
X-4170269Y3372879D1*
X-4184869Y3368050D1*
X-4189698D1*
X-4204298Y3372879D1*
X-4213956Y3382650D1*
X-4218898Y3397250D1*
Y3402079D1*
X-4213956Y3416679D1*
X-4204298Y3426338D1*
X-4189698Y3431167D1*
X-4184869D1*
X-4170269Y3426338D1*
X-4160610Y3416679D1*
X-4155669Y3397250D1*
Y3372879D1*
X-4160610Y3348621D1*
X-4170269Y3334021D1*
X-4184869Y3329192D1*
X-4194527D1*
X-4209127Y3334021D1*
X-4213956Y3343792D1*
X-1050316Y2115084D2*
X-1059974Y2110254D1*
X-1069745Y2100484D1*
X-1074574Y2090825D1*
Y2071396D1*
X-1069745Y2061625D1*
X-1059974Y2051967D1*
X-1050316Y2047025D1*
X-1035716Y2042196D1*
X-1011345D1*
X-996857Y2047025D1*
X-987087Y2051967D1*
X-977428Y2061625D1*
X-972486Y2071396D1*
Y2090825D1*
X-977428Y2100483D1*
X-987086Y2110254D1*
X-996857Y2115083D1*
X-1055033Y2146456D2*
X-1059974Y2156227D1*
X-1074462Y2170827D1*
X-972487D1*
X-1074462Y2231399D2*
X-1069633Y2216799D1*
X-1055033Y2207029D1*
X-1030774Y2202199D1*
X-1016174D1*
X-991916Y2207028D1*
X-977316Y2216799D1*
X-972487Y2231399D1*
Y2241058D1*
X-977316Y2255658D1*
X-991916Y2265316D1*
X-1016174Y2270258D1*
X-1030774D1*
X-1055033Y2265316D1*
X-1069633Y2255658D1*
X-1074462Y2241058D1*
Y2231399D1*
X-1055033Y2265316D2*
X-991916Y2207028D1*
X-4492546Y3032746D2*
X-4497375Y3042404D1*
X-4507146Y3052175D1*
X-4516805Y3057004D1*
X-4536234D1*
X-4546005Y3052175D1*
X-4555663Y3042404D1*
X-4560605Y3032746D1*
X-4565434Y3018146D1*
Y2993775D1*
X-4560605Y2979287D1*
X-4555663Y2969517D1*
X-4546005Y2959858D1*
X-4536234Y2954917D1*
X-4516805D1*
X-4507146Y2959858D1*
X-4497375Y2969517D1*
X-4492546Y2979287D1*
X-4461174Y3037463D2*
X-4451403Y3042404D1*
X-4436803Y3056892D1*
Y2954917D1*
X-4405430Y3037463D2*
X-4395660Y3042404D1*
X-4381060Y3056892D1*
Y2954917D1*
X-497577Y5477097D2*
X-507236Y5472268D1*
X-517007Y5462497D1*
X-521836Y5452839D1*
Y5433409D1*
X-517007Y5423639D1*
X-507236Y5413980D1*
X-497577Y5409039D1*
X-482977Y5404209D1*
X-458607D1*
X-444119Y5409039D1*
X-434348Y5413980D1*
X-424690Y5423638D1*
X-419748Y5433409D1*
Y5452838D1*
X-424690Y5462497D1*
X-434348Y5472268D1*
X-444119Y5477097D1*
X-502294Y5508469D2*
X-507236Y5518240D1*
X-521723Y5532840D1*
X-419748D1*
X-497465Y5569154D2*
X-502294D1*
X-512065Y5573983D1*
X-516894Y5578813D1*
X-521723Y5588583D1*
Y5608013D1*
X-516894Y5617671D1*
X-512065Y5622500D1*
X-502294Y5627442D1*
X-492636D1*
X-482865Y5622500D1*
X-468377Y5612842D1*
X-419748Y5564213D1*
Y5632271D1*
X-250159Y4769494D2*
X-259817Y4764664D1*
X-269588Y4754894D1*
X-274418Y4745235D1*
Y4725806D1*
X-269588Y4716035D1*
X-259818Y4706377D1*
X-250159Y4701435D1*
X-235559Y4696606D1*
X-211188D1*
X-196701Y4701435D1*
X-186930Y4706377D1*
X-177271Y4716035D1*
X-172330Y4725806D1*
Y4745235D1*
X-177271Y4754893D1*
X-186930Y4764664D1*
X-196701Y4769493D1*
X-254876Y4800866D2*
X-259817Y4810637D1*
X-274305Y4825237D1*
X-172330D1*
X-274305Y4866380D2*
Y4919726D1*
X-235447Y4890639D1*
Y4905239D1*
X-230618Y4914897D1*
X-225788Y4919726D1*
X-211188Y4924668D1*
X-201530D1*
X-186930Y4919726D1*
X-177159Y4910068D1*
X-172330Y4895468D1*
Y4880868D1*
X-177159Y4866380D1*
X-182101Y4861551D1*
X-191759Y4856609D1*
X-1633927Y5004062D2*
X-1643586Y4999233D1*
X-1653357Y4989462D1*
X-1658186Y4979804D1*
Y4960375D1*
X-1653357Y4950604D1*
X-1643586Y4940945D1*
X-1633927Y4936004D1*
X-1619327Y4931175D1*
X-1594957D1*
X-1580469Y4936004D1*
X-1570698Y4940945D1*
X-1561040Y4950604D1*
X-1556098Y4960375D1*
Y4979804D1*
X-1561040Y4989462D1*
X-1570698Y4999233D1*
X-1580469Y5004062D1*
X-1638644Y5035435D2*
X-1643586Y5045206D1*
X-1658073Y5059806D1*
X-1556098Y5059805D1*
Y5139807D2*
X-1658073D1*
X-1590127Y5091178D1*
Y5164066D1*
X-256554Y4275694D2*
X-266212Y4270864D1*
X-275983Y4261094D1*
X-280813Y4251435D1*
Y4232006D1*
X-275983Y4222235D1*
X-266213Y4212577D1*
X-256554Y4207635D1*
X-241954Y4202806D1*
X-217583D1*
X-203096Y4207635D1*
X-193325Y4212577D1*
X-183666Y4222235D1*
X-178725Y4232006D1*
Y4251435D1*
X-183666Y4261093D1*
X-193325Y4270864D1*
X-203096Y4275693D1*
X-261271Y4307066D2*
X-266212Y4316837D1*
X-280700Y4331437D1*
X-178725D1*
X-280700Y4421097D2*
Y4372580D1*
X-237012Y4367751D1*
X-241842Y4372580D1*
X-246783Y4387180D1*
Y4401668D1*
X-241842Y4416268D1*
X-232183Y4426038D1*
X-217583Y4430868D1*
X-207925D1*
X-193325Y4426038D1*
X-183554Y4416268D1*
X-178725Y4401668D1*
Y4387180D1*
X-183554Y4372580D1*
X-188496Y4367751D1*
X-198154Y4362809D1*
X-1428421Y3236418D2*
X-1438079Y3231588D1*
X-1447850Y3221818D1*
X-1452679Y3212159D1*
Y3192730D1*
X-1447850Y3182959D1*
X-1438079Y3173301D1*
X-1428421Y3168359D1*
X-1413821Y3163530D1*
X-1389450D1*
X-1374962Y3168359D1*
X-1365192Y3173301D1*
X-1355533Y3182959D1*
X-1350591Y3192730D1*
Y3212159D1*
X-1355533Y3221818D1*
X-1365191Y3231588D1*
X-1374962Y3236418D1*
X-1433138Y3267790D2*
X-1438079Y3277561D1*
X-1452567Y3292161D1*
X-1350592D1*
X-1438079Y3381821D2*
X-1447738Y3376992D1*
X-1452567Y3362392D1*
Y3352733D1*
X-1447738Y3338133D1*
X-1433138Y3328363D1*
X-1408879Y3323533D1*
X-1384621D1*
X-1365192Y3328363D1*
X-1355421Y3338133D1*
X-1350592Y3352733D1*
Y3357563D1*
X-1355421Y3372050D1*
X-1365192Y3381821D1*
X-1379792Y3386650D1*
X-1384621D1*
X-1399221Y3381821D1*
X-1408879Y3372050D1*
X-1413708Y3357563D1*
Y3352733D1*
X-1408879Y3338133D1*
X-1399221Y3328363D1*
X-1384621Y3323533D1*
X-2185506Y4368607D2*
X-2195164Y4363778D1*
X-2204935Y4354007D1*
X-2209764Y4344349D1*
Y4324919D1*
X-2204935Y4315149D1*
X-2195164Y4305490D1*
X-2185506Y4300549D1*
X-2170906Y4295719D1*
X-2146535D1*
X-2132047Y4300549D1*
X-2122277Y4305490D1*
X-2112618Y4315148D1*
X-2107676Y4324919D1*
Y4344348D1*
X-2112618Y4354007D1*
X-2122276Y4363778D1*
X-2132047Y4368607D1*
X-2190223Y4399979D2*
X-2195164Y4409750D1*
X-2209652Y4424350D1*
X-2107677D1*
Y4475152D2*
X-2209652Y4523781D1*
Y4455723D1*
X2920596Y2262783D2*
X2910938Y2257954D1*
X2901167Y2248183D1*
X2896337Y2238525D1*
Y2219095D1*
X2901167Y2209325D1*
X2910937Y2199666D1*
X2920596Y2194725D1*
X2935196Y2189895D1*
X2959567D1*
X2974054Y2194725D1*
X2983825Y2199666D1*
X2993484Y2209325D1*
X2998425Y2219095D1*
Y2238525D1*
X2993484Y2248183D1*
X2983825Y2257954D1*
X2974054Y2262783D1*
X2915879Y2294156D2*
X2910938Y2303926D1*
X2896450Y2318526D1*
X2998425D1*
X2896450Y2374157D2*
X2901279Y2359670D1*
X2910938Y2354728D1*
X2920708D1*
X2930367Y2359670D1*
X2935308Y2369328D1*
X2940138Y2388757D1*
X2944967Y2403357D1*
X2954737Y2413016D1*
X2964396Y2417845D1*
X2978996D1*
X2988654Y2413016D1*
X2993596Y2408186D1*
X2998425Y2393586D1*
Y2374157D1*
X2993596Y2359669D1*
X2988654Y2354728D1*
X2978996Y2349899D1*
X2964396D1*
X2954738Y2354728D1*
X2944967Y2364499D1*
X2940138Y2378986D1*
X2935308Y2398416D1*
X2930367Y2408186D1*
X2920708Y2413016D1*
X2910938D1*
X2901279Y2408186D1*
X2896450Y2393587D1*
Y2374157D1*
X1728851Y3502455D2*
X1719193Y3497626D1*
X1709422Y3487855D1*
X1704592Y3478196D1*
Y3458767D1*
X1709422Y3448996D1*
X1719192Y3439338D1*
X1728851Y3434397D1*
X1743451Y3429567D1*
X1767822D1*
X1782309Y3434397D1*
X1792080Y3439338D1*
X1801739Y3448996D1*
X1806680Y3458767D1*
Y3478196D1*
X1801739Y3487855D1*
X1792080Y3497626D1*
X1782309Y3502455D1*
X1724134Y3533827D2*
X1719193Y3543598D1*
X1704705Y3558198D1*
X1806680D1*
X1738622Y3652800D2*
X1753222Y3647858D1*
X1762992Y3638200D1*
X1767822Y3623600D1*
Y3618771D1*
X1762993Y3604171D1*
X1753222Y3594512D1*
X1738622Y3589571D1*
X1733793D1*
X1719193Y3594512D1*
X1709534Y3604171D1*
X1704705Y3618771D1*
Y3623600D1*
X1709534Y3638200D1*
X1719193Y3647858D1*
X1738622Y3652800D1*
X1762992D1*
X1787251Y3647858D1*
X1801851Y3638200D1*
X1806680Y3623600D1*
Y3613941D1*
X1801851Y3599341D1*
X1792080Y3594512D1*
X-2003859Y1921280D2*
X-2013517Y1916451D1*
X-2023288Y1906680D1*
X-2028118Y1897021D1*
Y1877592D1*
X-2023288Y1867821D1*
X-2013518Y1858163D1*
X-2003859Y1853221D1*
X-1989259Y1848392D1*
X-1964888D1*
X-1950401Y1853221D1*
X-1940630Y1858163D1*
X-1930971Y1867821D1*
X-1926030Y1877592D1*
Y1897021D1*
X-1930971Y1906680D1*
X-1940630Y1916450D1*
X-1950401Y1921280D1*
X-2003747Y1957594D2*
X-2008576D1*
X-2018347Y1962423D1*
X-2023176Y1967252D1*
X-2028005Y1977023D1*
Y1996452D1*
X-2023176Y2006111D1*
X-2018347Y2010940D1*
X-2008576Y2015881D1*
X-1998917D1*
X-1989147Y2010940D1*
X-1974659Y2001281D1*
X-1926030Y1952652D1*
Y2020711D1*
X-2028005Y2081283D2*
X-2023176Y2066683D1*
X-2008576Y2056912D1*
X-1984317Y2052083D1*
X-1969718D1*
X-1945459Y2056912D1*
X-1930859Y2066683D1*
X-1926030Y2081283D1*
Y2090942D1*
X-1930859Y2105542D1*
X-1945459Y2115200D1*
X-1969718Y2120142D1*
X-1984318D1*
X-2008576Y2115200D1*
X-2023176Y2105542D1*
X-2028005Y2090942D1*
Y2081283D1*
X-2008576Y2115200D2*
X-1945459Y2056912D1*
X1180169Y4347897D2*
X1170511Y4343068D1*
X1160740Y4333297D1*
X1155911Y4323639D1*
Y4304209D1*
X1160740Y4294439D1*
X1170511Y4284780D1*
X1180169Y4279839D1*
X1194769Y4275009D1*
X1219140D1*
X1233628Y4279839D1*
X1243398Y4284780D1*
X1253057Y4294438D1*
X1257999Y4304209D1*
Y4323638D1*
X1253057Y4333297D1*
X1243399Y4343068D1*
X1233628Y4347897D1*
X1180282Y4384211D2*
X1175452D1*
X1165682Y4389040D1*
X1160852Y4393869D1*
X1156023Y4403640D1*
Y4423069D1*
X1160852Y4432728D1*
X1165682Y4437557D1*
X1175452Y4442499D1*
X1185111D1*
X1194882Y4437557D1*
X1209369Y4427899D1*
X1257999Y4379269D1*
X1257998Y4447328D1*
X1175452Y4478700D2*
X1170511Y4488471D1*
X1156023Y4503071D1*
X1257998D1*
X647964Y4133026D2*
X638306Y4128197D1*
X628535Y4118426D1*
X623706Y4108768D1*
Y4089339D1*
X628535Y4079568D1*
X638306Y4069910D1*
X647964Y4064968D1*
X662564Y4060139D1*
X686935D1*
X701423Y4064968D1*
X711193Y4069910D1*
X720852Y4079568D1*
X725794Y4089339D1*
Y4108768D1*
X720852Y4118426D1*
X711194Y4128197D1*
X701423Y4133026D1*
X648077Y4169340D2*
X643247D1*
X633477Y4174170D1*
X628647Y4178999D1*
X623818Y4188770D1*
Y4208199D1*
X628647Y4217857D1*
X633477Y4222687D1*
X643247Y4227628D1*
X652906D1*
X662677Y4222687D1*
X677164Y4213028D1*
X725794Y4164399D1*
X725793Y4232457D1*
X648077Y4268771D2*
X643247D1*
X633477Y4273601D1*
X628647Y4278430D1*
X623818Y4288201D1*
Y4307630D1*
X628647Y4317288D1*
X633477Y4322117D1*
X643247Y4327059D1*
X652906D1*
X662677Y4322117D1*
X677164Y4312459D1*
X725793Y4263830D1*
Y4331888D1*
X-2902536Y2474773D2*
X-2912194Y2469944D1*
X-2921965Y2460173D1*
X-2926794Y2450515D1*
Y2431085D1*
X-2921965Y2421315D1*
X-2912194Y2411656D1*
X-2902536Y2406715D1*
X-2887936Y2401885D1*
X-2863565D1*
X-2849077Y2406715D1*
X-2839307Y2411656D1*
X-2829648Y2421315D1*
X-2824706Y2431085D1*
Y2450515D1*
X-2829648Y2460173D1*
X-2839306Y2469944D1*
X-2849077Y2474773D1*
X-2902423Y2511087D2*
X-2907253D1*
X-2917023Y2515916D1*
X-2921853Y2520746D1*
X-2926682Y2530516D1*
Y2549946D1*
X-2921853Y2559604D1*
X-2917023Y2564433D1*
X-2907253Y2569375D1*
X-2897594D1*
X-2887823Y2564433D1*
X-2873336Y2554775D1*
X-2824706Y2506145D1*
X-2824707Y2574204D1*
X-2926682Y2615347D2*
Y2668693D1*
X-2887823Y2639606D1*
Y2654206D1*
X-2882994Y2663864D1*
X-2878165Y2668693D1*
X-2863565Y2673635D1*
X-2853907D1*
X-2839307Y2668693D1*
X-2829536Y2659035D1*
X-2824707Y2644435D1*
Y2629835D1*
X-2829536Y2615347D1*
X-2834477Y2610518D1*
X-2844136Y2605576D1*
X202486Y6442758D2*
X192828Y6437929D1*
X183057Y6428159D1*
X178227Y6418500D1*
Y6399071D1*
X183057Y6389300D1*
X192827Y6379642D1*
X202486Y6374700D1*
X217086Y6369871D1*
X241457D1*
X255944Y6374700D1*
X265715Y6379642D1*
X275374Y6389300D1*
X280315Y6399071D1*
Y6418500D1*
X275374Y6428158D1*
X265715Y6437929D1*
X255944Y6442758D1*
X202598Y6479072D2*
X197769D1*
X187998Y6483902D1*
X183169Y6488731D1*
X178340Y6498502D1*
Y6517931D1*
X183169Y6527589D1*
X187998Y6532419D1*
X197769Y6537360D1*
X207428D1*
X217198Y6532419D1*
X231686Y6522760D1*
X280315Y6474131D1*
Y6542189D1*
Y6622191D2*
X178340D1*
X246286Y6573562D1*
Y6646449D1*
X-895261Y6488550D2*
X-904919Y6483721D1*
X-914690Y6473950D1*
X-919519Y6464291D1*
Y6444862D1*
X-914690Y6435091D1*
X-904919Y6425433D1*
X-895261Y6420491D1*
X-880661Y6415662D1*
X-856290D1*
X-841802Y6420491D1*
X-832032Y6425433D1*
X-822373Y6435091D1*
X-817431Y6444862D1*
Y6464291D1*
X-822373Y6473950D1*
X-832031Y6483720D1*
X-841802Y6488550D1*
X-895148Y6524864D2*
X-899978D1*
X-909748Y6529693D1*
X-914578Y6534522D1*
X-919407Y6544293D1*
Y6563722D1*
X-914578Y6573381D1*
X-909748Y6578210D1*
X-899978Y6583151D1*
X-890319D1*
X-880548Y6578210D1*
X-866061Y6568551D1*
X-817431Y6519922D1*
X-817432Y6587981D1*
X-919407Y6677641D2*
Y6629124D1*
X-875719Y6624295D1*
X-880548Y6629124D1*
X-885490Y6643724D1*
Y6658212D1*
X-880548Y6672812D1*
X-870890Y6682582D1*
X-856290Y6687412D1*
X-846632D1*
X-832032Y6682582D1*
X-822261Y6672812D1*
X-817432Y6658212D1*
Y6643724D1*
X-822261Y6629124D1*
X-827202Y6624295D1*
X-836861Y6619353D1*
X-3975186Y1137131D2*
X-3984844Y1132301D1*
X-3994615Y1122531D1*
X-3999444Y1112872D1*
Y1093443D1*
X-3994615Y1083672D1*
X-3984844Y1074014D1*
X-3975186Y1069072D1*
X-3960586Y1064243D1*
X-3936215D1*
X-3921727Y1069072D1*
X-3911957Y1074014D1*
X-3902298Y1083672D1*
X-3897356Y1093443D1*
Y1112872D1*
X-3902298Y1122530D1*
X-3911956Y1132301D1*
X-3921727Y1137130D1*
X-3975073Y1173445D2*
X-3979903D1*
X-3989673Y1178274D1*
X-3994503Y1183103D1*
X-3999332Y1192874D1*
Y1212303D1*
X-3994503Y1221961D1*
X-3989673Y1226791D1*
X-3979903Y1231732D1*
X-3970244D1*
X-3960473Y1226791D1*
X-3945986Y1217132D1*
X-3897356Y1168503D1*
X-3897357Y1236561D1*
X-3984844Y1326222D2*
X-3994503Y1321392D1*
X-3999332Y1306792D1*
Y1297134D1*
X-3994503Y1282534D1*
X-3979903Y1272763D1*
X-3955644Y1267934D1*
X-3931386D1*
X-3911957Y1272763D1*
X-3902186Y1282534D1*
X-3897357Y1297134D1*
Y1301963D1*
X-3902186Y1316451D1*
X-3911957Y1326222D1*
X-3926557Y1331051D1*
X-3931386D1*
X-3945986Y1326222D1*
X-3955644Y1316451D1*
X-3960473Y1301963D1*
Y1297134D1*
X-3955644Y1282534D1*
X-3945986Y1272763D1*
X-3931386Y1267934D1*
X-2634326Y1108990D2*
X-2643984Y1104161D1*
X-2653755Y1094390D1*
X-2658584Y1084731D1*
Y1065302D1*
X-2653755Y1055531D1*
X-2643984Y1045873D1*
X-2634326Y1040931D1*
X-2619726Y1036102D1*
X-2595355D1*
X-2580867Y1040931D1*
X-2571097Y1045873D1*
X-2561438Y1055531D1*
X-2556496Y1065302D1*
Y1084731D1*
X-2561438Y1094390D1*
X-2571096Y1104160D1*
X-2580867Y1108990D1*
X-2634213Y1145304D2*
X-2639043D1*
X-2648813Y1150133D1*
X-2653643Y1154962D1*
X-2658472Y1164733D1*
Y1184162D1*
X-2653643Y1193821D1*
X-2648813Y1198650D1*
X-2639043Y1203591D1*
X-2629384D1*
X-2619613Y1198650D1*
X-2605126Y1188991D1*
X-2556496Y1140362D1*
X-2556497Y1208421D1*
Y1259222D2*
X-2658472Y1307852D1*
Y1239793D1*
X614371Y6470473D2*
X604713Y6465643D1*
X594942Y6455873D1*
X590112Y6446214D1*
Y6426785D1*
X594942Y6417014D1*
X604712Y6407356D1*
X614371Y6402414D1*
X628971Y6397585D1*
X653342D1*
X667829Y6402414D1*
X677600Y6407356D1*
X687259Y6417014D1*
X692200Y6426785D1*
Y6446214D1*
X687259Y6455872D1*
X677600Y6465643D1*
X667829Y6470472D1*
X614483Y6506787D2*
X609654D1*
X599883Y6511616D1*
X595054Y6516445D1*
X590225Y6526216D1*
Y6545645D1*
X595054Y6555303D1*
X599883Y6560133D1*
X609654Y6565074D1*
X619313D1*
X629083Y6560133D1*
X643571Y6550474D1*
X692200Y6501845D1*
Y6569903D1*
X590225Y6625534D2*
X595054Y6611047D1*
X604713Y6606105D1*
X614483D1*
X624142Y6611047D1*
X629083Y6620705D1*
X633912Y6640134D1*
X638742Y6654734D1*
X648512Y6664393D1*
X658171Y6669222D1*
X672771D1*
X682429Y6664393D1*
X687371Y6659564D1*
X692200Y6644964D1*
Y6625534D1*
X687371Y6611047D1*
X682429Y6606105D1*
X672771Y6601276D1*
X658171D1*
X648512Y6606105D1*
X638742Y6615876D1*
X633912Y6630364D1*
X629083Y6649793D1*
X624142Y6659564D1*
X614483Y6664393D1*
X604713D1*
X595054Y6659564D1*
X590225Y6644964D1*
Y6625534D1*
X386244Y1024008D2*
X376586Y1019178D1*
X366815Y1009408D1*
X361986Y999749D1*
Y980320D1*
X366815Y970549D1*
X376586Y960891D1*
X386244Y955949D1*
X400844Y951120D1*
X425215D1*
X439703Y955949D1*
X449473Y960891D1*
X459132Y970549D1*
X464074Y980320D1*
Y999749D1*
X459132Y1009408D1*
X449474Y1019178D1*
X439703Y1024008D1*
X386357Y1060322D2*
X381527D1*
X371757Y1065151D1*
X366927Y1069980D1*
X362098Y1079751D1*
Y1099180D1*
X366927Y1108839D1*
X371757Y1113668D1*
X381527Y1118609D1*
X391186D1*
X400957Y1113668D1*
X415444Y1104009D1*
X464074Y1055380D1*
X464073Y1123438D1*
X396015Y1218040D2*
X410615Y1213099D1*
X420386Y1203440D1*
X425215Y1188840D1*
Y1184011D1*
X420386Y1169411D1*
X410615Y1159753D1*
X396015Y1154811D1*
X391186D1*
X376586Y1159753D1*
X366927Y1169411D1*
X362098Y1184011D1*
Y1188840D1*
X366927Y1203440D1*
X376586Y1213099D1*
X396015Y1218040D1*
X420386D1*
X444644Y1213099D1*
X459244Y1203440D1*
X464073Y1188840D1*
Y1179182D1*
X459244Y1164582D1*
X449473Y1159753D1*
X-2170273Y2955088D2*
X-2068185D1*
X-2170272Y3023146D2*
X-2068185D1*
X-2121643Y2955088D2*
Y3023146D1*
X-2107043Y3054519D2*
Y3112806D1*
X-2116814D1*
X-2126585Y3107977D1*
X-2131414Y3103148D1*
X-2136243Y3093377D1*
Y3078777D1*
X-2131414Y3069119D1*
X-2121643Y3059348D1*
X-2107043Y3054519D1*
X-2097385D1*
X-2082785Y3059348D1*
X-2073126Y3069119D1*
X-2068185Y3078777D1*
Y3093377D1*
X-2073126Y3103148D1*
X-2082785Y3112806D1*
X-2136243Y3202466D2*
X-2068185D1*
X-2121643D2*
X-2131414Y3192808D1*
X-2136243Y3183037D1*
Y3168550D1*
X-2131414Y3158779D1*
X-2121643Y3149120D1*
X-2107043Y3144179D1*
X-2097385D1*
X-2082785Y3149120D1*
X-2073126Y3158779D1*
X-2068185Y3168550D1*
Y3183037D1*
X-2073126Y3192808D1*
X-2082785Y3202466D1*
X-2136243Y3233839D2*
X-2068185D1*
X-2107043D2*
X-2121643Y3238781D1*
X-2131414Y3248439D1*
X-2136243Y3258210D1*
Y3272810D1*
X-2170273Y3318782D2*
X-2087614D1*
X-2073126Y3323612D1*
X-2068185Y3333382D1*
Y3343041D1*
X-2136243Y3304182D2*
Y3338212D1*
X-2170273Y3374413D2*
X-2068185D1*
X-2121643D2*
X-2131414Y3384184D1*
X-2136243Y3393843D1*
Y3408443D1*
X-2131414Y3418101D1*
X-2121643Y3427872D1*
X-2107043Y3432701D1*
X-2097385D1*
X-2082785Y3427872D1*
X-2073126Y3418101D1*
X-2068185Y3408443D1*
Y3393843D1*
X-2073126Y3384184D1*
X-2082785Y3374413D1*
X-2107043Y3464074D2*
Y3522361D1*
X-2116814D1*
X-2126585Y3517532D1*
X-2131414Y3512703D1*
X-2136243Y3502932D1*
Y3488332D1*
X-2131414Y3478674D1*
X-2121643Y3468903D1*
X-2107043Y3464074D1*
X-2097385D1*
X-2082785Y3468903D1*
X-2073126Y3478674D1*
X-2068185Y3488332D1*
Y3502932D1*
X-2073126Y3512703D1*
X-2082785Y3522361D1*
X-2136243Y3612022D2*
X-2068185Y3612021D1*
X-2121643D2*
X-2131414Y3602363D1*
X-2136243Y3592592D1*
Y3578105D1*
X-2131414Y3568334D1*
X-2121643Y3558675D1*
X-2107043Y3553734D1*
X-2097385D1*
X-2082785Y3558675D1*
X-2073126Y3568334D1*
X-2068185Y3578105D1*
Y3592592D1*
X-2073126Y3602363D1*
X-2082785Y3612021D1*
X-2170273Y3657994D2*
X-2087614D1*
X-2073126Y3662823D1*
X-2068185Y3672594D1*
Y3682253D1*
X-2136243Y3643394D2*
Y3677423D1*
X-2846066Y6188954D2*
Y6086867D1*
X-2809752Y6164584D2*
Y6169413D1*
X-2804922Y6179184D1*
X-2800093Y6184013D1*
X-2790322Y6188842D1*
X-2770893D1*
X-2761235Y6184013D1*
X-2756405Y6179184D1*
X-2751464Y6169413D1*
Y6159754D1*
X-2756405Y6149984D1*
X-2766064Y6135496D1*
X-2814693Y6086867D1*
X-2746635D1*
X-2642374Y6164696D2*
X-2647204Y6174354D1*
X-2656974Y6184125D1*
X-2666633Y6188954D1*
X-2686062D1*
X-2695833Y6184125D1*
X-2705491Y6174354D1*
X-2710433Y6164696D1*
X-2715262Y6150096D1*
Y6125725D1*
X-2710433Y6111237D1*
X-2705491Y6101467D1*
X-2695833Y6091808D1*
X-2686062Y6086867D1*
X-2666633D1*
X-2656974Y6091808D1*
X-2647204Y6101467D1*
X-2642374Y6111237D1*
X958409Y485218D2*
X968179Y490159D1*
X982779Y504647D1*
Y402672D1*
X1014152Y470730D2*
X1067610Y402672D1*
Y470730D2*
X1014152Y402672D1*
X1103925Y480389D2*
Y485218D1*
X1108754Y494989D1*
X1113583Y499818D1*
X1123354Y504647D1*
X1142783D1*
X1152441Y499818D1*
X1157271Y494989D1*
X1162212Y485218D1*
Y475559D1*
X1157271Y465789D1*
X1147612Y451301D1*
X1098983Y402672D1*
X1167041D1*
X1297171Y504759D2*
X1336030Y402672D1*
X1374888Y504759D1*
X1406261Y441530D2*
X1464548D1*
Y451301D1*
X1459719Y461072D1*
X1454890Y465901D1*
X1445119Y470730D1*
X1430519D1*
X1420861Y465901D1*
X1411090Y456130D1*
X1406261Y441530D1*
Y431872D1*
X1411090Y417272D1*
X1420861Y407613D1*
X1430519Y402672D1*
X1445119D1*
X1454890Y407613D1*
X1464548Y417272D1*
X1495921Y470730D2*
Y402672D1*
Y441530D2*
X1500862Y456130D1*
X1510521Y465901D1*
X1520292Y470730D1*
X1534892D1*
X1580864Y504759D2*
Y422101D1*
X1585693Y407613D1*
X1595464Y402672D1*
X1605123D1*
X1566264Y470730D2*
X1600293D1*
X1636495Y504759D2*
X1641324Y499930D1*
X1646266Y504759D1*
X1641324Y509701D1*
X1636495Y504759D1*
X1641324Y470730D2*
Y402672D1*
X1736039Y456130D2*
X1726268Y465901D1*
X1716497Y470730D1*
X1702009D1*
X1692239Y465901D1*
X1682580Y456130D1*
X1677639Y441530D1*
Y431872D1*
X1682580Y417272D1*
X1692239Y407613D1*
X1702009Y402672D1*
X1716497D1*
X1726268Y407613D1*
X1736039Y417272D1*
X1825699Y470730D2*
Y402672D1*
Y456130D2*
X1816040Y465901D1*
X1806270Y470730D1*
X1791782D1*
X1782011Y465901D1*
X1772353Y456130D1*
X1767411Y441530D1*
Y431872D1*
X1772353Y417272D1*
X1782011Y407613D1*
X1791782Y402672D1*
X1806270D1*
X1816040Y407613D1*
X1825699Y417272D1*
X1857071Y504759D2*
Y402672D1*
X-1173148Y7901309D2*
Y7823592D1*
X-1177977Y7808992D1*
X-1182918Y7804163D1*
X-1192577Y7799222D1*
X-1202348D1*
X-1212006Y7804163D1*
X-1216835Y7808992D1*
X-1221777Y7823592D1*
Y7833251D1*
X-1136833Y7876939D2*
Y7881768D1*
X-1132004Y7891539D1*
X-1127175Y7896368D1*
X-1117404Y7901197D1*
X-1097975D1*
X-1088317Y7896368D1*
X-1083487Y7891539D1*
X-1078546Y7881768D1*
Y7872109D1*
X-1083487Y7862339D1*
X-1093146Y7847851D1*
X-1141775Y7799222D1*
X-1073717D1*
X-5618004Y3909721D2*
X-5622946Y3919492D1*
X-5637434Y3934092D1*
X-5535458D1*
X-5603517Y3965464D2*
X-5535458Y4018923D1*
X-5603517D2*
X-5535458Y3965464D1*
Y4098924D2*
X-5637433D1*
X-5569487Y4050295D1*
Y4123183D1*
X-5637546Y4253313D2*
X-5535458Y4292171D1*
X-5637546Y4331029D1*
X-5574317Y4362402D2*
Y4420690D1*
X-5584087D1*
X-5593858Y4415860D1*
X-5598687Y4411031D1*
X-5603517Y4401260D1*
Y4386660D1*
X-5598687Y4377002D1*
X-5588917Y4367231D1*
X-5574317Y4362402D1*
X-5564658D1*
X-5550058Y4367231D1*
X-5540400Y4377002D1*
X-5535458Y4386660D1*
Y4401260D1*
X-5540400Y4411031D1*
X-5550058Y4420690D1*
X-5603517Y4452062D2*
X-5535458D1*
X-5574317D2*
X-5588917Y4457004D1*
X-5598687Y4466662D1*
X-5603517Y4476433D1*
Y4491033D1*
X-5637546Y4537006D2*
X-5554887Y4537005D1*
X-5540400Y4541835D1*
X-5535458Y4551605D1*
Y4561264D1*
X-5603517Y4522406D2*
Y4556435D1*
X-5637546Y4592637D2*
X-5632717Y4597466D1*
X-5637546Y4602407D1*
X-5642487Y4597466D1*
X-5637546Y4592637D1*
X-5603517Y4597466D2*
X-5535458D1*
X-5588917Y4692180D2*
X-5598687Y4682409D1*
X-5603517Y4672638D1*
Y4658151D1*
X-5598687Y4648380D1*
X-5588917Y4638721D1*
X-5574317Y4633780D1*
X-5564658D1*
X-5550058Y4638721D1*
X-5540400Y4648380D1*
X-5535458Y4658151D1*
Y4672638D1*
X-5540400Y4682409D1*
X-5550058Y4692180D1*
X-5603517Y4781840D2*
X-5535458D1*
X-5588917D2*
X-5598687Y4772182D1*
X-5603517Y4762411D1*
Y4747923D1*
X-5598687Y4738152D1*
X-5588917Y4728494D1*
X-5574317Y4723552D1*
X-5564658D1*
X-5550058Y4728494D1*
X-5540400Y4738152D1*
X-5535458Y4747923D1*
Y4762411D1*
X-5540400Y4772182D1*
X-5550058Y4781840D1*
X-5637546Y4813213D2*
X-5535458D1*
X-5586254Y1260094D2*
X-5591196Y1269865D1*
X-5605684Y1284465D1*
X-5503708D1*
X-5571767Y1315838D2*
X-5503708Y1369296D1*
X-5571767D2*
X-5503708Y1315837D1*
Y1449298D2*
X-5605683D1*
X-5537737Y1400668D1*
Y1473556D1*
X-5605796Y1603686D2*
X-5503708Y1642544D1*
X-5605796Y1681403D1*
X-5542567Y1712775D2*
Y1771063D1*
X-5552337D1*
X-5562108Y1766234D1*
X-5566937Y1761405D1*
X-5571767Y1751634D1*
Y1737034D1*
X-5566937Y1727375D1*
X-5557167Y1717605D1*
X-5542567Y1712775D1*
X-5532908D1*
X-5518308Y1717604D1*
X-5508650Y1727375D1*
X-5503708Y1737034D1*
Y1751634D1*
X-5508650Y1761404D1*
X-5518308Y1771063D1*
X-5571767Y1802436D2*
X-5503708D1*
X-5542567D2*
X-5557167Y1807377D1*
X-5566937Y1817036D1*
X-5571767Y1826806D1*
Y1841406D1*
X-5605796Y1887379D2*
X-5523137D1*
X-5508650Y1892208D1*
X-5503708Y1901979D1*
Y1911637D1*
X-5571767Y1872779D2*
Y1906808D1*
X-5605796Y1943010D2*
X-5600967Y1947839D1*
X-5605796Y1952781D1*
X-5610737Y1947839D1*
X-5605796Y1943010D1*
X-5571767Y1947839D2*
X-5503708D1*
X-5557167Y2042553D2*
X-5566937Y2032782D1*
X-5571767Y2023012D1*
Y2008524D1*
X-5566937Y1998753D1*
X-5557167Y1989095D1*
X-5542567Y1984153D1*
X-5532908D1*
X-5518308Y1989095D1*
X-5508650Y1998753D1*
X-5503708Y2008524D1*
Y2023012D1*
X-5508650Y2032782D1*
X-5518308Y2042553D1*
X-5571767Y2132213D2*
X-5503708D1*
X-5557167D2*
X-5566937Y2122555D1*
X-5571767Y2112784D1*
Y2098296D1*
X-5566937Y2088526D1*
X-5557167Y2078867D1*
X-5542567Y2073926D1*
X-5532908D1*
X-5518308Y2078867D1*
X-5508650Y2088526D1*
X-5503708Y2098296D1*
Y2112784D1*
X-5508650Y2122555D1*
X-5518308Y2132213D1*
X-5605796Y2163586D2*
X-5503708D1*
X-2727791Y7402379D2*
X-2732733Y7412150D1*
X-2747220Y7426750D1*
X-2645245D1*
X-2713303Y7458122D2*
X-2645245Y7511580D1*
X-2713303Y7511581D2*
X-2645245Y7458122D1*
X-2747220Y7552724D2*
Y7606070D1*
X-2708362Y7576982D1*
Y7591582D1*
X-2703532Y7601241D1*
X-2698703Y7606070D1*
X-2684103Y7611012D1*
X-2674445Y7611011D1*
X-2659845Y7606070D1*
X-2650074Y7596411D1*
X-2645245Y7581811D1*
Y7567211D1*
X-2650074Y7552724D1*
X-2655016Y7547895D1*
X-2664674Y7542953D1*
X-2747333Y7741141D2*
X-2645245Y7780000D1*
X-2747333Y7818858D1*
X-2684103Y7850231D2*
Y7908518D1*
X-2693874D1*
X-2703645Y7903689D1*
X-2708474Y7898860D1*
X-2713303Y7889089D1*
Y7874489D1*
X-2708474Y7864831D1*
X-2698703Y7855060D1*
X-2684103Y7850231D1*
X-2674445D1*
X-2659845Y7855060D1*
X-2650186Y7864831D1*
X-2645245Y7874489D1*
Y7889089D1*
X-2650186Y7898860D1*
X-2659845Y7908518D1*
X-2713303Y7939891D2*
X-2645245D1*
X-2684103D2*
X-2698703Y7944832D1*
X-2708474Y7954491D1*
X-2713303Y7964262D1*
Y7978862D1*
X-2747333Y8024834D2*
X-2664674D1*
X-2650186Y8029663D1*
X-2645245Y8039434D1*
Y8049093D1*
X-2713303Y8010234D2*
Y8044263D1*
X-2747333Y8080465D2*
X-2742503Y8085294D1*
X-2747333Y8090236D1*
X-2752274Y8085294D1*
X-2747333Y8080465D1*
X-2713303Y8085294D2*
X-2645245D1*
X-2698703Y8180009D2*
X-2708474Y8170238D1*
X-2713303Y8160467D1*
Y8145979D1*
X-2708474Y8136209D1*
X-2698703Y8126550D1*
X-2684103Y8121609D1*
X-2674445D1*
X-2659845Y8126550D1*
X-2650186Y8136209D1*
X-2645245Y8145979D1*
Y8160467D1*
X-2650186Y8170238D1*
X-2659845Y8180009D1*
X-2713303Y8269669D2*
X-2645245D1*
X-2698703D2*
X-2708474Y8260010D1*
X-2713303Y8250240D1*
Y8235752D1*
X-2708474Y8225981D1*
X-2698703Y8216323D1*
X-2684103Y8211381D1*
X-2674445D1*
X-2659845Y8216323D1*
X-2650186Y8225981D1*
X-2645245Y8235752D1*
Y8250240D1*
X-2650186Y8260010D1*
X-2659845Y8269669D1*
X-2747333Y8301041D2*
X-2645245D1*
X-4406853Y5563124D2*
X-4329136Y5563123D1*
X-4314536Y5558294D1*
X-4309706Y5553353D1*
X-4304765Y5543694D1*
Y5533923D1*
X-4309706Y5524265D1*
X-4314536Y5519436D1*
X-4329136Y5514494D1*
X-4338794D1*
X-4392252Y5652784D2*
X-4401911Y5647954D1*
X-4406740Y5633354D1*
Y5623696D1*
X-4401911Y5609096D1*
X-4387311Y5599325D1*
X-4363052Y5594496D1*
X-4338794D1*
X-4319365Y5599325D1*
X-4309594Y5609096D1*
X-4304765Y5623696D1*
Y5628525D1*
X-4309594Y5643013D1*
X-4319365Y5652783D1*
X-4333965Y5657613D1*
X-4338794D1*
X-4353394Y5652784D1*
X-4363052Y5643013D1*
X-4367882Y5628525D1*
Y5623696D1*
X-4363052Y5609096D1*
X-4353394Y5599325D1*
X-4338794Y5594496D1*
X-120201Y2611959D2*
Y2534242D1*
X-125031Y2519642D1*
X-129972Y2514813D1*
X-139631Y2509872D1*
X-149401D1*
X-159060Y2514813D1*
X-163889Y2519642D1*
X-168831Y2534242D1*
Y2543901D1*
X-64570Y2611847D2*
X-79058Y2607018D1*
X-84000Y2597359D1*
Y2587589D1*
X-79058Y2577930D1*
X-69400Y2572989D1*
X-49970Y2568159D1*
X-35370Y2563330D1*
X-25712Y2553559D1*
X-20883Y2543901D1*
Y2529301D1*
X-25712Y2519642D1*
X-30541Y2514701D1*
X-45141Y2509872D1*
X-64570D1*
X-79058Y2514701D1*
X-84000Y2519642D1*
X-88829Y2529301D1*
Y2543901D1*
X-84000Y2553559D1*
X-74229Y2563330D1*
X-59741Y2568159D1*
X-40312Y2572989D1*
X-30541Y2577930D1*
X-25712Y2587589D1*
Y2597359D1*
X-30541Y2607018D1*
X-45141Y2611847D1*
X-64570D1*
X-6250355Y5722134D2*
X-6240584Y5727076D1*
X-6225984Y5741564D1*
Y5639588D1*
X-6194611Y5707647D2*
X-6141153Y5639588D1*
Y5707647D2*
X-6194611Y5639588D1*
X-6100010Y5741564D2*
X-6046663D1*
X-6075751Y5702705D1*
X-6061151D1*
X-6051493Y5697876D1*
X-6046663Y5693047D1*
X-6041722Y5678447D1*
Y5668788D1*
X-6046663Y5654188D1*
X-6056322Y5644417D1*
X-6070922Y5639588D1*
X-6085522D1*
X-6100010Y5644417D1*
X-6104839Y5649359D1*
X-6109780Y5659017D1*
X-5911592Y5741676D2*
X-5872734Y5639588D1*
X-5833875Y5741676D1*
X-5802503Y5678447D2*
X-5744215D1*
Y5688217D1*
X-5749044Y5697988D1*
X-5753873Y5702817D1*
X-5763644Y5707647D1*
X-5778244D1*
X-5787903Y5702817D1*
X-5797673Y5693047D1*
X-5802503Y5678447D1*
Y5668788D1*
X-5797673Y5654188D1*
X-5787903Y5644530D1*
X-5778244Y5639588D1*
X-5763644D1*
X-5753873Y5644530D1*
X-5744215Y5654188D1*
X-5712842Y5707647D2*
Y5639588D1*
Y5678447D2*
X-5707901Y5693047D1*
X-5698242Y5702817D1*
X-5688472Y5707647D1*
X-5673872D1*
X-5627899Y5741676D2*
Y5659017D1*
X-5623070Y5644530D1*
X-5613299Y5639588D1*
X-5603641D1*
X-5642499Y5707647D2*
X-5608470D1*
X-5572268Y5741676D2*
X-5567439Y5736847D1*
X-5562497Y5741676D1*
X-5567439Y5746617D1*
X-5572268Y5741676D1*
X-5567439Y5707647D2*
Y5639588D1*
X-5472725Y5693047D2*
X-5482496Y5702817D1*
X-5492266Y5707647D1*
X-5506754D1*
X-5516525Y5702817D1*
X-5526183Y5693047D1*
X-5531125Y5678447D1*
Y5668788D1*
X-5526183Y5654188D1*
X-5516525Y5644530D1*
X-5506754Y5639588D1*
X-5492266D1*
X-5482496Y5644530D1*
X-5472725Y5654188D1*
X-5383065Y5707647D2*
Y5639588D1*
Y5693047D2*
X-5392723Y5702817D1*
X-5402494Y5707647D1*
X-5416981D1*
X-5426752Y5702817D1*
X-5436411Y5693047D1*
X-5441352Y5678447D1*
Y5668788D1*
X-5436411Y5654188D1*
X-5426752Y5644530D1*
X-5416981Y5639588D1*
X-5402494D1*
X-5392723Y5644530D1*
X-5383065Y5654188D1*
X-5351692Y5741676D2*
Y5639588D1*
X-3747406Y7821821D2*
X-3645318D1*
Y7880109D1*
X-3727864Y7911482D2*
X-3732806Y7921252D1*
X-3747293Y7935852D1*
X-3645318D1*
X-3927653Y8064228D2*
X-3825565D1*
Y8122515D1*
X-3903282Y8158829D2*
X-3908111D1*
X-3917882Y8163659D1*
X-3922711Y8168488D1*
X-3927540Y8178259D1*
Y8197688D1*
X-3922711Y8207346D1*
X-3917882Y8212175D1*
X-3908111Y8217117D1*
X-3898452D1*
X-3888682Y8212175D1*
X-3874194Y8202517D1*
X-3825565Y8153888D1*
Y8221946D1*
X-3903244Y3679971D2*
X-3801157D1*
X-3801156Y3738258D1*
X-3903132Y3779402D2*
Y3832748D1*
X-3864273Y3803660D1*
Y3818260D1*
X-3859444Y3827919D1*
X-3854615Y3832748D1*
X-3840015Y3837689D1*
X-3830356D1*
X-3815756Y3832748D1*
X-3805986Y3823089D1*
X-3801157Y3808489D1*
X-3801156Y3793889D1*
X-3805986Y3779402D1*
X-3810927Y3774572D1*
X-3820586Y3769631D1*
X-3903258Y3966436D2*
X-3801170D1*
Y4024724D1*
Y4104726D2*
X-3903145D1*
X-3835199Y4056096D1*
Y4128984D1*
X-3911748Y1681354D2*
X-3809660D1*
Y1739642D1*
X-3911635Y1829302D2*
Y1780785D1*
X-3867947Y1775956D1*
X-3872777Y1780785D1*
X-3877718Y1795385D1*
Y1809873D1*
X-3872777Y1824473D1*
X-3863118Y1834244D1*
X-3848518Y1839073D1*
X-3838860D1*
X-3824260Y1834243D1*
X-3814489Y1824473D1*
X-3809660Y1809873D1*
Y1795385D1*
X-3814489Y1780785D1*
X-3819431Y1775956D1*
X-3829089Y1771014D1*
X-3895874Y2042068D2*
X-3793787D1*
X-3793786Y2100356D1*
X-3881274Y2190016D2*
X-3890933Y2185187D1*
X-3895762Y2170587D1*
Y2160929D1*
X-3890933Y2146329D1*
X-3876333Y2136558D1*
X-3852074Y2131729D1*
X-3827816Y2131728D1*
X-3808386Y2136558D1*
X-3798616Y2146328D1*
X-3793787Y2160928D1*
Y2165758D1*
X-3798616Y2180245D1*
X-3808386Y2190016D1*
X-3822986Y2194845D1*
X-3827816D1*
X-3842416Y2190016D1*
X-3852074Y2180245D1*
X-3856903Y2165758D1*
Y2160928D1*
X-3852074Y2146328D1*
X-3842416Y2136558D1*
X-3827816Y2131728D1*
X-4769074Y5821931D2*
X-4666987D1*
X-4666986Y5880218D1*
Y5931020D2*
X-4768962Y5979649D1*
Y5911591D1*
X-4796448Y6143864D2*
X-4694360D1*
Y6202151D1*
X-4796335Y6257782D2*
X-4791506Y6243295D1*
X-4781847Y6238353D1*
X-4772077D1*
X-4762418Y6243295D1*
X-4757477Y6252953D1*
X-4752647Y6272382D1*
X-4747818Y6286982D1*
X-4738047Y6296641D1*
X-4728389Y6301470D1*
X-4713789D1*
X-4704131Y6296641D1*
X-4699189Y6291811D1*
X-4694360Y6277211D1*
Y6257782D1*
X-4699189Y6243295D1*
X-4704131Y6238353D1*
X-4713789Y6233524D1*
X-4728389D1*
X-4738047Y6238353D1*
X-4747818Y6248124D1*
X-4752647Y6262612D1*
X-4757477Y6282041D1*
X-4762418Y6291812D1*
X-4772077Y6296641D1*
X-4781847D1*
X-4791506Y6291812D1*
X-4796335Y6277212D1*
Y6257782D1*
X-1260956Y5547217D2*
X-1158868D1*
Y5605505D1*
X-1260956Y5699994D2*
Y5636878D1*
X-1158868Y5636877D1*
Y5699994D1*
X-1212327Y5636877D2*
Y5675736D1*
X-1260956Y5731367D2*
X-1158868D1*
Y5765396D1*
X-1163810Y5779996D1*
X-1173468Y5789767D1*
X-1183239Y5794596D1*
X-1197727Y5799425D1*
X-1222097D1*
X-1236697Y5794596D1*
X-1246356Y5789767D1*
X-1256127Y5779996D1*
X-1260956Y5765396D1*
Y5731367D1*
X-1158868Y5850227D2*
X-1260844Y5898856D1*
Y5830798D1*
X781676Y2958354D2*
X883763D1*
X883764Y3016641D1*
X781676Y3111131D2*
Y3048014D1*
X883764D1*
X883763Y3111130D1*
X830305Y3048014D2*
Y3086872D1*
X781676Y3142503D2*
X883763D1*
Y3176532D1*
X878822Y3191132D1*
X869163Y3200903D1*
X859393Y3205732D1*
X844905Y3210561D1*
X820534D1*
X805934Y3205732D1*
X796276Y3200903D1*
X786505Y3191132D1*
X781676Y3176532D1*
Y3142503D1*
X781788Y3266192D2*
X786617Y3251705D1*
X796276Y3246763D1*
X806047D1*
X815705Y3251705D1*
X820647Y3261363D1*
X825476Y3280792D1*
X830305Y3295392D1*
X840076Y3305051D1*
X849734Y3309880D1*
X864334D1*
X873993Y3305051D1*
X878934Y3300222D1*
X883763Y3285622D1*
Y3266192D1*
X878934Y3251705D1*
X873993Y3246763D1*
X864334Y3241934D1*
X849734D1*
X840076Y3246763D1*
X830305Y3256534D1*
X825476Y3271022D1*
X820647Y3290451D1*
X815705Y3300222D1*
X806047Y3305051D1*
X796276D1*
X786617Y3300222D1*
X781788Y3285622D1*
Y3266192D1*
X223146Y7160919D2*
X218204Y7170690D1*
X203716Y7185290D1*
X305692D1*
X237633Y7216662D2*
X305692Y7270120D1*
X237633Y7270121D2*
X305692Y7216662D1*
X227975Y7306435D2*
X223146D1*
X213375Y7311264D1*
X208546Y7316093D1*
X203717Y7325864D1*
Y7345293D1*
X208546Y7354952D1*
X213375Y7359781D1*
X223146Y7364722D1*
X232804D1*
X242575Y7359781D1*
X257063Y7350122D1*
X305692Y7301493D1*
Y7369551D1*
X203604Y7499681D2*
X305692Y7538540D1*
X203604Y7577398D1*
X266833Y7608771D2*
Y7667058D1*
X257063D1*
X247292Y7662229D1*
X242463Y7657400D1*
X237633Y7647629D1*
Y7633029D1*
X242463Y7623371D1*
X252233Y7613600D1*
X266833Y7608771D1*
X276492D1*
X291092Y7613600D1*
X300750Y7623371D1*
X305692Y7633029D1*
Y7647629D1*
X300750Y7657400D1*
X291092Y7667058D1*
X237633Y7698431D2*
X305692D1*
X266833D2*
X252233Y7703372D1*
X242463Y7713031D1*
X237633Y7722802D1*
Y7737402D1*
X203604Y7783374D2*
X286263D1*
X300750Y7788203D1*
X305692Y7797974D1*
Y7807633D1*
X237633Y7768774D2*
Y7802803D1*
X203604Y7839005D2*
X208433Y7843834D1*
X203604Y7848776D1*
X198663Y7843834D1*
X203604Y7839005D1*
X237633Y7843834D2*
X305692D1*
X252233Y7938549D2*
X242463Y7928778D1*
X237633Y7919007D1*
Y7904519D1*
X242463Y7894749D1*
X252233Y7885090D1*
X266833Y7880149D1*
X276492D1*
X291092Y7885090D1*
X300750Y7894749D1*
X305692Y7904519D1*
Y7919007D1*
X300750Y7928778D1*
X291092Y7938549D1*
X237633Y8028209D2*
X305692D1*
X252233D2*
X242463Y8018550D1*
X237633Y8008780D1*
Y7994292D1*
X242463Y7984521D1*
X252233Y7974863D1*
X266833Y7969921D1*
X276492D1*
X291092Y7974863D1*
X300750Y7984521D1*
X305692Y7994292D1*
Y8008780D1*
X300750Y8018550D1*
X291092Y8028209D1*
X203604Y8059581D2*
X305692D1*
X-929923Y2993439D2*
Y3037127D1*
X-934865Y3051727D1*
X-939694Y3056669D1*
X-949352Y3061498D1*
X-959123D1*
X-968782Y3056669D1*
X-973723Y3051727D1*
X-978553Y3037127D1*
Y2993439D1*
X-876465D1*
X-929923Y3027469D2*
X-876465Y3061498D1*
X-959011Y3092870D2*
X-963952Y3102641D1*
X-978440Y3117241D1*
X-876465D1*
X-919873Y3189169D2*
Y3232857D1*
X-924815Y3247457D1*
X-929644Y3252398D1*
X-939302Y3257227D1*
X-949073D1*
X-958732Y3252398D1*
X-963673Y3247457D1*
X-968503Y3232857D1*
Y3189169D1*
X-866415D1*
X-919873Y3223198D2*
X-866415Y3257227D1*
X-944132Y3293541D2*
X-948961D1*
X-958732Y3298371D1*
X-963561Y3303200D1*
X-968390Y3312971D1*
Y3332400D1*
X-963561Y3342058D1*
X-958732Y3346887D1*
X-948961Y3351829D1*
X-939302D1*
X-929532Y3346887D1*
X-915044Y3337229D1*
X-866415Y3288600D1*
Y3356658D1*
X454450Y2958346D2*
Y3002033D1*
X449509Y3016633D1*
X444679Y3021575D1*
X435021Y3026404D1*
X425250D1*
X415592Y3021575D1*
X410650Y3016633D1*
X405821Y3002033D1*
Y2958346D1*
X507908D1*
X454450Y2992375D2*
X507909Y3026404D1*
X405933Y3067547D2*
Y3120893D1*
X444792Y3091806D1*
Y3106406D1*
X449621Y3116064D1*
X454450Y3120893D1*
X469050Y3125835D1*
X478709D1*
X493309Y3120893D1*
X503079Y3111235D1*
X507908Y3096635D1*
Y3082035D1*
X503079Y3067547D1*
X498138Y3062718D1*
X488479Y3057776D1*
X-421130Y3381658D2*
Y3425345D1*
X-426071Y3439945D1*
X-430901Y3444887D1*
X-440559Y3449716D1*
X-450330D1*
X-459988Y3444887D1*
X-464930Y3439945D1*
X-469759Y3425345D1*
Y3381658D1*
X-367672D1*
X-421130Y3415687D2*
X-367671Y3449716D1*
X-367672Y3529718D2*
X-469647D1*
X-401701Y3481088D1*
Y3553976D1*
X-107253Y2880196D2*
Y2923883D1*
X-112195Y2938483D1*
X-117024Y2943425D1*
X-126682Y2948254D1*
X-136453D1*
X-146112Y2943425D1*
X-151053Y2938483D1*
X-155883Y2923883D1*
Y2880196D1*
X-53795D1*
X-107253Y2914225D2*
X-53795Y2948254D1*
X-155770Y3037914D2*
Y2989397D1*
X-112082Y2984568D1*
X-116912Y2989397D1*
X-121853Y3003997D1*
Y3018485D1*
X-116912Y3033085D1*
X-107253Y3042856D1*
X-92653Y3047685D1*
X-82995D1*
X-68395Y3042856D1*
X-58624Y3033085D1*
X-53795Y3018485D1*
Y3003997D1*
X-58624Y2989397D1*
X-63566Y2984568D1*
X-73224Y2979626D1*
X-2724767Y6277596D2*
Y6321284D1*
X-2729708Y6335884D1*
X-2734537Y6340826D1*
X-2744196Y6345655D1*
X-2753967D1*
X-2763625Y6340826D1*
X-2768567Y6335884D1*
X-2773396Y6321284D1*
Y6277596D1*
X-2671308D1*
X-2724767Y6311626D2*
X-2671308Y6345655D1*
X-2758796Y6435315D2*
X-2768454Y6430486D1*
X-2773283Y6415886D1*
Y6406227D1*
X-2768454Y6391627D1*
X-2753854Y6381856D1*
X-2729596Y6377027D1*
X-2705337D1*
X-2685908Y6381856D1*
X-2676137Y6391627D1*
X-2671308Y6406227D1*
Y6411056D1*
X-2676137Y6425544D1*
X-2685908Y6435315D1*
X-2700508Y6440144D1*
X-2705337D1*
X-2719937Y6435315D1*
X-2729596Y6425544D1*
X-2734425Y6411056D1*
Y6406227D1*
X-2729596Y6391627D1*
X-2719937Y6381856D1*
X-2705337Y6377027D1*
X-2304333Y6268672D2*
Y6312360D1*
X-2309275Y6326960D1*
X-2314104Y6331901D1*
X-2323762Y6336731D1*
X-2333533D1*
X-2343192Y6331901D1*
X-2348133Y6326960D1*
X-2352963Y6312360D1*
Y6268672D1*
X-2250875D1*
X-2304333Y6302701D2*
X-2250875Y6336730D1*
Y6387532D2*
X-2352850Y6436162D1*
Y6368103D1*
X-1492150Y5636148D2*
Y5679836D1*
X-1497091Y5694436D1*
X-1501921Y5699378D1*
X-1511579Y5704207D1*
X-1521350D1*
X-1531008Y5699378D1*
X-1535950Y5694436D1*
X-1540779Y5679836D1*
Y5636148D1*
X-1438692D1*
X-1492150Y5670178D2*
X-1438691Y5704207D1*
X-1540667Y5759838D2*
X-1535838Y5745350D1*
X-1526179Y5740409D1*
X-1516408D1*
X-1506750Y5745350D1*
X-1501808Y5755008D1*
X-1496979Y5774438D1*
X-1492150Y5789038D1*
X-1482379Y5798696D1*
X-1472721Y5803525D1*
X-1458121D1*
X-1448462Y5798696D1*
X-1443521Y5793867D1*
X-1438692Y5779267D1*
Y5759838D1*
X-1443521Y5745350D1*
X-1448462Y5740408D1*
X-1458121Y5735579D1*
X-1472721D1*
X-1482379Y5740408D1*
X-1492150Y5750179D1*
X-1496979Y5764667D1*
X-1501808Y5784096D1*
X-1506750Y5793867D1*
X-1516408Y5798696D1*
X-1526179D1*
X-1535838Y5793867D1*
X-1540667Y5779267D1*
Y5759838D1*
X-1668000Y3169587D2*
Y3213275D1*
X-1672941Y3227874D1*
X-1677771Y3232816D1*
X-1687429Y3237645D1*
X-1697200D1*
X-1706858Y3232816D1*
X-1711800Y3227875D1*
X-1716629Y3213275D1*
Y3169587D1*
X-1614542D1*
X-1668000Y3203616D2*
X-1614541Y3237645D1*
X-1682600Y3332247D2*
X-1668000Y3327305D1*
X-1658229Y3317647D1*
X-1653400Y3303047D1*
Y3298218D1*
X-1658229Y3283618D1*
X-1668000Y3273959D1*
X-1682600Y3269018D1*
X-1687429D1*
X-1702029Y3273959D1*
X-1711688Y3283618D1*
X-1716517Y3298218D1*
Y3303047D1*
X-1711688Y3317647D1*
X-1702029Y3327305D1*
X-1682600Y3332247D1*
X-1658229D1*
X-1633971Y3327305D1*
X-1619371Y3317647D1*
X-1614542Y3303047D1*
Y3293388D1*
X-1619371Y3278788D1*
X-1629141Y3273959D1*
X1530152Y3234564D2*
Y3278252D1*
X1525210Y3292852D1*
X1520381Y3297793D1*
X1510723Y3302622D1*
X1500952D1*
X1491293Y3297793D1*
X1486352Y3292852D1*
X1481522Y3278252D1*
Y3234564D1*
X1583610D1*
X1530152Y3268593D2*
X1583610Y3302622D1*
X1501064Y3333995D2*
X1496123Y3343766D1*
X1481635Y3358366D1*
X1583610Y3358365D1*
X1481635Y3418938D2*
X1486464Y3404338D1*
X1501064Y3394567D1*
X1525323Y3389738D1*
X1539923D1*
X1564181Y3394567D1*
X1578781Y3404338D1*
X1583610Y3418938D1*
Y3428596D1*
X1578781Y3443196D1*
X1564181Y3452855D1*
X1539922Y3457796D1*
X1525322D1*
X1501064Y3452855D1*
X1486464Y3443196D1*
X1481635Y3428597D1*
Y3418938D1*
X1501064Y3452855D2*
X1564181Y3394567D1*
X75827Y5306064D2*
Y5349752D1*
X70885Y5364352D1*
X66056Y5369294D1*
X56398Y5374123D1*
X46627D1*
X36968Y5369294D1*
X32027Y5364352D1*
X27197Y5349752D1*
Y5306064D1*
X129285D1*
X75827Y5340094D2*
X129285Y5374123D1*
X46739Y5405495D2*
X41798Y5415266D1*
X27310Y5429866D1*
X129285D1*
X46739Y5461239D2*
X41798Y5471009D1*
X27310Y5485609D1*
X129285D1*
X101227Y4092504D2*
Y4136192D1*
X96285Y4150792D1*
X91456Y4155733D1*
X81798Y4160562D1*
X72027D1*
X62368Y4155733D1*
X57427Y4150792D1*
X52597Y4136192D1*
Y4092504D1*
X154685D1*
X101227Y4126533D2*
X154685Y4160562D1*
X72139Y4191935D2*
X67198Y4201706D1*
X52710Y4216306D1*
X154685Y4216305D1*
X76968Y4252620D2*
X72139D1*
X62368Y4257449D1*
X57539Y4262278D1*
X52710Y4272049D1*
Y4291478D1*
X57539Y4301136D1*
X62368Y4305966D1*
X72139Y4310907D1*
X81798D1*
X91568Y4305966D1*
X106056Y4296307D1*
X154685Y4247678D1*
Y4315736D1*
X312370Y4175694D2*
Y4219382D1*
X307429Y4233982D1*
X302599Y4238923D1*
X292941Y4243752D1*
X283170D1*
X273512Y4238923D1*
X268570Y4233982D1*
X263741Y4219382D1*
Y4175694D1*
X365828D1*
X312370Y4209723D2*
X365829Y4243752D1*
X283282Y4275125D2*
X278341Y4284896D1*
X263853Y4299496D1*
X365828Y4299495D1*
X263853Y4340639D2*
Y4393985D1*
X302712Y4364897D1*
Y4379497D1*
X307541Y4389156D1*
X312370Y4393985D1*
X326970Y4398926D1*
X336628D1*
X351228Y4393985D1*
X360999Y4384326D1*
X365828Y4369726D1*
Y4355126D1*
X360999Y4340639D1*
X356058Y4335810D1*
X346399Y4330868D1*
X-2527787Y2931501D2*
Y2975188D1*
X-2532728Y2989788D1*
X-2537557Y2994730D1*
X-2547216Y2999559D1*
X-2556987D1*
X-2566645Y2994730D1*
X-2571587Y2989788D1*
X-2576416Y2975188D1*
Y2931501D1*
X-2474328D1*
X-2527787Y2965530D2*
X-2474328Y2999559D1*
X-2576416Y3094048D2*
Y3030932D1*
X-2474328Y3030931D1*
Y3094048D1*
X-2527787Y3030931D2*
Y3069790D1*
X-2561816Y3193479D2*
X-2571587Y3183821D1*
X-2576416Y3169221D1*
Y3149792D1*
X-2571587Y3135192D1*
X-2561816Y3125421D1*
X-2552157D1*
X-2542387Y3130362D1*
X-2537557Y3135192D1*
X-2532728Y3144850D1*
X-2522957Y3174050D1*
X-2518128Y3183821D1*
X-2513187Y3188650D1*
X-2503528Y3193479D1*
X-2488928D1*
X-2479270Y3183821D1*
X-2474328Y3169221D1*
Y3149792D1*
X-2479270Y3135192D1*
X-2488928Y3125421D1*
X-2576416Y3287969D2*
Y3224852D1*
X-2474328D1*
Y3287969D1*
X-2527787Y3224852D2*
Y3263710D1*
X-2576416Y3353371D2*
X-2474328Y3353370D1*
X-2576416Y3319341D2*
Y3387400D1*
X342994Y5296887D2*
X333223Y5287229D1*
X328394Y5272629D1*
Y5253200D1*
X333223Y5238600D1*
X342994Y5228829D1*
X352653D1*
X362423Y5233770D1*
X367253Y5238600D1*
X372082Y5248258D1*
X381853Y5277458D1*
X386682Y5287229D1*
X391623Y5292058D1*
X401282Y5296887D1*
X415882D1*
X425540Y5287229D1*
X430482Y5272629D1*
Y5253200D1*
X425540Y5238600D1*
X415882Y5228829D1*
X352765Y5333201D2*
X347936D1*
X338165Y5338031D1*
X333336Y5342860D1*
X328507Y5352631D1*
Y5372060D1*
X333336Y5381718D1*
X338165Y5386547D1*
X347936Y5391489D1*
X357594D1*
X367365Y5386547D1*
X381853Y5376889D1*
X430482Y5328260D1*
Y5396318D1*
X-6415610Y12538333D2*
X-6425268Y12548103D1*
X-6439868Y12552933D1*
X-6459297D1*
X-6473897Y12548103D1*
X-6483668Y12538333D1*
Y12528674D1*
X-6478727Y12518903D1*
X-6473897Y12514074D1*
X-6464239Y12509245D1*
X-6435039Y12499474D1*
X-6425268Y12494645D1*
X-6420439Y12489703D1*
X-6415610Y12480045D1*
Y12465445D1*
X-6425268Y12455786D1*
X-6439868Y12450845D1*
X-6459297D1*
X-6473897Y12455786D1*
X-6483668Y12465445D1*
X-6384237Y12552933D2*
Y12450845D1*
X-6316179Y12552933D2*
Y12450845D1*
X-6384237Y12504303D2*
X-6316179D1*
X-6284806Y12552933D2*
Y12450845D1*
X-6190317Y12552933D2*
X-6253433D1*
Y12450845D1*
X-6190317D1*
X-6253433Y12504303D2*
X-6214575D1*
X-6158944Y12552933D2*
Y12450845D1*
X-6100656D1*
X-6069284Y12552933D2*
Y12450845D1*
X-6035255D1*
X-6020655Y12455786D1*
X-6010884Y12465445D1*
X-6006055Y12475216D1*
X-6001225Y12489703D1*
Y12514074D1*
X-6006055Y12528674D1*
X-6010884Y12538333D1*
X-6020655Y12548103D1*
X-6035255Y12552933D1*
X-6069284D1*
X1266811Y2877016D2*
X1257152Y2886787D1*
X1242552Y2891616D1*
X1223123D1*
X1208523Y2886787D1*
X1198752Y2877016D1*
Y2867357D1*
X1203694Y2857587D1*
X1208523Y2852757D1*
X1218182Y2847928D1*
X1247382Y2838157D1*
X1257152Y2833328D1*
X1261982Y2828387D1*
X1266811Y2818728D1*
Y2804128D1*
X1257152Y2794470D1*
X1242552Y2789528D1*
X1223123D1*
X1208523Y2794470D1*
X1198752Y2804128D1*
X1298183Y2838157D2*
X1341983D1*
X1356471Y2842987D1*
X1361413Y2847928D1*
X1366242Y2857587D1*
Y2872187D1*
X1361413Y2881845D1*
X1356471Y2886787D1*
X1341983Y2891616D1*
X1298183D1*
Y2789528D1*
X1397614Y2891616D2*
Y2789528D1*
X-717926Y3137746D2*
X-615838Y3137745D1*
X-717926Y3103716D2*
Y3171775D1*
X-664467Y3203147D2*
Y3246947D1*
X-669297Y3261435D1*
X-674238Y3266376D1*
X-683897Y3271206D1*
X-698497D1*
X-708155Y3266376D1*
X-713097Y3261435D1*
X-717926Y3246947D1*
Y3203147D1*
X-615838D1*
X-698384Y3302578D2*
X-703326Y3312349D1*
X-717813Y3326949D1*
X-615838D1*
X-683897Y3421551D2*
X-669297Y3416609D1*
X-659526Y3406951D1*
X-654697Y3392351D1*
Y3387521D1*
X-659526Y3372921D1*
X-669297Y3363263D1*
X-683897Y3358321D1*
X-688726D1*
X-703326Y3363263D1*
X-712984Y3372921D1*
X-717814Y3387521D1*
Y3392351D1*
X-712984Y3406951D1*
X-703326Y3416609D1*
X-683897Y3421551D1*
X-659526D1*
X-635267Y3416609D1*
X-620667Y3406951D1*
X-615838Y3392351D1*
Y3382692D1*
X-620667Y3368092D1*
X-630438Y3363263D1*
X-120483Y4437554D2*
X-18395D1*
X-120483Y4403525D2*
X-120482Y4471583D1*
X-67024Y4502955D2*
Y4546755D1*
X-71853Y4561243D1*
X-76795Y4566185D1*
X-86453Y4571014D1*
X-101053D1*
X-110712Y4566185D1*
X-115653Y4561243D1*
X-120482Y4546755D1*
Y4502955D1*
X-18395D1*
X-120370Y4612157D2*
Y4665503D1*
X-81512Y4636416D1*
Y4651016D1*
X-76683Y4660674D1*
X-71853Y4665503D1*
X-57253Y4670445D1*
X-47595D1*
X-32995Y4665503D1*
X-23224Y4655845D1*
X-18395Y4641245D1*
Y4626645D1*
X-23224Y4612157D1*
X-28166Y4607328D1*
X-37824Y4602386D1*
X-96112Y4706759D2*
X-100941D1*
X-110712Y4711588D1*
X-115541Y4716417D1*
X-120370Y4726188D1*
Y4745617D1*
X-115541Y4755276D1*
X-110712Y4760105D1*
X-100941Y4765047D1*
X-91283D1*
X-81512Y4760105D1*
X-67024Y4750447D1*
X-18395Y4701817D1*
Y4769876D1*
X-783979Y5339050D2*
X-681891D1*
X-783979Y5305021D2*
Y5373080D1*
X-730521Y5404452D2*
Y5448252D1*
X-735350Y5462740D1*
X-740291Y5467681D1*
X-749950Y5472510D1*
X-764550Y5472511D1*
X-774208Y5467681D1*
X-779150Y5462740D1*
X-783979Y5448252D1*
Y5404452D1*
X-681891D1*
X-783867Y5513654D2*
Y5567000D1*
X-745008Y5537912D1*
Y5552512D1*
X-740179Y5562171D1*
X-735350Y5567000D1*
X-720750Y5571941D1*
X-711092D1*
X-696492Y5567000D1*
X-686721Y5557341D1*
X-681892Y5542741D1*
Y5528141D1*
X-686721Y5513654D1*
X-691662Y5508824D1*
X-701321Y5503883D1*
X-783867Y5661602D2*
Y5613085D1*
X-740179Y5608256D1*
X-745008Y5613085D1*
X-749950Y5627685D1*
Y5642172D1*
X-745008Y5656772D1*
X-735350Y5666543D1*
X-720750Y5671372D1*
X-711092D1*
X-696492Y5666543D1*
X-686721Y5656772D1*
X-681892Y5642172D1*
Y5627685D1*
X-686721Y5613085D1*
X-691662Y5608255D1*
X-701321Y5603314D1*
X-3076318Y6828683D2*
X-3003430D1*
X-2988830Y6833512D1*
X-2979171Y6843283D1*
X-2974230Y6857883D1*
Y6867541D1*
X-2979171Y6882141D1*
X-2988830Y6891912D1*
X-3003430Y6896741D1*
X-3076317D1*
X-3056776Y6928114D2*
X-3061717Y6937884D1*
X-3076205Y6952484D1*
X-2974230D1*
X-3070441Y3006836D2*
X-2997553D1*
X-2982953Y3011665D1*
X-2973295Y3021436D1*
X-2968353Y3036035D1*
Y3045694D1*
X-2973295Y3060294D1*
X-2982953Y3070065D1*
X-2997553Y3074894D1*
X-3070441D1*
X-3046070Y3111208D2*
X-3050899D1*
X-3060670Y3116037D1*
X-3065499Y3120866D1*
X-3070328Y3130637D1*
Y3150066D1*
X-3065499Y3159725D1*
X-3060670Y3164554D1*
X-3050899Y3169496D1*
X-3041241D1*
X-3031470Y3164554D1*
X-3016982Y3154896D1*
X-2968353Y3106266D1*
Y3174325D1*
X-1848226Y4689832D2*
X-1775338D1*
X-1760738Y4694661D1*
X-1751080Y4704432D1*
X-1746138Y4719032D1*
Y4728691D1*
X-1751080Y4743291D1*
X-1760738Y4753061D1*
X-1775338Y4757891D1*
X-1848226D1*
X-1848113Y4799034D2*
Y4852380D1*
X-1809255Y4823292D1*
Y4837892D1*
X-1804426Y4847551D1*
X-1799597Y4852380D1*
X-1784997Y4857321D1*
X-1775338D1*
X-1760738Y4852380D1*
X-1750967Y4842721D1*
X-1746138Y4828121D1*
Y4813521D1*
X-1750967Y4799034D1*
X-1755909Y4794205D1*
X-1765567Y4789263D1*
X-3075983Y1014168D2*
X-3003095D1*
X-2988495Y1018997D1*
X-2978836Y1028768D1*
X-2973895Y1043368D1*
Y1053026D1*
X-2978836Y1067626D1*
X-2988495Y1077397D1*
X-3003095Y1082226D1*
X-3075982D1*
X-2973895Y1162228D2*
X-3075870D1*
X-3007924Y1113598D1*
Y1186486D1*
X2261535Y6557582D2*
Y6455494D1*
X2297849Y6533211D2*
Y6538040D1*
X2302678Y6547811D1*
X2307507Y6552640D1*
X2317278Y6557470D1*
X2336707D1*
X2346366Y6552640D1*
X2351195Y6547811D1*
X2356136Y6538040D1*
Y6528382D1*
X2351195Y6518611D1*
X2341536Y6504123D1*
X2292907Y6455494D1*
X2360966D1*
X2465226Y6533323D2*
X2460397Y6542982D1*
X2450626Y6552753D1*
X2440967Y6557582D1*
X2421538D1*
X2411767Y6552753D1*
X2402109Y6542982D1*
X2397167Y6533323D1*
X2392338Y6518723D1*
Y6494353D1*
X2397167Y6479865D1*
X2402109Y6470094D1*
X2411767Y6460436D1*
X2421538Y6455494D1*
X2440967D1*
X2450626Y6460436D1*
X2460397Y6470094D1*
X2465226Y6479865D1*
X2496598Y6438648D2*
X2588915D1*
X2688346Y6542982D2*
X2678688Y6552753D1*
X2664088Y6557582D1*
X2644659D1*
X2630059Y6552753D1*
X2620288Y6542982D1*
Y6533323D1*
X2625229Y6523553D1*
X2630059Y6518723D1*
X2639717Y6513894D1*
X2668917Y6504123D1*
X2678688Y6499294D1*
X2683517Y6494353D1*
X2688346Y6484694D1*
Y6470094D1*
X2678688Y6460436D1*
X2664088Y6455494D1*
X2644659D1*
X2630059Y6460436D1*
X2620288Y6470094D1*
X2782836Y6557582D2*
X2719719D1*
Y6455494D1*
X2782836D1*
X2719719Y6508953D2*
X2758577D1*
X2882267Y6557582D2*
Y6455494D1*
X2814208Y6557582D1*
Y6455494D1*
X2981698Y6542982D2*
X2972039Y6552753D1*
X2957439Y6557582D1*
X2938010D1*
X2923410Y6552753D1*
X2913639Y6542982D1*
Y6533323D1*
X2918581Y6523553D1*
X2923410Y6518723D1*
X2933069Y6513894D1*
X2962269Y6504123D1*
X2972039Y6499294D1*
X2976869Y6494353D1*
X2981698Y6484694D1*
Y6470094D1*
X2972039Y6460436D1*
X2957439Y6455494D1*
X2938010D1*
X2923410Y6460436D1*
X2913639Y6470094D1*
X3042270Y6557582D2*
X3032500Y6552753D1*
X3022841Y6542982D1*
X3017900Y6533323D1*
X3013070Y6518723D1*
Y6494353D1*
X3017900Y6479865D1*
X3022841Y6470094D1*
X3032500Y6460436D1*
X3042270Y6455494D1*
X3061700D1*
X3071358Y6460436D1*
X3081129Y6470094D1*
X3085958Y6479865D1*
X3090787Y6494353D1*
Y6518723D1*
X3085958Y6533323D1*
X3081129Y6542982D1*
X3071358Y6552753D1*
X3061700Y6557582D1*
X3042270D1*
X3122160Y6508953D2*
X3165848D1*
X3180448Y6513894D1*
X3185389Y6518723D1*
X3190218Y6528382D1*
Y6538153D1*
X3185389Y6547811D1*
X3180448Y6552753D1*
X3165848Y6557582D1*
X3122160D1*
Y6455494D1*
X3156189Y6508953D2*
X3190218Y6455494D1*
X3221591Y6438648D2*
X3313908D1*
X3345280Y6557582D2*
Y6455494D1*
X3389080D1*
X3403680Y6460436D1*
X3408510Y6465265D1*
X3413339Y6474923D1*
Y6489523D1*
X3408510Y6499294D1*
X3403680Y6504123D1*
X3389080Y6508953D1*
X3403680Y6513894D1*
X3408510Y6518723D1*
X3413339Y6528382D1*
Y6538153D1*
X3408510Y6547811D1*
X3403680Y6552753D1*
X3389080Y6557582D1*
X3345280D1*
Y6508953D2*
X3389080D1*
X3473911Y6557582D2*
X3464141Y6552753D1*
X3454482Y6542982D1*
X3449541Y6533323D1*
X3444711Y6518723D1*
Y6494353D1*
X3449541Y6479865D1*
X3454482Y6470094D1*
X3464141Y6460436D1*
X3473911Y6455494D1*
X3493341D1*
X3502999Y6460436D1*
X3512770Y6470094D1*
X3517599Y6479865D1*
X3522428Y6494353D1*
Y6518723D1*
X3517599Y6533323D1*
X3512770Y6542982D1*
X3502999Y6552753D1*
X3493341Y6557582D1*
X3473911D1*
X3631630Y6455494D2*
X3592659Y6557582D1*
X3553801Y6455494D1*
X3568401Y6489523D2*
X3617030D1*
X3663003Y6508953D2*
X3706690D1*
X3721290Y6513894D1*
X3726232Y6518723D1*
X3731061Y6528382D1*
Y6538153D1*
X3726232Y6547811D1*
X3721290Y6552753D1*
X3706690Y6557582D1*
X3663003D1*
Y6455494D1*
X3697032Y6508953D2*
X3731061Y6455494D1*
X3762434Y6557582D2*
Y6455494D1*
X3796463D1*
X3811063Y6460436D1*
X3820834Y6470094D1*
X3825663Y6479865D1*
X3830492Y6494353D1*
Y6518723D1*
X3825663Y6533323D1*
X3820834Y6542982D1*
X3811063Y6552753D1*
X3796463Y6557582D1*
X3762434D1*
X3149331Y3139820D2*
X3222218D1*
X3236818Y3144649D1*
X3246477Y3154420D1*
X3251419Y3169020D1*
Y3178678D1*
X3246477Y3193278D1*
X3236819Y3203049D1*
X3222219Y3207878D1*
X3149331D1*
X3163931Y3297538D2*
X3154272Y3292709D1*
X3149443Y3278109D1*
Y3268451D1*
X3154272Y3253851D1*
X3168872Y3244080D1*
X3193131Y3239251D1*
X3217389Y3239250D1*
X3236819Y3244080D1*
X3246589Y3253850D1*
X3251418Y3268450D1*
Y3273280D1*
X3246589Y3287767D1*
X3236819Y3297538D1*
X3222219Y3302367D1*
X3217389D1*
X3202789Y3297538D1*
X3193131Y3287767D1*
X3188302Y3273280D1*
Y3268451D1*
X3193131Y3253851D1*
X3202789Y3244080D1*
X3217389Y3239250D1*
X521436Y3721589D2*
X594323D1*
X608923Y3726418D1*
X618582Y3736189D1*
X623524Y3750789D1*
Y3760447D1*
X618582Y3775047D1*
X608924Y3784818D1*
X594324Y3789647D1*
X521436D1*
X623523Y3840449D2*
X521548Y3889078D1*
Y3821020D1*
X-2967818Y1721388D2*
X-2894930D1*
X-2880330Y1726218D1*
X-2870671Y1735988D1*
X-2865730Y1750588D1*
Y1760247D1*
X-2870671Y1774847D1*
X-2880330Y1784617D1*
X-2894930Y1789447D1*
X-2967817D1*
X-2967705Y1845078D2*
X-2962876Y1830590D1*
X-2953217Y1825649D1*
X-2943447D1*
X-2933788Y1830590D1*
X-2928847Y1840248D1*
X-2924017Y1859678D1*
X-2919188Y1874278D1*
X-2909417Y1883936D1*
X-2899759Y1888765D1*
X-2885159D1*
X-2875501Y1883936D1*
X-2870559Y1879107D1*
X-2865730Y1864507D1*
Y1845078D1*
X-2870559Y1830590D1*
X-2875501Y1825648D1*
X-2885159Y1820819D1*
X-2899759D1*
X-2909417Y1825648D1*
X-2919188Y1835419D1*
X-2924017Y1849907D1*
X-2928847Y1869336D1*
X-2933788Y1879107D1*
X-2943447Y1883936D1*
X-2953217D1*
X-2962876Y1879107D1*
X-2967705Y1864507D1*
Y1845078D1*
X-1512117Y6320013D2*
Y6247125D1*
X-1507288Y6232525D1*
X-1497517Y6222866D1*
X-1482917Y6217925D1*
X-1473258D1*
X-1458658Y6222866D1*
X-1448888Y6232525D1*
X-1444058Y6247125D1*
Y6320013D1*
X-1349457Y6285983D2*
X-1354398Y6271383D1*
X-1364057Y6261613D1*
X-1378657Y6256783D1*
X-1383486D1*
X-1398086Y6261613D1*
X-1407744Y6271383D1*
X-1412686Y6285983D1*
Y6290813D1*
X-1407744Y6305413D1*
X-1398086Y6315071D1*
X-1383486Y6319900D1*
X-1378657D1*
X-1364057Y6315071D1*
X-1354398Y6305413D1*
X-1349457Y6285983D1*
Y6261613D1*
X-1354398Y6237354D1*
X-1364057Y6222754D1*
X-1378657Y6217925D1*
X-1388315D1*
X-1402915Y6222754D1*
X-1407744Y6232525D1*
X-132151Y5690852D2*
X-59263D1*
X-44663Y5695681D1*
X-35005Y5705452D1*
X-30063Y5720052D1*
Y5729710D1*
X-35005Y5744310D1*
X-44663Y5754081D1*
X-59263Y5758910D1*
X-132151D1*
X-112609Y5790283D2*
X-117551Y5800054D1*
X-132038Y5814654D1*
X-30063D1*
X-132038Y5875226D2*
X-127209Y5860626D1*
X-112609Y5850855D1*
X-88351Y5846026D1*
X-73751D1*
X-49492Y5850855D1*
X-34892Y5860626D1*
X-30063Y5875226D1*
Y5884885D1*
X-34892Y5899485D1*
X-49492Y5909143D1*
X-73751Y5914085D1*
X-88351D1*
X-112609Y5909143D1*
X-127209Y5899485D1*
X-132038Y5884885D1*
Y5875226D1*
X-112609Y5909143D2*
X-49492Y5850855D1*
X-132151Y5945457D2*
X-30063D1*
X-107780Y5981771D2*
X-112609D1*
X-122380Y5986600D1*
X-127209Y5991430D1*
X-132039Y6001200D1*
Y6020630D1*
X-127209Y6030288D1*
X-122380Y6035117D1*
X-112609Y6040059D1*
X-102951D1*
X-93180Y6035117D1*
X-78692Y6025459D1*
X-30063Y5976830D1*
Y6044888D1*
X-107892Y6149148D2*
X-117551Y6144319D1*
X-127322Y6134548D1*
X-132151Y6124890D1*
Y6105461D1*
X-127322Y6095690D1*
X-117551Y6086031D1*
X-107892Y6081090D1*
X-93292Y6076261D1*
X-68922D1*
X-54434Y6081090D1*
X-44663Y6086031D1*
X-35005Y6095690D1*
X-30063Y6105461D1*
Y6124890D1*
X-35005Y6134548D1*
X-44663Y6144319D1*
X-54434Y6149148D1*
X-727174Y4684200D2*
X-678545Y4723059D1*
X-625086D1*
X-727174Y4761917D2*
X-678545Y4723059D1*
X-707633Y4793290D2*
X-712574Y4803060D1*
X-727062Y4817660D1*
X-625087D1*
X929962Y1977641D2*
X920303Y1987412D1*
X905703Y1992241D1*
X886274D1*
X871674Y1987412D1*
X861903Y1977641D1*
Y1967983D1*
X866845Y1958212D1*
X871674Y1953383D1*
X881332Y1948554D1*
X910532Y1938783D1*
X920303Y1933954D1*
X925132Y1929012D1*
X929962Y1919354D1*
Y1904754D1*
X920303Y1895095D1*
X905703Y1890154D1*
X886274D1*
X871674Y1895095D1*
X861903Y1904754D1*
X1034222Y1967983D2*
X1029393Y1977641D1*
X1019622Y1987412D1*
X1009963Y1992241D1*
X990534D1*
X980763Y1987412D1*
X971105Y1977641D1*
X966163Y1967983D1*
X961334Y1953383D1*
Y1929012D1*
X966163Y1914524D1*
X971105Y1904754D1*
X980763Y1895095D1*
X990534Y1890154D1*
X1009963D1*
X1019622Y1895095D1*
X1029393Y1904754D1*
X1034222Y1914524D1*
X1065594Y1992241D2*
Y1890154D1*
X1133653Y1992241D2*
X1065594Y1924183D1*
X1089853Y1948554D2*
X1133653Y1890154D1*
X934791Y1713983D2*
X929962Y1723641D1*
X920191Y1733412D1*
X910532Y1738241D1*
X891103D1*
X881332Y1733412D1*
X871674Y1723641D1*
X866732Y1713983D1*
X861903Y1699383D1*
Y1675012D1*
X866732Y1660524D1*
X871674Y1650754D1*
X881332Y1641095D1*
X891103Y1636154D1*
X910532D1*
X920191Y1641095D1*
X929962Y1650754D1*
X934791Y1660524D1*
Y1675012D1*
X910532D1*
X1034222Y1738241D2*
Y1636154D1*
X966163Y1738241D1*
Y1636154D1*
X1065594Y1738241D2*
Y1636154D1*
X1099624D1*
X1114224Y1641095D1*
X1123994Y1650754D1*
X1128824Y1660524D1*
X1133653Y1675012D1*
Y1699383D1*
X1128824Y1713983D1*
X1123994Y1723641D1*
X1114224Y1733412D1*
X1099624Y1738241D1*
X1065594D1*
X1447620Y1890154D2*
Y1992241D1*
X1408762Y1890154D1*
X1369903Y1992241D1*
Y1890154D1*
X1478993Y1992241D2*
Y1890154D1*
X1578424Y1977641D2*
X1568765Y1987412D1*
X1554165Y1992241D1*
X1534736D1*
X1520136Y1987412D1*
X1510365Y1977641D1*
Y1967983D1*
X1515307Y1958212D1*
X1520136Y1953383D1*
X1529794Y1948554D1*
X1558994Y1938783D1*
X1568765Y1933954D1*
X1573594Y1929012D1*
X1578424Y1919354D1*
Y1904754D1*
X1568765Y1895095D1*
X1554165Y1890154D1*
X1534736D1*
X1520136Y1895095D1*
X1510365Y1904754D1*
X1638996Y1992241D2*
X1629225Y1987412D1*
X1619567Y1977641D1*
X1614625Y1967983D1*
X1609796Y1953383D1*
Y1929012D1*
X1614625Y1914524D1*
X1619567Y1904754D1*
X1629225Y1895095D1*
X1638996Y1890154D1*
X1658425D1*
X1668084Y1895095D1*
X1677855Y1904754D1*
X1682684Y1914524D1*
X1687513Y1929012D1*
Y1953383D1*
X1682684Y1967983D1*
X1677855Y1977641D1*
X1668084Y1987412D1*
X1658425Y1992241D1*
X1638996D1*
X1447620Y1636154D2*
Y1738241D1*
X1408762Y1636154D1*
X1369903Y1738241D1*
Y1636154D1*
X1508193Y1738241D2*
X1498422Y1733412D1*
X1488763Y1723641D1*
X1483822Y1713983D1*
X1478993Y1699383D1*
Y1675012D1*
X1483822Y1660524D1*
X1488763Y1650754D1*
X1498422Y1641095D1*
X1508193Y1636154D1*
X1527622D1*
X1537280Y1641095D1*
X1547051Y1650754D1*
X1551880Y1660524D1*
X1556710Y1675012D1*
Y1699383D1*
X1551880Y1713983D1*
X1547051Y1723641D1*
X1537280Y1733412D1*
X1527622Y1738241D1*
X1508193D1*
X1656141Y1723641D2*
X1646482Y1733412D1*
X1631882Y1738241D1*
X1612453D1*
X1597853Y1733412D1*
X1588082Y1723641D1*
Y1713983D1*
X1593024Y1704212D1*
X1597853Y1699383D1*
X1607511Y1694554D1*
X1636711Y1684783D1*
X1646482Y1679954D1*
X1651311Y1675012D1*
X1656141Y1665354D1*
Y1650754D1*
X1646482Y1641095D1*
X1631882Y1636154D1*
X1612453D1*
X1597853Y1641095D1*
X1588082Y1650754D1*
X1687513Y1738241D2*
Y1636154D1*
X1945962Y1977641D2*
X1936303Y1987412D1*
X1921703Y1992241D1*
X1902274D1*
X1887674Y1987412D1*
X1877903Y1977641D1*
Y1967983D1*
X1882845Y1958212D1*
X1887674Y1953383D1*
X1897332Y1948554D1*
X1926532Y1938783D1*
X1936303Y1933954D1*
X1941132Y1929012D1*
X1945962Y1919354D1*
Y1904754D1*
X1936303Y1895095D1*
X1921703Y1890154D1*
X1902274D1*
X1887674Y1895095D1*
X1877903Y1904754D1*
X2045393Y1977641D2*
X2035734Y1987412D1*
X2021134Y1992241D1*
X2001705D1*
X1987105Y1987412D1*
X1977334Y1977641D1*
Y1967983D1*
X1982276Y1958212D1*
X1987105Y1953383D1*
X1996763Y1948554D1*
X2025963Y1938783D1*
X2035734Y1933954D1*
X2040563Y1929012D1*
X2045393Y1919354D1*
Y1904754D1*
X2035734Y1895095D1*
X2021134Y1890154D1*
X2001705D1*
X1987105Y1895095D1*
X1977334Y1904754D1*
X2081707Y1967871D2*
Y1972700D1*
X2086536Y1982471D1*
X2091365Y1987300D1*
X2101136Y1992129D1*
X2120565D1*
X2130224Y1987300D1*
X2135053Y1982471D1*
X2139994Y1972700D1*
Y1963041D1*
X2135053Y1953271D1*
X2125394Y1938783D1*
X2076765Y1890154D1*
X2144824D1*
X1945962Y1723641D2*
X1936303Y1733412D1*
X1921703Y1738241D1*
X1902274D1*
X1887674Y1733412D1*
X1877903Y1723641D1*
Y1713983D1*
X1882845Y1704212D1*
X1887674Y1699383D1*
X1897332Y1694554D1*
X1926532Y1684783D1*
X1936303Y1679954D1*
X1941132Y1675012D1*
X1945962Y1665354D1*
Y1650754D1*
X1936303Y1641095D1*
X1921703Y1636154D1*
X1902274D1*
X1887674Y1641095D1*
X1877903Y1650754D1*
X2045393Y1723641D2*
X2035734Y1733412D1*
X2021134Y1738241D1*
X2001705D1*
X1987105Y1733412D1*
X1977334Y1723641D1*
Y1713983D1*
X1982276Y1704212D1*
X1987105Y1699383D1*
X1996763Y1694554D1*
X2025963Y1684783D1*
X2035734Y1679954D1*
X2040563Y1675012D1*
X2045393Y1665354D1*
Y1650754D1*
X2035734Y1641095D1*
X2021134Y1636154D1*
X2001705D1*
X1987105Y1641095D1*
X1977334Y1650754D1*
X2076765Y1718700D2*
X2086536Y1723641D1*
X2101136Y1738129D1*
Y1636154D1*
X2444191Y1992129D2*
X2395674D1*
X2390845Y1948441D1*
X2395674Y1953271D1*
X2410274Y1958212D1*
X2424762D1*
X2439362Y1953271D1*
X2449132Y1943612D1*
X2453962Y1929012D1*
Y1919354D1*
X2449132Y1904754D1*
X2439362Y1894983D1*
X2424762Y1890154D1*
X2410274D1*
X2395674Y1894983D1*
X2390845Y1899924D1*
X2385903Y1909583D1*
X2485334Y1992241D2*
X2524193Y1890154D1*
X2563051Y1992241D1*
X2395674Y1738129D2*
X2449020D1*
X2419932Y1699271D1*
X2434532D1*
X2444191Y1694441D1*
X2449020Y1689612D1*
X2453962Y1675012D1*
Y1665354D1*
X2449020Y1650754D1*
X2439362Y1640983D1*
X2424762Y1636154D1*
X2410162D1*
X2395674Y1640983D1*
X2390845Y1645924D1*
X2385903Y1655583D1*
X2490163Y1645924D2*
X2485334Y1640983D1*
X2490163Y1636154D1*
X2495105Y1640983D1*
X2490163Y1645924D1*
X2536248Y1738129D2*
X2589594D1*
X2560507Y1699271D1*
X2575107D1*
X2584765Y1694441D1*
X2589594Y1689612D1*
X2594536Y1675012D1*
Y1665354D1*
X2589594Y1650754D1*
X2579936Y1640983D1*
X2565336Y1636154D1*
X2550736D1*
X2536248Y1640983D1*
X2531419Y1645924D1*
X2526477Y1655583D1*
X2625908Y1738241D2*
X2664767Y1636154D1*
X2703625Y1738241D1*
X-4749602Y4832390D2*
D178*
X-4759260Y4851707D1*
X-4778802Y4871248D1*
X-4798119Y4880907D1*
X-4836977D1*
X-4856519Y4871248D1*
X-4875836Y4851707D1*
X-4885719Y4832390D1*
X-4895377Y4803190D1*
Y4754448D1*
X-4885719Y4725473D1*
X-4875836Y4705931D1*
X-4856519Y4686614D1*
X-4836977Y4676731D1*
X-4798119D1*
X-4778802Y4686614D1*
X-4759260Y4705931D1*
X-4749602Y4725473D1*
Y4754448D1*
X-4798119D1*
X-4550740Y4880907D2*
Y4676731D1*
X-4686857Y4880907D1*
Y4676731D1*
X-4487995Y4880907D2*
Y4676731D1*
X-4419936D1*
X-4390736Y4686614D1*
X-4371195Y4705931D1*
X-4361536Y4725473D1*
X-4351878Y4754448D1*
Y4803190D1*
X-4361536Y4832390D1*
X-4371195Y4851707D1*
X-4390736Y4871248D1*
X-4419936Y4880907D1*
X-4487995D1*
X-4783045Y3750225D2*
X-4792928Y3721025D1*
X-4812245Y3701483D1*
X-4841445Y3691825D1*
X-4851104D1*
X-4880304Y3701483D1*
X-4899621Y3721025D1*
X-4909504Y3750225D1*
Y3759883D1*
X-4899621Y3789083D1*
X-4880304Y3808400D1*
X-4851104Y3818059D1*
X-4841445D1*
X-4812245Y3808400D1*
X-4792928Y3789083D1*
X-4783045Y3750225D1*
Y3701483D1*
X-4792928Y3652966D1*
X-4812245Y3623766D1*
X-4841445Y3614108D1*
X-4860762D1*
X-4889962Y3623766D1*
X-4899621Y3643308D1*
X-4720300Y3818283D2*
X-4642583Y3614108D1*
X-4564866Y3818283D1*
X582854Y1788695D2*
D179*
X582855Y1854395D1*
X575611Y1876126D1*
X568198Y1883539D1*
X553711Y1890783D1*
X531811D1*
X517323Y1883539D1*
X509911Y1876127D1*
X502667Y1854395D1*
Y1788695D1*
X655798D1*
X539055Y2047173D2*
X524567Y2039929D1*
X509911Y2025273D1*
X502667Y2010785D1*
Y1981641D1*
X509911Y1966985D1*
X524567Y1952498D1*
X539055Y1945085D1*
X560955Y1937841D1*
X597511D1*
X619242Y1945085D1*
X633898Y1952497D1*
X648386Y1966985D1*
X655798Y1981641D1*
Y2010785D1*
X648386Y2025273D1*
X633898Y2039929D1*
X619242Y2047173D1*
X597511D1*
Y2010785D1*
X655798Y2210807D2*
X502667D1*
X655798Y2152519D1*
X502667Y2094232D1*
X655798D1*
X322854Y1795945D2*
X322855Y1861645D1*
X315611Y1883376D1*
X308198Y1890789D1*
X293711Y1898033D1*
X271811D1*
X257323Y1890789D1*
X249911Y1883377D1*
X242667Y1861645D1*
Y1795945D1*
X395798D1*
X279055Y2054423D2*
X264567Y2047179D1*
X249911Y2032523D1*
X242667Y2018035D1*
Y1988891D1*
X249911Y1974235D1*
X264567Y1959748D1*
X279055Y1952335D1*
X300955Y1945091D1*
X337511D1*
X359242Y1952335D1*
X373898Y1959747D1*
X388386Y1974235D1*
X395798Y1988891D1*
Y2018035D1*
X388386Y2032523D1*
X373898Y2047179D1*
X359242Y2054423D1*
X337511D1*
Y2018035D1*
X279055Y2210813D2*
X264567Y2203569D1*
X249911Y2188913D1*
X242667Y2174426D1*
Y2145282D1*
X249911Y2130626D1*
X264567Y2116138D1*
X279055Y2108726D1*
X300955Y2101482D1*
X337511D1*
X359242Y2108725D1*
X373898Y2116138D1*
X388386Y2130625D1*
X395798Y2145282D1*
Y2174425D1*
X388386Y2188913D1*
X373898Y2203569D1*
X359242Y2210813D1*
X62854Y1803188D2*
X62855Y1868888D1*
X55611Y1890620D1*
X48198Y1898032D1*
X33711Y1905276D1*
X11811D1*
X-2677Y1898032D1*
X-10089Y1890620D1*
X-17333Y1868888D1*
Y1803188D1*
X135798D1*
X19055Y2061666D2*
X4567Y2054422D1*
X-10089Y2039766D1*
X-17333Y2025279D1*
Y1996135D1*
X-10089Y1981479D1*
X4567Y1966991D1*
X19055Y1959579D1*
X40955Y1952335D1*
X77511D1*
X99242Y1959578D1*
X113898Y1966991D1*
X128386Y1981478D1*
X135798Y1996135D1*
Y2025278D1*
X128386Y2039766D1*
X113898Y2054422D1*
X99242Y2061666D1*
X77511D1*
Y2025278D1*
X-17333Y2108725D2*
X135798D1*
Y2159769D1*
X128386Y2181669D1*
X113898Y2196325D1*
X99242Y2203569D1*
X77511Y2210813D1*
X40955D1*
X19055Y2203569D1*
X4567Y2196325D1*
X-10089Y2181669D1*
X-17333Y2159769D1*
Y2108725D1*
X-240942Y1912520D2*
X-255430Y1905276D1*
X-270086Y1890620D1*
X-277330Y1876132D1*
Y1846988D1*
X-270086Y1832332D1*
X-255430Y1817845D1*
X-240942Y1810432D1*
X-219042Y1803188D1*
X-182486D1*
X-160754Y1810432D1*
X-146098Y1817845D1*
X-131611Y1832332D1*
X-124198Y1846988D1*
Y1876132D1*
X-131611Y1890620D1*
X-146098Y1905276D1*
X-160754Y1912520D1*
X-182486D1*
Y1876132D1*
X-277330Y2061666D2*
X-124198D1*
X-277330Y1959579D1*
X-124198Y1959578D1*
X-277330Y2108725D2*
X-124198D1*
Y2159769D1*
X-131611Y2181669D1*
X-146098Y2196325D1*
X-160754Y2203569D1*
X-182486Y2210813D1*
X-219042D1*
X-240942Y2203569D1*
X-255430Y2196325D1*
X-270086Y2181669D1*
X-277330Y2159769D1*
Y2108725D1*
X-537330Y1781458D2*
X-384198Y1839746D1*
X-537330Y1898034D1*
X-500942Y2054424D2*
X-515430Y2047180D1*
X-530086Y2032524D1*
X-537330Y2018036D1*
Y1988892D1*
X-530086Y1974236D1*
X-515430Y1959749D1*
X-500942Y1952336D1*
X-479042Y1945092D1*
X-442486D1*
X-420754Y1952336D1*
X-406098Y1959748D1*
X-391611Y1974236D1*
X-384198Y1988892D1*
Y2018036D1*
X-391611Y2032524D1*
X-406098Y2047180D1*
X-420754Y2054424D1*
X-500942Y2210814D2*
X-515430Y2203570D1*
X-530086Y2188914D1*
X-537330Y2174427D1*
Y2145283D1*
X-530086Y2130627D1*
X-515430Y2116139D1*
X-500942Y2108727D1*
X-479042Y2101483D1*
X-442486D1*
X-420754Y2108726D1*
X-406098Y2116139D1*
X-391611Y2130626D1*
X-384198Y2145283D1*
Y2174426D1*
X-391611Y2188914D1*
X-406098Y2203570D1*
X-420754Y2210814D1*
X-797333Y1795945D2*
X-644202Y1854233D1*
X-797333Y1912520D1*
X-717145Y1959579D2*
Y2025279D1*
X-724389Y2047011D1*
X-731802Y2054423D1*
X-746289Y2061667D1*
X-768189D1*
X-782677Y2054423D1*
X-790089Y2047011D1*
X-797333Y2025279D1*
Y1959579D1*
X-644202D1*
X-717145Y2108725D2*
Y2174425D1*
X-724389Y2196157D1*
X-731802Y2203569D1*
X-746289Y2210813D1*
X-768189D1*
X-782677Y2203569D1*
X-790089Y2196157D1*
X-797333Y2174426D1*
Y2108726D1*
X-644202Y2108725D1*
X-2064449Y5405013D2*
X-2078936Y5397769D1*
X-2093593Y5383113D1*
X-2100836Y5368626D1*
X-2100837Y5339482D1*
X-2093593Y5324826D1*
X-2078937Y5310338D1*
X-2064449Y5302926D1*
X-2042549Y5295682D1*
X-2005993D1*
X-1984261Y5302926D1*
X-1969605Y5310338D1*
X-1955117Y5324825D1*
X-1947705Y5339482D1*
Y5368625D1*
X-1955117Y5383113D1*
X-1969605Y5397769D1*
X-1984261Y5405013D1*
X-2005993D1*
Y5368625D1*
X-2100836Y5554160D2*
X-1947705Y5554159D1*
X-2100836Y5452072D1*
X-1947705D1*
X-2100836Y5601218D2*
X-1947705D1*
Y5652262D1*
X-1955117Y5674162D1*
X-1969605Y5688818D1*
X-1984261Y5696062D1*
X-2005993Y5703306D1*
X-2042549D1*
X-2064449Y5696062D1*
X-2078936Y5688818D1*
X-2093593Y5674162D1*
X-2100836Y5652262D1*
Y5601218D1*
X-2312473Y5424066D2*
X-2327129Y5409578D1*
X-2334373Y5387678D1*
Y5358535D1*
X-2327129Y5336635D1*
X-2312473Y5321978D1*
X-2297986D1*
X-2283329Y5329391D1*
X-2276086Y5336635D1*
X-2268842Y5351122D1*
X-2254185Y5394922D1*
X-2246942Y5409578D1*
X-2239529Y5416822D1*
X-2225042Y5424066D1*
X-2203142D1*
X-2188654Y5409578D1*
X-2181242Y5387678D1*
Y5358534D1*
X-2188654Y5336635D1*
X-2203142Y5321978D1*
X-2297985Y5580456D2*
X-2312473Y5573212D1*
X-2327129Y5558556D1*
X-2334373Y5544069D1*
Y5514925D1*
X-2327129Y5500269D1*
X-2312473Y5485781D1*
X-2297985Y5478369D1*
X-2276085Y5471125D1*
X-2239529D1*
X-2217798Y5478368D1*
X-2203142Y5485781D1*
X-2188654Y5500268D1*
X-2181242Y5514925D1*
Y5544068D1*
X-2188654Y5558556D1*
X-2203142Y5573212D1*
X-2217798Y5580456D1*
X-2334373Y5627515D2*
X-2181242D1*
Y5714946D1*
X-2305061Y5762005D2*
X-2312473Y5776661D1*
X-2334205Y5798561D1*
X-2181242D1*
X-2593640Y5401996D2*
X-2608296Y5387508D1*
X-2615540Y5365608D1*
Y5336465D1*
X-2608296Y5314565D1*
X-2593640Y5299908D1*
X-2579152D1*
X-2564496Y5307321D1*
X-2557252Y5314565D1*
X-2550008Y5329052D1*
X-2535352Y5372852D1*
X-2528108Y5387508D1*
X-2520696Y5394752D1*
X-2506208Y5401996D1*
X-2484308D1*
X-2469821Y5387508D1*
X-2462408Y5365608D1*
Y5336464D1*
X-2469821Y5314565D1*
X-2484308Y5299908D1*
X-2615540Y5449055D2*
X-2462408D1*
Y5500098D1*
X-2469821Y5521998D1*
X-2484308Y5536655D1*
X-2498964Y5543898D1*
X-2520696Y5551142D1*
X-2557252D1*
X-2579152Y5543899D1*
X-2593640Y5536655D1*
X-2608296Y5521999D1*
X-2615540Y5500099D1*
Y5449055D1*
X-2462408Y5714945D2*
X-2615540Y5656489D1*
X-2462408Y5598201D1*
X-2513452Y5620101D2*
Y5693045D1*
X-2586227Y5762004D2*
X-2593640Y5776660D1*
X-2615371Y5798560D1*
X-2462408D1*
X-2896703Y5369202D2*
X-2743572Y5427489D1*
X-2896703Y5485777D1*
X-2860315Y5642167D2*
X-2874803Y5634923D1*
X-2889459Y5620267D1*
X-2896703Y5605780D1*
Y5576636D1*
X-2889459Y5561980D1*
X-2874803Y5547492D1*
X-2860315Y5540080D1*
X-2838415Y5532836D1*
X-2801859D1*
X-2780128Y5540080D1*
X-2765472Y5547492D1*
X-2750984Y5561979D1*
X-2743572Y5576636D1*
Y5605779D1*
X-2750984Y5620267D1*
X-2765472Y5634923D1*
X-2780128Y5642167D1*
X-2860315Y5798558D2*
X-2874803Y5791314D1*
X-2889459Y5776658D1*
X-2896703Y5762170D1*
Y5733026D1*
X-2889459Y5718370D1*
X-2874803Y5703882D1*
X-2860315Y5696470D1*
X-2838415Y5689226D1*
X-2801859D1*
X-2780128Y5696470D1*
X-2765472Y5703882D1*
X-2750984Y5718370D1*
X-2743572Y5733026D1*
Y5762170D1*
X-2750984Y5776657D1*
X-2765472Y5791314D1*
X-2780128Y5798557D1*
X-2138272Y6612471D2*
X-2058253D1*
X-2101885Y6554184D1*
X-2079985D1*
X-2065497Y6546940D1*
X-2058253Y6539696D1*
X-2050841Y6517796D1*
Y6503308D1*
X-2058253Y6481408D1*
X-2072741Y6466752D1*
X-2094641Y6459508D1*
X-2116541D1*
X-2138272Y6466752D1*
X-2145516Y6474165D1*
X-2152929Y6488652D1*
X-1996538Y6474165D2*
X-2003782Y6466752D1*
X-1996538Y6459508D1*
X-1989126Y6466752D1*
X-1996538Y6474165D1*
X-1927411Y6612471D2*
X-1847392D1*
X-1891023Y6554184D1*
X-1869123D1*
X-1854636Y6546940D1*
X-1847392Y6539696D1*
X-1839979Y6517796D1*
Y6503308D1*
X-1847392Y6481408D1*
X-1861879Y6466752D1*
X-1883779Y6459508D1*
X-1905679D1*
X-1927411Y6466752D1*
X-1934655Y6474165D1*
X-1942067Y6488652D1*
X-1792921Y6612640D2*
X-1734633Y6459508D1*
X-1676345Y6612640D1*
X-1854630Y6406098D2*
X-1927406D1*
X-1934650Y6340567D1*
X-1927406Y6347810D1*
X-1905506Y6355223D1*
X-1883774D1*
X-1861874Y6347810D1*
X-1847218Y6333323D1*
X-1839974Y6311423D1*
Y6296935D1*
X-1847218Y6275035D1*
X-1861874Y6260379D1*
X-1883774Y6253135D1*
X-1905506D1*
X-1927406Y6260379D1*
X-1934650Y6267791D1*
X-1942062Y6282279D1*
X-1792915Y6406267D2*
X-1734628Y6253135D1*
X-1676340Y6406267D1*
X122805Y8241306D2*
D178*
X113147Y8260623D1*
X93605Y8280165D1*
X74288Y8289823D1*
X35430D1*
X15888Y8280165D1*
X-3429Y8260623D1*
X-13312Y8241306D1*
X-22970Y8212106D1*
Y8163365D1*
X-13312Y8134389D1*
X-3429Y8114848D1*
X15888Y8095531D1*
X35430Y8085648D1*
X74288D1*
X93605Y8095531D1*
X113147Y8114848D1*
X122805Y8134389D1*
Y8163365D1*
X74288D1*
X321667Y8289823D2*
Y8085648D1*
X185550Y8289823D1*
Y8085648D1*
X384412Y8289823D2*
Y8085648D1*
X452471D1*
X481671Y8095531D1*
X501212Y8114848D1*
X510871Y8134389D1*
X520529Y8163365D1*
Y8212106D1*
X510871Y8241306D1*
X501212Y8260623D1*
X481671Y8280165D1*
X452471Y8289823D1*
X384412D1*
X857362Y8290592D2*
X760328D1*
X750669Y8203217D1*
X760328Y8212875D1*
X789528Y8222758D1*
X818503D1*
X847703Y8212875D1*
X867245Y8193558D1*
X876903Y8164358D1*
Y8145041D1*
X867245Y8115841D1*
X847703Y8096300D1*
X818503Y8086641D1*
X789528D1*
X760328Y8096300D1*
X750669Y8106183D1*
X740786Y8125500D1*
X939648Y8290817D2*
X1017365Y8086641D1*
X1095082Y8290817D1*
X-2315763Y847255D2*
D180*
Y719645D1*
X-2230690Y847255D2*
Y719645D1*
X-2315763Y786468D2*
X-2230690D1*
X-2191474Y847255D2*
X-2142901Y786468D1*
Y719645D1*
X-2094328Y847255D2*
X-2142901Y786468D1*
X-2055112Y780432D2*
X-2000362D1*
X-1982253Y786468D1*
X-1976076Y792645D1*
X-1970039Y804718D1*
Y822968D1*
X-1976076Y835041D1*
X-1982253Y841218D1*
X-2000362Y847255D1*
X-2055112D1*
Y719645D1*
X-1851927Y847255D2*
X-1930823D1*
Y719645D1*
X-1851927D1*
X-1930823Y786468D2*
X-1882250D1*
X-1812712D2*
X-1758102D1*
X-1739852Y792645D1*
X-1733675Y798682D1*
X-1727638Y810755D1*
Y822968D1*
X-1733675Y835041D1*
X-1739852Y841218D1*
X-1758102Y847255D1*
X-1812712D1*
Y719645D1*
X-1770175Y786468D2*
X-1727638Y719645D1*
X-1591277D2*
Y847255D1*
X-1639850Y719645D1*
X-1688423Y847255D1*
Y719645D1*
X-1454774D2*
X-1503488Y847255D1*
X-1552061Y719645D1*
X-1533811Y762182D2*
X-1473024D1*
X-1379059Y847255D2*
X-1391132Y841359D1*
X-1403345Y829145D1*
X-1409382Y816932D1*
X-1415559Y798682D1*
Y768359D1*
X-1409382Y750109D1*
X-1403345Y738036D1*
X-1391132Y725822D1*
X-1379059Y719786D1*
X-1354772D1*
X-1342559Y725822D1*
X-1330486Y738036D1*
X-1324449Y750109D1*
X-1318272Y768359D1*
Y798682D1*
X-1324449Y816932D1*
X-1330486Y829145D1*
X-1342559Y841359D1*
X-1354772Y847255D1*
X-1379059D1*
X-1360809Y744072D2*
X-1324449Y707572D1*
X-1137360Y847255D2*
Y743932D1*
X-1131323Y725822D1*
X-1119110Y719645D1*
X-1107037D1*
X-1155610Y804718D2*
X-1113073D1*
X-1037498D2*
X-1049571Y798682D1*
X-1061785Y786468D1*
X-1067821Y768218D1*
Y756145D1*
X-1061785Y737895D1*
X-1049571Y725822D1*
X-1037498Y719645D1*
X-1019248D1*
X-1007035Y725822D1*
X-994962Y737895D1*
X-988785Y756145D1*
Y768218D1*
X-994962Y786468D1*
X-1007035Y798682D1*
X-1019248Y804718D1*
X-1037498D1*
X-949569D2*
Y677109D1*
Y786468D2*
X-937356Y798541D1*
X-925283Y804718D1*
X-907033D1*
X-894819Y798541D1*
X-882746Y786468D1*
X-876569Y768218D1*
Y756005D1*
X-882746Y737895D1*
X-894819Y725682D1*
X-907033Y719645D1*
X-925283D1*
X-937356Y725682D1*
X-949569Y737895D1*
X-770530Y786468D2*
X-776567Y798682D1*
X-794817Y804718D1*
X-813067D1*
X-831317Y798682D1*
X-837353Y786468D1*
X-831317Y774395D1*
X-819103Y768218D1*
X-788780Y762182D1*
X-776567Y756145D1*
X-770530Y743932D1*
Y737895D1*
X-776567Y725822D1*
X-794817Y719645D1*
X-813067D1*
X-831317Y725822D1*
X-837353Y737895D1*
X-731315Y847255D2*
X-725278Y841218D1*
X-719101Y847255D1*
X-725278Y853432D1*
X-731315Y847255D1*
X-725278Y804718D2*
Y719645D1*
X-607026Y847255D2*
Y719645D1*
Y786468D2*
X-619099Y798682D1*
X-631312Y804718D1*
X-649562D1*
X-661635Y798682D1*
X-673849Y786468D1*
X-679885Y768218D1*
Y756145D1*
X-673849Y737895D1*
X-661635Y725822D1*
X-649562Y719645D1*
X-631312D1*
X-619099Y725822D1*
X-607026Y737895D1*
X-567810Y768218D2*
X-494951D1*
Y780432D1*
X-500987Y792645D1*
X-507024Y798682D1*
X-519237Y804718D1*
X-537487D1*
X-549560Y798682D1*
X-561774Y786468D1*
X-567810Y768218D1*
Y756145D1*
X-561774Y737895D1*
X-549560Y725822D1*
X-537487Y719645D1*
X-519237D1*
X-507024Y725822D1*
X-494951Y737895D1*
X-332288Y847255D2*
Y719645D1*
Y786468D2*
X-320075Y798682D1*
X-308002Y804718D1*
X-289752D1*
X-277679Y798682D1*
X-265465Y786468D1*
X-259429Y768218D1*
Y756145D1*
X-265465Y737895D1*
X-277679Y725822D1*
X-289752Y719645D1*
X-308002D1*
X-320075Y725822D1*
X-332288Y737895D1*
X-189890Y804718D2*
X-201963Y798682D1*
X-214177Y786468D1*
X-220213Y768218D1*
Y756145D1*
X-214177Y737895D1*
X-201963Y725822D1*
X-189890Y719645D1*
X-171640D1*
X-159427Y725822D1*
X-147353Y737895D1*
X-141177Y756145D1*
Y768218D1*
X-147353Y786468D1*
X-159427Y798682D1*
X-171640Y804718D1*
X-189890D1*
X-29101D2*
Y719645D1*
Y786468D2*
X-41174Y798682D1*
X-53388Y804718D1*
X-71497D1*
X-83711Y798682D1*
X-95784Y786468D1*
X-101961Y768218D1*
Y756145D1*
X-95784Y737895D1*
X-83711Y725822D1*
X-71497Y719645D1*
X-53388D1*
X-41174Y725822D1*
X-29101Y737895D1*
X10114Y804718D2*
Y719645D1*
Y768218D2*
X16291Y786468D1*
X28364Y798682D1*
X40578Y804718D1*
X58828D1*
X170903Y847255D2*
Y719645D1*
Y786468D2*
X158830Y798682D1*
X146617Y804718D1*
X128367D1*
X116294Y798682D1*
X104080Y786468D1*
X98044Y768218D1*
Y756145D1*
X104080Y737895D1*
X116294Y725822D1*
X128367Y719645D1*
X146617D1*
X158830Y725822D1*
X170903Y737895D1*
X-2013645Y621350D2*
D179*
X-1955358Y468218D1*
X-1897070Y621350D1*
X-1806211Y621181D2*
X-1828111Y613938D1*
X-1842767Y592038D1*
X-1850011Y555650D1*
Y533750D1*
X-1842767Y497362D1*
X-1828111Y475462D1*
X-1806211Y468218D1*
X-1791723D1*
X-1769823Y475462D1*
X-1755336Y497362D1*
X-1747923Y533750D1*
Y555650D1*
X-1755336Y592038D1*
X-1769823Y613938D1*
X-1791723Y621181D1*
X-1806211D1*
X-1755336Y592038D2*
X-1842767Y497362D1*
X-1693621Y482875D2*
X-1700865Y475462D1*
X-1693621Y468218D1*
X-1686208Y475462D1*
X-1693621Y482875D1*
X-1566206Y468218D2*
Y621181D1*
X-1639150Y519262D1*
X-1529818D1*
X-1468103Y475462D2*
X-1475515Y468218D1*
X-1482759Y475462D1*
X-1475515Y482875D1*
X-1468103Y475462D1*
Y460975D1*
X-1475515Y446318D1*
X-1482759Y439075D1*
X-1272909Y621350D2*
X-1214621Y468218D1*
X-1156333Y621350D1*
X-1109274D2*
Y468218D1*
X-1021843D1*
X-974784Y621350D2*
Y468218D1*
X-927725Y621350D2*
X-825637D1*
X-927725Y468218D1*
X-825637D1*
X-623031Y584794D2*
Y592038D1*
X-615787Y606694D1*
X-608543Y613938D1*
X-593887Y621181D1*
X-564743D1*
X-550255Y613938D1*
X-543011Y606694D1*
X-535599Y592038D1*
Y577550D1*
X-543011Y562894D1*
X-557499Y541162D1*
X-630443Y468218D1*
X-528355D1*
X-437496Y621181D2*
X-459396Y613938D1*
X-474052Y592038D1*
X-481296Y555650D1*
Y533750D1*
X-474052Y497362D1*
X-459396Y475462D1*
X-437496Y468218D1*
X-423009D1*
X-401109Y475462D1*
X-386621Y497362D1*
X-379209Y533750D1*
Y555650D1*
X-386621Y592038D1*
X-401109Y613938D1*
X-423009Y621181D1*
X-437496D1*
X-386621Y592038D2*
X-474052Y497362D1*
X-324738Y584794D2*
Y592038D1*
X-317494Y606694D1*
X-310250Y613938D1*
X-295594Y621181D1*
X-266450D1*
X-251962Y613938D1*
X-244718Y606694D1*
X-237306Y592038D1*
Y577550D1*
X-244718Y562894D1*
X-259206Y541162D1*
X-332150Y468218D1*
X-230062D1*
X-139203Y621181D2*
X-161103Y613938D1*
X-175759Y592038D1*
X-183003Y555650D1*
Y533750D1*
X-175759Y497362D1*
X-161103Y475462D1*
X-139203Y468218D1*
X-124716D1*
X-102816Y475462D1*
X-88328Y497362D1*
X-80916Y533750D1*
Y555650D1*
X-88328Y592038D1*
X-102816Y613938D1*
X-124716Y621181D1*
X-139203D1*
X-88328Y592038D2*
X-175759Y497362D1*
X-995105Y8883492D2*
D178*
X-1092139D1*
X-1101797Y8796117D1*
X-1092139Y8805775D1*
X-1062939Y8815658D1*
X-1033963D1*
X-1004763Y8805775D1*
X-985222Y8786458D1*
X-975563Y8757258D1*
Y8737941D1*
X-985222Y8708741D1*
X-1004763Y8689200D1*
X-1033963Y8679541D1*
X-1062939D1*
X-1092139Y8689200D1*
X-1101797Y8699083D1*
X-1111680Y8718400D1*
X-912818Y8883717D2*
X-835101Y8679541D1*
X-757385Y8883717D1*
X-351350Y8835200D2*
X-361008Y8854517D1*
X-380550Y8874058D1*
X-399867Y8883717D1*
X-438725D1*
X-458267Y8874058D1*
X-477584Y8854517D1*
X-487467Y8835200D1*
X-497125Y8806000D1*
Y8757258D1*
X-487467Y8728283D1*
X-477584Y8708741D1*
X-458267Y8689424D1*
X-438725Y8679541D1*
X-399867D1*
X-380550Y8689424D1*
X-361008Y8708741D1*
X-351350Y8728283D1*
X-132946Y8679541D2*
X-210888Y8883717D1*
X-288605Y8679541D1*
X-259405Y8747600D2*
X-162146D1*
X85233Y8679541D2*
Y8883717D1*
X7516Y8679541D1*
X-70201Y8883717D1*
Y8679541D1*
X403892Y8883717D2*
X384351Y8874058D1*
X365034Y8854517D1*
X355151Y8835200D1*
X345492Y8806000D1*
Y8757258D1*
X355151Y8728283D1*
X365034Y8708741D1*
X384351Y8689424D1*
X403892Y8679541D1*
X442751D1*
X462068Y8689424D1*
X481609Y8708741D1*
X491268Y8728283D1*
X500926Y8757258D1*
Y8806000D1*
X491268Y8835200D1*
X481609Y8854517D1*
X462068Y8874058D1*
X442751Y8883717D1*
X403892D1*
X563671D2*
Y8737941D1*
X573330Y8708741D1*
X592871Y8689424D1*
X622071Y8679541D1*
X641388D1*
X670588Y8689424D1*
X690130Y8708741D1*
X699788Y8737941D1*
Y8883717D1*
X830592D2*
Y8679541D1*
X762533Y8883717D2*
X898650D1*
X-907724Y8566213D2*
X-927265Y8556555D1*
X-946582Y8537013D1*
X-956465Y8517696D1*
X-966124Y8488496D1*
Y8439755D1*
X-956465Y8410779D1*
X-946582Y8391238D1*
X-927265Y8371921D1*
X-907724Y8362038D1*
X-868865D1*
X-849548Y8371921D1*
X-830007Y8391238D1*
X-820348Y8410779D1*
X-810690Y8439755D1*
Y8488496D1*
X-820348Y8517696D1*
X-830007Y8537013D1*
X-849548Y8556555D1*
X-868865Y8566213D1*
X-907724D1*
X-611828D2*
Y8362038D1*
X-747945Y8566213D1*
Y8362038D1*
X-549083Y8566213D2*
Y8362038D1*
X-432507D1*
X-369762Y8566213D2*
X-292045Y8468955D1*
Y8362038D1*
X-214328Y8566213D2*
X-292045Y8468955D1*
X45931Y8459296D2*
X133531D1*
X162506Y8468955D1*
X172389Y8478838D1*
X182048Y8498155D1*
Y8527355D1*
X172389Y8546672D1*
X162506Y8556555D1*
X133531Y8566213D1*
X45931D1*
Y8362038D1*
X244793Y8566213D2*
X293535Y8362038D1*
X342051Y8566213D1*
X390568Y8362038D1*
X439310Y8566213D1*
X502055Y8468955D2*
X589430D1*
X618630Y8478838D1*
X628513Y8488496D1*
X638172Y8507813D1*
Y8527355D1*
X628513Y8546672D1*
X618630Y8556555D1*
X589430Y8566213D1*
X502055D1*
Y8362038D1*
X570113Y8468955D2*
X638172Y8362038D1*
X2164449Y613811D2*
D181*
X2181548Y622458D1*
X2207098Y647812D1*
Y469355D1*
X2313100Y647812D2*
X2287550Y639361D1*
X2270451Y613811D1*
X2262000Y571358D1*
Y545808D1*
X2270451Y503356D1*
X2287550Y477806D1*
X2313100Y469355D1*
X2330002D1*
X2355552Y477806D1*
X2372454Y503356D1*
X2381102Y545808D1*
Y571358D1*
X2372454Y613811D1*
X2355552Y639361D1*
X2330002Y647812D1*
X2313100D1*
X2372454Y613811D2*
X2270451Y503356D1*
X2436004Y558583D2*
X2534273D1*
X2597823Y605359D2*
Y613811D1*
X2606274Y630909D1*
X2614725Y639361D1*
X2631824Y647812D1*
X2665825D1*
X2682727Y639361D1*
X2691179Y630909D1*
X2699826Y613811D1*
Y596908D1*
X2691179Y579809D1*
X2674276Y554456D1*
X2589175Y469355D1*
X2708277D1*
X2865183Y622458D2*
X2856732Y639361D1*
X2831182Y647812D1*
X2814279D1*
X2788729Y639361D1*
X2771631Y613811D1*
X2763179Y571358D1*
Y528906D1*
X2771631Y494905D1*
X2788729Y477806D1*
X2814279Y469355D1*
X2822731D1*
X2848084Y477806D1*
X2865183Y494905D1*
X2873634Y520455D1*
Y528906D1*
X2865183Y554456D1*
X2848084Y571358D1*
X2822731Y579809D1*
X2814279D1*
X2788729Y571358D1*
X2771631Y554456D1*
X2763179Y528906D1*
X2928536Y648008D2*
X2996538Y469355D1*
X3064541Y648008D1*
X-4781352Y2228893D2*
D178*
X-4791010Y2248210D1*
X-4810552Y2267751D1*
X-4829869Y2277410D1*
X-4868727D1*
X-4888269Y2267751D1*
X-4907586Y2248210D1*
X-4917469Y2228893D1*
X-4927127Y2199693D1*
Y2150951D1*
X-4917469Y2121976D1*
X-4907586Y2102434D1*
X-4888269Y2083118D1*
X-4868727Y2073234D1*
X-4829869D1*
X-4810552Y2083118D1*
X-4791010Y2102434D1*
X-4781352Y2121976D1*
Y2150951D1*
X-4829869D1*
X-4582490Y2277410D2*
Y2073234D1*
X-4718607Y2277410D1*
Y2073234D1*
X-4519745Y2277410D2*
Y2073234D1*
X-4451686D1*
X-4422486Y2083118D1*
X-4402945Y2102434D1*
X-4393286Y2121976D1*
X-4383628Y2150951D1*
Y2199693D1*
X-4393286Y2228893D1*
X-4402945Y2248210D1*
X-4422486Y2267751D1*
X-4451686Y2277410D1*
X-4519745D1*
X-4767172Y1162605D2*
X-4777055Y1133405D1*
X-4796372Y1113863D1*
X-4825572Y1104205D1*
X-4835230D1*
X-4864430Y1113863D1*
X-4883747Y1133405D1*
X-4893630Y1162605D1*
Y1172263D1*
X-4883747Y1201463D1*
X-4864430Y1220780D1*
X-4835230Y1230439D1*
X-4825572D1*
X-4796372Y1220780D1*
X-4777055Y1201463D1*
X-4767172Y1162605D1*
Y1113863D1*
X-4777055Y1065346D1*
X-4796372Y1036146D1*
X-4825572Y1026488D1*
X-4844889D1*
X-4874089Y1036146D1*
X-4883747Y1055688D1*
X-4704427Y1230663D2*
X-4626710Y1026488D1*
X-4548993Y1230663D1*
X-2469857Y8666171D2*
X-2450540Y8675830D1*
X-2430999Y8695371D1*
X-2421340Y8714688D1*
Y8753547D1*
X-2430999Y8773088D1*
X-2450540Y8792405D1*
X-2469857Y8802288D1*
X-2499057Y8811947D1*
X-2547799D1*
X-2576774Y8802288D1*
X-2596316Y8792405D1*
X-2615633Y8773088D1*
X-2625516Y8753547D1*
Y8714688D1*
X-2615633Y8695372D1*
X-2596316Y8675830D1*
X-2576774Y8666172D1*
X-2547799Y8666171D1*
Y8714688D1*
X-2421340Y8467310D2*
X-2625516D1*
X-2421340Y8603426D1*
X-2625516Y8603427D1*
X-2421340Y8404564D2*
X-2625516Y8404565D1*
Y8336506D1*
X-2615632Y8307306D1*
X-2596316Y8287765D1*
X-2576774Y8278106D1*
X-2547799Y8268448D1*
X-2499057D1*
X-2469857Y8278106D1*
X-2450540Y8287764D1*
X-2430999Y8307306D1*
X-2421340Y8336506D1*
Y8404564D1*
X-5207045Y6628330D2*
X-5216703Y6647647D1*
X-5236245Y6667188D1*
X-5255562Y6676847D1*
X-5294420D1*
X-5313962Y6667188D1*
X-5333279Y6647647D1*
X-5343162Y6628330D1*
X-5352820Y6599130D1*
Y6550388D1*
X-5343162Y6521413D1*
X-5333279Y6501871D1*
X-5313962Y6482554D1*
X-5294420Y6472671D1*
X-5255562D1*
X-5236245Y6482554D1*
X-5216703Y6501871D1*
X-5207045Y6521413D1*
Y6550388D1*
X-5255562D1*
X-5008183Y6676847D2*
Y6472671D1*
X-5144300Y6676847D1*
Y6472671D1*
X-4945438Y6676847D2*
Y6472671D1*
X-4877379D1*
X-4848179Y6482554D1*
X-4828638Y6501871D1*
X-4818979Y6521413D1*
X-4809321Y6550388D1*
Y6599130D1*
X-4818979Y6628330D1*
X-4828638Y6647647D1*
X-4848179Y6667188D1*
X-4877379Y6676847D1*
X-4945438D1*
X466448Y5104513D2*
D179*
Y4951382D1*
X532148D1*
X554048Y4958794D1*
X561292Y4966038D1*
X568536Y4980526D1*
Y5002426D1*
X561292Y5017082D1*
X554048Y5024326D1*
X532148Y5031569D1*
X554048Y5038982D1*
X561292Y5046226D1*
X568536Y5060713D1*
Y5075369D1*
X561292Y5089857D1*
X554048Y5097269D1*
X532148Y5104513D1*
X466448D1*
Y5031569D2*
X532148D1*
X659395Y5104513D2*
X644738Y5097269D1*
X630251Y5082613D1*
X622838Y5068126D1*
X615595Y5046226D1*
Y5009669D1*
X622838Y4987938D1*
X630251Y4973282D1*
X644738Y4958794D1*
X659395Y4951382D1*
X688538D1*
X703026Y4958794D1*
X717682Y4973282D1*
X724926Y4987938D1*
X732170Y5009669D1*
Y5046226D1*
X724926Y5068126D1*
X717682Y5082613D1*
X703026Y5097269D1*
X688538Y5104513D1*
X659395D1*
X830273D2*
Y4951382D1*
X779229Y5104513D2*
X881316D1*
X979419D2*
Y4951382D1*
X928375Y5104513D2*
X1030463D1*
X1121322D2*
X1106666Y5097269D1*
X1092178Y5082613D1*
X1084766Y5068126D1*
X1077522Y5046226D1*
Y5009669D1*
X1084766Y4987938D1*
X1092178Y4973282D1*
X1106666Y4958794D1*
X1121322Y4951382D1*
X1150466D1*
X1164953Y4958794D1*
X1179609Y4973282D1*
X1186853Y4987938D1*
X1194097Y5009669D1*
Y5046226D1*
X1186853Y5068126D1*
X1179609Y5082613D1*
X1164953Y5097269D1*
X1150466Y5104513D1*
X1121322D1*
X1357731Y4951382D2*
Y5104513D1*
X1299444Y4951382D1*
X1241156Y5104513D1*
Y4951382D1*
X707995Y4787017D2*
Y4633885D1*
X656951Y4787017D2*
X759039D1*
X849898D2*
X835242Y4779773D1*
X820754Y4765117D1*
X813342Y4750629D1*
X806098Y4728729D1*
Y4692173D1*
X813342Y4670441D1*
X820754Y4655785D1*
X835242Y4641297D1*
X849898Y4633885D1*
X879042D1*
X893529Y4641297D1*
X908186Y4655785D1*
X915429Y4670441D1*
X922673Y4692173D1*
Y4728729D1*
X915429Y4750629D1*
X908186Y4765117D1*
X893529Y4779773D1*
X879042Y4787017D1*
X849898D1*
X969732Y4706829D2*
X1035432D1*
X1057164Y4714073D1*
X1064576Y4721485D1*
X1071820Y4735973D1*
Y4757873D1*
X1064576Y4772360D1*
X1057164Y4779773D1*
X1035432Y4787017D1*
X969732D1*
Y4633885D1*
X-36100Y3506758D2*
Y3659890D1*
X-94388Y3506758D1*
X-152675Y3659890D1*
Y3506758D1*
X10959Y3659890D2*
Y3550558D1*
X18203Y3528658D1*
X32859Y3514171D1*
X54759Y3506758D1*
X69247D1*
X91147Y3514171D1*
X105803Y3528658D1*
X113047Y3550558D1*
Y3659890D1*
X160105D2*
X262193Y3506758D1*
Y3659890D2*
X160105Y3506758D1*
X-50588Y3352237D2*
X-65075Y3366893D1*
X-86975Y3374137D1*
X-116119D1*
X-138019Y3366893D1*
X-152675Y3352237D1*
Y3337749D1*
X-145263Y3323093D1*
X-138019Y3315849D1*
X-123531Y3308605D1*
X-79731Y3293949D1*
X-65075Y3286705D1*
X-57831Y3279293D1*
X-50588Y3264805D1*
Y3242905D1*
X-65075Y3228417D1*
X-86975Y3221005D1*
X-116119D1*
X-138019Y3228417D1*
X-152675Y3242905D1*
X91147Y3374137D2*
X-3529D1*
Y3221005D1*
X91147D1*
X-3529Y3301193D2*
X54759D1*
X240293Y3374137D2*
Y3221005D1*
X138205Y3374137D1*
Y3221005D1*
X389440Y3352237D2*
X374952Y3366893D1*
X353052Y3374137D1*
X323908D1*
X302008Y3366893D1*
X287352Y3352237D1*
Y3337749D1*
X294764Y3323093D1*
X302008Y3315849D1*
X316496Y3308605D1*
X360296Y3293949D1*
X374952Y3286705D1*
X382196Y3279293D1*
X389440Y3264805D1*
Y3242905D1*
X374952Y3228417D1*
X353052Y3221005D1*
X323908D1*
X302008Y3228417D1*
X287352Y3242905D1*
X-152675Y3840946D2*
X-87144D1*
X-65244Y3848358D1*
X-57831Y3855602D1*
X-50588Y3870090D1*
Y3884746D1*
X-57831Y3899234D1*
X-65244Y3906646D1*
X-87144Y3913890D1*
X-152675D1*
Y3760758D1*
X-101631Y3840946D2*
X-50588Y3760758D1*
X-3529Y3913890D2*
X98559Y3760758D1*
Y3913890D2*
X-3529Y3760758D1*
X153030Y3862846D2*
X145618Y3855434D1*
X153030Y3848190D1*
X160274Y3855434D1*
X153030Y3862846D1*
Y3775415D2*
X145618Y3768002D1*
X153030Y3760758D1*
X160274Y3768002D1*
X153030Y3775415D1*
X-5562134Y5196398D2*
D178*
X-5474758D1*
X-5445558Y5206281D1*
X-5435675Y5215940D1*
X-5426017Y5235257D1*
Y5254798D1*
X-5435675Y5274115D1*
X-5445558Y5283998D1*
X-5474758Y5293657D1*
X-5562134D1*
Y5089481D1*
X-5494075Y5196398D2*
X-5426017Y5089481D1*
X-5207613D2*
X-5285555Y5293657D1*
X-5363272Y5089481D1*
X-5334072Y5157540D2*
X-5236813D1*
X-5144868Y5293657D2*
Y5089481D1*
X-5076810D1*
X-5047610Y5099364D1*
X-5028068Y5118681D1*
X-5018410Y5138223D1*
X-5008751Y5167198D1*
Y5215940D1*
X-5018410Y5245140D1*
X-5028068Y5264457D1*
X-5047610Y5283998D1*
X-5076810Y5293657D1*
X-5144868D1*
X-4680433Y5346890D2*
X-4699975Y5327573D1*
X-4719292Y5298373D1*
X-4738833Y5259515D1*
X-4748492Y5210773D1*
Y5171915D1*
X-4738833Y5123398D1*
X-4719292Y5084540D1*
X-4699975Y5055340D1*
X-4680433Y5036023D1*
X-4617688Y5254573D2*
X-4598147Y5264457D1*
X-4568947Y5293432D1*
Y5089481D1*
X-4506202Y5346890D2*
X-4486660Y5327573D1*
X-4467343Y5298373D1*
X-4447802Y5259515D1*
X-4438143Y5210773D1*
Y5171915D1*
X-4447802Y5123398D1*
X-4467343Y5084540D1*
X-4486660Y5055340D1*
X-4506202Y5036023D1*
X-5546254Y2706033D2*
Y2501858D1*
X-5483509Y2608775D2*
X-5396133D1*
X-5366933Y2618658D1*
X-5357050Y2628316D1*
X-5347392Y2647633D1*
Y2667175D1*
X-5357050Y2686492D1*
X-5366933Y2696375D1*
X-5396133Y2706033D1*
X-5483509D1*
Y2501858D1*
X-5415450Y2608775D2*
X-5347392Y2501858D1*
X-5284647Y2608775D2*
X-5197271D1*
X-5168071Y2618658D1*
X-5158188Y2628316D1*
X-5148530Y2647633D1*
Y2667175D1*
X-5158188Y2686492D1*
X-5168071Y2696375D1*
X-5197271Y2706033D1*
X-5284647D1*
Y2501858D1*
X-5216588Y2608775D2*
X-5148530Y2501858D1*
X-4820212Y2759267D2*
X-4839753Y2739950D1*
X-4859070Y2710750D1*
X-4878612Y2671892D1*
X-4888270Y2623150D1*
Y2584292D1*
X-4878612Y2535775D1*
X-4859070Y2496916D1*
X-4839753Y2467716D1*
X-4820212Y2448399D1*
X-4747584Y2657292D2*
Y2666950D1*
X-4737925Y2686492D1*
X-4728267Y2696150D1*
X-4708725Y2705809D1*
X-4669867D1*
X-4650550Y2696150D1*
X-4640891Y2686492D1*
X-4631008Y2666950D1*
Y2647633D1*
X-4640891Y2628092D1*
X-4660208Y2599116D1*
X-4757467Y2501858D1*
X-4621350D1*
X-4558605Y2759267D2*
X-4539063Y2739950D1*
X-4519746Y2710750D1*
X-4500205Y2671892D1*
X-4490546Y2623150D1*
Y2584292D1*
X-4500205Y2535775D1*
X-4519746Y2496916D1*
X-4539063Y2467716D1*
X-4558605Y2448399D1*
X-2641130Y6770030D2*
Y6565854D1*
X-2568502Y6721288D2*
Y6730947D1*
X-2558844Y6750488D1*
X-2549185Y6760147D1*
X-2529644Y6769805D1*
X-2490785D1*
X-2471468Y6760147D1*
X-2461810Y6750488D1*
X-2451927Y6730947D1*
Y6711630D1*
X-2461810Y6692088D1*
X-2481127Y6663113D1*
X-2578385Y6565854D1*
X-2442268D1*
X-2233748Y6721513D2*
X-2243406Y6740830D1*
X-2262948Y6760371D1*
X-2282265Y6770030D1*
X-2321123D1*
X-2340665Y6760371D1*
X-2359982Y6740830D1*
X-2369865Y6721513D1*
X-2379523Y6692313D1*
Y6643571D1*
X-2369865Y6614596D1*
X-2359982Y6595054D1*
X-2340665Y6575738D1*
X-2321123Y6565854D1*
X-2282265D1*
X-2262948Y6575738D1*
X-2243406Y6595054D1*
X-2233748Y6614596D1*
X-2025925Y2484329D2*
D179*
X-1960225D1*
X-1938494Y2491573D1*
X-1931081Y2498985D1*
X-1923838Y2513473D1*
Y2535373D1*
X-1931081Y2549860D1*
X-1938494Y2557273D1*
X-1960225Y2564517D1*
X-2025925D1*
Y2411385D1*
X-1876779Y2491573D2*
X-1811247D1*
X-1789347Y2498985D1*
X-1781935Y2506229D1*
X-1774691Y2520717D1*
Y2535373D1*
X-1781935Y2549860D1*
X-1789347Y2557273D1*
X-1811247Y2564517D1*
X-1876779D1*
Y2411385D1*
X-1825735Y2491573D2*
X-1774691Y2411385D1*
X-1683832Y2564517D2*
X-1698488Y2557273D1*
X-1712976Y2542617D1*
X-1720388Y2528129D1*
X-1727632Y2506229D1*
Y2469673D1*
X-1720388Y2447941D1*
X-1712976Y2433285D1*
X-1698488Y2418797D1*
X-1683832Y2411385D1*
X-1654688D1*
X-1640201Y2418797D1*
X-1625545Y2433285D1*
X-1618301Y2447941D1*
X-1611057Y2469673D1*
Y2506229D1*
X-1618301Y2528129D1*
X-1625545Y2542617D1*
X-1640201Y2557273D1*
X-1654688Y2564517D1*
X-1683832D1*
X-1454667Y2528129D2*
X-1461910Y2542617D1*
X-1476567Y2557273D1*
X-1491054Y2564517D1*
X-1520198D1*
X-1534854Y2557273D1*
X-1549342Y2542617D1*
X-1556754Y2528129D1*
X-1563998Y2506229D1*
Y2469673D1*
X-1556754Y2447941D1*
X-1549342Y2433285D1*
X-1534854Y2418797D1*
X-1520198Y2411385D1*
X-1491054D1*
X-1476567Y2418797D1*
X-1461910Y2433285D1*
X-1454667Y2447941D1*
Y2469673D1*
X-1491054D1*
X-1930679Y2777323D2*
X-1865147D1*
X-1843247Y2784735D1*
X-1835835Y2791979D1*
X-1828591Y2806467D1*
Y2821123D1*
X-1835835Y2835610D1*
X-1843247Y2843023D1*
X-1865147Y2850267D1*
X-1930679D1*
Y2697135D1*
X-1879635Y2777323D2*
X-1828591Y2697135D1*
X-1781532Y2850267D2*
Y2740935D1*
X-1774288Y2719035D1*
X-1759632Y2704547D1*
X-1737732Y2697135D1*
X-1723244D1*
X-1701344Y2704547D1*
X-1686688Y2719035D1*
X-1679444Y2740935D1*
Y2850267D1*
X-1530298D2*
Y2697135D1*
X-1632386Y2850267D1*
Y2697135D1*
X949518Y1308146D2*
D178*
X939860Y1327463D1*
X920318Y1347005D1*
X901001Y1356663D1*
X862143D1*
X842601Y1347005D1*
X823284Y1327463D1*
X813401Y1308146D1*
X803743Y1278946D1*
Y1230205D1*
X813401Y1201229D1*
X823284Y1181688D1*
X842601Y1162371D1*
X862143Y1152488D1*
X901001D1*
X920318Y1162371D1*
X939860Y1181688D1*
X949518Y1201229D1*
Y1230205D1*
X901001D1*
X1148380Y1356663D2*
Y1152488D1*
X1012263Y1356663D1*
Y1152488D1*
X1211125Y1356663D2*
Y1152488D1*
X1279184D1*
X1308384Y1162371D1*
X1327925Y1181688D1*
X1337584Y1201229D1*
X1347242Y1230205D1*
Y1278946D1*
X1337584Y1308146D1*
X1327925Y1327463D1*
X1308384Y1347005D1*
X1279184Y1356663D1*
X1211125D1*
X1535746Y1373533D2*
X1613463Y1169358D1*
X1691180Y1373533D1*
X1870725Y1276275D2*
X1851184Y1295816D1*
X1831642Y1305475D1*
X1802667D1*
X1783125Y1295816D1*
X1763808Y1276275D1*
X1753925Y1247075D1*
Y1227758D1*
X1763808Y1198558D1*
X1783125Y1179241D1*
X1802667Y1169358D1*
X1831642D1*
X1851184Y1179241D1*
X1870725Y1198558D1*
X2050270Y1276275D2*
X2030729Y1295816D1*
X2011187Y1305475D1*
X1982212D1*
X1962670Y1295816D1*
X1943353Y1276275D1*
X1933470Y1247075D1*
Y1227758D1*
X1943353Y1198558D1*
X1962670Y1179241D1*
X1982212Y1169358D1*
X2011187D1*
X2030729Y1179241D1*
X2050270Y1198558D1*
X-4403257Y6008030D2*
Y5862254D1*
X-4393599Y5833054D1*
X-4374057Y5813738D1*
X-4344857Y5803854D1*
X-4325540D1*
X-4296340Y5813738D1*
X-4276799Y5833054D1*
X-4267140Y5862254D1*
Y6008030D1*
X-4204395Y5901113D2*
X-4116795D1*
X-4087820Y5910771D1*
X-4077937Y5920654D1*
X-4068278Y5939971D1*
Y5969171D1*
X-4077937Y5988488D1*
X-4087820Y5998371D1*
X-4116795Y6008030D1*
X-4204395D1*
Y5803854D1*
X-4005533Y6008030D2*
Y5803854D1*
X-3937475D1*
X-3908275Y5813738D1*
X-3888733Y5833054D1*
X-3879075Y5852596D1*
X-3869416Y5881571D1*
Y5930313D1*
X-3879075Y5959513D1*
X-3888733Y5978830D1*
X-3908275Y5998371D1*
X-3937475Y6008030D1*
X-4005533D1*
X-3651013Y5803854D2*
X-3728954Y6008030D1*
X-3806671Y5803854D1*
X-3777471Y5871913D2*
X-3680213D1*
X-3520209Y6008030D2*
Y5803854D1*
X-3588267Y6008030D2*
X-3452151D1*
X-3263172D2*
X-3389405D1*
Y5803854D1*
X-3263172D1*
X-3389405Y5910771D2*
X-3311688D1*
X-3056923Y8917908D2*
Y9122083D1*
X-3134640Y8917908D1*
X-3212357Y9122083D1*
Y8917908D1*
X-2994178Y9122083D2*
Y8976308D1*
X-2984520Y8947108D1*
X-2964978Y8927791D1*
X-2935778Y8917908D1*
X-2916461D1*
X-2887261Y8927791D1*
X-2867720Y8947108D1*
X-2858061Y8976308D1*
Y9122083D1*
X-2795316D2*
X-2659199Y8917908D1*
Y9122083D2*
X-2795316Y8917908D1*
X-5835095Y6899228D2*
X-5913037Y7103403D1*
X-5990754Y6899228D1*
X-5961554Y6967286D2*
X-5864295D1*
X-5772350Y7103403D2*
Y6957628D1*
X-5762692Y6928428D1*
X-5743150Y6909111D1*
X-5713950Y6899228D1*
X-5694633D1*
X-5665433Y6909111D1*
X-5645892Y6928428D1*
X-5636233Y6957628D1*
Y7103403D1*
X-5573488D2*
X-5437371Y6899228D1*
Y7103403D2*
X-5573488Y6899228D1*
X-5109053Y7156637D2*
X-5128595Y7137320D1*
X-5147912Y7108120D1*
X-5167453Y7069262D1*
X-5177112Y7020520D1*
Y6981662D1*
X-5167453Y6933145D1*
X-5147912Y6894286D1*
X-5128595Y6865086D1*
X-5109053Y6845769D1*
X-4949050Y6899228D2*
Y7103179D1*
X-5046308Y6967286D1*
X-4900533D1*
X-4837788Y7156637D2*
X-4818246Y7137320D1*
X-4798929Y7108120D1*
X-4779388Y7069262D1*
X-4769729Y7020520D1*
Y6981662D1*
X-4779388Y6933145D1*
X-4798929Y6894286D1*
X-4818246Y6865086D1*
X-4837788Y6845769D1*
X2082860Y2343457D2*
X2063543Y2362998D1*
X2034343Y2372657D1*
X1995484D1*
X1966284Y2362998D1*
X1946743Y2343457D1*
Y2324140D1*
X1956626Y2304598D1*
X1966284Y2294940D1*
X1985601Y2285281D1*
X2044001Y2265740D1*
X2063543Y2256081D1*
X2073201Y2246198D1*
X2082860Y2226881D1*
Y2197681D1*
X2063543Y2178364D1*
X2034343Y2168481D1*
X1995484D1*
X1966284Y2178364D1*
X1946743Y2197681D1*
X2145605Y2265740D2*
X2233205D1*
X2262180Y2275398D1*
X2272063Y2285281D1*
X2281722Y2304598D1*
Y2333798D1*
X2272063Y2353115D1*
X2262180Y2362998D1*
X2233205Y2372657D1*
X2145605D1*
Y2168481D1*
X2344467Y2372657D2*
Y2168481D1*
X-1110407Y5001752D2*
D179*
X-957275D1*
Y5067452D1*
X-964687Y5089351D1*
X-971931Y5096595D1*
X-986419Y5103839D1*
X-1008319D1*
X-1022975Y5096595D1*
X-1030219Y5089352D1*
X-1037463Y5067452D1*
X-1044875Y5089352D1*
X-1052119Y5096595D1*
X-1066606Y5103839D1*
X-1081263D1*
X-1095750Y5096595D1*
X-1103163Y5089352D1*
X-1110406Y5067452D1*
X-1110407Y5001752D1*
X-1037463D2*
Y5067452D1*
X-1110406Y5194698D2*
X-1103163Y5180042D1*
X-1088506Y5165554D1*
X-1074019Y5158142D1*
X-1052119Y5150898D1*
X-1015563D1*
X-993831Y5158142D1*
X-979175Y5165554D1*
X-964687Y5180042D1*
X-957275Y5194698D1*
Y5223842D1*
X-964687Y5238329D1*
X-979175Y5252986D1*
X-993831Y5260229D1*
X-1015563Y5267473D1*
X-1052119D1*
X-1074019Y5260230D1*
X-1088506Y5252986D1*
X-1103163Y5238330D1*
X-1110406Y5223842D1*
Y5194698D1*
Y5358332D2*
X-1103163Y5343676D1*
X-1088506Y5329188D1*
X-1074019Y5321776D1*
X-1052119Y5314532D1*
X-1015563D1*
X-993831Y5321776D1*
X-979175Y5329188D1*
X-964687Y5343676D1*
X-957275Y5358332D1*
Y5387476D1*
X-964687Y5401964D1*
X-979175Y5416620D1*
X-993831Y5423864D1*
X-1015563Y5431108D1*
X-1052119D1*
X-1074019Y5423864D1*
X-1088506Y5416620D1*
X-1103163Y5401964D1*
X-1110406Y5387476D1*
Y5358332D1*
Y5529210D2*
X-957275D1*
X-1110406Y5478166D2*
Y5580254D1*
X-957275Y5627313D2*
X-1110238Y5729401D1*
X-1110406Y5871135D2*
Y5776459D1*
X-957275D1*
Y5871135D1*
X-1037463Y5776459D2*
Y5834747D1*
Y5918194D2*
Y5983725D1*
X-1044875Y6005625D1*
X-1052119Y6013037D1*
X-1066607Y6020281D1*
X-1081263D1*
X-1095750Y6013037D1*
X-1103163Y6005625D1*
X-1110407Y5983725D1*
Y5918194D1*
X-957275D1*
X-1037463Y5969237D2*
X-957275Y6020281D1*
X-1037463Y6067340D2*
Y6132872D1*
X-1044875Y6154772D1*
X-1052119Y6162184D1*
X-1066607Y6169428D1*
X-1081263D1*
X-1095750Y6162184D1*
X-1103163Y6154772D1*
X-1110407Y6132872D1*
Y6067340D1*
X-957275D1*
X-1037463Y6118384D2*
X-957275Y6169428D1*
X-402757Y2483780D2*
D178*
Y2279604D1*
X-194237Y2435263D2*
X-203895Y2454580D1*
X-223437Y2474121D1*
X-242753Y2483780D1*
X-281612D1*
X-301153Y2474121D1*
X-320470Y2454580D1*
X-330353Y2435263D1*
X-340012Y2406063D1*
Y2357321D1*
X-330353Y2328346D1*
X-320470Y2308804D1*
X-301153Y2289488D1*
X-281612Y2279604D1*
X-242753D1*
X-223437Y2289488D1*
X-203895Y2308804D1*
X-194237Y2328346D1*
X4625Y2454580D2*
X-14691Y2474121D1*
X-43891Y2483780D1*
X-82750D1*
X-111950Y2474121D1*
X-131491Y2454580D1*
Y2435263D1*
X-121608Y2415721D1*
X-111950Y2406063D1*
X-92633Y2396404D1*
X-34233Y2376863D1*
X-14691Y2367204D1*
X-5033Y2357321D1*
X4625Y2338004D1*
Y2308804D1*
X-14691Y2289488D1*
X-43891Y2279604D1*
X-82750D1*
X-111950Y2289488D1*
X-131491Y2308804D1*
X67371Y2376863D2*
X154971D1*
X183946Y2386521D1*
X193829Y2396404D1*
X203487Y2415721D1*
Y2444921D1*
X193829Y2464238D1*
X183946Y2474121D1*
X154971Y2483780D1*
X67371D1*
Y2279604D1*
X-5504207Y12282350D2*
X-5523524Y12301891D1*
X-5552724Y12311550D1*
X-5591582D1*
X-5620782Y12301891D1*
X-5640324Y12282350D1*
Y12263033D1*
X-5630441Y12243491D1*
X-5620782Y12233833D1*
X-5601465Y12224174D1*
X-5543065Y12204633D1*
X-5523524Y12194974D1*
X-5513865Y12185091D1*
X-5504207Y12165774D1*
Y12136574D1*
X-5523524Y12117258D1*
X-5552724Y12107374D1*
X-5591582D1*
X-5620782Y12117258D1*
X-5640324Y12136574D1*
X-5441462Y12311550D2*
Y12107374D1*
X-5305345Y12311550D2*
Y12107374D1*
X-5441462Y12214291D2*
X-5305345D1*
X-5242600Y12311550D2*
Y12107374D1*
X-5053621Y12311550D2*
X-5179855D1*
Y12107374D1*
X-5053621D1*
X-5179855Y12214291D2*
X-5102138D1*
X-4990876Y12311550D2*
Y12107374D1*
X-4874300D1*
X-4811555Y12311550D2*
Y12107374D1*
X-4743497D1*
X-4714297Y12117258D1*
X-4694755Y12136574D1*
X-4685097Y12156116D1*
X-4675438Y12185091D1*
Y12233833D1*
X-4685097Y12263033D1*
X-4694755Y12282350D1*
X-4714297Y12301891D1*
X-4743497Y12311550D1*
X-4811555D1*
X-2735698Y3510580D2*
Y3597955D1*
X-2745581Y3627155D1*
X-2755239Y3637038D1*
X-2774556Y3646697D1*
X-2794098D1*
X-2813415Y3637038D1*
X-2823298Y3627155D1*
X-2832956Y3597955D1*
X-2832957Y3510580D1*
X-2628781D1*
X-2735698Y3578638D2*
X-2628781Y3646697D1*
X-2832956Y3835676D2*
Y3709442D1*
X-2628781D1*
Y3835675D1*
X-2735698Y3709442D2*
Y3787159D1*
X-2803756Y4034538D2*
X-2823298Y4015221D1*
X-2832956Y3986021D1*
Y3947162D1*
X-2823298Y3917962D1*
X-2803756Y3898421D1*
X-2784439D1*
X-2764898Y3908304D1*
X-2755239Y3917962D1*
X-2745581Y3937279D1*
X-2726040Y3995679D1*
X-2716381Y4015221D1*
X-2706498Y4024879D1*
X-2687181Y4034538D1*
X-2657981D1*
X-2638664Y4015221D1*
X-2628781Y3986021D1*
Y3947162D1*
X-2638664Y3917962D1*
X-2657981Y3898421D1*
X-2832956Y4223516D2*
Y4097283D1*
X-2628781D1*
Y4223516D1*
X-2735698Y4097283D2*
Y4175000D1*
X-2832956Y4354320D2*
X-2628781D1*
X-2832956Y4286262D2*
Y4422378D1*
X1979831Y948887D2*
D182*
X2089331D1*
X2125550Y960960D1*
X2137904Y973314D1*
X2149977Y997460D1*
Y1033960D1*
X2137904Y1058106D1*
X2125550Y1070460D1*
X2089331Y1082533D1*
X1979831D1*
Y827314D1*
X2228409Y1082533D2*
X2289336Y827314D1*
X2349982Y1082533D1*
X2410628Y827314D1*
X2471555Y1082533D1*
X2549986Y960960D2*
X2659205D1*
X2695705Y973314D1*
X2708059Y985387D1*
X2720132Y1009533D1*
Y1033960D1*
X2708059Y1058106D1*
X2695705Y1070460D1*
X2659205Y1082533D1*
X2549986D1*
Y827314D1*
X2635059Y960960D2*
X2720132Y827314D1*
X3045457Y1082533D2*
Y827314D1*
X3294034Y1082533D2*
Y827314D1*
X3123888Y1082533D1*
Y827314D1*
X843290Y2507863D2*
D178*
X823749Y2497980D1*
X794549Y2469004D1*
Y2672955D1*
M02*
