G04 DipTrace 3.3.1.3*
G04 Powerboardv05.gbl*
%MOMM*%
G04 #@! TF.FileFunction,Copper,L2,Bot*
G04 #@! TF.Part,Single*
G04 #@! TA.AperFunction,Conductor*
%ADD14C,0.254*%
%ADD15C,1.016*%
G04 #@! TA.AperFunction,CopperBalancing*
%ADD17C,0.635*%
G04 #@! TA.AperFunction,Conductor*
%ADD18C,0.381*%
G04 #@! TA.AperFunction,CopperBalancing*
%ADD20C,0.3*%
G04 #@! TA.AperFunction,Conductor*
%ADD21C,0.508*%
G04 #@! TA.AperFunction,ViaPad*
%ADD23C,0.762*%
%ADD24C,1.524*%
G04 #@! TA.AperFunction,ComponentPad*
%ADD32C,2.5*%
%ADD33R,2.5X2.5*%
%ADD34O,1.7X2.0*%
%ADD35R,1.7X2.0*%
%ADD36C,2.0*%
%FSLAX35Y35*%
G04*
G71*
G90*
G75*
G01*
G04 Bottom*
%LPD*%
X1018000Y130000D2*
D18*
Y144873D1*
X1508127Y635000D1*
X3508373D1*
X3300000Y-430000D2*
X3260000D1*
Y-360000D1*
X3850000Y-320000D2*
Y-370000D1*
X4000000D1*
X7223330Y4730750D2*
X7070000D1*
X-79377Y6350000D2*
X330000D1*
Y5760000D1*
X2730000Y5350000D2*
D21*
X2710000Y5370000D1*
X3444873Y-1397000D2*
D14*
Y-1349373D1*
X3206750D1*
X3127373Y-1428750D1*
X5013623Y-1711623D2*
D15*
X5095873Y-1714500D1*
X7016747Y-841373D2*
X6969123Y-793750D1*
X6477000Y777877D2*
Y1682750D1*
X7175500D1*
X7016750Y2698750D2*
Y2984500D1*
X7350123Y4206877D2*
X7366000D1*
X510000Y130000D2*
D14*
Y176627D1*
X603250Y269877D1*
X619123D1*
X510000Y130000D2*
X510997D1*
X682623Y301627D1*
X841373D1*
X889000Y254000D1*
Y-317500D1*
X904873Y-333373D1*
X1095377D1*
X1143000Y-285750D1*
Y190500D1*
X1270000Y317500D1*
X1333500D1*
X1397000Y254000D1*
Y-349250D1*
X1619250D1*
X1651000Y-317500D1*
Y317503D1*
X1666873Y333377D1*
X1873250D1*
X1905000Y301627D1*
Y-333373D1*
X2174873D1*
X2159000Y-317500D1*
Y285750D1*
X2143123Y301627D1*
X2413000D1*
Y-317500D1*
X2428873Y-333373D1*
X2667000D1*
Y285750D1*
X2651123Y301627D1*
X3429000D1*
Y-206373D1*
X3460750Y-238123D1*
Y-269250D1*
X3300000Y-430000D1*
X1170000Y-1055873D2*
D15*
X1520000D1*
X2905123Y5619750D2*
D14*
Y6223000D1*
X6365873Y3651250D2*
D21*
Y4095747D1*
X6350000Y4079873D1*
X5820000Y-930000D2*
D18*
Y-620000D1*
X5840000Y-600000D1*
X3540000Y-520000D2*
Y-530000D1*
X3040000Y-340000D2*
Y-310000D1*
X3120000Y-390000D1*
Y-380000D1*
X5191123Y1635127D2*
X5460997D1*
X5572123Y1524000D1*
X5426050Y1047940D2*
D14*
X5440000D1*
X4300000Y5640000D2*
X4460000Y5800000D1*
Y5842877D1*
X4445000Y5857877D1*
X4965787Y5605787D2*
X4808213D1*
X4556123Y5857877D1*
X4445000D2*
D15*
X4556123D1*
X4445000D2*
D18*
Y5953127D1*
X4556123D1*
X4651373D1*
Y5857877D1*
X5460000Y-1280000D2*
Y-1160000D1*
X5420000Y-1120000D1*
X4960000Y-1150000D2*
Y-1045000D1*
X5080000Y-925000D1*
X5990000Y3110000D2*
D14*
Y3060000D1*
X5734750D1*
X5476873Y3317877D1*
X5980000Y3690000D2*
X5626747D1*
X5476873Y3540127D1*
Y3317877D1*
Y3540127D2*
D18*
X5572123D1*
Y3429000D1*
Y3317877D1*
X5476873D1*
Y3429000D2*
X5572123D1*
X1630000Y6350000D2*
D14*
Y6330000D1*
X2280000Y6340000D2*
Y6248753D1*
X2016123Y5984877D1*
D18*
X2127250D1*
Y5873750D1*
X2016123D1*
X1905000D1*
D24*
X3508373Y635000D3*
X3300000Y-430000D3*
X3850000Y-320000D3*
X7223330Y4730750D3*
X-79377Y6350000D3*
X2730000Y5350000D3*
X3444873Y-1397000D3*
X5013623Y-1711623D3*
X7016747Y-841373D3*
X6477000Y777877D3*
X7016750Y2698750D3*
X7350123Y4206877D3*
X3300000Y-430000D3*
X2905123Y5619750D3*
Y6223000D3*
X6365873Y3651250D3*
X6350000Y4079873D3*
X5820000Y-930000D3*
X5840000Y-600000D3*
D23*
X3540000Y-520000D3*
X3040000Y-340000D3*
X5191123Y1635127D3*
X5572123Y1524000D3*
X5426050Y1047940D3*
X4300000Y5640000D3*
X4965787Y5605787D3*
X5460000Y-1280000D3*
X4960000Y-1150000D3*
X5990000Y3110000D3*
X5980000Y3690000D3*
X1630000Y6350000D3*
X2280000Y6340000D3*
D24*
X4381500Y682627D3*
X5052800Y1379433D3*
D23*
X5476873Y3540127D3*
Y3317877D3*
X5080000Y-820000D3*
X5190000D3*
X5290000D3*
X5080000Y-925000D3*
X5190000D3*
X5290000D3*
X3210000Y-760000D3*
X3320000D3*
X3420000D3*
X3210000Y-865000D3*
X3320000D3*
X3420000D3*
D24*
X3930000Y6500000D3*
X5690000Y4178877D3*
X5397500Y-365123D3*
X7080250Y333377D3*
X4953000Y5207000D3*
X250000Y-750000D3*
X-1063627Y444500D3*
X2428873Y317500D3*
X3079750Y2397127D3*
X1930000Y5200000D3*
X3079750Y4178877D3*
X1960000Y6370000D3*
X1492250Y1809750D3*
X-480000Y960000D3*
X111123Y666750D3*
X6940000Y-1130000D3*
X1841500Y4178877D3*
X2010000Y930000D3*
X4280000Y5380000D3*
X3079750Y3349623D3*
X3890000Y5880000D3*
X1340000Y1290000D3*
X1841500Y3349623D3*
X560000Y4178877D3*
X4365623Y-793750D3*
X5164843Y2934150D3*
X110000Y930000D3*
X4328125Y4178877D3*
X3714750Y920750D3*
X4318000Y1111250D3*
X6858000Y5318127D3*
X4600000Y5510000D3*
X5840000Y-1490000D3*
X5300000Y-1340000D3*
X6127750Y3444875D3*
D23*
X1905000Y5984877D3*
X2016123D3*
X4445000Y5857877D3*
X4556123D3*
D24*
X3381373Y333377D3*
X5318123Y476250D3*
D23*
X5667373Y1524003D3*
X5572123Y1428750D3*
X5667373Y1428753D3*
Y1333500D3*
X5572123Y1333503D3*
Y3540127D3*
X5476873Y3429000D3*
X5572123D3*
Y3317877D3*
X4445000Y5953127D3*
X4556123D3*
X4651373Y5857877D3*
Y5953127D3*
X1905000Y5873750D3*
X2016123D3*
X2127250Y5984877D3*
Y5873750D3*
D24*
X4328125Y2397127D3*
Y3288003D3*
X-382025Y6636077D2*
D17*
X3878101D1*
X3981855D2*
X4054650D1*
X5335371D2*
X7192072D1*
X-466699Y6572910D2*
X3800080D1*
X5353600D2*
X7280301D1*
X-521478Y6509743D2*
X1921108D1*
X1998887D2*
X3780483D1*
X5353600D2*
X7339819D1*
X-558665Y6446577D2*
X1457176D1*
X2862858D2*
X3790510D1*
X5353600D2*
X7381564D1*
X-583184Y6383410D2*
X1446330D1*
X2873613D2*
X3840002D1*
X5353600D2*
X7410822D1*
X-597676Y6320243D2*
X1446330D1*
X3016986D2*
X4036330D1*
X5353600D2*
X7430054D1*
X-603327Y6257077D2*
X1446330D1*
X3050892D2*
X4036330D1*
X5353600D2*
X7440809D1*
X-603874Y6193910D2*
X707775D1*
X792207D2*
X901369D1*
X1298613D2*
X1446330D1*
X3051986D2*
X3172814D1*
X3257246D2*
X3366408D1*
X3763652D2*
X4036330D1*
X5353600D2*
X5537775D1*
X5622207D2*
X5731369D1*
X6128613D2*
X7444911D1*
X-603874Y6130743D2*
X598218D1*
X1298613D2*
X1446330D1*
X3021361D2*
X3063166D1*
X3763652D2*
X4036330D1*
X5353600D2*
X5428218D1*
X6128613D2*
X7444911D1*
X-603874Y6067577D2*
X561851D1*
X1298613D2*
X1446330D1*
X2991465D2*
X3026799D1*
X3763652D2*
X4036330D1*
X5353600D2*
X5391851D1*
X6128613D2*
X7444911D1*
X-603874Y6004410D2*
X551369D1*
X1298613D2*
X1446330D1*
X2991465D2*
X3016284D1*
X3763652D2*
X3812202D1*
X3967819D2*
X4036330D1*
X5353600D2*
X5381369D1*
X6128613D2*
X7444911D1*
X-603874Y5941243D2*
X562215D1*
X1298613D2*
X1446330D1*
X2991465D2*
X3027254D1*
X5353600D2*
X5392215D1*
X6128613D2*
X7444911D1*
X-603874Y5878077D2*
X599220D1*
X1298613D2*
X1446330D1*
X2991465D2*
X3064168D1*
X5353600D2*
X5429220D1*
X6128613D2*
X7444911D1*
X-603874Y5814910D2*
X206291D1*
X460436D2*
X714702D1*
X785280D2*
X901369D1*
X1298613D2*
X1446330D1*
X2991465D2*
X3179650D1*
X3250319D2*
X3366408D1*
X5353600D2*
X5544702D1*
X5615280D2*
X5731369D1*
X6128613D2*
X7444911D1*
X-603874Y5751743D2*
X168192D1*
X498535D2*
X1446330D1*
X2991465D2*
X3819312D1*
X3960710D2*
X4036330D1*
X5353600D2*
X7444911D1*
X-603874Y5688577D2*
X160080D1*
X506647D2*
X1446330D1*
X3037402D2*
X4036330D1*
X5353600D2*
X7444911D1*
X-603874Y5625410D2*
X176851D1*
X489876D2*
X1446330D1*
X3054811D2*
X4036330D1*
X5353600D2*
X7444911D1*
X-603874Y5562243D2*
X230900D1*
X435918D2*
X1446330D1*
X3042962D2*
X4036330D1*
X5353600D2*
X7444911D1*
X-603874Y5499077D2*
X1446330D1*
X2989095D2*
X4036330D1*
X5353600D2*
X7444911D1*
X-603874Y5435910D2*
X1450796D1*
X2869147D2*
X4063674D1*
X5326348D2*
X6769702D1*
X6946282D2*
X7444911D1*
X-603874Y5372743D2*
X4130392D1*
X4429655D2*
X4551851D1*
X4648131D2*
X6718934D1*
X6997051D2*
X7444911D1*
X-603874Y5309577D2*
X1831056D1*
X2028965D2*
X4148622D1*
X4411335D2*
X4846343D1*
X5059655D2*
X6708452D1*
X7007624D2*
X7444911D1*
X-603874Y5246410D2*
X1787853D1*
X2072077D2*
X4221265D1*
X4338691D2*
X4808700D1*
X5097298D2*
X6727411D1*
X6988665D2*
X7444911D1*
X-603874Y5183243D2*
X1781108D1*
X2078822D2*
X4805145D1*
X5100853D2*
X6802697D1*
X6913288D2*
X7444911D1*
X-603874Y5120077D2*
X-160662D1*
X160657D2*
X1804442D1*
X2055488D2*
X4832489D1*
X5073509D2*
X7444911D1*
X-603874Y5056910D2*
X-244972D1*
X244967D2*
X382202D1*
X6225775D2*
X7444911D1*
X-603874Y4993743D2*
X-292915D1*
X292910D2*
X354129D1*
X6253939D2*
X7444911D1*
X-603874Y4930577D2*
X-321535D1*
X321530D2*
X351395D1*
X6256582D2*
X7444911D1*
X-603874Y4867410D2*
X-335845D1*
X335840D2*
X367163D1*
X6240814D2*
X7444911D1*
X-603874Y4804243D2*
X-337759D1*
X6224772D2*
X6446590D1*
X6761439D2*
X7444911D1*
X-603874Y4741077D2*
X-327368D1*
X327363D2*
X351395D1*
X6253665D2*
X6360640D1*
X6847389D2*
X7444911D1*
X-603874Y4677910D2*
X-303579D1*
X303574D2*
X351395D1*
X6256582D2*
X6312059D1*
X6895970D2*
X7444911D1*
X-603874Y4614743D2*
X-262563D1*
X262558D2*
X351395D1*
X6241452D2*
X6282983D1*
X6924954D2*
X7444911D1*
X-603874Y4551577D2*
X-193384D1*
X193379D2*
X351395D1*
X850631D2*
X931447D1*
X1104564D2*
X1185379D1*
X1358587D2*
X1439403D1*
X1612611D2*
X1693426D1*
X1866634D2*
X1947358D1*
X2120566D2*
X2201382D1*
X2374590D2*
X2455405D1*
X2628613D2*
X2709429D1*
X2882637D2*
X2963361D1*
X3136569D2*
X3217385D1*
X3390592D2*
X3471408D1*
X3644616D2*
X3725431D1*
X3898639D2*
X3979364D1*
X4152572D2*
X4233387D1*
X4406595D2*
X4487411D1*
X4660618D2*
X4741434D1*
X4914642D2*
X4995366D1*
X5168574D2*
X5249390D1*
X5422598D2*
X5503413D1*
X5676621D2*
X5757437D1*
X5930553D2*
X6011369D1*
X6184577D2*
X6268400D1*
X6939629D2*
X7444911D1*
X-603874Y4488410D2*
X6266213D1*
X6941816D2*
X7444911D1*
X-603874Y4425243D2*
X6276148D1*
X6931790D2*
X7444911D1*
X-603874Y4362077D2*
X6299572D1*
X6908366D2*
X7444911D1*
X-603874Y4298910D2*
X475080D1*
X644915D2*
X1756499D1*
X1926426D2*
X2994806D1*
X3164733D2*
X4243140D1*
X4413066D2*
X5605041D1*
X5774967D2*
X6340041D1*
X6867897D2*
X7444911D1*
X-603874Y4235743D2*
X421942D1*
X698053D2*
X1703452D1*
X1979564D2*
X2941668D1*
X3217871D2*
X4190002D1*
X4466204D2*
X5551903D1*
X5828105D2*
X6408218D1*
X6799811D2*
X7444911D1*
X-603874Y4172577D2*
X410275D1*
X709720D2*
X1691786D1*
X1991230D2*
X2930093D1*
X3229447D2*
X4178426D1*
X4477780D2*
X5540327D1*
X5839681D2*
X6234129D1*
X6465853D2*
X7444911D1*
X-603874Y4109410D2*
X428140D1*
X691855D2*
X1709559D1*
X1973366D2*
X2947866D1*
X3211673D2*
X4196200D1*
X4460006D2*
X5558101D1*
X5821907D2*
X6203231D1*
X6496751D2*
X7444911D1*
X-603874Y4046243D2*
X498960D1*
X621126D2*
X1780379D1*
X1902545D2*
X3018687D1*
X3140853D2*
X4267020D1*
X4389186D2*
X5628921D1*
X5751087D2*
X6204142D1*
X6495840D2*
X7444911D1*
X-603874Y3983077D2*
X5105015D1*
X6124967D2*
X6237775D1*
X6464941D2*
X6664155D1*
X6880566D2*
X7444911D1*
X-603874Y3919910D2*
X5096356D1*
X6133626D2*
X6266851D1*
X6464941D2*
X6601720D1*
X6943001D2*
X7444911D1*
X-603874Y3856743D2*
X5096356D1*
X6133626D2*
X6266851D1*
X6464941D2*
X6577293D1*
X6967428D2*
X7444911D1*
X-603874Y3793577D2*
X5096356D1*
X6133626D2*
X6266851D1*
X6464941D2*
X6575562D1*
X6969160D2*
X7444911D1*
X629420Y3730410D2*
X5096356D1*
X6133626D2*
X6239872D1*
X6491920D2*
X6595887D1*
X6948835D2*
X7444911D1*
X689486Y3667243D2*
X5096356D1*
X6133626D2*
X6216903D1*
X6514798D2*
X6649207D1*
X6895514D2*
X7444911D1*
X696139Y3604077D2*
X5096356D1*
X6133626D2*
X6224012D1*
X6507689D2*
X6573739D1*
X6970983D2*
X7444911D1*
X696139Y3540910D2*
X5096356D1*
X6240723D2*
X6267762D1*
X6463939D2*
X6573739D1*
X6970983D2*
X7444911D1*
X696139Y3477743D2*
X1770536D1*
X1912480D2*
X3008843D1*
X3150697D2*
X5096356D1*
X6273808D2*
X6573739D1*
X6970983D2*
X7444911D1*
X696139Y3414577D2*
X971369D1*
X1368613D2*
X1707189D1*
X1975827D2*
X2945497D1*
X3214043D2*
X4254168D1*
X4402038D2*
X5096356D1*
X6274355D2*
X6573739D1*
X6970983D2*
X7444911D1*
X696139Y3351410D2*
X971369D1*
X1368613D2*
X1691694D1*
X1991322D2*
X2929911D1*
X3229538D2*
X4193101D1*
X4463197D2*
X5096356D1*
X6243001D2*
X6573739D1*
X6970983D2*
X7444911D1*
X696139Y3288243D2*
X971369D1*
X1368613D2*
X1705457D1*
X1977558D2*
X2943674D1*
X3215775D2*
X4178335D1*
X4477962D2*
X5096356D1*
X6133626D2*
X6573739D1*
X6970983D2*
X7444911D1*
X696139Y3225077D2*
X971369D1*
X1368613D2*
X1763882D1*
X1919134D2*
X3002189D1*
X3157350D2*
X4192827D1*
X4463379D2*
X5096356D1*
X6133626D2*
X7444911D1*
X696139Y3161910D2*
X971369D1*
X1368613D2*
X4253348D1*
X4402949D2*
X5096356D1*
X6133626D2*
X7444911D1*
X696139Y3098743D2*
X971369D1*
X1368613D2*
X5096356D1*
X6133626D2*
X7444911D1*
X696139Y3035577D2*
X1014572D1*
X1325410D2*
X5056981D1*
X6133626D2*
X7444911D1*
X696139Y2972410D2*
X980392D1*
X1359590D2*
X5020249D1*
X6133626D2*
X7444911D1*
X696139Y2909243D2*
X971460D1*
X1368613D2*
X5017150D1*
X6133626D2*
X7444911D1*
X696139Y2846077D2*
X983856D1*
X1356217D2*
X5045223D1*
X6117311D2*
X7444911D1*
X696139Y2782910D2*
X1023140D1*
X1316933D2*
X7444911D1*
X696139Y2719743D2*
X1050666D1*
X1289316D2*
X6697697D1*
X6847025D2*
X7444911D1*
X696139Y2656577D2*
X995067D1*
X1344915D2*
X6613114D1*
X6931608D2*
X7444911D1*
X696139Y2593410D2*
X973648D1*
X1366426D2*
X6581304D1*
X6963418D2*
X7444911D1*
X696139Y2530243D2*
X974377D1*
X1365605D2*
X3019872D1*
X3139668D2*
X4268205D1*
X4388001D2*
X6574012D1*
X6970801D2*
X7444911D1*
X696139Y2467077D2*
X997619D1*
X1342363D2*
X2948140D1*
X3211400D2*
X4196473D1*
X4459733D2*
X6588140D1*
X6956673D2*
X7444911D1*
X696139Y2403910D2*
X1057319D1*
X1282663D2*
X2930093D1*
X3229447D2*
X4178426D1*
X4477780D2*
X6630158D1*
X6914564D2*
X7444911D1*
X696139Y2340743D2*
X1018947D1*
X1321035D2*
X2941486D1*
X3218053D2*
X4189819D1*
X4466387D2*
X5312827D1*
X5515657D2*
X6573739D1*
X6970983D2*
X7444911D1*
X696139Y2277577D2*
X982124D1*
X1357858D2*
X2994077D1*
X3165462D2*
X4242411D1*
X4413795D2*
X5258140D1*
X5570345D2*
X6573739D1*
X6970983D2*
X7444911D1*
X696139Y2214410D2*
X971369D1*
X1368613D2*
X5241004D1*
X5587480D2*
X6573739D1*
X6970983D2*
X7444911D1*
X696139Y2151243D2*
X981942D1*
X1358040D2*
X5248843D1*
X5579642D2*
X6573739D1*
X6970983D2*
X7444911D1*
X696139Y2088077D2*
X1018491D1*
X1321582D2*
X5286395D1*
X5542090D2*
X6573739D1*
X6970983D2*
X7444911D1*
X696139Y2024910D2*
X1129416D1*
X1210566D2*
X6573739D1*
X6970983D2*
X7444911D1*
X696139Y1961743D2*
X7444911D1*
X696139Y1898577D2*
X1373231D1*
X1611243D2*
X5039025D1*
X6130983D2*
X7444911D1*
X696139Y1835410D2*
X1344702D1*
X1639772D2*
X5036382D1*
X6133626D2*
X7444911D1*
X676725Y1772243D2*
X1347437D1*
X1637129D2*
X5036382D1*
X6133626D2*
X7444911D1*
X-1328848Y1709077D2*
X1383622D1*
X1600853D2*
X5036382D1*
X6133626D2*
X7444911D1*
X-1328848Y1645910D2*
X5036382D1*
X6133626D2*
X7444911D1*
X-1328848Y1582743D2*
X5036382D1*
X6133626D2*
X7444911D1*
X-1328848Y1519577D2*
X5015692D1*
X6133626D2*
X7444911D1*
X-1328848Y1456410D2*
X4925366D1*
X6133626D2*
X7444911D1*
X-1328848Y1393243D2*
X1234051D1*
X1445996D2*
X4903674D1*
X6133626D2*
X6627424D1*
X6917389D2*
X7444911D1*
X-1328848Y1330077D2*
X1195861D1*
X1484095D2*
X4911694D1*
X6133626D2*
X6586955D1*
X6957767D2*
X7444911D1*
X-1328848Y1266910D2*
X1192033D1*
X1487923D2*
X4957450D1*
X6133626D2*
X6573830D1*
X6970892D2*
X7444911D1*
X-1328848Y1203743D2*
X1219012D1*
X1461035D2*
X4201942D1*
X4434030D2*
X5036382D1*
X6133626D2*
X6582124D1*
X6962598D2*
X7444911D1*
X-1328848Y1140577D2*
X4171226D1*
X4464837D2*
X5036382D1*
X6133626D2*
X6615301D1*
X6929420D2*
X7444911D1*
X-1328848Y1077410D2*
X-568813D1*
X-391139D2*
X4172228D1*
X4463743D2*
X5036382D1*
X6133626D2*
X6573739D1*
X6970983D2*
X7444911D1*
X-1328848Y1014243D2*
X-619217D1*
X-340827D2*
X-12459D1*
X232480D2*
X1887476D1*
X2132506D2*
X3599559D1*
X3829915D2*
X4205952D1*
X4430111D2*
X5036382D1*
X6133626D2*
X6573739D1*
X6970983D2*
X7444911D1*
X-1328848Y951077D2*
X-629517D1*
X-330436D2*
X-38253D1*
X258275D2*
X1861681D1*
X2158301D2*
X3568114D1*
X3861361D2*
X5036382D1*
X6133626D2*
X6573739D1*
X6970983D2*
X7444911D1*
X-1328848Y887910D2*
X-610376D1*
X-349577D2*
X-33514D1*
X253535D2*
X1866512D1*
X2153561D2*
X3568752D1*
X3860814D2*
X5036382D1*
X6133626D2*
X6573739D1*
X6970983D2*
X7444911D1*
X-1328848Y824743D2*
X-534269D1*
X-425775D2*
X6135D1*
X213887D2*
X1906161D1*
X2113822D2*
X3601747D1*
X3827728D2*
X4355431D1*
X4407665D2*
X5036382D1*
X6133626D2*
X6573739D1*
X6970983D2*
X7444911D1*
X-1328848Y761577D2*
X-2889D1*
X225189D2*
X3434494D1*
X3582272D2*
X4255353D1*
X4507676D2*
X5036382D1*
X6133626D2*
X6573739D1*
X6970983D2*
X7444911D1*
X-1328848Y698410D2*
X-35155D1*
X257454D2*
X1443231D1*
X3643431D2*
X4232567D1*
X4530462D2*
X5036382D1*
X6133626D2*
X7444911D1*
X-1328848Y635243D2*
X-35246D1*
X257454D2*
X1379885D1*
X3658197D2*
X4239676D1*
X4523262D2*
X5036382D1*
X6133626D2*
X6501095D1*
X6706842D2*
X7444911D1*
X-1328848Y572077D2*
X-1135649D1*
X-991608D2*
X-3071D1*
X225280D2*
X1316720D1*
X3643704D2*
X4283700D1*
X4479329D2*
X5069377D1*
X6100540D2*
X6384429D1*
X6823600D2*
X7444911D1*
X-1328848Y508910D2*
X-1198175D1*
X-929082D2*
X1253556D1*
X1510436D2*
X3433582D1*
X3583183D2*
X5172098D1*
X5464160D2*
X6326278D1*
X6881751D2*
X7444911D1*
X-1328848Y445743D2*
X-1213488D1*
X-913770D2*
X1190392D1*
X1447272D2*
X2358153D1*
X2499551D2*
X3285835D1*
X3476907D2*
X5171551D1*
X5464707D2*
X6291369D1*
X6916660D2*
X6984715D1*
X7175788D2*
X7444911D1*
X-1328848Y382577D2*
X-1199451D1*
X-927806D2*
X1127228D1*
X1384108D2*
X2294624D1*
X2563079D2*
X3240262D1*
X3522480D2*
X5203088D1*
X5433170D2*
X6272046D1*
X7221361D2*
X7444911D1*
X-1328848Y319410D2*
X-1140298D1*
X-986960D2*
X-97225D1*
X97220D2*
X1064064D1*
X1320944D2*
X2279038D1*
X2578665D2*
X3232241D1*
X3530501D2*
X6265575D1*
X7229381D2*
X7444911D1*
X-1328848Y256243D2*
X-217537D1*
X217624D2*
X399611D1*
X620306D2*
X653635D1*
X874329D2*
X907658D1*
X1382376D2*
X1415614D1*
X1636308D2*
X1669637D1*
X1890332D2*
X1923661D1*
X2144355D2*
X2177684D1*
X2652311D2*
X2685640D1*
X2906335D2*
X2939663D1*
X3160358D2*
X3193687D1*
X3668314D2*
X3701642D1*
X3922337D2*
X3955666D1*
X4176361D2*
X4209689D1*
X4430384D2*
X4463622D1*
X4684316D2*
X4717645D1*
X4938340D2*
X4971668D1*
X5192363D2*
X5225692D1*
X5446387D2*
X5479624D1*
X5700319D2*
X5733648D1*
X5954342D2*
X5987671D1*
X6208366D2*
X6271226D1*
X7207598D2*
X7444911D1*
X-1328848Y193077D2*
X-276509D1*
X276504D2*
X359142D1*
X6248835D2*
X6289728D1*
X6918210D2*
X7043869D1*
X7116634D2*
X7444911D1*
X-1328848Y129910D2*
X-311964D1*
X311960D2*
X351395D1*
X6256673D2*
X6323635D1*
X6884394D2*
X7444911D1*
X-1328848Y66743D2*
X-331652D1*
X331647D2*
X359149D1*
X6248743D2*
X6379963D1*
X6828066D2*
X7444911D1*
X-1328848Y3577D2*
X-338397D1*
X6208183D2*
X6489338D1*
X6718691D2*
X7444911D1*
X-1328848Y-59590D2*
X-333019D1*
X6248379D2*
X7444911D1*
X-1328848Y-122757D2*
X-314881D1*
X314876D2*
X351395D1*
X6256673D2*
X7444911D1*
X-1328848Y-185923D2*
X-281522D1*
X281517D2*
X351395D1*
X6249199D2*
X7444911D1*
X-1328848Y-249090D2*
X-226014D1*
X226009D2*
X351395D1*
X875605D2*
X906473D1*
X1129538D2*
X1160405D1*
X1383561D2*
X1414429D1*
X1637585D2*
X1668452D1*
X1891608D2*
X1922458D1*
X2145540D2*
X2176408D1*
X2399564D2*
X2430431D1*
X2653587D2*
X2684455D1*
X3415566D2*
X3446434D1*
X3669590D2*
X3700457D1*
X3923522D2*
X3954468D1*
X4177545D2*
X4208413D1*
X4431569D2*
X4462437D1*
X4685592D2*
X4716460D1*
X4939525D2*
X4970392D1*
X5193548D2*
X5224416D1*
X5701595D2*
X5732463D1*
X5955527D2*
X5986395D1*
X6209551D2*
X7444911D1*
X-1328848Y-312257D2*
X-119373D1*
X119368D2*
X2831473D1*
X3273652D2*
X5257775D1*
X5537259D2*
X7444911D1*
X-1328848Y-375423D2*
X2831473D1*
X3273652D2*
X3323843D1*
X3962806D2*
X4684741D1*
X4954928D2*
X5248023D1*
X5546920D2*
X7444911D1*
X-1328848Y-438590D2*
X-919907D1*
X-700124D2*
X2831473D1*
X3273652D2*
X3324572D1*
X3962988D2*
X4636343D1*
X5662676D2*
X7444911D1*
X-1328848Y-501757D2*
X-969126D1*
X-650905D2*
X2830288D1*
X3962988D2*
X4636343D1*
X5663678D2*
X5729090D1*
X5950879D2*
X7444911D1*
X-1328848Y-564923D2*
X-983527D1*
X-636413D2*
X2829012D1*
X3962988D2*
X4636343D1*
X5663678D2*
X5694546D1*
X5985514D2*
X7444911D1*
X-1328848Y-628090D2*
X-973227D1*
X-646803D2*
X168010D1*
X332012D2*
X2062293D1*
X2223926D2*
X2827736D1*
X3962988D2*
X4636343D1*
X5663678D2*
X5692905D1*
X5987064D2*
X7444911D1*
X-1328848Y-691257D2*
X-931574D1*
X-688366D2*
X112775D1*
X387246D2*
X1993661D1*
X2292558D2*
X2826460D1*
X3962988D2*
X4258817D1*
X4472402D2*
X4636343D1*
X5663678D2*
X5722892D1*
X5957077D2*
X7444911D1*
X-1328848Y-754423D2*
X100197D1*
X399733D2*
X1971148D1*
X2315072D2*
X2825184D1*
X3962988D2*
X4221265D1*
X4509954D2*
X4636343D1*
X5663678D2*
X5727358D1*
X5912689D2*
X7444911D1*
X-1328848Y-817590D2*
X117059D1*
X382871D2*
X1974247D1*
X2311973D2*
X2823908D1*
X3950137D2*
X4217801D1*
X4513418D2*
X4636343D1*
X5663678D2*
X5724442D1*
X5915514D2*
X7444911D1*
X-1328848Y-880757D2*
X184598D1*
X668613D2*
X734207D1*
X905775D2*
X1084207D1*
X1255775D2*
X1434207D1*
X1605775D2*
X2004872D1*
X2498639D2*
X2564233D1*
X2735801D2*
X2822541D1*
X4208626D2*
X4245145D1*
X4486074D2*
X4636343D1*
X5961087D2*
X5991408D1*
X6388652D2*
X6454247D1*
X6625723D2*
X7444911D1*
X-1328848Y-943923D2*
X-913618D1*
X-706322D2*
X271369D1*
X982702D2*
X1007239D1*
X1682702D2*
X2101395D1*
X4522715D2*
X4636343D1*
X5969199D2*
X5991408D1*
X6702650D2*
X7444911D1*
X-1328848Y-1007090D2*
X-966938D1*
X-653093D2*
X271369D1*
X1712324D2*
X2101395D1*
X4552337D2*
X4636343D1*
X5663678D2*
X5692632D1*
X5947324D2*
X5991408D1*
X6732363D2*
X6859663D1*
X7020384D2*
X7444911D1*
X-1328848Y-1070257D2*
X-983345D1*
X-636686D2*
X271369D1*
X1718066D2*
X2101395D1*
X3782793D2*
X3811296D1*
X4558079D2*
X4636343D1*
X5663678D2*
X5783413D1*
X5856634D2*
X5991408D1*
X6738105D2*
X6803153D1*
X7076803D2*
X7444911D1*
X-1328848Y-1133423D2*
X-974868D1*
X-645163D2*
X271369D1*
X1702298D2*
X2101395D1*
X3740957D2*
X3811382D1*
X4542311D2*
X4636343D1*
X5663678D2*
X5991408D1*
X6722337D2*
X6790210D1*
X7089837D2*
X7444911D1*
X-1328848Y-1196590D2*
X-936313D1*
X-683718D2*
X271369D1*
X957363D2*
X1032619D1*
X1307363D2*
X1382619D1*
X1657363D2*
X2101395D1*
X2787389D2*
X2816161D1*
X3699212D2*
X3811382D1*
X4497376D2*
X4636343D1*
X5663678D2*
X5991408D1*
X6677402D2*
X6806525D1*
X7073431D2*
X7444911D1*
X-1328848Y-1259757D2*
X2826916D1*
X3657376D2*
X4636343D1*
X5663678D2*
X6872424D1*
X7007624D2*
X7444911D1*
X-1328848Y-1322923D2*
X4636343D1*
X5663678D2*
X7444911D1*
X-1328757Y-1386090D2*
X4636343D1*
X5663314D2*
X5734741D1*
X5945319D2*
X7444455D1*
X-1325384Y-1449257D2*
X4636343D1*
X5588665D2*
X5696095D1*
X5983965D2*
X7440353D1*
X-1313080Y-1512423D2*
X-905142D1*
X-734850D2*
X4636343D1*
X5203665D2*
X5691903D1*
X5988066D2*
X7427502D1*
X-1290020Y-1575590D2*
X-970767D1*
X-669225D2*
X4646551D1*
X5193457D2*
X5718517D1*
X5961543D2*
X7404077D1*
X-1254473Y-1638757D2*
X-992277D1*
X-647715D2*
X7368075D1*
X-1203887Y-1701923D2*
X-988267D1*
X-651725D2*
X7316942D1*
X-1126595Y-1765090D2*
X-956548D1*
X-683535D2*
X7238465D1*
X-971374Y-1828257D2*
X7080965D1*
X4551691Y-1070960D2*
X4549916Y-1085953D1*
X4546971Y-1100761D1*
X4542872Y-1115292D1*
X4537647Y-1129457D1*
X4531326Y-1143168D1*
X4523948Y-1156341D1*
X4515560Y-1168895D1*
X4506213Y-1180751D1*
X4495965Y-1191838D1*
X4484878Y-1202087D1*
X4473021Y-1211434D1*
X4460468Y-1219822D1*
X4447295Y-1227199D1*
X4433584Y-1233520D1*
X4419419Y-1238746D1*
X4404888Y-1242844D1*
X4390080Y-1245789D1*
X4375086Y-1247564D1*
X4360000Y-1248157D1*
X4344914Y-1247564D1*
X4329920Y-1245789D1*
X4315112Y-1242844D1*
X4300581Y-1238746D1*
X4286416Y-1233520D1*
X4272705Y-1227199D1*
X4259532Y-1219822D1*
X4246979Y-1211434D1*
X4235122Y-1202087D1*
X4224035Y-1191838D1*
X4213787Y-1180751D1*
X4202310Y-1165707D1*
X4202283Y-1248157D1*
X3817717D1*
Y-1007951D1*
X3644000Y-1270138D1*
X3637056Y-1278092D1*
X3628954Y-1284861D1*
X3619892Y-1290279D1*
X3610094Y-1294213D1*
X3599802Y-1296566D1*
X3589268Y-1297280D1*
X2882604Y-1289328D1*
X2872211Y-1287464D1*
X2862239Y-1283997D1*
X2852931Y-1279013D1*
X2844518Y-1272634D1*
X2837206Y-1265018D1*
X2831176Y-1256351D1*
X2826576Y-1246848D1*
X2823519Y-1236742D1*
X2822080Y-1226283D1*
X2823667Y-1138349D1*
X2813948Y-1156341D1*
X2805560Y-1168895D1*
X2796213Y-1180751D1*
X2785965Y-1191838D1*
X2774878Y-1202087D1*
X2763021Y-1211434D1*
X2750468Y-1219822D1*
X2737295Y-1227199D1*
X2723584Y-1233520D1*
X2709419Y-1238746D1*
X2694888Y-1242844D1*
X2680080Y-1245789D1*
X2665086Y-1247564D1*
X2650000Y-1248157D1*
X2634914Y-1247564D1*
X2619920Y-1245789D1*
X2605112Y-1242844D1*
X2590581Y-1238746D1*
X2576416Y-1233520D1*
X2562705Y-1227199D1*
X2549532Y-1219822D1*
X2536979Y-1211434D1*
X2525122Y-1202087D1*
X2514035Y-1191838D1*
X2503787Y-1180751D1*
X2492310Y-1165707D1*
X2492284Y-1248157D1*
X2107717D1*
X2107500Y-941320D1*
X2089521Y-936336D1*
X2072208Y-929382D1*
X2055778Y-920542D1*
X2040434Y-909929D1*
X2026368Y-897672D1*
X2013753Y-883926D1*
X2002749Y-868860D1*
X1993490Y-852663D1*
X1986092Y-835535D1*
X1980648Y-817690D1*
X1977224Y-799350D1*
X1975865Y-780743D1*
X1976585Y-762100D1*
X1979378Y-743653D1*
X1984207Y-725632D1*
X1991012Y-708260D1*
X1999710Y-691755D1*
X2010192Y-676320D1*
X2022327Y-662149D1*
X2035965Y-649418D1*
X2050936Y-638284D1*
X2067053Y-628887D1*
X2084117Y-621342D1*
X2101914Y-615745D1*
X2120225Y-612165D1*
X2138820Y-610645D1*
X2157468Y-611206D1*
X2175938Y-613840D1*
X2194000Y-618514D1*
X2211429Y-625171D1*
X2228009Y-633727D1*
X2243532Y-644076D1*
X2257807Y-656089D1*
X2270655Y-669617D1*
X2281917Y-684492D1*
X2291452Y-700528D1*
X2299142Y-717527D1*
X2304892Y-735275D1*
X2308630Y-753554D1*
X2310308Y-772136D1*
X2309821Y-791857D1*
X2307227Y-810333D1*
X2302592Y-828405D1*
X2295973Y-845848D1*
X2286765Y-863585D1*
X2492284Y-863591D1*
Y-945895D1*
X2503787Y-930995D1*
X2514035Y-919908D1*
X2525122Y-909660D1*
X2536979Y-900313D1*
X2549532Y-891925D1*
X2562705Y-884548D1*
X2576416Y-878227D1*
X2590581Y-873001D1*
X2605112Y-868903D1*
X2619920Y-865957D1*
X2634914Y-864183D1*
X2650000Y-863590D1*
X2665086Y-864183D1*
X2680080Y-865957D1*
X2694888Y-868903D1*
X2709419Y-873001D1*
X2723584Y-878227D1*
X2737295Y-884548D1*
X2750468Y-891925D1*
X2763021Y-900313D1*
X2774878Y-909660D1*
X2785965Y-919908D1*
X2796213Y-930995D1*
X2805560Y-942852D1*
X2813948Y-955406D1*
X2826881Y-980629D1*
X2837840Y-421167D1*
Y-285451D1*
X2819822Y-289408D1*
X2796000Y-291283D1*
X2772178Y-289408D1*
X2748942Y-283830D1*
X2726865Y-274685D1*
X2706490Y-262200D1*
X2688319Y-246681D1*
X2672800Y-228510D1*
X2669089Y-222956D1*
X2657797Y-237900D1*
X2640900Y-254797D1*
X2621568Y-268843D1*
X2600276Y-279691D1*
X2577550Y-287076D1*
X2553948Y-290814D1*
X2530052D1*
X2506450Y-287076D1*
X2483724Y-279691D1*
X2462432Y-268843D1*
X2443100Y-254797D1*
X2426203Y-237900D1*
X2415089Y-222956D1*
X2403797Y-237900D1*
X2386900Y-254797D1*
X2367568Y-268843D1*
X2346276Y-279691D1*
X2323550Y-287076D1*
X2299948Y-290814D1*
X2276052D1*
X2252450Y-287076D1*
X2229724Y-279691D1*
X2208432Y-268843D1*
X2189100Y-254797D1*
X2172203Y-237900D1*
X2161089Y-222956D1*
X2149797Y-237900D1*
X2132900Y-254797D1*
X2113568Y-268843D1*
X2092276Y-279691D1*
X2069550Y-287076D1*
X2045948Y-290814D1*
X2022052D1*
X1998450Y-287076D1*
X1975724Y-279691D1*
X1954432Y-268843D1*
X1935100Y-254797D1*
X1918203Y-237900D1*
X1907089Y-222956D1*
X1895797Y-237900D1*
X1878900Y-254797D1*
X1859568Y-268843D1*
X1838276Y-279691D1*
X1815550Y-287076D1*
X1791948Y-290814D1*
X1768052D1*
X1744450Y-287076D1*
X1721724Y-279691D1*
X1700432Y-268843D1*
X1681100Y-254797D1*
X1664203Y-237900D1*
X1653089Y-222956D1*
X1641797Y-237900D1*
X1624900Y-254797D1*
X1605568Y-268843D1*
X1584276Y-279691D1*
X1561550Y-287076D1*
X1537948Y-290814D1*
X1514052D1*
X1490450Y-287076D1*
X1467724Y-279691D1*
X1446432Y-268843D1*
X1427100Y-254797D1*
X1410203Y-237900D1*
X1399089Y-222956D1*
X1387797Y-237900D1*
X1370900Y-254797D1*
X1351568Y-268843D1*
X1330276Y-279691D1*
X1307550Y-287076D1*
X1283948Y-290814D1*
X1260052D1*
X1236450Y-287076D1*
X1213724Y-279691D1*
X1192432Y-268843D1*
X1173100Y-254797D1*
X1156203Y-237900D1*
X1145089Y-222956D1*
X1133797Y-237900D1*
X1116900Y-254797D1*
X1097568Y-268843D1*
X1076276Y-279691D1*
X1053550Y-287076D1*
X1029948Y-290814D1*
X1006052D1*
X982450Y-287076D1*
X959724Y-279691D1*
X938432Y-268843D1*
X919100Y-254797D1*
X902203Y-237900D1*
X891089Y-222956D1*
X879797Y-237900D1*
X862900Y-254797D1*
X843568Y-268843D1*
X822276Y-279691D1*
X799550Y-287076D1*
X775948Y-290814D1*
X752052D1*
X728450Y-287076D1*
X705724Y-279691D1*
X684432Y-268843D1*
X665100Y-254797D1*
X662253Y-252166D1*
X662284Y-291284D1*
X357717D1*
Y43283D1*
X375673D1*
X368783Y58010D1*
X362874Y75704D1*
X359173Y93988D1*
X357736Y112588D1*
X358157Y156577D1*
X360712Y175056D1*
X365507Y193084D1*
X372471Y210391D1*
X381498Y226716D1*
X392454Y241815D1*
X405174Y255461D1*
X419466Y267450D1*
X435118Y277600D1*
X451893Y285761D1*
X469540Y291810D1*
X487794Y295656D1*
X506382Y297240D1*
X525024Y296540D1*
X543440Y293566D1*
X561355Y288363D1*
X578499Y281008D1*
X594615Y271612D1*
X609461Y260316D1*
X622814Y247289D1*
X634475Y232728D1*
X636992Y229038D1*
X648203Y243900D1*
X665100Y260797D1*
X684432Y274843D1*
X705724Y285691D1*
X728450Y293076D1*
X752052Y296814D1*
X775948D1*
X799550Y293076D1*
X822276Y285691D1*
X843568Y274843D1*
X862900Y260797D1*
X879797Y243900D1*
X890911Y228956D1*
X902203Y243900D1*
X919100Y260797D1*
X938432Y274843D1*
X959724Y285691D1*
X982450Y293076D1*
X1006052Y296814D1*
X1029948D1*
X1045716Y294634D1*
X1452057Y700649D1*
X1463017Y708612D1*
X1475088Y714762D1*
X1487972Y718948D1*
X1501353Y721068D1*
X1648127Y721334D1*
X3393843D1*
X3406915Y736458D1*
X3424036Y751080D1*
X3443233Y762845D1*
X3464035Y771461D1*
X3485928Y776717D1*
X3508373Y778483D1*
X3530819Y776717D1*
X3552712Y771461D1*
X3573513Y762845D1*
X3592711Y751080D1*
X3609831Y736458D1*
X3624454Y719337D1*
X3636218Y700140D1*
X3644834Y679339D1*
X3650090Y657446D1*
X3651857Y635000D1*
X3650090Y612554D1*
X3644834Y590661D1*
X3636218Y569860D1*
X3624454Y550663D1*
X3609831Y533542D1*
X3592711Y518920D1*
X3573513Y507155D1*
X3552712Y498539D1*
X3530819Y493283D1*
X3508373Y491517D1*
X3485928Y493283D1*
X3464035Y498539D1*
X3443233Y507155D1*
X3424036Y518920D1*
X3406915Y533542D1*
X3393846Y548693D1*
X1543907Y548666D1*
X1291331Y296110D1*
X1307550Y293076D1*
X1330276Y285691D1*
X1351568Y274843D1*
X1370900Y260797D1*
X1387797Y243900D1*
X1398911Y228956D1*
X1410203Y243900D1*
X1427100Y260797D1*
X1446432Y274843D1*
X1467724Y285691D1*
X1490450Y293076D1*
X1514052Y296814D1*
X1537948D1*
X1561550Y293076D1*
X1584276Y285691D1*
X1605568Y274843D1*
X1624900Y260797D1*
X1641797Y243900D1*
X1652911Y228956D1*
X1664203Y243900D1*
X1681100Y260797D1*
X1700432Y274843D1*
X1721724Y285691D1*
X1744450Y293076D1*
X1768052Y296814D1*
X1791948D1*
X1815550Y293076D1*
X1838276Y285691D1*
X1859568Y274843D1*
X1878900Y260797D1*
X1895797Y243900D1*
X1906911Y228956D1*
X1918203Y243900D1*
X1935100Y260797D1*
X1954432Y274843D1*
X1975724Y285691D1*
X1998450Y293076D1*
X2022052Y296814D1*
X2045948D1*
X2069550Y293076D1*
X2092276Y285691D1*
X2113568Y274843D1*
X2132900Y260797D1*
X2149797Y243900D1*
X2160911Y228956D1*
X2172203Y243900D1*
X2189100Y260797D1*
X2208432Y274843D1*
X2229724Y285691D1*
X2252450Y293076D1*
X2276052Y296814D1*
X2286833Y297237D1*
X2285417Y314734D1*
X2286270Y333368D1*
X2289534Y351734D1*
X2295152Y369521D1*
X2303031Y386429D1*
X2313037Y402172D1*
X2325000Y416484D1*
X2338719Y429123D1*
X2353962Y439875D1*
X2370470Y448559D1*
X2387966Y455028D1*
X2406153Y459173D1*
X2424725Y460923D1*
X2443366Y460250D1*
X2461762Y457163D1*
X2479603Y451716D1*
X2496586Y444001D1*
X2512425Y434147D1*
X2526851Y422323D1*
X2539622Y408726D1*
X2550521Y393588D1*
X2559364Y377164D1*
X2566001Y359731D1*
X2570321Y341584D1*
X2572250Y323031D1*
X2571674Y303522D1*
X2570509Y294576D1*
X2589058Y289830D1*
X2611135Y280685D1*
X2631510Y268200D1*
X2649681Y252681D1*
X2665200Y234510D1*
X2668911Y228956D1*
X2680203Y243900D1*
X2697100Y260797D1*
X2716432Y274843D1*
X2737724Y285691D1*
X2760450Y293076D1*
X2784052Y296814D1*
X2807948D1*
X2831550Y293076D1*
X2854276Y285691D1*
X2875568Y274843D1*
X2894900Y260797D1*
X2911797Y243900D1*
X2922911Y228956D1*
X2934203Y243900D1*
X2951100Y260797D1*
X2970432Y274843D1*
X2991724Y285691D1*
X3014450Y293076D1*
X3038052Y296814D1*
X3061948D1*
X3085550Y293076D1*
X3108276Y285691D1*
X3129568Y274843D1*
X3148900Y260797D1*
X3165797Y243900D1*
X3176911Y228956D1*
X3188203Y243900D1*
X3205100Y260797D1*
X3224432Y274843D1*
X3246030Y285805D1*
X3241176Y302846D1*
X3238400Y321291D1*
X3238040Y339942D1*
X3240103Y358481D1*
X3244554Y376595D1*
X3251317Y393980D1*
X3260278Y410340D1*
X3271286Y425399D1*
X3284154Y438903D1*
X3298665Y450624D1*
X3314575Y460363D1*
X3331613Y467955D1*
X3349492Y473273D1*
X3367911Y476227D1*
X3386556Y476766D1*
X3405114Y474882D1*
X3423271Y470607D1*
X3440720Y464011D1*
X3457166Y455208D1*
X3472330Y444346D1*
X3485958Y431609D1*
X3497818Y417211D1*
X3507709Y401396D1*
X3515466Y384432D1*
X3520956Y366605D1*
X3524087Y348216D1*
X3524781Y328711D1*
X3522964Y310146D1*
X3518808Y292167D1*
X3534178Y295408D1*
X3558000Y297283D1*
X3581822Y295408D1*
X3605058Y289830D1*
X3627135Y280685D1*
X3647510Y268200D1*
X3665681Y252681D1*
X3681200Y234510D1*
X3684911Y228956D1*
X3696203Y243900D1*
X3713100Y260797D1*
X3732432Y274843D1*
X3753724Y285691D1*
X3776450Y293076D1*
X3800052Y296814D1*
X3823948D1*
X3847550Y293076D1*
X3870276Y285691D1*
X3891568Y274843D1*
X3910900Y260797D1*
X3927797Y243900D1*
X3938911Y228956D1*
X3950203Y243900D1*
X3967100Y260797D1*
X3986432Y274843D1*
X4007724Y285691D1*
X4030450Y293076D1*
X4054052Y296814D1*
X4077948D1*
X4101550Y293076D1*
X4124276Y285691D1*
X4145568Y274843D1*
X4164900Y260797D1*
X4181797Y243900D1*
X4192911Y228956D1*
X4204203Y243900D1*
X4221100Y260797D1*
X4240432Y274843D1*
X4261724Y285691D1*
X4284450Y293076D1*
X4308052Y296814D1*
X4331948D1*
X4355550Y293076D1*
X4378276Y285691D1*
X4399568Y274843D1*
X4418900Y260797D1*
X4435797Y243900D1*
X4446911Y228956D1*
X4459475Y245371D1*
X4472607Y258621D1*
X4487261Y270166D1*
X4503216Y279833D1*
X4520233Y287476D1*
X4538057Y292981D1*
X4556421Y296265D1*
X4575048Y297280D1*
X4593660Y296009D1*
X4611977Y292472D1*
X4629723Y286722D1*
X4646634Y278845D1*
X4662454Y268960D1*
X4676947Y257214D1*
X4689896Y243785D1*
X4700992Y229038D1*
X4712203Y243900D1*
X4729100Y260797D1*
X4748432Y274843D1*
X4769724Y285691D1*
X4792450Y293076D1*
X4816052Y296814D1*
X4839948D1*
X4863550Y293076D1*
X4886276Y285691D1*
X4907568Y274843D1*
X4926900Y260797D1*
X4943797Y243900D1*
X4954911Y228956D1*
X4966203Y243900D1*
X4983100Y260797D1*
X5002432Y274843D1*
X5023724Y285691D1*
X5046450Y293076D1*
X5070052Y296814D1*
X5093948D1*
X5117550Y293076D1*
X5140276Y285691D1*
X5161568Y274843D1*
X5180900Y260797D1*
X5197797Y243900D1*
X5208911Y228956D1*
X5220203Y243900D1*
X5237100Y260797D1*
X5256432Y274843D1*
X5277724Y285691D1*
X5300450Y293076D1*
X5324052Y296814D1*
X5347948D1*
X5371550Y293076D1*
X5394276Y285691D1*
X5415568Y274843D1*
X5434900Y260797D1*
X5451797Y243900D1*
X5462911Y228956D1*
X5474203Y243900D1*
X5491100Y260797D1*
X5510432Y274843D1*
X5531724Y285691D1*
X5554450Y293076D1*
X5578052Y296814D1*
X5601948D1*
X5625550Y293076D1*
X5648276Y285691D1*
X5669568Y274843D1*
X5688900Y260797D1*
X5705797Y243900D1*
X5716911Y228956D1*
X5729475Y245371D1*
X5742607Y258621D1*
X5757261Y270166D1*
X5773216Y279833D1*
X5790233Y287476D1*
X5808057Y292981D1*
X5826421Y296265D1*
X5845048Y297280D1*
X5863660Y296009D1*
X5881977Y292472D1*
X5899723Y286722D1*
X5916634Y278845D1*
X5932454Y268960D1*
X5946947Y257214D1*
X5959896Y243785D1*
X5970992Y229038D1*
X5983475Y245371D1*
X5996607Y258621D1*
X6011261Y270166D1*
X6027216Y279833D1*
X6044233Y287476D1*
X6062057Y292981D1*
X6080421Y296265D1*
X6099048Y297280D1*
X6117660Y296009D1*
X6135977Y292472D1*
X6153723Y286722D1*
X6170634Y278845D1*
X6186454Y268960D1*
X6200947Y257214D1*
X6213896Y243785D1*
X6225105Y228873D1*
X6234406Y212702D1*
X6241661Y195516D1*
X6246759Y177571D1*
X6249626Y159137D1*
X6250283Y135667D1*
X6249640Y101020D1*
X6246793Y82583D1*
X6241713Y64633D1*
X6234476Y47439D1*
X6225191Y31259D1*
X6213998Y16335D1*
X6201183Y3005D1*
X6213896Y-10215D1*
X6225105Y-25127D1*
X6234406Y-41298D1*
X6241661Y-58484D1*
X6246759Y-76429D1*
X6249626Y-94863D1*
X6250283Y-118333D1*
X6249640Y-152980D1*
X6246793Y-171417D1*
X6241713Y-189367D1*
X6234476Y-206561D1*
X6225191Y-222741D1*
X6213998Y-237665D1*
X6201064Y-251108D1*
X6186583Y-262868D1*
X6170772Y-272770D1*
X6153870Y-280664D1*
X6136129Y-286433D1*
X6117816Y-289988D1*
X6099206Y-291279D1*
X6080578Y-290283D1*
X6062211Y-287018D1*
X6044381Y-281531D1*
X6027356Y-273906D1*
X6011390Y-264256D1*
X5996725Y-252726D1*
X5983579Y-239490D1*
X5971017Y-223025D1*
X5959998Y-237665D1*
X5947064Y-251108D1*
X5932583Y-262868D1*
X5916772Y-272770D1*
X5899870Y-280664D1*
X5882129Y-286433D1*
X5863816Y-289988D1*
X5845206Y-291279D1*
X5826578Y-290283D1*
X5808211Y-287018D1*
X5790381Y-281531D1*
X5773356Y-273906D1*
X5757390Y-264256D1*
X5742725Y-252726D1*
X5729579Y-239490D1*
X5717017Y-223025D1*
X5705797Y-237900D1*
X5688900Y-254797D1*
X5669568Y-268843D1*
X5648276Y-279691D1*
X5625550Y-287076D1*
X5601948Y-290814D1*
X5578052D1*
X5554450Y-287076D1*
X5531724Y-279691D1*
X5510432Y-268843D1*
X5491100Y-254797D1*
X5474203Y-237900D1*
X5463089Y-222956D1*
X5455123Y-233682D1*
X5473292Y-243292D1*
X5488457Y-254154D1*
X5502084Y-266891D1*
X5513944Y-281289D1*
X5523836Y-297104D1*
X5531593Y-314068D1*
X5537083Y-331895D1*
X5540214Y-350284D1*
X5540907Y-369789D1*
X5539955Y-382126D1*
X5596041Y-382988D1*
X5606449Y-384758D1*
X5616453Y-388135D1*
X5625805Y-393034D1*
X5634276Y-399337D1*
X5641656Y-406887D1*
X5647765Y-415499D1*
X5652451Y-424960D1*
X5655599Y-435037D1*
X5657132Y-445504D1*
X5657284Y-1380000D1*
X5656455Y-1390525D1*
X5653991Y-1400792D1*
X5649950Y-1410546D1*
X5644434Y-1419548D1*
X5637577Y-1427577D1*
X5629548Y-1434434D1*
X5620546Y-1439950D1*
X5610792Y-1443991D1*
X5600505Y-1446458D1*
X5464982Y-1467099D1*
X5454424Y-1467052D1*
X5444003Y-1465354D1*
X5433977Y-1462047D1*
X5424591Y-1457212D1*
X5416077Y-1450969D1*
X5408644Y-1443470D1*
X5405380Y-1439290D1*
X5401946Y-1440968D1*
X5387986Y-1453340D1*
X5372539Y-1463797D1*
X5355866Y-1472161D1*
X5338248Y-1478291D1*
X5319985Y-1482085D1*
X5301383Y-1483477D1*
X5282758Y-1482444D1*
X5264425Y-1479003D1*
X5246693Y-1473213D1*
X5229861Y-1465172D1*
X5214215Y-1455015D1*
X5200020Y-1442914D1*
X5197279Y-1440164D1*
X5197076Y-1545279D1*
X5195425Y-1555707D1*
X5192162Y-1565748D1*
X5187369Y-1575156D1*
X5181163Y-1583697D1*
X5173697Y-1591163D1*
X5165156Y-1597369D1*
X5155748Y-1602162D1*
X5145707Y-1605425D1*
X5135279Y-1607076D1*
X4850000Y-1607284D1*
X4704721Y-1607076D1*
X4694293Y-1605425D1*
X4684252Y-1602162D1*
X4674844Y-1597369D1*
X4666303Y-1591163D1*
X4658837Y-1583697D1*
X4652631Y-1575156D1*
X4647838Y-1565748D1*
X4644575Y-1555707D1*
X4642924Y-1545279D1*
X4642716Y-1260000D1*
X4642988Y-433959D1*
X4644758Y-423551D1*
X4648135Y-413547D1*
X4653034Y-404195D1*
X4659337Y-395724D1*
X4666887Y-388344D1*
X4675499Y-382235D1*
X4684960Y-377549D1*
X4695037Y-374401D1*
X4705484Y-372868D1*
X4990746Y-375902D1*
X5254597Y-378901D1*
X5254167Y-358558D1*
X5256230Y-340019D1*
X5260680Y-321905D1*
X5267443Y-304520D1*
X5276404Y-288160D1*
X5281211Y-281092D1*
X5266865Y-274685D1*
X5246490Y-262200D1*
X5228319Y-246681D1*
X5212800Y-228510D1*
X5209089Y-222956D1*
X5197797Y-237900D1*
X5180900Y-254797D1*
X5161568Y-268843D1*
X5140276Y-279691D1*
X5117550Y-287076D1*
X5093948Y-290814D1*
X5070052D1*
X5046450Y-287076D1*
X5023724Y-279691D1*
X5002432Y-268843D1*
X4983100Y-254797D1*
X4966203Y-237900D1*
X4955089Y-222956D1*
X4943797Y-237900D1*
X4926900Y-254797D1*
X4907568Y-268843D1*
X4886276Y-279691D1*
X4863550Y-287076D1*
X4839948Y-290814D1*
X4816052D1*
X4792450Y-287076D1*
X4769724Y-279691D1*
X4748432Y-268843D1*
X4729100Y-254797D1*
X4712203Y-237900D1*
X4701089Y-222956D1*
X4689797Y-237900D1*
X4672900Y-254797D1*
X4653568Y-268843D1*
X4632276Y-279691D1*
X4609550Y-287076D1*
X4585948Y-290814D1*
X4562052D1*
X4538450Y-287076D1*
X4515724Y-279691D1*
X4494432Y-268843D1*
X4475100Y-254797D1*
X4458203Y-237900D1*
X4447089Y-222956D1*
X4435797Y-237900D1*
X4418900Y-254797D1*
X4399568Y-268843D1*
X4378276Y-279691D1*
X4355550Y-287076D1*
X4331948Y-290814D1*
X4308052D1*
X4284450Y-287076D1*
X4261724Y-279691D1*
X4240432Y-268843D1*
X4221100Y-254797D1*
X4204203Y-237900D1*
X4193089Y-222956D1*
X4181797Y-237900D1*
X4164900Y-254797D1*
X4145568Y-268843D1*
X4124276Y-279691D1*
X4101550Y-287076D1*
X4077948Y-290814D1*
X4054052D1*
X4030450Y-287076D1*
X4007724Y-279691D1*
X3986432Y-268843D1*
X3967100Y-254797D1*
X3950203Y-237900D1*
X3939089Y-222956D1*
X3927797Y-237900D1*
X3910900Y-254797D1*
X3891568Y-268843D1*
X3870276Y-279691D1*
X3847550Y-287076D1*
X3823948Y-290814D1*
X3800052D1*
X3776450Y-287076D1*
X3753724Y-279691D1*
X3732432Y-268843D1*
X3713100Y-254797D1*
X3696203Y-237900D1*
X3685089Y-222956D1*
X3673797Y-237900D1*
X3656900Y-254797D1*
X3637568Y-268843D1*
X3616276Y-279691D1*
X3593550Y-287076D1*
X3569948Y-290814D1*
X3546052D1*
X3522450Y-287076D1*
X3499724Y-279691D1*
X3478432Y-268843D1*
X3459100Y-254797D1*
X3442203Y-237900D1*
X3431089Y-222956D1*
X3419797Y-237900D1*
X3402900Y-254797D1*
X3383568Y-268843D1*
X3362276Y-279691D1*
X3339550Y-287076D1*
X3315948Y-290814D1*
X3292052D1*
X3268450Y-287076D1*
X3267326Y-286759D1*
X3267283Y-472669D1*
X3331523Y-472717D1*
X3330174Y-375721D1*
X3331826Y-365293D1*
X3335088Y-355252D1*
X3339881Y-345845D1*
X3346087Y-337303D1*
X3353553Y-329837D1*
X3362095Y-323631D1*
X3371502Y-318838D1*
X3381543Y-315576D1*
X3391971Y-313924D1*
X3677250Y-313717D1*
X3894652Y-313924D1*
X3905080Y-315576D1*
X3915122Y-318838D1*
X3924529Y-323631D1*
X3933070Y-329837D1*
X3940536Y-337303D1*
X3946742Y-345844D1*
X3951535Y-355252D1*
X3954798Y-365293D1*
X3956449Y-375721D1*
X3956657Y-661000D1*
X3956223Y-785502D1*
X3954206Y-795866D1*
X3950594Y-805786D1*
X3945473Y-815020D1*
X3913319Y-863581D1*
X4202283Y-863590D1*
Y-945895D1*
X4213787Y-930995D1*
X4224035Y-919908D1*
X4235122Y-909660D1*
X4246979Y-900313D1*
X4260510Y-891377D1*
X4250300Y-879119D1*
X4240199Y-863437D1*
X4232219Y-846577D1*
X4226493Y-828824D1*
X4223118Y-810478D1*
X4222153Y-791850D1*
X4223612Y-773253D1*
X4227471Y-755003D1*
X4233665Y-737408D1*
X4242089Y-720765D1*
X4252601Y-705356D1*
X4265024Y-691441D1*
X4279146Y-679255D1*
X4294731Y-669003D1*
X4311513Y-660861D1*
X4329210Y-654964D1*
X4347522Y-651413D1*
X4366141Y-650268D1*
X4384750Y-651547D1*
X4403037Y-655230D1*
X4420691Y-661254D1*
X4437414Y-669518D1*
X4452924Y-679881D1*
X4466958Y-692169D1*
X4479280Y-706173D1*
X4489681Y-721658D1*
X4497985Y-738361D1*
X4504052Y-756001D1*
X4507779Y-774278D1*
X4509107Y-793750D1*
X4507894Y-812364D1*
X4504277Y-830664D1*
X4498317Y-848339D1*
X4490113Y-865092D1*
X4479806Y-880639D1*
X4466487Y-895775D1*
X4484878Y-909660D1*
X4495965Y-919908D1*
X4506213Y-930995D1*
X4515560Y-942852D1*
X4523948Y-955406D1*
X4531326Y-968579D1*
X4537647Y-982290D1*
X4542872Y-996455D1*
X4546971Y-1010986D1*
X4549916Y-1025794D1*
X4551691Y-1040787D1*
X4552283Y-1055873D1*
X4551691Y-1070960D1*
X500595Y5694461D2*
X499035Y5675869D1*
X495415Y5657567D1*
X489779Y5639781D1*
X482198Y5622734D1*
X472766Y5606637D1*
X461600Y5591690D1*
X448839Y5578080D1*
X434641Y5565976D1*
X419184Y5555527D1*
X402660Y5546865D1*
X385274Y5540097D1*
X367242Y5535307D1*
X348789Y5532555D1*
X330145Y5531875D1*
X311541Y5533275D1*
X293208Y5536738D1*
X275375Y5542221D1*
X258263Y5549655D1*
X242086Y5558949D1*
X227044Y5569987D1*
X213325Y5582631D1*
X201099Y5596724D1*
X190519Y5612091D1*
X181715Y5628540D1*
X174798Y5645867D1*
X169854Y5663857D1*
X166943Y5682286D1*
X166103Y5700924D1*
X167343Y5719540D1*
X170649Y5737901D1*
X175979Y5755781D1*
X183267Y5772956D1*
X192422Y5789212D1*
X203330Y5804348D1*
X215856Y5818175D1*
X229843Y5830521D1*
X245119Y5841233D1*
X261492Y5850177D1*
X278759Y5857243D1*
X296706Y5862341D1*
X315109Y5865410D1*
X333739Y5866410D1*
X352365Y5865329D1*
X370754Y5862181D1*
X388679Y5857004D1*
X405915Y5849864D1*
X422250Y5840849D1*
X437479Y5830071D1*
X451413Y5817664D1*
X463878Y5803783D1*
X474721Y5788600D1*
X483805Y5772304D1*
X491018Y5755098D1*
X496271Y5737196D1*
X499497Y5718820D1*
X500660Y5699127D1*
X500595Y5694461D1*
X6964067Y1244914D2*
X6962293Y1229920D1*
X6959347Y1215112D1*
X6955249Y1200581D1*
X6950023Y1186416D1*
X6943702Y1172705D1*
X6936325Y1159532D1*
X6927937Y1146979D1*
X6918590Y1135122D1*
X6908342Y1124035D1*
X6897255Y1113787D1*
X6882211Y1102310D1*
X6964660Y1102283D1*
Y717716D1*
X6580094D1*
Y1102283D1*
X6662398D1*
X6647499Y1113787D1*
X6636412Y1124035D1*
X6626163Y1135122D1*
X6616816Y1146979D1*
X6608428Y1159532D1*
X6601051Y1172705D1*
X6594730Y1186416D1*
X6589504Y1200581D1*
X6585406Y1215112D1*
X6582461Y1229920D1*
X6580686Y1244914D1*
X6580093Y1260000D1*
X6580686Y1275086D1*
X6582461Y1290080D1*
X6585406Y1304888D1*
X6589504Y1319419D1*
X6594730Y1333584D1*
X6601051Y1347295D1*
X6608428Y1360468D1*
X6616816Y1373021D1*
X6626163Y1384878D1*
X6636412Y1395965D1*
X6647499Y1406213D1*
X6659355Y1415560D1*
X6671909Y1423948D1*
X6685082Y1431326D1*
X6698793Y1437647D1*
X6712958Y1442872D1*
X6727489Y1446971D1*
X6742297Y1449916D1*
X6757290Y1451691D1*
X6772377Y1452283D1*
X6787463Y1451691D1*
X6802456Y1449916D1*
X6817264Y1446971D1*
X6831795Y1442872D1*
X6845960Y1437647D1*
X6859671Y1431326D1*
X6872844Y1423948D1*
X6885398Y1415560D1*
X6897255Y1406213D1*
X6908342Y1395965D1*
X6918590Y1384878D1*
X6927937Y1373021D1*
X6936325Y1360468D1*
X6943702Y1347295D1*
X6950023Y1333584D1*
X6955249Y1319419D1*
X6959347Y1304888D1*
X6962293Y1290080D1*
X6964067Y1275086D1*
X6964660Y1260000D1*
X6964067Y1244914D1*
X-643232Y-583125D2*
X-647339Y-609052D1*
X-655450Y-634017D1*
X-667368Y-657405D1*
X-682797Y-678642D1*
X-701358Y-697203D1*
X-722595Y-712632D1*
X-745983Y-724550D1*
X-770948Y-732661D1*
X-796875Y-736768D1*
X-823125D1*
X-849052Y-732661D1*
X-874017Y-724550D1*
X-897405Y-712632D1*
X-918642Y-697203D1*
X-937203Y-678642D1*
X-952632Y-657405D1*
X-964550Y-634017D1*
X-972661Y-609052D1*
X-976768Y-583125D1*
Y-556875D1*
X-972661Y-530948D1*
X-964550Y-505983D1*
X-952632Y-482595D1*
X-937203Y-461358D1*
X-918642Y-442797D1*
X-897405Y-427368D1*
X-874017Y-415450D1*
X-849052Y-407339D1*
X-823125Y-403232D1*
X-796875D1*
X-770948Y-407339D1*
X-745983Y-415450D1*
X-722595Y-427368D1*
X-701358Y-442797D1*
X-682797Y-461358D1*
X-667368Y-482595D1*
X-655450Y-505983D1*
X-647339Y-530948D1*
X-643232Y-556875D1*
Y-583125D1*
Y-1093125D2*
X-647339Y-1119052D1*
X-655450Y-1144017D1*
X-667368Y-1167405D1*
X-682797Y-1188642D1*
X-701358Y-1207203D1*
X-722595Y-1222632D1*
X-745983Y-1234550D1*
X-770948Y-1242661D1*
X-796875Y-1246768D1*
X-823125D1*
X-849052Y-1242661D1*
X-874017Y-1234550D1*
X-897405Y-1222632D1*
X-918642Y-1207203D1*
X-937203Y-1188642D1*
X-952632Y-1167405D1*
X-964550Y-1144017D1*
X-972661Y-1119052D1*
X-976768Y-1093125D1*
Y-1066875D1*
X-972661Y-1040948D1*
X-964550Y-1015983D1*
X-952632Y-992595D1*
X-937203Y-971358D1*
X-918642Y-952797D1*
X-897405Y-937368D1*
X-874017Y-925450D1*
X-849052Y-917339D1*
X-823125Y-913232D1*
X-796875D1*
X-770948Y-917339D1*
X-745983Y-925450D1*
X-722595Y-937368D1*
X-701358Y-952797D1*
X-682797Y-971358D1*
X-667368Y-992595D1*
X-655450Y-1015983D1*
X-647339Y-1040948D1*
X-643232Y-1066875D1*
Y-1093125D1*
X6964067Y3804914D2*
X6962293Y3789920D1*
X6959347Y3775112D1*
X6955249Y3760581D1*
X6950023Y3746416D1*
X6943702Y3732705D1*
X6936325Y3719532D1*
X6927937Y3706979D1*
X6918590Y3695122D1*
X6908342Y3684035D1*
X6897255Y3673787D1*
X6882211Y3662310D1*
X6964660Y3662283D1*
Y3277716D1*
X6580094D1*
Y3662283D1*
X6662398D1*
X6647499Y3673787D1*
X6636412Y3684035D1*
X6626163Y3695122D1*
X6616816Y3706979D1*
X6608428Y3719532D1*
X6601051Y3732705D1*
X6594730Y3746416D1*
X6589504Y3760581D1*
X6585406Y3775112D1*
X6582461Y3789920D1*
X6580686Y3804914D1*
X6580093Y3820000D1*
X6580686Y3835086D1*
X6582461Y3850080D1*
X6585406Y3864888D1*
X6589504Y3879419D1*
X6594730Y3893584D1*
X6601051Y3907295D1*
X6608428Y3920468D1*
X6616816Y3933021D1*
X6626163Y3944878D1*
X6636412Y3955965D1*
X6647499Y3966213D1*
X6659355Y3975560D1*
X6671909Y3983948D1*
X6685082Y3991326D1*
X6698793Y3997647D1*
X6712958Y4002872D1*
X6727489Y4006971D1*
X6742297Y4009916D1*
X6757290Y4011691D1*
X6772377Y4012283D1*
X6787463Y4011691D1*
X6802456Y4009916D1*
X6817264Y4006971D1*
X6831795Y4002872D1*
X6845960Y3997647D1*
X6859671Y3991326D1*
X6872844Y3983948D1*
X6885398Y3975560D1*
X6897255Y3966213D1*
X6908342Y3955965D1*
X6918590Y3944878D1*
X6927937Y3933021D1*
X6936325Y3920468D1*
X6943702Y3907295D1*
X6950023Y3893584D1*
X6955249Y3879419D1*
X6959347Y3864888D1*
X6962293Y3850080D1*
X6964067Y3835086D1*
X6964660Y3820000D1*
X6964067Y3804914D1*
X1711691Y-1070960D2*
X1709916Y-1085953D1*
X1706971Y-1100761D1*
X1702872Y-1115292D1*
X1697647Y-1129457D1*
X1691326Y-1143168D1*
X1683948Y-1156341D1*
X1675560Y-1168895D1*
X1666213Y-1180751D1*
X1655965Y-1191838D1*
X1644878Y-1202087D1*
X1633021Y-1211434D1*
X1620468Y-1219822D1*
X1607295Y-1227199D1*
X1593584Y-1233520D1*
X1579419Y-1238746D1*
X1564888Y-1242844D1*
X1550080Y-1245789D1*
X1535086Y-1247564D1*
X1520000Y-1248157D1*
X1504914Y-1247564D1*
X1489920Y-1245789D1*
X1475112Y-1242844D1*
X1460581Y-1238746D1*
X1446416Y-1233520D1*
X1432705Y-1227199D1*
X1419532Y-1219822D1*
X1406979Y-1211434D1*
X1395122Y-1202087D1*
X1384035Y-1191838D1*
X1368419Y-1173943D1*
X1321758Y-1173957D1*
X1305965Y-1191838D1*
X1294878Y-1202087D1*
X1283021Y-1211434D1*
X1270468Y-1219822D1*
X1257295Y-1227199D1*
X1243584Y-1233520D1*
X1229419Y-1238746D1*
X1214888Y-1242844D1*
X1200080Y-1245789D1*
X1185086Y-1247564D1*
X1170000Y-1248157D1*
X1154914Y-1247564D1*
X1139920Y-1245789D1*
X1125112Y-1242844D1*
X1110581Y-1238746D1*
X1096416Y-1233520D1*
X1082705Y-1227199D1*
X1069532Y-1219822D1*
X1056979Y-1211434D1*
X1045122Y-1202087D1*
X1034035Y-1191838D1*
X1023787Y-1180751D1*
X1014440Y-1168895D1*
X1006052Y-1156341D1*
X995094Y-1135402D1*
X985520Y-1153731D1*
X972457Y-1173048D1*
X957152Y-1190641D1*
X939829Y-1206252D1*
X920744Y-1219652D1*
X900178Y-1230643D1*
X878432Y-1239063D1*
X855827Y-1244789D1*
X832695Y-1247737D1*
X809377Y-1247863D1*
X786214Y-1245165D1*
X763549Y-1239683D1*
X741713Y-1231498D1*
X721030Y-1220730D1*
X701801Y-1207537D1*
X684311Y-1192114D1*
X668817Y-1174687D1*
X662286Y-1165847D1*
X662284Y-1248157D1*
X277717D1*
Y-890774D1*
X260706Y-893083D1*
X242054Y-893263D1*
X223535Y-891022D1*
X205464Y-886397D1*
X188146Y-879466D1*
X171873Y-870348D1*
X156921Y-859196D1*
X143541Y-846198D1*
X131961Y-831574D1*
X122376Y-815571D1*
X114948Y-798461D1*
X109803Y-780531D1*
X107027Y-762085D1*
X106667Y-743435D1*
X108730Y-724896D1*
X113180Y-706781D1*
X119943Y-689397D1*
X128904Y-673037D1*
X139912Y-657978D1*
X152781Y-644474D1*
X167292Y-632753D1*
X183201Y-623014D1*
X200240Y-615421D1*
X218119Y-610103D1*
X236537Y-607150D1*
X255183Y-606610D1*
X273741Y-608494D1*
X291898Y-612770D1*
X309347Y-619365D1*
X325792Y-628168D1*
X340957Y-639030D1*
X354584Y-651768D1*
X366444Y-666166D1*
X376336Y-681980D1*
X384093Y-698945D1*
X389583Y-716772D1*
X392714Y-735161D1*
X393407Y-754666D1*
X391590Y-773231D1*
X387380Y-791403D1*
X380848Y-808875D1*
X372104Y-825353D1*
X361297Y-840556D1*
X348609Y-854230D1*
X337651Y-863592D1*
X662284Y-863590D1*
Y-945895D1*
X675098Y-929476D1*
X691464Y-912865D1*
X709721Y-898357D1*
X729599Y-886166D1*
X750807Y-876471D1*
X773033Y-869414D1*
X795949Y-865100D1*
X819219Y-863592D1*
X842501Y-864911D1*
X865452Y-869039D1*
X887734Y-875915D1*
X909020Y-885438D1*
X928997Y-897467D1*
X947371Y-911826D1*
X963871Y-928304D1*
X978256Y-946658D1*
X990312Y-966618D1*
X994988Y-976200D1*
X1006052Y-955406D1*
X1014440Y-942852D1*
X1023787Y-930995D1*
X1034035Y-919908D1*
X1045122Y-909660D1*
X1056979Y-900313D1*
X1069532Y-891925D1*
X1082705Y-884548D1*
X1096416Y-878227D1*
X1110581Y-873001D1*
X1125112Y-868903D1*
X1139920Y-865957D1*
X1154914Y-864183D1*
X1170000Y-863590D1*
X1185086Y-864183D1*
X1200080Y-865957D1*
X1214888Y-868903D1*
X1229419Y-873001D1*
X1243584Y-878227D1*
X1257295Y-884548D1*
X1270468Y-891925D1*
X1283021Y-900313D1*
X1294878Y-909660D1*
X1305965Y-919908D1*
X1321581Y-937804D1*
X1368242Y-937790D1*
X1384035Y-919908D1*
X1395122Y-909660D1*
X1406979Y-900313D1*
X1419532Y-891925D1*
X1432705Y-884548D1*
X1446416Y-878227D1*
X1460581Y-873001D1*
X1475112Y-868903D1*
X1489920Y-865957D1*
X1504914Y-864183D1*
X1520000Y-863590D1*
X1535086Y-864183D1*
X1550080Y-865957D1*
X1564888Y-868903D1*
X1579419Y-873001D1*
X1593584Y-878227D1*
X1607295Y-884548D1*
X1620468Y-891925D1*
X1633021Y-900313D1*
X1644878Y-909660D1*
X1655965Y-919908D1*
X1666213Y-930995D1*
X1675560Y-942852D1*
X1683948Y-955406D1*
X1691326Y-968579D1*
X1697647Y-982290D1*
X1702872Y-996455D1*
X1706971Y-1010986D1*
X1709916Y-1025794D1*
X1711691Y-1040787D1*
X1712283Y-1055873D1*
X1711691Y-1070960D1*
X6964067Y2524914D2*
X6962293Y2509920D1*
X6959347Y2495112D1*
X6955249Y2480581D1*
X6950023Y2466416D1*
X6943702Y2452705D1*
X6936325Y2439532D1*
X6927937Y2426979D1*
X6918590Y2415122D1*
X6908342Y2404035D1*
X6897255Y2393787D1*
X6882211Y2382310D1*
X6964660Y2382283D1*
Y1997716D1*
X6580094D1*
Y2382283D1*
X6662398D1*
X6647499Y2393787D1*
X6636412Y2404035D1*
X6626163Y2415122D1*
X6616816Y2426979D1*
X6608428Y2439532D1*
X6601051Y2452705D1*
X6594730Y2466416D1*
X6589504Y2480581D1*
X6585406Y2495112D1*
X6582461Y2509920D1*
X6580686Y2524914D1*
X6580093Y2540000D1*
X6580686Y2555086D1*
X6582461Y2570080D1*
X6585406Y2584888D1*
X6589504Y2599419D1*
X6594730Y2613584D1*
X6601051Y2627295D1*
X6608428Y2640468D1*
X6616816Y2653021D1*
X6626163Y2664878D1*
X6636412Y2675965D1*
X6647499Y2686213D1*
X6659355Y2695560D1*
X6671909Y2703948D1*
X6685082Y2711326D1*
X6698793Y2717647D1*
X6712958Y2722872D1*
X6727489Y2726971D1*
X6742297Y2729916D1*
X6757290Y2731691D1*
X6772377Y2732283D1*
X6787463Y2731691D1*
X6802456Y2729916D1*
X6817264Y2726971D1*
X6831795Y2722872D1*
X6845960Y2717647D1*
X6859671Y2711326D1*
X6872844Y2703948D1*
X6885398Y2695560D1*
X6897255Y2686213D1*
X6908342Y2675965D1*
X6918590Y2664878D1*
X6927937Y2653021D1*
X6936325Y2640468D1*
X6943702Y2627295D1*
X6950023Y2613584D1*
X6955249Y2599419D1*
X6959347Y2584888D1*
X6962293Y2570080D1*
X6964067Y2555086D1*
X6964660Y2540000D1*
X6964067Y2524914D1*
X357735Y4965012D2*
X358583Y4981224D1*
X361703Y4999616D1*
X367048Y5017489D1*
X374539Y5034574D1*
X384062Y5050615D1*
X395475Y5065371D1*
X408607Y5078621D1*
X423261Y5090166D1*
X439216Y5099833D1*
X456233Y5107476D1*
X474057Y5112981D1*
X492421Y5116265D1*
X511048Y5117280D1*
X529660Y5116009D1*
X547977Y5112472D1*
X565723Y5106722D1*
X582634Y5098845D1*
X598454Y5088960D1*
X612947Y5077214D1*
X625896Y5063785D1*
X636992Y5049038D1*
X648203Y5063900D1*
X665100Y5080797D1*
X684432Y5094843D1*
X705724Y5105691D1*
X728450Y5113076D1*
X752052Y5116814D1*
X775948D1*
X799550Y5113076D1*
X822276Y5105691D1*
X843568Y5094843D1*
X862900Y5080797D1*
X879797Y5063900D1*
X890911Y5048956D1*
X902203Y5063900D1*
X919100Y5080797D1*
X938432Y5094843D1*
X959724Y5105691D1*
X982450Y5113076D1*
X1006052Y5116814D1*
X1029948D1*
X1053550Y5113076D1*
X1076276Y5105691D1*
X1097568Y5094843D1*
X1116900Y5080797D1*
X1133797Y5063900D1*
X1144911Y5048956D1*
X1156203Y5063900D1*
X1173100Y5080797D1*
X1192432Y5094843D1*
X1213724Y5105691D1*
X1236450Y5113076D1*
X1260052Y5116814D1*
X1283948D1*
X1307550Y5113076D1*
X1330276Y5105691D1*
X1351568Y5094843D1*
X1370900Y5080797D1*
X1387797Y5063900D1*
X1398911Y5048956D1*
X1410203Y5063900D1*
X1427100Y5080797D1*
X1446432Y5094843D1*
X1467724Y5105691D1*
X1490450Y5113076D1*
X1514052Y5116814D1*
X1537948D1*
X1561550Y5113076D1*
X1584276Y5105691D1*
X1605568Y5094843D1*
X1624900Y5080797D1*
X1641797Y5063900D1*
X1652911Y5048956D1*
X1664203Y5063900D1*
X1681100Y5080797D1*
X1700432Y5094843D1*
X1721724Y5105691D1*
X1744450Y5113076D1*
X1768052Y5116814D1*
X1791948D1*
X1815954Y5112962D1*
X1806908Y5126271D1*
X1798384Y5142863D1*
X1792084Y5160420D1*
X1788114Y5178647D1*
X1786543Y5197234D1*
X1787397Y5215868D1*
X1790660Y5234234D1*
X1796279Y5252021D1*
X1804158Y5268929D1*
X1814163Y5284672D1*
X1826127Y5298984D1*
X1839846Y5311623D1*
X1855088Y5322375D1*
X1871597Y5331059D1*
X1889093Y5337528D1*
X1907280Y5341673D1*
X1925851Y5343423D1*
X1944493Y5342750D1*
X1962889Y5339663D1*
X1980730Y5334216D1*
X1997713Y5326501D1*
X2013551Y5316647D1*
X2027978Y5304823D1*
X2040749Y5291226D1*
X2051647Y5276088D1*
X2060490Y5259664D1*
X2067128Y5242231D1*
X2071448Y5224084D1*
X2073377Y5205531D1*
X2072801Y5186022D1*
X2069781Y5167615D1*
X2064398Y5149755D1*
X2056744Y5132744D1*
X2046851Y5116738D1*
X2069550Y5113076D1*
X2092276Y5105691D1*
X2113568Y5094843D1*
X2132900Y5080797D1*
X2149797Y5063900D1*
X2160911Y5048956D1*
X2172203Y5063900D1*
X2189100Y5080797D1*
X2208432Y5094843D1*
X2229724Y5105691D1*
X2252450Y5113076D1*
X2276052Y5116814D1*
X2299948D1*
X2323550Y5113076D1*
X2346276Y5105691D1*
X2367568Y5094843D1*
X2386900Y5080797D1*
X2403797Y5063900D1*
X2414911Y5048956D1*
X2426203Y5063900D1*
X2443100Y5080797D1*
X2462432Y5094843D1*
X2483724Y5105691D1*
X2506450Y5113076D1*
X2530052Y5116814D1*
X2553948D1*
X2577550Y5113076D1*
X2600276Y5105691D1*
X2621568Y5094843D1*
X2640900Y5080797D1*
X2657797Y5063900D1*
X2668911Y5048956D1*
X2680203Y5063900D1*
X2697100Y5080797D1*
X2716432Y5094843D1*
X2737724Y5105691D1*
X2760450Y5113076D1*
X2784052Y5116814D1*
X2807948D1*
X2831550Y5113076D1*
X2854276Y5105691D1*
X2875568Y5094843D1*
X2894900Y5080797D1*
X2911797Y5063900D1*
X2922911Y5048956D1*
X2934203Y5063900D1*
X2951100Y5080797D1*
X2970432Y5094843D1*
X2991724Y5105691D1*
X3014450Y5113076D1*
X3038052Y5116814D1*
X3061948D1*
X3085550Y5113076D1*
X3108276Y5105691D1*
X3129568Y5094843D1*
X3148900Y5080797D1*
X3165797Y5063900D1*
X3176911Y5048956D1*
X3188203Y5063900D1*
X3205100Y5080797D1*
X3224432Y5094843D1*
X3245724Y5105691D1*
X3268450Y5113076D1*
X3292052Y5116814D1*
X3315948D1*
X3339550Y5113076D1*
X3362276Y5105691D1*
X3383568Y5094843D1*
X3402900Y5080797D1*
X3419797Y5063900D1*
X3430911Y5048956D1*
X3442203Y5063900D1*
X3459100Y5080797D1*
X3478432Y5094843D1*
X3499724Y5105691D1*
X3522450Y5113076D1*
X3546052Y5116814D1*
X3569948D1*
X3593550Y5113076D1*
X3616276Y5105691D1*
X3637568Y5094843D1*
X3656900Y5080797D1*
X3673797Y5063900D1*
X3684911Y5048956D1*
X3696203Y5063900D1*
X3713100Y5080797D1*
X3732432Y5094843D1*
X3753724Y5105691D1*
X3776450Y5113076D1*
X3800052Y5116814D1*
X3823948D1*
X3847550Y5113076D1*
X3870276Y5105691D1*
X3891568Y5094843D1*
X3910900Y5080797D1*
X3927797Y5063900D1*
X3938911Y5048956D1*
X3950203Y5063900D1*
X3967100Y5080797D1*
X3986432Y5094843D1*
X4007724Y5105691D1*
X4030450Y5113076D1*
X4054052Y5116814D1*
X4077948D1*
X4101550Y5113076D1*
X4124276Y5105691D1*
X4145568Y5094843D1*
X4164900Y5080797D1*
X4181797Y5063900D1*
X4192911Y5048956D1*
X4204203Y5063900D1*
X4221100Y5080797D1*
X4240432Y5094843D1*
X4261724Y5105691D1*
X4284450Y5113076D1*
X4308052Y5116814D1*
X4331948D1*
X4355550Y5113076D1*
X4378276Y5105691D1*
X4399568Y5094843D1*
X4418900Y5080797D1*
X4435797Y5063900D1*
X4446911Y5048956D1*
X4458203Y5063900D1*
X4475100Y5080797D1*
X4494432Y5094843D1*
X4515724Y5105691D1*
X4538450Y5113076D1*
X4562052Y5116814D1*
X4585948D1*
X4609550Y5113076D1*
X4632276Y5105691D1*
X4653568Y5094843D1*
X4672900Y5080797D1*
X4689797Y5063900D1*
X4700911Y5048956D1*
X4712203Y5063900D1*
X4729100Y5080797D1*
X4748432Y5094843D1*
X4769724Y5105691D1*
X4792450Y5113076D1*
X4816052Y5116814D1*
X4839948D1*
X4841571Y5116622D1*
X4829908Y5133271D1*
X4821384Y5149863D1*
X4815084Y5167420D1*
X4811114Y5185647D1*
X4809543Y5204234D1*
X4810397Y5222868D1*
X4813660Y5241234D1*
X4819279Y5259021D1*
X4827158Y5275929D1*
X4837163Y5291672D1*
X4849127Y5305984D1*
X4862846Y5318623D1*
X4878088Y5329375D1*
X4894597Y5338059D1*
X4912093Y5344528D1*
X4930280Y5348673D1*
X4948851Y5350423D1*
X4967493Y5349750D1*
X4985889Y5346663D1*
X5003730Y5341216D1*
X5020713Y5333501D1*
X5036551Y5323647D1*
X5050978Y5311823D1*
X5063749Y5298226D1*
X5074647Y5283088D1*
X5083490Y5266664D1*
X5090128Y5249231D1*
X5094448Y5231084D1*
X5096377Y5212531D1*
X5095801Y5193022D1*
X5092781Y5174615D1*
X5087398Y5156755D1*
X5079744Y5139744D1*
X5069948Y5123870D1*
X5064121Y5116234D1*
X5082000Y5117283D1*
X5105822Y5115408D1*
X5129058Y5109830D1*
X5151135Y5100685D1*
X5171510Y5088200D1*
X5189681Y5072681D1*
X5205200Y5054510D1*
X5208911Y5048956D1*
X5220203Y5063900D1*
X5237100Y5080797D1*
X5256432Y5094843D1*
X5277724Y5105691D1*
X5300450Y5113076D1*
X5324052Y5116814D1*
X5347948D1*
X5371550Y5113076D1*
X5394276Y5105691D1*
X5415568Y5094843D1*
X5434900Y5080797D1*
X5451797Y5063900D1*
X5462911Y5048956D1*
X5474203Y5063900D1*
X5491100Y5080797D1*
X5510432Y5094843D1*
X5531724Y5105691D1*
X5554450Y5113076D1*
X5578052Y5116814D1*
X5601948D1*
X5625550Y5113076D1*
X5648276Y5105691D1*
X5669568Y5094843D1*
X5688900Y5080797D1*
X5705797Y5063900D1*
X5716911Y5048956D1*
X5728203Y5063900D1*
X5745100Y5080797D1*
X5764432Y5094843D1*
X5785724Y5105691D1*
X5808450Y5113076D1*
X5832052Y5116814D1*
X5855948D1*
X5879550Y5113076D1*
X5902276Y5105691D1*
X5923568Y5094843D1*
X5942900Y5080797D1*
X5959797Y5063900D1*
X5970911Y5048956D1*
X5982203Y5063900D1*
X5999100Y5080797D1*
X6018432Y5094843D1*
X6039724Y5105691D1*
X6062450Y5113076D1*
X6086052Y5116814D1*
X6109948D1*
X6133550Y5113076D1*
X6156276Y5105691D1*
X6177568Y5094843D1*
X6196900Y5080797D1*
X6213797Y5063900D1*
X6227843Y5044568D1*
X6238691Y5023276D1*
X6246076Y5000550D1*
X6249814Y4976948D1*
X6250193Y4935000D1*
X6248408Y4911178D1*
X6242830Y4887942D1*
X6233685Y4865865D1*
X6221200Y4845490D1*
X6205681Y4827319D1*
X6201119Y4823103D1*
X6213797Y4809900D1*
X6227843Y4790568D1*
X6238691Y4769276D1*
X6246076Y4746550D1*
X6249814Y4722948D1*
X6250193Y4681000D1*
X6248408Y4657178D1*
X6242830Y4633942D1*
X6233685Y4611865D1*
X6221200Y4591490D1*
X6205681Y4573319D1*
X6187510Y4557800D1*
X6167135Y4545315D1*
X6145058Y4536170D1*
X6121822Y4530592D1*
X6098000Y4528717D1*
X6074178Y4530592D1*
X6050942Y4536170D1*
X6028865Y4545315D1*
X6008490Y4557800D1*
X5990319Y4573319D1*
X5974800Y4591490D1*
X5971089Y4597044D1*
X5959797Y4582100D1*
X5942900Y4565203D1*
X5923568Y4551157D1*
X5902276Y4540309D1*
X5879550Y4532924D1*
X5855948Y4529186D1*
X5832052D1*
X5808450Y4532924D1*
X5785724Y4540309D1*
X5764432Y4551157D1*
X5745100Y4565203D1*
X5728203Y4582100D1*
X5717089Y4597044D1*
X5705797Y4582100D1*
X5688900Y4565203D1*
X5669568Y4551157D1*
X5648276Y4540309D1*
X5625550Y4532924D1*
X5601948Y4529186D1*
X5578052D1*
X5554450Y4532924D1*
X5531724Y4540309D1*
X5510432Y4551157D1*
X5491100Y4565203D1*
X5474203Y4582100D1*
X5463089Y4597044D1*
X5451797Y4582100D1*
X5434900Y4565203D1*
X5415568Y4551157D1*
X5394276Y4540309D1*
X5371550Y4532924D1*
X5347948Y4529186D1*
X5324052D1*
X5300450Y4532924D1*
X5277724Y4540309D1*
X5256432Y4551157D1*
X5237100Y4565203D1*
X5220203Y4582100D1*
X5209089Y4597044D1*
X5197797Y4582100D1*
X5180900Y4565203D1*
X5161568Y4551157D1*
X5140276Y4540309D1*
X5117550Y4532924D1*
X5093948Y4529186D1*
X5070052D1*
X5046450Y4532924D1*
X5023724Y4540309D1*
X5002432Y4551157D1*
X4983100Y4565203D1*
X4966203Y4582100D1*
X4955089Y4597044D1*
X4943797Y4582100D1*
X4926900Y4565203D1*
X4907568Y4551157D1*
X4886276Y4540309D1*
X4863550Y4532924D1*
X4839948Y4529186D1*
X4816052D1*
X4792450Y4532924D1*
X4769724Y4540309D1*
X4748432Y4551157D1*
X4729100Y4565203D1*
X4712203Y4582100D1*
X4701089Y4597044D1*
X4689797Y4582100D1*
X4672900Y4565203D1*
X4653568Y4551157D1*
X4632276Y4540309D1*
X4609550Y4532924D1*
X4585948Y4529186D1*
X4562052D1*
X4538450Y4532924D1*
X4515724Y4540309D1*
X4494432Y4551157D1*
X4475100Y4565203D1*
X4458203Y4582100D1*
X4447089Y4597044D1*
X4435797Y4582100D1*
X4418900Y4565203D1*
X4399568Y4551157D1*
X4378276Y4540309D1*
X4355550Y4532924D1*
X4331948Y4529186D1*
X4308052D1*
X4284450Y4532924D1*
X4261724Y4540309D1*
X4240432Y4551157D1*
X4221100Y4565203D1*
X4204203Y4582100D1*
X4193089Y4597044D1*
X4181797Y4582100D1*
X4164900Y4565203D1*
X4145568Y4551157D1*
X4124276Y4540309D1*
X4101550Y4532924D1*
X4077948Y4529186D1*
X4054052D1*
X4030450Y4532924D1*
X4007724Y4540309D1*
X3986432Y4551157D1*
X3967100Y4565203D1*
X3950203Y4582100D1*
X3939089Y4597044D1*
X3927797Y4582100D1*
X3910900Y4565203D1*
X3891568Y4551157D1*
X3870276Y4540309D1*
X3847550Y4532924D1*
X3823948Y4529186D1*
X3800052D1*
X3776450Y4532924D1*
X3753724Y4540309D1*
X3732432Y4551157D1*
X3713100Y4565203D1*
X3696203Y4582100D1*
X3685089Y4597044D1*
X3673797Y4582100D1*
X3656900Y4565203D1*
X3637568Y4551157D1*
X3616276Y4540309D1*
X3593550Y4532924D1*
X3569948Y4529186D1*
X3546052D1*
X3522450Y4532924D1*
X3499724Y4540309D1*
X3478432Y4551157D1*
X3459100Y4565203D1*
X3442203Y4582100D1*
X3431089Y4597044D1*
X3419797Y4582100D1*
X3402900Y4565203D1*
X3383568Y4551157D1*
X3362276Y4540309D1*
X3339550Y4532924D1*
X3315948Y4529186D1*
X3292052D1*
X3268450Y4532924D1*
X3245724Y4540309D1*
X3224432Y4551157D1*
X3205100Y4565203D1*
X3188203Y4582100D1*
X3177089Y4597044D1*
X3165797Y4582100D1*
X3148900Y4565203D1*
X3129568Y4551157D1*
X3108276Y4540309D1*
X3085550Y4532924D1*
X3061948Y4529186D1*
X3038052D1*
X3014450Y4532924D1*
X2991724Y4540309D1*
X2970432Y4551157D1*
X2951100Y4565203D1*
X2934203Y4582100D1*
X2923089Y4597044D1*
X2911797Y4582100D1*
X2894900Y4565203D1*
X2875568Y4551157D1*
X2854276Y4540309D1*
X2831550Y4532924D1*
X2807948Y4529186D1*
X2784052D1*
X2760450Y4532924D1*
X2737724Y4540309D1*
X2716432Y4551157D1*
X2697100Y4565203D1*
X2680203Y4582100D1*
X2669089Y4597044D1*
X2657797Y4582100D1*
X2640900Y4565203D1*
X2621568Y4551157D1*
X2600276Y4540309D1*
X2577550Y4532924D1*
X2553948Y4529186D1*
X2530052D1*
X2506450Y4532924D1*
X2483724Y4540309D1*
X2462432Y4551157D1*
X2443100Y4565203D1*
X2426203Y4582100D1*
X2415089Y4597044D1*
X2403797Y4582100D1*
X2386900Y4565203D1*
X2367568Y4551157D1*
X2346276Y4540309D1*
X2323550Y4532924D1*
X2299948Y4529186D1*
X2276052D1*
X2252450Y4532924D1*
X2229724Y4540309D1*
X2208432Y4551157D1*
X2189100Y4565203D1*
X2172203Y4582100D1*
X2161089Y4597044D1*
X2149797Y4582100D1*
X2132900Y4565203D1*
X2113568Y4551157D1*
X2092276Y4540309D1*
X2069550Y4532924D1*
X2045948Y4529186D1*
X2022052D1*
X1998450Y4532924D1*
X1975724Y4540309D1*
X1954432Y4551157D1*
X1935100Y4565203D1*
X1918203Y4582100D1*
X1907089Y4597044D1*
X1895797Y4582100D1*
X1878900Y4565203D1*
X1859568Y4551157D1*
X1838276Y4540309D1*
X1815550Y4532924D1*
X1791948Y4529186D1*
X1768052D1*
X1744450Y4532924D1*
X1721724Y4540309D1*
X1700432Y4551157D1*
X1681100Y4565203D1*
X1664203Y4582100D1*
X1653089Y4597044D1*
X1641797Y4582100D1*
X1624900Y4565203D1*
X1605568Y4551157D1*
X1584276Y4540309D1*
X1561550Y4532924D1*
X1537948Y4529186D1*
X1514052D1*
X1490450Y4532924D1*
X1467724Y4540309D1*
X1446432Y4551157D1*
X1427100Y4565203D1*
X1410203Y4582100D1*
X1399089Y4597044D1*
X1387797Y4582100D1*
X1370900Y4565203D1*
X1351568Y4551157D1*
X1330276Y4540309D1*
X1307550Y4532924D1*
X1283948Y4529186D1*
X1260052D1*
X1236450Y4532924D1*
X1213724Y4540309D1*
X1192432Y4551157D1*
X1173100Y4565203D1*
X1156203Y4582100D1*
X1145089Y4597044D1*
X1133797Y4582100D1*
X1116900Y4565203D1*
X1097568Y4551157D1*
X1076276Y4540309D1*
X1053550Y4532924D1*
X1029948Y4529186D1*
X1006052D1*
X982450Y4532924D1*
X959724Y4540309D1*
X938432Y4551157D1*
X919100Y4565203D1*
X902203Y4582100D1*
X891089Y4597044D1*
X879797Y4582100D1*
X862900Y4565203D1*
X843568Y4551157D1*
X822276Y4540309D1*
X799550Y4532924D1*
X775948Y4529186D1*
X752052D1*
X728450Y4532924D1*
X705724Y4540309D1*
X684432Y4551157D1*
X665100Y4565203D1*
X662253Y4567834D1*
X662284Y4528716D1*
X357717D1*
Y4863283D1*
X375673D1*
X368783Y4878010D1*
X362874Y4895704D1*
X359173Y4913988D1*
X357736Y4932588D1*
X357717Y4964648D1*
X6731691Y-1070960D2*
X6729916Y-1085953D1*
X6726971Y-1100761D1*
X6722872Y-1115292D1*
X6717647Y-1129457D1*
X6711326Y-1143168D1*
X6703948Y-1156341D1*
X6695560Y-1168895D1*
X6686213Y-1180751D1*
X6675965Y-1191838D1*
X6664878Y-1202087D1*
X6653021Y-1211434D1*
X6640468Y-1219822D1*
X6627295Y-1227199D1*
X6613584Y-1233520D1*
X6599419Y-1238746D1*
X6584888Y-1242844D1*
X6570080Y-1245789D1*
X6555086Y-1247564D1*
X6540000Y-1248157D1*
X6524914Y-1247564D1*
X6509920Y-1245789D1*
X6495112Y-1242844D1*
X6480581Y-1238746D1*
X6466416Y-1233520D1*
X6452705Y-1227199D1*
X6439532Y-1219822D1*
X6426979Y-1211434D1*
X6415122Y-1202087D1*
X6404035Y-1191838D1*
X6393787Y-1180751D1*
X6382310Y-1165707D1*
X6382284Y-1248157D1*
X5997717D1*
Y-863591D1*
X6382284D1*
Y-945895D1*
X6393787Y-930995D1*
X6404035Y-919908D1*
X6415122Y-909660D1*
X6426979Y-900313D1*
X6439532Y-891925D1*
X6452705Y-884548D1*
X6466416Y-878227D1*
X6480581Y-873001D1*
X6495112Y-868903D1*
X6509920Y-865957D1*
X6524914Y-864183D1*
X6540000Y-863590D1*
X6555086Y-864183D1*
X6570080Y-865957D1*
X6584888Y-868903D1*
X6599419Y-873001D1*
X6613584Y-878227D1*
X6627295Y-884548D1*
X6640468Y-891925D1*
X6653021Y-900313D1*
X6664878Y-909660D1*
X6675965Y-919908D1*
X6686213Y-930995D1*
X6695560Y-942852D1*
X6703948Y-955406D1*
X6711326Y-968579D1*
X6717647Y-982290D1*
X6722872Y-996455D1*
X6726971Y-1010986D1*
X6729916Y-1025794D1*
X6731691Y-1040787D1*
X6732283Y-1055873D1*
X6731691Y-1070960D1*
X-652782Y-1664666D2*
X-654341Y-1683258D1*
X-657962Y-1701560D1*
X-663597Y-1719346D1*
X-671178Y-1736393D1*
X-680611Y-1752490D1*
X-691777Y-1767436D1*
X-704538Y-1781047D1*
X-718735Y-1793151D1*
X-734192Y-1803599D1*
X-750717Y-1812261D1*
X-768103Y-1819030D1*
X-786134Y-1823820D1*
X-804587Y-1826572D1*
X-823232Y-1827252D1*
X-841836Y-1825852D1*
X-860169Y-1822389D1*
X-878002Y-1816906D1*
X-895114Y-1809471D1*
X-911291Y-1800177D1*
X-926333Y-1789140D1*
X-940052Y-1776496D1*
X-952278Y-1762403D1*
X-962858Y-1747036D1*
X-971662Y-1730587D1*
X-978579Y-1713259D1*
X-983523Y-1695269D1*
X-986433Y-1676841D1*
X-987274Y-1658203D1*
X-986033Y-1639587D1*
X-982727Y-1621225D1*
X-977398Y-1603346D1*
X-970110Y-1586171D1*
X-960955Y-1569915D1*
X-950047Y-1554779D1*
X-937521Y-1540952D1*
X-923534Y-1528605D1*
X-908258Y-1517894D1*
X-891885Y-1508949D1*
X-874617Y-1501884D1*
X-856671Y-1496785D1*
X-838268Y-1493717D1*
X-819637Y-1492717D1*
X-801012Y-1493798D1*
X-782622Y-1496946D1*
X-764698Y-1502122D1*
X-747461Y-1509262D1*
X-731127Y-1518277D1*
X-715898Y-1529055D1*
X-701964Y-1541462D1*
X-689498Y-1555343D1*
X-678656Y-1570526D1*
X-669571Y-1586822D1*
X-662358Y-1604029D1*
X-657106Y-1621931D1*
X-653880Y-1640307D1*
X-652717Y-1660000D1*
X-652782Y-1664666D1*
X5581472Y2198421D2*
X5579912Y2179829D1*
X5576292Y2161527D1*
X5570656Y2143741D1*
X5563075Y2126694D1*
X5553643Y2110597D1*
X5542476Y2095650D1*
X5529715Y2082040D1*
X5515518Y2069936D1*
X5500061Y2059487D1*
X5483537Y2050825D1*
X5466151Y2044057D1*
X5448119Y2039267D1*
X5429666Y2036515D1*
X5411022Y2035835D1*
X5392417Y2037235D1*
X5374084Y2040698D1*
X5356251Y2046181D1*
X5339140Y2053615D1*
X5322962Y2062909D1*
X5307921Y2073947D1*
X5294201Y2086591D1*
X5281976Y2100684D1*
X5271395Y2116051D1*
X5262592Y2132500D1*
X5255675Y2149827D1*
X5250730Y2167817D1*
X5247820Y2186246D1*
X5246980Y2204884D1*
X5248220Y2223500D1*
X5251526Y2241861D1*
X5256856Y2259741D1*
X5264143Y2276916D1*
X5273298Y2293172D1*
X5284206Y2308308D1*
X5296732Y2322135D1*
X5310720Y2334481D1*
X5325995Y2345193D1*
X5342369Y2354137D1*
X5359636Y2361203D1*
X5377583Y2366301D1*
X5395986Y2369370D1*
X5414616Y2370370D1*
X5433242Y2369289D1*
X5451631Y2366141D1*
X5469556Y2360964D1*
X5486792Y2353824D1*
X5503126Y2344809D1*
X5518355Y2334031D1*
X5532289Y2321624D1*
X5544755Y2307743D1*
X5555598Y2292560D1*
X5564682Y2276264D1*
X5571895Y2259058D1*
X5577147Y2241156D1*
X5580373Y2222780D1*
X5581537Y2203087D1*
X5581472Y2198421D1*
X1361691Y2199040D2*
X1359916Y2184047D1*
X1356971Y2169239D1*
X1352872Y2154708D1*
X1347647Y2140543D1*
X1341326Y2126832D1*
X1333948Y2113659D1*
X1325560Y2101105D1*
X1316213Y2089249D1*
X1305965Y2078162D1*
X1294878Y2067913D1*
X1283021Y2058566D1*
X1270468Y2050178D1*
X1257295Y2042801D1*
X1243584Y2036480D1*
X1229419Y2031254D1*
X1214888Y2027156D1*
X1200080Y2024211D1*
X1185086Y2022436D1*
X1170000Y2021843D1*
X1154914Y2022436D1*
X1139920Y2024211D1*
X1125112Y2027156D1*
X1110581Y2031254D1*
X1096416Y2036480D1*
X1082705Y2042801D1*
X1069532Y2050178D1*
X1056979Y2058566D1*
X1045122Y2067913D1*
X1034035Y2078162D1*
X1023787Y2089249D1*
X1014440Y2101105D1*
X1006052Y2113659D1*
X998674Y2126832D1*
X992353Y2140543D1*
X987128Y2154708D1*
X983029Y2169239D1*
X980084Y2184047D1*
X978309Y2199040D1*
X977717Y2214127D1*
X978309Y2229213D1*
X980084Y2244206D1*
X983029Y2259014D1*
X987128Y2273545D1*
X992353Y2287710D1*
X998674Y2301421D1*
X1006052Y2314594D1*
X1014440Y2327148D1*
X1023787Y2339005D1*
X1034035Y2350092D1*
X1045122Y2360340D1*
X1056979Y2369687D1*
X1069532Y2378075D1*
X1090471Y2389033D1*
X1069532Y2400178D1*
X1056979Y2408566D1*
X1045122Y2417913D1*
X1034035Y2428162D1*
X1023787Y2439249D1*
X1014440Y2451105D1*
X1006052Y2463659D1*
X998674Y2476832D1*
X992353Y2490543D1*
X987128Y2504708D1*
X983029Y2519239D1*
X980084Y2534047D1*
X978309Y2549040D1*
X977717Y2564127D1*
X978309Y2579213D1*
X980084Y2594206D1*
X983029Y2609014D1*
X987128Y2623545D1*
X992353Y2637710D1*
X998674Y2651421D1*
X1006052Y2664594D1*
X1014440Y2677148D1*
X1023787Y2689005D1*
X1034035Y2700092D1*
X1045122Y2710340D1*
X1056979Y2719687D1*
X1069532Y2728075D1*
X1090471Y2739033D1*
X1069532Y2750178D1*
X1056979Y2758566D1*
X1045122Y2767913D1*
X1034035Y2778162D1*
X1023787Y2789249D1*
X1014440Y2801105D1*
X1006052Y2813659D1*
X998674Y2826832D1*
X992353Y2840543D1*
X987128Y2854708D1*
X983029Y2869239D1*
X980084Y2884047D1*
X978309Y2899040D1*
X977717Y2914127D1*
X978309Y2929213D1*
X980084Y2944206D1*
X983029Y2959014D1*
X987128Y2973545D1*
X992353Y2987710D1*
X998674Y3001421D1*
X1006052Y3014594D1*
X1014440Y3027148D1*
X1023787Y3039005D1*
X1034035Y3050092D1*
X1045122Y3060340D1*
X1060166Y3071817D1*
X977717Y3071843D1*
Y3456409D1*
X1362284D1*
Y3071843D1*
X1279979D1*
X1294878Y3060340D1*
X1305965Y3050092D1*
X1316213Y3039005D1*
X1325560Y3027148D1*
X1333948Y3014594D1*
X1341326Y3001421D1*
X1347647Y2987710D1*
X1352872Y2973545D1*
X1356971Y2959014D1*
X1359916Y2944206D1*
X1361691Y2929213D1*
X1362283Y2914127D1*
X1361691Y2899040D1*
X1359916Y2884047D1*
X1356971Y2869239D1*
X1352872Y2854708D1*
X1347647Y2840543D1*
X1341326Y2826832D1*
X1333948Y2813659D1*
X1325560Y2801105D1*
X1316213Y2789249D1*
X1305965Y2778162D1*
X1294878Y2767913D1*
X1283021Y2758566D1*
X1270468Y2750178D1*
X1249529Y2739221D1*
X1270468Y2728075D1*
X1283021Y2719687D1*
X1294878Y2710340D1*
X1305965Y2700092D1*
X1316213Y2689005D1*
X1325560Y2677148D1*
X1333948Y2664594D1*
X1341326Y2651421D1*
X1347647Y2637710D1*
X1352872Y2623545D1*
X1356971Y2609014D1*
X1359916Y2594206D1*
X1361691Y2579213D1*
X1362283Y2564127D1*
X1361691Y2549040D1*
X1359916Y2534047D1*
X1356971Y2519239D1*
X1352872Y2504708D1*
X1347647Y2490543D1*
X1341326Y2476832D1*
X1333948Y2463659D1*
X1325560Y2451105D1*
X1316213Y2439249D1*
X1305965Y2428162D1*
X1294878Y2417913D1*
X1283021Y2408566D1*
X1270468Y2400178D1*
X1249529Y2389221D1*
X1270468Y2378075D1*
X1283021Y2369687D1*
X1294878Y2360340D1*
X1305965Y2350092D1*
X1316213Y2339005D1*
X1325560Y2327148D1*
X1333948Y2314594D1*
X1341326Y2301421D1*
X1347647Y2287710D1*
X1352872Y2273545D1*
X1356971Y2259014D1*
X1359916Y2244206D1*
X1361691Y2229213D1*
X1362283Y2214127D1*
X1361691Y2199040D1*
X5737690Y5895166D2*
X5726213Y5880122D1*
X5715965Y5869035D1*
X5704878Y5858787D1*
X5693021Y5849440D1*
X5680468Y5841052D1*
X5667295Y5833674D1*
X5653584Y5827353D1*
X5639419Y5822128D1*
X5624888Y5818029D1*
X5610080Y5815084D1*
X5595086Y5813309D1*
X5580000Y5812717D1*
X5564914Y5813309D1*
X5549920Y5815084D1*
X5535112Y5818029D1*
X5520581Y5822128D1*
X5506416Y5827353D1*
X5492705Y5833674D1*
X5479532Y5841052D1*
X5466979Y5849440D1*
X5455122Y5858787D1*
X5444035Y5869035D1*
X5433787Y5880122D1*
X5424440Y5891979D1*
X5416052Y5904532D1*
X5408674Y5917705D1*
X5402353Y5931416D1*
X5397128Y5945581D1*
X5393029Y5960112D1*
X5390084Y5974920D1*
X5388309Y5989914D1*
X5387717Y6005000D1*
X5388309Y6020086D1*
X5390084Y6035080D1*
X5393029Y6049888D1*
X5397128Y6064419D1*
X5402353Y6078584D1*
X5408674Y6092295D1*
X5416052Y6105468D1*
X5424440Y6118021D1*
X5433787Y6129878D1*
X5444035Y6140965D1*
X5455122Y6151213D1*
X5466979Y6160560D1*
X5479532Y6168948D1*
X5492705Y6176326D1*
X5506416Y6182647D1*
X5520581Y6187872D1*
X5535112Y6191971D1*
X5549920Y6194916D1*
X5564914Y6196691D1*
X5580000Y6197283D1*
X5595086Y6196691D1*
X5610080Y6194916D1*
X5624888Y6191971D1*
X5639419Y6187872D1*
X5653584Y6182647D1*
X5667295Y6176326D1*
X5680468Y6168948D1*
X5693021Y6160560D1*
X5704878Y6151213D1*
X5715965Y6140965D1*
X5726213Y6129878D1*
X5737690Y6114834D1*
X5737717Y6197283D1*
X6122284D1*
Y5812716D1*
X5737717D1*
Y5895021D1*
X907690Y5895166D2*
X896213Y5880122D1*
X885965Y5869035D1*
X874878Y5858787D1*
X863021Y5849440D1*
X850468Y5841052D1*
X837295Y5833674D1*
X823584Y5827353D1*
X809419Y5822128D1*
X794888Y5818029D1*
X780080Y5815084D1*
X765086Y5813309D1*
X750000Y5812717D1*
X734914Y5813309D1*
X719920Y5815084D1*
X705112Y5818029D1*
X690581Y5822128D1*
X676416Y5827353D1*
X662705Y5833674D1*
X649532Y5841052D1*
X636979Y5849440D1*
X625122Y5858787D1*
X614035Y5869035D1*
X603787Y5880122D1*
X594440Y5891979D1*
X586052Y5904532D1*
X578674Y5917705D1*
X572353Y5931416D1*
X567128Y5945581D1*
X563029Y5960112D1*
X560084Y5974920D1*
X558309Y5989914D1*
X557717Y6005000D1*
X558309Y6020086D1*
X560084Y6035080D1*
X563029Y6049888D1*
X567128Y6064419D1*
X572353Y6078584D1*
X578674Y6092295D1*
X586052Y6105468D1*
X594440Y6118021D1*
X603787Y6129878D1*
X614035Y6140965D1*
X625122Y6151213D1*
X636979Y6160560D1*
X649532Y6168948D1*
X662705Y6176326D1*
X676416Y6182647D1*
X690581Y6187872D1*
X705112Y6191971D1*
X719920Y6194916D1*
X734914Y6196691D1*
X750000Y6197283D1*
X765086Y6196691D1*
X780080Y6194916D1*
X794888Y6191971D1*
X809419Y6187872D1*
X823584Y6182647D1*
X837295Y6176326D1*
X850468Y6168948D1*
X863021Y6160560D1*
X874878Y6151213D1*
X885965Y6140965D1*
X896213Y6129878D1*
X907690Y6114834D1*
X907717Y6197283D1*
X1292284D1*
Y5812716D1*
X907717D1*
Y5895021D1*
X3372690Y5895166D2*
X3361213Y5880122D1*
X3350965Y5869035D1*
X3339878Y5858787D1*
X3328021Y5849440D1*
X3315468Y5841052D1*
X3302295Y5833674D1*
X3288584Y5827353D1*
X3274419Y5822128D1*
X3259888Y5818029D1*
X3245080Y5815084D1*
X3230086Y5813309D1*
X3215000Y5812717D1*
X3199914Y5813309D1*
X3184920Y5815084D1*
X3170112Y5818029D1*
X3155581Y5822128D1*
X3141416Y5827353D1*
X3127705Y5833674D1*
X3114532Y5841052D1*
X3101979Y5849440D1*
X3090122Y5858787D1*
X3079035Y5869035D1*
X3068787Y5880122D1*
X3059440Y5891979D1*
X3051052Y5904532D1*
X3043674Y5917705D1*
X3037353Y5931416D1*
X3032128Y5945581D1*
X3028029Y5960112D1*
X3025084Y5974920D1*
X3023309Y5989914D1*
X3022717Y6005000D1*
X3023309Y6020086D1*
X3025084Y6035080D1*
X3028029Y6049888D1*
X3032128Y6064419D1*
X3037353Y6078584D1*
X3043674Y6092295D1*
X3051052Y6105468D1*
X3059440Y6118021D1*
X3068787Y6129878D1*
X3079035Y6140965D1*
X3090122Y6151213D1*
X3101979Y6160560D1*
X3114532Y6168948D1*
X3127705Y6176326D1*
X3141416Y6182647D1*
X3155581Y6187872D1*
X3170112Y6191971D1*
X3184920Y6194916D1*
X3199914Y6196691D1*
X3215000Y6197283D1*
X3230086Y6196691D1*
X3245080Y6194916D1*
X3259888Y6191971D1*
X3274419Y6187872D1*
X3288584Y6182647D1*
X3302295Y6176326D1*
X3315468Y6168948D1*
X3328021Y6160560D1*
X3339878Y6151213D1*
X3350965Y6140965D1*
X3361213Y6129878D1*
X3372690Y6114834D1*
X3372717Y6197283D1*
X3757284D1*
Y5934546D1*
X3766466Y5952985D1*
X3776978Y5968394D1*
X3789400Y5982309D1*
X3803523Y5994495D1*
X3819107Y6004747D1*
X3835890Y6012889D1*
X3853587Y6018786D1*
X3871899Y6022337D1*
X3890517Y6023482D1*
X3909127Y6022203D1*
X3927413Y6018520D1*
X3945067Y6012496D1*
X3961790Y6004232D1*
X3977300Y5993869D1*
X3991335Y5981581D1*
X4003657Y5967577D1*
X4014057Y5952092D1*
X4022361Y5935389D1*
X4028429Y5917749D1*
X4032156Y5899472D1*
X4033483Y5880000D1*
X4032271Y5861386D1*
X4028654Y5843086D1*
X4022693Y5825411D1*
X4014490Y5808658D1*
X4004183Y5793111D1*
X3991946Y5779032D1*
X3977986Y5766660D1*
X3962539Y5756203D1*
X3945866Y5747839D1*
X3928248Y5741709D1*
X3909985Y5737915D1*
X3891383Y5736523D1*
X3872758Y5737556D1*
X3854425Y5740997D1*
X3836693Y5746787D1*
X3819861Y5754828D1*
X3804215Y5764985D1*
X3790020Y5777086D1*
X3777513Y5790926D1*
X3766908Y5806271D1*
X3758384Y5822863D1*
X3757287Y5825506D1*
X3757284Y5812716D1*
X3372717D1*
Y5895021D1*
X4524907Y677961D2*
X4523090Y659396D1*
X4518880Y641224D1*
X4512348Y623751D1*
X4503604Y607274D1*
X4492797Y592070D1*
X4480109Y578397D1*
X4465754Y566485D1*
X4449975Y556537D1*
X4433038Y548719D1*
X4415231Y543165D1*
X4396854Y539967D1*
X4378217Y539181D1*
X4359635Y540819D1*
X4341423Y544854D1*
X4323889Y551217D1*
X4307328Y559802D1*
X4292021Y570462D1*
X4278226Y583018D1*
X4266176Y597257D1*
X4256076Y612940D1*
X4248095Y629800D1*
X4242370Y647553D1*
X4238995Y665899D1*
X4238029Y684527D1*
X4239488Y703123D1*
X4243347Y721373D1*
X4249541Y738968D1*
X4257966Y755611D1*
X4268478Y771021D1*
X4280900Y784936D1*
X4295023Y797122D1*
X4310607Y807373D1*
X4327390Y815516D1*
X4345087Y821413D1*
X4363399Y824964D1*
X4382017Y826109D1*
X4400627Y824829D1*
X4418913Y821146D1*
X4436567Y815122D1*
X4453290Y806859D1*
X4468800Y796495D1*
X4482835Y784208D1*
X4495157Y770203D1*
X4505557Y754719D1*
X4513861Y738015D1*
X4519929Y720376D1*
X4523656Y702099D1*
X4524983Y682627D1*
X4524907Y677961D1*
X5042727Y1236323D2*
X5026335Y1238412D1*
X5008264Y1243037D1*
X4990946Y1249967D1*
X4974673Y1259085D1*
X4959721Y1270238D1*
X4946341Y1283236D1*
X4934761Y1297859D1*
X4925176Y1313862D1*
X4917748Y1330973D1*
X4912603Y1348902D1*
X4909827Y1367348D1*
X4909467Y1385998D1*
X4911530Y1404537D1*
X4915980Y1422652D1*
X4922743Y1440036D1*
X4931704Y1456397D1*
X4942712Y1471456D1*
X4955581Y1484960D1*
X4970092Y1496680D1*
X4986001Y1506419D1*
X5003040Y1514012D1*
X5020919Y1519330D1*
X5039337Y1522284D1*
X5042699Y1522545D1*
X5042924Y1885279D1*
X5044575Y1895707D1*
X5047838Y1905748D1*
X5052631Y1915156D1*
X5058837Y1923697D1*
X5066303Y1931163D1*
X5074844Y1937369D1*
X5084252Y1942162D1*
X5094293Y1945425D1*
X5104721Y1947076D1*
X5390000Y1947284D1*
X6065279Y1947076D1*
X6075707Y1945425D1*
X6085748Y1942162D1*
X6095156Y1937369D1*
X6103697Y1931163D1*
X6111163Y1923697D1*
X6117369Y1915156D1*
X6122162Y1905748D1*
X6125425Y1895707D1*
X6127076Y1885279D1*
X6127284Y1600000D1*
X6127076Y624721D1*
X6125425Y614293D1*
X6122162Y604252D1*
X6117369Y594844D1*
X6111163Y586303D1*
X6103697Y578837D1*
X6095156Y572631D1*
X6085748Y567838D1*
X6075707Y564575D1*
X6065279Y562924D1*
X5780000Y562716D1*
X5432643D1*
X5442181Y548342D1*
X5450485Y531639D1*
X5456552Y513999D1*
X5460279Y495722D1*
X5461607Y476250D1*
X5460394Y457636D1*
X5456777Y439336D1*
X5450817Y421661D1*
X5442613Y404908D1*
X5432306Y389361D1*
X5420069Y375282D1*
X5406109Y362910D1*
X5390662Y352453D1*
X5373989Y344089D1*
X5356372Y337959D1*
X5338108Y334165D1*
X5319506Y332773D1*
X5300882Y333806D1*
X5282548Y337247D1*
X5264816Y343037D1*
X5247985Y351078D1*
X5232339Y361235D1*
X5218143Y373336D1*
X5205637Y387176D1*
X5195032Y402521D1*
X5186507Y419113D1*
X5180207Y436670D1*
X5176238Y454897D1*
X5174667Y473484D1*
X5175520Y492118D1*
X5178784Y510484D1*
X5184402Y528271D1*
X5192281Y545179D1*
X5202287Y560922D1*
X5203639Y562710D1*
X5104721Y562924D1*
X5094293Y564575D1*
X5084252Y567838D1*
X5074844Y572631D1*
X5066303Y578837D1*
X5058837Y586303D1*
X5052631Y594844D1*
X5047838Y604252D1*
X5044575Y614293D1*
X5042924Y624721D1*
X5042717Y906667D1*
Y1236341D1*
X4042706Y6411234D2*
X4031946Y6399032D1*
X4017986Y6386660D1*
X4002539Y6376203D1*
X3985866Y6367839D1*
X3968248Y6361709D1*
X3949985Y6357915D1*
X3931383Y6356523D1*
X3912758Y6357556D1*
X3894425Y6360997D1*
X3876693Y6366787D1*
X3859861Y6374828D1*
X3844215Y6384985D1*
X3830020Y6397086D1*
X3817513Y6410926D1*
X3806908Y6426271D1*
X3798384Y6442863D1*
X3792084Y6460420D1*
X3788114Y6478647D1*
X3786543Y6497234D1*
X3787397Y6515868D1*
X3790660Y6534234D1*
X3796279Y6552021D1*
X3804158Y6568929D1*
X3814163Y6584672D1*
X3826127Y6598984D1*
X3839846Y6611623D1*
X3855088Y6622375D1*
X3871597Y6631059D1*
X3889093Y6637528D1*
X3907280Y6641673D1*
X3925851Y6643423D1*
X3944493Y6642750D1*
X3962889Y6639663D1*
X3980730Y6634216D1*
X3997713Y6626501D1*
X4013551Y6616647D1*
X4027978Y6604823D1*
X4040749Y6591226D1*
X4042714Y6588760D1*
X4043545Y6600525D1*
X4046009Y6610792D1*
X4050050Y6620546D1*
X4055566Y6629548D1*
X4062423Y6637577D1*
X4070452Y6644434D1*
X4079454Y6649950D1*
X4089208Y6653991D1*
X4099475Y6656455D1*
X4110021Y6657283D1*
X5285279Y6657076D1*
X5295707Y6655425D1*
X5305748Y6652162D1*
X5315156Y6647369D1*
X5323697Y6641163D1*
X5331163Y6633697D1*
X5337369Y6625156D1*
X5342162Y6615748D1*
X5345425Y6605707D1*
X5347076Y6595279D1*
X5347284Y6310000D1*
X5347076Y5484721D1*
X5345425Y5474293D1*
X5342162Y5464252D1*
X5337369Y5454844D1*
X5331163Y5446303D1*
X5323697Y5438837D1*
X5315156Y5432631D1*
X5305748Y5427838D1*
X5295707Y5424575D1*
X5285279Y5422924D1*
X5000000Y5422716D1*
X4713893D1*
X4701946Y5409032D1*
X4687986Y5396660D1*
X4672539Y5386203D1*
X4655866Y5377839D1*
X4638248Y5371709D1*
X4619985Y5367915D1*
X4601383Y5366523D1*
X4582758Y5367556D1*
X4564425Y5370997D1*
X4546693Y5376787D1*
X4529861Y5384828D1*
X4514215Y5394985D1*
X4500020Y5407086D1*
X4487513Y5420926D1*
X4486150Y5422706D1*
X4417128Y5422231D1*
X4421448Y5404084D1*
X4423377Y5385531D1*
X4422801Y5366022D1*
X4419781Y5347615D1*
X4414398Y5329755D1*
X4406744Y5312744D1*
X4396948Y5296870D1*
X4385175Y5282401D1*
X4371625Y5269581D1*
X4356526Y5258628D1*
X4340134Y5249726D1*
X4322725Y5243025D1*
X4304594Y5238640D1*
X4286048Y5236644D1*
X4267399Y5237071D1*
X4248964Y5239914D1*
X4231053Y5245124D1*
X4213969Y5252613D1*
X4198001Y5262256D1*
X4183419Y5273889D1*
X4170469Y5287315D1*
X4159371Y5302308D1*
X4150311Y5318613D1*
X4143444Y5335957D1*
X4138884Y5354044D1*
X4136709Y5372570D1*
X4136956Y5391222D1*
X4139621Y5409685D1*
X4143029Y5422712D1*
X4104721Y5422924D1*
X4094293Y5424575D1*
X4084252Y5427838D1*
X4074844Y5432631D1*
X4066303Y5438837D1*
X4058837Y5446303D1*
X4052631Y5454844D1*
X4047838Y5464252D1*
X4044575Y5474293D1*
X4042924Y5484721D1*
X4042716Y5640000D1*
Y6411185D1*
X5833407Y4174211D2*
X5831590Y4155646D1*
X5827380Y4137474D1*
X5820848Y4120001D1*
X5812104Y4103524D1*
X5801297Y4088320D1*
X5788609Y4074647D1*
X5774254Y4062735D1*
X5758475Y4052787D1*
X5741538Y4044969D1*
X5723731Y4039415D1*
X5705354Y4036217D1*
X5686717Y4035431D1*
X5668135Y4037069D1*
X5649923Y4041104D1*
X5632389Y4047467D1*
X5615828Y4056052D1*
X5600521Y4066712D1*
X5586726Y4079268D1*
X5574676Y4093507D1*
X5564576Y4109190D1*
X5556595Y4126050D1*
X5550870Y4143803D1*
X5547495Y4162149D1*
X5546529Y4180777D1*
X5547988Y4199373D1*
X5551847Y4217623D1*
X5558041Y4235218D1*
X5566466Y4251861D1*
X5576978Y4267271D1*
X5589400Y4281186D1*
X5603523Y4293372D1*
X5619107Y4303623D1*
X5635890Y4311766D1*
X5653587Y4317663D1*
X5671899Y4321214D1*
X5690517Y4322359D1*
X5709127Y4321079D1*
X5727413Y4317396D1*
X5745067Y4311372D1*
X5761790Y4303109D1*
X5777300Y4292745D1*
X5791335Y4280458D1*
X5803657Y4266453D1*
X5814057Y4250969D1*
X5822361Y4234265D1*
X5828429Y4216626D1*
X5832156Y4198349D1*
X5833483Y4178877D1*
X5833407Y4174211D1*
X7223657Y328711D2*
X7221840Y310146D1*
X7217630Y291974D1*
X7211098Y274501D1*
X7202354Y258024D1*
X7191547Y242820D1*
X7178859Y229147D1*
X7164504Y217235D1*
X7148725Y207287D1*
X7131788Y199469D1*
X7113981Y193915D1*
X7095604Y190717D1*
X7076967Y189931D1*
X7058385Y191569D1*
X7040173Y195604D1*
X7022639Y201967D1*
X7006078Y210552D1*
X6990771Y221212D1*
X6976976Y233768D1*
X6964926Y248007D1*
X6954826Y263690D1*
X6946845Y280550D1*
X6941120Y298303D1*
X6937745Y316649D1*
X6936779Y335277D1*
X6938238Y353873D1*
X6942097Y372123D1*
X6948291Y389718D1*
X6956716Y406361D1*
X6967228Y421771D1*
X6979650Y435686D1*
X6993773Y447872D1*
X7009357Y458123D1*
X7026140Y466266D1*
X7043837Y472163D1*
X7062149Y475714D1*
X7080767Y476859D1*
X7099377Y475579D1*
X7117663Y471896D1*
X7135317Y465872D1*
X7152040Y457609D1*
X7167550Y447245D1*
X7181585Y434958D1*
X7193907Y420953D1*
X7204307Y405469D1*
X7212611Y388765D1*
X7218679Y371126D1*
X7222406Y352849D1*
X7223733Y333377D1*
X7223657Y328711D1*
X-920219Y439834D2*
X-922036Y421269D1*
X-926247Y403097D1*
X-932779Y385625D1*
X-941522Y369147D1*
X-952330Y353944D1*
X-965018Y340270D1*
X-979373Y328359D1*
X-995152Y318410D1*
X-1012088Y310592D1*
X-1029896Y305038D1*
X-1048273Y301841D1*
X-1066910Y301054D1*
X-1085491Y302692D1*
X-1103703Y306727D1*
X-1121238Y313091D1*
X-1137799Y321675D1*
X-1153106Y332335D1*
X-1166901Y344891D1*
X-1178950Y359131D1*
X-1189051Y374813D1*
X-1197031Y391673D1*
X-1202757Y409426D1*
X-1206132Y427772D1*
X-1207097Y446400D1*
X-1205638Y464997D1*
X-1201779Y483247D1*
X-1195585Y500842D1*
X-1187161Y517485D1*
X-1176649Y532894D1*
X-1164226Y546809D1*
X-1150104Y558995D1*
X-1134519Y569247D1*
X-1117737Y577389D1*
X-1100040Y583286D1*
X-1081728Y586837D1*
X-1063109Y587982D1*
X-1044500Y586703D1*
X-1026213Y583020D1*
X-1008559Y576996D1*
X-991836Y568732D1*
X-976326Y558369D1*
X-962292Y546081D1*
X-949970Y532077D1*
X-939569Y516592D1*
X-931265Y499889D1*
X-925198Y482249D1*
X-921471Y463972D1*
X-920143Y444500D1*
X-920219Y439834D1*
X3223157Y2392461D2*
X3221340Y2373896D1*
X3217130Y2355724D1*
X3210598Y2338251D1*
X3201854Y2321774D1*
X3191047Y2306570D1*
X3178359Y2292897D1*
X3164004Y2280985D1*
X3148225Y2271037D1*
X3131288Y2263219D1*
X3113481Y2257665D1*
X3095104Y2254467D1*
X3076467Y2253681D1*
X3057885Y2255319D1*
X3039673Y2259354D1*
X3022139Y2265717D1*
X3005578Y2274302D1*
X2990271Y2284962D1*
X2976476Y2297518D1*
X2964426Y2311757D1*
X2954326Y2327440D1*
X2946345Y2344300D1*
X2940620Y2362053D1*
X2937245Y2380399D1*
X2936279Y2399027D1*
X2937738Y2417623D1*
X2941597Y2435873D1*
X2947791Y2453468D1*
X2956216Y2470111D1*
X2966728Y2485521D1*
X2979150Y2499436D1*
X2993273Y2511622D1*
X3008857Y2521873D1*
X3025640Y2530016D1*
X3043337Y2535913D1*
X3061649Y2539464D1*
X3080267Y2540609D1*
X3098877Y2539329D1*
X3117163Y2535646D1*
X3134817Y2529622D1*
X3151540Y2521359D1*
X3167050Y2510995D1*
X3181085Y2498708D1*
X3193407Y2484703D1*
X3203807Y2469219D1*
X3212111Y2452515D1*
X3218179Y2434876D1*
X3221906Y2416599D1*
X3223233Y2397127D1*
X3223157Y2392461D1*
Y4174211D2*
X3221340Y4155646D1*
X3217130Y4137474D1*
X3210598Y4120001D1*
X3201854Y4103524D1*
X3191047Y4088320D1*
X3178359Y4074647D1*
X3164004Y4062735D1*
X3148225Y4052787D1*
X3131288Y4044969D1*
X3113481Y4039415D1*
X3095104Y4036217D1*
X3076467Y4035431D1*
X3057885Y4037069D1*
X3039673Y4041104D1*
X3022139Y4047467D1*
X3005578Y4056052D1*
X2990271Y4066712D1*
X2976476Y4079268D1*
X2964426Y4093507D1*
X2954326Y4109190D1*
X2946345Y4126050D1*
X2940620Y4143803D1*
X2937245Y4162149D1*
X2936279Y4180777D1*
X2937738Y4199373D1*
X2941597Y4217623D1*
X2947791Y4235218D1*
X2956216Y4251861D1*
X2966728Y4267271D1*
X2979150Y4281186D1*
X2993273Y4293372D1*
X3008857Y4303623D1*
X3025640Y4311766D1*
X3043337Y4317663D1*
X3061649Y4321214D1*
X3080267Y4322359D1*
X3098877Y4321079D1*
X3117163Y4317396D1*
X3134817Y4311372D1*
X3151540Y4303109D1*
X3167050Y4292745D1*
X3181085Y4280458D1*
X3193407Y4266453D1*
X3203807Y4250969D1*
X3212111Y4234265D1*
X3218179Y4216626D1*
X3221906Y4198349D1*
X3223233Y4178877D1*
X3223157Y4174211D1*
X1864753Y6477286D2*
X1877292Y6487247D1*
X1893201Y6496986D1*
X1910240Y6504579D1*
X1928119Y6509897D1*
X1946537Y6512850D1*
X1965183Y6513390D1*
X1983741Y6511506D1*
X2001898Y6507230D1*
X2019347Y6500635D1*
X2035792Y6491832D1*
X2050957Y6480970D1*
X2055261Y6477281D1*
X2805279Y6477076D1*
X2815707Y6475424D1*
X2825748Y6472162D1*
X2835156Y6467369D1*
X2843697Y6461163D1*
X2851163Y6453697D1*
X2857369Y6445156D1*
X2862162Y6435748D1*
X2865424Y6425707D1*
X2867076Y6415279D1*
X2867283Y6361419D1*
X2882678Y6364717D1*
X2905123Y6366483D1*
X2927569Y6364717D1*
X2949462Y6359461D1*
X2970263Y6350845D1*
X2989461Y6339080D1*
X3006581Y6324458D1*
X3021204Y6307337D1*
X3032968Y6288140D1*
X3041584Y6267339D1*
X3046840Y6245446D1*
X3048607Y6223000D1*
X3046840Y6200554D1*
X3041584Y6178661D1*
X3032968Y6157860D1*
X3021204Y6138663D1*
X3006581Y6121542D1*
X2989461Y6106920D1*
X2985106Y6104010D1*
X2985107Y5738924D1*
X2998308Y5728856D1*
X3014229Y5712935D1*
X3027463Y5694720D1*
X3037685Y5674659D1*
X3044642Y5653246D1*
X3048164Y5631008D1*
Y5608492D1*
X3044642Y5586254D1*
X3037685Y5564841D1*
X3027463Y5544780D1*
X3014229Y5526565D1*
X2998308Y5510644D1*
X2980093Y5497410D1*
X2960032Y5487189D1*
X2938619Y5480231D1*
X2916381Y5476709D1*
X2893866D1*
X2871628Y5480231D1*
X2867265Y5481462D1*
X2867076Y5454721D1*
X2865424Y5444293D1*
X2862162Y5434252D1*
X2857369Y5424844D1*
X2851163Y5416303D1*
X2843697Y5408837D1*
X2835156Y5402631D1*
X2825748Y5397838D1*
X2815707Y5394576D1*
X2805279Y5392924D1*
X2520000Y5392717D1*
X1514721Y5392924D1*
X1504293Y5394576D1*
X1494252Y5397838D1*
X1484844Y5402631D1*
X1476303Y5408837D1*
X1468837Y5416303D1*
X1462631Y5424844D1*
X1457838Y5434252D1*
X1454576Y5444293D1*
X1452924Y5454721D1*
X1452716Y5740000D1*
X1452924Y6415279D1*
X1454576Y6425707D1*
X1457838Y6435748D1*
X1462631Y6445156D1*
X1468837Y6453697D1*
X1476303Y6461163D1*
X1484844Y6467369D1*
X1494252Y6472162D1*
X1504293Y6475424D1*
X1514721Y6477076D1*
X1800000Y6477283D1*
X1864805D1*
X1635657Y1805084D2*
X1633840Y1786519D1*
X1629630Y1768347D1*
X1623098Y1750875D1*
X1614354Y1734397D1*
X1603547Y1719194D1*
X1590859Y1705520D1*
X1576504Y1693609D1*
X1560725Y1683660D1*
X1543788Y1675842D1*
X1525981Y1670288D1*
X1507604Y1667091D1*
X1488967Y1666304D1*
X1470385Y1667942D1*
X1452173Y1671977D1*
X1434639Y1678341D1*
X1418078Y1686925D1*
X1402771Y1697585D1*
X1388976Y1710141D1*
X1376926Y1724381D1*
X1366826Y1740063D1*
X1358845Y1756923D1*
X1353120Y1774676D1*
X1349745Y1793022D1*
X1348779Y1811650D1*
X1350238Y1830247D1*
X1354097Y1848497D1*
X1360291Y1866092D1*
X1368716Y1882735D1*
X1379228Y1898144D1*
X1391650Y1912059D1*
X1405773Y1924245D1*
X1421357Y1934497D1*
X1438140Y1942639D1*
X1455837Y1948536D1*
X1474149Y1952087D1*
X1492767Y1953232D1*
X1511377Y1951953D1*
X1529663Y1948270D1*
X1547317Y1942246D1*
X1564040Y1933982D1*
X1579550Y1923619D1*
X1593585Y1911331D1*
X1605907Y1897327D1*
X1616307Y1881842D1*
X1624611Y1865139D1*
X1630679Y1847499D1*
X1634406Y1829222D1*
X1635733Y1809750D1*
X1635657Y1805084D1*
X-336593Y955334D2*
X-338410Y936769D1*
X-342620Y918597D1*
X-349152Y901125D1*
X-357896Y884647D1*
X-368703Y869444D1*
X-381391Y855770D1*
X-395746Y843859D1*
X-411525Y833910D1*
X-428462Y826092D1*
X-446269Y820538D1*
X-464646Y817341D1*
X-483283Y816554D1*
X-501865Y818192D1*
X-520077Y822227D1*
X-537611Y828591D1*
X-554172Y837175D1*
X-569479Y847835D1*
X-583274Y860391D1*
X-595324Y874631D1*
X-605424Y890313D1*
X-613405Y907173D1*
X-619130Y924926D1*
X-622505Y943272D1*
X-623471Y961900D1*
X-622012Y980497D1*
X-618153Y998747D1*
X-611959Y1016342D1*
X-603534Y1032985D1*
X-593022Y1048394D1*
X-580600Y1062309D1*
X-566477Y1074495D1*
X-550893Y1084747D1*
X-534110Y1092889D1*
X-516413Y1098786D1*
X-498101Y1102337D1*
X-479483Y1103482D1*
X-460873Y1102203D1*
X-442587Y1098520D1*
X-424933Y1092496D1*
X-408210Y1084232D1*
X-392700Y1073869D1*
X-378665Y1061581D1*
X-366343Y1047577D1*
X-355943Y1032092D1*
X-347639Y1015389D1*
X-341571Y997749D1*
X-337844Y979472D1*
X-336517Y960000D1*
X-336593Y955334D1*
X254531Y662084D2*
X252714Y643519D1*
X248503Y625347D1*
X241971Y607875D1*
X233228Y591397D1*
X222420Y576194D1*
X209732Y562520D1*
X195377Y550609D1*
X179598Y540660D1*
X162662Y532842D1*
X144854Y527288D1*
X126477Y524091D1*
X107840Y523304D1*
X89259Y524942D1*
X71047Y528977D1*
X53512Y535341D1*
X36951Y543925D1*
X21644Y554585D1*
X7849Y567141D1*
X-4200Y581381D1*
X-14301Y597063D1*
X-22281Y613923D1*
X-28007Y631676D1*
X-31382Y650022D1*
X-32347Y668650D1*
X-30888Y687247D1*
X-27029Y705497D1*
X-20835Y723092D1*
X-12411Y739735D1*
X-1899Y755144D1*
X10524Y769059D1*
X24646Y781245D1*
X40231Y791497D1*
X53475Y798131D1*
X35828Y807175D1*
X20521Y817835D1*
X6726Y830391D1*
X-5324Y844631D1*
X-15424Y860313D1*
X-23405Y877173D1*
X-29130Y894926D1*
X-32505Y913272D1*
X-33471Y931900D1*
X-32012Y950497D1*
X-28153Y968747D1*
X-21959Y986342D1*
X-13534Y1002985D1*
X-3022Y1018394D1*
X9400Y1032309D1*
X23523Y1044495D1*
X39107Y1054747D1*
X55890Y1062889D1*
X73587Y1068786D1*
X91899Y1072337D1*
X110517Y1073482D1*
X129127Y1072203D1*
X147413Y1068520D1*
X165067Y1062496D1*
X181790Y1054232D1*
X197300Y1043869D1*
X211335Y1031581D1*
X223657Y1017577D1*
X234057Y1002092D1*
X242361Y985389D1*
X248429Y967749D1*
X252156Y949472D1*
X253483Y930000D1*
X252271Y911386D1*
X248654Y893086D1*
X242693Y875411D1*
X234490Y858658D1*
X224183Y843111D1*
X211946Y829032D1*
X197986Y816660D1*
X182539Y806203D1*
X167650Y798628D1*
X182914Y790982D1*
X198424Y780619D1*
X212458Y768331D1*
X224780Y754327D1*
X235181Y738842D1*
X243485Y722139D1*
X249552Y704499D1*
X253279Y686222D1*
X254607Y666750D1*
X254531Y662084D1*
X331264Y4802686D2*
X328810Y4779487D1*
X324733Y4756517D1*
X319054Y4733891D1*
X311800Y4711718D1*
X303007Y4690110D1*
X292719Y4669173D1*
X280987Y4649009D1*
X267868Y4629719D1*
X253427Y4611398D1*
X237735Y4594135D1*
X220870Y4578017D1*
X202915Y4563122D1*
X183959Y4549525D1*
X164095Y4537292D1*
X143421Y4526484D1*
X122040Y4517154D1*
X100056Y4509349D1*
X77578Y4503105D1*
X54718Y4498456D1*
X31587Y4495422D1*
X8301Y4494020D1*
X-15026Y4494257D1*
X-38279Y4496130D1*
X-61344Y4499632D1*
X-84105Y4504744D1*
X-106452Y4511441D1*
X-128273Y4519691D1*
X-149461Y4529452D1*
X-169912Y4540677D1*
X-189524Y4553310D1*
X-208200Y4567288D1*
X-225850Y4582543D1*
X-242385Y4599000D1*
X-257723Y4616577D1*
X-271790Y4635187D1*
X-284516Y4654739D1*
X-295837Y4675136D1*
X-305698Y4696278D1*
X-314051Y4718060D1*
X-320854Y4740374D1*
X-326074Y4763112D1*
X-329685Y4786159D1*
X-331668Y4809403D1*
X-332015Y4832729D1*
X-330724Y4856022D1*
X-327800Y4879166D1*
X-323258Y4902049D1*
X-317122Y4924555D1*
X-309420Y4946576D1*
X-300191Y4968002D1*
X-289481Y4988726D1*
X-277343Y5008648D1*
X-263836Y5027668D1*
X-249026Y5045694D1*
X-232988Y5062635D1*
X-215800Y5078408D1*
X-197547Y5092935D1*
X-178319Y5106146D1*
X-158212Y5117973D1*
X-137323Y5128360D1*
X-115757Y5137255D1*
X-93619Y5144614D1*
X-71020Y5150400D1*
X-48070Y5154586D1*
X-24882Y5157150D1*
X-1573Y5158080D1*
X21745Y5157371D1*
X44956Y5155026D1*
X67944Y5151058D1*
X90598Y5145486D1*
X112804Y5138337D1*
X134453Y5129647D1*
X155439Y5119459D1*
X175658Y5107822D1*
X195010Y5094794D1*
X213400Y5080440D1*
X230737Y5064830D1*
X246935Y5048042D1*
X261914Y5030158D1*
X275601Y5011266D1*
X287927Y4991461D1*
X298833Y4970838D1*
X308264Y4949501D1*
X316174Y4927554D1*
X322524Y4905107D1*
X327282Y4882268D1*
X330424Y4859152D1*
X332083Y4826000D1*
X331264Y4802686D1*
X6935264Y4485186D2*
X6932810Y4461987D1*
X6928733Y4439017D1*
X6923054Y4416391D1*
X6915800Y4394218D1*
X6907007Y4372610D1*
X6896719Y4351673D1*
X6884987Y4331509D1*
X6871868Y4312219D1*
X6857427Y4293898D1*
X6841735Y4276635D1*
X6824870Y4260517D1*
X6806915Y4245622D1*
X6787959Y4232025D1*
X6768095Y4219792D1*
X6747421Y4208984D1*
X6726040Y4199654D1*
X6704056Y4191849D1*
X6681578Y4185605D1*
X6658718Y4180956D1*
X6635587Y4177922D1*
X6612301Y4176520D1*
X6588974Y4176757D1*
X6565721Y4178630D1*
X6542656Y4182132D1*
X6519895Y4187244D1*
X6497548Y4193941D1*
X6475727Y4202191D1*
X6454539Y4211952D1*
X6434088Y4223177D1*
X6414476Y4235810D1*
X6395800Y4249788D1*
X6378150Y4265043D1*
X6361615Y4281500D1*
X6346277Y4299077D1*
X6332210Y4317687D1*
X6319484Y4337239D1*
X6308163Y4357636D1*
X6298302Y4378778D1*
X6289949Y4400560D1*
X6283146Y4422874D1*
X6277926Y4445612D1*
X6274315Y4468659D1*
X6272332Y4491903D1*
X6271985Y4515229D1*
X6273276Y4538522D1*
X6276200Y4561666D1*
X6280742Y4584549D1*
X6286878Y4607055D1*
X6294580Y4629076D1*
X6303809Y4650502D1*
X6314519Y4671226D1*
X6326657Y4691148D1*
X6340164Y4710168D1*
X6354974Y4728194D1*
X6371012Y4745135D1*
X6388200Y4760908D1*
X6406453Y4775435D1*
X6425681Y4788646D1*
X6445788Y4800473D1*
X6466677Y4810860D1*
X6488243Y4819755D1*
X6510381Y4827114D1*
X6532980Y4832900D1*
X6555930Y4837086D1*
X6579118Y4839650D1*
X6602427Y4840580D1*
X6625745Y4839871D1*
X6648956Y4837526D1*
X6671944Y4833558D1*
X6694598Y4827986D1*
X6716804Y4820837D1*
X6738453Y4812147D1*
X6759439Y4801959D1*
X6779658Y4790322D1*
X6799010Y4777294D1*
X6817400Y4762940D1*
X6834737Y4747330D1*
X6850935Y4730542D1*
X6865914Y4712658D1*
X6879601Y4693766D1*
X6891927Y4673961D1*
X6902833Y4653338D1*
X6912264Y4632001D1*
X6920174Y4610054D1*
X6926524Y4587607D1*
X6931282Y4564768D1*
X6934424Y4541652D1*
X6936083Y4508500D1*
X6935264Y4485186D1*
Y294186D2*
X6932810Y270987D1*
X6928733Y248017D1*
X6923054Y225391D1*
X6915800Y203218D1*
X6907007Y181610D1*
X6896719Y160673D1*
X6884987Y140509D1*
X6871868Y121219D1*
X6857427Y102898D1*
X6841735Y85635D1*
X6824870Y69517D1*
X6806915Y54622D1*
X6787959Y41025D1*
X6768095Y28792D1*
X6747421Y17984D1*
X6726040Y8654D1*
X6704056Y849D1*
X6681578Y-5395D1*
X6658718Y-10044D1*
X6635587Y-13078D1*
X6612301Y-14480D1*
X6588974Y-14243D1*
X6565721Y-12370D1*
X6542656Y-8868D1*
X6519895Y-3756D1*
X6497548Y2941D1*
X6475727Y11191D1*
X6454539Y20952D1*
X6434088Y32177D1*
X6414476Y44810D1*
X6395800Y58788D1*
X6378150Y74043D1*
X6361615Y90500D1*
X6346277Y108077D1*
X6332210Y126687D1*
X6319484Y146239D1*
X6308163Y166636D1*
X6298302Y187778D1*
X6289949Y209560D1*
X6283146Y231874D1*
X6277926Y254612D1*
X6274315Y277659D1*
X6272332Y300903D1*
X6271985Y324229D1*
X6273276Y347522D1*
X6276200Y370666D1*
X6280742Y393549D1*
X6286878Y416055D1*
X6294580Y438076D1*
X6303809Y459502D1*
X6314519Y480226D1*
X6326657Y500148D1*
X6340164Y519168D1*
X6354974Y537194D1*
X6371012Y554135D1*
X6388200Y569908D1*
X6406453Y584435D1*
X6425681Y597646D1*
X6445788Y609473D1*
X6466677Y619860D1*
X6488243Y628755D1*
X6510381Y636114D1*
X6532980Y641900D1*
X6555930Y646086D1*
X6579118Y648650D1*
X6602427Y649580D1*
X6625745Y648871D1*
X6648956Y646526D1*
X6671944Y642558D1*
X6694598Y636986D1*
X6716804Y629837D1*
X6738453Y621147D1*
X6759439Y610959D1*
X6779658Y599322D1*
X6799010Y586294D1*
X6817400Y571940D1*
X6834737Y556330D1*
X6850935Y539542D1*
X6865914Y521658D1*
X6879601Y502766D1*
X6891927Y482961D1*
X6902833Y462338D1*
X6912264Y441001D1*
X6920174Y419054D1*
X6926524Y396607D1*
X6931282Y373768D1*
X6934424Y350652D1*
X6936083Y317500D1*
X6935264Y294186D1*
X331264Y-23314D2*
X328810Y-46513D1*
X324733Y-69483D1*
X319054Y-92109D1*
X311800Y-114282D1*
X303007Y-135890D1*
X292719Y-156827D1*
X280987Y-176991D1*
X267868Y-196281D1*
X253427Y-214602D1*
X237735Y-231865D1*
X220870Y-247983D1*
X202915Y-262878D1*
X183959Y-276475D1*
X164095Y-288708D1*
X143421Y-299516D1*
X122040Y-308846D1*
X100056Y-316651D1*
X77578Y-322895D1*
X54718Y-327544D1*
X31587Y-330578D1*
X8301Y-331980D1*
X-15026Y-331743D1*
X-38279Y-329870D1*
X-61344Y-326368D1*
X-84105Y-321256D1*
X-106452Y-314559D1*
X-128273Y-306309D1*
X-149461Y-296548D1*
X-169912Y-285323D1*
X-189524Y-272690D1*
X-208200Y-258712D1*
X-225850Y-243457D1*
X-242385Y-227000D1*
X-257723Y-209423D1*
X-271790Y-190813D1*
X-284516Y-171261D1*
X-295837Y-150864D1*
X-305698Y-129722D1*
X-314051Y-107940D1*
X-320854Y-85626D1*
X-326074Y-62888D1*
X-329685Y-39841D1*
X-331668Y-16597D1*
X-332015Y6729D1*
X-330724Y30022D1*
X-327800Y53166D1*
X-323258Y76049D1*
X-317122Y98555D1*
X-309420Y120576D1*
X-300191Y142002D1*
X-289481Y162726D1*
X-277343Y182648D1*
X-263836Y201668D1*
X-249026Y219694D1*
X-232988Y236635D1*
X-215800Y252408D1*
X-197547Y266935D1*
X-178319Y280146D1*
X-158212Y291973D1*
X-137323Y302360D1*
X-115757Y311255D1*
X-93619Y318614D1*
X-71020Y324400D1*
X-48070Y328586D1*
X-24882Y331150D1*
X-1573Y332080D1*
X21745Y331371D1*
X44956Y329026D1*
X67944Y325058D1*
X90598Y319486D1*
X112804Y312337D1*
X134453Y303647D1*
X155439Y293459D1*
X175658Y281822D1*
X195010Y268794D1*
X213400Y254440D1*
X230737Y238830D1*
X246935Y222042D1*
X261914Y204158D1*
X275601Y185266D1*
X287927Y165461D1*
X298833Y144838D1*
X308264Y123501D1*
X316174Y101554D1*
X322524Y79107D1*
X327282Y56268D1*
X330424Y33152D1*
X332083Y0D1*
X331264Y-23314D1*
X7083407Y-1134666D2*
X7081590Y-1153231D1*
X7077380Y-1171403D1*
X7070848Y-1188875D1*
X7062104Y-1205353D1*
X7051297Y-1220556D1*
X7038609Y-1234230D1*
X7024254Y-1246141D1*
X7008475Y-1256090D1*
X6991538Y-1263908D1*
X6973731Y-1269462D1*
X6955354Y-1272659D1*
X6936717Y-1273446D1*
X6918135Y-1271808D1*
X6899923Y-1267773D1*
X6882389Y-1261409D1*
X6865828Y-1252825D1*
X6850521Y-1242165D1*
X6836726Y-1229609D1*
X6824676Y-1215369D1*
X6814576Y-1199687D1*
X6806595Y-1182827D1*
X6800870Y-1165074D1*
X6797495Y-1146728D1*
X6796529Y-1128100D1*
X6797988Y-1109503D1*
X6801847Y-1091253D1*
X6808041Y-1073658D1*
X6816466Y-1057015D1*
X6826978Y-1041606D1*
X6839400Y-1027691D1*
X6853523Y-1015505D1*
X6869107Y-1005253D1*
X6885890Y-997111D1*
X6903587Y-991214D1*
X6921899Y-987663D1*
X6940517Y-986518D1*
X6959127Y-987797D1*
X6977413Y-991480D1*
X6995067Y-997504D1*
X7011790Y-1005768D1*
X7027300Y-1016131D1*
X7041335Y-1028419D1*
X7053657Y-1042423D1*
X7064057Y-1057908D1*
X7072361Y-1074611D1*
X7078429Y-1092251D1*
X7082156Y-1110528D1*
X7083483Y-1130000D1*
X7083407Y-1134666D1*
X1984907Y4174211D2*
X1983090Y4155646D1*
X1978880Y4137474D1*
X1972348Y4120001D1*
X1963604Y4103524D1*
X1952797Y4088320D1*
X1940109Y4074647D1*
X1925754Y4062735D1*
X1909975Y4052787D1*
X1893038Y4044969D1*
X1875231Y4039415D1*
X1856854Y4036217D1*
X1838217Y4035431D1*
X1819635Y4037069D1*
X1801423Y4041104D1*
X1783889Y4047467D1*
X1767328Y4056052D1*
X1752021Y4066712D1*
X1738226Y4079268D1*
X1726176Y4093507D1*
X1716076Y4109190D1*
X1708095Y4126050D1*
X1702370Y4143803D1*
X1698995Y4162149D1*
X1698029Y4180777D1*
X1699488Y4199373D1*
X1703347Y4217623D1*
X1709541Y4235218D1*
X1717966Y4251861D1*
X1728478Y4267271D1*
X1740900Y4281186D1*
X1755023Y4293372D1*
X1770607Y4303623D1*
X1787390Y4311766D1*
X1805087Y4317663D1*
X1823399Y4321214D1*
X1842017Y4322359D1*
X1860627Y4321079D1*
X1878913Y4317396D1*
X1896567Y4311372D1*
X1913290Y4303109D1*
X1928800Y4292745D1*
X1942835Y4280458D1*
X1955157Y4266453D1*
X1965557Y4250969D1*
X1973861Y4234265D1*
X1979929Y4216626D1*
X1983656Y4198349D1*
X1984983Y4178877D1*
X1984907Y4174211D1*
X2153407Y925334D2*
X2151590Y906769D1*
X2147380Y888597D1*
X2140848Y871125D1*
X2132104Y854647D1*
X2121297Y839444D1*
X2108609Y825770D1*
X2094254Y813859D1*
X2078475Y803910D1*
X2061538Y796092D1*
X2043731Y790538D1*
X2025354Y787341D1*
X2006717Y786554D1*
X1988135Y788192D1*
X1969923Y792227D1*
X1952389Y798591D1*
X1935828Y807175D1*
X1920521Y817835D1*
X1906726Y830391D1*
X1894676Y844631D1*
X1884576Y860313D1*
X1876595Y877173D1*
X1870870Y894926D1*
X1867495Y913272D1*
X1866529Y931900D1*
X1867988Y950497D1*
X1871847Y968747D1*
X1878041Y986342D1*
X1886466Y1002985D1*
X1896978Y1018394D1*
X1909400Y1032309D1*
X1923523Y1044495D1*
X1939107Y1054747D1*
X1955890Y1062889D1*
X1973587Y1068786D1*
X1991899Y1072337D1*
X2010517Y1073482D1*
X2029127Y1072203D1*
X2047413Y1068520D1*
X2065067Y1062496D1*
X2081790Y1054232D1*
X2097300Y1043869D1*
X2111335Y1031581D1*
X2123657Y1017577D1*
X2134057Y1002092D1*
X2142361Y985389D1*
X2148429Y967749D1*
X2152156Y949472D1*
X2153483Y930000D1*
X2153407Y925334D1*
X3223157Y3344957D2*
X3221340Y3326393D1*
X3217130Y3308221D1*
X3210598Y3290748D1*
X3201854Y3274271D1*
X3191047Y3259067D1*
X3178359Y3245394D1*
X3164004Y3233482D1*
X3148225Y3223533D1*
X3131288Y3215716D1*
X3113481Y3210161D1*
X3095104Y3206964D1*
X3076467Y3206178D1*
X3057885Y3207816D1*
X3039673Y3211851D1*
X3022139Y3218214D1*
X3005578Y3226798D1*
X2990271Y3237459D1*
X2976476Y3250015D1*
X2964426Y3264254D1*
X2954326Y3279936D1*
X2946345Y3296797D1*
X2940620Y3314550D1*
X2937245Y3332895D1*
X2936279Y3351524D1*
X2937738Y3370120D1*
X2941597Y3388370D1*
X2947791Y3405965D1*
X2956216Y3422608D1*
X2966728Y3438017D1*
X2979150Y3451933D1*
X2993273Y3464119D1*
X3008857Y3474370D1*
X3025640Y3482513D1*
X3043337Y3488409D1*
X3061649Y3491960D1*
X3080267Y3493106D1*
X3098877Y3491826D1*
X3117163Y3488143D1*
X3134817Y3482119D1*
X3151540Y3473855D1*
X3167050Y3463492D1*
X3181085Y3451204D1*
X3193407Y3437200D1*
X3203807Y3421715D1*
X3212111Y3405012D1*
X3218179Y3387373D1*
X3221906Y3369095D1*
X3223233Y3349623D1*
X3223157Y3344957D1*
X1483407Y1285334D2*
X1481590Y1266769D1*
X1477380Y1248597D1*
X1470848Y1231125D1*
X1462104Y1214647D1*
X1451297Y1199444D1*
X1438609Y1185770D1*
X1424254Y1173859D1*
X1408475Y1163910D1*
X1391538Y1156092D1*
X1373731Y1150538D1*
X1355354Y1147341D1*
X1336717Y1146554D1*
X1318135Y1148192D1*
X1299923Y1152227D1*
X1282389Y1158591D1*
X1265828Y1167175D1*
X1250521Y1177835D1*
X1236726Y1190391D1*
X1224676Y1204631D1*
X1214576Y1220313D1*
X1206595Y1237173D1*
X1200870Y1254926D1*
X1197495Y1273272D1*
X1196529Y1291900D1*
X1197988Y1310497D1*
X1201847Y1328747D1*
X1208041Y1346342D1*
X1216466Y1362985D1*
X1226978Y1378394D1*
X1239400Y1392309D1*
X1253523Y1404495D1*
X1269107Y1414747D1*
X1285890Y1422889D1*
X1303587Y1428786D1*
X1321899Y1432337D1*
X1340517Y1433482D1*
X1359127Y1432203D1*
X1377413Y1428520D1*
X1395067Y1422496D1*
X1411790Y1414232D1*
X1427300Y1403869D1*
X1441335Y1391581D1*
X1453657Y1377577D1*
X1464057Y1362092D1*
X1472361Y1345389D1*
X1478429Y1327749D1*
X1482156Y1309472D1*
X1483483Y1290000D1*
X1483407Y1285334D1*
X1984907Y3344957D2*
X1983090Y3326393D1*
X1978880Y3308221D1*
X1972348Y3290748D1*
X1963604Y3274271D1*
X1952797Y3259067D1*
X1940109Y3245394D1*
X1925754Y3233482D1*
X1909975Y3223533D1*
X1893038Y3215716D1*
X1875231Y3210161D1*
X1856854Y3206964D1*
X1838217Y3206178D1*
X1819635Y3207816D1*
X1801423Y3211851D1*
X1783889Y3218214D1*
X1767328Y3226798D1*
X1752021Y3237459D1*
X1738226Y3250015D1*
X1726176Y3264254D1*
X1716076Y3279936D1*
X1708095Y3296797D1*
X1702370Y3314550D1*
X1698995Y3332895D1*
X1698029Y3351524D1*
X1699488Y3370120D1*
X1703347Y3388370D1*
X1709541Y3405965D1*
X1717966Y3422608D1*
X1728478Y3438017D1*
X1740900Y3451933D1*
X1755023Y3464119D1*
X1770607Y3474370D1*
X1787390Y3482513D1*
X1805087Y3488409D1*
X1823399Y3491960D1*
X1842017Y3493106D1*
X1860627Y3491826D1*
X1878913Y3488143D1*
X1896567Y3482119D1*
X1913290Y3473855D1*
X1928800Y3463492D1*
X1942835Y3451204D1*
X1955157Y3437200D1*
X1965557Y3421715D1*
X1973861Y3405012D1*
X1979929Y3387373D1*
X1983656Y3369095D1*
X1984983Y3349623D1*
X1984907Y3344957D1*
X703407Y4174211D2*
X701590Y4155646D1*
X697380Y4137474D1*
X690848Y4120001D1*
X682104Y4103524D1*
X671297Y4088320D1*
X658609Y4074647D1*
X644254Y4062735D1*
X628475Y4052787D1*
X611538Y4044969D1*
X593731Y4039415D1*
X575354Y4036217D1*
X556717Y4035431D1*
X538135Y4037069D1*
X519923Y4041104D1*
X502389Y4047467D1*
X485828Y4056052D1*
X470521Y4066712D1*
X456726Y4079268D1*
X444676Y4093507D1*
X434576Y4109190D1*
X426595Y4126050D1*
X420870Y4143803D1*
X417495Y4162149D1*
X416529Y4180777D1*
X417988Y4199373D1*
X421847Y4217623D1*
X428041Y4235218D1*
X436466Y4251861D1*
X446978Y4267271D1*
X459400Y4281186D1*
X473523Y4293372D1*
X489107Y4303623D1*
X505890Y4311766D1*
X523587Y4317663D1*
X541899Y4321214D1*
X560517Y4322359D1*
X579127Y4321079D1*
X597413Y4317396D1*
X615067Y4311372D1*
X631790Y4303109D1*
X647300Y4292745D1*
X661335Y4280458D1*
X673657Y4266453D1*
X684057Y4250969D1*
X692361Y4234265D1*
X698429Y4216626D1*
X702156Y4198349D1*
X703483Y4178877D1*
X703407Y4174211D1*
X5255203Y2822716D2*
X5241369Y2812778D1*
X5224977Y2803876D1*
X5207568Y2797175D1*
X5189438Y2792790D1*
X5170891Y2790794D1*
X5152243Y2791221D1*
X5133807Y2794064D1*
X5115896Y2799274D1*
X5098812Y2806763D1*
X5082844Y2816406D1*
X5068262Y2828039D1*
X5055313Y2841465D1*
X5044214Y2856458D1*
X5035155Y2872763D1*
X5028287Y2890107D1*
X5023727Y2908194D1*
X5021552Y2926720D1*
X5021800Y2945372D1*
X5024464Y2963835D1*
X5029501Y2981795D1*
X5036826Y2998950D1*
X5046315Y3015010D1*
X5057806Y3029704D1*
X5071107Y3042782D1*
X5085992Y3054025D1*
X5102722Y3063479D1*
X5102924Y3955279D1*
X5104576Y3965707D1*
X5107838Y3975748D1*
X5112631Y3985155D1*
X5118837Y3993697D1*
X5126303Y4001163D1*
X5134845Y4007369D1*
X5144252Y4012162D1*
X5154293Y4015424D1*
X5164721Y4017076D1*
X5450000Y4017283D1*
X6065279Y4017076D1*
X6075707Y4015424D1*
X6085748Y4012162D1*
X6095155Y4007369D1*
X6103697Y4001163D1*
X6111163Y3993697D1*
X6117369Y3985155D1*
X6122162Y3975748D1*
X6125424Y3965707D1*
X6127076Y3955279D1*
X6127283Y3670000D1*
Y3588424D1*
X6146877Y3587078D1*
X6165163Y3583395D1*
X6182817Y3577371D1*
X6199540Y3569107D1*
X6215050Y3558744D1*
X6229085Y3546456D1*
X6241407Y3532452D1*
X6251807Y3516967D1*
X6260111Y3500264D1*
X6266179Y3482624D1*
X6269906Y3464347D1*
X6271233Y3444875D1*
X6270021Y3426261D1*
X6266404Y3407961D1*
X6260443Y3390286D1*
X6252240Y3373533D1*
X6241933Y3357986D1*
X6229696Y3343907D1*
X6215736Y3331535D1*
X6200289Y3321078D1*
X6183616Y3312714D1*
X6165998Y3306584D1*
X6147735Y3302790D1*
X6129133Y3301398D1*
X6127292Y3301411D1*
X6127076Y2884721D1*
X6125424Y2874293D1*
X6122162Y2864252D1*
X6117369Y2854845D1*
X6111163Y2846303D1*
X6103697Y2838837D1*
X6095155Y2832631D1*
X6085748Y2827838D1*
X6075707Y2824576D1*
X6065279Y2822924D1*
X5780000Y2822717D1*
X5255273D1*
X4471532Y4174211D2*
X4469715Y4155646D1*
X4465505Y4137474D1*
X4458973Y4120001D1*
X4450229Y4103524D1*
X4439422Y4088320D1*
X4426734Y4074647D1*
X4412379Y4062735D1*
X4396600Y4052787D1*
X4379663Y4044969D1*
X4361856Y4039415D1*
X4343479Y4036217D1*
X4324842Y4035431D1*
X4306260Y4037069D1*
X4288048Y4041104D1*
X4270514Y4047467D1*
X4253953Y4056052D1*
X4238646Y4066712D1*
X4224851Y4079268D1*
X4212801Y4093507D1*
X4202701Y4109190D1*
X4194720Y4126050D1*
X4188995Y4143803D1*
X4185620Y4162149D1*
X4184654Y4180777D1*
X4186113Y4199373D1*
X4189972Y4217623D1*
X4196166Y4235218D1*
X4204591Y4251861D1*
X4215103Y4267271D1*
X4227525Y4281186D1*
X4241648Y4293372D1*
X4257232Y4303623D1*
X4274015Y4311766D1*
X4291712Y4317663D1*
X4310024Y4321214D1*
X4328642Y4322359D1*
X4347252Y4321079D1*
X4365538Y4317396D1*
X4383192Y4311372D1*
X4399915Y4303109D1*
X4415425Y4292745D1*
X4429460Y4280458D1*
X4441782Y4266453D1*
X4452182Y4250969D1*
X4460486Y4234265D1*
X4466554Y4216626D1*
X4470281Y4198349D1*
X4471608Y4178877D1*
X4471532Y4174211D1*
X3858157Y916084D2*
X3856340Y897519D1*
X3852130Y879347D1*
X3845598Y861875D1*
X3836854Y845397D1*
X3826047Y830194D1*
X3813359Y816520D1*
X3799004Y804609D1*
X3783225Y794660D1*
X3766288Y786842D1*
X3748481Y781288D1*
X3730104Y778091D1*
X3711467Y777304D1*
X3692885Y778942D1*
X3674673Y782977D1*
X3657139Y789341D1*
X3640578Y797925D1*
X3625271Y808585D1*
X3611476Y821141D1*
X3599426Y835381D1*
X3589326Y851063D1*
X3581345Y867923D1*
X3575620Y885676D1*
X3572245Y904022D1*
X3571279Y922650D1*
X3572738Y941247D1*
X3576597Y959497D1*
X3582791Y977092D1*
X3591216Y993735D1*
X3601728Y1009144D1*
X3614150Y1023059D1*
X3628273Y1035245D1*
X3643857Y1045497D1*
X3660640Y1053639D1*
X3678337Y1059536D1*
X3696649Y1063087D1*
X3715267Y1064232D1*
X3733877Y1062953D1*
X3752163Y1059270D1*
X3769817Y1053246D1*
X3786540Y1044982D1*
X3802050Y1034619D1*
X3816085Y1022331D1*
X3828407Y1008327D1*
X3838807Y992842D1*
X3847111Y976139D1*
X3853179Y958499D1*
X3856906Y940222D1*
X3858233Y920750D1*
X3858157Y916084D1*
X4461407Y1106584D2*
X4459590Y1088019D1*
X4455380Y1069847D1*
X4448848Y1052375D1*
X4440104Y1035897D1*
X4429297Y1020694D1*
X4416609Y1007020D1*
X4402254Y995109D1*
X4386475Y985160D1*
X4369538Y977342D1*
X4351731Y971788D1*
X4333354Y968591D1*
X4314717Y967804D1*
X4296135Y969442D1*
X4277923Y973477D1*
X4260389Y979841D1*
X4243828Y988425D1*
X4228521Y999085D1*
X4214726Y1011641D1*
X4202676Y1025881D1*
X4192576Y1041563D1*
X4184595Y1058423D1*
X4178870Y1076176D1*
X4175495Y1094522D1*
X4174529Y1113150D1*
X4175988Y1131747D1*
X4179847Y1149997D1*
X4186041Y1167592D1*
X4194466Y1184235D1*
X4204978Y1199644D1*
X4217400Y1213559D1*
X4231523Y1225745D1*
X4247107Y1235997D1*
X4263890Y1244139D1*
X4281587Y1250036D1*
X4299899Y1253587D1*
X4318517Y1254732D1*
X4337127Y1253453D1*
X4355413Y1249770D1*
X4373067Y1243746D1*
X4389790Y1235482D1*
X4405300Y1225119D1*
X4419335Y1212831D1*
X4431657Y1198827D1*
X4442057Y1183342D1*
X4450361Y1166639D1*
X4456429Y1148999D1*
X4460156Y1130722D1*
X4461483Y1111250D1*
X4461407Y1106584D1*
X7001407Y5313461D2*
X6999590Y5294896D1*
X6995380Y5276724D1*
X6988848Y5259251D1*
X6980104Y5242774D1*
X6969297Y5227570D1*
X6956609Y5213897D1*
X6942254Y5201985D1*
X6926475Y5192037D1*
X6909538Y5184219D1*
X6891731Y5178665D1*
X6873354Y5175467D1*
X6854717Y5174681D1*
X6836135Y5176319D1*
X6817923Y5180354D1*
X6800389Y5186717D1*
X6783828Y5195302D1*
X6768521Y5205962D1*
X6754726Y5218518D1*
X6742676Y5232757D1*
X6732576Y5248440D1*
X6724595Y5265300D1*
X6718870Y5283053D1*
X6715495Y5301399D1*
X6714529Y5320027D1*
X6715988Y5338623D1*
X6719847Y5356873D1*
X6726041Y5374468D1*
X6734466Y5391111D1*
X6744978Y5406521D1*
X6757400Y5420436D1*
X6771523Y5432622D1*
X6787107Y5442873D1*
X6803890Y5451016D1*
X6821587Y5456913D1*
X6839899Y5460464D1*
X6858517Y5461609D1*
X6877127Y5460329D1*
X6895413Y5456646D1*
X6913067Y5450622D1*
X6929790Y5442359D1*
X6945300Y5431995D1*
X6959335Y5419708D1*
X6971657Y5405703D1*
X6982057Y5390219D1*
X6990361Y5373515D1*
X6996429Y5355876D1*
X7000156Y5337599D1*
X7001483Y5318127D1*
X7001407Y5313461D1*
X5983407Y-1494666D2*
X5981590Y-1513231D1*
X5977380Y-1531403D1*
X5970848Y-1548875D1*
X5962104Y-1565353D1*
X5951297Y-1580556D1*
X5938609Y-1594230D1*
X5924254Y-1606141D1*
X5908475Y-1616090D1*
X5891538Y-1623908D1*
X5873731Y-1629462D1*
X5855354Y-1632659D1*
X5836717Y-1633446D1*
X5818135Y-1631808D1*
X5799923Y-1627773D1*
X5782389Y-1621409D1*
X5765828Y-1612825D1*
X5750521Y-1602165D1*
X5736726Y-1589609D1*
X5724676Y-1575369D1*
X5714576Y-1559687D1*
X5706595Y-1542827D1*
X5700870Y-1525074D1*
X5697495Y-1506728D1*
X5696529Y-1488100D1*
X5697988Y-1469503D1*
X5701847Y-1451253D1*
X5708041Y-1433658D1*
X5716466Y-1417015D1*
X5726978Y-1401606D1*
X5739400Y-1387691D1*
X5753523Y-1375505D1*
X5769107Y-1365253D1*
X5785890Y-1357111D1*
X5803587Y-1351214D1*
X5821899Y-1347663D1*
X5840517Y-1346518D1*
X5859127Y-1347797D1*
X5877413Y-1351480D1*
X5895067Y-1357504D1*
X5911790Y-1365768D1*
X5927300Y-1376131D1*
X5941335Y-1388419D1*
X5953657Y-1402423D1*
X5964057Y-1417908D1*
X5972361Y-1434611D1*
X5978429Y-1452251D1*
X5982156Y-1470528D1*
X5983483Y-1490000D1*
X5983407Y-1494666D1*
X4471532Y2392461D2*
X4469715Y2373896D1*
X4465505Y2355724D1*
X4458973Y2338251D1*
X4450229Y2321774D1*
X4439422Y2306570D1*
X4426734Y2292897D1*
X4412379Y2280985D1*
X4396600Y2271037D1*
X4379663Y2263219D1*
X4361856Y2257665D1*
X4343479Y2254467D1*
X4324842Y2253681D1*
X4306260Y2255319D1*
X4288048Y2259354D1*
X4270514Y2265717D1*
X4253953Y2274302D1*
X4238646Y2284962D1*
X4224851Y2297518D1*
X4212801Y2311757D1*
X4202701Y2327440D1*
X4194720Y2344300D1*
X4188995Y2362053D1*
X4185620Y2380399D1*
X4184654Y2399027D1*
X4186113Y2417623D1*
X4189972Y2435873D1*
X4196166Y2453468D1*
X4204591Y2470111D1*
X4215103Y2485521D1*
X4227525Y2499436D1*
X4241648Y2511622D1*
X4257232Y2521873D1*
X4274015Y2530016D1*
X4291712Y2535913D1*
X4310024Y2539464D1*
X4328642Y2540609D1*
X4347252Y2539329D1*
X4365538Y2535646D1*
X4383192Y2529622D1*
X4399915Y2521359D1*
X4415425Y2510995D1*
X4429460Y2498708D1*
X4441782Y2484703D1*
X4452182Y2469219D1*
X4460486Y2452515D1*
X4466554Y2434876D1*
X4470281Y2416599D1*
X4471608Y2397127D1*
X4471532Y2392461D1*
Y3283337D2*
X4469715Y3264773D1*
X4465505Y3246601D1*
X4458973Y3229128D1*
X4450229Y3212651D1*
X4439422Y3197447D1*
X4426734Y3183774D1*
X4412379Y3171862D1*
X4396600Y3161913D1*
X4379663Y3154096D1*
X4361856Y3148541D1*
X4343479Y3145344D1*
X4324842Y3144558D1*
X4306260Y3146196D1*
X4288048Y3150231D1*
X4270514Y3156594D1*
X4253953Y3165178D1*
X4238646Y3175839D1*
X4224851Y3188395D1*
X4212801Y3202634D1*
X4202701Y3218316D1*
X4194720Y3235177D1*
X4188995Y3252930D1*
X4185620Y3271275D1*
X4184654Y3289904D1*
X4186113Y3308500D1*
X4189972Y3326750D1*
X4196166Y3344345D1*
X4204591Y3360988D1*
X4215103Y3376397D1*
X4227525Y3390313D1*
X4241648Y3402499D1*
X4257232Y3412750D1*
X4274015Y3420893D1*
X4291712Y3426789D1*
X4310024Y3430340D1*
X4328642Y3431486D1*
X4347252Y3430206D1*
X4365538Y3426523D1*
X4383192Y3420499D1*
X4399915Y3412235D1*
X4415425Y3401872D1*
X4429460Y3389584D1*
X4441782Y3375580D1*
X4452182Y3360095D1*
X4460486Y3343392D1*
X4466554Y3325753D1*
X4470281Y3307475D1*
X4471608Y3288003D1*
X4471532Y3283337D1*
X6273190Y3760716D2*
Y3958685D1*
X6256815Y3970768D1*
X6240894Y3986688D1*
X6227660Y4004903D1*
X6217439Y4024965D1*
X6210481Y4046378D1*
X6206959Y4068616D1*
Y4091131D1*
X6210481Y4113369D1*
X6217439Y4134782D1*
X6227660Y4154843D1*
X6240894Y4173058D1*
X6256815Y4188979D1*
X6275030Y4202213D1*
X6295091Y4212435D1*
X6316504Y4219392D1*
X6338742Y4222914D1*
X6361258D1*
X6383496Y4219392D1*
X6404909Y4212435D1*
X6424970Y4202213D1*
X6443185Y4188979D1*
X6459106Y4173058D1*
X6472340Y4154843D1*
X6482561Y4134782D1*
X6489519Y4113369D1*
X6493041Y4091131D1*
Y4068616D1*
X6489519Y4046378D1*
X6482561Y4024965D1*
X6472340Y4004903D1*
X6458538Y3986074D1*
X6459058Y3760356D1*
X6474979Y3744435D1*
X6488213Y3726220D1*
X6498435Y3706159D1*
X6505392Y3684746D1*
X6508914Y3662508D1*
Y3639992D1*
X6505392Y3617754D1*
X6498435Y3596341D1*
X6488213Y3576280D1*
X6474979Y3558065D1*
X6459058Y3542144D1*
X6440843Y3528910D1*
X6420782Y3518689D1*
X6399369Y3511731D1*
X6377131Y3508209D1*
X6354616D1*
X6332378Y3511731D1*
X6310965Y3518689D1*
X6290903Y3528910D1*
X6272688Y3542144D1*
X6256768Y3558065D1*
X6243534Y3576280D1*
X6233312Y3596341D1*
X6226354Y3617754D1*
X6222832Y3639992D1*
Y3662508D1*
X6226354Y3684746D1*
X6233312Y3706159D1*
X6243534Y3726220D1*
X6256768Y3744435D1*
X6273207Y3760764D1*
X5733667Y-815430D2*
Y-696393D1*
X5723920Y-684337D1*
X5712155Y-665140D1*
X5703539Y-644339D1*
X5698283Y-622446D1*
X5696517Y-600000D1*
X5698283Y-577554D1*
X5703539Y-555661D1*
X5712155Y-534860D1*
X5723920Y-515663D1*
X5738542Y-498542D1*
X5755663Y-483920D1*
X5774860Y-472155D1*
X5795661Y-463539D1*
X5817554Y-458283D1*
X5840000Y-456517D1*
X5862446Y-458283D1*
X5884339Y-463539D1*
X5905140Y-472155D1*
X5924337Y-483920D1*
X5941458Y-498542D1*
X5956080Y-515663D1*
X5967845Y-534860D1*
X5976461Y-555661D1*
X5981717Y-577554D1*
X5983483Y-600000D1*
X5981717Y-622446D1*
X5976461Y-644339D1*
X5967845Y-665140D1*
X5956080Y-684337D1*
X5941458Y-701458D1*
X5924337Y-716080D1*
X5906330Y-727178D1*
X5906333Y-815326D1*
X5921458Y-828542D1*
X5936080Y-845663D1*
X5947845Y-864860D1*
X5956461Y-885661D1*
X5961717Y-907554D1*
X5963483Y-930000D1*
X5961717Y-952446D1*
X5956461Y-974339D1*
X5947845Y-995140D1*
X5936080Y-1014337D1*
X5921458Y-1031458D1*
X5904337Y-1046080D1*
X5885140Y-1057845D1*
X5864339Y-1066461D1*
X5842446Y-1071717D1*
X5820000Y-1073483D1*
X5797554Y-1071717D1*
X5775661Y-1066461D1*
X5754860Y-1057845D1*
X5735663Y-1046080D1*
X5718542Y-1031458D1*
X5703920Y-1014337D1*
X5692155Y-995140D1*
X5683539Y-974339D1*
X5678283Y-952446D1*
X5676517Y-930000D1*
X5678283Y-907554D1*
X5683539Y-885661D1*
X5692155Y-864860D1*
X5703920Y-845663D1*
X5718542Y-828542D1*
X5733693Y-815473D1*
X-609306Y6291730D2*
X-610243Y6135593D1*
Y3737820D1*
X585491Y3737659D1*
X620322Y3730855D1*
X627218Y3727998D1*
X657589Y3707351D1*
X662442Y3701667D1*
X681130Y3672997D1*
X683438Y3665889D1*
X689732Y3632237D1*
X689364Y1826024D1*
X682084Y1791307D1*
X678690Y1784649D1*
X659351Y1756411D1*
X653667Y1751559D1*
X624997Y1732870D1*
X617889Y1730562D1*
X584237Y1724268D1*
X-1335164Y1724243D1*
X-1335035Y-1413800D1*
X-1334985Y-1430890D1*
X-1321292Y-1507447D1*
X-1294553Y-1580547D1*
X-1255569Y-1647912D1*
X-1205518Y-1707520D1*
X-1145910Y-1757571D1*
X-1078543Y-1796557D1*
X-1005446Y-1823294D1*
X-928825Y-1836988D1*
X21443Y-1837243D1*
X7003916Y-1836742D1*
X7043767Y-1836309D1*
X7120286Y-1822159D1*
X7193202Y-1795118D1*
X7260412Y-1755991D1*
X7319927Y-1705931D1*
X7369987Y-1646418D1*
X7409115Y-1579209D1*
X7436154Y-1506290D1*
X7450304Y-1429820D1*
X7451243Y-1273593D1*
X7451247Y6201965D1*
X7445131Y6283619D1*
X7427284Y6358915D1*
X7397821Y6430449D1*
X7357475Y6496462D1*
X7307248Y6555305D1*
X7248393Y6605523D1*
X7182374Y6645857D1*
X7110833Y6675308D1*
X7035554Y6693140D1*
X6953970Y6699246D1*
X-162910Y6698737D1*
X-202762Y6698305D1*
X-279283Y6684156D1*
X-352200Y6657118D1*
X-419412Y6617991D1*
X-478927Y6567931D1*
X-528987Y6508418D1*
X-568115Y6441209D1*
X-595154Y6368293D1*
X-609304Y6291821D1*
X4010000Y-863681D2*
Y-1248066D1*
X3817808Y-1055873D2*
X4010000D1*
X510000Y297192D2*
Y130000D1*
X357808D2*
X510000D1*
X4574000Y297192D2*
Y130000D1*
X5844000Y297192D2*
Y130000D1*
X6098000Y297192D2*
Y130000D1*
X6250192D1*
X6098000Y-124000D2*
Y-291192D1*
Y-124000D2*
X6250192D1*
X5844000D2*
Y-291192D1*
X510000Y-124000D2*
Y-291192D1*
X357808Y-124000D2*
X510000D1*
X333377Y5866319D2*
Y5531934D1*
X166184Y5699127D2*
X500569D1*
X6772377Y910000D2*
Y717808D1*
X6580185Y910000D2*
X6964569D1*
X2143123Y-610681D2*
Y-777873D1*
X1975931D2*
X2310316D1*
X6772377Y3470000D2*
Y3277808D1*
X6580185Y3470000D2*
X6964569D1*
X820000Y-863681D2*
Y-1248066D1*
X470000Y-863681D2*
Y-1248066D1*
X277808Y-1055873D2*
X470000D1*
X6772377Y2190000D2*
Y1997807D1*
X6580185Y2190000D2*
X6964569D1*
X510000Y5117192D2*
Y4950000D1*
X357808D2*
X510000D1*
Y4696000D2*
Y4528807D1*
X357808Y4696000D2*
X510000D1*
X2300000Y-863682D2*
Y-1248066D1*
X2107808Y-1055873D2*
X2300000D1*
X6190000Y-863682D2*
Y-1248066D1*
X5997808Y-1055873D2*
X6190000D1*
X-820000Y-1492808D2*
Y-1827192D1*
X-987192Y-1660000D2*
X-652808D1*
X5414253Y2370279D2*
Y2035894D1*
X5247061Y2203087D2*
X5581446D1*
X1170000Y3456318D2*
Y3264127D1*
X977808D2*
X1362193D1*
X5930000Y6197192D2*
Y5812807D1*
Y6005000D2*
X6122193D1*
X1100000Y6197191D2*
Y5812807D1*
Y6005000D2*
X1292193D1*
X3565000Y6197191D2*
Y5812807D1*
Y6005000D2*
X3757193D1*
X4381500Y826019D2*
Y539234D1*
X4238108Y682627D2*
X4524892D1*
X5052800Y1522826D2*
Y1236041D1*
X4909408Y1379433D2*
X5052800D1*
X3930000Y6643392D2*
Y6356608D1*
X3786608Y6500000D2*
X3930000D1*
X5690000Y4322269D2*
Y4035484D1*
X5546608Y4178877D2*
X5833392D1*
X5254108Y-365123D2*
X5540892D1*
X7080250Y476769D2*
Y189984D1*
X6936858Y333377D2*
X7223642D1*
X4953000Y5350392D2*
Y5207000D1*
X4809608D2*
X5096392D1*
X250000Y-606608D2*
Y-893392D1*
X106608Y-750000D2*
X393392D1*
X-1063627Y587892D2*
Y301108D1*
X-1207019Y444500D2*
X-920234D1*
X2428873Y460892D2*
Y317500D1*
X2285481D2*
X2572266D1*
X3079750Y2540519D2*
Y2253734D1*
X2936358Y2397127D2*
X3223142D1*
X1930000Y5343392D2*
Y5200000D1*
X1786608D2*
X2073392D1*
X3079750Y4322269D2*
Y4035484D1*
X2936358Y4178877D2*
X3223142D1*
X1960000Y6513392D2*
Y6370000D1*
X1492250Y1953142D2*
Y1666358D1*
X1348858Y1809750D2*
X1635642D1*
X-480000Y1103392D2*
Y816608D1*
X-623392Y960000D2*
X-336608D1*
X111123Y666750D2*
Y523358D1*
X-32269Y666750D2*
X254516D1*
X6940000Y-986608D2*
Y-1273392D1*
X6796608Y-1130000D2*
X7083392D1*
X1841500Y4322269D2*
Y4035484D1*
X1698108Y4178877D2*
X1984892D1*
X2010000Y1073392D2*
Y786608D1*
X1866608Y930000D2*
X2153392D1*
X4280000Y5380000D2*
Y5236608D1*
X4136608Y5380000D2*
X4423392D1*
X3079750Y3493016D2*
Y3206231D1*
X2936358Y3349623D2*
X3223142D1*
X3890000Y6023392D2*
Y5736608D1*
Y5880000D2*
X4033392D1*
X1340000Y1433392D2*
Y1146608D1*
X1196608Y1290000D2*
X1483392D1*
X1841500Y3493016D2*
Y3206231D1*
X1698108Y3349623D2*
X1984892D1*
X560000Y4322269D2*
Y4035484D1*
X416608Y4178877D2*
X703392D1*
X4365623Y-650358D2*
Y-793750D1*
X4222231D2*
X4509016D1*
X5164843Y2934150D2*
Y2790758D1*
X5021451Y2934150D2*
X5164843D1*
X110000Y1073392D2*
Y930000D1*
X-33392D2*
X253392D1*
X4328125Y4322269D2*
Y4035484D1*
X4184733Y4178877D2*
X4471517D1*
X3714750Y1064142D2*
Y777358D1*
X3571358Y920750D2*
X3858142D1*
X4318000Y1254642D2*
Y967858D1*
X4174608Y1111250D2*
X4461392D1*
X6858000Y5461519D2*
Y5174734D1*
X6714608Y5318127D2*
X7001392D1*
X4600000Y5510000D2*
Y5366608D1*
X5840000Y-1346608D2*
Y-1633392D1*
X5696608Y-1490000D2*
X5983392D1*
X5300000Y-1340000D2*
Y-1483392D1*
X6127750Y3588267D2*
Y3301483D1*
Y3444875D2*
X6271142D1*
X3381373Y476769D2*
Y333377D1*
X3237981D2*
X3524766D1*
X5318123Y476250D2*
Y332858D1*
X5174731Y476250D2*
X5461516D1*
X4328125Y2540519D2*
Y2253734D1*
X4184733Y2397127D2*
X4471517D1*
X4328125Y3431396D2*
Y3144611D1*
X4184733Y3288003D2*
X4471517D1*
X2923096Y-304662D2*
D20*
X3182028D1*
X2923096Y-334325D2*
X3182028D1*
X2923096Y-363988D2*
X3181735D1*
X2923096Y-393652D2*
X3169666D1*
X2923096Y-423315D2*
X3164745D1*
X3435207D2*
X3764209D1*
X2922979Y-452978D2*
X3166620D1*
X3433391D2*
X3871365D1*
X2922334Y-482642D2*
X3175525D1*
X3424485D2*
X3871365D1*
X2921748Y-512305D2*
X3182028D1*
X3417514D2*
X3871365D1*
X2921162Y-541968D2*
X3182145D1*
X3417865D2*
X3871365D1*
X2920518Y-571632D2*
X3871365D1*
X2919932Y-601295D2*
X3871365D1*
X2919346Y-630958D2*
X3871365D1*
X2918702Y-660622D2*
X3871365D1*
X2918116Y-690285D2*
X3871365D1*
X2917530Y-719948D2*
X3871365D1*
X2916886Y-749612D2*
X3871365D1*
X2916300Y-779275D2*
X3867440D1*
X2915714Y-808938D2*
X3847813D1*
X2915069Y-838602D2*
X3828187D1*
X2914484Y-868265D2*
X3808560D1*
X2913898Y-897928D2*
X3788875D1*
X2913253Y-927592D2*
X3769248D1*
X2912667Y-957255D2*
X3749621D1*
X2912081Y-986918D2*
X3729994D1*
X2911437Y-1016582D2*
X3710309D1*
X2910851Y-1046245D2*
X3690682D1*
X2910265Y-1075908D2*
X3671056D1*
X2909621Y-1105572D2*
X3651429D1*
X2909035Y-1135235D2*
X3631744D1*
X2908449Y-1164898D2*
X3612117D1*
X2907805Y-1194562D2*
X3592490D1*
X3062412Y-279612D2*
X2920085Y-284379D1*
X2920119Y-444806D1*
X2904555Y-1207512D1*
X3581970Y-1214913D1*
X3874392Y-773332D1*
X3874375Y-450195D1*
X3860388Y-451997D1*
X3850000Y-452405D1*
X3839612Y-451997D1*
X3829287Y-450775D1*
X3819091Y-448747D1*
X3809085Y-445925D1*
X3799331Y-442326D1*
X3789889Y-437974D1*
X3780819Y-432894D1*
X3772174Y-427118D1*
X3764010Y-420681D1*
X3756376Y-413624D1*
X3749319Y-405990D1*
X3741641Y-395968D1*
X3431397Y-395999D1*
X3428747Y-399091D1*
X3430775Y-409287D1*
X3431997Y-419612D1*
X3432405Y-430000D1*
X3431997Y-440388D1*
X3430775Y-450713D1*
X3428747Y-460909D1*
X3425925Y-470915D1*
X3422326Y-480669D1*
X3414263Y-496736D1*
X3414852Y-542090D1*
X3413480Y-546577D1*
X3410787Y-550421D1*
X3407039Y-553244D1*
X3402602Y-554771D1*
X3370003Y-554999D1*
X3343698D1*
X3330909Y-558747D1*
X3320713Y-560775D1*
X3310388Y-561997D1*
X3300000Y-562405D1*
X3289612Y-561997D1*
X3279287Y-560775D1*
X3269091Y-558747D1*
X3256608Y-555011D1*
X3197654Y-554814D1*
X3193191Y-553364D1*
X3189394Y-550606D1*
X3186636Y-546809D1*
X3185186Y-542346D1*
X3185001Y-495649D1*
X3177674Y-480669D1*
X3174075Y-470915D1*
X3171253Y-460909D1*
X3169225Y-450713D1*
X3168003Y-440388D1*
X3167595Y-430000D1*
X3168003Y-419612D1*
X3169225Y-409287D1*
X3171253Y-399091D1*
X3174075Y-389085D1*
X3177674Y-379331D1*
X3184745Y-365035D1*
X3185001Y-330007D1*
Y-275462D1*
X3063192Y-279588D1*
X3343392Y-555011D2*
X3330909Y-558747D1*
X3320713Y-560775D1*
X3310388Y-561997D1*
X3300000Y-562405D1*
X3289612Y-561997D1*
X3279287Y-560775D1*
X3269091Y-558747D1*
X3256608Y-555011D1*
X3184983Y-495390D2*
X3177674Y-480669D1*
X3174075Y-470915D1*
X3171253Y-460909D1*
X3169225Y-450713D1*
X3168003Y-440388D1*
X3167595Y-430000D1*
X3168003Y-419612D1*
X3169225Y-409287D1*
X3171253Y-399091D1*
X3174075Y-389085D1*
X3177674Y-379331D1*
X3184745Y-365035D1*
X3428669Y-398817D2*
X3430775Y-409287D1*
X3431997Y-419612D1*
X3432405Y-430000D1*
X3431997Y-440388D1*
X3430775Y-450713D1*
X3428747Y-460909D1*
X3425925Y-470915D1*
X3422326Y-480669D1*
X3414263Y-496736D1*
X4728027Y-484662D2*
X5337545D1*
X5457438D2*
X5572012D1*
X4728027Y-514325D2*
X5572012D1*
X4728027Y-543988D2*
X5572012D1*
X4728027Y-573652D2*
X5572012D1*
X4728027Y-603315D2*
X5572012D1*
X4728027Y-632978D2*
X5572012D1*
X4728027Y-662642D2*
X5572012D1*
X4728027Y-692305D2*
X5572012D1*
X4728027Y-721968D2*
X5572012D1*
X4728027Y-751632D2*
X5572012D1*
X4728027Y-781295D2*
X5572012D1*
X4728027Y-810958D2*
X5572012D1*
X4728027Y-840622D2*
X5572012D1*
X4728027Y-870285D2*
X5572012D1*
X4728027Y-899948D2*
X5572012D1*
X4728027Y-929612D2*
X5572012D1*
X4728027Y-959275D2*
X5572012D1*
X4728027Y-988938D2*
X5572012D1*
X4728027Y-1018602D2*
X5572012D1*
X4728027Y-1048265D2*
X5572012D1*
X4728027Y-1077928D2*
X5572012D1*
X4728027Y-1107592D2*
X5572012D1*
X4728027Y-1137255D2*
X5572012D1*
X4728027Y-1166918D2*
X5572012D1*
X4728027Y-1196582D2*
X5572012D1*
X4728027Y-1226245D2*
X5112453D1*
X5378170D2*
X5572012D1*
X4728027Y-1255908D2*
X5111985D1*
X5405296D2*
X5572012D1*
X4728027Y-1285572D2*
X5111985D1*
X5423692D2*
X5572012D1*
X4728027Y-1315235D2*
X5111985D1*
X5433066D2*
X5572012D1*
X4728027Y-1344898D2*
X5111985D1*
X5448006D2*
X5572012D1*
X4728027Y-1374562D2*
X5111985D1*
X5465465D2*
X5523736D1*
X4728027Y-1404225D2*
X5111985D1*
X4728027Y-1433888D2*
X5111985D1*
X4728027Y-1463552D2*
X5111985D1*
X4728027Y-1493215D2*
X5111985D1*
X4728027Y-1522878D2*
X5111985D1*
X5485667Y-463792D2*
X5475326Y-472241D1*
X5466681Y-478017D1*
X5457611Y-483097D1*
X5448169Y-487449D1*
X5438415Y-491048D1*
X5428409Y-493870D1*
X5418213Y-495898D1*
X5407888Y-497120D1*
X5397500Y-497528D1*
X5387112Y-497120D1*
X5376787Y-495898D1*
X5366591Y-493870D1*
X5356585Y-491048D1*
X5346831Y-487449D1*
X5337389Y-483097D1*
X5328319Y-478017D1*
X5319674Y-472241D1*
X5307186Y-461808D1*
X4724962Y-455169D1*
X4724998Y-1524977D1*
X5115014Y-1525002D1*
X5115186Y-1227654D1*
X5116636Y-1223191D1*
X5119395Y-1219395D1*
X5123191Y-1216636D1*
X5127654Y-1215186D1*
X5174995Y-1215002D1*
X5256373D1*
X5269091Y-1211253D1*
X5279287Y-1209225D1*
X5289612Y-1208003D1*
X5300000Y-1207595D1*
X5310388Y-1208003D1*
X5320713Y-1209225D1*
X5330909Y-1211253D1*
X5343392Y-1214989D1*
X5362613Y-1215231D1*
X5367049Y-1216761D1*
X5370795Y-1219588D1*
X5372928Y-1222395D1*
X5380087Y-1234566D1*
X5393624Y-1246376D1*
X5400681Y-1254010D1*
X5407118Y-1262174D1*
X5412894Y-1270819D1*
X5417974Y-1279889D1*
X5422326Y-1289331D1*
X5425925Y-1299085D1*
X5428747Y-1309091D1*
X5430990Y-1321102D1*
X5467775Y-1383637D1*
X5574979Y-1367136D1*
X5574832Y-464827D1*
X5485727Y-463815D1*
X5128027Y1835338D2*
X6042023D1*
X5128027Y1805675D2*
X6042023D1*
X5128027Y1776012D2*
X6042023D1*
X5128027Y1746348D2*
X6042023D1*
X5128027Y1716685D2*
X6042023D1*
X5128027Y1687022D2*
X6042023D1*
X5128027Y1657358D2*
X6042023D1*
X5128027Y1627695D2*
X6042023D1*
X5128027Y1598032D2*
X6042023D1*
X5128027Y1568368D2*
X6042023D1*
X5128027Y1538705D2*
X6042023D1*
X5128027Y1509042D2*
X6042023D1*
X5142616Y1479378D2*
X6042023D1*
X5167984Y1449715D2*
X6042023D1*
X5181810Y1420052D2*
X6042023D1*
X5187728Y1390388D2*
X6042023D1*
X5186849Y1360725D2*
X6042023D1*
X5179057Y1331062D2*
X6042023D1*
X5162770Y1301398D2*
X6042023D1*
X5132831Y1271735D2*
X6042023D1*
X5128027Y1242072D2*
X6042023D1*
X5128027Y1212408D2*
X6042023D1*
X5128027Y1182745D2*
X6042023D1*
X5128027Y1153082D2*
X6042023D1*
X5128027Y1123418D2*
X6042023D1*
X5128027Y1093755D2*
X6042023D1*
X5128027Y1064092D2*
X6042023D1*
X5128027Y1034428D2*
X6042023D1*
X5128027Y1004765D2*
X6042023D1*
X5128027Y975102D2*
X6042023D1*
X5128027Y945438D2*
X6042023D1*
X5128027Y915775D2*
X6042023D1*
X5128027Y886112D2*
X6042023D1*
X5128027Y856448D2*
X6042023D1*
X5128027Y826785D2*
X6042023D1*
X5128027Y797122D2*
X6042023D1*
X5128027Y767458D2*
X6042023D1*
X5128027Y737795D2*
X6042023D1*
X5128027Y708132D2*
X6042023D1*
X5128027Y678468D2*
X6042023D1*
X5128027Y648805D2*
X6042023D1*
X5184797Y1369045D2*
X5183575Y1358721D1*
X5181547Y1348524D1*
X5178725Y1338518D1*
X5175126Y1328764D1*
X5170774Y1319323D1*
X5165694Y1310252D1*
X5159918Y1301608D1*
X5153481Y1293443D1*
X5146424Y1285809D1*
X5138790Y1278752D1*
X5124987Y1268548D1*
X5124998Y644950D1*
X6044994Y644998D1*
X6045002Y1864960D1*
X5125006Y1865002D1*
X5124998Y1490453D1*
X5138790Y1480115D1*
X5146424Y1473058D1*
X5153481Y1465423D1*
X5159918Y1457259D1*
X5165694Y1448615D1*
X5170774Y1439544D1*
X5175126Y1430102D1*
X5178725Y1420349D1*
X5181547Y1410343D1*
X5183575Y1400146D1*
X5184797Y1389822D1*
X5185205Y1379433D1*
X5184797Y1369045D1*
X5188027Y3905338D2*
X6042030D1*
X5188027Y3875675D2*
X6042030D1*
X5188027Y3846012D2*
X6042030D1*
X5188027Y3816348D2*
X6042030D1*
X5188027Y3786685D2*
X6042030D1*
X5188027Y3757022D2*
X6042030D1*
X5188027Y3727358D2*
X6042030D1*
X5188027Y3697695D2*
X6042030D1*
X5188027Y3668032D2*
X6042030D1*
X5188027Y3638368D2*
X6042030D1*
X5188027Y3608705D2*
X6042030D1*
X5188027Y3579042D2*
X6042030D1*
X5188027Y3549378D2*
X6042030D1*
X5188027Y3519715D2*
X6015549D1*
X5188027Y3490052D2*
X6000316D1*
X5188027Y3460388D2*
X5993285D1*
X5188027Y3430725D2*
X5993110D1*
X5188027Y3401062D2*
X5999789D1*
X5188027Y3371398D2*
X6014611D1*
X5188027Y3341735D2*
X6041737D1*
X5188027Y3312072D2*
X6042030D1*
X5188027Y3282408D2*
X6042030D1*
X5188027Y3252745D2*
X6042030D1*
X5188027Y3223082D2*
X6042030D1*
X5188027Y3193418D2*
X6042030D1*
X5188027Y3163755D2*
X6042030D1*
X5188027Y3134092D2*
X6042030D1*
X5188027Y3104428D2*
X6042030D1*
X5188027Y3074765D2*
X6042030D1*
X5240111Y3045102D2*
X6042030D1*
X5272334Y3015438D2*
X6042030D1*
X5289793Y2985775D2*
X6042030D1*
X5298406Y2956112D2*
X6042030D1*
X5300046Y2926448D2*
X6042030D1*
X5296840Y2923762D2*
X5293946Y2905033D1*
X6045000Y2904998D1*
X6045002Y3341532D1*
X6034126Y3351251D1*
X6027069Y3358885D1*
X6020632Y3367049D1*
X6014856Y3375694D1*
X6009776Y3384764D1*
X6005424Y3394206D1*
X6001825Y3403960D1*
X5999003Y3413966D1*
X5996975Y3424162D1*
X5995753Y3434487D1*
X5995345Y3444875D1*
X5995753Y3455263D1*
X5996975Y3465588D1*
X5999003Y3475784D1*
X6001825Y3485790D1*
X6005424Y3495544D1*
X6009776Y3504986D1*
X6014856Y3514056D1*
X6020632Y3522701D1*
X6027069Y3530865D1*
X6034126Y3538499D1*
X6044981Y3548096D1*
X6045002Y3935021D1*
X5185000Y3935002D1*
X5184998Y3065040D1*
X5195753Y3062897D1*
X5205759Y3060075D1*
X5215512Y3056476D1*
X5224954Y3052124D1*
X5234025Y3047044D1*
X5242669Y3041268D1*
X5250833Y3034831D1*
X5258468Y3027774D1*
X5265525Y3020140D1*
X5271961Y3011976D1*
X5277737Y3003331D1*
X5282817Y2994261D1*
X5287169Y2984819D1*
X5290768Y2975065D1*
X5293590Y2965059D1*
X5295618Y2954863D1*
X5296840Y2944538D1*
X5297248Y2934150D1*
X5296840Y2923762D1*
X1538027Y6365338D2*
X1824671D1*
X2095309D2*
X2781987D1*
X1538027Y6335675D2*
X1829124D1*
X2090856D2*
X2781987D1*
X1538027Y6306012D2*
X1841076D1*
X2078905D2*
X2781987D1*
X1538027Y6276348D2*
X1863397D1*
X2056583D2*
X2780932D1*
X1538027Y6246685D2*
X1908802D1*
X2011236D2*
X2771851D1*
X1538027Y6217022D2*
X2769859D1*
X1538027Y6187358D2*
X2774605D1*
X1538027Y6157695D2*
X2781987D1*
X1538027Y6128032D2*
X2781987D1*
X1538027Y6098368D2*
X2781987D1*
X1538027Y6068705D2*
X2781987D1*
X1538027Y6039042D2*
X2781987D1*
X1538027Y6009378D2*
X2781987D1*
X1538027Y5979715D2*
X2781987D1*
X1538027Y5950052D2*
X2781987D1*
X1538027Y5920388D2*
X2781987D1*
X1538027Y5890725D2*
X2781987D1*
X1538027Y5861062D2*
X2781987D1*
X1538027Y5831398D2*
X2781987D1*
X1538027Y5801735D2*
X2781987D1*
X1538027Y5772072D2*
X2781987D1*
X1538027Y5742408D2*
X2781987D1*
X1538027Y5712745D2*
X2781987D1*
X1538027Y5683082D2*
X2781987D1*
X1538027Y5653418D2*
X2774077D1*
X1538027Y5623755D2*
X2769801D1*
X1538027Y5594092D2*
X2772203D1*
X1538027Y5564428D2*
X2781811D1*
X1538027Y5534765D2*
X2781987D1*
X1538027Y5505102D2*
X2781987D1*
X1538027Y5475438D2*
X2684615D1*
X2091997Y6359612D2*
X2090775Y6349287D1*
X2088747Y6339091D1*
X2085925Y6329085D1*
X2082326Y6319331D1*
X2077974Y6309889D1*
X2072894Y6300819D1*
X2067118Y6292174D1*
X2060681Y6284010D1*
X2053624Y6276376D1*
X2045990Y6269319D1*
X2037826Y6262882D1*
X2029181Y6257106D1*
X2020111Y6252026D1*
X2010669Y6247674D1*
X2000915Y6244075D1*
X1990909Y6241253D1*
X1980713Y6239225D1*
X1970388Y6238003D1*
X1960000Y6237595D1*
X1949612Y6238003D1*
X1939287Y6239225D1*
X1929091Y6241253D1*
X1919085Y6244075D1*
X1909331Y6247674D1*
X1899889Y6252026D1*
X1890819Y6257106D1*
X1882174Y6262882D1*
X1874010Y6269319D1*
X1866376Y6276376D1*
X1859319Y6284010D1*
X1852882Y6292174D1*
X1847106Y6300819D1*
X1842026Y6309889D1*
X1837674Y6319331D1*
X1834075Y6329085D1*
X1831253Y6339091D1*
X1829225Y6349287D1*
X1828003Y6359612D1*
X1827595Y6370000D1*
X1828003Y6380388D1*
X1830073Y6394975D1*
X1535043Y6395002D1*
X1534998Y5475006D1*
X2686296Y5474998D1*
X2699091Y5478747D1*
X2709287Y5480775D1*
X2719612Y5481997D1*
X2730000Y5482405D1*
X2740388Y5481997D1*
X2750713Y5480775D1*
X2760909Y5478747D1*
X2773392Y5475011D1*
X2784957Y5474998D1*
X2785002Y5564110D1*
X2779199Y5578835D1*
X2776377Y5588841D1*
X2774349Y5599037D1*
X2773127Y5609362D1*
X2772718Y5619750D1*
X2773127Y5630138D1*
X2774349Y5640463D1*
X2776377Y5650659D1*
X2779199Y5660665D1*
X2784990Y5675177D1*
X2785002Y6167324D1*
X2779199Y6182085D1*
X2776377Y6192091D1*
X2774349Y6202287D1*
X2773127Y6212612D1*
X2772718Y6223000D1*
X2773127Y6233388D1*
X2774349Y6243713D1*
X2776377Y6253909D1*
X2779199Y6263915D1*
X2784990Y6278427D1*
X2785002Y6394994D1*
X2089981Y6395002D1*
X2091997Y6380388D1*
X2092405Y6370000D1*
X2091997Y6359612D1*
X4128027Y6545338D2*
X5262018D1*
X4128027Y6515675D2*
X5262018D1*
X4128027Y6486012D2*
X5262018D1*
X4128027Y6456348D2*
X5262018D1*
X4128027Y6426685D2*
X5262018D1*
X4128027Y6397022D2*
X5262018D1*
X4128027Y6367358D2*
X5262018D1*
X4128027Y6337695D2*
X5262018D1*
X4128027Y6308032D2*
X5262018D1*
X4128027Y6278368D2*
X5262018D1*
X4128027Y6248705D2*
X5262018D1*
X4128027Y6219042D2*
X5262018D1*
X4128027Y6189378D2*
X5262018D1*
X4128027Y6159715D2*
X5262018D1*
X4128027Y6130052D2*
X5262018D1*
X4128027Y6100388D2*
X5262018D1*
X4128027Y6070725D2*
X5262018D1*
X4128027Y6041062D2*
X5262018D1*
X4128027Y6011398D2*
X5262018D1*
X4128027Y5981735D2*
X5262018D1*
X4128027Y5952072D2*
X5262018D1*
X4128027Y5922408D2*
X5262018D1*
X4128027Y5892745D2*
X5262018D1*
X4128027Y5863082D2*
X5262018D1*
X4128027Y5833418D2*
X5262018D1*
X4128027Y5803755D2*
X5262018D1*
X4128027Y5774092D2*
X5262018D1*
X4128027Y5744428D2*
X5262018D1*
X4128027Y5714765D2*
X5262018D1*
X4128027Y5685102D2*
X5262018D1*
X4128027Y5655438D2*
X5262018D1*
X4128027Y5625775D2*
X4532783D1*
X4667264D2*
X5262018D1*
X4128027Y5596112D2*
X4496400D1*
X4703588D2*
X5262018D1*
X4128027Y5566448D2*
X4477242D1*
X4722746D2*
X5262018D1*
X4128027Y5536785D2*
X4467341D1*
X4732648D2*
X5262018D1*
X4128027Y5507122D2*
X4239964D1*
X4320018D2*
X4464646D1*
X4735401D2*
X5262018D1*
X4236608Y5505011D2*
X4249091Y5508747D1*
X4259287Y5510775D1*
X4269612Y5511997D1*
X4280000Y5512405D1*
X4290388Y5511997D1*
X4300713Y5510775D1*
X4310909Y5508747D1*
X4323392Y5505011D1*
X4467675Y5504998D1*
X4468003Y5520388D1*
X4469225Y5530713D1*
X4471253Y5540909D1*
X4474075Y5550915D1*
X4477674Y5560669D1*
X4482026Y5570111D1*
X4487106Y5579181D1*
X4492882Y5587826D1*
X4499319Y5595990D1*
X4506376Y5603624D1*
X4514010Y5610681D1*
X4522174Y5617118D1*
X4530819Y5622894D1*
X4539889Y5627974D1*
X4549331Y5632326D1*
X4559085Y5635925D1*
X4569091Y5638747D1*
X4579287Y5640775D1*
X4589612Y5641997D1*
X4600000Y5642405D1*
X4610388Y5641997D1*
X4620713Y5640775D1*
X4630909Y5638747D1*
X4640915Y5635925D1*
X4650669Y5632326D1*
X4660111Y5627974D1*
X4669181Y5622894D1*
X4677826Y5617118D1*
X4685990Y5610681D1*
X4693624Y5603624D1*
X4700681Y5595990D1*
X4707118Y5587826D1*
X4712894Y5579181D1*
X4717974Y5570111D1*
X4722326Y5560669D1*
X4725925Y5550915D1*
X4728747Y5540909D1*
X4730775Y5530713D1*
X4731997Y5520388D1*
X4732209Y5505009D1*
X5265047Y5504998D1*
X5265002Y6574977D1*
X4124953Y6575002D1*
X4124998Y5505020D1*
X4236373Y5504998D1*
D32*
X4360000Y-1055873D3*
D33*
X4010000D3*
D34*
X510000Y130000D3*
X764000D3*
X1018000D3*
X1272000D3*
X1526000D3*
X1780000D3*
X2034000D3*
X2288000D3*
X2542000D3*
X2796000D3*
X3050000D3*
X3304000D3*
X3558000D3*
X3812000D3*
X4066000D3*
X4320000D3*
X4574000D3*
X4828000D3*
X5082000D3*
X5336000D3*
X5590000D3*
X5844000D3*
X6098000D3*
Y-124000D3*
X5844000D3*
X5590000D3*
X5336000D3*
X5082000D3*
X4828000D3*
X4574000D3*
X4320000D3*
X4066000D3*
X3812000D3*
X3558000D3*
X3304000D3*
X3050000D3*
X2796000D3*
X2542000D3*
X2288000D3*
X2034000D3*
X1780000D3*
X1526000D3*
X1272000D3*
X1018000D3*
X764000D3*
D35*
X510000D3*
D36*
X333377Y5699127D3*
D32*
X6772377Y1260000D3*
D33*
Y910000D3*
D36*
X2143123Y-777873D3*
X-810000Y-570000D3*
Y-1080000D3*
D32*
X6772377Y3820000D3*
D33*
Y3470000D3*
D32*
X1520000Y-1055873D3*
X1170000D3*
X820000D3*
D33*
X470000D3*
D32*
X6772377Y2540000D3*
D33*
Y2190000D3*
D34*
X510000Y4950000D3*
X764000D3*
X1018000D3*
X1272000D3*
X1526000D3*
X1780000D3*
X2034000D3*
X2288000D3*
X2542000D3*
X2796000D3*
X3050000D3*
X3304000D3*
X3558000D3*
X3812000D3*
X4066000D3*
X4320000D3*
X4574000D3*
X4828000D3*
X5082000D3*
X5336000D3*
X5590000D3*
X5844000D3*
X6098000D3*
Y4696000D3*
X5844000D3*
X5590000D3*
X5336000D3*
X5082000D3*
X4828000D3*
X4574000D3*
X4320000D3*
X4066000D3*
X3812000D3*
X3558000D3*
X3304000D3*
X3050000D3*
X2796000D3*
X2542000D3*
X2288000D3*
X2034000D3*
X1780000D3*
X1526000D3*
X1272000D3*
X1018000D3*
X764000D3*
D35*
X510000D3*
D32*
X2650000Y-1055873D3*
D33*
X2300000D3*
D32*
X6540000D3*
D33*
X6190000D3*
D36*
X-820000Y-1660000D3*
X5414253Y2203087D3*
D32*
X1170000Y2214127D3*
Y2564127D3*
Y2914127D3*
D33*
Y3264127D3*
D32*
X5580000Y6005000D3*
D33*
X5930000D3*
D32*
X750000D3*
D33*
X1100000D3*
D32*
X3215000D3*
D33*
X3565000D3*
M02*
