G04 DipTrace 3.3.1.3*
G04 Powerboardv05.gts*
%MOMM*%
G04 #@! TF.FileFunction,Soldermask,Top*
G04 #@! TF.Part,Single*
%ADD30R,0.8X0.8*%
%ADD38R,1.6X1.8*%
%ADD43R,1.8X1.6*%
%ADD46R,1.2X0.55*%
%ADD58C,4.0*%
%ADD66R,2.60015X3.60015*%
%ADD68R,3.60015X2.60015*%
%ADD70O,1.05015X0.50015*%
%ADD72O,0.50015X1.05015*%
%ADD74R,0.90015X1.10015*%
%ADD76R,1.30015X0.80015*%
%ADD78R,1.50015X1.80015*%
%ADD80R,2.20015X1.80015*%
%ADD84R,1.10015X0.90015*%
%ADD88R,1.20015X1.00015*%
%ADD90R,1.20015X0.80015*%
%ADD92R,1.30015X1.20015*%
%ADD94R,1.20015X1.30015*%
%ADD98C,2.20015*%
%ADD100R,1.90015X2.20015*%
%ADD102O,1.90015X2.20015*%
%ADD104R,2.70015X2.70015*%
%ADD106C,2.70015*%
%ADD108R,3.35015X1.98015*%
%ADD112R,1.50015X1.60015*%
%ADD114R,4.40015X2.10015*%
%FSLAX35Y35*%
G04*
G71*
G90*
G75*
G01*
G04 TopMask*
%LPD*%
D114*
X1020000Y820000D3*
X320000D3*
D112*
X-200000Y-750000D3*
X90000D3*
D30*
X3050000Y-1710000D3*
Y-1560000D3*
X6930000Y-1650000D3*
Y-1800000D3*
X7345750Y487750D3*
X7195750D3*
X7068750Y4481127D3*
X7218750D3*
D108*
X-180000Y-1560000D3*
Y-1040000D3*
D106*
X4360000Y-1055873D3*
D104*
X4010000D3*
D102*
X510000Y130000D3*
X764000D3*
X1018000D3*
X1272000D3*
X1526000D3*
X1780000D3*
X2034000D3*
X2288000D3*
X2542000D3*
X2796000D3*
X3050000D3*
X3304000D3*
X3558000D3*
X3812000D3*
X4066000D3*
X4320000D3*
X4574000D3*
X4828000D3*
X5082000D3*
X5336000D3*
X5590000D3*
X5844000D3*
X6098000D3*
Y-124000D3*
X5844000D3*
X5590000D3*
X5336000D3*
X5082000D3*
X4828000D3*
X4574000D3*
X4320000D3*
X4066000D3*
X3812000D3*
X3558000D3*
X3304000D3*
X3050000D3*
X2796000D3*
X2542000D3*
X2288000D3*
X2034000D3*
X1780000D3*
X1526000D3*
X1272000D3*
X1018000D3*
X764000D3*
D100*
X510000D3*
D98*
X333377Y5699127D3*
D106*
X6772377Y1260000D3*
D104*
Y910000D3*
D98*
X2143123Y-777873D3*
X-810000Y-570000D3*
Y-1080000D3*
D106*
X6772377Y3820000D3*
D104*
Y3470000D3*
D106*
X1520000Y-1055873D3*
X1170000D3*
X820000D3*
D104*
X470000D3*
D106*
X6772377Y2540000D3*
D104*
Y2190000D3*
D102*
X510000Y4950000D3*
X764000D3*
X1018000D3*
X1272000D3*
X1526000D3*
X1780000D3*
X2034000D3*
X2288000D3*
X2542000D3*
X2796000D3*
X3050000D3*
X3304000D3*
X3558000D3*
X3812000D3*
X4066000D3*
X4320000D3*
X4574000D3*
X4828000D3*
X5082000D3*
X5336000D3*
X5590000D3*
X5844000D3*
X6098000D3*
Y4696000D3*
X5844000D3*
X5590000D3*
X5336000D3*
X5082000D3*
X4828000D3*
X4574000D3*
X4320000D3*
X4066000D3*
X3812000D3*
X3558000D3*
X3304000D3*
X3050000D3*
X2796000D3*
X2542000D3*
X2288000D3*
X2034000D3*
X1780000D3*
X1526000D3*
X1272000D3*
X1018000D3*
X764000D3*
D100*
X510000D3*
D106*
X2650000Y-1055873D3*
D104*
X2300000D3*
D106*
X6540000D3*
D104*
X6190000D3*
D98*
X-820000Y-1660000D3*
X5414253Y2203087D3*
D106*
X1170000Y2214127D3*
Y2564127D3*
Y2914127D3*
D104*
Y3264127D3*
D38*
X3556000Y492127D3*
X3276000D3*
D108*
X2555877Y1698627D3*
Y1178627D3*
D30*
X6380000Y6450000D3*
Y6600000D3*
D108*
X2143127Y1920877D3*
Y1400877D3*
D94*
X6930000Y-1290000D3*
Y-1460000D3*
X3330000Y-1420000D3*
Y-1590000D3*
D92*
X7169873Y243750D3*
X7339873D3*
X7223123Y4730750D3*
X7053123D3*
D90*
X-719377Y300000D3*
X-1159377D3*
Y-70000D3*
X-719377D3*
D88*
X-939377Y375000D3*
Y-145000D3*
D90*
X-716813Y1355000D3*
X-1156813D3*
Y985000D3*
X-716813D3*
D88*
X-936813Y1430000D3*
Y910000D3*
D38*
X2603500Y-762000D3*
X2323500D3*
D30*
X330000Y6540000D3*
Y6390000D3*
D106*
X5580000Y6005000D3*
D104*
X5930000D3*
D106*
X750000D3*
D104*
X1100000D3*
D106*
X3215000D3*
D104*
X3565000D3*
D38*
X6559250Y-844250D3*
X6839250D3*
D94*
X6375000Y5945000D3*
Y6115000D3*
X63500Y6365877D3*
Y6535877D3*
D43*
X6477000Y1206500D3*
Y926500D3*
D38*
X6911373Y4206877D3*
X7191373D3*
X5588000Y5746750D3*
X5868000D3*
X835623Y5715000D3*
X555623D3*
D43*
X4791373Y-1431623D3*
Y-1711623D3*
D38*
X6746873Y2905127D3*
X7026873D3*
X3206750Y5746750D3*
X3486750D3*
D84*
X5208500Y395377D3*
X5078500D3*
D46*
X4127500Y587377D3*
Y492377D3*
Y397377D3*
X4387520D3*
Y587377D3*
X4889500Y397377D3*
Y492377D3*
Y587377D3*
X4629480D3*
Y397377D3*
D80*
X3048000Y1111250D3*
D78*
X3171900Y821250D3*
X2923000D3*
D92*
X3079750Y1381127D3*
X2909750D3*
D94*
X4111627Y932000D3*
Y762000D3*
D76*
X3857623Y825500D3*
Y920500D3*
Y1015500D3*
X3587623D3*
Y825500D3*
D74*
X3413123Y1143000D3*
Y1013000D3*
X4180000Y-850000D3*
Y-720000D3*
D84*
X3610000Y-370000D3*
X3480000D3*
X3765000Y-725001D3*
X3895000D3*
X3710000Y-590001D3*
X3840000D3*
D74*
X2949999Y-370000D3*
Y-500000D3*
X3164999Y-305000D3*
Y-435000D3*
D84*
X3640000Y-480001D3*
X3770000D3*
D72*
X3160000Y-1004053D3*
X3210000D3*
X3260000D3*
X3310000D3*
X3360000D3*
X3410000D3*
X3460000D3*
D70*
X3555000Y-909053D3*
Y-859053D3*
Y-809053D3*
Y-759053D3*
Y-709053D3*
D72*
X3460000Y-614053D3*
X3410000D3*
X3360000D3*
X3310000D3*
X3260000D3*
X3210000D3*
X3160000D3*
D70*
X3065000Y-709053D3*
Y-759053D3*
Y-809053D3*
Y-859053D3*
Y-909053D3*
D68*
X3310000Y-809053D3*
D74*
X4570000Y-780000D3*
Y-650000D3*
D84*
X5225000Y-1205000D3*
X5095000D3*
D74*
X4710001Y-940000D3*
Y-810000D3*
X4800001Y-1130000D3*
Y-1000000D3*
D84*
X5650000Y-1089999D3*
X5520000D3*
X5490000Y-1189999D3*
X5360000D3*
X4935000Y-1244999D3*
X4805000D3*
D72*
X5330000Y-675947D3*
X5280000D3*
X5230000D3*
X5180000D3*
X5130000D3*
X5080000D3*
X5030000D3*
D70*
X4935000Y-770947D3*
Y-820947D3*
Y-870947D3*
Y-920947D3*
Y-970947D3*
D72*
X5030000Y-1065947D3*
X5080000D3*
X5130000D3*
X5180000D3*
X5230000D3*
X5280000D3*
X5330000D3*
D70*
X5425000Y-970947D3*
Y-920947D3*
Y-870947D3*
Y-820947D3*
Y-770947D3*
D68*
X5180000Y-870947D3*
D84*
X5763830Y2158617D3*
X5633830D3*
D74*
X5260000Y1390000D3*
Y1520000D3*
D84*
X5570000Y2009999D3*
X5700000D3*
D74*
X5390001Y1820000D3*
Y1950000D3*
X5340001Y1040000D3*
Y1170000D3*
X5220001Y1080000D3*
Y1210000D3*
D84*
X5170000Y1699999D3*
X5300000D3*
D70*
X5820000Y1270000D3*
Y1320000D3*
Y1370000D3*
Y1420000D3*
Y1470000D3*
Y1520000D3*
Y1570000D3*
D72*
X5725000Y1665000D3*
X5675000D3*
X5625000D3*
X5575000D3*
X5525000D3*
D70*
X5430000Y1570000D3*
Y1520000D3*
Y1470000D3*
Y1420000D3*
Y1370000D3*
Y1320000D3*
Y1270000D3*
D72*
X5525000Y1175000D3*
X5575000D3*
X5625000D3*
X5675000D3*
X5725000D3*
D66*
X5625000Y1420000D3*
D84*
X5356703Y3045267D3*
X5226703D3*
D74*
X5900743Y3468723D3*
Y3338723D3*
D84*
X5647253Y2994414D3*
X5517253D3*
X5875687Y3058167D3*
X5745687D3*
X5886363Y3729534D3*
X5756363D3*
X5996100Y3590814D3*
X5866100D3*
X6000607Y3200437D3*
X5870607D3*
D70*
X5335000Y3585000D3*
Y3535000D3*
Y3485000D3*
Y3435000D3*
Y3385000D3*
Y3335000D3*
Y3285000D3*
D72*
X5430000Y3190000D3*
X5480000D3*
X5530000D3*
X5580000D3*
X5630000D3*
D70*
X5725000Y3285000D3*
Y3335000D3*
Y3385000D3*
Y3435000D3*
Y3485000D3*
Y3535000D3*
Y3585000D3*
D72*
X5630000Y3680000D3*
X5580000D3*
X5530000D3*
X5480000D3*
X5430000D3*
D66*
X5530000Y3435000D3*
D74*
X2740000Y5690000D3*
Y5560000D3*
X4400000Y5410000D3*
Y5540000D3*
X4095751Y5842000D3*
Y5972000D3*
D84*
X4175000Y5665001D3*
X4045000D3*
X5030000Y5700001D3*
X4900000D3*
X4885000Y5545001D3*
X4755000D3*
X4270000Y5540001D3*
X4140000D3*
D72*
X4700000Y6100000D3*
X4650000D3*
X4600000D3*
X4550000D3*
X4500000D3*
X4450000D3*
X4400000D3*
D70*
X4305000Y6005000D3*
Y5955000D3*
Y5905000D3*
Y5855000D3*
Y5805000D3*
D72*
X4400000Y5710000D3*
X4450000D3*
X4500000D3*
X4550000D3*
X4600000D3*
X4650000D3*
X4700000D3*
D70*
X4795000Y5805000D3*
Y5855000D3*
Y5905000D3*
Y5955000D3*
Y6005000D3*
D68*
X4550000Y5905000D3*
D74*
X3980000Y6110000D3*
Y5980000D3*
X2120000Y6390000D3*
Y6260000D3*
X2439999Y5960000D3*
Y5830000D3*
D84*
X2390000Y6089999D3*
X2520000D3*
D74*
X1614999Y6235000D3*
Y6105000D3*
X1749999Y6380000D3*
Y6250000D3*
D84*
X2265000Y6244999D3*
X2395000D3*
D72*
X1865000Y5735000D3*
X1915000D3*
X1965000D3*
X2015000D3*
X2065000D3*
X2115000D3*
X2165000D3*
D70*
X2260000Y5830000D3*
Y5880000D3*
Y5930000D3*
Y5980000D3*
Y6030000D3*
D72*
X2165000Y6125000D3*
X2115000D3*
X2065000D3*
X2015000D3*
X1965000D3*
X1915000D3*
X1865000D3*
D70*
X1770000Y6030000D3*
Y5980000D3*
Y5930000D3*
Y5880000D3*
Y5830000D3*
D68*
X2015000Y5930000D3*
D58*
X0Y4826000D3*
X6604000Y4508500D3*
Y317500D3*
X0Y0D3*
M02*
