G04 DipTrace 3.3.1.3*
G04 Powerboardv05.gtl*
%MOMM*%
G04 #@! TF.FileFunction,Copper,L1,Top*
G04 #@! TF.Part,Single*
G04 #@! TA.AperFunction,Conductor*
%ADD14C,0.254*%
%ADD15C,1.016*%
%ADD16C,0.3048*%
%ADD17C,0.635*%
%ADD18C,0.381*%
%ADD19C,0.55*%
G04 #@! TA.AperFunction,CopperBalancing*
%ADD20C,0.3*%
G04 #@! TA.AperFunction,Conductor*
%ADD21C,0.508*%
%ADD22C,0.7*%
G04 #@! TA.AperFunction,ViaPad*
%ADD23C,0.762*%
%ADD24C,1.524*%
G04 #@! TA.AperFunction,Conductor*
%ADD25C,0.2032*%
%ADD28R,4.2X1.9*%
%ADD29R,1.3X1.4*%
%ADD30R,0.8X0.8*%
%ADD31R,3.15X1.78*%
G04 #@! TA.AperFunction,ComponentPad*
%ADD32C,2.5*%
%ADD33R,2.5X2.5*%
%ADD34O,1.7X2.0*%
%ADD35R,1.7X2.0*%
%ADD36C,2.0*%
%ADD38R,1.6X1.8*%
%ADD39R,1.0X1.1*%
%ADD40R,1.1X1.0*%
%ADD41R,1.0X0.6*%
%ADD42R,1.0X0.8*%
%ADD43R,1.8X1.6*%
%ADD44R,0.9X0.7*%
%ADD46R,1.2X0.55*%
%ADD47R,2.0X1.6*%
%ADD48R,1.3X1.6*%
%ADD50R,1.1X0.6*%
%ADD51R,0.7X0.9*%
%ADD53O,0.3X0.85*%
%ADD54O,0.85X0.3*%
%ADD55R,3.4X2.4*%
%ADD57R,2.4X3.4*%
%FSLAX35Y35*%
G04*
G71*
G90*
G75*
G01*
G04 Top*
%LPD*%
X4127500Y587377D2*
D14*
X4191000D1*
X4381500Y396877D1*
X4387020D1*
X4387520Y397377D1*
X4413753D1*
X4508500Y492123D1*
Y635000D1*
X4572000Y698500D1*
X4667250D1*
X4730750Y635000D1*
Y555627D1*
X4794250Y492127D1*
X4889250D1*
X4889500Y492377D1*
X764000Y-124000D2*
D15*
X754000Y-134000D1*
D16*
Y-236000D1*
X630000Y-360000D1*
X-550000D1*
X-760000Y-570000D1*
X-810000D1*
X764000Y130000D2*
D15*
Y-124000D1*
X-200000Y-750000D2*
D17*
Y-1020000D1*
X-180000Y-1040000D1*
X1018000Y-124000D2*
D15*
Y-132000D1*
X670000Y-480000D1*
X-100000D1*
X-180000Y-560000D1*
Y-730000D1*
X-200000Y-750000D1*
X-810000Y-1080000D2*
D16*
X-220000D1*
X-180000Y-1040000D1*
X1018000Y-124000D2*
Y130000D1*
D15*
Y818000D1*
X1020000Y820000D1*
X3508373Y635000D2*
D18*
Y539753D1*
Y476250D1*
X3587623D1*
Y825500D1*
X3556000Y492127D2*
D15*
X4016450D1*
X4016700Y492377D1*
D19*
X4127500D1*
X3508373Y539753D2*
D15*
X3556000Y492127D1*
X4629480Y587377D2*
D16*
Y561643D1*
X4793747Y397377D1*
X4889500D1*
Y191500D1*
X4828000Y130000D1*
X5078500Y395377D2*
X4891500D1*
X4889500Y397377D1*
X4127500D2*
D14*
Y322500D1*
X4320000Y130000D1*
X-1156813Y985000D2*
X-716813D1*
X-936813Y1430000D2*
Y1270000D1*
X-716813D1*
Y985000D1*
X-719377Y-70000D2*
X-1159377D1*
X320000Y820000D2*
D18*
Y666750D1*
X111123D1*
X-939377Y375000D2*
Y150000D1*
X-719377Y-70000D1*
X90000Y-750000D2*
D15*
X250000D1*
X3260000Y-614053D2*
D20*
Y-510000D1*
D18*
X3300000Y-470000D1*
Y-430000D1*
X6930000Y-1290000D2*
Y-1140000D1*
X6940000Y-1130000D1*
X3610000Y-370000D2*
Y-360000D1*
X3700000D1*
X3740000Y-320000D1*
X3850000D1*
X5225000Y-1205000D2*
Y-1185000D1*
X5230000Y-1180000D1*
D20*
Y-1065947D1*
X5225000Y-1205000D2*
D18*
Y-1265000D1*
X5300000Y-1340000D1*
X4365623Y-793750D2*
Y-775623D1*
X4310000Y-720000D1*
X4180000D1*
X4570000Y-650000D2*
X4509373D1*
X4365623Y-793750D1*
X7169873Y243750D2*
Y333377D1*
X7080250D1*
X5260000Y1390000D2*
D14*
Y1370000D1*
X5430000D1*
X5633830Y2158617D2*
X5458723D1*
X5414253Y2203087D1*
X5052800Y1379433D2*
X5249433D1*
X5260000Y1390000D1*
X5226703Y3045267D2*
Y2996010D1*
X5164843Y2934150D1*
X5725000Y3485000D2*
X5884467D1*
X5900743Y3468723D1*
X6103902D1*
X6127750Y3444875D1*
X6375000Y5945000D2*
D18*
X5990000D1*
X5930000Y6005000D1*
X7223123Y4730750D2*
X7223330D1*
X63500Y6365877D2*
X-79377D1*
Y6350000D1*
X1960000Y6370000D2*
D14*
X1970000D1*
Y6181550D1*
X1965000Y6186550D1*
Y6125000D1*
X2120000Y6390000D2*
X1960000D1*
Y6370000D1*
X2740000Y5560000D2*
D21*
X2730000D1*
Y5350000D1*
X3980000Y5980000D2*
D22*
Y5970000D1*
D15*
X3890000Y5880000D1*
X4400000Y5410000D2*
D14*
X4310000D1*
X4280000Y5380000D1*
X4600000Y5710000D2*
Y5510000D1*
X-1156813Y985000D2*
Y537687D1*
X-1063627Y444500D1*
X-1008877D1*
X-939377Y375000D1*
X3330000Y-1420000D2*
X3467873D1*
X3444873Y-1397000D1*
X2323500Y-762000D2*
X2143123D1*
Y-777873D1*
X2323500Y-762000D2*
D23*
X2143123D1*
Y-777873D1*
X4791373Y-1711623D2*
D15*
X5013623D1*
X6839250Y-844250D2*
Y-841373D1*
X7016747D1*
X6477000Y926500D2*
Y777877D1*
X7026873Y2905127D2*
X7016750Y2698750D1*
X7191373Y4206877D2*
X7350123D1*
X3486750Y5746750D2*
Y5926750D1*
X3565000Y6005000D1*
X5930000D2*
Y5808750D1*
X5868000Y5746750D1*
X333377Y5699127D2*
X539750D1*
X555623Y5715000D1*
X7026873Y2905127D2*
Y2444497D1*
X6772377Y2190000D1*
X6477000Y926500D2*
X6755877D1*
X6772377Y910000D1*
X2323500Y-762000D2*
Y-1032373D1*
X2300000Y-1055873D1*
X3857623Y920500D2*
D18*
X3714750D1*
Y920750D1*
X3857623Y920500D2*
X4100127D1*
X4111627Y932000D1*
X4629480Y397377D2*
Y185480D1*
X4574000Y130000D1*
X3276000Y492127D2*
X3238500D1*
Y539747D1*
X3381373Y396873D1*
Y333377D1*
X4387520Y587377D2*
X4365623D1*
Y682627D1*
X4381500D1*
X5208500Y395377D2*
X5318123D1*
Y476250D1*
X3050000Y-1710000D2*
X3210000D1*
X3330000Y-1590000D1*
X6930000Y-1650000D2*
Y-1460000D1*
X3555000Y-859053D2*
D20*
Y-909053D1*
D23*
X3649053D1*
D15*
X3750000Y-1010000D1*
Y-1150000D1*
X3900000Y-1300000D1*
X4200000D1*
X4360000Y-1140000D1*
Y-1055873D1*
X3895000Y-725000D2*
D18*
X4045000D1*
X4160000Y-840000D1*
Y-855873D1*
X4360000Y-1055873D1*
X4935000Y-770947D2*
X4920000D1*
D15*
X4710000D1*
X4644927D1*
X4360000Y-1055873D1*
X4935000Y-820947D2*
D20*
Y-770947D1*
X4710000Y-810000D2*
D18*
Y-770947D1*
X4180000Y-850000D2*
X4160000Y-840000D1*
X4570000Y-780000D2*
X4572217D1*
X4581270Y-770947D1*
D15*
X4644927D1*
X4360000Y-1055873D2*
D23*
X4349750D1*
D15*
Y-1158877D1*
X4619623Y-1428750D1*
X4788500D1*
X4791373Y-1431623D1*
X7345750Y487750D2*
D18*
Y243750D1*
X7339873D1*
X7053123Y4730750D2*
Y4496753D1*
X7068750Y4481127D1*
X6375000Y6115000D2*
Y6445000D1*
X6380000Y6450000D1*
X330000Y6540000D2*
Y6535877D1*
X63500D1*
X1170000Y2214127D2*
D15*
X1341873D1*
X1889123Y1666877D1*
X2635250D1*
X2603500Y1698627D1*
X2555873D1*
X1170000Y2564127D2*
X1499877D1*
X2143127Y1920877D1*
X6380000Y6600000D2*
D18*
Y6572250D1*
X6147250D1*
X5580000Y6005000D1*
D14*
X5570000D1*
D15*
Y5990000D1*
X4890000D1*
X4875000Y6005000D1*
X4855227D1*
D20*
X4795000D1*
Y5955000D1*
X5580000Y6005000D2*
D15*
Y5754750D1*
X5588000Y5746750D1*
X330000Y6390000D2*
D18*
X341000D1*
X660000Y6071000D1*
X684000D1*
X750000Y6005000D1*
X1770000Y5880000D2*
D20*
Y5830000D1*
X835623Y5715000D2*
D15*
Y5919377D1*
X750000Y6005000D1*
X1770000Y5830000D2*
D18*
X1400873D1*
X1206500Y5635627D1*
X914997D1*
X835623Y5715000D1*
X952500D1*
D24*
X1016000Y5651500D1*
X2555873Y1178627D2*
D18*
X2707247D1*
X2909750Y1381127D1*
X3171900Y821250D2*
Y987350D1*
X3048000Y1111250D1*
X3079750Y1381127D2*
X3174997D1*
X3413123Y1143000D1*
X3079750Y1381127D2*
Y1143000D1*
X3048000Y1111250D1*
X3413123Y1143000D2*
X3492500Y1222377D1*
X3650747D1*
X3857623Y1015500D1*
X1170000Y-1055873D2*
D15*
Y-1090000D1*
X700000Y-1560000D1*
X-180000D1*
X6772377Y2540000D2*
D18*
X6750000D1*
D24*
X6235210D1*
X5826837D1*
X5441037Y2925800D1*
D15*
Y3014733D1*
Y3143633D1*
D20*
X5453753Y3156350D1*
X5430000D1*
Y3190000D1*
X5675000Y1665000D2*
X5725000D1*
X5730000Y1670000D1*
D14*
Y2034790D1*
D24*
X5819840Y2124630D1*
X6235210Y2540000D1*
X5763830Y2158617D2*
D14*
X5785853D1*
X5819840Y2124630D1*
X5700000Y2010000D2*
X5705210D1*
X5730000Y2034790D1*
X5356703Y3045267D2*
Y3059300D1*
X5441037Y3143633D1*
X5517253Y2994413D2*
X5461357D1*
X5441037Y3014733D1*
X6746873Y2905127D2*
D15*
Y2565503D1*
X6772377Y2540000D1*
X5430000Y3190000D2*
D20*
X5480000D1*
X2260000Y5852127D2*
Y5880000D1*
X2440000Y5830000D2*
D14*
Y5833120D1*
X2478743Y5794377D1*
X4305000Y5955000D2*
D20*
Y6005000D1*
X3215000D2*
D15*
Y5755000D1*
X3206750Y5746750D1*
X2260000Y5830000D2*
D14*
X2440000D1*
X2600000D1*
X2740000Y5690000D1*
Y5692753D1*
X2873373Y5826127D1*
X3127373D1*
X3206750Y5746750D1*
X4095750Y5972000D2*
D18*
X4252000D1*
X4285000Y6005000D1*
D20*
X4305000D1*
X3215000D2*
D24*
Y6167753D1*
X3349623Y6302377D1*
X3889373D1*
X4000500Y6191250D1*
X3982547D1*
X3980000Y6188703D1*
D22*
Y6110000D1*
X3857623Y825500D2*
D18*
X3889373D1*
X3952873Y762000D1*
X4111627D1*
Y730253D1*
X4191000Y809627D1*
X4667250D1*
X4889500Y587377D1*
X3165000Y-435000D2*
Y-495000D1*
D14*
X3210000Y-540000D1*
D20*
Y-614053D1*
X5430000Y1320000D2*
D14*
X5320000D1*
X5210000Y1210000D1*
X5220000D1*
X4650000Y5710000D2*
Y5640000D1*
X4700000Y5590000D1*
X4710000D1*
X4755000Y5545000D1*
X2950000Y-500000D2*
D18*
X3090000D1*
D14*
X3116477Y-526477D1*
D20*
Y-570530D1*
X3160000Y-614053D1*
X5430000Y1270000D2*
D14*
Y1260000D1*
X5340000Y1170000D1*
X4900000Y5700000D2*
X4710000D1*
X4700000Y5710000D1*
X3555000Y-709053D2*
D20*
X3592577Y-671477D1*
D18*
X3628523D1*
X3710000Y-590000D1*
X3770000Y-480000D2*
Y-490000D1*
X3720000Y-540000D1*
Y-580000D1*
X3710000Y-590000D1*
X5390000Y1820000D2*
Y1800000D1*
X5481477Y1708523D1*
D20*
X5525000Y1665000D1*
X5300000Y1700000D2*
D18*
Y1730000D1*
X5390000Y1820000D1*
X4175000Y5665000D2*
D14*
Y5675000D1*
X4305000Y5805000D1*
X4175000Y5665000D2*
Y5575000D1*
X4140000Y5540000D1*
X3555000Y-809053D2*
D20*
X3620947D1*
D18*
X3680000Y-750000D1*
X3740000D1*
X3765000Y-725000D1*
X3810000Y-680000D1*
Y-590000D1*
X3840000D1*
X5570000Y2010000D2*
Y1810000D1*
X5619750Y1760250D1*
D14*
Y1721300D1*
X5625000Y1726550D1*
D20*
Y1665000D1*
X5390000Y1950000D2*
D18*
X5510000D1*
X5570000Y2010000D1*
X4095750Y5842000D2*
X4138877Y5798877D1*
D14*
X4245000Y5905000D1*
X4305000D1*
X4095750Y5842000D2*
Y5715750D1*
X4045000Y5665000D1*
X4800000Y-1130000D2*
D18*
Y-1240000D1*
X4805000Y-1245000D1*
X4800000Y-1130000D2*
X4830000D1*
X4940000Y-1020000D1*
Y-1009997D1*
X4935000Y-1004997D1*
D20*
Y-970947D1*
X5875687Y3058167D2*
D14*
Y3165433D1*
X5631773D1*
Y3188227D1*
X5630000Y3190000D1*
X5875687Y3058167D2*
Y3195357D1*
X5870607Y3200437D1*
X2395000Y6245000D2*
Y6095000D1*
X2390000Y6090000D1*
X2320000D1*
X2260000Y6030000D1*
X4710000Y-940000D2*
D18*
X4740000D1*
X4800000Y-1000000D1*
X4710000Y-940000D2*
X4760000D1*
X4820000Y-880000D1*
X4864397D1*
X4873450Y-870947D1*
D20*
X4935000D1*
X5647253Y2994413D2*
D14*
Y3011893D1*
X5577277Y3081870D1*
X5557297D1*
X5530047Y3109120D1*
Y3189953D1*
X5530000Y3190000D1*
X5647253Y2994413D2*
X5681933D1*
X5745687Y3058167D1*
X2260000Y5930000D2*
X2410000D1*
X2440000Y5960000D1*
X2520000Y6090000D2*
Y6040000D1*
X2440000Y5960000D1*
X5280000Y-1065947D2*
Y-1120000D1*
X5350000Y-1190000D1*
X5360000D1*
X5725000Y3535000D2*
X5810287D1*
X5866100Y3590813D1*
X1750000Y6250000D2*
D25*
X1870000D1*
X1920000Y6200000D1*
Y6120000D1*
X1915000Y6125000D1*
X5330000Y-1065947D2*
D20*
X5364050D1*
D18*
X5495947D1*
X5520000Y-1090000D1*
X5725000Y3585000D2*
D14*
Y3698170D1*
X5756363Y3729533D1*
X1865000Y6125000D2*
Y6120000D1*
X1840000D1*
X1830000Y6110000D1*
X1620000D1*
X1615000Y6105000D1*
X2650000Y-1055873D2*
D15*
X2630000Y-1075873D1*
D18*
Y-1150000D1*
X3040000Y-1560000D1*
X3050000D1*
X3065000Y-859053D2*
D20*
Y-909053D1*
X3030947D1*
D15*
X2955000Y-985000D1*
X2720873D1*
X2650000Y-1055873D1*
X2603500Y-762000D2*
Y-1009373D1*
D23*
X2650000Y-1055873D1*
X6930000Y-1800000D2*
D21*
X6870000D1*
X6550000Y-1480000D1*
Y-1080000D1*
X6590000D1*
Y-1020000D1*
X6554127Y-1055873D1*
X6540000D1*
X5425000Y-770947D2*
D20*
X5518300D1*
D15*
X6370947D1*
X6510000Y-910000D1*
Y-1025873D1*
X6540000Y-1055873D1*
X6551747D1*
X6559250Y-1063377D1*
Y-844250D1*
X5425000Y-770947D2*
X5512667Y-775703D1*
D20*
X5518300Y-770947D1*
X6772377Y1260000D2*
D18*
X7195750Y836627D1*
Y487750D1*
X5675000Y1175000D2*
D20*
X5725000D1*
X6477000Y1206500D2*
D15*
X6718877D1*
X6772377Y1260000D1*
X6477000Y1206500D2*
D24*
X6365873D1*
X6318250Y1158877D1*
X6223000D1*
X6772377Y3820000D2*
D18*
Y4034753D1*
X7218750Y4481127D1*
X5430000Y3680000D2*
D16*
Y3826623D1*
D24*
X5508627Y3905250D1*
X6687127D1*
D15*
X6772377Y3820000D1*
Y4067880D1*
X6911373Y4206877D1*
X2120000Y6260000D2*
D25*
X2111373D1*
Y6121373D1*
X2115000Y6125000D1*
X4574000Y4696000D2*
D14*
X4440000Y4830000D1*
Y5100000D1*
X4390000Y5150000D1*
X3374873D1*
X2905123Y5619750D1*
Y6223000D2*
X2910000D1*
Y6400000D1*
X2760000Y6550000D1*
X2360000D1*
X2190000Y6380000D1*
Y6330000D1*
X2120000Y6260000D1*
X4400000Y5540000D2*
X4450000D1*
Y5710000D1*
X4400000Y5540000D2*
D18*
X4413625D1*
X4476750Y5476875D1*
Y5365750D1*
X4699000Y5143500D1*
Y4825000D1*
X4828000Y4696000D1*
X5430000Y1520000D2*
D20*
X5368450D1*
D18*
X5260000D1*
X5336000Y4696000D2*
D14*
Y4685125D1*
X4980000Y4329125D1*
Y1730000D1*
X5167767Y1542233D1*
X5237767D1*
X5260000Y1520000D1*
X5725000Y3335000D2*
X5897020D1*
X5900743Y3338723D1*
D21*
X5991277D1*
X6030000Y3300000D1*
X6260000D1*
X6365873Y3405873D1*
Y3651250D1*
X6350000Y4079873D2*
Y4240000D1*
X6070000Y4520000D1*
Y4668000D1*
X6098000Y4696000D1*
X1170000Y2914127D2*
D18*
X1074127D1*
X950000Y2790000D1*
Y2160000D1*
X1840000Y1270000D1*
Y382500D1*
X2050000Y172500D1*
Y146000D1*
X2034000Y130000D1*
X3480000Y-370000D2*
Y-438450D1*
X3410000Y-508450D1*
D20*
Y-614053D1*
X3812000Y-124000D2*
D18*
X3786000D1*
X3640000Y-270000D1*
X3550000D1*
X3450000Y-370000D1*
X3480000D1*
X5080000Y-1065947D2*
D20*
Y-1127497D1*
D18*
Y-1190000D1*
X5095000Y-1205000D1*
Y-1348500D1*
X5222873Y-1476373D1*
X5461000D1*
X5830000Y-1107377D1*
Y-940000D1*
X5820000Y-930000D1*
X5840000Y-600000D2*
Y-530000D1*
X5630000Y-320000D1*
Y-164000D1*
X5590000Y-124000D1*
X2143127Y1400877D2*
Y1206500D1*
X2508250Y841377D1*
X2943127D1*
X2923000Y821250D1*
X3061623Y682627D1*
X3254377D1*
X3413123Y841373D1*
Y1013000D1*
X3585123D1*
X3587623Y1015500D1*
X3360000Y-614053D2*
D20*
Y-681550D1*
D18*
Y-765000D1*
X3347500Y-777500D1*
X3341553D1*
X3310000Y-809053D1*
X3640000Y-480000D2*
X3580000D1*
X3540000Y-520000D1*
X3320000Y-760000D2*
X3341553Y-777500D1*
X3420000Y-760000D2*
X3360000Y-765000D1*
X3320000Y-865000D2*
X3341553Y-777500D1*
X3360000Y-681550D2*
Y-759053D1*
X3310000Y-809053D1*
X2950000Y-370000D2*
X3010000D1*
X3040000Y-340000D1*
X3165000Y-305000D2*
X3060000D1*
Y-360000D1*
X3040000Y-340000D1*
X5170000Y1700000D2*
X5191123D1*
Y1635127D1*
X5572123Y1524000D2*
Y1517000D1*
X5556250D1*
Y1488750D1*
X5584377Y1460623D1*
X5625000Y1420000D1*
X5220000Y1080000D2*
D14*
X5300000D1*
X5340000Y1040000D1*
X5418110D1*
X5426050Y1047940D1*
X5430000Y1470000D2*
X5514373D1*
X5575000D1*
X5625000Y1420000D1*
X5667373Y1524003D2*
X5514373Y1470000D1*
X5572123Y1428750D2*
D18*
X5556250Y1517000D1*
X5667373Y1428753D2*
X5651500Y1444627D1*
X5625000Y1420000D1*
X5667373Y1333500D2*
X5584377Y1460623D1*
X5572123Y1333503D2*
X5651500Y1444627D1*
X4500000Y5710000D2*
D20*
Y5771550D1*
D18*
Y5802877D1*
X4445000Y5857877D1*
X4270000Y5540000D2*
D14*
Y5640000D1*
X4300000D1*
X4885000Y5545000D2*
X4905000D1*
X4965787Y5605787D1*
Y5615787D1*
X5050000Y5700000D1*
X5030000D1*
X4445000Y5857877D2*
X4556123D1*
X4445000D2*
D18*
X4502877D1*
X4550000Y5905000D1*
X5650000Y-1090000D2*
Y-1120000D1*
X5580000Y-1190000D1*
X5490000D1*
X5130000Y-1065947D2*
D20*
Y-1004397D1*
D18*
Y-920947D1*
X5180000Y-870947D1*
X5080000Y-925000D2*
X5190000D1*
X5490000Y-1190000D2*
Y-1280000D1*
X5460000D1*
X4935000Y-1245000D2*
Y-1175000D1*
X4960000Y-1150000D1*
X5190000Y-820000D2*
Y-925000D1*
X5180000Y-870947D2*
Y-915000D1*
X5190000Y-925000D1*
X5886363Y3729533D2*
D14*
X5895573D1*
X5942577Y3682530D1*
X5967967Y3657140D1*
Y3618947D1*
X5996100Y3590813D1*
X6000607Y3200437D2*
Y3099393D1*
X5990000Y3110000D1*
X5996100Y3590813D2*
Y3629007D1*
X5967967Y3657140D1*
X5942577Y3682530D2*
X5972530D1*
X5980000Y3690000D1*
X5725000Y3385000D2*
X5543997D1*
X5476873Y3317877D1*
X5725000Y3385000D2*
D20*
X5663450D1*
D18*
X5580000D1*
X5530000Y3435000D1*
X2065000Y6125000D2*
D20*
Y6063450D1*
D18*
Y6030000D1*
Y5980000D1*
X2015000Y5930000D1*
X2016123Y5984877D2*
X2065000Y6030000D1*
X1750000Y6380000D2*
D14*
X1660000D1*
X1630000Y6350000D1*
X1615000Y6235000D2*
Y6335000D1*
X1630000Y6350000D1*
X2265000Y6245000D2*
Y6325000D1*
X2280000Y6340000D1*
X-716813Y1355000D2*
D18*
X-325000D1*
X-80000Y1600000D1*
X1241627D1*
X1650000Y1191627D1*
Y0D1*
X1526000Y-124000D1*
X-719377Y300000D2*
Y390623D1*
X250000Y1360000D1*
X1030000D1*
X1526000Y864000D1*
Y130000D1*
D24*
X3508373Y635000D3*
X3300000Y-430000D3*
X3850000Y-320000D3*
X7223330Y4730750D3*
X-79377Y6350000D3*
X2730000Y5350000D3*
X3444873Y-1397000D3*
X5013623Y-1711623D3*
X7016747Y-841373D3*
X6477000Y777877D3*
X7016750Y2698750D3*
X7350123Y4206877D3*
X3300000Y-430000D3*
X2905123Y5619750D3*
Y6223000D3*
X6365873Y3651250D3*
X6350000Y4079873D3*
X5820000Y-930000D3*
X5840000Y-600000D3*
D23*
X3540000Y-520000D3*
X3040000Y-340000D3*
X5191123Y1635127D3*
X5572123Y1524000D3*
X5426050Y1047940D3*
X4300000Y5640000D3*
X4965787Y5605787D3*
X5460000Y-1280000D3*
X4960000Y-1150000D3*
X5990000Y3110000D3*
X5980000Y3690000D3*
X1630000Y6350000D3*
X2280000Y6340000D3*
D24*
X4381500Y682627D3*
X5052800Y1379433D3*
D23*
X5476873Y3540127D3*
Y3317877D3*
X5080000Y-820000D3*
X5190000D3*
X5290000D3*
X5080000Y-925000D3*
X5190000D3*
X5290000D3*
X3210000Y-760000D3*
X3320000D3*
X3420000D3*
X3210000Y-865000D3*
X3320000D3*
X3420000D3*
D24*
X3930000Y6500000D3*
X5690000Y4178877D3*
X5397500Y-365123D3*
X7080250Y333377D3*
X4953000Y5207000D3*
X250000Y-750000D3*
X-1063627Y444500D3*
X2428873Y317500D3*
X3079750Y2397127D3*
X1930000Y5200000D3*
X3079750Y4178877D3*
X1960000Y6370000D3*
X1492250Y1809750D3*
X-480000Y960000D3*
X111123Y666750D3*
X6940000Y-1130000D3*
X1841500Y4178877D3*
X2010000Y930000D3*
X4280000Y5380000D3*
X3079750Y3349623D3*
X3890000Y5880000D3*
X1340000Y1290000D3*
X1841500Y3349623D3*
X560000Y4178877D3*
X4365623Y-793750D3*
X5164843Y2934150D3*
X110000Y930000D3*
X4328125Y4178877D3*
X3714750Y920750D3*
X4318000Y1111250D3*
X6858000Y5318127D3*
X4600000Y5510000D3*
X5840000Y-1490000D3*
X5300000Y-1340000D3*
X6127750Y3444875D3*
D23*
X1905000Y5984877D3*
X2016123D3*
X4445000Y5857877D3*
X4556123D3*
D24*
X3381373Y333377D3*
X5318123Y476250D3*
D23*
X5667373Y1524003D3*
X5572123Y1428750D3*
X5667373Y1428753D3*
Y1333500D3*
X5572123Y1333503D3*
Y3540127D3*
X5476873Y3429000D3*
X5572123D3*
Y3317877D3*
X4445000Y5953127D3*
X4556123D3*
X4651373Y5857877D3*
Y5953127D3*
X1905000Y5873750D3*
X2016123D3*
X2127250Y5984877D3*
Y5873750D3*
D24*
X4328125Y2397127D3*
Y3288003D3*
X5394031Y3908215D2*
D20*
X5509131D1*
X5374287Y3878552D2*
X5474740D1*
X5367901Y3848888D2*
X5474740D1*
X5367901Y3819225D2*
X5474740D1*
X5367901Y3789562D2*
X5474740D1*
X5367901Y3759898D2*
X5474740D1*
X5367901Y3730235D2*
X5474740D1*
X5367901Y3700572D2*
X5474740D1*
X5367901Y3670908D2*
X5474740D1*
X5477752Y3650434D2*
X5478019Y3876321D1*
X5479612Y3880735D1*
X5482490Y3884440D1*
X5536495Y3927704D1*
X5478080Y3937470D1*
X5391267Y3908531D1*
X5364873Y3868961D1*
X5364872Y3650341D1*
X5477702Y3650375D1*
X5699227Y1193588D2*
X6427267D1*
X5699227Y1163925D2*
X6427267D1*
X5697938Y1134262D2*
X6427267D1*
X5685401Y1104598D2*
X6427267D1*
X5901185Y1223259D2*
X5893744Y1215855D1*
X5884704Y1209288D1*
X5874749Y1204215D1*
X5864122Y1200763D1*
X5853087Y1199015D1*
X5801215Y1198795D1*
X5801205Y1193795D1*
X5696158D1*
X5695985Y1141913D1*
X5694237Y1130878D1*
X5690785Y1120251D1*
X5685712Y1110296D1*
X5682376Y1105355D1*
X5682372Y1094536D1*
X6430238Y1094498D1*
X6430252Y1223214D1*
X5901267Y1223252D1*
X2947615Y5876715D2*
X3244628D1*
X2256402Y5847052D2*
X3239649D1*
X2256402Y5817388D2*
X3234727D1*
X3062797Y5787725D2*
X3229747D1*
X3066019Y5758062D2*
X3224826D1*
X3066019Y5728398D2*
X3219905D1*
X3066019Y5698735D2*
X3214925D1*
X3066019Y5669072D2*
X3210003D1*
X2531204Y5874604D2*
Y5858795D1*
X2348794D1*
Y5861080D1*
X2304122Y5860763D1*
X2293087Y5859015D1*
X2253344Y5858795D1*
X2253374Y5793483D1*
X3050346Y5793314D1*
X3054809Y5791864D1*
X3058606Y5789106D1*
X3061364Y5785309D1*
X3062814Y5780846D1*
X3062999Y5733505D1*
Y5650604D1*
X3209877Y5650625D1*
X3252550Y5906412D1*
X3003925Y5906378D1*
X2941402Y5875326D1*
X2937934Y5874664D1*
X2531158Y5874626D1*
X4013782Y6210088D2*
X4043521D1*
X4002651Y6180425D2*
X4079142D1*
X4002651Y6150762D2*
X4114705D1*
X4002651Y6121098D2*
X4150326D1*
X4002651Y6091435D2*
X4185947D1*
X4074186Y6061772D2*
X4221509D1*
X4074186Y6032108D2*
X4257130D1*
X4084966Y6002445D2*
X4284139D1*
X4003450Y6081205D2*
X4071205D1*
X4071237Y6025910D1*
X4078860Y6010949D1*
X4084048Y5994980D1*
X4085892Y5985012D1*
X4094872Y5983998D1*
X4287096D1*
X4287125Y6009601D1*
X4021348Y6231081D1*
X3999634Y6187733D1*
X3999622Y6085663D1*
X1404090Y5844963D2*
X1785821D1*
X1370696Y5815300D2*
X1785353D1*
X1337360Y5785637D2*
X1733445D1*
X1303965Y5755973D2*
X1681536D1*
X827651Y5726310D2*
X1629628D1*
X827651Y5696647D2*
X1577720D1*
X827651Y5666983D2*
X1525811D1*
X827651Y5637320D2*
X1473903D1*
X827651Y5607657D2*
X1421995D1*
X827651Y5577993D2*
X1370086D1*
X1742522Y5858796D2*
X1731361Y5859672D1*
X1720496Y5862280D1*
X1710174Y5866556D1*
X1700647Y5872394D1*
X1697817Y5874625D1*
X1434438Y5874627D1*
X1293710Y5749837D1*
X1289375Y5748041D1*
X1285873Y5747627D1*
X824616D1*
X824623Y5571221D1*
X1361224Y5571249D1*
X1788813Y5815561D1*
X1788795Y5858842D1*
X1742500Y5858854D1*
X5447277Y-759035D2*
X6649523D1*
X5447277Y-788698D2*
X6649523D1*
X6335343Y-818362D2*
X6649523D1*
X6364988Y-848025D2*
X6649523D1*
X6394633Y-877688D2*
X6649523D1*
X6424337Y-907352D2*
X6649523D1*
X6453982Y-937015D2*
X6649523D1*
X6483627Y-966678D2*
X6649523D1*
X5452478Y-799743D2*
X5463639Y-800618D1*
X5474504Y-803227D1*
X5484826Y-807503D1*
X5490122Y-810514D1*
X5763022Y-810502D1*
X5779085Y-804075D1*
X5789091Y-801253D1*
X5799287Y-799225D1*
X5809612Y-798003D1*
X5820000Y-797595D1*
X5830388Y-798003D1*
X5840713Y-799225D1*
X5850909Y-801253D1*
X5860915Y-804075D1*
X5876828Y-810513D1*
X6320596Y-810686D1*
X6325059Y-812136D1*
X6328856Y-814894D1*
X6483231Y-969270D1*
X6652469Y-969251D1*
X6652501Y-729337D1*
X5868194Y-729372D1*
X5850388Y-731997D1*
X5840000Y-732405D1*
X5829612Y-731997D1*
X5812237Y-729372D1*
X5444257D1*
X5444249Y-799735D1*
X2635061Y-822535D2*
X2932309D1*
X2633479Y-852198D2*
X2967872D1*
X2631897Y-881862D2*
X3077606D1*
X2630374Y-911525D2*
X3077606D1*
X2628792Y-941188D2*
X3077606D1*
X2627210Y-970852D2*
X3077606D1*
X2625687Y-1000515D2*
X3077606D1*
X2624105Y-1030178D2*
X3077606D1*
X2622582Y-1059842D2*
X3077606D1*
X2671912Y-1089505D2*
X3077606D1*
X3037522Y-880257D2*
X3026361Y-879382D1*
X3015496Y-876773D1*
X3004735Y-872252D1*
X2996872Y-871834D1*
X2992537Y-870038D1*
X2899721Y-792895D1*
X2633571Y-792872D1*
X2619040Y-1069613D1*
X2685741Y-1096243D1*
X3080622Y-1096252D1*
X3080625Y-880241D1*
X3037500Y-880200D1*
X5701277Y1971465D2*
X5823994D1*
X5701277Y1941802D2*
X5823994D1*
X5701277Y1912138D2*
X5823994D1*
X5701277Y1882475D2*
X5823994D1*
X5701277Y1852812D2*
X5823994D1*
X5701277Y1823148D2*
X5823994D1*
X5701277Y1793485D2*
X5823994D1*
X5701277Y1763822D2*
X5823994D1*
X5701277Y1734158D2*
X5823994D1*
X5701277Y1704495D2*
X5823994D1*
X5698248Y2001070D2*
Y1681886D1*
X5826964Y1681875D1*
X5827002Y2001117D1*
X5698286Y2001128D1*
X3558151Y-901912D2*
X3776130D1*
X3558151Y-931575D2*
X3776130D1*
X3558151Y-961238D2*
X3776130D1*
X3558151Y-990902D2*
X3776130D1*
X3558151Y-1020565D2*
X3776130D1*
X3558151Y-1050228D2*
X3776130D1*
X3558151Y-1079892D2*
X3776130D1*
X3558151Y-1109555D2*
X3776130D1*
X3558151Y-1139218D2*
X3776130D1*
X3582500Y-880229D2*
X3555140Y-880258D1*
X3555122Y-1159697D1*
X3779101Y-1159752D1*
X3779125Y-872264D1*
X3661775Y-872248D1*
X3655112Y-876106D1*
X3644202Y-880625D1*
X3632719Y-883382D1*
X3620947Y-884308D1*
X3609174Y-883382D1*
X3596717Y-880266D1*
X3555116Y-880258D1*
X5367903Y3162087D2*
X5455821D1*
X5367903Y3132423D2*
X5458164D1*
X5367903Y3102759D2*
X5458457D1*
X5367903Y3073095D2*
X5468300D1*
X5367903Y3043431D2*
X5474745D1*
X5367903Y3013767D2*
X5474745D1*
X5367903Y2984103D2*
X5474745D1*
X5367903Y2954439D2*
X5474745D1*
X5461137Y3144554D2*
X5459673Y3151361D1*
X5458797Y3162522D1*
X5458796Y3191736D1*
X5364851Y3191751D1*
X5364874Y2936012D1*
X5477774Y2935999D1*
X5477652Y3064371D1*
X5471297Y3073118D1*
X5466388Y3082752D1*
X5463047Y3093035D1*
X5461355Y3103714D1*
X5461143Y3144332D1*
X4796403Y6003712D2*
X5490655D1*
X4842864Y5974048D2*
X5490655D1*
X4822478Y5976203D2*
X4833639Y5975327D1*
X4844503Y5972719D1*
X4854826Y5968443D1*
X4864352Y5962605D1*
X4872849Y5955349D1*
X4875710Y5952253D1*
X5493684Y5952249D1*
X5493626Y6033394D1*
X4793316Y6033376D1*
X4793374Y5976252D1*
X4822461Y5976204D1*
D28*
X1020000Y820000D3*
X320000D3*
D29*
X-200000Y-750000D3*
X90000D3*
D30*
X3050000Y-1710000D3*
Y-1560000D3*
X6930000Y-1650000D3*
Y-1800000D3*
X7345750Y487750D3*
X7195750D3*
X7068750Y4481127D3*
X7218750D3*
D31*
X-180000Y-1560000D3*
Y-1040000D3*
D32*
X4360000Y-1055873D3*
D33*
X4010000D3*
D34*
X510000Y130000D3*
X764000D3*
X1018000D3*
X1272000D3*
X1526000D3*
X1780000D3*
X2034000D3*
X2288000D3*
X2542000D3*
X2796000D3*
X3050000D3*
X3304000D3*
X3558000D3*
X3812000D3*
X4066000D3*
X4320000D3*
X4574000D3*
X4828000D3*
X5082000D3*
X5336000D3*
X5590000D3*
X5844000D3*
X6098000D3*
Y-124000D3*
X5844000D3*
X5590000D3*
X5336000D3*
X5082000D3*
X4828000D3*
X4574000D3*
X4320000D3*
X4066000D3*
X3812000D3*
X3558000D3*
X3304000D3*
X3050000D3*
X2796000D3*
X2542000D3*
X2288000D3*
X2034000D3*
X1780000D3*
X1526000D3*
X1272000D3*
X1018000D3*
X764000D3*
D35*
X510000D3*
D36*
X333377Y5699127D3*
D32*
X6772377Y1260000D3*
D33*
Y910000D3*
D36*
X2143123Y-777873D3*
X-810000Y-570000D3*
Y-1080000D3*
D32*
X6772377Y3820000D3*
D33*
Y3470000D3*
D32*
X1520000Y-1055873D3*
X1170000D3*
X820000D3*
D33*
X470000D3*
D32*
X6772377Y2540000D3*
D33*
Y2190000D3*
D34*
X510000Y4950000D3*
X764000D3*
X1018000D3*
X1272000D3*
X1526000D3*
X1780000D3*
X2034000D3*
X2288000D3*
X2542000D3*
X2796000D3*
X3050000D3*
X3304000D3*
X3558000D3*
X3812000D3*
X4066000D3*
X4320000D3*
X4574000D3*
X4828000D3*
X5082000D3*
X5336000D3*
X5590000D3*
X5844000D3*
X6098000D3*
Y4696000D3*
X5844000D3*
X5590000D3*
X5336000D3*
X5082000D3*
X4828000D3*
X4574000D3*
X4320000D3*
X4066000D3*
X3812000D3*
X3558000D3*
X3304000D3*
X3050000D3*
X2796000D3*
X2542000D3*
X2288000D3*
X2034000D3*
X1780000D3*
X1526000D3*
X1272000D3*
X1018000D3*
X764000D3*
D35*
X510000D3*
D32*
X2650000Y-1055873D3*
D33*
X2300000D3*
D32*
X6540000D3*
D33*
X6190000D3*
D36*
X-820000Y-1660000D3*
X5414253Y2203087D3*
D32*
X1170000Y2214127D3*
Y2564127D3*
Y2914127D3*
D33*
Y3264127D3*
D38*
X3556000Y492127D3*
X3276000D3*
D31*
X2555877Y1698627D3*
Y1178627D3*
D30*
X6380000Y6450000D3*
Y6600000D3*
D31*
X2143127Y1920877D3*
Y1400877D3*
D39*
X6930000Y-1290000D3*
Y-1460000D3*
X3330000Y-1420000D3*
Y-1590000D3*
D40*
X7169873Y243750D3*
X7339873D3*
X7223123Y4730750D3*
X7053123D3*
D41*
X-719377Y300000D3*
X-1159377D3*
Y-70000D3*
X-719377D3*
D42*
X-939377Y375000D3*
Y-145000D3*
D41*
X-716813Y1355000D3*
X-1156813D3*
Y985000D3*
X-716813D3*
D42*
X-936813Y1430000D3*
Y910000D3*
D38*
X2603500Y-762000D3*
X2323500D3*
D30*
X330000Y6540000D3*
Y6390000D3*
D32*
X5580000Y6005000D3*
D33*
X5930000D3*
D32*
X750000D3*
D33*
X1100000D3*
D32*
X3215000D3*
D33*
X3565000D3*
D38*
X6559250Y-844250D3*
X6839250D3*
D39*
X6375000Y5945000D3*
Y6115000D3*
X63500Y6365877D3*
Y6535877D3*
D43*
X6477000Y1206500D3*
Y926500D3*
D38*
X6911373Y4206877D3*
X7191373D3*
X5588000Y5746750D3*
X5868000D3*
X835623Y5715000D3*
X555623D3*
D43*
X4791373Y-1431623D3*
Y-1711623D3*
D38*
X6746873Y2905127D3*
X7026873D3*
X3206750Y5746750D3*
X3486750D3*
D44*
X5208500Y395377D3*
X5078500D3*
D46*
X4127500Y587377D3*
Y492377D3*
Y397377D3*
X4387520D3*
Y587377D3*
X4889500Y397377D3*
Y492377D3*
Y587377D3*
X4629480D3*
Y397377D3*
D47*
X3048000Y1111250D3*
D48*
X3171900Y821250D3*
X2923000D3*
D40*
X3079750Y1381127D3*
X2909750D3*
D39*
X4111627Y932000D3*
Y762000D3*
D50*
X3857623Y825500D3*
Y920500D3*
Y1015500D3*
X3587623D3*
Y825500D3*
D51*
X3413123Y1143000D3*
Y1013000D3*
X4180000Y-850000D3*
Y-720000D3*
D44*
X3610000Y-370000D3*
X3480000D3*
X3765000Y-725001D3*
X3895000D3*
X3710000Y-590001D3*
X3840000D3*
D51*
X2949999Y-370000D3*
Y-500000D3*
X3164999Y-305000D3*
Y-435000D3*
D44*
X3640000Y-480001D3*
X3770000D3*
D53*
X3160000Y-1004053D3*
X3210000D3*
X3260000D3*
X3310000D3*
X3360000D3*
X3410000D3*
X3460000D3*
D54*
X3555000Y-909053D3*
Y-859053D3*
Y-809053D3*
Y-759053D3*
Y-709053D3*
D53*
X3460000Y-614053D3*
X3410000D3*
X3360000D3*
X3310000D3*
X3260000D3*
X3210000D3*
X3160000D3*
D54*
X3065000Y-709053D3*
Y-759053D3*
Y-809053D3*
Y-859053D3*
Y-909053D3*
D55*
X3310000Y-809053D3*
D51*
X4570000Y-780000D3*
Y-650000D3*
D44*
X5225000Y-1205000D3*
X5095000D3*
D51*
X4710001Y-940000D3*
Y-810000D3*
X4800001Y-1130000D3*
Y-1000000D3*
D44*
X5650000Y-1089999D3*
X5520000D3*
X5490000Y-1189999D3*
X5360000D3*
X4935000Y-1244999D3*
X4805000D3*
D53*
X5330000Y-675947D3*
X5280000D3*
X5230000D3*
X5180000D3*
X5130000D3*
X5080000D3*
X5030000D3*
D54*
X4935000Y-770947D3*
Y-820947D3*
Y-870947D3*
Y-920947D3*
Y-970947D3*
D53*
X5030000Y-1065947D3*
X5080000D3*
X5130000D3*
X5180000D3*
X5230000D3*
X5280000D3*
X5330000D3*
D54*
X5425000Y-970947D3*
Y-920947D3*
Y-870947D3*
Y-820947D3*
Y-770947D3*
D55*
X5180000Y-870947D3*
D44*
X5763830Y2158617D3*
X5633830D3*
D51*
X5260000Y1390000D3*
Y1520000D3*
D44*
X5570000Y2009999D3*
X5700000D3*
D51*
X5390001Y1820000D3*
Y1950000D3*
X5340001Y1040000D3*
Y1170000D3*
X5220001Y1080000D3*
Y1210000D3*
D44*
X5170000Y1699999D3*
X5300000D3*
D54*
X5820000Y1270000D3*
Y1320000D3*
Y1370000D3*
Y1420000D3*
Y1470000D3*
Y1520000D3*
Y1570000D3*
D53*
X5725000Y1665000D3*
X5675000D3*
X5625000D3*
X5575000D3*
X5525000D3*
D54*
X5430000Y1570000D3*
Y1520000D3*
Y1470000D3*
Y1420000D3*
Y1370000D3*
Y1320000D3*
Y1270000D3*
D53*
X5525000Y1175000D3*
X5575000D3*
X5625000D3*
X5675000D3*
X5725000D3*
D57*
X5625000Y1420000D3*
D44*
X5356703Y3045267D3*
X5226703D3*
D51*
X5900743Y3468723D3*
Y3338723D3*
D44*
X5647253Y2994414D3*
X5517253D3*
X5875687Y3058167D3*
X5745687D3*
X5886363Y3729534D3*
X5756363D3*
X5996100Y3590814D3*
X5866100D3*
X6000607Y3200437D3*
X5870607D3*
D54*
X5335000Y3585000D3*
Y3535000D3*
Y3485000D3*
Y3435000D3*
Y3385000D3*
Y3335000D3*
Y3285000D3*
D53*
X5430000Y3190000D3*
X5480000D3*
X5530000D3*
X5580000D3*
X5630000D3*
D54*
X5725000Y3285000D3*
Y3335000D3*
Y3385000D3*
Y3435000D3*
Y3485000D3*
Y3535000D3*
Y3585000D3*
D53*
X5630000Y3680000D3*
X5580000D3*
X5530000D3*
X5480000D3*
X5430000D3*
D57*
X5530000Y3435000D3*
D51*
X2740000Y5690000D3*
Y5560000D3*
X4400000Y5410000D3*
Y5540000D3*
X4095751Y5842000D3*
Y5972000D3*
D44*
X4175000Y5665001D3*
X4045000D3*
X5030000Y5700001D3*
X4900000D3*
X4885000Y5545001D3*
X4755000D3*
X4270000Y5540001D3*
X4140000D3*
D53*
X4700000Y6100000D3*
X4650000D3*
X4600000D3*
X4550000D3*
X4500000D3*
X4450000D3*
X4400000D3*
D54*
X4305000Y6005000D3*
Y5955000D3*
Y5905000D3*
Y5855000D3*
Y5805000D3*
D53*
X4400000Y5710000D3*
X4450000D3*
X4500000D3*
X4550000D3*
X4600000D3*
X4650000D3*
X4700000D3*
D54*
X4795000Y5805000D3*
Y5855000D3*
Y5905000D3*
Y5955000D3*
Y6005000D3*
D55*
X4550000Y5905000D3*
D51*
X3980000Y6110000D3*
Y5980000D3*
X2120000Y6390000D3*
Y6260000D3*
X2439999Y5960000D3*
Y5830000D3*
D44*
X2390000Y6089999D3*
X2520000D3*
D51*
X1614999Y6235000D3*
Y6105000D3*
X1749999Y6380000D3*
Y6250000D3*
D44*
X2265000Y6244999D3*
X2395000D3*
D53*
X1865000Y5735000D3*
X1915000D3*
X1965000D3*
X2015000D3*
X2065000D3*
X2115000D3*
X2165000D3*
D54*
X2260000Y5830000D3*
Y5880000D3*
Y5930000D3*
Y5980000D3*
Y6030000D3*
D53*
X2165000Y6125000D3*
X2115000D3*
X2065000D3*
X2015000D3*
X1965000D3*
X1915000D3*
X1865000D3*
D54*
X1770000Y6030000D3*
Y5980000D3*
Y5930000D3*
Y5880000D3*
Y5830000D3*
D55*
X2015000Y5930000D3*
M02*
