M48
METRIC,0000.00
T01C0.6
T02C0.762
T03C0.9
T04C0.92
T05C1.0
T06C1.016
T07C1.1
T08C1.4
T09C2.3
T10C4.0
%
T01
X+005248Y+004880
X+005396Y+004732
T02
X+003323Y+008820
X+003863Y+008820
X+004413Y+008820
X+004858Y+007398
X+005080Y+007080
X+005318Y+007414
X+005098Y+006490
X+005368Y+006250
X+005098Y+006020
X+004818Y+006240
X+004620Y+006321
X+004238Y+005520
X+004358Y+005180
X+004382Y+004858
X+004550Y+004899
X+004615Y+004499
X+005010Y+004184
X+005620Y+004239
X+005898Y+004590
X+005648Y+005110
X+005003Y+005320
X+003908Y+005250
X+003773Y+004800
X+003621Y+004800
X+003468Y+004070
X+003608Y+003910
X+003768Y+003832
X+004540Y+003699
X+004670Y+003191
X+004538Y+003090
X+004032Y+002651
X+003905Y+002096
X+003388Y+002230
X+003032Y+002540
X+002348Y+003130
X+002096Y+003556
X+001635Y+003620
X+001080Y+002667
X+002350Y+001556
X+003112Y+001413
X+003381Y+001603
X+003668Y+001420
X+002985Y+000778
X+002619Y+000794
X+002334Y+000572
X+002080Y+000794
X+001667Y+000667
X+005032Y+002254
X+005808Y+003000
X+005988Y+002830
X+006678Y+003460
X+006958Y+003240
X+007271Y+003461
X+007557Y+003318
X+008112Y+003572
X+006985Y+003747
X+006938Y+004280
X+006652Y+004620
X+007223Y+004636
X+006223Y+003747
X+007191Y+006017
X+003668Y+006321
X+002476Y+005953
X+001905Y+005969
X+001128Y+005330
X+000788Y+004860
X+000798Y+006180
X+001492Y+007302
X+002000Y+007255
T03
X+003477Y+003064
X+004988Y+002980
X+005248Y+002930
X+005906Y+004270
X+006128Y+004600
X+005058Y+005070
X+003918Y+005893
X+003664Y+005893
X+003410Y+005893
X+003156Y+005893
X+003874Y+006906
X+003863Y+007620
X+003323Y+007620
X+002654Y+007936
X+002394Y+007936
X+002144Y+007936
X+001873Y+007938
X+004413Y+007620
X+006620Y+006493
X+002478Y+004700
X+000528Y+005290
X+000528Y+005730
X+006747Y+000635
T04
X+007922Y+006795
X+007922Y+007045
X+007922Y+007245
X+007922Y+007495
T05
X+008388Y+004020
X+008134Y+004020
X+007880Y+004020
T06
X+004658Y+002520
X+004658Y+002810
X+005148Y+002495
X+005402Y+002470
X+005656Y+002495
X+005910Y+002470
X+006164Y+002495
X+006418Y+002470
T07
X+002648Y+008519
X+002648Y+008265
X+002394Y+008265
X+002394Y+008519
X+002140Y+008519
X+002140Y+008265
X+001886Y+008265
X+001886Y+008519
X+006858Y+002508
X+006858Y+002254
X+007112Y+002254
X+007112Y+002508
X+007366Y+002508
X+007366Y+002254
X+007620Y+002254
X+007620Y+002508
T08
X+008338Y+003090
X+008338Y+002740
X+008318Y+005320
X+008318Y+005670
X+000720Y+006900
X+000720Y+007250
X+000720Y+007600
X+000702Y+004410
X+000702Y+004060
X+000702Y+003710
X+000702Y+003360
X+000702Y+002570
X+000702Y+002220
X+000702Y+001870
X+000702Y+001520
T09
X+008193Y+007802
X+008193Y+006488
T10
X+001000Y+008500
X+008000Y+008500
X+008000Y+000600
X+001000Y+000600
T00
M30
