G04 DipTrace 3.3.1.3*
G04 Powerboardv0.7.gto*
%MOMM*%
G04 #@! TF.FileFunction,Legend,Top*
G04 #@! TF.Part,Single*
%ADD10C,0.25*%
%ADD18C,0.381*%
%ADD22C,0.254*%
%ADD27C,0.2032*%
%ADD28C,0.1778*%
%ADD29C,0.03333*%
%ADD33C,0.1524*%
%ADD41C,2.19403*%
%ADD45O,2.19348X2.19399*%
%ADD46O,2.19399X2.19348*%
%ADD47C,2.19399*%
%ADD60O,0.39103X0.39118*%
%ADD62O,0.39905X0.39945*%
%ADD66O,0.39945X0.39905*%
%ADD130C,0.19608*%
%ADD131C,0.23529*%
%FSLAX35Y35*%
G04*
G71*
G90*
G75*
G01*
G04 TopSilk*
%LPD*%
G36*
X502320Y400849D2*
X234157D1*
Y1251963D1*
X502320D1*
Y400849D1*
G37*
X250492Y399997D2*
D10*
X869853D1*
X250492Y1240036D2*
X869853D1*
X1069954Y589985D2*
Y1050047D1*
Y578058D2*
X878020Y402553D1*
X1068593Y1059419D2*
X867131Y1238332D1*
X1227857Y490305D2*
Y667514D1*
X1319060Y577206D2*
X1142100D1*
X134787Y587429D2*
X-42173D1*
X2589965Y-836811D2*
D33*
X2334767Y-837188D1*
X2587564Y-688182D2*
X2339285Y-688107D1*
X6572785Y-769439D2*
X6827983Y-769062D1*
X6575186Y-918068D2*
X6823465Y-918143D1*
X6551811Y1192965D2*
X6552188Y937767D1*
X6403182Y1190564D2*
X6403107Y942285D1*
X7044061Y4297561D2*
X7299260Y4297938D1*
X7046463Y4148932D2*
X7294741Y4148857D1*
X5601535Y5821561D2*
X5856733Y5821938D1*
X5603936Y5672932D2*
X5852215Y5672857D1*
X822089Y5640189D2*
X566890Y5639812D1*
X819687Y5788818D2*
X571409Y5788893D1*
X4805561Y-1439908D2*
X4805938Y-1695106D1*
X4656932Y-1442309D2*
X4656857Y-1690588D1*
X6760408Y2979938D2*
X7015606Y2980315D1*
X6762809Y2831309D2*
X7011088Y2831233D1*
X3220285Y5821561D2*
X3475483Y5821938D1*
X3222686Y5672932D2*
X3470965Y5672857D1*
X3542465Y417316D2*
X3287267Y416939D1*
X3540064Y565945D2*
X3291785Y566020D1*
X-95266Y-714123D2*
D10*
X-385234D1*
Y-524123D1*
X-95266D1*
Y-714123D1*
G36*
X-105514Y-710152D2*
X-192832D1*
Y-631568D1*
X-105514D1*
Y-710152D1*
G37*
G36*
X-102658Y-607951D2*
X-189976D1*
Y-529367D1*
X-102658D1*
Y-607951D1*
G37*
X-184432Y-709316D2*
D10*
X-185482Y-539095D1*
X3122790Y-1763482D2*
X2976021D1*
Y-1513845D1*
X3122790D1*
Y-1763482D1*
X2974703Y-1661006D2*
D27*
X3050005Y-1660906D1*
X3114171Y-1661430D2*
X3050005Y-1660906D1*
X2997435Y-1598147D1*
X3052538Y-1659358D2*
X3104368Y-1592805D1*
X6857210Y-1596518D2*
D10*
X7003979D1*
Y-1846155D1*
X6857210D1*
Y-1596518D1*
X7005297Y-1698994D2*
D27*
X6929995Y-1699094D1*
X6865829Y-1698570D2*
X6929995Y-1699094D1*
X6982565Y-1761853D1*
X6927462Y-1700642D2*
X6875632Y-1767195D1*
X7399232Y560540D2*
D10*
X7149595D1*
Y413771D1*
X7399232D1*
Y560540D1*
X7296756Y412453D2*
D27*
X7296656Y487755D1*
X7297180Y551921D2*
X7296656Y487755D1*
X7233897Y435185D1*
X7295108Y490288D2*
X7228555Y542118D1*
X7015268Y4408337D2*
D10*
X7264905D1*
Y4555105D1*
X7015268D1*
Y4408337D1*
X7117744Y4556423D2*
D27*
X7117844Y4481121D1*
X7117320Y4416955D2*
X7117844Y4481121D1*
X7180603Y4533692D1*
X7119392Y4478589D2*
X7185945Y4426759D1*
X6452790Y6396518D2*
D10*
X6306021D1*
Y6646155D1*
X6452790D1*
Y6396518D1*
X6304703Y6498994D2*
D27*
X6380005Y6499094D1*
X6444171Y6498570D2*
X6380005Y6499094D1*
X6327435Y6561853D1*
X6382538Y6500642D2*
X6434368Y6567195D1*
X257210Y6593482D2*
D10*
X403979D1*
Y6343845D1*
X257210D1*
Y6593482D1*
X405297Y6491006D2*
D27*
X329995Y6490906D1*
X265829Y6491430D2*
X329995Y6490906D1*
X382565Y6428147D1*
X327462Y6489358D2*
X275632Y6422805D1*
X-353507Y-1663753D2*
D10*
X-6707D1*
Y-935187D1*
X-353507D1*
Y-1663753D1*
X-35144Y-1482340D2*
X-33757Y-1388355D1*
Y-1383984D2*
X-320214Y-1217871D1*
X-320907Y-1218599D2*
Y-1123885D1*
X2549473Y1682627D2*
X3349273D1*
Y2222627D1*
X2549473D1*
Y1682627D1*
X2767053Y1807367D2*
X2860793Y1806287D1*
X2865093D2*
X3031073Y2092487D1*
Y2093567D2*
X3125673D1*
X1857250Y2276527D2*
X2397250D1*
Y1476727D1*
X1857250D1*
Y2276527D1*
X1981990Y2058947D2*
X1980910Y1965207D1*
Y1960907D2*
X2267110Y1794927D1*
X2268190D2*
Y1700327D1*
X2970030Y7183752D2*
X3809983D1*
Y6073722D1*
X2970030D1*
Y7183752D1*
D41*
X3561257Y5906608D3*
X1765048Y-2313998D2*
D10*
X225017D1*
Y-1203969D1*
X1765048D1*
Y-2313998D1*
D45*
X468668Y-1036854D3*
X149998Y1969078D2*
D10*
X1260028D1*
Y3509110D1*
X149998D1*
Y1969078D1*
D46*
X1427142Y3265459D3*
X4604970Y-2313998D2*
D10*
X3765017D1*
Y-1203969D1*
X4604970D1*
Y-2313998D1*
D41*
X4013743Y-1036854D3*
X7919378Y2784970D2*
D10*
X6809349D1*
Y1945017D1*
X7919378D1*
Y2784970D1*
D47*
X6642234Y2193743D3*
X2894970Y-2313998D2*
D10*
X2055017D1*
Y-1203969D1*
X2894970D1*
Y-2313998D1*
D41*
X2303743Y-1036854D3*
X6784970Y-2313998D2*
D10*
X5945017D1*
Y-1203969D1*
X6784970D1*
Y-2313998D1*
D41*
X6193743Y-1036854D3*
X7919378Y1504970D2*
D10*
X6809349D1*
Y665017D1*
X7919378D1*
Y1504970D1*
D47*
X6642234Y913743D3*
X7919378Y4064970D2*
D10*
X6809349D1*
Y3225017D1*
X7919378D1*
Y4064970D1*
D47*
X6642234Y3473743D3*
X5335030Y7167875D2*
D10*
X6174983D1*
Y6057846D1*
X5335030D1*
Y7167875D1*
D41*
X5926257Y5890731D3*
X505030Y7167875D2*
D10*
X1344983D1*
Y6057846D1*
X505030D1*
Y7167875D1*
D41*
X1096257Y5890731D3*
X1638332Y445857D2*
D10*
Y-301097D1*
X2912883Y439567D2*
Y-301097D1*
X4181588Y439567D2*
Y-301097D1*
X5444446Y448215D2*
Y-301097D1*
G36*
X5707542Y250863D2*
X6210347D1*
Y-257066D1*
X5707542D1*
Y250863D1*
G37*
G36*
X363780Y235137D2*
X609336D1*
Y-246844D1*
X363780D1*
Y235137D1*
G37*
X1652758Y5117774D2*
D10*
Y4370123D1*
X2923821Y5110822D2*
Y4370123D1*
X4194885Y5110822D2*
Y4370123D1*
X5459625Y5120091D2*
Y4370123D1*
G36*
X362723Y5076838D2*
X609347D1*
Y4594881D1*
X362723D1*
Y5076838D1*
G37*
G36*
X3216274Y-1602013D2*
X3292473D1*
Y-1647722D1*
X3216274D1*
Y-1602013D1*
G37*
G36*
X6891897Y-1352140D2*
X6968096D1*
Y-1397849D1*
X6891897D1*
Y-1352140D1*
G37*
G36*
X7232013Y205647D2*
X7277722D1*
Y281846D1*
X7232013D1*
Y205647D1*
G37*
G36*
X7160983Y4800603D2*
X7115275D1*
Y4724404D1*
X7160983D1*
Y4800603D1*
G37*
G36*
X6413103Y6007140D2*
X6336904D1*
Y6052849D1*
X6413103D1*
Y6007140D1*
G37*
G36*
X101603Y6428017D2*
X25404D1*
Y6473725D1*
X101603D1*
Y6428017D1*
G37*
G36*
X5163480Y358975D2*
X5123168D1*
Y430940D1*
X5163480D1*
Y358975D1*
G37*
X3247780Y1183600D2*
D10*
X2865783D1*
Y741700D1*
X3247780D1*
Y1183600D1*
G36*
X3620226Y1580517D2*
X3544027D1*
Y1626225D1*
X3620226D1*
Y1580517D1*
G37*
G36*
X4057647Y906237D2*
X4133846D1*
Y860528D1*
X4057647D1*
Y906237D1*
G37*
G36*
X3449525Y1097980D2*
X3377560D1*
Y1057668D1*
X3449525D1*
Y1097980D1*
G37*
X-635620Y392920D2*
D10*
X-1238007D1*
Y-167120D1*
X-635620D1*
Y392920D1*
X-755736Y299860D2*
X-1114819D1*
X-754049Y-69020D2*
X-1109457D1*
X-936813Y296500D2*
Y223720D1*
X-941873Y34240D2*
Y-62240D1*
X-940187Y218680D2*
X-830191Y56200D1*
X-633057Y1447920D2*
X-1235443D1*
Y887880D1*
X-633057D1*
Y1447920D1*
X-753173Y1354860D2*
X-1112255D1*
X-751486Y985980D2*
X-1106894D1*
X-934250Y1351500D2*
Y1278720D1*
X-939310Y1089240D2*
Y992760D1*
X-937623Y1273680D2*
X-827628Y1111200D1*
X4300452Y350137D2*
D27*
X4214568D1*
Y634617D2*
X4300452D1*
X4338530Y519203D2*
Y465550D1*
X4716548Y634617D2*
X4802432D1*
Y350137D2*
X4716548D1*
X4678470Y465550D2*
Y519203D1*
D60*
X3899852Y757139D3*
X3762525Y770506D2*
D10*
Y1070500D1*
X3682539Y770506D2*
Y1070500D1*
X3762525D2*
X3682539D1*
X3762525Y770506D2*
X3682539D1*
G36*
X4143598Y-804980D2*
X4215564D1*
Y-764668D1*
X4143598D1*
Y-804980D1*
G37*
G36*
X4533598Y-703230D2*
X4605564D1*
Y-662918D1*
X4533598D1*
Y-703230D1*
G37*
G36*
X2854893Y-566845D2*
X2895206D1*
Y-638810D1*
X2854893D1*
Y-566845D1*
G37*
G36*
X5671480Y-1003278D2*
X5631168D1*
Y-931313D1*
X5671480D1*
Y-1003278D1*
G37*
G36*
X3764980Y-369775D2*
X3724668D1*
Y-297810D1*
X3764980D1*
Y-369775D1*
G37*
G36*
X3810020Y-688598D2*
X3850332D1*
Y-760564D1*
X3810020D1*
Y-688598D1*
G37*
G36*
X3755020Y-553598D2*
X3795332D1*
Y-625564D1*
X3755020D1*
Y-553598D1*
G37*
G36*
X2948643Y-441348D2*
X2988956D1*
Y-513314D1*
X2948643D1*
Y-441348D1*
G37*
G36*
X3201402Y-350020D2*
X3129436D1*
Y-390332D1*
X3201402D1*
Y-350020D1*
G37*
G36*
X3685020Y-443598D2*
X3725332D1*
Y-515564D1*
X3685020D1*
Y-443598D1*
G37*
G36*
X5179980Y-1241402D2*
X5139668D1*
Y-1169436D1*
X5179980D1*
Y-1241402D1*
G37*
G36*
X4673598Y-894980D2*
X4745564D1*
Y-854668D1*
X4673598D1*
Y-894980D1*
G37*
G36*
X4763598Y-1084980D2*
X4835564D1*
Y-1044668D1*
X4763598D1*
Y-1084980D1*
G37*
G36*
X5604980Y-1126402D2*
X5564668D1*
Y-1054436D1*
X5604980D1*
Y-1126402D1*
G37*
G36*
X5408722Y-1288480D2*
X5480687D1*
Y-1248168D1*
X5408722D1*
Y-1288480D1*
G37*
G36*
X4889980Y-1281402D2*
X4849668D1*
Y-1209436D1*
X4889980D1*
Y-1281402D1*
G37*
X3560010Y-1009068D2*
D10*
X3509985D1*
X3560010D2*
Y-959083D1*
Y-609082D2*
X3509985D1*
X3560010D2*
Y-659067D1*
X3059990Y-609082D2*
X3110015D1*
X3059990D2*
Y-659067D1*
X3100010Y-1009068D2*
X3110015D1*
X3059990Y-969069D2*
Y-959083D1*
D62*
X3154980Y-1088474D3*
X3100010Y-1009068D2*
D10*
X3059990Y-969069D1*
X4933990Y-661736D2*
X4984015D1*
X4933990D2*
Y-711720D1*
Y-1061721D2*
X4984015D1*
X4933990D2*
Y-1011736D1*
X5434010Y-1061721D2*
X5383985D1*
X5434010D2*
Y-1011736D1*
X5393990Y-661736D2*
X5383985D1*
X5434010Y-701734D2*
Y-711720D1*
D62*
X5339020Y-582329D3*
X5393990Y-661736D2*
D10*
X5434010Y-701734D1*
G36*
X5718810Y2122215D2*
X5678498D1*
Y2194180D1*
X5718810D1*
Y2122215D1*
G37*
G36*
X5311684Y3008865D2*
X5271371D1*
Y3080830D1*
X5311684D1*
Y3008865D1*
G37*
G36*
X5426098Y964270D2*
X5498064D1*
Y1004582D1*
X5426098D1*
Y964270D1*
G37*
G36*
X5908104Y3805348D2*
X5867791D1*
Y3877314D1*
X5908104D1*
Y3805348D1*
G37*
G36*
X5223598Y1435020D2*
X5295564D1*
Y1475332D1*
X5223598D1*
Y1435020D1*
G37*
G36*
X5615020Y2046402D2*
X5655332D1*
Y1974436D1*
X5615020D1*
Y2046402D1*
G37*
G36*
X5353598Y1865020D2*
X5425564D1*
Y1905332D1*
X5353598D1*
Y1865020D1*
G37*
G36*
X5303598Y1085020D2*
X5375564D1*
Y1125332D1*
X5303598D1*
Y1085020D1*
G37*
G36*
X5183598Y1125020D2*
X5255564D1*
Y1165332D1*
X5183598D1*
Y1125020D1*
G37*
G36*
X5215020Y1736402D2*
X5255332D1*
Y1664436D1*
X5215020D1*
Y1736402D1*
G37*
G36*
X5937145Y3423704D2*
X5865180D1*
Y3383391D1*
X5937145D1*
Y3423704D1*
G37*
G36*
X5602234Y2958012D2*
X5561921D1*
Y3029977D1*
X5602234D1*
Y2958012D1*
G37*
G36*
X5830667Y3021765D2*
X5790354D1*
Y3093730D1*
X5830667D1*
Y3021765D1*
G37*
G36*
X5841344Y3693132D2*
X5801031D1*
Y3765097D1*
X5841344D1*
Y3693132D1*
G37*
G36*
X5951080Y3554412D2*
X5910768D1*
Y3626377D1*
X5951080D1*
Y3554412D1*
G37*
G36*
X5955587Y3164035D2*
X5915274D1*
Y3236000D1*
X5955587D1*
Y3164035D1*
G37*
X5825014Y1670010D2*
D10*
Y1619985D1*
Y1670010D2*
X5775030D1*
X5425029D2*
Y1619985D1*
Y1670010D2*
X5475014D1*
X5425029Y1169990D2*
Y1220015D1*
Y1169990D2*
X5475014D1*
X5825014Y1210010D2*
Y1220015D1*
X5785016Y1169990D2*
X5775030D1*
D66*
X5904421Y1264980D3*
X5825014Y1210010D2*
D10*
X5785016Y1169990D1*
X5329986Y3184990D2*
Y3235015D1*
Y3184990D2*
X5379970D1*
X5729971D2*
Y3235015D1*
Y3184990D2*
X5679986D1*
X5729971Y3685010D2*
Y3634985D1*
Y3685010D2*
X5679986D1*
X5329986Y3644990D2*
Y3634985D1*
X5369984Y3685010D2*
X5379970D1*
D66*
X5250579Y3590020D3*
X5329986Y3644990D2*
D10*
X5369984Y3685010D1*
G36*
X2782778Y5733480D2*
X2710813D1*
Y5693168D1*
X2782778D1*
Y5733480D1*
G37*
G36*
X4016402Y6064980D2*
X3944436D1*
Y6024668D1*
X4016402D1*
Y6064980D1*
G37*
G36*
X5050854Y5789722D2*
X5010541D1*
Y5861687D1*
X5050854D1*
Y5789722D1*
G37*
G36*
X1512778Y6130357D2*
X1440813D1*
Y6090044D1*
X1512778D1*
Y6130357D1*
G37*
G36*
X4363598Y5455020D2*
X4435564D1*
Y5495332D1*
X4363598D1*
Y5455020D1*
G37*
G36*
X4059348Y5887020D2*
X4131314D1*
Y5927332D1*
X4059348D1*
Y5887020D1*
G37*
G36*
X4129980Y5628598D2*
X4089668D1*
Y5700564D1*
X4129980D1*
Y5628598D1*
G37*
G36*
X4984980Y5663598D2*
X4944668D1*
Y5735564D1*
X4984980D1*
Y5663598D1*
G37*
G36*
X4839980Y5508598D2*
X4799668D1*
Y5580564D1*
X4839980D1*
Y5508598D1*
G37*
G36*
X4224980Y5503598D2*
X4184668D1*
Y5575564D1*
X4224980D1*
Y5503598D1*
G37*
G36*
X2092893Y6386402D2*
X2133206D1*
Y6314436D1*
X2092893D1*
Y6386402D1*
G37*
G36*
X2476402Y5914980D2*
X2404436D1*
Y5874668D1*
X2476402D1*
Y5914980D1*
G37*
G36*
X2435020Y6126402D2*
X2475332D1*
Y6054436D1*
X2435020D1*
Y6126402D1*
G37*
G36*
X1651402Y6189980D2*
X1579436D1*
Y6149668D1*
X1651402D1*
Y6189980D1*
G37*
G36*
X1786402Y6334980D2*
X1714436D1*
Y6294668D1*
X1786402D1*
Y6334980D1*
G37*
G36*
X2434480Y6202472D2*
X2394168D1*
Y6274437D1*
X2434480D1*
Y6202472D1*
G37*
X4299990Y6105014D2*
D10*
X4350015D1*
X4299990D2*
Y6055030D1*
Y5705029D2*
X4350015D1*
X4299990D2*
Y5755014D1*
X4800010Y5705029D2*
X4749985D1*
X4800010D2*
Y5755014D1*
X4759990Y6105014D2*
X4749985D1*
X4800010Y6065016D2*
Y6055030D1*
D62*
X4705020Y6184421D3*
X4759990Y6105014D2*
D10*
X4800010Y6065016D1*
X2265010Y5729986D2*
X2214985D1*
X2265010D2*
Y5779970D1*
Y6129971D2*
X2214985D1*
X2265010D2*
Y6079986D1*
X1764990Y6129971D2*
X1815015D1*
X1764990D2*
Y6079986D1*
X1805010Y5729986D2*
X1815015D1*
X1764990Y5769984D2*
Y5779970D1*
D62*
X1859980Y5650579D3*
X1805010Y5729986D2*
D10*
X1764990Y5769984D1*
X987750Y-643250D2*
D22*
Y-960750D1*
X3825877Y4270377D2*
D18*
X4313750D1*
Y1136997D1*
X3825877D1*
Y4270377D1*
X233000Y-334000D2*
D28*
X1773000D1*
Y-969000D1*
X233000D1*
Y-334000D1*
X243000Y-639000D2*
X1773000D1*
X6647373Y3443000D2*
D29*
X6657377D1*
X6647373D1*
X6667377D1*
X6647373D1*
X6075873Y4051250D2*
D28*
X6674873D1*
Y3218250D1*
X6075873D1*
Y4051250D1*
X4322283Y4256560D2*
D18*
X4996997D1*
Y1140067D1*
X4322283D1*
Y4256560D1*
X6071250Y1503000D2*
D28*
X6670250D1*
Y670000D1*
X6071250D1*
Y1503000D1*
X2057000Y-332873D2*
X2890000D1*
Y-931873D1*
X2057000D1*
Y-332873D1*
X5950000Y-380000D2*
X6783000D1*
Y-979000D1*
X5950000D1*
Y-380000D1*
X5328000Y5921127D2*
X6161000D1*
Y5322127D1*
X5328000D1*
Y5921127D1*
X508000Y5895250D2*
X1341000D1*
Y5296250D1*
X508000D1*
Y5895250D1*
X6075873Y2783000D2*
X6674873D1*
Y1950000D1*
X6075873D1*
Y2783000D1*
X2968000Y5909873D2*
X3801000D1*
Y5310873D1*
X2968000D1*
Y5909873D1*
X3763000Y-397500D2*
X4596000D1*
Y-996500D1*
X3763000D1*
Y-397500D1*
G36*
X1381123Y6381750D2*
X1698623D1*
Y5905500D1*
X1381123D1*
Y6381750D1*
G37*
G36*
X4826000Y5889627D2*
X5207000D1*
Y5635627D1*
X4826000D1*
Y5889627D1*
G37*
G36*
X5635623Y3952877D2*
X6080123D1*
Y3651250D1*
X5635623D1*
Y3952877D1*
G37*
G36*
X5286373Y1270003D2*
X5572123D1*
Y809627D1*
X5286373D1*
Y1270003D1*
G37*
G36*
X5540373Y-904873D2*
X5826123D1*
X5683250Y-1158873D1*
X5397500D1*
X5540373Y-904873D1*
G37*
G36*
X2746373Y-698500D2*
X3000373D1*
X3111500Y-523873D1*
Y-349250D1*
X2889250D1*
X2857500Y-412750D1*
X2714623Y-698500D1*
X2746373D1*
G37*
X611537Y1391572D2*
D130*
X599464Y1385536D1*
X587250Y1373322D1*
X581213Y1361249D1*
Y1336963D1*
X587250Y1324749D1*
X599463Y1312676D1*
X611536Y1306499D1*
X629786Y1300463D1*
X660250D1*
X678360Y1306499D1*
X690573Y1312676D1*
X702646Y1324749D1*
X708823Y1336962D1*
Y1361249D1*
X702646Y1373322D1*
X690573Y1385535D1*
X678360Y1391572D1*
X605640Y1430788D2*
X599464Y1443001D1*
X581354Y1461251D1*
X708823D1*
X2543482Y-1009436D2*
X2531409Y-1015473D1*
X2519195Y-1027686D1*
X2513158Y-1039759D1*
Y-1064046D1*
X2519195Y-1076259D1*
X2531408Y-1088332D1*
X2543481Y-1094509D1*
X2561731Y-1100546D1*
X2592195D1*
X2610305Y-1094509D1*
X2622518Y-1088332D1*
X2634591Y-1076259D1*
X2640768Y-1064046D1*
Y-1039759D1*
X2634591Y-1027686D1*
X2622518Y-1015473D1*
X2610305Y-1009436D1*
X2543622Y-964043D2*
X2537585D1*
X2525372Y-958007D1*
X2519335Y-951970D1*
X2513299Y-939757D1*
Y-915470D1*
X2519335Y-903397D1*
X2525372Y-897361D1*
X2537585Y-891184D1*
X2549659D1*
X2561872Y-897361D1*
X2579982Y-909434D1*
X2640768Y-970221D1*
Y-885147D1*
X6925582Y-604473D2*
X6913509Y-610509D1*
X6901295Y-622723D1*
X6895258Y-634796D1*
Y-659082D1*
X6901295Y-671296D1*
X6913508Y-683369D1*
X6925581Y-689546D1*
X6943831Y-695582D1*
X6974295D1*
X6992405Y-689546D1*
X7004618Y-683369D1*
X7016691Y-671296D1*
X7022868Y-659082D1*
Y-634796D1*
X7016691Y-622723D1*
X7004618Y-610509D1*
X6992405Y-604473D1*
X6895399Y-553044D2*
Y-486361D1*
X6943972Y-522721D1*
Y-504471D1*
X6950009Y-492398D1*
X6956045Y-486361D1*
X6974295Y-480184D1*
X6986368D1*
X7004618Y-486361D1*
X7016832Y-498434D1*
X7022868Y-516684D1*
Y-534934D1*
X7016832Y-553044D1*
X7010655Y-559080D1*
X6998582Y-565257D1*
X6451838Y1409542D2*
X6439765Y1403506D1*
X6427552Y1391292D1*
X6421515Y1379219D1*
Y1354933D1*
X6427552Y1342719D1*
X6439765Y1330646D1*
X6451838Y1324469D1*
X6470088Y1318433D1*
X6500552D1*
X6518661Y1324469D1*
X6530875Y1330646D1*
X6542948Y1342719D1*
X6549125Y1354933D1*
Y1379219D1*
X6542948Y1391292D1*
X6530875Y1403506D1*
X6518661Y1409542D1*
X6549125Y1509544D2*
X6421656Y1509545D1*
X6506588Y1448758D1*
Y1539868D1*
X6872985Y4235184D2*
X6860912Y4229147D1*
X6848698Y4216934D1*
X6842662Y4204861D1*
Y4180574D1*
X6848698Y4168361D1*
X6860912Y4156288D1*
X6872985Y4150111D1*
X6891235Y4144074D1*
X6921698D1*
X6939808Y4150111D1*
X6952021Y4156288D1*
X6964095Y4168361D1*
X6970271Y4180574D1*
Y4204861D1*
X6964095Y4216934D1*
X6952021Y4229147D1*
X6939808Y4235184D1*
X6842802Y4347259D2*
Y4286613D1*
X6897412Y4280577D1*
X6891375Y4286613D1*
X6885198Y4304863D1*
Y4322973D1*
X6891375Y4341223D1*
X6903448Y4353436D1*
X6921698Y4359473D1*
X6933771D1*
X6952021Y4353436D1*
X6964235Y4341223D1*
X6970271Y4322973D1*
Y4304863D1*
X6964235Y4286613D1*
X6958058Y4280576D1*
X6945985Y4274400D1*
X6113082Y5698772D2*
X6101009Y5692736D1*
X6088795Y5680523D1*
X6082758Y5668449D1*
Y5644163D1*
X6088795Y5631949D1*
X6101008Y5619876D1*
X6113081Y5613699D1*
X6131331Y5607663D1*
X6161795D1*
X6179905Y5613699D1*
X6192118Y5619876D1*
X6204191Y5631949D1*
X6210368Y5644163D1*
Y5668449D1*
X6204191Y5680522D1*
X6192118Y5692736D1*
X6179905Y5698772D1*
X6101009Y5810848D2*
X6088935Y5804811D1*
X6082899Y5786561D1*
Y5774488D1*
X6088935Y5756238D1*
X6107185Y5744025D1*
X6137509Y5737988D1*
X6167832D1*
X6192118Y5744025D1*
X6204332Y5756238D1*
X6210368Y5774488D1*
Y5780524D1*
X6204332Y5798634D1*
X6192118Y5810848D1*
X6173868Y5816884D1*
X6167832D1*
X6149582Y5810848D1*
X6137509Y5798634D1*
X6131472Y5780525D1*
Y5774488D1*
X6137509Y5756238D1*
X6149582Y5744025D1*
X6167832Y5737988D1*
X378732Y5440907D2*
X366659Y5434871D1*
X354445Y5422657D1*
X348408Y5410584D1*
Y5386298D1*
X354445Y5374084D1*
X366658Y5362011D1*
X378731Y5355834D1*
X396981Y5349798D1*
X427445D1*
X445555Y5355834D1*
X457768Y5362011D1*
X469841Y5374084D1*
X476018Y5386298D1*
Y5410584D1*
X469841Y5422657D1*
X457768Y5434871D1*
X445555Y5440907D1*
X476018Y5504409D2*
X348549Y5565196D1*
Y5480123D1*
X4880212Y-1553619D2*
X4868139Y-1559656D1*
X4855925Y-1571869D1*
X4849888Y-1583942D1*
Y-1608229D1*
X4855925Y-1620442D1*
X4868138Y-1632515D1*
X4880211Y-1638692D1*
X4898461Y-1644729D1*
X4928925D1*
X4947035Y-1638692D1*
X4959248Y-1632515D1*
X4971321Y-1620442D1*
X4977498Y-1608229D1*
Y-1583942D1*
X4971321Y-1571869D1*
X4959248Y-1559656D1*
X4947035Y-1553619D1*
X4850029Y-1484080D2*
X4856065Y-1502190D1*
X4868139Y-1508367D1*
X4880352D1*
X4892425Y-1502190D1*
X4898602Y-1490117D1*
X4904639Y-1465831D1*
X4910675Y-1447581D1*
X4922889Y-1435507D1*
X4934962Y-1429471D1*
X4953212D1*
X4965285Y-1435508D1*
X4971462Y-1441544D1*
X4977498Y-1459794D1*
Y-1484081D1*
X4971462Y-1502190D1*
X4965285Y-1508367D1*
X4953212Y-1514404D1*
X4934962D1*
X4922889Y-1508367D1*
X4910675Y-1496154D1*
X4904639Y-1478044D1*
X4898602Y-1453757D1*
X4892425Y-1441544D1*
X4880352Y-1435507D1*
X4868139D1*
X4856065Y-1441544D1*
X4850029Y-1459794D1*
Y-1484080D1*
X6573455Y2957426D2*
X6561382Y2951389D1*
X6549168Y2939176D1*
X6543132Y2927103D1*
Y2902816D1*
X6549168Y2890603D1*
X6561382Y2878530D1*
X6573455Y2872353D1*
X6591705Y2866316D1*
X6622168D1*
X6640278Y2872353D1*
X6652491Y2878530D1*
X6664565Y2890603D1*
X6670741Y2902816D1*
Y2927102D1*
X6664565Y2939175D1*
X6652491Y2951389D1*
X6640278Y2957426D1*
X6585668Y3075678D2*
X6603918Y3069501D1*
X6616132Y3057428D1*
X6622168Y3039178D1*
Y3033141D1*
X6616132Y3014891D1*
X6603918Y3002818D1*
X6585668Y2996641D1*
X6579632D1*
X6561382Y3002818D1*
X6549309Y3014891D1*
X6543272Y3033141D1*
Y3039178D1*
X6549309Y3057428D1*
X6561382Y3069501D1*
X6585668Y3075678D1*
X6616132D1*
X6646455Y3069501D1*
X6664705Y3057428D1*
X6670741Y3039178D1*
Y3027105D1*
X6664705Y3008855D1*
X6652491Y3002818D1*
X3049208Y5724344D2*
X3037135Y5718308D1*
X3024922Y5706094D1*
X3018885Y5694021D1*
Y5669735D1*
X3024922Y5657521D1*
X3037135Y5645448D1*
X3049208Y5639271D1*
X3067458Y5633235D1*
X3097922D1*
X3116031Y5639271D1*
X3128245Y5645448D1*
X3140318Y5657521D1*
X3146495Y5669735D1*
Y5694021D1*
X3140318Y5706094D1*
X3128245Y5718308D1*
X3116031Y5724344D1*
X3043312Y5763560D2*
X3037135Y5775774D1*
X3019026Y5794024D1*
X3146495Y5794023D1*
X3019026Y5869739D2*
X3025062Y5851489D1*
X3043312Y5839276D1*
X3073635Y5833239D1*
X3091885D1*
X3122208Y5839276D1*
X3140458Y5851489D1*
X3146495Y5869739D1*
Y5881812D1*
X3140458Y5900062D1*
X3122208Y5912135D1*
X3091885Y5918312D1*
X3073635D1*
X3043312Y5912135D1*
X3025062Y5900062D1*
X3019026Y5881812D1*
Y5869739D1*
X3043312Y5912135D2*
X3122208Y5839276D1*
X3462758Y730103D2*
X3450685Y724066D1*
X3438472Y711853D1*
X3432435Y699780D1*
Y675493D1*
X3438472Y663280D1*
X3450685Y651207D1*
X3462758Y645030D1*
X3481008Y638993D1*
X3511472D1*
X3529581Y645030D1*
X3541795Y651206D1*
X3553868Y663280D1*
X3560045Y675493D1*
Y699779D1*
X3553868Y711852D1*
X3541795Y724066D1*
X3529581Y730102D1*
X3456862Y769318D2*
X3450685Y781532D1*
X3432576Y799782D1*
X3560045D1*
X3456862Y838997D2*
X3450685Y851211D1*
X3432576Y869461D1*
X3560045D1*
X-282987Y-452749D2*
X-155377D1*
Y-410213D1*
X-161554Y-391963D1*
X-173627Y-379749D1*
X-185840Y-373713D1*
X-203950Y-367676D1*
X-234413D1*
X-252663Y-373713D1*
X-264736Y-379749D1*
X-276950Y-391963D1*
X-282987Y-410213D1*
Y-452749D1*
X-258560Y-328460D2*
X-264736Y-316247D1*
X-282846Y-297997D1*
X-155377D1*
X2985090Y-1456594D2*
X3112700D1*
Y-1414058D1*
X3106523Y-1395808D1*
X3094450Y-1383594D1*
X3082236Y-1377558D1*
X3064127Y-1371521D1*
X3033663D1*
X3015413Y-1377557D1*
X3003340Y-1383594D1*
X2991127Y-1395807D1*
X2985090Y-1414057D1*
Y-1456594D1*
X3015554Y-1326128D2*
X3009517D1*
X2997304Y-1320092D1*
X2991267Y-1314055D1*
X2985231Y-1301842D1*
Y-1277555D1*
X2991267Y-1265482D1*
X2997304Y-1259446D1*
X3009517Y-1253269D1*
X3021590D1*
X3033804Y-1259446D1*
X3051913Y-1271519D1*
X3112700Y-1332305D1*
Y-1247232D1*
X7081917Y-1806101D2*
X7209526D1*
X7209527Y-1763564D1*
X7203350Y-1745314D1*
X7191277Y-1733101D1*
X7179063Y-1727064D1*
X7160953Y-1721028D1*
X7130490D1*
X7112240Y-1727064D1*
X7100167Y-1733101D1*
X7087953Y-1745314D1*
X7081917Y-1763564D1*
Y-1806101D1*
X7082057Y-1669598D2*
Y-1602916D1*
X7130630Y-1639275D1*
Y-1621026D1*
X7136667Y-1608952D1*
X7142703Y-1602916D1*
X7160953Y-1596739D1*
X7173026D1*
X7191276Y-1602916D1*
X7203490Y-1614989D1*
X7209526Y-1633239D1*
Y-1651489D1*
X7203490Y-1669599D1*
X7197313Y-1675635D1*
X7185240Y-1681812D1*
X6939678Y431091D2*
X7067288D1*
Y473628D1*
X7061111Y491877D1*
X7049038Y504091D1*
X7036825Y510128D1*
X7018715Y516164D1*
X6988252D1*
X6970002Y510128D1*
X6957929Y504091D1*
X6945715Y491878D1*
X6939678Y473628D1*
Y431091D1*
X7067288Y616166D2*
X6939819D1*
X7024752Y555380D1*
Y646489D1*
X7320348Y4399239D2*
X7447958D1*
Y4441776D1*
X7441781Y4460026D1*
X7429708Y4472239D1*
X7417495Y4478276D1*
X7399385Y4484312D1*
X7368922D1*
X7350672Y4478276D1*
X7338599Y4472239D1*
X7326385Y4460026D1*
X7320348Y4441776D1*
Y4399239D1*
X7320489Y4596388D2*
Y4535742D1*
X7375099Y4529705D1*
X7369062Y4535741D1*
X7362885Y4553991D1*
Y4572101D1*
X7369062Y4590351D1*
X7381135Y4602564D1*
X7399385Y4608601D1*
X7411458D1*
X7429708Y4602564D1*
X7441922Y4590351D1*
X7447958Y4572101D1*
Y4553991D1*
X7441922Y4535741D1*
X7435745Y4529705D1*
X7423672Y4523528D1*
X6499717Y6419745D2*
X6627326D1*
X6627327Y6462281D1*
X6621150Y6480531D1*
X6609077Y6492744D1*
X6596863Y6498781D1*
X6578753Y6504817D1*
X6548290Y6504818D1*
X6530040Y6498781D1*
X6517967Y6492744D1*
X6505753Y6480531D1*
X6499717Y6462281D1*
Y6419745D1*
X6517967Y6616893D2*
X6505894Y6610856D1*
X6499857Y6592606D1*
Y6580533D1*
X6505894Y6562283D1*
X6524144Y6550070D1*
X6554467Y6544033D1*
X6584790D1*
X6609076Y6550070D1*
X6621290Y6562283D1*
X6627326Y6580533D1*
Y6586570D1*
X6621290Y6604679D1*
X6609076Y6616893D1*
X6590826Y6622929D1*
X6584790D1*
X6566540Y6616893D1*
X6554467Y6604679D1*
X6548430Y6586570D1*
Y6580533D1*
X6554467Y6562283D1*
X6566540Y6550070D1*
X6584790Y6544033D1*
X277600Y6094106D2*
X405210D1*
Y6136642D1*
X399033Y6154892D1*
X386960Y6167106D1*
X374746Y6173142D1*
X356637Y6179179D1*
X326173D1*
X307923Y6173143D1*
X295850Y6167106D1*
X283637Y6154893D1*
X277600Y6136643D1*
Y6094106D1*
X405210Y6242681D2*
X277741Y6303468D1*
Y6218395D1*
X45507Y-1254791D2*
Y-1333828D1*
X173116D1*
X106293D2*
Y-1285254D1*
X69934Y-1215575D2*
X63757Y-1203362D1*
X45647Y-1185112D1*
X173116D1*
X2570290Y1405291D2*
Y1326254D1*
X2697900D1*
X2631077D2*
Y1374827D1*
X2600754Y1450683D2*
X2594717D1*
X2582504Y1456720D1*
X2576467Y1462756D1*
X2570431Y1474970D1*
Y1499256D1*
X2576467Y1511329D1*
X2582504Y1517366D1*
X2594717Y1523543D1*
X2606790D1*
X2619004Y1517366D1*
X2637113Y1505293D1*
X2697900Y1444506D1*
Y1529579D1*
X1876420Y1329287D2*
Y1250251D1*
X2004030D1*
X1937207D2*
Y1298824D1*
X1876561Y1380717D2*
Y1447399D1*
X1925134Y1411040D1*
Y1429290D1*
X1931170Y1441363D1*
X1937207Y1447399D1*
X1955457Y1453576D1*
X1967530D1*
X1985780Y1447399D1*
X1997993Y1435326D1*
X2004030Y1417076D1*
Y1398826D1*
X1997993Y1380716D1*
X1991816Y1374680D1*
X1979743Y1368503D1*
X3169226Y6814115D2*
Y6686505D1*
X3293515Y6814115D2*
Y6686505D1*
X3208441Y6814115D1*
Y6686505D1*
X3405590Y6813975D2*
X3344944D1*
X3338907Y6759365D1*
X3344944Y6765401D1*
X3363194Y6771578D1*
X3381303D1*
X3399553Y6765401D1*
X3411767Y6753328D1*
X3417803Y6735078D1*
Y6723005D1*
X3411767Y6704755D1*
X3399553Y6692542D1*
X3381303Y6686505D1*
X3363194D1*
X3344944Y6692542D1*
X3338907Y6698719D1*
X3332730Y6710792D1*
X3457019Y6665448D2*
X3572415D1*
X3611631Y6789688D2*
X3623844Y6795865D1*
X3642094Y6813975D1*
Y6686505D1*
X317905Y-1264702D2*
X330119Y-1258525D1*
X348369Y-1240415D1*
Y-1367885D1*
X387584Y-1282812D2*
X454408Y-1367885D1*
Y-1282812D2*
X387584Y-1367885D1*
X554410D2*
Y-1240415D1*
X493623Y-1325348D1*
X584733D1*
X747395Y-1240275D2*
Y-1367885D1*
X832468Y-1240275D2*
Y-1367885D1*
X747395Y-1301062D2*
X832468D1*
X902007Y-1282812D2*
X889934Y-1288848D1*
X877720Y-1301062D1*
X871684Y-1319312D1*
Y-1331385D1*
X877720Y-1349635D1*
X889934Y-1361708D1*
X902007Y-1367885D1*
X920257D1*
X932470Y-1361708D1*
X944543Y-1349635D1*
X950720Y-1331385D1*
Y-1319312D1*
X944543Y-1301062D1*
X932470Y-1288848D1*
X920257Y-1282812D1*
X902007D1*
X989936D2*
Y-1367885D1*
Y-1319312D2*
X996113Y-1301062D1*
X1008186Y-1288848D1*
X1020399Y-1282812D1*
X1038649D1*
X1077865Y-1240275D2*
X1083902Y-1246312D1*
X1090079Y-1240275D1*
X1083902Y-1234098D1*
X1077865Y-1240275D1*
X1083902Y-1282812D2*
Y-1367885D1*
X1129294Y-1282812D2*
X1196117D1*
X1129294Y-1367885D1*
X1196117D1*
X1265656Y-1282812D2*
X1253583Y-1288848D1*
X1241370Y-1301062D1*
X1235333Y-1319312D1*
Y-1331385D1*
X1241370Y-1349635D1*
X1253583Y-1361708D1*
X1265656Y-1367885D1*
X1283906D1*
X1296120Y-1361708D1*
X1308193Y-1349635D1*
X1314370Y-1331385D1*
Y-1319312D1*
X1308193Y-1301062D1*
X1296120Y-1288848D1*
X1283906Y-1282812D1*
X1265656D1*
X1353585D2*
Y-1367885D1*
Y-1307098D2*
X1371835Y-1288848D1*
X1384049Y-1282812D1*
X1402158D1*
X1414372Y-1288848D1*
X1420408Y-1307098D1*
Y-1367885D1*
X1477874Y-1240275D2*
Y-1343598D1*
X1483911Y-1361708D1*
X1496124Y-1367885D1*
X1508197D1*
X1459624Y-1282812D2*
X1502161D1*
X1620272D2*
Y-1367885D1*
Y-1301062D2*
X1608199Y-1288848D1*
X1595986Y-1282812D1*
X1577876D1*
X1565663Y-1288848D1*
X1553590Y-1301062D1*
X1547413Y-1319312D1*
Y-1331385D1*
X1553590Y-1349635D1*
X1565663Y-1361708D1*
X1577876Y-1367885D1*
X1595986D1*
X1608199Y-1361708D1*
X1620272Y-1349635D1*
X1659488Y-1240275D2*
Y-1367885D1*
X808651Y3824478D2*
Y3727332D1*
X802614Y3709082D1*
X796437Y3703046D1*
X784364Y3696869D1*
X772151D1*
X760078Y3703046D1*
X754041Y3709082D1*
X747864Y3727332D1*
Y3739405D1*
X908653Y3696869D2*
Y3824338D1*
X847866Y3739405D1*
X938976D1*
X-857554Y-1016263D2*
Y-1113410D1*
X-863591Y-1131660D1*
X-869768Y-1137696D1*
X-881841Y-1143873D1*
X-894054D1*
X-906127Y-1137696D1*
X-912164Y-1131660D1*
X-918341Y-1113410D1*
Y-1101336D1*
X-788015Y-1016404D2*
X-806125Y-1022440D1*
X-812302Y-1034513D1*
Y-1046727D1*
X-806125Y-1058800D1*
X-794052Y-1064977D1*
X-769765Y-1071013D1*
X-751515Y-1077050D1*
X-739442Y-1089263D1*
X-733406Y-1101336D1*
Y-1119586D1*
X-739442Y-1131660D1*
X-745479Y-1137836D1*
X-763729Y-1143873D1*
X-788015D1*
X-806125Y-1137836D1*
X-812302Y-1131660D1*
X-818339Y-1119586D1*
Y-1101336D1*
X-812302Y-1089263D1*
X-800089Y-1077050D1*
X-781979Y-1071013D1*
X-757692Y-1064977D1*
X-745479Y-1058800D1*
X-739442Y-1046727D1*
Y-1034513D1*
X-745479Y-1022440D1*
X-763729Y-1016404D1*
X-788015D1*
X4090480Y-1693639D2*
X4187626D1*
X4205876Y-1699676D1*
X4211913Y-1705853D1*
X4218090Y-1717926D1*
Y-1730139D1*
X4211913Y-1742212D1*
X4205876Y-1748249D1*
X4187626Y-1754426D1*
X4175553D1*
X4133017Y-1575387D2*
X4151267Y-1581564D1*
X4163480Y-1593637D1*
X4169517Y-1611887D1*
Y-1617924D1*
X4163480Y-1636174D1*
X4151267Y-1648247D1*
X4133017Y-1654424D1*
X4126980D1*
X4108730Y-1648247D1*
X4096657Y-1636174D1*
X4090621Y-1617924D1*
Y-1611887D1*
X4096657Y-1593637D1*
X4108730Y-1581564D1*
X4133017Y-1575387D1*
X4163480D1*
X4193803Y-1581564D1*
X4212053Y-1593637D1*
X4218090Y-1611887D1*
Y-1623960D1*
X4212053Y-1642210D1*
X4199840Y-1648247D1*
X7239366Y2495447D2*
Y2398300D1*
X7233329Y2380050D1*
X7227153Y2374014D1*
X7215079Y2367837D1*
X7202866D1*
X7190793Y2374014D1*
X7184756Y2380050D1*
X7178579Y2398300D1*
Y2410374D1*
X7278582Y2471020D2*
X7290795Y2477197D1*
X7309045Y2495306D1*
Y2367837D1*
X7384761Y2495306D2*
X7366511Y2489270D1*
X7354297Y2471020D1*
X7348261Y2440697D1*
Y2422447D1*
X7354297Y2392124D1*
X7366511Y2373874D1*
X7384761Y2367837D1*
X7396834D1*
X7415084Y2373874D1*
X7427157Y2392124D1*
X7433334Y2422447D1*
Y2440697D1*
X7427157Y2471020D1*
X7415084Y2489270D1*
X7396834Y2495306D1*
X7384761D1*
X7427157Y2471020D2*
X7354297Y2392124D1*
X2078237Y-1675278D2*
X2084273Y-1687491D1*
X2096487Y-1699564D1*
X2108560Y-1705741D1*
X2126810Y-1711778D1*
X2157273D1*
X2175383Y-1705741D1*
X2187596Y-1699564D1*
X2199670Y-1687491D1*
X2205846Y-1675278D1*
Y-1650991D1*
X2199670Y-1638918D1*
X2187596Y-1626705D1*
X2175383Y-1620668D1*
X2157273Y-1614632D1*
X2126810D1*
X2108560Y-1620668D1*
X2096487Y-1626705D1*
X2084273Y-1638918D1*
X2078237Y-1650991D1*
Y-1675278D1*
Y-1575416D2*
X2169346D1*
X2187596Y-1569380D1*
X2199670Y-1557166D1*
X2205846Y-1538916D1*
Y-1526843D1*
X2199669Y-1508593D1*
X2187596Y-1496380D1*
X2169346Y-1490343D1*
X2078237D1*
Y-1408591D2*
X2205846D1*
X2078237Y-1451127D2*
Y-1366054D1*
X2102664Y-1326839D2*
X2096487Y-1314625D1*
X2078377Y-1296375D1*
X2205846D1*
X5745610Y-1777333D2*
X5751647Y-1789546D1*
X5763860Y-1801619D1*
X5775933Y-1807796D1*
X5794183Y-1813833D1*
X5824647D1*
X5842756Y-1807796D1*
X5854970Y-1801619D1*
X5867043Y-1789546D1*
X5873220Y-1777333D1*
Y-1753046D1*
X5867043Y-1740973D1*
X5854970Y-1728760D1*
X5842756Y-1722723D1*
X5824647Y-1716687D1*
X5794183D1*
X5775933Y-1722723D1*
X5763860Y-1728760D1*
X5751647Y-1740973D1*
X5745610Y-1753046D1*
Y-1777333D1*
Y-1677471D2*
X5836720D1*
X5854970Y-1671434D1*
X5867043Y-1659221D1*
X5873220Y-1640971D1*
Y-1628898D1*
X5867043Y-1610648D1*
X5854970Y-1598434D1*
X5836720Y-1592398D1*
X5745610D1*
Y-1510646D2*
X5873220D1*
X5745610Y-1553182D2*
Y-1468109D1*
X5776074Y-1422717D2*
X5770037D1*
X5757824Y-1416680D1*
X5751787Y-1410643D1*
X5745751Y-1398430D1*
Y-1374143D1*
X5751787Y-1362070D1*
X5757824Y-1356034D1*
X5770037Y-1349857D1*
X5782110D1*
X5794324Y-1356034D1*
X5812433Y-1368107D1*
X5873220Y-1428894D1*
Y-1343820D1*
X7037450Y1395447D2*
X7025237Y1389410D1*
X7013164Y1377197D1*
X7006987Y1365124D1*
X7000950Y1346874D1*
Y1316410D1*
X7006987Y1298300D1*
X7013164Y1286087D1*
X7025237Y1274014D1*
X7037450Y1267837D1*
X7061737D1*
X7073810Y1274014D1*
X7086024Y1286087D1*
X7092060Y1298300D1*
X7098097Y1316410D1*
Y1346874D1*
X7092060Y1365124D1*
X7086024Y1377197D1*
X7073810Y1389410D1*
X7061737Y1395447D1*
X7037450D1*
X7137312D2*
Y1304337D1*
X7143349Y1286087D1*
X7155562Y1274014D1*
X7173812Y1267837D1*
X7185885D1*
X7204135Y1274014D1*
X7216349Y1286087D1*
X7222385Y1304337D1*
Y1395447D1*
X7304138D2*
Y1267837D1*
X7261601Y1395447D2*
X7346674D1*
X7398103Y1395306D2*
X7464786D1*
X7428426Y1346733D1*
X7446676D1*
X7458749Y1340697D1*
X7464786Y1334660D1*
X7470963Y1316410D1*
Y1304337D1*
X7464786Y1286087D1*
X7452713Y1273874D1*
X7434463Y1267837D1*
X7416213D1*
X7398103Y1273874D1*
X7392067Y1280050D1*
X7385890Y1292124D1*
X7084432Y3775447D2*
X7072219Y3769410D1*
X7060146Y3757197D1*
X7053969Y3745124D1*
X7047932Y3726874D1*
Y3696410D1*
X7053969Y3678300D1*
X7060146Y3666087D1*
X7072219Y3654014D1*
X7084432Y3647837D1*
X7108719D1*
X7120792Y3654014D1*
X7133005Y3666087D1*
X7139042Y3678300D1*
X7145078Y3696410D1*
Y3726874D1*
X7139042Y3745124D1*
X7133005Y3757197D1*
X7120792Y3769410D1*
X7108719Y3775447D1*
X7084432D1*
X7184294D2*
Y3684337D1*
X7190331Y3666087D1*
X7202544Y3654014D1*
X7220794Y3647837D1*
X7232867D1*
X7251117Y3654014D1*
X7263331Y3666087D1*
X7269367Y3684337D1*
Y3775447D1*
X7351119D2*
Y3647837D1*
X7308583Y3775447D2*
X7393656D1*
X7493658Y3647837D2*
Y3775306D1*
X7432872Y3690374D1*
X7523981D1*
X5646277Y6883862D2*
X5634064Y6877825D1*
X5621991Y6865612D1*
X5615814Y6853539D1*
X5609777Y6835289D1*
Y6804825D1*
X5615814Y6786715D1*
X5621991Y6774502D1*
X5634064Y6762429D1*
X5646277Y6756252D1*
X5670564D1*
X5682637Y6762429D1*
X5694850Y6774502D1*
X5700887Y6786715D1*
X5706923Y6804825D1*
Y6835289D1*
X5700887Y6853539D1*
X5694850Y6865612D1*
X5682637Y6877825D1*
X5670564Y6883862D1*
X5646277D1*
X5746139D2*
Y6792752D1*
X5752175Y6774502D1*
X5764389Y6762429D1*
X5782639Y6756252D1*
X5794712D1*
X5812962Y6762429D1*
X5825175Y6774502D1*
X5831212Y6792752D1*
Y6883862D1*
X5912964D2*
Y6756252D1*
X5870428Y6883862D2*
X5955501D1*
X6067576Y6883721D2*
X6006930D1*
X6000893Y6829112D1*
X6006930Y6835148D1*
X6025180Y6841325D1*
X6043290D1*
X6061540Y6835148D1*
X6073753Y6823075D1*
X6079790Y6804825D1*
Y6792752D1*
X6073753Y6774502D1*
X6061540Y6762289D1*
X6043290Y6756252D1*
X6025180D1*
X6006930Y6762289D1*
X6000893Y6768465D1*
X5994716Y6780539D1*
X687053Y6319036D2*
X693090Y6306822D1*
X705303Y6294749D1*
X717376Y6288572D1*
X735626Y6282536D1*
X766090D1*
X784200Y6288572D1*
X796413Y6294749D1*
X808486Y6306822D1*
X814663Y6319036D1*
Y6343322D1*
X808486Y6355395D1*
X796413Y6367609D1*
X784200Y6373645D1*
X766090Y6379682D1*
X735627D1*
X717377Y6373645D1*
X705304Y6367609D1*
X693090Y6355395D1*
X687053Y6343322D1*
Y6319036D1*
X687054Y6418898D2*
X778163D1*
X796413Y6424934D1*
X808486Y6437147D1*
X814663Y6455397D1*
Y6467471D1*
X808486Y6485721D1*
X796413Y6497934D1*
X778163Y6503971D1*
X687054D1*
Y6585723D2*
X814663D1*
X687054Y6543186D2*
Y6628259D1*
X705303Y6740335D2*
X693230Y6734298D1*
X687194Y6716048D1*
Y6703975D1*
X693230Y6685725D1*
X711480Y6673512D1*
X741803Y6667475D1*
X772127D1*
X796413Y6673511D1*
X808627Y6685725D1*
X814663Y6703975D1*
Y6710011D1*
X808627Y6728121D1*
X796413Y6740335D1*
X778163Y6746371D1*
X772127D1*
X753877Y6740335D1*
X741803Y6728121D1*
X735767Y6710012D1*
Y6703975D1*
X741803Y6685725D1*
X753877Y6673512D1*
X772127Y6667475D1*
X3176153Y-86959D2*
Y-32209D1*
X3170117Y-14100D1*
X3163940Y-7923D1*
X3151867Y-1886D1*
X3133617D1*
X3121544Y-7923D1*
X3115367Y-14100D1*
X3109330Y-32209D1*
Y-86959D1*
X3236940D1*
X3133757Y37330D2*
X3127580Y49543D1*
X3109471Y67793D1*
X3236940D1*
X3088562Y4807750D2*
X3143312D1*
X3161422Y4813787D1*
X3167599Y4819964D1*
X3173635Y4832037D1*
Y4850287D1*
X3167599Y4862360D1*
X3161422Y4868537D1*
X3143312Y4874573D1*
X3088562D1*
Y4746964D1*
X3219028Y4844110D2*
Y4850146D1*
X3225065Y4862360D1*
X3231101Y4868396D1*
X3243315Y4874433D1*
X3267601D1*
X3279674Y4868396D1*
X3285711Y4862360D1*
X3291888Y4850146D1*
Y4838073D1*
X3285711Y4825860D1*
X3273638Y4807750D1*
X3212851Y4746964D1*
X3297924D1*
X3295070Y-1442947D2*
Y-1388338D1*
X3288893Y-1370088D1*
X3282857Y-1363911D1*
X3270784Y-1357874D1*
X3258570D1*
X3246497Y-1363911D1*
X3240320Y-1370087D1*
X3234283Y-1388337D1*
Y-1442947D1*
X3361893D1*
X3295070Y-1400411D2*
X3361893Y-1357874D1*
X3234424Y-1288335D2*
X3240460Y-1306445D1*
X3252534Y-1312622D1*
X3264747D1*
X3276820Y-1306445D1*
X3282997Y-1294372D1*
X3289034Y-1270085D1*
X3295070Y-1251835D1*
X3307284Y-1239762D1*
X3319357Y-1233726D1*
X3337607D1*
X3349680Y-1239762D1*
X3355857Y-1245799D1*
X3361893Y-1264049D1*
Y-1288336D1*
X3355857Y-1306445D1*
X3349680Y-1312622D1*
X3337607Y-1318659D1*
X3319357D1*
X3307284Y-1312622D1*
X3295070Y-1300408D1*
X3289034Y-1282299D1*
X3282997Y-1258012D1*
X3276820Y-1245799D1*
X3264747Y-1239762D1*
X3252534D1*
X3240460Y-1245799D1*
X3234424Y-1264049D1*
Y-1288335D1*
X7145317Y-1475876D2*
Y-1421266D1*
X7139140Y-1403016D1*
X7133103Y-1396839D1*
X7121030Y-1390803D1*
X7108817D1*
X7096744Y-1396839D1*
X7090567Y-1403016D1*
X7084530Y-1421266D1*
Y-1475876D1*
X7212140D1*
X7145317Y-1433339D2*
X7212140Y-1390803D1*
X7127067Y-1272551D2*
X7145317Y-1278728D1*
X7157530Y-1290801D1*
X7163567Y-1309051D1*
Y-1315087D1*
X7157530Y-1333337D1*
X7145317Y-1345410D1*
X7127067Y-1351587D1*
X7121030D1*
X7102780Y-1345410D1*
X7090707Y-1333337D1*
X7084671Y-1315087D1*
Y-1309051D1*
X7090707Y-1290801D1*
X7102780Y-1278727D1*
X7127067Y-1272551D1*
X7157530D1*
X7187853Y-1278728D1*
X7206103Y-1290801D1*
X7212140Y-1309051D1*
Y-1321124D1*
X7206103Y-1339374D1*
X7193890Y-1345410D1*
X6994535Y15890D2*
Y70499D1*
X6988358Y88749D1*
X6982322Y94926D1*
X6970249Y100963D1*
X6958035D1*
X6945962Y94926D1*
X6939785Y88749D1*
X6933748Y70499D1*
Y15890D1*
X7061358D1*
X6994535Y58426D2*
X7061358Y100963D1*
X6958175Y140178D2*
X6951999Y152392D1*
X6933889Y170642D1*
X7061358D1*
X6933889Y246358D2*
X6939925Y228108D1*
X6958175Y215894D1*
X6988499Y209858D1*
X7006749Y209857D1*
X7037072Y215894D1*
X7055322Y228107D1*
X7061358Y246357D1*
Y258431D1*
X7055322Y276681D1*
X7037072Y288754D1*
X7006748Y294931D1*
X6988499D1*
X6958175Y288754D1*
X6939925Y276681D1*
X6933889Y258431D1*
Y246358D1*
X6958175Y288754D2*
X7037072Y215894D1*
X6895235Y4845561D2*
Y4900171D1*
X6889058Y4918421D1*
X6883022Y4924598D1*
X6870949Y4930634D1*
X6858735D1*
X6846662Y4924598D1*
X6840485Y4918421D1*
X6834448Y4900171D1*
Y4845561D1*
X6962058D1*
X6895235Y4888098D2*
X6962058Y4930634D1*
X6858875Y4969850D2*
X6852699Y4982063D1*
X6834589Y5000313D1*
X6962058D1*
X6858875Y5039529D2*
X6852699Y5051742D1*
X6834589Y5069992D1*
X6962058D1*
X6556437Y5889693D2*
Y5944303D1*
X6550260Y5962553D1*
X6544223Y5968730D1*
X6532150Y5974766D1*
X6519937D1*
X6507864Y5968730D1*
X6501687Y5962553D1*
X6495650Y5944303D1*
Y5889693D1*
X6623260D1*
X6556437Y5932230D2*
X6623260Y5974766D1*
X6520077Y6013982D2*
X6513900Y6026195D1*
X6495791Y6044445D1*
X6623260D1*
X6526114Y6089838D2*
X6520077D1*
X6507864Y6095874D1*
X6501827Y6101911D1*
X6495791Y6114124D1*
Y6138411D1*
X6501827Y6150484D1*
X6507864Y6156520D1*
X6520077Y6162697D1*
X6532150D1*
X6544364Y6156520D1*
X6562473Y6144447D1*
X6623260Y6083661D1*
Y6168734D1*
X-136063Y6278817D2*
Y6333426D1*
X-142240Y6351676D1*
X-148277Y6357853D1*
X-160350Y6363889D1*
X-172563Y6363890D1*
X-184636Y6357853D1*
X-190813Y6351676D1*
X-196850Y6333426D1*
Y6278817D1*
X-69240D1*
X-136063Y6321353D2*
X-69240Y6363889D1*
X-172423Y6403105D2*
X-178600Y6415319D1*
X-196709Y6433569D1*
X-69240Y6433568D1*
X-196709Y6484998D2*
Y6551680D1*
X-148136Y6515321D1*
Y6533571D1*
X-142100Y6545644D1*
X-136063Y6551680D1*
X-117813Y6557857D1*
X-105740D1*
X-87490Y6551680D1*
X-75277Y6539607D1*
X-69240Y6521357D1*
Y6503107D1*
X-75277Y6484998D1*
X-81454Y6478961D1*
X-93527Y6472784D1*
X5164520Y462328D2*
Y516938D1*
X5158343Y535188D1*
X5152307Y541365D1*
X5140234Y547401D1*
X5128020D1*
X5115947Y541365D1*
X5109770Y535188D1*
X5103733Y516938D1*
Y462328D1*
X5231343D1*
X5164520Y504865D2*
X5231343Y547401D1*
X5128160Y586617D2*
X5121984Y598830D1*
X5103874Y617080D1*
X5231343D1*
Y717082D2*
X5103874D1*
X5188807Y656296D1*
Y747405D1*
X2732787Y699730D2*
Y754339D1*
X2726610Y772589D1*
X2720573Y778766D1*
X2708500Y784803D1*
X2696287D1*
X2684214Y778766D1*
X2678037Y772589D1*
X2672000Y754339D1*
Y699730D1*
X2799610D1*
X2732787Y742266D2*
X2799610Y784803D1*
X2696427Y824018D2*
X2690250Y836232D1*
X2672141Y854482D1*
X2799610D1*
X2672141Y966557D2*
Y905911D1*
X2726750Y899874D1*
X2720714Y905911D1*
X2714537Y924161D1*
Y942271D1*
X2720714Y960521D1*
X2732787Y972734D1*
X2751037Y978771D1*
X2763110D1*
X2781360Y972734D1*
X2793573Y960521D1*
X2799610Y942271D1*
Y924161D1*
X2793573Y905911D1*
X2787396Y899874D1*
X2775323Y893697D1*
X3665437Y1690782D2*
Y1745391D1*
X3659260Y1763641D1*
X3653223Y1769818D1*
X3641150Y1775855D1*
X3628937D1*
X3616864Y1769818D1*
X3610687Y1763641D1*
X3604650Y1745391D1*
Y1690782D1*
X3732260D1*
X3665437Y1733318D2*
X3732260Y1775854D1*
X3629077Y1815070D2*
X3622900Y1827284D1*
X3604791Y1845534D1*
X3732260D1*
X3622900Y1957609D2*
X3610827Y1951572D1*
X3604791Y1933322D1*
Y1921249D1*
X3610827Y1902999D1*
X3629077Y1890786D1*
X3659400Y1884749D1*
X3689723D1*
X3714010Y1890786D1*
X3726223Y1902999D1*
X3732260Y1921249D1*
Y1927286D1*
X3726223Y1945395D1*
X3714010Y1957609D1*
X3695760Y1963645D1*
X3689723D1*
X3671473Y1957609D1*
X3659400Y1945395D1*
X3653364Y1927286D1*
Y1921249D1*
X3659400Y1902999D1*
X3671473Y1890786D1*
X3689723Y1884749D1*
X4231697Y744643D2*
Y799253D1*
X4225520Y817503D1*
X4219483Y823680D1*
X4207410Y829716D1*
X4195197D1*
X4183124Y823680D1*
X4176947Y817503D1*
X4170910Y799253D1*
Y744643D1*
X4298520D1*
X4231697Y787180D2*
X4298520Y829716D1*
X4195337Y868932D2*
X4189160Y881145D1*
X4171051Y899395D1*
X4298520D1*
Y962897D2*
X4171051Y1023684D1*
Y938611D1*
X3364650Y1239313D2*
Y1293923D1*
X3358473Y1312173D1*
X3352437Y1318350D1*
X3340364Y1324386D1*
X3328150D1*
X3316077Y1318350D1*
X3309900Y1312173D1*
X3303863Y1293923D1*
Y1239313D1*
X3431473D1*
X3364650Y1281850D2*
X3431473Y1324386D1*
X3334327Y1369779D2*
X3328290D1*
X3316077Y1375815D1*
X3310040Y1381852D1*
X3304004Y1394065D1*
Y1418352D1*
X3310040Y1430425D1*
X3316077Y1436461D1*
X3328290Y1442638D1*
X3340364D1*
X3352577Y1436461D1*
X3370687Y1424388D1*
X3431473Y1363602D1*
Y1448675D1*
X3328290Y1487890D2*
X3322114Y1500104D1*
X3304004Y1518354D1*
X3431473D1*
X3896897Y384044D2*
X3988006D1*
X4006256Y390081D1*
X4018330Y402294D1*
X4024506Y420544D1*
X4024507Y432617D1*
X4018330Y450867D1*
X4006256Y463081D1*
X3988007Y469117D1*
X3896897D1*
X4024506Y569119D2*
X3897037Y569120D1*
X3981970Y508333D1*
Y599443D1*
X4700503Y688686D2*
X4791613D1*
X4809863Y694723D1*
X4821936Y706936D1*
X4828113Y725186D1*
Y737259D1*
X4821936Y755509D1*
X4809863Y767722D1*
X4791613Y773759D1*
X4700504D1*
X4700644Y885834D2*
Y825188D1*
X4755254Y819152D1*
X4749217Y825188D1*
X4743040Y843438D1*
Y861548D1*
X4749217Y879798D1*
X4761290Y892011D1*
X4779540Y898048D1*
X4791613D1*
X4809863Y892011D1*
X4822077Y879798D1*
X4828113Y861548D1*
Y843438D1*
X4822077Y825188D1*
X4815900Y819151D1*
X4803827Y812975D1*
X3603527Y1108693D2*
X3694636D1*
X3712886Y1114729D1*
X3724960Y1126943D1*
X3731136Y1145193D1*
X3731137Y1157266D1*
X3724960Y1175516D1*
X3712886Y1187729D1*
X3694637Y1193766D1*
X3603527D1*
X3731136Y1257268D2*
X3603667Y1318054D1*
Y1232981D1*
X5537763Y-1003167D2*
X5628873D1*
X5647123Y-997130D1*
X5659196Y-984917D1*
X5665373Y-966667D1*
Y-954594D1*
X5659196Y-936344D1*
X5647123Y-924130D1*
X5628873Y-918094D1*
X5537764D1*
X5562190Y-878878D2*
X5556014Y-866665D1*
X5537904Y-848415D1*
X5665373D1*
X5537904Y-772699D2*
X5543940Y-790949D1*
X5562190Y-803162D1*
X5592514Y-809199D1*
X5610764D1*
X5641087Y-803163D1*
X5659337Y-790949D1*
X5665373Y-772699D1*
Y-760626D1*
X5659337Y-742376D1*
X5641087Y-730303D1*
X5610763Y-724126D1*
X5592514D1*
X5562190Y-730303D1*
X5543940Y-742376D1*
X5537904Y-760626D1*
Y-772699D1*
X5562190Y-730303D2*
X5641087Y-803163D1*
X5568227Y-678733D2*
X5562190D1*
X5549977Y-672697D1*
X5543940Y-666660D1*
X5537904Y-654447D1*
Y-630160D1*
X5543940Y-618087D1*
X5549977Y-612051D1*
X5562190Y-605874D1*
X5574263D1*
X5586477Y-612051D1*
X5604587Y-624124D1*
X5665373Y-684910D1*
Y-599837D1*
X5686431Y-560622D2*
Y-445225D1*
X5562190Y-406010D2*
X5556013Y-393796D1*
X5537904Y-375546D1*
X5665373D1*
X5900013Y1137940D2*
X5991123D1*
X6009373Y1143976D1*
X6021446Y1156190D1*
X6027623Y1174440D1*
Y1186513D1*
X6021446Y1204763D1*
X6009373Y1216976D1*
X5991123Y1223013D1*
X5900014D1*
X5924440Y1262229D2*
X5918264Y1274442D1*
X5900154Y1292692D1*
X6027623D1*
X5900154Y1368408D2*
X5906190Y1350158D1*
X5924440Y1337944D1*
X5954764Y1331908D1*
X5973014D1*
X6003337Y1337944D1*
X6021587Y1350158D1*
X6027623Y1368408D1*
Y1380481D1*
X6021587Y1398731D1*
X6003337Y1410804D1*
X5973013Y1416981D1*
X5954764D1*
X5924440Y1410804D1*
X5906190Y1398731D1*
X5900154Y1380481D1*
Y1368408D1*
X5924440Y1410804D2*
X6003337Y1337944D1*
X5924440Y1456196D2*
X5918264Y1468410D1*
X5900154Y1486660D1*
X6027623D1*
X6048681Y1525875D2*
Y1641272D1*
X5930477Y1686664D2*
X5924440D1*
X5912227Y1692701D1*
X5906190Y1698737D1*
X5900154Y1710951D1*
Y1735237D1*
X5906190Y1747310D1*
X5912227Y1753347D1*
X5924440Y1759524D1*
X5936513D1*
X5948727Y1753347D1*
X5966837Y1741274D1*
X6027623Y1680487D1*
Y1765560D1*
X5044620Y3093885D2*
X5135730D1*
X5153980Y3099922D1*
X5166053Y3112135D1*
X5172230Y3130385D1*
Y3142458D1*
X5166053Y3160708D1*
X5153980Y3172922D1*
X5135730Y3178958D1*
X5044620D1*
X5069047Y3218174D2*
X5062870Y3230387D1*
X5044761Y3248637D1*
X5172230D1*
X5044761Y3324353D2*
X5050797Y3306103D1*
X5069047Y3293889D1*
X5099370Y3287853D1*
X5117620D1*
X5147943Y3293889D1*
X5166193Y3306103D1*
X5172230Y3324353D1*
Y3336426D1*
X5166193Y3354676D1*
X5147943Y3366749D1*
X5117620Y3372926D1*
X5099370D1*
X5069047Y3366749D1*
X5050797Y3354676D1*
X5044761Y3336426D1*
Y3324353D1*
X5069047Y3366749D2*
X5147943Y3293889D1*
X5075084Y3418318D2*
X5069047D1*
X5056834Y3424355D1*
X5050797Y3430392D1*
X5044761Y3442605D1*
Y3466892D1*
X5050797Y3478965D1*
X5056834Y3485001D1*
X5069047Y3491178D1*
X5081120D1*
X5093334Y3485001D1*
X5111443Y3472928D1*
X5172230Y3412142D1*
Y3497215D1*
X5193287Y3536430D2*
Y3651826D1*
X5075084Y3697219D2*
X5069047D1*
X5056834Y3703256D1*
X5050797Y3709292D1*
X5044761Y3721506D1*
Y3745792D1*
X5050797Y3757865D1*
X5056834Y3763902D1*
X5069047Y3770079D1*
X5081120D1*
X5093334Y3763902D1*
X5111443Y3751829D1*
X5172230Y3691042D1*
Y3776115D1*
X4933763Y5952957D2*
X5024873D1*
X5043123Y5958993D1*
X5055196Y5971207D1*
X5061373Y5989457D1*
Y6001530D1*
X5055196Y6019780D1*
X5043123Y6031993D1*
X5024873Y6038030D1*
X4933764D1*
X4958190Y6077245D2*
X4952014Y6089459D1*
X4933904Y6107709D1*
X5061373D1*
X4933904Y6183424D2*
X4939940Y6165174D1*
X4958190Y6152961D1*
X4988514Y6146924D1*
X5006764D1*
X5037087Y6152961D1*
X5055337Y6165174D1*
X5061373Y6183424D1*
Y6195497D1*
X5055337Y6213747D1*
X5037087Y6225820D1*
X5006763Y6231997D1*
X4988514D1*
X4958190Y6225820D1*
X4939940Y6213747D1*
X4933904Y6195497D1*
Y6183424D1*
X4958190Y6225820D2*
X5037087Y6152961D1*
X4958190Y6271213D2*
X4952014Y6283426D1*
X4933904Y6301677D1*
X5061373Y6301676D1*
X5082431Y6340892D2*
Y6456288D1*
X4933904Y6507717D2*
Y6574400D1*
X4982477Y6538041D1*
Y6556291D1*
X4988513Y6568364D1*
X4994550Y6574400D1*
X5012800Y6580577D1*
X5024873D1*
X5043123Y6574400D1*
X5055336Y6562327D1*
X5061373Y6544077D1*
Y6525827D1*
X5055336Y6507717D1*
X5049160Y6501681D1*
X5037087Y6495504D1*
X2611017Y5953508D2*
X2702126D1*
X2720376Y5959545D1*
X2732450Y5971758D1*
X2738626Y5990008D1*
X2738627Y6002081D1*
X2732450Y6020331D1*
X2720376Y6032545D1*
X2702127Y6038581D1*
X2611017Y6038582D1*
X2635444Y6077797D2*
X2629267Y6090011D1*
X2611157Y6108261D1*
X2738626Y6108260D1*
X2611157Y6183976D2*
X2617194Y6165726D1*
X2635444Y6153513D1*
X2665767Y6147476D1*
X2684017D1*
X2714340Y6153513D1*
X2732590Y6165726D1*
X2738626Y6183976D1*
Y6196049D1*
X2732590Y6214299D1*
X2714340Y6226372D1*
X2684017Y6232549D1*
X2665767D1*
X2635444Y6226372D1*
X2617194Y6214299D1*
X2611157Y6196049D1*
Y6183976D1*
X2635444Y6226372D2*
X2714340Y6153513D1*
X2641480Y6277942D2*
X2635444D1*
X2623230Y6283978D1*
X2617194Y6290015D1*
X2611157Y6302228D1*
Y6326515D1*
X2617194Y6338588D1*
X2623230Y6344624D1*
X2635444Y6350801D1*
X2647517D1*
X2659730Y6344624D1*
X2677840Y6332551D1*
X2738626Y6271765D1*
Y6356838D1*
X2759684Y6396054D2*
Y6511450D1*
X2611157Y6562879D2*
Y6629562D1*
X2659730Y6593202D1*
Y6611452D1*
X2665767Y6623525D1*
X2671803Y6629562D1*
X2690053Y6635739D1*
X2702126D1*
X2720376Y6629562D1*
X2732590Y6617489D1*
X2738626Y6599239D1*
Y6580989D1*
X2732590Y6562879D1*
X2726413Y6556842D1*
X2714340Y6550665D1*
X542717Y-718741D2*
X536680Y-706668D1*
X524467Y-694455D1*
X512394Y-688418D1*
X488107D1*
X475894Y-694455D1*
X463821Y-706668D1*
X457644Y-718741D1*
X451607Y-736991D1*
Y-767455D1*
X457644Y-785565D1*
X463821Y-797778D1*
X475894Y-809851D1*
X488107Y-816028D1*
X512394D1*
X524467Y-809851D1*
X536680Y-797778D1*
X542717Y-785565D1*
Y-767455D1*
X512394D1*
X667006Y-688418D2*
Y-816028D1*
X581933Y-688418D1*
Y-816028D1*
X706221Y-688418D2*
Y-816028D1*
X748758D1*
X767008Y-809851D1*
X779221Y-797778D1*
X785258Y-785565D1*
X791294Y-767455D1*
Y-736991D1*
X785258Y-718741D1*
X779221Y-706668D1*
X767008Y-694455D1*
X748758Y-688418D1*
X706221D1*
X1214380Y-687019D2*
X1153734D1*
X1147698Y-741628D1*
X1153734Y-735592D1*
X1171984Y-729415D1*
X1190094D1*
X1208344Y-735592D1*
X1220557Y-747665D1*
X1226594Y-765915D1*
Y-777988D1*
X1220557Y-796238D1*
X1208344Y-808451D1*
X1190094Y-814488D1*
X1171984D1*
X1153734Y-808451D1*
X1147698Y-802275D1*
X1141521Y-790201D1*
X1265809Y-686878D2*
X1314382Y-814488D1*
X1362956Y-686878D1*
X1475031D2*
Y-814488D1*
Y-747665D2*
X1462958Y-735451D1*
X1450744Y-729415D1*
X1432494D1*
X1420421Y-735451D1*
X1408208Y-747665D1*
X1402171Y-765915D1*
Y-777988D1*
X1408208Y-796238D1*
X1420421Y-808311D1*
X1432494Y-814488D1*
X1450744D1*
X1462958Y-808311D1*
X1475031Y-796238D1*
X1587246Y-747665D2*
X1575033Y-735451D1*
X1562820Y-729415D1*
X1544710D1*
X1532496Y-735451D1*
X1520423Y-747665D1*
X1514246Y-765915D1*
Y-777988D1*
X1520423Y-796238D1*
X1532496Y-808311D1*
X1544710Y-814488D1*
X1562820D1*
X1575033Y-808311D1*
X1587246Y-796238D1*
X6754323Y3455358D2*
X6754324Y3525550D1*
X6699644Y3829967D2*
X6809003D1*
X6754394Y3775358D2*
Y3884717D1*
X6166575Y3401858D2*
X6172612Y3389644D1*
X6184825Y3377571D1*
X6196898Y3371394D1*
X6215148Y3365358D1*
X6245612D1*
X6263721Y3371394D1*
X6275935Y3377571D1*
X6288008Y3389644D1*
X6294185Y3401857D1*
Y3426144D1*
X6288008Y3438217D1*
X6275935Y3450430D1*
X6263721Y3456467D1*
X6245612Y3462504D1*
X6215148D1*
X6196898Y3456467D1*
X6184825Y3450431D1*
X6172612Y3438217D1*
X6166575Y3426144D1*
Y3401858D1*
Y3501719D2*
X6257685D1*
X6275935Y3507756D1*
X6288008Y3519969D1*
X6294185Y3538219D1*
Y3550292D1*
X6288008Y3568542D1*
X6275935Y3580756D1*
X6257685Y3586792D1*
X6166575D1*
Y3668544D2*
X6294185D1*
X6166575Y3626008D2*
Y3711081D1*
X6294185Y3934530D2*
X6166716D1*
X6251648Y3873743D1*
Y3964853D1*
X433357Y-420918D2*
Y-548528D1*
X557646Y-420918D2*
Y-548528D1*
X472573Y-420918D1*
Y-548528D1*
X596862Y-487741D2*
X651612D1*
X669721Y-481705D1*
X675898Y-475528D1*
X681935Y-463455D1*
Y-445205D1*
X675898Y-433132D1*
X669721Y-426955D1*
X651612Y-420918D1*
X596862D1*
Y-548528D1*
X721150Y-420918D2*
Y-512028D1*
X727187Y-530278D1*
X739400Y-542351D1*
X757650Y-548528D1*
X769724D1*
X787974Y-542351D1*
X800187Y-530278D1*
X806224Y-512028D1*
Y-420918D1*
X887976D2*
Y-548528D1*
X845439Y-420918D2*
X930512D1*
X1166034Y-421059D2*
X1105388D1*
X1099351Y-475668D1*
X1105388Y-469632D1*
X1123638Y-463455D1*
X1141748D1*
X1159998Y-469632D1*
X1172211Y-481705D1*
X1178248Y-499955D1*
Y-512028D1*
X1172211Y-530278D1*
X1159998Y-542491D1*
X1141748Y-548528D1*
X1123638D1*
X1105388Y-542491D1*
X1099351Y-536315D1*
X1093174Y-524241D1*
X1217463Y-420918D2*
X1266036Y-548528D1*
X1314609Y-420918D1*
X1426685D2*
Y-548528D1*
Y-481705D2*
X1414612Y-469491D1*
X1402398Y-463455D1*
X1384148D1*
X1372075Y-469491D1*
X1359862Y-481705D1*
X1353825Y-499955D1*
Y-512028D1*
X1359862Y-530278D1*
X1372075Y-542351D1*
X1384148Y-548528D1*
X1402398D1*
X1414612Y-542351D1*
X1426685Y-530278D1*
X1538900Y-481705D2*
X1526687Y-469491D1*
X1514473Y-463455D1*
X1496364D1*
X1484150Y-469491D1*
X1472077Y-481705D1*
X1465900Y-499955D1*
Y-512028D1*
X1472077Y-530278D1*
X1484150Y-542351D1*
X1496364Y-548528D1*
X1514473D1*
X1526687Y-542351D1*
X1538900Y-530278D1*
X3984067Y1557395D2*
D131*
X4137198D1*
X3984067Y1706541D2*
X4137198D1*
X3984067Y1604454D1*
X4137198D1*
X4064255Y1753600D2*
Y1819300D1*
X4057011Y1841032D1*
X4049598Y1848444D1*
X4035111Y1855688D1*
X4013211D1*
X3998723Y1848444D1*
X3991311Y1841032D1*
X3984067Y1819300D1*
Y1753600D1*
X4137198D1*
X4013379Y2050882D2*
X4005967Y2065539D1*
X3984235Y2087439D1*
X4137198Y2087438D1*
X4060717Y2134497D2*
Y2218728D1*
X4005967Y2353218D2*
X3991479Y2345975D1*
X3984235Y2324075D1*
Y2309587D1*
X3991479Y2287687D1*
X4013379Y2273031D1*
X4049767Y2265787D1*
X4086154D1*
X4115298Y2273031D1*
X4129954Y2287687D1*
X4137198Y2309587D1*
Y2316831D1*
X4129954Y2338562D1*
X4115298Y2353218D1*
X4093398Y2360462D1*
X4086154D1*
X4064255Y2353218D1*
X4049767Y2338562D1*
X4042523Y2316831D1*
Y2309587D1*
X4049767Y2287687D1*
X4064255Y2273031D1*
X4086154Y2265787D1*
X4035111Y2414933D2*
X4042523Y2407521D1*
X4049767Y2414933D1*
X4042523Y2422177D1*
X4035111Y2414933D1*
X4122542D2*
X4129954Y2407521D1*
X4137198Y2414933D1*
X4129954Y2422177D1*
X4122542Y2414933D1*
X4137198Y2690316D2*
X3984235D1*
X4086154Y2617372D1*
Y2726703D1*
X4060717Y2773762D2*
Y2857993D1*
X4020623Y2912464D2*
X4013379D1*
X3998723Y2919708D1*
X3991479Y2926952D1*
X3984235Y2941608D1*
Y2970752D1*
X3991479Y2985239D1*
X3998723Y2992483D1*
X4013379Y2999896D1*
X4027867D1*
X4042523Y2992483D1*
X4064254Y2977996D1*
X4137198Y2905052D1*
Y3007139D1*
X3984235Y3090586D2*
X3991479Y3068854D1*
X4005967Y3061442D1*
X4020623D1*
X4035111Y3068854D1*
X4042523Y3083342D1*
X4049767Y3112486D1*
X4057011Y3134386D1*
X4071667Y3148874D1*
X4086154Y3156118D1*
X4108054D1*
X4122542Y3148874D1*
X4129954Y3141630D1*
X4137198Y3119730D1*
Y3090586D1*
X4129954Y3068854D1*
X4122542Y3061442D1*
X4108054Y3054198D1*
X4086154D1*
X4071667Y3061442D1*
X4057011Y3076098D1*
X4049767Y3097830D1*
X4042523Y3126974D1*
X4035111Y3141630D1*
X4020623Y3148874D1*
X4005967D1*
X3991479Y3141630D1*
X3984235Y3119730D1*
Y3090586D1*
X3984067Y3203176D2*
X4137198Y3261464D1*
X3984067Y3319752D1*
X4129954Y3381467D2*
X4137198Y3374054D1*
X4129954Y3366811D1*
X4122542Y3374054D1*
X4129954Y3381467D1*
X4144442D1*
X4159098Y3374054D1*
X4166342Y3366811D1*
X4020623Y3584074D2*
X4013379D1*
X3998723Y3591317D1*
X3991479Y3598561D1*
X3984235Y3613217D1*
Y3642361D1*
X3991479Y3656849D1*
X3998723Y3664093D1*
X4013379Y3671505D1*
X4027867D1*
X4042523Y3664093D1*
X4064254Y3649605D1*
X4137198Y3576661D1*
Y3678749D1*
Y3842552D2*
X3984067Y3784095D1*
X4137198Y3725808D1*
X4086154Y3747708D2*
Y3820652D1*
X6311293Y875358D2*
D130*
X6311294Y945550D1*
X4434893Y1296928D2*
D131*
X4588025D1*
X4434894Y1399016D2*
X4588025D1*
X4507837Y1296928D2*
Y1399016D1*
X4434894Y1446075D2*
X4507837Y1504362D1*
X4588025D1*
X4434894Y1562650D2*
X4507837Y1504362D1*
X4515081Y1609709D2*
Y1675409D1*
X4507837Y1697140D1*
X4500425Y1704553D1*
X4485937Y1711796D1*
X4464037Y1711797D1*
X4449550Y1704553D1*
X4442137Y1697140D1*
X4434894Y1675409D1*
Y1609709D1*
X4588025D1*
X4434894Y1853531D2*
Y1758855D1*
X4588025D1*
Y1853531D1*
X4507837Y1758855D2*
Y1817143D1*
Y1900590D2*
Y1966121D1*
X4500425Y1988021D1*
X4493181Y1995433D1*
X4478693Y2002677D1*
X4464037D1*
X4449550Y1995433D1*
X4442137Y1988021D1*
X4434894Y1966121D1*
Y1900590D1*
X4588025Y1900589D1*
X4507837Y1951633D2*
X4588025Y2002677D1*
Y2166311D2*
X4434894D1*
X4588025Y2108024D1*
X4434894Y2049736D1*
X4588025D1*
Y2330114D2*
X4434893Y2271658D1*
X4588025Y2213370D1*
X4536981Y2235270D2*
Y2308214D1*
X4434893Y2420973D2*
X4441969Y2406485D1*
X4456625Y2391829D1*
X4471281Y2384585D1*
X4493181Y2377173D1*
X4529569D1*
X4551469Y2384585D1*
X4565957Y2391829D1*
X4580613Y2406485D1*
X4587857Y2420973D1*
Y2450117D1*
X4580613Y2464773D1*
X4565957Y2479261D1*
X4551469Y2486504D1*
X4529569Y2493917D1*
X4493181D1*
X4471281Y2486504D1*
X4456625Y2479261D1*
X4441969Y2464773D1*
X4434893Y2450117D1*
Y2420973D1*
X4558713Y2442873D2*
X4602513Y2486504D1*
X4485937Y2689111D2*
X4639069D1*
X4507837D2*
X4493350Y2703767D1*
X4485937Y2718255D1*
Y2740155D1*
X4493350Y2754811D1*
X4507837Y2769299D1*
X4529737Y2776711D1*
X4544393D1*
X4566125Y2769299D1*
X4580781Y2754811D1*
X4588025Y2740155D1*
Y2718255D1*
X4580781Y2703767D1*
X4566125Y2689111D1*
X4485937Y2860158D2*
X4493181Y2845670D1*
X4507837Y2831014D1*
X4529737Y2823770D1*
X4544225D1*
X4566125Y2831014D1*
X4580613Y2845670D1*
X4588025Y2860158D1*
Y2882058D1*
X4580613Y2896714D1*
X4566125Y2911202D1*
X4544225Y2918614D1*
X4529737D1*
X4507837Y2911202D1*
X4493181Y2896714D1*
X4485937Y2882058D1*
Y2860158D1*
Y2965673D2*
X4588025Y2994817D1*
X4485937Y3023960D1*
X4588025Y3053104D1*
X4485937Y3082248D1*
X4529737Y3129307D2*
Y3216739D1*
X4515081D1*
X4500425Y3209495D1*
X4493181Y3202251D1*
X4485937Y3187595D1*
Y3165695D1*
X4493181Y3151207D1*
X4507837Y3136551D1*
X4529737Y3129307D1*
X4544225D1*
X4566125Y3136551D1*
X4580613Y3151207D1*
X4588025Y3165695D1*
Y3187595D1*
X4580613Y3202251D1*
X4566125Y3216739D1*
X4485937Y3263797D2*
X4588025D1*
X4529737D2*
X4507837Y3271210D1*
X4493181Y3285697D1*
X4485937Y3300354D1*
Y3322254D1*
X4434893Y3517448D2*
X4588025D1*
X4507837D2*
X4493181Y3532104D1*
X4485937Y3546592D1*
Y3568492D1*
X4493181Y3582980D1*
X4507837Y3597636D1*
X4529737Y3604880D1*
X4544225D1*
X4566125Y3597636D1*
X4580613Y3582980D1*
X4588025Y3568492D1*
Y3546592D1*
X4580613Y3532104D1*
X4566125Y3517448D1*
X4485937Y3688326D2*
X4493181Y3673838D1*
X4507837Y3659182D1*
X4529737Y3651938D1*
X4544225D1*
X4566125Y3659182D1*
X4580613Y3673838D1*
X4588025Y3688326D1*
Y3710226D1*
X4580613Y3724882D1*
X4566125Y3739370D1*
X4544225Y3746782D1*
X4529737D1*
X4507837Y3739370D1*
X4493181Y3724882D1*
X4485937Y3710226D1*
Y3688326D1*
Y3881273D2*
X4588025D1*
X4507837D2*
X4493181Y3866785D1*
X4485937Y3852129D1*
Y3830397D1*
X4493181Y3815741D1*
X4507837Y3801253D1*
X4529737Y3793841D1*
X4544225D1*
X4566125Y3801253D1*
X4580613Y3815741D1*
X4588025Y3830397D1*
Y3852129D1*
X4580613Y3866785D1*
X4566125Y3881273D1*
X4485937Y3928331D2*
X4588025D1*
X4529737D2*
X4507837Y3935744D1*
X4493181Y3950231D1*
X4485937Y3964888D1*
Y3986788D1*
X4434893Y4121278D2*
X4588025D1*
X4507837D2*
X4493181Y4106790D1*
X4485937Y4092134D1*
Y4070234D1*
X4493181Y4055746D1*
X4507837Y4041090D1*
X4529737Y4033846D1*
X4544225D1*
X4566125Y4041090D1*
X4580613Y4055746D1*
X4588025Y4070234D1*
Y4092134D1*
X4580613Y4106790D1*
X4566125Y4121278D1*
X4699810Y1776088D2*
X4852942Y1834376D1*
X4699810Y1892664D1*
X4699979Y1983522D2*
X4707223Y1961622D1*
X4729123Y1946966D1*
X4765510Y1939722D1*
X4787410D1*
X4823798Y1946966D1*
X4845698Y1961622D1*
X4852942Y1983522D1*
Y1998010D1*
X4845698Y2019910D1*
X4823798Y2034398D1*
X4787410Y2041810D1*
X4765510D1*
X4729123Y2034398D1*
X4707223Y2019910D1*
X4699979Y1998010D1*
Y1983522D1*
X4729123Y2034398D2*
X4823798Y1946966D1*
X4838286Y2096113D2*
X4845698Y2088869D1*
X4852942Y2096113D1*
X4845698Y2103525D1*
X4838286Y2096113D1*
X4852942Y2179728D2*
X4699979Y2252671D1*
Y2150584D1*
X4845698Y2314386D2*
X4852942Y2306974D1*
X4845698Y2299730D1*
X4838286Y2306974D1*
X4845698Y2314386D1*
X4860186D1*
X4874842Y2306974D1*
X4882085Y2299730D1*
X4699810Y2509581D2*
X4852942Y2567869D1*
X4699810Y2626156D1*
Y2673215D2*
X4852942D1*
Y2760647D1*
X4699810Y2807706D2*
X4852942D1*
X4699810Y2854764D2*
Y2956852D1*
X4852942Y2854764D1*
Y2956852D1*
X4736366Y3159459D2*
X4729122D1*
X4714466Y3166703D1*
X4707222Y3173947D1*
X4699979Y3188603D1*
Y3217747D1*
X4707222Y3232234D1*
X4714466Y3239478D1*
X4729122Y3246890D1*
X4743610D1*
X4758266Y3239478D1*
X4779998Y3224990D1*
X4852942Y3152047D1*
Y3254134D1*
X4699979Y3344993D2*
X4707222Y3323093D1*
X4729122Y3308437D1*
X4765510Y3301193D1*
X4787410D1*
X4823798Y3308437D1*
X4845698Y3323093D1*
X4852942Y3344993D1*
Y3359481D1*
X4845698Y3381381D1*
X4823798Y3395869D1*
X4787410Y3403281D1*
X4765510D1*
X4729122Y3395869D1*
X4707222Y3381381D1*
X4699979Y3359481D1*
Y3344993D1*
X4729122Y3395869D2*
X4823798Y3308437D1*
X4736366Y3457752D2*
X4729122D1*
X4714466Y3464996D1*
X4707222Y3472240D1*
X4699979Y3486896D1*
Y3516040D1*
X4707222Y3530527D1*
X4714466Y3537771D1*
X4729122Y3545184D1*
X4743610D1*
X4758266Y3537771D1*
X4779998Y3523284D1*
X4852942Y3450340D1*
Y3552427D1*
X4699979Y3643286D2*
X4707222Y3621386D1*
X4729122Y3606730D1*
X4765510Y3599486D1*
X4787410D1*
X4823798Y3606730D1*
X4845698Y3621386D1*
X4852942Y3643286D1*
Y3657774D1*
X4845698Y3679674D1*
X4823798Y3694162D1*
X4787410Y3701574D1*
X4765510D1*
X4729122Y3694162D1*
X4707222Y3679674D1*
X4699979Y3657774D1*
Y3643286D1*
X4729122Y3694162D2*
X4823798Y3606730D1*
X-1201235Y1649886D2*
X-1135535D1*
X-1113804Y1657129D1*
X-1106391Y1664542D1*
X-1099148Y1679029D1*
Y1700929D1*
X-1106391Y1715417D1*
X-1113804Y1722829D1*
X-1135535Y1730073D1*
X-1201235D1*
Y1576942D1*
X-1008289Y1730073D2*
X-1022945Y1722829D1*
X-1037433Y1708173D1*
X-1044845Y1693686D1*
X-1052089Y1671786D1*
Y1635229D1*
X-1044845Y1613498D1*
X-1037433Y1598842D1*
X-1022945Y1584354D1*
X-1008289Y1576942D1*
X-979145D1*
X-964657Y1584354D1*
X-950001Y1598842D1*
X-942757Y1613498D1*
X-935513Y1635229D1*
Y1671786D1*
X-942757Y1693686D1*
X-950001Y1708173D1*
X-964657Y1722829D1*
X-979145Y1730073D1*
X-1008289D1*
X-888455D2*
X-851898Y1576942D1*
X-815511Y1730073D1*
X-779123Y1576942D1*
X-742567Y1730073D1*
X-600833D2*
X-695508D1*
Y1576942D1*
X-600833D1*
X-695508Y1657129D2*
X-637220D1*
X-553774D2*
X-488242D1*
X-466342Y1664542D1*
X-458930Y1671786D1*
X-451686Y1686273D1*
Y1700929D1*
X-458930Y1715417D1*
X-466342Y1722829D1*
X-488242Y1730073D1*
X-553774D1*
Y1576942D1*
X-502730Y1657129D2*
X-451686Y1576942D1*
X1423774Y3521899D2*
D130*
X1417737Y3533972D1*
X1405524Y3546185D1*
X1393450Y3552222D1*
X1369164D1*
X1356950Y3546185D1*
X1344877Y3533972D1*
X1338700Y3521899D1*
X1332664Y3503649D1*
Y3473185D1*
X1338700Y3455075D1*
X1344877Y3442862D1*
X1356950Y3430789D1*
X1369164Y3424612D1*
X1393450D1*
X1405524Y3430789D1*
X1417737Y3442862D1*
X1423774Y3455075D1*
Y3473185D1*
X1393450D1*
X1548062Y3552222D2*
Y3424612D1*
X1462989Y3552222D1*
Y3424612D1*
X1587278Y3552222D2*
Y3424612D1*
X1629815D1*
X1648065Y3430789D1*
X1660278Y3442862D1*
X1666315Y3455075D1*
X1672351Y3473185D1*
Y3503649D1*
X1666315Y3521899D1*
X1660278Y3533972D1*
X1648065Y3546185D1*
X1629815Y3552222D1*
X1587278D1*
X1380291Y2630708D2*
X1428864Y2503099D1*
X1477437Y2630708D1*
X1516652D2*
Y2503099D1*
X1571402D1*
X1589652Y2509276D1*
X1595689Y2515312D1*
X1601726Y2527385D1*
Y2545635D1*
X1595689Y2557849D1*
X1589652Y2563885D1*
X1571402Y2569922D1*
X1589652Y2576099D1*
X1595689Y2582135D1*
X1601726Y2594208D1*
Y2606422D1*
X1595689Y2618495D1*
X1589652Y2624672D1*
X1571402Y2630708D1*
X1516652D1*
Y2569922D2*
X1571402D1*
X1713801Y2588172D2*
Y2503099D1*
Y2569922D2*
X1701728Y2582135D1*
X1689514Y2588172D1*
X1671405D1*
X1659191Y2582135D1*
X1647118Y2569922D1*
X1640941Y2551672D1*
Y2539599D1*
X1647118Y2521349D1*
X1659191Y2509276D1*
X1671405Y2503099D1*
X1689514D1*
X1701728Y2509276D1*
X1713801Y2521349D1*
X1771266Y2630708D2*
Y2527385D1*
X1777303Y2509276D1*
X1789516Y2503099D1*
X1801590D1*
X1753016Y2588172D2*
X1795553D1*
X1937951Y2621513D2*
X1840805Y2566763D1*
X1937951Y2512153D1*
X1983344Y2600245D2*
Y2606281D1*
X1989381Y2618495D1*
X1995417Y2624531D1*
X2007631Y2630568D1*
X2031917D1*
X2043990Y2624531D1*
X2050027Y2618495D1*
X2056204Y2606281D1*
Y2594208D1*
X2050027Y2581995D1*
X2037954Y2563885D1*
X1977167Y2503099D1*
X2062240D1*
X2131779Y2630568D2*
X2113669Y2624531D1*
X2107492Y2612458D1*
Y2600245D1*
X2113669Y2588172D1*
X2125742Y2581995D1*
X2150029Y2575958D1*
X2168279Y2569922D1*
X2180352Y2557708D1*
X2186389Y2545635D1*
Y2527385D1*
X2180352Y2515312D1*
X2174315Y2509135D1*
X2156065Y2503099D1*
X2131779D1*
X2113669Y2509135D1*
X2107492Y2515312D1*
X2101456Y2527385D1*
Y2545635D1*
X2107492Y2557708D1*
X2119706Y2569922D1*
X2137815Y2575958D1*
X2162102Y2581995D1*
X2174315Y2588172D1*
X2180352Y2600245D1*
Y2612458D1*
X2174315Y2624531D1*
X2156065Y2630568D1*
X2131779D1*
X2225604Y2630708D2*
X2274177Y2503099D1*
X2322750Y2630708D1*
X2434826D2*
Y2503099D1*
Y2569922D2*
X2422753Y2582135D1*
X2410539Y2588172D1*
X2392289D1*
X2380216Y2582135D1*
X2368003Y2569922D1*
X2361966Y2551672D1*
Y2539599D1*
X2368003Y2521349D1*
X2380216Y2509276D1*
X2392289Y2503099D1*
X2410539D1*
X2422753Y2509276D1*
X2434826Y2521349D1*
X2547041Y2569922D2*
X2534828Y2582135D1*
X2522614Y2588172D1*
X2504505D1*
X2492291Y2582135D1*
X2480218Y2569922D1*
X2474041Y2551672D1*
Y2539599D1*
X2480218Y2521349D1*
X2492291Y2509276D1*
X2504505Y2503099D1*
X2522614D1*
X2534828Y2509276D1*
X2547041Y2521349D1*
X1471400Y2250752D2*
X1465364Y2262825D1*
X1453150Y2275038D1*
X1441077Y2281075D1*
X1416791D1*
X1404577Y2275038D1*
X1392504Y2262825D1*
X1386327Y2250752D1*
X1380291Y2232502D1*
Y2202038D1*
X1386327Y2183929D1*
X1392504Y2171715D1*
X1404577Y2159642D1*
X1416791Y2153465D1*
X1441077D1*
X1453150Y2159642D1*
X1465364Y2171715D1*
X1471400Y2183929D1*
Y2202038D1*
X1441077D1*
X1595689Y2281075D2*
Y2153465D1*
X1510616Y2281075D1*
Y2153465D1*
X1634905Y2281075D2*
Y2153465D1*
X1677441D1*
X1695691Y2159642D1*
X1707905Y2171715D1*
X1713941Y2183929D1*
X1719978Y2202038D1*
Y2232502D1*
X1713941Y2250752D1*
X1707905Y2262825D1*
X1695691Y2275038D1*
X1677441Y2281075D1*
X1634905D1*
X1882640D2*
Y2153465D1*
X1937390D1*
X1955640Y2159642D1*
X1961676Y2165679D1*
X1967713Y2177752D1*
Y2196002D1*
X1961676Y2208215D1*
X1955640Y2214252D1*
X1937390Y2220288D1*
X1955640Y2226465D1*
X1961676Y2232502D1*
X1967713Y2244575D1*
Y2256788D1*
X1961676Y2268861D1*
X1955640Y2275038D1*
X1937390Y2281075D1*
X1882640D1*
Y2220288D2*
X1937390D1*
X2079788Y2238538D2*
Y2153465D1*
Y2220288D2*
X2067715Y2232502D1*
X2055502Y2238538D1*
X2037392D1*
X2025179Y2232502D1*
X2013106Y2220288D1*
X2006929Y2202038D1*
Y2189965D1*
X2013106Y2171715D1*
X2025179Y2159642D1*
X2037392Y2153465D1*
X2055502D1*
X2067715Y2159642D1*
X2079788Y2171715D1*
X2137254Y2281075D2*
Y2177752D1*
X2143290Y2159642D1*
X2155504Y2153465D1*
X2167577D1*
X2119004Y2238538D2*
X2161540D1*
X2225043Y2281075D2*
Y2177752D1*
X2231079Y2159642D1*
X2243293Y2153465D1*
X2255366D1*
X2206793Y2238538D2*
X2249329D1*
X1380291Y2913515D2*
X1435041D1*
X1453150Y2919552D1*
X1459327Y2925729D1*
X1465364Y2937802D1*
Y2956052D1*
X1459327Y2968125D1*
X1453150Y2974302D1*
X1435041Y2980338D1*
X1380291D1*
Y2852729D1*
X1583616Y2937802D2*
X1577439Y2919552D1*
X1565366Y2907338D1*
X1547116Y2901302D1*
X1541079D1*
X1522829Y2907338D1*
X1510756Y2919552D1*
X1504579Y2937802D1*
Y2943838D1*
X1510756Y2962088D1*
X1522829Y2974161D1*
X1541079Y2980198D1*
X1547116D1*
X1565366Y2974161D1*
X1577439Y2962088D1*
X1583616Y2937802D1*
Y2907338D1*
X1577439Y2877015D1*
X1565366Y2858765D1*
X1547116Y2852729D1*
X1535043D1*
X1516793Y2858765D1*
X1510756Y2870979D1*
X1622832Y2831671D2*
X1738228D1*
X1777443Y2955911D2*
X1789657Y2962088D1*
X1807907Y2980198D1*
Y2852729D1*
X1907909D2*
Y2980198D1*
X1847123Y2895265D1*
X1938232D1*
X2019984Y3013609D2*
X2007771Y3001536D1*
X1995698Y2983286D1*
X1983484Y2959000D1*
X1977448Y2928536D1*
Y2904250D1*
X1983484Y2873927D1*
X1995698Y2849640D1*
X2007771Y2831390D1*
X2019984Y2819317D1*
X2132060Y2980198D2*
X2071414D1*
X2065377Y2925588D1*
X2071414Y2931625D1*
X2089664Y2937802D1*
X2107773D1*
X2126023Y2931625D1*
X2138237Y2919552D1*
X2144273Y2901302D1*
Y2889229D1*
X2138237Y2870979D1*
X2126023Y2858765D1*
X2107773Y2852729D1*
X2089664D1*
X2071414Y2858765D1*
X2065377Y2864942D1*
X2059200Y2877015D1*
X2219989Y2980198D2*
X2201739Y2974161D1*
X2189525Y2955911D1*
X2183489Y2925588D1*
Y2907338D1*
X2189525Y2877015D1*
X2201739Y2858765D1*
X2219989Y2852729D1*
X2232062D1*
X2250312Y2858765D1*
X2262385Y2877015D1*
X2268562Y2907338D1*
Y2925588D1*
X2262385Y2955911D1*
X2250312Y2974161D1*
X2232062Y2980198D1*
X2219989D1*
X2262385Y2955911D2*
X2189525Y2877015D1*
X2307778Y3013609D2*
X2319991Y3001536D1*
X2332064Y2983286D1*
X2344278Y2959000D1*
X2350314Y2928536D1*
Y2904250D1*
X2344278Y2873927D1*
X2332064Y2849640D1*
X2319991Y2831390D1*
X2307778Y2819317D1*
X-1228385Y594279D2*
D131*
X-1162854D1*
X-1140954Y601692D1*
X-1133541Y608936D1*
X-1126298Y623423D1*
Y638079D1*
X-1133541Y652567D1*
X-1140954Y659979D1*
X-1162854Y667223D1*
X-1228385D1*
Y514092D1*
X-1177341Y594279D2*
X-1126298Y514092D1*
X-984563Y667223D2*
X-1079239D1*
Y514092D1*
X-984563D1*
X-1079239Y594279D2*
X-1020951D1*
X-835417Y645323D2*
X-849905Y659979D1*
X-871805Y667223D1*
X-900948D1*
X-922848Y659979D1*
X-937505Y645323D1*
Y630836D1*
X-930092Y616179D1*
X-922848Y608936D1*
X-908361Y601692D1*
X-864561Y587036D1*
X-849905Y579792D1*
X-842661Y572379D1*
X-835417Y557892D1*
Y535992D1*
X-849905Y521504D1*
X-871805Y514092D1*
X-900948D1*
X-922848Y521504D1*
X-937505Y535992D1*
X-693683Y667223D2*
X-788358D1*
Y514092D1*
X-693683D1*
X-788358Y594279D2*
X-730070D1*
X-595580Y667223D2*
Y514092D1*
X-646624Y667223D2*
X-544536D1*
X6256614Y1249967D2*
D130*
X6365973D1*
X6311364Y1195358D2*
Y1304717D1*
X6119168Y831858D2*
X6125205Y819644D1*
X6137418Y807571D1*
X6149491Y801394D1*
X6167741Y795358D1*
X6198205D1*
X6216315Y801394D1*
X6228528Y807571D1*
X6240601Y819644D1*
X6246778Y831857D1*
Y856144D1*
X6240601Y868217D1*
X6228528Y880430D1*
X6216315Y886467D1*
X6198205Y892504D1*
X6167742D1*
X6149492Y886467D1*
X6137419Y880431D1*
X6125205Y868217D1*
X6119169Y856144D1*
X6119168Y831858D1*
X6119169Y931719D2*
X6210278D1*
X6228528Y937756D1*
X6240601Y949969D1*
X6246778Y968219D1*
Y980292D1*
X6240601Y998542D1*
X6228528Y1010756D1*
X6210278Y1016792D1*
X6119169D1*
Y1098544D2*
X6246778D1*
X6119169Y1056008D2*
Y1141081D1*
X6119309Y1315957D2*
Y1382639D1*
X6167882Y1346280D1*
Y1364530D1*
X6173918Y1376603D1*
X6179955Y1382639D1*
X6198205Y1388816D1*
X6210278D1*
X6228528Y1382639D1*
X6240742Y1370566D1*
X6246778Y1352316D1*
Y1334066D1*
X6240742Y1315957D1*
X6234565Y1309920D1*
X6222492Y1303743D1*
X2262357Y-604670D2*
X2332550D1*
X2636967Y-549990D2*
Y-659350D1*
X2582357Y-604740D2*
X2691717D1*
X2248857Y-380795D2*
X2236644Y-386832D1*
X2224571Y-399045D1*
X2218394Y-411118D1*
X2212357Y-429368D1*
Y-459832D1*
X2218394Y-477941D1*
X2224571Y-490155D1*
X2236644Y-502228D1*
X2248857Y-508405D1*
X2273144D1*
X2285217Y-502228D1*
X2297430Y-490155D1*
X2303467Y-477941D1*
X2309503Y-459832D1*
Y-429368D1*
X2303467Y-411118D1*
X2297430Y-399045D1*
X2285217Y-386832D1*
X2273144Y-380795D1*
X2248857D1*
X2348719D2*
Y-471905D1*
X2354756Y-490155D1*
X2366969Y-502228D1*
X2385219Y-508405D1*
X2397292D1*
X2415542Y-502228D1*
X2427756Y-490155D1*
X2433792Y-471905D1*
Y-380795D1*
X2515544D2*
Y-508405D1*
X2473008Y-380795D2*
X2558081D1*
X2720743Y-405222D2*
X2732957Y-399045D1*
X2751207Y-380935D1*
Y-508405D1*
X6537451Y-676167D2*
X6607643D1*
X6232894Y-621487D2*
Y-730847D1*
X6178284Y-676237D2*
X6287644D1*
X6100684Y-454795D2*
X6088470Y-460832D1*
X6076397Y-473045D1*
X6070220Y-485118D1*
X6064184Y-503368D1*
Y-533832D1*
X6070220Y-551941D1*
X6076397Y-564155D1*
X6088470Y-576228D1*
X6100684Y-582405D1*
X6124970D1*
X6137044Y-576228D1*
X6149257Y-564155D1*
X6155294Y-551941D1*
X6161330Y-533832D1*
Y-503368D1*
X6155294Y-485118D1*
X6149257Y-473045D1*
X6137044Y-460832D1*
X6124970Y-454795D1*
X6100684D1*
X6200546D2*
Y-545905D1*
X6206582Y-564155D1*
X6218796Y-576228D1*
X6237046Y-582405D1*
X6249119D1*
X6267369Y-576228D1*
X6279582Y-564155D1*
X6285619Y-545905D1*
Y-454795D1*
X6367371D2*
Y-582405D1*
X6324835Y-454795D2*
X6409908D1*
X6578747Y-485259D2*
Y-479222D1*
X6584783Y-467009D1*
X6590820Y-460972D1*
X6603033Y-454935D1*
X6627320D1*
X6639393Y-460972D1*
X6645429Y-467009D1*
X6651606Y-479222D1*
Y-491295D1*
X6645429Y-503509D1*
X6633356Y-521618D1*
X6572570Y-582405D1*
X6657643D1*
X5955642Y5593917D2*
X5885450D1*
X5581033Y5539237D2*
Y5648597D1*
X5635642Y5593987D2*
X5526283D1*
X5989142Y5370045D2*
X6001356Y5376082D1*
X6013429Y5388295D1*
X6019606Y5400368D1*
X6025642Y5418618D1*
Y5449082D1*
X6019606Y5467191D1*
X6013429Y5479405D1*
X6001356Y5491478D1*
X5989143Y5497655D1*
X5964856D1*
X5952783Y5491478D1*
X5940570Y5479405D1*
X5934533Y5467191D1*
X5928496Y5449082D1*
Y5418618D1*
X5934533Y5400368D1*
X5940569Y5388295D1*
X5952783Y5376082D1*
X5964856Y5370045D1*
X5989142D1*
X5889281D2*
Y5461155D1*
X5883244Y5479405D1*
X5871031Y5491478D1*
X5852781Y5497655D1*
X5840708D1*
X5822458Y5491478D1*
X5810244Y5479405D1*
X5804208Y5461155D1*
Y5370045D1*
X5722456D2*
Y5497655D1*
X5764992Y5370045D2*
X5679919D1*
X5444397Y5370186D2*
X5505043D1*
X5511080Y5424795D1*
X5505043Y5418759D1*
X5486793Y5412582D1*
X5468684D1*
X5450434Y5418759D1*
X5438220Y5430832D1*
X5432184Y5449082D1*
Y5461155D1*
X5438220Y5479405D1*
X5450434Y5491618D1*
X5468684Y5497655D1*
X5486793D1*
X5505043Y5491618D1*
X5511080Y5485441D1*
X5517257Y5473368D1*
X1135642Y5568043D2*
X1065450Y5568044D1*
X761033Y5513364D2*
Y5622723D1*
X815642Y5568114D2*
X706283D1*
X1189142Y5344168D2*
X1201356Y5350205D1*
X1213429Y5362418D1*
X1219606Y5374491D1*
X1225642Y5392741D1*
Y5423205D1*
X1219606Y5441315D1*
X1213429Y5453528D1*
X1201356Y5465601D1*
X1189143Y5471778D1*
X1164856D1*
X1152783Y5465601D1*
X1140570Y5453528D1*
X1134533Y5441315D1*
X1128496Y5423205D1*
Y5392742D1*
X1134533Y5374492D1*
X1140569Y5362419D1*
X1152783Y5350205D1*
X1164856Y5344169D1*
X1189142Y5344168D1*
X1089281Y5344169D2*
Y5435278D1*
X1083244Y5453528D1*
X1071031Y5465601D1*
X1052781Y5471778D1*
X1040708D1*
X1022458Y5465601D1*
X1010244Y5453528D1*
X1004208Y5435278D1*
Y5344169D1*
X922456D2*
Y5471778D1*
X964992Y5344169D2*
X879919D1*
X644397Y5362418D2*
X650434Y5350345D1*
X668684Y5344309D1*
X680757D1*
X699007Y5350345D1*
X711220Y5368595D1*
X717257Y5398918D1*
Y5429242D1*
X711220Y5453528D1*
X699007Y5465742D1*
X680757Y5471778D1*
X674720D1*
X656611Y5465742D1*
X644397Y5453528D1*
X638361Y5435278D1*
Y5429242D1*
X644397Y5410992D1*
X656611Y5398918D1*
X674720Y5392882D1*
X680757D1*
X699007Y5398918D1*
X711220Y5410992D1*
X717257Y5429242D1*
X-1125438Y-1704283D2*
X-1137511Y-1710319D1*
X-1149725Y-1722533D1*
X-1155761Y-1734606D1*
X-1155762Y-1758892D1*
X-1149725Y-1771106D1*
X-1137512Y-1783179D1*
X-1125439Y-1789356D1*
X-1107189Y-1795392D1*
X-1076725D1*
X-1058615Y-1789356D1*
X-1046402Y-1783179D1*
X-1034329Y-1771106D1*
X-1028152Y-1758893D1*
Y-1734606D1*
X-1034329Y-1722533D1*
X-1046402Y-1710320D1*
X-1058615Y-1704283D1*
X-1076725D1*
Y-1734606D1*
X-1155761Y-1579994D2*
X-1028152D1*
X-1155761Y-1665067D1*
X-1028152D1*
X-1155761Y-1540779D2*
X-1028152D1*
Y-1498242D1*
X-1034329Y-1479992D1*
X-1046402Y-1467779D1*
X-1058615Y-1461742D1*
X-1076725Y-1455706D1*
X-1107188D1*
X-1125438Y-1461742D1*
X-1137511Y-1467779D1*
X-1149725Y-1479992D1*
X-1155761Y-1498242D1*
Y-1540779D1*
X-637621Y-1394353D2*
Y-1454999D1*
X-583012Y-1461035D1*
X-589048Y-1454999D1*
X-595225Y-1436749D1*
Y-1418639D1*
X-589048Y-1400389D1*
X-576975Y-1388176D1*
X-558725Y-1382139D1*
X-546652Y-1382140D1*
X-528402Y-1388176D1*
X-516188Y-1400390D1*
X-510152Y-1418640D1*
Y-1436749D1*
X-516188Y-1454999D1*
X-522365Y-1461035D1*
X-534439Y-1467212D1*
X-637761Y-1342924D2*
X-510152Y-1294351D1*
X-637761Y-1245778D1*
Y-1004219D2*
Y-1083116D1*
X-510152D1*
Y-1004220D1*
X-576975Y-1083116D2*
Y-1034543D1*
X-637761Y-965004D2*
X-510152Y-879931D1*
X-637761D2*
X-510152Y-965004D1*
X-637762Y-798179D2*
X-510152D1*
X-637762Y-840715D2*
Y-755642D1*
X-1161495Y-771916D2*
X-1161494Y-705233D1*
X-1112921Y-741593D1*
Y-723343D1*
X-1106885Y-711270D1*
X-1100848Y-705233D1*
X-1082598Y-699056D1*
X-1070525D1*
X-1052275Y-705233D1*
X-1040062Y-717306D1*
X-1034025Y-735556D1*
Y-753806D1*
X-1040062Y-771916D1*
X-1046239Y-777952D1*
X-1058312Y-784129D1*
X-1046239Y-653804D2*
X-1040062Y-659841D1*
X-1034025Y-653804D1*
X-1040062Y-647627D1*
X-1046239Y-653804D1*
X-1161494Y-596198D2*
Y-529515D1*
X-1112921Y-565875D1*
Y-547625D1*
X-1106885Y-535552D1*
X-1100848Y-529515D1*
X-1082598Y-523338D1*
X-1070525D1*
X-1052275Y-529515D1*
X-1040062Y-541588D1*
X-1034025Y-559838D1*
Y-578088D1*
X-1040062Y-596198D1*
X-1046239Y-602235D1*
X-1058312Y-608411D1*
X-1161635Y-484123D2*
X-1034025Y-435550D1*
X-1161635Y-386977D1*
X6436823Y2155358D2*
X6436824Y2225550D1*
X6382144Y2529967D2*
X6491503D1*
X6436894Y2475358D2*
Y2584717D1*
X6118948Y2075358D2*
X6246558D1*
X6118949Y2199646D2*
X6246558D1*
X6118948Y2114573D1*
X6246558D1*
X6119089Y2374522D2*
Y2441204D1*
X6167662Y2404845D1*
Y2423095D1*
X6173699Y2435168D1*
X6179735Y2441204D1*
X6197985Y2447381D1*
X6210058D1*
X6228308Y2441204D1*
X6240522Y2429131D1*
X6246558Y2410881D1*
Y2392631D1*
X6240522Y2374522D1*
X6234345Y2368485D1*
X6222272Y2362308D1*
X6246558Y2486597D2*
X6119089Y2571670D1*
X6246558Y2671672D2*
X6119089D1*
X6204022Y2610886D1*
Y2701995D1*
X3595642Y5582670D2*
X3525450D1*
X3221033Y5527990D2*
Y5637350D1*
X3275642Y5582740D2*
X3166283D1*
X3675642Y5358792D2*
Y5486401D1*
X3551354Y5358792D2*
Y5486401D1*
X3636427Y5358792D1*
Y5486402D1*
X3315832Y5358932D2*
X3376478D1*
X3382515Y5413542D1*
X3376478Y5407505D1*
X3358228Y5401328D1*
X3340119D1*
X3321869Y5407505D1*
X3309655Y5419578D1*
X3303619Y5437828D1*
Y5449901D1*
X3309655Y5468151D1*
X3321869Y5480365D1*
X3340119Y5486401D1*
X3358228D1*
X3376478Y5480365D1*
X3382515Y5474188D1*
X3388692Y5462115D1*
X3264403Y5486401D2*
X3179330Y5358932D1*
X3067255Y5377042D2*
X3073291Y5364969D1*
X3091541Y5358932D1*
X3103614D1*
X3121864Y5364969D1*
X3134078Y5383219D1*
X3140114Y5413542D1*
Y5443865D1*
X3134078Y5468151D1*
X3121864Y5480365D1*
X3103614Y5486401D1*
X3097578D1*
X3079468Y5480365D1*
X3067255Y5468151D1*
X3061218Y5449901D1*
Y5443865D1*
X3067255Y5425615D1*
X3079468Y5413542D1*
X3097578Y5407505D1*
X3103614D1*
X3121864Y5413542D1*
X3134078Y5425615D1*
X3140114Y5443865D1*
X3968357Y-669293D2*
X4038550D1*
X4342967Y-614614D2*
Y-723973D1*
X4288357Y-669364D2*
X4397717D1*
X3888357Y-445418D2*
Y-573028D1*
X4012646Y-445418D2*
Y-573028D1*
X3927573Y-445418D1*
Y-573028D1*
X4175308Y-469845D2*
X4187522Y-463668D1*
X4205772Y-445559D1*
Y-573028D1*
X4244987D2*
X4330060Y-445559D1*
X4375453Y-475882D2*
Y-469845D1*
X4381490Y-457632D1*
X4387526Y-451595D1*
X4399740Y-445559D1*
X4424026D1*
X4436099Y-451595D1*
X4442136Y-457632D1*
X4448313Y-469845D1*
Y-481918D1*
X4442136Y-494132D1*
X4430063Y-512241D1*
X4369276Y-573028D1*
X4454349D1*
X452026Y267681D2*
D131*
X444782D1*
X430126Y274925D1*
X422882Y282169D1*
X415639Y296825D1*
Y325969D1*
X422883Y340456D1*
X430126Y347700D1*
X444783Y355113D1*
X459270D1*
X473926Y347700D1*
X495658Y333213D1*
X568602Y260269D1*
Y362356D1*
X2989436Y267681D2*
X2982192D1*
X2967536Y274925D1*
X2960292Y282169D1*
X2953049Y296825D1*
Y325969D1*
X2960292Y340456D1*
X2967536Y347700D1*
X2982192Y355113D1*
X2996680D1*
X3011336Y347700D1*
X3033068Y333213D1*
X3106012Y260269D1*
Y362356D1*
X2989436Y416827D2*
X2982192D1*
X2967536Y424071D1*
X2960292Y431315D1*
X2953049Y445971D1*
Y475115D1*
X2960292Y489603D1*
X2967536Y496847D1*
X2982192Y504259D1*
X2996680D1*
X3011336Y496847D1*
X3033068Y482359D1*
X3106012Y409415D1*
Y511503D1*
X5649268Y333212D2*
X5496305Y333213D1*
X5598224Y260269D1*
Y369600D1*
X5532693Y424071D2*
X5525449D1*
X5510793Y431315D1*
X5503549Y438559D1*
X5496305Y453215D1*
Y482359D1*
X5503549Y496847D1*
X5510793Y504090D1*
X5525449Y511503D1*
X5539937D1*
X5554593Y504090D1*
X5576324Y489603D1*
X5649268Y416659D1*
Y518747D1*
X273271Y4685428D2*
Y4751128D1*
X266027Y4772859D1*
X258615Y4780271D1*
X244127Y4787515D1*
X222227D1*
X207740Y4780272D1*
X200327Y4772859D1*
X193084Y4751128D1*
X193083Y4685428D1*
X346215D1*
X193252Y4870962D2*
X200496Y4849230D1*
X214984Y4841818D1*
X229640D1*
X244127Y4849230D1*
X251540Y4863718D1*
X258784Y4892862D1*
X266027Y4914762D1*
X280684Y4929249D1*
X295171Y4936493D1*
X317071D1*
X331559Y4929249D1*
X338971Y4922005D1*
X346215Y4900105D1*
Y4870962D1*
X338971Y4849230D1*
X331559Y4841818D1*
X317071Y4834574D1*
X295171D1*
X280684Y4841818D1*
X266027Y4856474D1*
X258784Y4878206D1*
X251540Y4907349D1*
X244127Y4922006D1*
X229640Y4929249D1*
X214984D1*
X200496Y4922006D1*
X193252Y4900106D1*
Y4870962D1*
X6325052Y4686200D2*
Y4751900D1*
X6317808Y4773632D1*
X6310396Y4781044D1*
X6295908Y4788288D1*
X6274008D1*
X6259521Y4781044D1*
X6252108Y4773632D1*
X6244864Y4751900D1*
Y4686200D1*
X6397996D1*
X6245033Y4871734D2*
X6252277Y4850003D1*
X6266764Y4842590D1*
X6281421D1*
X6295908Y4850003D1*
X6303321Y4864490D1*
X6310564Y4893634D1*
X6317808Y4915534D1*
X6332464Y4930022D1*
X6346952Y4937266D1*
X6368852D1*
X6383340Y4930022D1*
X6390752Y4922778D1*
X6397996Y4900878D1*
Y4871734D1*
X6390752Y4850002D1*
X6383340Y4842590D1*
X6368852Y4835346D1*
X6346952D1*
X6332464Y4842590D1*
X6317808Y4857246D1*
X6310564Y4878978D1*
X6303321Y4908122D1*
X6295908Y4922778D1*
X6281421Y4930022D1*
X6266764D1*
X6252277Y4922778D1*
X6245033Y4900878D1*
Y4871734D1*
X450049Y4524003D2*
X442637Y4538659D1*
X420905Y4560559D1*
X573868D1*
X3005744Y4382349D2*
X2998500D1*
X2983844Y4389592D1*
X2976600Y4396836D1*
X2969356Y4411492D1*
Y4440636D1*
X2976600Y4455124D1*
X2983844Y4462368D1*
X2998500Y4469780D1*
X3012988D1*
X3027644Y4462368D1*
X3049376Y4447880D1*
X3122319Y4374936D1*
Y4477024D1*
X2998500Y4524083D2*
X2991088Y4538739D1*
X2969356Y4560639D1*
X3122319D1*
X5670771Y4440929D2*
X5517807D1*
X5619727Y4367985D1*
Y4477316D1*
X5546951Y4524375D2*
X5539539Y4539031D1*
X5517807Y4560931D1*
X5670770D1*
M02*
