G04 DipTrace 3.3.1.3*
G04 Powerboardv0.7.gbs*
%MOMM*%
G04 #@! TF.FileFunction,Soldermask,Bot*
G04 #@! TF.Part,Single*
%ADD68C,4.0*%
%ADD104R,1.90015X2.20015*%
%ADD106O,1.90015X2.20015*%
%ADD108C,2.20015*%
%ADD110R,2.70015X2.70015*%
%ADD112C,2.70015*%
%FSLAX35Y35*%
G04*
G71*
G90*
G75*
G01*
G04 BotMask*
%LPD*%
D112*
X3215000Y6163750D3*
D110*
X3565000D3*
D108*
X444500Y5715000D3*
X5414253Y2203087D3*
D112*
X1520000Y-1293997D3*
X1170000D3*
X820000D3*
D110*
X470000D3*
D112*
X1170000Y2214127D3*
Y2564127D3*
Y2914127D3*
D110*
Y3264127D3*
D108*
X-820000Y-1660000D3*
X2143123Y-777873D3*
X-810000Y-570000D3*
Y-1080000D3*
D112*
X4360000Y-1293997D3*
D110*
X4010000D3*
D112*
X6899377Y2540000D3*
D110*
Y2190000D3*
D112*
X2650000Y-1293997D3*
D110*
X2300000D3*
D112*
X6540000D3*
D110*
X6190000D3*
D112*
X6899377Y1260000D3*
D110*
Y910000D3*
D112*
Y3820000D3*
D110*
Y3470000D3*
D112*
X5580000Y6147873D3*
D110*
X5930000D3*
D112*
X750000D3*
D110*
X1100000D3*
D106*
X509997Y129990D3*
X763997D3*
X1017997D3*
X1271997D3*
X1525997D3*
X1779997D3*
X2033997D3*
X2287997D3*
X2541997D3*
X2795997D3*
X3049997D3*
X3303997D3*
X3557997D3*
X3811997D3*
X4065997D3*
X4319997D3*
X4573997D3*
X4827997D3*
X5081997D3*
X5335997D3*
X5589997D3*
X5843997D3*
X6097997D3*
Y-124010D3*
X5843997D3*
X5589997D3*
X5335997D3*
X5081997D3*
X4827997D3*
X4573997D3*
X4319997D3*
X4065997D3*
X3811997D3*
X3557997D3*
X3303997D3*
X3049997D3*
X2795997D3*
X2541997D3*
X2287997D3*
X2033997D3*
X1779997D3*
X1525997D3*
X1271997D3*
X1017997D3*
X763997D3*
D104*
X509997D3*
D106*
X510010Y4950003D3*
X764010D3*
X1018010D3*
X1272010D3*
X1526010D3*
X1780010D3*
X2034010D3*
X2288010D3*
X2542010D3*
X2796010D3*
X3050010D3*
X3304010D3*
X3558010D3*
X3812010D3*
X4066010D3*
X4320010D3*
X4574010D3*
X4828010D3*
X5082010D3*
X5336010D3*
X5590010D3*
X5844010D3*
X6098010D3*
Y4696003D3*
X5844010D3*
X5590010D3*
X5336010D3*
X5082010D3*
X4828010D3*
X4574010D3*
X4320010D3*
X4066010D3*
X3812010D3*
X3558010D3*
X3304010D3*
X3050010D3*
X2796010D3*
X2542010D3*
X2288010D3*
X2034010D3*
X1780010D3*
X1526010D3*
X1272010D3*
X1018010D3*
X764010D3*
D104*
X510010D3*
D68*
X0Y4826000D3*
X6604000Y4508500D3*
Y317500D3*
X0Y0D3*
M02*
