G04 DipTrace 3.3.1.3*
G04 Powerboardv0.7.gtl*
%MOMM*%
G04 #@! TF.FileFunction,Copper,L1,Top*
G04 #@! TF.Part,Single*
G04 #@! TA.AperFunction,Conductor*
%ADD14C,0.508*%
%ADD15C,1.016*%
%ADD16C,0.3048*%
G04 #@! TA.AperFunction,ViaPad*
%ADD17C,1.524*%
G04 #@! TA.AperFunction,Conductor*
%ADD18C,0.381*%
%ADD19C,0.55*%
G04 #@! TA.AperFunction,ViaPad*
%ADD20C,0.762*%
G04 #@! TA.AperFunction,Conductor*
%ADD21C,0.635*%
%ADD22C,0.254*%
G04 #@! TA.AperFunction,CopperBalancing*
%ADD23C,0.3*%
G04 #@! TA.AperFunction,Conductor*
%ADD24C,0.7*%
%ADD25C,0.6*%
%ADD26C,0.889*%
%ADD27C,0.2032*%
%ADD30R,4.2X1.9*%
%ADD34R,0.8X1.2*%
%ADD35R,1.2X0.8*%
%ADD36R,1.3X1.4*%
%ADD37R,0.8X0.8*%
%ADD38R,3.15X1.78*%
%ADD39R,2.0X5.3*%
%ADD40R,5.3X2.0*%
G04 #@! TA.AperFunction,ComponentPad*
%ADD42C,2.5*%
%ADD43R,2.5X2.5*%
%ADD44C,2.0*%
%ADD48O,1.7X2.0*%
%ADD49R,1.7X2.0*%
%ADD51R,1.0X1.1*%
%ADD52R,1.1X1.0*%
%ADD53R,0.7X0.9*%
%ADD54R,2.0X1.6*%
%ADD55R,1.3X1.6*%
%ADD56R,0.9X0.7*%
%ADD57R,1.0X0.6*%
%ADD58R,1.0X0.8*%
%ADD59R,1.2X0.55*%
%ADD61R,1.1X0.6*%
%ADD63O,0.3X0.85*%
%ADD64O,0.85X0.3*%
%ADD65R,3.4X2.4*%
%ADD67R,2.4X3.4*%
%FSLAX35Y35*%
G04*
G71*
G90*
G75*
G01*
G04 Top*
%LPD*%
X4127500Y587377D2*
D14*
X4191000D1*
X4381500Y396877D1*
X4387020D1*
X4387520Y397377D1*
X4413753D1*
X4508500Y492123D1*
Y635000D1*
X4556127Y682627D1*
X4699000D1*
X4762500Y619127D1*
Y523877D1*
X4794000Y492377D1*
X4889500D1*
X763997Y-124010D2*
D15*
X754000Y-134007D1*
D16*
Y-236000D1*
X630000Y-360000D1*
X-550000D1*
X-760000Y-570000D1*
X-810000D1*
X763997Y129990D2*
D15*
Y-124010D1*
X-95250Y-619123D2*
D17*
Y-955247D1*
X-180007Y-1040003D1*
X1017997Y-124010D2*
Y-236130D1*
X698500Y-555623D1*
X15877D1*
X-63500Y-635000D1*
X-111127D1*
X-95250Y-619123D1*
X-810000Y-1080000D2*
D16*
X-220003D1*
X-180007Y-1040003D1*
X1017997Y-124010D2*
Y129990D1*
D15*
Y818000D1*
X1020010Y820013D1*
X3508373Y635000D2*
D18*
Y539753D1*
Y476250D1*
X3587623D1*
Y825500D1*
X3506000Y492127D2*
D15*
X4016450D1*
X4016700Y492377D1*
D19*
X4127500D1*
X3508373Y539753D2*
D15*
X3506000Y492127D1*
X4629480Y587377D2*
D16*
Y561643D1*
X4793747Y397377D1*
X4889500D1*
D20*
Y191493D1*
D16*
X4827997Y129990D1*
X5078500Y395377D2*
D21*
X4889500Y397377D1*
X4127500D2*
D20*
Y322487D1*
X4319997Y129990D1*
X-1156813Y985000D2*
D22*
X-716813D1*
X-936813Y1430000D2*
D21*
Y1270190D1*
X-716813Y1050190D1*
Y985000D1*
X-719377Y-70000D2*
D22*
X-1159377D1*
X320010Y820013D2*
D18*
Y666750D1*
X111123D1*
X-939377Y375000D2*
D21*
Y150000D1*
X-719377Y-70000D1*
X-385250Y-619123D2*
D17*
Y-635000D1*
X-555627D1*
X3260000Y-614053D2*
D23*
Y-510000D1*
D18*
X3333750Y-436250D1*
Y-396873D1*
X6930000Y-1290000D2*
Y-1140000D1*
X6940000Y-1130000D1*
X3810000Y-333373D2*
X3921123D1*
X5225000Y-1205000D2*
Y-1185000D1*
X5234000Y-1176000D1*
D23*
Y-1056750D1*
X5225000Y-1205000D2*
D18*
Y-1265000D1*
X5300000Y-1340000D1*
X4365623Y-793750D2*
Y-775623D1*
X4310000Y-720000D1*
X4180000D1*
X4570000Y-618250D2*
X4541123D1*
X4365623Y-793750D1*
X7169873Y243750D2*
D21*
Y47627D1*
D18*
X7175500D1*
X5260000Y1390000D2*
D22*
Y1370000D1*
X5430000D1*
X5633830Y2158617D2*
X5458723D1*
X5414253Y2203087D1*
X5048250Y1365250D2*
D14*
X5235250D1*
D22*
X5260000Y1390000D1*
X5226703Y3045267D2*
Y2996010D1*
X5164843Y2934150D1*
X5725000Y3485000D2*
X5884467D1*
X5900743Y3468723D1*
X6103903D1*
X6127750Y3444877D1*
X6375000Y5945000D2*
D18*
X6132873D1*
X5930000Y6147873D1*
X7223123Y4762500D2*
Y4937127D1*
X7175500D1*
X63500Y6365877D2*
Y6207127D1*
X1936750Y6365877D2*
D22*
X1968500D1*
D18*
Y6223000D1*
D22*
Y6183050D1*
X1965000Y6186550D1*
Y6125000D1*
X2047873Y6350000D2*
X1936750D1*
Y6365877D1*
X2746377Y5648500D2*
D20*
Y5556250D1*
X2857500Y5445127D1*
X3980000Y5980000D2*
D24*
Y5970000D1*
D15*
X3890000Y5880000D1*
X4400000Y5410000D2*
D22*
X4310000D1*
X4280000Y5380000D1*
X4600000Y5710000D2*
Y5461000D1*
X4619623D1*
X-936627Y190500D2*
Y372250D1*
D15*
X-939377Y375000D1*
X3254377Y-1539873D2*
D22*
Y-1492250D1*
X3302000Y-1539873D1*
D20*
X3413123D1*
X2373500Y-762000D2*
D22*
X2143123D1*
Y-777873D1*
X2373500Y-762000D2*
D20*
X2143123D1*
Y-777873D1*
X4730750Y-1656373D2*
D15*
X4783750D1*
X4794250Y-1666873D1*
X4508500D1*
Y-1682750D1*
X6789250Y-844250D2*
Y-841373D1*
X7016747D1*
X6477000Y976500D2*
Y777877D1*
X6976873Y2905127D2*
X7096123Y2921000D1*
X7260527Y4222750D2*
X7350123D1*
X3436750Y5746750D2*
Y6035500D1*
X3565000Y6163750D1*
X5930000Y6147873D2*
Y5858750D1*
X5818000Y5746750D1*
X444500Y5715000D2*
X605623D1*
X6477000Y976500D2*
X6832877D1*
X6899377Y910000D1*
X2373500Y-762000D2*
Y-1220497D1*
X2300000Y-1293997D1*
X3857623Y920500D2*
D21*
X3714750D1*
Y920750D1*
X3857623Y920500D2*
X3968497D1*
X4016373Y968377D1*
X4095750D1*
X4629480Y397377D2*
D20*
Y185473D1*
D18*
X4573997Y129990D1*
X3326000Y492127D2*
D15*
X3238500D1*
D18*
Y539750D1*
X3190873Y492123D1*
Y476250D1*
X4387520Y587377D2*
X4381500D1*
D21*
Y698500D1*
X5208500Y395377D2*
X5349873D1*
D18*
Y396877D1*
X-1158877Y1143000D2*
D15*
Y1067863D1*
X-1156813Y1065800D1*
D25*
Y985000D1*
X3050000Y-1710000D2*
D20*
X3254373Y-1709873D1*
X6930000Y-1650000D2*
D18*
Y-1460000D1*
X3555000Y-859053D2*
D23*
Y-909053D1*
D20*
X3649053D1*
D15*
X3771873Y-1031873D1*
X4159247D1*
X4421370Y-1293997D1*
X4360000D1*
X3895000Y-725000D2*
D18*
X4045000D1*
X4160000Y-840000D1*
Y-1016750D1*
X4437247Y-1293997D1*
X4360000D1*
X4939000Y-761750D2*
X4920000D1*
D15*
X4556123D1*
Y-1097873D1*
X4360000Y-1293997D1*
X4939000Y-811750D2*
D23*
Y-761750D1*
X4710000Y-810000D2*
D18*
X4556123Y-761750D1*
X4180000Y-850000D2*
X4160000Y-840000D1*
X4570000Y-748250D2*
D15*
Y-1097873D1*
X4556123D1*
X4360000Y-1293997D2*
D20*
X4349750D1*
D15*
Y-1158877D1*
X4619623Y-1428750D1*
X4683123D1*
X4730750Y-1476373D1*
X7345750Y487750D2*
D18*
Y243750D1*
X7339873D1*
X7053123Y4762500D2*
Y4496753D1*
X7068750Y4481127D1*
X6375000Y6115000D2*
Y6445000D1*
X6380000Y6450000D1*
X330000Y6540000D2*
Y6535877D1*
X63500D1*
X1170000Y2214127D2*
D15*
X1341873D1*
X1619250Y1936750D1*
X2619373D1*
Y1952627D1*
X1170000Y2564127D2*
X1769747D1*
X2127250Y2206627D1*
X6380000Y6600000D2*
D18*
Y6604000D1*
X6036127D1*
X5580000Y6147877D1*
D22*
X5570000D1*
D15*
Y5990000D1*
X4890000D1*
X4875000Y6005000D1*
X4855227D1*
D23*
X4795000D1*
Y5955000D1*
X5580000Y6147877D2*
D15*
Y5804750D1*
X5638000Y5746750D1*
X330000Y6390000D2*
D18*
X468000D1*
X730063Y6127937D1*
X750000Y6147873D1*
X1770000Y5880000D2*
D23*
Y5830000D1*
X785623Y5715000D2*
D15*
Y6112250D1*
X750000Y6147873D1*
X1770000Y5830000D2*
D18*
X1400873D1*
X1206500Y5635627D1*
X864997D1*
D21*
X785623Y5715000D1*
X952500D1*
D17*
X1016000Y5651500D1*
X3279373Y1952627D2*
D21*
X3317873D1*
X3582123Y1688377D1*
X3171920Y821250D2*
D18*
Y987317D1*
X3047987Y1111250D1*
X3582123Y1518377D2*
D21*
Y1312000D1*
X3413123Y1143000D1*
X3582123Y1518377D2*
X3455113D1*
X3047987Y1111250D1*
X3413123Y1143000D2*
X3571623Y1301500D1*
X3857623Y1015500D1*
X1170000Y-1293997D2*
D15*
X1214253D1*
X948247Y-1560003D1*
X-180007D1*
X6899377Y2540000D2*
D18*
X6750000D1*
D17*
X6235210D1*
X5826837D1*
X5441037Y2925800D1*
D15*
Y3014733D1*
Y3143633D1*
D23*
X5453753Y3156350D1*
X5430000D1*
Y3190000D1*
X5675000Y1665000D2*
X5725000D1*
X5730000Y1670000D1*
D22*
Y2034790D1*
D17*
X5819840Y2124630D1*
X6235210Y2540000D1*
X5763830Y2158617D2*
D22*
X5785853D1*
X5819840Y2124630D1*
X5700000Y2010000D2*
X5705210D1*
X5730000Y2034790D1*
X5356703Y3045267D2*
Y3059300D1*
X5441037Y3143633D1*
X5517253Y2994413D2*
X5461357D1*
X5441037Y3014733D1*
X6796873Y2905127D2*
D15*
Y2642503D1*
X6899377Y2540000D1*
X5430000Y3190000D2*
D23*
X5480000D1*
X2260000Y5852127D2*
Y5880000D1*
X4305000Y5955000D2*
Y6005000D1*
X3215000Y6163750D2*
D15*
Y5788500D1*
X3256750Y5746750D1*
X2260000Y5830000D2*
D22*
X2440000D1*
D21*
X2694877D1*
D22*
X2746373Y5778500D1*
X2825747D1*
X2873373Y5826127D1*
D26*
X3177373D1*
D22*
X3256750Y5746750D1*
X4095750Y5972000D2*
D18*
X4252000D1*
X4285000Y6005000D1*
D23*
X4305000D1*
X3215000Y6163750D2*
D17*
Y6310627D1*
X3333750Y6429377D1*
X3714747D1*
X3967710Y6176413D1*
X3980000Y6188703D1*
D24*
Y6110000D1*
X4040710Y6170710D1*
D15*
Y6151040D1*
X4114850Y6076900D1*
X4095750Y6057800D1*
D24*
Y5972000D1*
X3857623Y825500D2*
D21*
X3889373D1*
X3905247Y809627D1*
X4095750D1*
Y798377D1*
D18*
X4100377D1*
X4143377Y841377D1*
D21*
X4699000D1*
X4889500Y650877D1*
Y587377D1*
X3165000Y-435000D2*
D18*
Y-495000D1*
D22*
X3210000Y-540000D1*
D23*
Y-614053D1*
X5430000Y1320000D2*
D22*
X5320000D1*
X5210000Y1210000D1*
X5220000D1*
X4650000Y5710000D2*
Y5640000D1*
X4700000Y5590000D1*
X4710000D1*
X4755000Y5545000D1*
X3033623Y-477750D2*
D18*
X3067750D1*
D22*
X3116477Y-526477D1*
D23*
Y-570530D1*
X3160000Y-614053D1*
X2939873Y-603250D2*
D18*
X2984500D1*
Y-539750D1*
X3046500Y-477750D1*
X3033623D1*
X5430000Y1270000D2*
D22*
Y1260000D1*
X5340000Y1170000D1*
D18*
X5370500D1*
X5429250Y1111250D1*
Y1082500D1*
X5462500Y1049250D1*
X4900000Y5700000D2*
D22*
X4710000D1*
X4700000Y5710000D1*
X4965873Y5826123D2*
D18*
Y5823127D1*
X4905373Y5762627D1*
Y5705373D1*
X4900000Y5700000D1*
X3555000Y-709053D2*
D23*
X3592577Y-671477D1*
D18*
X3628523D1*
X3710000Y-590000D1*
X3770000Y-480000D2*
Y-490000D1*
X3720000Y-540000D1*
Y-580000D1*
X3710000Y-590000D1*
X5390000Y1820000D2*
Y1800000D1*
X5481477Y1708523D1*
D23*
X5525000Y1665000D1*
X5300000Y1700000D2*
D18*
Y1730000D1*
X5390000Y1820000D1*
X4175000Y5665000D2*
D22*
Y5675000D1*
X4305000Y5805000D1*
X4175000Y5665000D2*
D18*
Y5575000D1*
X4140000Y5540000D1*
X3555000Y-809053D2*
D23*
X3620947D1*
D18*
X3680000Y-750000D1*
X3740000D1*
X3765000Y-725000D1*
X3810000Y-680000D1*
Y-590000D1*
X3840000D1*
X5570000Y2010000D2*
Y1810000D1*
X5619750Y1760250D1*
D22*
Y1721300D1*
X5625000Y1726550D1*
D23*
Y1665000D1*
X5390000Y1950000D2*
D18*
X5510000D1*
X5570000Y2010000D1*
X4095750Y5842000D2*
X4079877Y5857877D1*
X4197877D1*
X4245000Y5905000D1*
D22*
X4305000D1*
X4095750Y5842000D2*
D18*
Y5715750D1*
X4045000Y5665000D1*
X4800000Y-1130000D2*
Y-1240000D1*
X4805000Y-1245000D1*
X4800000Y-1130000D2*
X4830000D1*
X4940000Y-1020000D1*
Y-1009997D1*
X4939000Y-1008997D1*
D23*
Y-961750D1*
X5875687Y3058167D2*
D22*
Y3165433D1*
X5631773D1*
Y3188227D1*
X5630000Y3190000D1*
X5875687Y3058167D2*
Y3195357D1*
X5870607Y3200437D1*
X2349500Y6238873D2*
D21*
Y6130500D1*
X2390000Y6090000D1*
D22*
X2320000D1*
X2260000Y6030000D1*
X4710000Y-940000D2*
D18*
X4740000D1*
X4800000Y-1000000D1*
X4710000Y-940000D2*
X4760000D1*
X4820000Y-880000D1*
X4864397D1*
X4882647Y-861750D1*
D23*
X4939000D1*
X5647253Y2994413D2*
D22*
Y3011893D1*
X5577277Y3081870D1*
X5557297D1*
X5530047Y3109120D1*
Y3189953D1*
X5530000Y3190000D1*
X5647253Y2994413D2*
X5681933D1*
X5745687Y3058167D1*
X2260000Y5930000D2*
X2410000D1*
X2440000Y5960000D1*
X2520000Y6090000D2*
Y6040000D1*
D21*
X2440000Y5960000D1*
X5284000Y-1056750D2*
D22*
Y-1124000D1*
X5363500Y-1203500D1*
X5445123D1*
X5725000Y3535000D2*
X5810287D1*
X5866100Y3590813D1*
X1750000Y6250000D2*
D27*
X1846250D1*
X1920000Y6176250D1*
Y6120000D1*
X1915000Y6125000D1*
X5334000Y-1056750D2*
D23*
X5364050D1*
D18*
Y-1065947D1*
X5495947D1*
X5520000Y-1090000D1*
X5586500Y-966877D2*
Y-969873D1*
X5540373Y-1016000D1*
Y-1069627D1*
X5520000Y-1090000D1*
X5725000Y3585000D2*
D22*
Y3698170D1*
X5756363Y3729533D1*
X5823123Y3841750D2*
D18*
X5810250D1*
X5746750Y3778250D1*
Y3739147D1*
X5756363Y3729533D1*
X1865000Y6125000D2*
D22*
Y6120000D1*
X1840000D1*
X1830000Y6110000D1*
X1620000D1*
X1615000Y6105000D1*
X1476377Y6045377D2*
D18*
X1555377D1*
X1615000Y6105000D1*
X2650000Y-1293997D2*
D15*
X2630000Y-1273997D1*
D18*
Y-1074250D1*
X3050000Y-1494250D1*
Y-1560000D1*
X3065000Y-859053D2*
D23*
Y-909053D1*
X3030947D1*
D15*
X2955000Y-985000D1*
Y-988997D1*
X2650000Y-1293997D1*
X2553500Y-762000D2*
Y-1197497D1*
D20*
X2650000Y-1293997D1*
X6930000Y-1800000D2*
D14*
X6870000D1*
X6550000Y-1480000D1*
Y-1080000D1*
X6590000D1*
Y-1020000D1*
X6540000Y-1070000D1*
Y-1293997D1*
X5429000Y-761750D2*
D23*
X5518300D1*
D15*
X6361750D1*
X6510000Y-910000D1*
Y-1263997D1*
X6540000Y-1293997D1*
Y-1182627D1*
X6609250Y-1113377D1*
Y-844250D1*
X5425000Y-770947D2*
X5512667Y-775703D1*
D23*
X5518300Y-761750D1*
X6899377Y1260000D2*
D18*
X7195750Y963627D1*
Y487750D1*
X5675000Y1175000D2*
D23*
X5725000D1*
X6477000Y1156500D2*
D15*
X6795877D1*
X6899377Y1260000D1*
X6477000Y1156500D2*
D17*
X6315873D1*
X6350000Y1190627D1*
X6254750D1*
X6899377Y3820000D2*
D18*
Y4161753D1*
X7218750Y4481127D1*
X5430000Y3680000D2*
D16*
Y3826623D1*
D17*
X5588003Y3984627D1*
X6734750D1*
D15*
X6899377Y3820000D1*
Y4041600D1*
X7080527Y4222750D1*
X2177877Y6350000D2*
D27*
X2159000D1*
D18*
Y6254750D1*
X2111373Y6207123D1*
D27*
Y6125000D1*
X2115000D1*
X4574010Y4696003D2*
D22*
X4440000Y4830013D1*
Y5084123D1*
D20*
X4374123Y5150000D1*
X3390750D1*
X2921000Y5619750D1*
Y6048377D2*
D22*
X2936873D1*
D20*
Y6318250D1*
X2762247Y6492877D1*
X2349503D1*
D21*
X2190000Y6333373D1*
D22*
Y6337877D1*
X2177877Y6350000D1*
X4400000Y5540000D2*
X4450000D1*
Y5710000D1*
X4400000Y5540000D2*
D18*
X4413627D1*
X4492623Y5461003D1*
Y5349877D1*
X4699000Y5143500D1*
Y4825013D1*
X4828010Y4696003D1*
X5430000Y1520000D2*
D23*
X5368450D1*
D18*
X5260000D1*
X5336010Y4696003D2*
D20*
Y4685133D1*
X4980000Y4329123D1*
Y1655750D1*
X5095873Y1539877D1*
X5240127D1*
X5260000Y1520000D1*
X5725000Y3335000D2*
D22*
X5897020D1*
X5900743Y3338723D1*
D14*
X5991277D1*
X6030000Y3300000D1*
X6260000D1*
D21*
X6365873Y3405873D1*
Y3651250D1*
X6318250Y4191000D2*
D14*
Y4271750D1*
D21*
X6070000Y4520000D1*
Y4667993D1*
D14*
X6098010Y4696003D1*
X1170000Y2914127D2*
D15*
X1136127D1*
X904873Y2682873D1*
Y2127250D1*
X1840000Y1192127D1*
Y382500D1*
X2050000Y172500D1*
Y145993D1*
X2033997Y129990D1*
X3811997Y-124010D2*
X3797113D1*
X3641167Y-279960D1*
X3680000Y-318793D1*
D24*
Y-333373D1*
X3603627D1*
D15*
X3492500Y-444500D1*
D20*
Y-428627D1*
X3410000Y-511127D1*
D23*
Y-614053D1*
X5084000Y-1056750D2*
Y-1127497D1*
D18*
X5080000D1*
Y-1190000D1*
X5095000Y-1205000D1*
Y-1348500D1*
D21*
X5222873Y-1476373D1*
X5619753D1*
X5873750Y-1222377D1*
Y-952500D1*
X5840000Y-600000D2*
D18*
Y-530000D1*
D21*
X5589997Y-279997D1*
Y-124010D1*
X2127250Y1546627D2*
Y1047750D1*
X2333623Y841377D1*
X2943113D1*
X2922987Y821250D1*
X2877623D1*
X3048000Y650877D1*
X3222627D1*
X3413123Y841373D1*
Y1013000D1*
X3587623Y1015500D1*
X3360000Y-614053D2*
D23*
Y-681550D1*
D18*
Y-777500D1*
X3341553D1*
X3310000Y-809053D1*
X3640000Y-480000D2*
X3615750D1*
X3556000Y-539750D1*
X3320000Y-760000D2*
X3341553Y-777500D1*
X3420000Y-760000D2*
X3360000Y-777500D1*
X3320000Y-865000D2*
X3341553Y-777500D1*
X3360000Y-681550D2*
Y-759053D1*
X3310000Y-809053D1*
X2903623Y-477750D2*
Y-430123D1*
X2936873Y-396873D1*
X3165000Y-305000D2*
X3044627D1*
X2952753Y-396873D1*
X2936873D1*
X2809873Y-603247D2*
Y-571500D1*
X2903623Y-477750D1*
X5170000Y1700000D2*
X5191123D1*
Y1793877D1*
X5572123Y1524000D2*
Y1517000D1*
X5556250D1*
Y1488750D1*
X5584377Y1460623D1*
X5625000Y1420000D1*
X5220000Y1080000D2*
D22*
X5300000D1*
X5340000Y1040000D1*
X5358000D1*
X5270500Y952500D1*
X5430000Y1470000D2*
X5514373D1*
X5575000D1*
X5625000Y1420000D1*
X5667373Y1524003D2*
X5514373Y1470000D1*
X5572123Y1428750D2*
D18*
X5556250Y1517000D1*
X5667373Y1428753D2*
X5651500Y1444627D1*
X5625000Y1420000D1*
X5667373Y1333500D2*
X5584377Y1460623D1*
X5572123Y1333503D2*
X5651500Y1444627D1*
X5340000Y1040000D2*
X5334000D1*
Y1000123D1*
X5414873Y919250D1*
X5462500D1*
X4500000Y5710000D2*
D23*
Y5771550D1*
D18*
Y5802877D1*
X4445000Y5857877D1*
X4270000Y5540000D2*
Y5640000D1*
D22*
X4300000D1*
X4885000Y5545000D2*
X4905000D1*
D18*
X4965787Y5605787D1*
D22*
Y5615787D1*
D18*
X5050000Y5700000D1*
D22*
X5030000D1*
X4445000Y5857877D2*
X4556123D1*
X4445000D2*
D18*
X4502877D1*
X4550000Y5905000D1*
X5095873Y5826123D2*
Y5765873D1*
X5030000Y5700000D1*
X5650000Y-1090000D2*
Y-1160373D1*
X5445123Y-1365250D1*
Y-1333500D1*
X5080000Y-925000D2*
X5190000D1*
X5445123Y-1365250D2*
X5540373Y-1270000D1*
X4935000Y-1245000D2*
Y-1175000D1*
X4960000Y-1150000D1*
X5190000Y-820000D2*
Y-925000D1*
X5184000Y-861750D2*
Y-919000D1*
X5190000Y-925000D1*
X5716500Y-966877D2*
Y-1023500D1*
X5650000Y-1090000D1*
X5134000Y-1056750D2*
D23*
Y-995200D1*
D18*
Y-911750D1*
X5184000Y-861750D1*
X5886363Y3729533D2*
D22*
X5895573D1*
X5942577Y3682530D1*
X5967967Y3657140D1*
Y3618947D1*
X5996100Y3590813D1*
X6000607Y3200437D2*
Y3099393D1*
X5990000Y3110000D1*
X5996100Y3590813D2*
Y3629007D1*
X5967967Y3657140D1*
X5942577Y3682530D2*
X5972530D1*
X5980000Y3690000D1*
X5725000Y3385000D2*
X5543997D1*
X5476873Y3317877D1*
X5725000Y3385000D2*
D23*
X5663450D1*
D18*
X5580000D1*
X5530000Y3435000D1*
X5886363Y3729533D2*
X5888533D1*
X5937250Y3778250D1*
Y3825877D1*
X5953123Y3841750D1*
X2065000Y6125000D2*
D23*
Y6063450D1*
D18*
Y6030000D1*
Y5980000D1*
X2015000Y5930000D1*
X2016123Y5984877D2*
X2065000Y6030000D1*
X1750000Y6380000D2*
D22*
X1660000D1*
X1630000Y6350000D1*
X1615000Y6235000D2*
Y6335000D1*
X1630000Y6350000D1*
X2479500Y6238873D2*
X2492373D1*
Y6334127D1*
X1476377Y6175377D2*
D18*
X1555750Y6254750D1*
X1595250D1*
X1615000Y6235000D1*
X-716813Y1355000D2*
D26*
X-471813Y1600000D1*
X1067000D1*
X1650000Y1017000D1*
D21*
Y315060D1*
D18*
Y-7D1*
D21*
X1525997Y-124010D1*
X-719377Y300000D2*
Y344247D1*
D26*
X296377Y1360000D1*
X1030000D1*
X1525997Y864003D1*
D21*
Y129990D1*
D17*
X3508373Y635000D3*
X3333750Y-396873D3*
X3921123Y-333373D3*
X7175500Y4937127D3*
X63500Y6207127D3*
X2857500Y5445127D3*
X3413123Y-1539873D3*
X4508500Y-1682750D3*
X7016747Y-841373D3*
X6477000Y777877D3*
X7096123Y2921000D3*
X7350123Y4222750D3*
X3333750Y-396873D3*
X3921123Y-333373D3*
D3*
X2921000Y5619750D3*
Y6048377D3*
X6365873Y3651250D3*
X6318250Y4191000D3*
X5873750Y-952500D3*
X5840000Y-600000D3*
D20*
X3556000Y-539750D3*
X2936873Y-396873D3*
X5191123Y1793877D3*
X5572123Y1524000D3*
X5270500Y952500D3*
X4300000Y5640000D3*
X4965787Y5605787D3*
X5540373Y-1270000D3*
X4960000Y-1150000D3*
X5990000Y3110000D3*
X5980000Y3690000D3*
X1630000Y6350000D3*
X2492373Y6334127D3*
D17*
X4381500Y698500D3*
X5048250Y1365250D3*
D20*
X5476873Y3540127D3*
Y3317877D3*
X5080000Y-820000D3*
X5190000D3*
X5290000D3*
X5080000Y-925000D3*
X5190000D3*
X5290000D3*
X3210000Y-760000D3*
X3320000D3*
X3420000D3*
X3210000Y-865000D3*
X3320000D3*
X3420000D3*
D17*
X3930000Y6500000D3*
X5842000Y4365627D3*
X4286250Y-349250D3*
X7175500Y47627D3*
X4953000Y5207000D3*
X-555627Y-635000D3*
X-936627Y190500D3*
X2428873Y317500D3*
X3079750Y2397127D3*
X1930000Y5200000D3*
X3079750Y4178877D3*
X1936750Y6365877D3*
X1492250Y1809750D3*
X-480000Y960000D3*
X111123Y666750D3*
X6940000Y-1130000D3*
X1841500Y4178877D3*
X2010000Y930000D3*
X4280000Y5380000D3*
X3079750Y3349623D3*
X3890000Y5880000D3*
X889000Y1809750D3*
X1841500Y3349623D3*
X560000Y4178877D3*
X4365623Y-793750D3*
X5164843Y2934150D3*
X110000Y930000D3*
X4328127Y4178877D3*
X3714750Y920750D3*
X4413250Y1016000D3*
X6858000Y5318127D3*
X4619623Y5461000D3*
X6032500Y-1603373D3*
X5300000Y-1340000D3*
X6127750Y3444877D3*
D20*
X1905000Y5984877D3*
X2016123D3*
X4445000Y5857877D3*
X4556123D3*
D17*
X3190873Y476250D3*
X5349873Y396877D3*
D20*
X5667373Y1524003D3*
X5572123Y1428750D3*
X5667373Y1428753D3*
Y1333500D3*
X5572123Y1333503D3*
Y3540127D3*
X5476873Y3429000D3*
X5572123D3*
Y3317877D3*
X4445000Y5953127D3*
X4556123D3*
X4651373Y5857877D3*
Y5953127D3*
X1905000Y5873750D3*
X2016123D3*
X2127250Y5984877D3*
Y5873750D3*
D17*
X4328127Y2397127D3*
Y3288003D3*
X-1158877Y1143000D3*
X5394030Y3908213D2*
D23*
X5509130D1*
X5374287Y3878550D2*
X5474740D1*
X5367900Y3848887D2*
X5474740D1*
X5367900Y3819223D2*
X5474740D1*
X5367900Y3789560D2*
X5474740D1*
X5367900Y3759897D2*
X5474740D1*
X5367900Y3730233D2*
X5474740D1*
X5367900Y3700570D2*
X5474740D1*
X5367900Y3670907D2*
X5474740D1*
X5477750Y3650433D2*
X5478020Y3876320D1*
X5479613Y3880733D1*
X5482490Y3884440D1*
X5536493Y3927703D1*
X5478080Y3937470D1*
X5391267Y3908530D1*
X5364873Y3868960D1*
Y3650340D1*
X5477700Y3650377D1*
X5699227Y1193587D2*
X6322220D1*
X5699227Y1163923D2*
X6322220D1*
X5697937Y1134260D2*
X6322220D1*
X5685400Y1104597D2*
X6322220D1*
X5901187Y1223260D2*
X5893743Y1215857D1*
X5884703Y1209287D1*
X5874750Y1204217D1*
X5864123Y1200763D1*
X5853087Y1199013D1*
X5801217Y1198797D1*
X5801203Y1193797D1*
X5696157D1*
X5695987Y1141913D1*
X5694237Y1130877D1*
X5690783Y1120250D1*
X5685713Y1110297D1*
X5682377Y1105357D1*
X5682373Y1094537D1*
X6325250Y1094500D1*
X6325247Y1222020D1*
X6310263Y1223250D1*
X5901267D1*
X2947613Y5876713D2*
X3138233D1*
X2256400Y5847050D2*
X2326740D1*
X2553557D2*
X2640300D1*
X2852760D2*
X3128330D1*
X2256400Y5817387D2*
X2326740D1*
X2553557D2*
X2633093D1*
X2859907D2*
X3128273D1*
X3062853Y5787723D2*
X3128273D1*
X3066017Y5758060D2*
X3128273D1*
X3066017Y5728397D2*
X3128273D1*
X3066017Y5698733D2*
X3128273D1*
X3066017Y5669070D2*
X3128273D1*
X2305320Y5861100D2*
X2293087Y5859013D1*
X2253343Y5858793D1*
X2253373Y5793487D1*
X2329710Y5793500D1*
X2329720Y5861053D1*
X2305423Y5861093D1*
X3191307Y5903550D2*
X3252120D1*
X3252550Y5906410D1*
X3003923Y5906377D1*
X2941400Y5875327D1*
X2937933Y5874667D1*
X2818350Y5874627D1*
X2828277Y5869737D1*
X2835893Y5864200D1*
X2842550Y5857543D1*
X2848087Y5849927D1*
X2852360Y5841537D1*
X2855270Y5832580D1*
X2856743Y5823280D1*
X2856930Y5793557D1*
X3050347Y5793313D1*
X3054810Y5791863D1*
X3058607Y5789107D1*
X3061363Y5785310D1*
X3062813Y5780847D1*
X3063000Y5733503D1*
Y5650603D1*
X3131370Y5650627D1*
X3131243Y5843547D1*
X3131983Y5852933D1*
X3134180Y5862087D1*
X3137783Y5870787D1*
X3142703Y5878817D1*
X3148817Y5885977D1*
X3155977Y5892090D1*
X3164007Y5897010D1*
X3172707Y5900613D1*
X3181860Y5902810D1*
X3191267Y5903550D1*
X2636097Y5793447D2*
X2636283Y5823280D1*
X2637757Y5832580D1*
X2640667Y5841537D1*
X2644940Y5849927D1*
X2650473Y5857543D1*
X2657133Y5864203D1*
X2664750Y5869737D1*
X2673157Y5874017D1*
X2666903Y5874627D1*
X2550607D1*
X2550553Y5793553D1*
X2636123Y5793500D1*
X4013783Y6210087D2*
X4043520D1*
X4093520Y6150760D2*
X4114733D1*
X4093577Y6121097D2*
X4150327D1*
X4093577Y6091433D2*
X4185947D1*
X4184857Y6061770D2*
X4221510D1*
X4206123Y6032107D2*
X4257130D1*
X4209053Y6002443D2*
X4284140D1*
X4010753Y6210080D2*
X4035253Y6209893D1*
X4044553Y6208420D1*
X4050557Y6206740D1*
X4021347Y6231080D1*
X4010793Y6210050D1*
X4090553Y6135073D2*
Y6073617D1*
X4150730Y6073473D1*
X4160030Y6072000D1*
X4168987Y6069090D1*
X4177377Y6064817D1*
X4184993Y6059280D1*
X4191650Y6052623D1*
X4197187Y6045007D1*
X4201460Y6036617D1*
X4204370Y6027660D1*
X4205843Y6018360D1*
X4206030Y5983950D1*
X4287097Y5984000D1*
X4287123Y6009600D1*
X4082470Y6180147D1*
X4085983Y6173037D1*
X4088893Y6164080D1*
X4090367Y6154780D1*
X4090553Y6135073D1*
X1404090Y5844963D2*
X1785820D1*
X1370697Y5815300D2*
X1785353D1*
X1337360Y5785637D2*
X1733443D1*
X1303963Y5755973D2*
X1681537D1*
X914127Y5726310D2*
X1629627D1*
X914127Y5696647D2*
X1577720D1*
X914127Y5666983D2*
X1525810D1*
X914127Y5637320D2*
X1473903D1*
X913187Y5607657D2*
X1421993D1*
X898660Y5577993D2*
X1370087D1*
X1742523Y5858797D2*
X1731360Y5859673D1*
X1720497Y5862280D1*
X1710173Y5866557D1*
X1700647Y5872393D1*
X1697817Y5874623D1*
X1434437Y5874627D1*
X1293710Y5749837D1*
X1289373Y5748043D1*
X1285873Y5747627D1*
X911090D1*
X910947Y5613497D1*
X909473Y5604197D1*
X906563Y5595243D1*
X902287Y5586853D1*
X896753Y5579233D1*
X890080Y5572567D1*
X899613Y5571250D1*
X1361223D1*
X1788813Y5815560D1*
X1788797Y5858843D1*
X1742500Y5858853D1*
X5447277Y-759037D2*
X6480733D1*
X5447277Y-788700D2*
X6480733D1*
X6335343Y-818363D2*
X6480733D1*
X6364987Y-848027D2*
X6480733D1*
X6394633Y-877690D2*
X6480733D1*
X6424337Y-907353D2*
X6480733D1*
X6453983Y-937017D2*
X6480733D1*
X5456477Y-790547D2*
X5467640Y-791423D1*
X5478503Y-794030D1*
X5488827Y-798307D1*
X5498353Y-804143D1*
X5505870Y-810497D1*
X6320597Y-810687D1*
X6325060Y-812137D1*
X6328857Y-814893D1*
X6483230Y-969270D1*
X6493813Y-969250D1*
X6490283Y-963240D1*
X6486680Y-954540D1*
X6484483Y-945387D1*
X6483743Y-936000D1*
X6483927Y-742747D1*
X6485407Y-733430D1*
X6472520Y-729373D1*
X5868193D1*
X5850390Y-731997D1*
X5840000Y-732403D1*
X5829610Y-731997D1*
X5812237Y-729373D1*
X5444257D1*
X5444250Y-790597D1*
X5456303Y-790547D1*
X2681997Y-806663D2*
X2913217D1*
X2681997Y-836327D2*
X2948840D1*
X2681587Y-865990D2*
X2984460D1*
X2669343Y-895653D2*
X3076737D1*
X2570623Y-925317D2*
X3075973D1*
X2572910Y-954980D2*
X3075270D1*
X2575193Y-984643D2*
X3074567D1*
X2577477Y-1014307D2*
X3073863D1*
X2579703Y-1043970D2*
X3073160D1*
X2581990Y-1073633D2*
X3072460D1*
X2584273Y-1103297D2*
X3071757D1*
X2586560Y-1132960D2*
X3071053D1*
X2588843Y-1162623D2*
X3070350D1*
X2613510Y-1192287D2*
X3069647D1*
X2649073Y-1221950D2*
X3068943D1*
X2694360Y-1251613D2*
X3068240D1*
X2739647Y-1281277D2*
X3067537D1*
X2784937Y-1310940D2*
X3066833D1*
X2830223Y-1340603D2*
X3066130D1*
X2875453Y-1370267D2*
X3065427D1*
X2920740Y-1399930D2*
X3064723D1*
X2966030Y-1429593D2*
X3064023D1*
X3011317Y-1459257D2*
X3063260D1*
X3037523Y-880257D2*
X3026360Y-879380D1*
X3015497Y-876773D1*
X3004737Y-872253D1*
X2996873Y-871833D1*
X2992537Y-870040D1*
X2899450Y-792670D1*
X2678947Y-783053D1*
X2678823Y-863503D1*
X2677350Y-872803D1*
X2674440Y-881757D1*
X2670163Y-890147D1*
X2664630Y-897767D1*
X2657973Y-904423D1*
X2650353Y-909957D1*
X2641963Y-914233D1*
X2633010Y-917143D1*
X2623710Y-918617D1*
X2567153Y-918800D1*
X2586280Y-1168087D1*
X2628903Y-1210690D1*
X3065363Y-1496643D1*
X3080073Y-880243D1*
X3037500Y-880200D1*
X5804683Y1971463D2*
X5823993D1*
X5801930Y1941800D2*
X5823993D1*
X5781190Y1912137D2*
X5823993D1*
X5701277Y1882473D2*
X5823993D1*
X5701277Y1852810D2*
X5823993D1*
X5701277Y1823147D2*
X5823993D1*
X5701277Y1793483D2*
X5823993D1*
X5701277Y1763820D2*
X5823993D1*
X5701277Y1734157D2*
X5823993D1*
X5701277Y1704493D2*
X5823993D1*
X5801660Y2001080D2*
X5801473Y1955020D1*
X5800000Y1945720D1*
X5797090Y1936763D1*
X5792817Y1928373D1*
X5787280Y1920757D1*
X5780623Y1914100D1*
X5773007Y1908563D1*
X5764617Y1904290D1*
X5755660Y1901380D1*
X5746360Y1899907D1*
X5698240Y1899720D1*
X5698250Y1681887D1*
X5826963Y1681877D1*
X5827000Y2001117D1*
X5801633Y2001127D1*
X4715073Y-663787D2*
X4934987D1*
X4683260Y-693450D2*
X4934987D1*
X4802720Y-723113D2*
X4934987D1*
X4475860Y-871430D2*
X4559560D1*
X3558150Y-901093D2*
X4067483D1*
X4446157D2*
X4548427D1*
X3558150Y-930757D2*
X4082367D1*
X4277367D2*
X4537297D1*
X3558150Y-960420D2*
X4526223D1*
X3558150Y-990083D2*
X4515090D1*
X3558150Y-1019747D2*
X4503960D1*
X3558150Y-1049410D2*
X4492827D1*
X3558150Y-1079073D2*
X4481697D1*
X3558150Y-1108737D2*
X4470563D1*
X4202433Y-1138400D2*
X4459433D1*
X4261783Y-1168063D2*
X4448360D1*
X4321133Y-1197727D2*
X4437230D1*
X4380423Y-1227390D2*
X4426097D1*
X3843793Y-1112793D2*
X4191203D1*
Y-1134293D1*
X4420940Y-1249140D1*
X4571237Y-848313D1*
X4514747Y-848143D1*
X4505447Y-846670D1*
X4496490Y-843760D1*
X4492197Y-841780D1*
X4487950Y-844420D1*
X4483597Y-853860D1*
X4478517Y-862930D1*
X4472740Y-871577D1*
X4466303Y-879740D1*
X4459247Y-887373D1*
X4451613Y-894430D1*
X4443450Y-900867D1*
X4434803Y-906643D1*
X4425733Y-911723D1*
X4416293Y-916077D1*
X4406540Y-919673D1*
X4396533Y-922497D1*
X4386337Y-924523D1*
X4376013Y-925747D1*
X4365623Y-926153D1*
X4355233Y-925747D1*
X4344910Y-924523D1*
X4334713Y-922497D1*
X4324707Y-919673D1*
X4314953Y-916077D1*
X4305513Y-911723D1*
X4289113Y-901747D1*
X4287343Y-908617D1*
X4283740Y-917317D1*
X4278820Y-925343D1*
X4272703Y-932503D1*
X4265543Y-938620D1*
X4257517Y-943540D1*
X4248817Y-947143D1*
X4239660Y-949340D1*
X4230273Y-950080D1*
X4124747Y-949893D1*
X4115447Y-948420D1*
X4106490Y-945510D1*
X4098100Y-941237D1*
X4090483Y-935703D1*
X4083823Y-929043D1*
X4078290Y-921427D1*
X4074017Y-913037D1*
X4071107Y-904080D1*
X4069633Y-894780D1*
X4069447Y-872203D1*
X3661773Y-872250D1*
X3655113Y-876107D1*
X3644203Y-880627D1*
X3632720Y-883383D1*
X3620947Y-884310D1*
X3609173Y-883383D1*
X3596717Y-880267D1*
X3555140Y-880260D1*
X3555123Y-1127980D1*
X3828783Y-1128000D1*
X3828797Y-1112793D1*
X3843793D1*
X4680280Y-687620D2*
Y-708360D1*
X4764980Y-708527D1*
X4774280Y-710000D1*
X4783237Y-712910D1*
X4791627Y-717183D1*
X4799243Y-722717D1*
X4805903Y-729377D1*
X4811447Y-737010D1*
X4813667Y-737743D1*
X4938023Y-731820D1*
X4938000Y-634163D1*
X4751653Y-634123D1*
X4680303Y-687613D1*
X5367900Y3162090D2*
X5455817D1*
X5447110Y3132423D2*
X5458160D1*
X5461137Y3144553D2*
X5459673Y3151360D1*
X5458797Y3162523D1*
Y3191733D1*
X5364853Y3191750D1*
X5365030Y3155547D1*
X5401483Y3155360D1*
X5410783Y3153887D1*
X5419740Y3150977D1*
X5428130Y3146703D1*
X5435747Y3141167D1*
X5442403Y3134510D1*
X5447940Y3126893D1*
X5452213Y3118503D1*
X5455123Y3109547D1*
X5457077Y3101760D1*
X5461353Y3103713D1*
X5461140Y3144330D1*
X5415337Y2937657D2*
X5409867Y2936000D1*
X5416137D1*
X4796400Y6003713D2*
X5490637D1*
X4842860Y5974050D2*
X5490637D1*
X4822477Y5976203D2*
X4833640Y5975327D1*
X4844503Y5972720D1*
X4854827Y5968443D1*
X4864353Y5962607D1*
X4872850Y5955350D1*
X4875710Y5952253D1*
X5493663Y5952250D1*
X5493623Y6033390D1*
X4793333Y6033377D1*
X4793373Y5976257D1*
X4822460Y5976203D1*
D30*
X1020010Y820013D3*
X320010D3*
D34*
X2553500Y-762000D3*
X2373500D3*
X6609250Y-844250D3*
X6789250D3*
D35*
X6477000Y1156500D3*
Y976500D3*
D34*
X7080527Y4222750D3*
X7260527D3*
X5638000Y5746750D3*
X5818000D3*
X785623Y5715000D3*
X605623D3*
D35*
X4730750Y-1476373D3*
Y-1656373D3*
D34*
X6796873Y2905127D3*
X6976873D3*
X3256750Y5746750D3*
X3436750D3*
X3506000Y492127D3*
X3326000D3*
D36*
X-95250Y-619123D3*
X-385250D3*
D37*
X3050000Y-1710000D3*
Y-1560000D3*
X6930000Y-1650000D3*
Y-1800000D3*
X7345750Y487750D3*
X7195750D3*
X7068750Y4481127D3*
X7218750D3*
X6380000Y6450000D3*
Y6600000D3*
X330000Y6540000D3*
Y6390000D3*
D38*
X-180007Y-1560003D3*
Y-1040003D3*
D39*
X2619373Y1952627D3*
X3279373D3*
D40*
X2127250Y2206627D3*
Y1546627D3*
D42*
X3215000Y6163750D3*
D43*
X3565000D3*
D44*
X444500Y5715000D3*
X5414253Y2203087D3*
D42*
X1520000Y-1293997D3*
X1170000D3*
X820000D3*
D43*
X470000D3*
D42*
X1170000Y2214127D3*
Y2564127D3*
Y2914127D3*
D43*
Y3264127D3*
D44*
X-820000Y-1660000D3*
X2143123Y-777873D3*
X-810000Y-570000D3*
Y-1080000D3*
D42*
X4360000Y-1293997D3*
D43*
X4010000D3*
D42*
X6899377Y2540000D3*
D43*
Y2190000D3*
D42*
X2650000Y-1293997D3*
D43*
X2300000D3*
D42*
X6540000D3*
D43*
X6190000D3*
D42*
X6899377Y1260000D3*
D43*
Y910000D3*
D42*
Y3820000D3*
D43*
Y3470000D3*
D42*
X5580000Y6147873D3*
D43*
X5930000D3*
D42*
X750000D3*
D43*
X1100000D3*
D48*
X509997Y129990D3*
X763997D3*
X1017997D3*
X1271997D3*
X1525997D3*
X1779997D3*
X2033997D3*
X2287997D3*
X2541997D3*
X2795997D3*
X3049997D3*
X3303997D3*
X3557997D3*
X3811997D3*
X4065997D3*
X4319997D3*
X4573997D3*
X4827997D3*
X5081997D3*
X5335997D3*
X5589997D3*
X5843997D3*
X6097997D3*
Y-124010D3*
X5843997D3*
X5589997D3*
X5335997D3*
X5081997D3*
X4827997D3*
X4573997D3*
X4319997D3*
X4065997D3*
X3811997D3*
X3557997D3*
X3303997D3*
X3049997D3*
X2795997D3*
X2541997D3*
X2287997D3*
X2033997D3*
X1779997D3*
X1525997D3*
X1271997D3*
X1017997D3*
X763997D3*
D49*
X509997D3*
D48*
X510010Y4950003D3*
X764010D3*
X1018010D3*
X1272010D3*
X1526010D3*
X1780010D3*
X2034010D3*
X2288010D3*
X2542010D3*
X2796010D3*
X3050010D3*
X3304010D3*
X3558010D3*
X3812010D3*
X4066010D3*
X4320010D3*
X4574010D3*
X4828010D3*
X5082010D3*
X5336010D3*
X5590010D3*
X5844010D3*
X6098010D3*
Y4696003D3*
X5844010D3*
X5590010D3*
X5336010D3*
X5082010D3*
X4828010D3*
X4574010D3*
X4320010D3*
X4066010D3*
X3812010D3*
X3558010D3*
X3304010D3*
X3050010D3*
X2796010D3*
X2542010D3*
X2288010D3*
X2034010D3*
X1780010D3*
X1526010D3*
X1272010D3*
X1018010D3*
X764010D3*
D49*
X510010D3*
D51*
X3254377Y-1539873D3*
Y-1709873D3*
X6930000Y-1290000D3*
Y-1460000D3*
D52*
X7169873Y243750D3*
X7339873D3*
X7223123Y4762500D3*
X7053123D3*
D51*
X6375000Y5945000D3*
Y6115000D3*
X63500Y6365877D3*
Y6535877D3*
D53*
X5208500Y395377D3*
X5078500D3*
D54*
X3047987Y1111250D3*
D55*
X3171920Y821250D3*
X2922987D3*
D51*
X3582123Y1518377D3*
Y1688377D3*
X4095750Y968377D3*
Y798377D3*
D56*
X3413123Y1143000D3*
Y1013000D3*
D57*
X-719377Y300000D3*
X-1159377D3*
Y-70000D3*
X-719377D3*
D58*
X-939377Y375000D3*
Y-145000D3*
D57*
X-716813Y1355000D3*
X-1156813D3*
Y985000D3*
X-716813D3*
D58*
X-936813Y1430000D3*
Y910000D3*
D59*
X4127500Y587377D3*
Y492377D3*
Y397377D3*
X4387520D3*
Y587377D3*
X4889500Y397377D3*
Y492377D3*
Y587377D3*
X4629480D3*
Y397377D3*
D61*
X3857623Y825500D3*
Y920500D3*
Y1015500D3*
X3587623D3*
Y825500D3*
D56*
X4180000Y-850000D3*
Y-720000D3*
X4570000Y-748250D3*
Y-618250D3*
D53*
X2809873Y-603247D3*
X2939873D3*
X5716500Y-966877D3*
X5586500D3*
X3810000Y-333373D3*
X3680000D3*
X3765000Y-725000D3*
X3895000D3*
X3710000Y-590000D3*
X3840000D3*
X2903623Y-477750D3*
X3033623D3*
D56*
X3165000Y-305000D3*
Y-435000D3*
D53*
X3640000Y-480000D3*
X3770000D3*
X5225000Y-1205000D3*
X5095000D3*
D56*
X4710000Y-940000D3*
Y-810000D3*
X4800000Y-1130000D3*
Y-1000000D3*
D53*
X5650000Y-1090000D3*
X5520000D3*
D56*
X5445123Y-1333500D3*
Y-1203500D3*
D53*
X4935000Y-1245000D3*
X4805000D3*
D63*
X3160000Y-1004053D3*
X3210000D3*
X3260000D3*
X3310000D3*
X3360000D3*
X3410000D3*
X3460000D3*
D64*
X3555000Y-909053D3*
Y-859053D3*
Y-809053D3*
Y-759053D3*
Y-709053D3*
D63*
X3460000Y-614053D3*
X3410000D3*
X3360000D3*
X3310000D3*
X3260000D3*
X3210000D3*
X3160000D3*
D64*
X3065000Y-709053D3*
Y-759053D3*
Y-809053D3*
Y-859053D3*
Y-909053D3*
D65*
X3310000Y-809053D3*
D63*
X5334000Y-666750D3*
X5284000D3*
X5234000D3*
X5184000D3*
X5134000D3*
X5084000D3*
X5034000D3*
D64*
X4939000Y-761750D3*
Y-811750D3*
Y-861750D3*
Y-911750D3*
Y-961750D3*
D63*
X5034000Y-1056750D3*
X5084000D3*
X5134000D3*
X5184000D3*
X5234000D3*
X5284000D3*
X5334000D3*
D64*
X5429000Y-961750D3*
Y-911750D3*
Y-861750D3*
Y-811750D3*
Y-761750D3*
D65*
X5184000Y-861750D3*
D53*
X5763830Y2158617D3*
X5633830D3*
X5356703Y3045267D3*
X5226703D3*
D56*
X5462500Y919250D3*
Y1049250D3*
D53*
X5953123Y3841750D3*
X5823123D3*
D56*
X5260000Y1390000D3*
Y1520000D3*
D53*
X5570000Y2010000D3*
X5700000D3*
D56*
X5390000Y1820000D3*
Y1950000D3*
X5340000Y1040000D3*
Y1170000D3*
X5220000Y1080000D3*
Y1210000D3*
D53*
X5170000Y1700000D3*
X5300000D3*
D56*
X5900743Y3468723D3*
Y3338723D3*
D53*
X5647253Y2994413D3*
X5517253D3*
X5875687Y3058167D3*
X5745687D3*
X5886363Y3729533D3*
X5756363D3*
X5996100Y3590813D3*
X5866100D3*
X6000607Y3200437D3*
X5870607D3*
D64*
X5820000Y1270000D3*
Y1320000D3*
Y1370000D3*
Y1420000D3*
Y1470000D3*
Y1520000D3*
Y1570000D3*
D63*
X5725000Y1665000D3*
X5675000D3*
X5625000D3*
X5575000D3*
X5525000D3*
D64*
X5430000Y1570000D3*
Y1520000D3*
Y1470000D3*
Y1420000D3*
Y1370000D3*
Y1320000D3*
Y1270000D3*
D63*
X5525000Y1175000D3*
X5575000D3*
X5625000D3*
X5675000D3*
X5725000D3*
D67*
X5625000Y1420000D3*
D64*
X5335000Y3585000D3*
Y3535000D3*
Y3485000D3*
Y3435000D3*
Y3385000D3*
Y3335000D3*
Y3285000D3*
D63*
X5430000Y3190000D3*
X5480000D3*
X5530000D3*
X5580000D3*
X5630000D3*
D64*
X5725000Y3285000D3*
Y3335000D3*
Y3385000D3*
Y3435000D3*
Y3485000D3*
Y3535000D3*
Y3585000D3*
D63*
X5630000Y3680000D3*
X5580000D3*
X5530000D3*
X5480000D3*
X5430000D3*
D67*
X5530000Y3435000D3*
D56*
X2746377Y5778500D3*
Y5648500D3*
X3980000Y6110000D3*
Y5980000D3*
D53*
X5095873Y5826123D3*
X4965873D3*
D56*
X1476377Y6175377D3*
Y6045377D3*
X4400000Y5410000D3*
Y5540000D3*
X4095750Y5842000D3*
Y5972000D3*
D53*
X4175000Y5665000D3*
X4045000D3*
X5030000Y5700000D3*
X4900000D3*
X4885000Y5545000D3*
X4755000D3*
X4270000Y5540000D3*
X4140000D3*
X2047873Y6350000D3*
X2177873D3*
D56*
X2440000Y5960000D3*
Y5830000D3*
D53*
X2390000Y6090000D3*
X2520000D3*
D56*
X1615000Y6235000D3*
Y6105000D3*
X1750000Y6380000D3*
Y6250000D3*
D53*
X2479500Y6238873D3*
X2349500D3*
D63*
X4700000Y6100000D3*
X4650000D3*
X4600000D3*
X4550000D3*
X4500000D3*
X4450000D3*
X4400000D3*
D64*
X4305000Y6005000D3*
Y5955000D3*
Y5905000D3*
Y5855000D3*
Y5805000D3*
D63*
X4400000Y5710000D3*
X4450000D3*
X4500000D3*
X4550000D3*
X4600000D3*
X4650000D3*
X4700000D3*
D64*
X4795000Y5805000D3*
Y5855000D3*
Y5905000D3*
Y5955000D3*
Y6005000D3*
D65*
X4550000Y5905000D3*
D63*
X1865000Y5735000D3*
X1915000D3*
X1965000D3*
X2015000D3*
X2065000D3*
X2115000D3*
X2165000D3*
D64*
X2260000Y5830000D3*
Y5880000D3*
Y5930000D3*
Y5980000D3*
Y6030000D3*
D63*
X2165000Y6125000D3*
X2115000D3*
X2065000D3*
X2015000D3*
X1965000D3*
X1915000D3*
X1865000D3*
D64*
X1770000Y6030000D3*
Y5980000D3*
Y5930000D3*
Y5880000D3*
Y5830000D3*
D65*
X2015000Y5930000D3*
M02*
