M48
METRIC,0000.00
T01C0.381
T02C0.9
T03C1.016
T04C1.4
T05C4.0
%
T01
X+005477Y+003540
X+005572Y+003540
X+005572Y+003429
X+005477Y+003429
X+005477Y+003318
X+005572Y+003318
X+005990Y+003110
X+005980Y+003690
X+005191Y+001794
X+005572Y+001524
X+005572Y+001429
X+005572Y+001334
X+005667Y+001333
X+005667Y+001429
X+005667Y+001524
X+005271Y+000952
X+005290Y-000820
X+005190Y-000820
X+005190Y-000925
X+005290Y-000925
X+005080Y-000925
X+005080Y-000820
X+004960Y-001150
X+005540Y-001270
X+003556Y-000540
X+003420Y-000760
X+003320Y-000760
X+003320Y-000865
X+003420Y-000865
X+003210Y-000865
X+003210Y-000760
X+002937Y-000397
X+004300Y+005640
X+004445Y+005858
X+004445Y+005953
X+004556Y+005953
X+004651Y+005953
X+004651Y+005858
X+004556Y+005858
X+004966Y+005606
X+002492Y+006334
X+002127Y+005985
X+002016Y+005985
X+001905Y+005985
X+001905Y+005874
X+002016Y+005874
X+002127Y+005874
X+001630Y+006350
T02
X+000445Y+005715
X+000510Y+004950
X+000764Y+004950
X+001018Y+004950
X+001272Y+004950
X+001526Y+004950
X+001780Y+004950
X+002034Y+004950
X+002288Y+004950
X+002542Y+004950
X+002796Y+004950
X+003050Y+004950
X+003304Y+004950
X+003558Y+004950
X+003812Y+004950
X+004066Y+004950
X+004320Y+004950
X+004574Y+004950
X+004828Y+004950
X+005082Y+004950
X+005336Y+004950
X+005590Y+004950
X+005844Y+004950
X+006098Y+004950
X+006098Y+004696
X+005844Y+004696
X+005590Y+004696
X+005336Y+004696
X+005082Y+004696
X+004828Y+004696
X+004574Y+004696
X+004320Y+004696
X+004066Y+004696
X+003812Y+004696
X+003558Y+004696
X+003304Y+004696
X+003050Y+004696
X+002796Y+004696
X+002542Y+004696
X+002288Y+004696
X+002034Y+004696
X+001780Y+004696
X+001526Y+004696
X+001272Y+004696
X+001018Y+004696
X+000764Y+004696
X+000510Y+004696
X+000510Y+000130
X+000510Y-000124
X+000764Y-000124
X+001018Y-000124
X+001272Y-000124
X+001526Y-000124
X+001780Y-000124
X+002034Y-000124
X+002034Y+000130
X+001780Y+000130
X+001526Y+000130
X+001272Y+000130
X+001018Y+000130
X+000764Y+000130
X+002288Y+000130
X+002542Y+000130
X+002796Y+000130
X+003050Y+000130
X+003304Y+000130
X+003558Y+000130
X+003812Y+000130
X+004066Y+000130
X+004320Y+000130
X+004574Y+000130
X+004828Y+000130
X+005082Y+000130
X+005336Y+000130
X+005590Y+000130
X+005844Y+000130
X+006098Y+000130
X+006098Y-000124
X+005844Y-000124
X+005590Y-000124
X+005336Y-000124
X+005082Y-000124
X+004828Y-000124
X+004574Y-000124
X+004320Y-000124
X+004066Y-000124
X+003812Y-000124
X+003558Y-000124
X+003304Y-000124
X+003050Y-000124
X+002796Y-000124
X+002542Y-000124
X+002288Y-000124
X+002143Y-000778
X-000810Y-000570
X-000810Y-001080
X-000820Y-001660
X+005414Y+002203
T03
X+004382Y+000698
X+004413Y+001016
X+003715Y+000921
X+003508Y+000635
X+003191Y+000476
X+002429Y+000317
X+002010Y+000930
X+001492Y+001810
X+000889Y+001810
X+000110Y+000930
X+000111Y+000667
X-000480Y+000960
X-001159Y+001143
X-000937Y+000190
X-000556Y-000635
X+003334Y-000397
X+003921Y-000333
X+004286Y-000349
X+004366Y-000794
X+004509Y-001683
X+005300Y-001340
X+005874Y-000953
X+005840Y-000600
X+006033Y-001603
X+006940Y-001130
X+007017Y-000841
X+007175Y+000048
X+006477Y+000778
X+005350Y+000397
X+005048Y+001365
X+004328Y+002397
X+004328Y+003288
X+004328Y+004179
X+004280Y+005380
X+004620Y+005461
X+004953Y+005207
X+005842Y+004366
X+006318Y+004191
X+006366Y+003651
X+006128Y+003445
X+005165Y+002934
X+007096Y+002921
X+007350Y+004223
X+007175Y+004937
X+006858Y+005318
X+003890Y+005880
X+003930Y+006500
X+002921Y+006048
X+002921Y+005620
X+002858Y+005445
X+001930Y+005200
X+001842Y+004179
X+001842Y+003350
X+003080Y+003350
X+003080Y+004179
X+003080Y+002397
X+000560Y+004179
X+000063Y+006207
X+001937Y+006366
X+003413Y-001540
T04
X+003215Y+006164
X+003565Y+006164
X+005580Y+006148
X+005930Y+006148
X+006899Y+003820
X+006899Y+003470
X+006899Y+002540
X+006899Y+002190
X+006899Y+001260
X+006899Y+000910
X+006540Y-001294
X+006190Y-001294
X+004360Y-001294
X+004010Y-001294
X+002650Y-001294
X+002300Y-001294
X+001520Y-001294
X+001170Y-001294
X+000820Y-001294
X+000470Y-001294
X+001170Y+002214
X+001170Y+002564
X+001170Y+002914
X+001170Y+003264
X+001100Y+006148
X+000750Y+006148
T05
X+000000Y+004826
X+000000Y+000000
X+006604Y+000317
X+006604Y+004508
T00
M30
