G04 DipTrace 3.3.1.3*
G04 Powerboardv0.7.gts*
%MOMM*%
G04 #@! TF.FileFunction,Soldermask,Top*
G04 #@! TF.Part,Single*
%ADD34R,0.8X1.2*%
%ADD35R,1.2X0.8*%
%ADD37R,0.8X0.8*%
%ADD59R,1.2X0.55*%
%ADD68C,4.0*%
%ADD76R,2.60015X3.60015*%
%ADD78R,3.60015X2.60015*%
%ADD80O,1.05015X0.50015*%
%ADD82O,0.50015X1.05015*%
%ADD84R,1.30015X0.80015*%
%ADD88R,1.20015X1.00015*%
%ADD90R,1.20015X0.80015*%
%ADD92R,1.10015X0.90015*%
%ADD94R,1.50015X1.80015*%
%ADD96R,2.20015X1.80015*%
%ADD98R,0.90015X1.10015*%
%ADD100R,1.30015X1.20015*%
%ADD102R,1.20015X1.30015*%
%ADD104R,1.90015X2.20015*%
%ADD106O,1.90015X2.20015*%
%ADD108C,2.20015*%
%ADD110R,2.70015X2.70015*%
%ADD112C,2.70015*%
%ADD114R,5.50015X2.20015*%
%ADD116R,2.20015X5.50015*%
%ADD118R,3.35015X1.98015*%
%ADD122R,1.50015X1.60015*%
%ADD128R,4.40015X2.10015*%
%FSLAX35Y35*%
G04*
G71*
G90*
G75*
G01*
G04 TopMask*
%LPD*%
D128*
X1020010Y820013D3*
X320010D3*
D34*
X2553500Y-762000D3*
X2373500D3*
X6609250Y-844250D3*
X6789250D3*
D35*
X6477000Y1156500D3*
Y976500D3*
D34*
X7080527Y4222750D3*
X7260527D3*
X5638000Y5746750D3*
X5818000D3*
X785623Y5715000D3*
X605623D3*
D35*
X4730750Y-1476373D3*
Y-1656373D3*
D34*
X6796873Y2905127D3*
X6976873D3*
X3256750Y5746750D3*
X3436750D3*
X3506000Y492127D3*
X3326000D3*
D122*
X-95250Y-619123D3*
X-385250D3*
D37*
X3050000Y-1710000D3*
Y-1560000D3*
X6930000Y-1650000D3*
Y-1800000D3*
X7345750Y487750D3*
X7195750D3*
X7068750Y4481127D3*
X7218750D3*
X6380000Y6450000D3*
Y6600000D3*
X330000Y6540000D3*
Y6390000D3*
D118*
X-180007Y-1560003D3*
Y-1040003D3*
D116*
X2619373Y1952627D3*
X3279373D3*
D114*
X2127250Y2206627D3*
Y1546627D3*
D112*
X3215000Y6163750D3*
D110*
X3565000D3*
D108*
X444500Y5715000D3*
X5414253Y2203087D3*
D112*
X1520000Y-1293997D3*
X1170000D3*
X820000D3*
D110*
X470000D3*
D112*
X1170000Y2214127D3*
Y2564127D3*
Y2914127D3*
D110*
Y3264127D3*
D108*
X-820000Y-1660000D3*
X2143123Y-777873D3*
X-810000Y-570000D3*
Y-1080000D3*
D112*
X4360000Y-1293997D3*
D110*
X4010000D3*
D112*
X6899377Y2540000D3*
D110*
Y2190000D3*
D112*
X2650000Y-1293997D3*
D110*
X2300000D3*
D112*
X6540000D3*
D110*
X6190000D3*
D112*
X6899377Y1260000D3*
D110*
Y910000D3*
D112*
Y3820000D3*
D110*
Y3470000D3*
D112*
X5580000Y6147873D3*
D110*
X5930000D3*
D112*
X750000D3*
D110*
X1100000D3*
D106*
X509997Y129990D3*
X763997D3*
X1017997D3*
X1271997D3*
X1525997D3*
X1779997D3*
X2033997D3*
X2287997D3*
X2541997D3*
X2795997D3*
X3049997D3*
X3303997D3*
X3557997D3*
X3811997D3*
X4065997D3*
X4319997D3*
X4573997D3*
X4827997D3*
X5081997D3*
X5335997D3*
X5589997D3*
X5843997D3*
X6097997D3*
Y-124010D3*
X5843997D3*
X5589997D3*
X5335997D3*
X5081997D3*
X4827997D3*
X4573997D3*
X4319997D3*
X4065997D3*
X3811997D3*
X3557997D3*
X3303997D3*
X3049997D3*
X2795997D3*
X2541997D3*
X2287997D3*
X2033997D3*
X1779997D3*
X1525997D3*
X1271997D3*
X1017997D3*
X763997D3*
D104*
X509997D3*
D106*
X510010Y4950003D3*
X764010D3*
X1018010D3*
X1272010D3*
X1526010D3*
X1780010D3*
X2034010D3*
X2288010D3*
X2542010D3*
X2796010D3*
X3050010D3*
X3304010D3*
X3558010D3*
X3812010D3*
X4066010D3*
X4320010D3*
X4574010D3*
X4828010D3*
X5082010D3*
X5336010D3*
X5590010D3*
X5844010D3*
X6098010D3*
Y4696003D3*
X5844010D3*
X5590010D3*
X5336010D3*
X5082010D3*
X4828010D3*
X4574010D3*
X4320010D3*
X4066010D3*
X3812010D3*
X3558010D3*
X3304010D3*
X3050010D3*
X2796010D3*
X2542010D3*
X2288010D3*
X2034010D3*
X1780010D3*
X1526010D3*
X1272010D3*
X1018010D3*
X764010D3*
D104*
X510010D3*
D102*
X3254377Y-1539873D3*
Y-1709873D3*
X6930000Y-1290000D3*
Y-1460000D3*
D100*
X7169873Y243750D3*
X7339873D3*
X7223123Y4762500D3*
X7053123D3*
D102*
X6375000Y5945000D3*
Y6115000D3*
X63500Y6365877D3*
Y6535877D3*
D98*
X5208500Y395377D3*
X5078500D3*
D96*
X3047987Y1111250D3*
D94*
X3171920Y821250D3*
X2922987D3*
D102*
X3582123Y1518377D3*
Y1688377D3*
X4095750Y968377D3*
Y798377D3*
D92*
X3413123Y1143000D3*
Y1013000D3*
D90*
X-719377Y300000D3*
X-1159377D3*
Y-70000D3*
X-719377D3*
D88*
X-939377Y375000D3*
Y-145000D3*
D90*
X-716813Y1355000D3*
X-1156813D3*
Y985000D3*
X-716813D3*
D88*
X-936813Y1430000D3*
Y910000D3*
D59*
X4127500Y587377D3*
Y492377D3*
Y397377D3*
X4387520D3*
Y587377D3*
X4889500Y397377D3*
Y492377D3*
Y587377D3*
X4629480D3*
Y397377D3*
D84*
X3857623Y825500D3*
Y920500D3*
Y1015500D3*
X3587623D3*
Y825500D3*
D92*
X4180000Y-850000D3*
Y-720000D3*
X4570000Y-748250D3*
Y-618250D3*
D98*
X2809873Y-603247D3*
X2939873D3*
X5716500Y-966877D3*
X5586500D3*
X3810000Y-333373D3*
X3680000D3*
X3765000Y-725000D3*
X3895000D3*
X3710000Y-590000D3*
X3840000D3*
X2903623Y-477750D3*
X3033623D3*
D92*
X3165000Y-305000D3*
Y-435000D3*
D98*
X3640000Y-480000D3*
X3770000D3*
X5225000Y-1205000D3*
X5095000D3*
D92*
X4710000Y-940000D3*
Y-810000D3*
X4800000Y-1130000D3*
Y-1000000D3*
D98*
X5650000Y-1090000D3*
X5520000D3*
D92*
X5445123Y-1333500D3*
Y-1203500D3*
D98*
X4935000Y-1245000D3*
X4805000D3*
D82*
X3160000Y-1004053D3*
X3210000D3*
X3260000D3*
X3310000D3*
X3360000D3*
X3410000D3*
X3460000D3*
D80*
X3555000Y-909053D3*
Y-859053D3*
Y-809053D3*
Y-759053D3*
Y-709053D3*
D82*
X3460000Y-614053D3*
X3410000D3*
X3360000D3*
X3310000D3*
X3260000D3*
X3210000D3*
X3160000D3*
D80*
X3065000Y-709053D3*
Y-759053D3*
Y-809053D3*
Y-859053D3*
Y-909053D3*
D78*
X3310000Y-809053D3*
D82*
X5334000Y-666750D3*
X5284000D3*
X5234000D3*
X5184000D3*
X5134000D3*
X5084000D3*
X5034000D3*
D80*
X4939000Y-761750D3*
Y-811750D3*
Y-861750D3*
Y-911750D3*
Y-961750D3*
D82*
X5034000Y-1056750D3*
X5084000D3*
X5134000D3*
X5184000D3*
X5234000D3*
X5284000D3*
X5334000D3*
D80*
X5429000Y-961750D3*
Y-911750D3*
Y-861750D3*
Y-811750D3*
Y-761750D3*
D78*
X5184000Y-861750D3*
D98*
X5763830Y2158617D3*
X5633830D3*
X5356703Y3045267D3*
X5226703D3*
D92*
X5462500Y919250D3*
Y1049250D3*
D98*
X5953123Y3841750D3*
X5823123D3*
D92*
X5260000Y1390000D3*
Y1520000D3*
D98*
X5570000Y2010000D3*
X5700000D3*
D92*
X5390000Y1820000D3*
Y1950000D3*
X5340000Y1040000D3*
Y1170000D3*
X5220000Y1080000D3*
Y1210000D3*
D98*
X5170000Y1700000D3*
X5300000D3*
D92*
X5900743Y3468723D3*
Y3338723D3*
D98*
X5647253Y2994413D3*
X5517253D3*
X5875687Y3058167D3*
X5745687D3*
X5886363Y3729533D3*
X5756363D3*
X5996100Y3590813D3*
X5866100D3*
X6000607Y3200437D3*
X5870607D3*
D80*
X5820000Y1270000D3*
Y1320000D3*
Y1370000D3*
Y1420000D3*
Y1470000D3*
Y1520000D3*
Y1570000D3*
D82*
X5725000Y1665000D3*
X5675000D3*
X5625000D3*
X5575000D3*
X5525000D3*
D80*
X5430000Y1570000D3*
Y1520000D3*
Y1470000D3*
Y1420000D3*
Y1370000D3*
Y1320000D3*
Y1270000D3*
D82*
X5525000Y1175000D3*
X5575000D3*
X5625000D3*
X5675000D3*
X5725000D3*
D76*
X5625000Y1420000D3*
D80*
X5335000Y3585000D3*
Y3535000D3*
Y3485000D3*
Y3435000D3*
Y3385000D3*
Y3335000D3*
Y3285000D3*
D82*
X5430000Y3190000D3*
X5480000D3*
X5530000D3*
X5580000D3*
X5630000D3*
D80*
X5725000Y3285000D3*
Y3335000D3*
Y3385000D3*
Y3435000D3*
Y3485000D3*
Y3535000D3*
Y3585000D3*
D82*
X5630000Y3680000D3*
X5580000D3*
X5530000D3*
X5480000D3*
X5430000D3*
D76*
X5530000Y3435000D3*
D92*
X2746377Y5778500D3*
Y5648500D3*
X3980000Y6110000D3*
Y5980000D3*
D98*
X5095873Y5826123D3*
X4965873D3*
D92*
X1476377Y6175377D3*
Y6045377D3*
X4400000Y5410000D3*
Y5540000D3*
X4095750Y5842000D3*
Y5972000D3*
D98*
X4175000Y5665000D3*
X4045000D3*
X5030000Y5700000D3*
X4900000D3*
X4885000Y5545000D3*
X4755000D3*
X4270000Y5540000D3*
X4140000D3*
X2047873Y6350000D3*
X2177873D3*
D92*
X2440000Y5960000D3*
Y5830000D3*
D98*
X2390000Y6090000D3*
X2520000D3*
D92*
X1615000Y6235000D3*
Y6105000D3*
X1750000Y6380000D3*
Y6250000D3*
D98*
X2479500Y6238873D3*
X2349500D3*
D82*
X4700000Y6100000D3*
X4650000D3*
X4600000D3*
X4550000D3*
X4500000D3*
X4450000D3*
X4400000D3*
D80*
X4305000Y6005000D3*
Y5955000D3*
Y5905000D3*
Y5855000D3*
Y5805000D3*
D82*
X4400000Y5710000D3*
X4450000D3*
X4500000D3*
X4550000D3*
X4600000D3*
X4650000D3*
X4700000D3*
D80*
X4795000Y5805000D3*
Y5855000D3*
Y5905000D3*
Y5955000D3*
Y6005000D3*
D78*
X4550000Y5905000D3*
D82*
X1865000Y5735000D3*
X1915000D3*
X1965000D3*
X2015000D3*
X2065000D3*
X2115000D3*
X2165000D3*
D80*
X2260000Y5830000D3*
Y5880000D3*
Y5930000D3*
Y5980000D3*
Y6030000D3*
D82*
X2165000Y6125000D3*
X2115000D3*
X2065000D3*
X2015000D3*
X1965000D3*
X1915000D3*
X1865000D3*
D80*
X1770000Y6030000D3*
Y5980000D3*
Y5930000D3*
Y5880000D3*
Y5830000D3*
D78*
X2015000Y5930000D3*
D68*
X0Y4826000D3*
X6604000Y4508500D3*
Y317500D3*
X0Y0D3*
M02*
