G04 DipTrace 3.3.1.3*
G04 Communicationboardv03.gto*
%MOMM*%
G04 #@! TF.FileFunction,Legend,Top*
G04 #@! TF.Part,Single*
%ADD10C,0.25*%
%ADD13C,0.508*%
%ADD14C,0.381*%
%ADD24C,0.254*%
%ADD25O,2.1853X2.242*%
%ADD26C,0.1778*%
%ADD32O,2.19548X2.19399*%
%ADD35O,2.19434X2.19459*%
%ADD38O,0.69724X0.69708*%
%ADD40C,0.41055*%
%ADD42O,0.69747X0.69708*%
%ADD68C,0.19608*%
%ADD69C,0.31373*%
%ADD70C,0.23529*%
%FSLAX35Y35*%
G04*
G71*
G90*
G75*
G01*
G04 TopSilk*
%LPD*%
G36*
X3402513Y3982020D2*
X3326314D1*
Y4027729D1*
X3402513D1*
Y3982020D1*
G37*
G36*
X4216253Y1133207D2*
X4140054D1*
Y1178915D1*
X4216253D1*
Y1133207D1*
G37*
G36*
X3515360Y1594103D2*
X3469651D1*
Y1517904D1*
X3515360D1*
Y1594103D1*
G37*
G36*
X4130690Y734950D2*
X4206889D1*
Y689241D1*
X4130690D1*
Y734950D1*
G37*
G36*
X3213103Y1596140D2*
X3136904D1*
Y1641849D1*
X3213103D1*
Y1596140D1*
G37*
G36*
X3847853Y1587470D2*
X3771654D1*
Y1633179D1*
X3847853D1*
Y1587470D1*
G37*
G36*
X2382910Y1803353D2*
X2306711D1*
Y1849062D1*
X2382910D1*
Y1803353D1*
G37*
G36*
X1674110Y2228853D2*
X1628401D1*
Y2152654D1*
X1674110D1*
Y2228853D1*
G37*
G36*
X2274767Y1289607D2*
X2350966D1*
Y1243898D1*
X2274767D1*
Y1289607D1*
G37*
G36*
X1413720Y2159443D2*
X1337521D1*
Y2205152D1*
X1413720D1*
Y2159443D1*
G37*
G36*
X2004126Y2165620D2*
X1927927D1*
Y2211329D1*
X2004126D1*
Y2165620D1*
G37*
X3359843Y7167042D2*
D10*
X5249964D1*
Y6057012D1*
X3359843D1*
Y7167042D1*
D32*
X5006681Y5889898D3*
X4372578Y-2270550D2*
D10*
X3182465D1*
Y-1160534D1*
X4372578D1*
Y-2270550D1*
D35*
X3422781Y-997426D3*
X2785078Y-2270550D2*
D10*
X1594965D1*
Y-1160534D1*
X2785078D1*
Y-2270550D1*
D35*
X1835281Y-997426D3*
X1197578Y-2270550D2*
D10*
X7465D1*
Y-1160534D1*
X1197578D1*
Y-2270550D1*
D35*
X247781Y-997426D3*
X1650748Y5120770D2*
D10*
Y4373119D1*
X2921811Y5113819D2*
Y4373119D1*
X4192875Y5113819D2*
Y4373119D1*
X5457615Y5123087D2*
Y4373119D1*
G36*
X360713Y5079835D2*
X607337D1*
Y4597878D1*
X360713D1*
Y5079835D1*
G37*
X1636335Y442867D2*
D10*
Y-304087D1*
X2910886Y436577D2*
Y-304087D1*
X4179591Y436577D2*
Y-304087D1*
X5442450Y445225D2*
Y-304087D1*
G36*
X5705545Y247873D2*
X6208350D1*
Y-260056D1*
X5705545D1*
Y247873D1*
G37*
G36*
X361783Y232147D2*
X607339D1*
Y-249834D1*
X361783D1*
Y232147D1*
G37*
X1182445Y7178520D2*
D10*
X2372558D1*
Y6068504D1*
X1182445D1*
Y7178520D1*
D35*
X2132242Y5905396D3*
G36*
X4089287Y-696863D2*
X4165486D1*
Y-742572D1*
X4089287D1*
Y-696863D1*
G37*
G36*
X2536180Y-676807D2*
X2612379D1*
Y-722515D1*
X2536180D1*
Y-676807D1*
G37*
G36*
X3720507Y-696863D2*
X3796706D1*
Y-742572D1*
X3720507D1*
Y-696863D1*
G37*
G36*
X2181237Y-685583D2*
X2257436D1*
Y-731292D1*
X2181237D1*
Y-685583D1*
G37*
G36*
X974910Y-699563D2*
X1051109D1*
Y-745272D1*
X974910D1*
Y-699563D1*
G37*
G36*
X621900Y-712940D2*
X698099D1*
Y-758649D1*
X621900D1*
Y-712940D1*
G37*
G36*
X3899370Y4320297D2*
X3975569D1*
Y4274588D1*
X3899370D1*
Y4320297D1*
G37*
G36*
X3632660Y4321867D2*
X3708859D1*
Y4276158D1*
X3632660D1*
Y4321867D1*
G37*
G36*
X4403340Y4324570D2*
X4479539D1*
Y4278861D1*
X4403340D1*
Y4324570D1*
G37*
G36*
X4149324Y4320527D2*
X4225523D1*
Y4274818D1*
X4149324D1*
Y4320527D1*
G37*
G36*
X3335477Y-707483D2*
X3411676D1*
Y-753192D1*
X3335477D1*
Y-707483D1*
G37*
G36*
X224897Y-694917D2*
X301096D1*
Y-740625D1*
X224897D1*
Y-694917D1*
G37*
G36*
X1804897Y-692973D2*
X1881096D1*
Y-738682D1*
X1804897D1*
Y-692973D1*
G37*
G36*
X5086940Y5574830D2*
X5041231D1*
Y5498631D1*
X5086940D1*
Y5574830D1*
G37*
G36*
X1438596Y5486327D2*
X1362397D1*
Y5532035D1*
X1438596D1*
Y5486327D1*
G37*
G36*
X1824553D2*
X1748354D1*
Y5532035D1*
X1824553D1*
Y5486327D1*
G37*
G36*
X2233033D2*
X2156834D1*
Y5532035D1*
X2233033D1*
Y5486327D1*
G37*
G36*
X4345133Y5319597D2*
X4390842D1*
Y5395796D1*
X4345133D1*
Y5319597D1*
G37*
G36*
X3739440Y3174363D2*
X3693731D1*
Y3098164D1*
X3739440D1*
Y3174363D1*
G37*
G36*
X4432844Y3348040D2*
X4509043D1*
Y3302331D1*
X4432844D1*
Y3348040D1*
G37*
G36*
X5023517Y5252710D2*
X5069225D1*
Y5328909D1*
X5023517D1*
Y5252710D1*
G37*
G36*
X3775943Y5309064D2*
X3821652D1*
Y5385263D1*
X3775943D1*
Y5309064D1*
G37*
X3992499Y1066740D2*
D10*
X2992535D1*
X3992499Y806260D2*
X2992535D1*
Y1066740D2*
Y806260D1*
X3992499Y1066740D2*
Y986820D1*
Y886180D2*
Y806260D1*
Y986820D2*
G03X3992499Y886180I268J-50320D01*
G01*
D38*
X4050530Y1210966D3*
X2150999Y1701740D2*
D10*
X1151035D1*
X2150999Y1441260D2*
X1151035D1*
Y1701740D2*
Y1441260D1*
X2150999Y1701740D2*
Y1621820D1*
Y1521180D2*
Y1441260D1*
Y1621820D2*
G03X2150999Y1521180I268J-50320D01*
G01*
D38*
X2209030Y1845966D3*
X4584500Y3859406D2*
D10*
X5162733D1*
Y3564497D1*
X4584500D1*
Y3859406D1*
D40*
X4671524Y3901001D3*
X4582930Y4256600D2*
D10*
X5161163D1*
Y3961690D1*
X4582930D1*
Y4256600D1*
D40*
X4669954Y4298194D3*
X3491574Y3514699D2*
D10*
X4351630D1*
X3491574Y3774735D2*
X4351630D1*
Y3514699D2*
Y3774735D1*
X3491574Y3514699D2*
Y3594693D1*
Y3694741D2*
Y3774735D1*
Y3594693D2*
G03X3491574Y3694741I68J50024D01*
G01*
D42*
X3432370Y3368327D3*
X5483897Y-507857D2*
D24*
X6593037D1*
Y-1781547D1*
X5483897D1*
Y-507857D1*
G36*
X5591407Y-603873D2*
X5814840D1*
Y-827303D1*
X5591407D1*
Y-603873D1*
G37*
D25*
X6051395Y-715750D3*
X6380105Y-718547D3*
X385790Y1000803D2*
D26*
X635057D1*
Y-193483D1*
X385790D1*
Y1000803D1*
X636177D2*
X897223D1*
Y-194293D1*
X636177D1*
Y1000803D1*
X891757D2*
X1148290D1*
Y-193483D1*
X891757D1*
Y1000803D1*
X6358537Y3933687D2*
D14*
X7033243D1*
Y817193D1*
X6358537D1*
Y3933687D1*
X2145550Y4383937D2*
D24*
X3017880D1*
Y4004917D1*
X2145550D1*
Y4383937D1*
X2357747Y4379143D2*
X2362807Y4007827D1*
X2573780Y4372660D2*
X2572173Y4005603D1*
X2779767Y4382443D2*
X2778523Y4016407D1*
X6048303Y-1652817D2*
Y-1399380D1*
X6052730Y-1372327D2*
X6139440Y-1476380D1*
X6050253Y-1367373D2*
X5963543Y-1476380D1*
X6373530Y-1362760D2*
Y-1616197D1*
X6369103Y-1643250D2*
X6282393Y-1539197D1*
X6371580Y-1648203D2*
X6458290Y-1539197D1*
X5396143Y6593103D2*
X7057840D1*
Y5117173D1*
X5396143D1*
Y6593103D1*
G36*
X6755980Y5424027D2*
X6979413D1*
Y5200597D1*
X6755980D1*
Y5424027D1*
G37*
D25*
X6244068Y5312150D3*
X6572778Y5309353D3*
X6262970Y6233353D2*
D24*
Y6486790D1*
X6258543Y6513843D2*
X6171833Y6409790D1*
X6261020Y6518797D2*
X6347730Y6409790D1*
X5626737Y6515633D2*
Y6262197D1*
X5631163Y6235143D2*
X5717873Y6339197D1*
X5628687Y6230190D2*
X5541977Y6339197D1*
D25*
X5621052Y5305373D3*
X5949762Y5302577D3*
X5967847Y6539960D2*
D24*
Y6286523D1*
X5972273Y6259470D2*
X6058983Y6363523D1*
X5969797Y6254517D2*
X5883087Y6363523D1*
X6572977Y6242130D2*
Y6495567D1*
X6568550Y6522620D2*
X6481840Y6418567D1*
X6571027Y6527573D2*
X6657737Y6418567D1*
X-227433Y6637800D2*
X881707D1*
Y5364110D1*
X-227433D1*
Y6637800D1*
G36*
X522650Y6541783D2*
X746083D1*
Y6318353D1*
X522650D1*
Y6541783D1*
G37*
D25*
X-13348Y6429907D3*
X315362Y6427110D3*
X318830Y5492840D2*
D24*
Y5746277D1*
X323257Y5773330D2*
X409967Y5669277D1*
X320780Y5778283D2*
X234070Y5669277D1*
X-12500Y5782897D2*
Y5529460D1*
X-16927Y5502407D2*
X-103637Y5606460D1*
X-14450Y5497453D2*
X72260Y5606460D1*
G36*
X4049517Y2712537D2*
X4144767D1*
Y2458537D1*
X4049517D1*
Y2712537D1*
G37*
G36*
X4208267D2*
X4303517D1*
Y2458537D1*
X4208267D1*
Y2712537D1*
G37*
G36*
X4367017D2*
X4462267D1*
Y2458537D1*
X4367017D1*
Y2712537D1*
G37*
X4804253Y2784587D2*
D13*
X4802553Y3560310D1*
G36*
X4113017Y2712537D2*
X4240017D1*
Y2458537D1*
X4113017D1*
Y2712537D1*
G37*
X3986017Y2776037D2*
D24*
X5099567D1*
Y2077537D1*
X3986017D1*
Y2776037D1*
G36*
X4049517Y2395037D2*
X4144767D1*
Y2141037D1*
X4049517D1*
Y2395037D1*
G37*
G36*
X4208267D2*
X4303517D1*
Y2141037D1*
X4208267D1*
Y2395037D1*
G37*
G36*
X4367017D2*
X4462267D1*
Y2141037D1*
X4367017D1*
Y2395037D1*
G37*
G36*
X4271767D2*
X4430517D1*
Y2141037D1*
X4271767D1*
Y2395037D1*
G37*
X3013463Y4392963D2*
D24*
X3580093Y4441303D1*
X3023120Y4016403D2*
X3599877Y4164320D1*
X3156163Y3929782D2*
D68*
X3144090Y3923746D1*
X3131877Y3911532D1*
X3125840Y3899459D1*
Y3875173D1*
X3131877Y3862959D1*
X3144090Y3850886D1*
X3156163Y3844709D1*
X3174413Y3838673D1*
X3204877D1*
X3222986Y3844709D1*
X3235200Y3850886D1*
X3247273Y3862959D1*
X3253450Y3875172D1*
Y3899459D1*
X3247273Y3911532D1*
X3235200Y3923745D1*
X3222986Y3929782D1*
X3150267Y3968998D2*
X3144090Y3981211D1*
X3125981Y3999461D1*
X3253450D1*
X4329123Y1138691D2*
X4317050Y1132654D1*
X4304837Y1120441D1*
X4298800Y1108368D1*
Y1084081D1*
X4304837Y1071868D1*
X4317050Y1059795D1*
X4329123Y1053618D1*
X4347373Y1047581D1*
X4377837D1*
X4395946Y1053618D1*
X4408160Y1059795D1*
X4420233Y1071868D1*
X4426410Y1084081D1*
Y1108367D1*
X4420233Y1120441D1*
X4408160Y1132654D1*
X4395946Y1138691D1*
X4329264Y1184083D2*
X4323227D1*
X4311014Y1190120D1*
X4304977Y1196156D1*
X4298941Y1208370D1*
Y1232656D1*
X4304977Y1244729D1*
X4311014Y1250766D1*
X4323227Y1256943D1*
X4335300D1*
X4347514Y1250766D1*
X4365623Y1238693D1*
X4426410Y1177906D1*
Y1262979D1*
X3481938Y1762564D2*
X3469865Y1756527D1*
X3457652Y1744314D1*
X3451615Y1732241D1*
Y1707954D1*
X3457652Y1695741D1*
X3469865Y1683668D1*
X3481938Y1677491D1*
X3500188Y1671454D1*
X3530652D1*
X3548761Y1677491D1*
X3560975Y1683668D1*
X3573048Y1695741D1*
X3579225Y1707954D1*
Y1732241D1*
X3573048Y1744314D1*
X3560975Y1756527D1*
X3548761Y1762564D1*
X3451756Y1813993D2*
Y1880676D1*
X3500329Y1844316D1*
Y1862566D1*
X3506365Y1874639D1*
X3512402Y1880676D1*
X3530652Y1886853D1*
X3542725D1*
X3560975Y1880676D1*
X3573188Y1868603D1*
X3579225Y1850353D1*
Y1832103D1*
X3573188Y1813993D1*
X3567011Y1807956D1*
X3554938Y1801780D1*
X4326290Y685799D2*
X4314217Y679763D1*
X4302003Y667549D1*
X4295967Y655476D1*
Y631190D1*
X4302003Y618976D1*
X4314217Y606903D1*
X4326290Y600726D1*
X4344540Y594690D1*
X4375003D1*
X4393113Y600726D1*
X4405326Y606903D1*
X4417400Y618976D1*
X4423576Y631189D1*
Y655476D1*
X4417400Y667549D1*
X4405326Y679762D1*
X4393113Y685799D1*
X4423576Y785801D2*
X4296107D1*
X4381040Y725015D1*
Y816124D1*
X2942363Y1590991D2*
X2930290Y1584954D1*
X2918077Y1572741D1*
X2912040Y1560668D1*
Y1536381D1*
X2918077Y1524168D1*
X2930290Y1512095D1*
X2942363Y1505918D1*
X2960613Y1499881D1*
X2991077D1*
X3009186Y1505918D1*
X3021400Y1512095D1*
X3033473Y1524168D1*
X3039650Y1536381D1*
Y1560667D1*
X3033473Y1572741D1*
X3021400Y1584954D1*
X3009186Y1590991D1*
X2912181Y1703066D2*
Y1642420D1*
X2966790Y1636383D1*
X2960754Y1642420D1*
X2954577Y1660670D1*
Y1678779D1*
X2960754Y1697029D1*
X2972827Y1709243D1*
X2991077Y1715279D1*
X3003150D1*
X3021400Y1709243D1*
X3033613Y1697029D1*
X3039650Y1678779D1*
Y1660670D1*
X3033613Y1642420D1*
X3027436Y1636383D1*
X3015363Y1630206D1*
X3956337Y1569432D2*
X3944264Y1563396D1*
X3932050Y1551183D1*
X3926013Y1539109D1*
Y1514823D1*
X3932050Y1502609D1*
X3944263Y1490536D1*
X3956336Y1484359D1*
X3974586Y1478323D1*
X4005050D1*
X4023160Y1484359D1*
X4035373Y1490536D1*
X4047446Y1502609D1*
X4053623Y1514823D1*
Y1539109D1*
X4047446Y1551182D1*
X4035373Y1563396D1*
X4023160Y1569432D1*
X3944264Y1681508D2*
X3932190Y1675471D1*
X3926154Y1657221D1*
Y1645148D1*
X3932190Y1626898D1*
X3950440Y1614685D1*
X3980764Y1608648D1*
X4011087D1*
X4035373Y1614685D1*
X4047587Y1626898D1*
X4053623Y1645148D1*
Y1651184D1*
X4047587Y1669294D1*
X4035373Y1681508D1*
X4017123Y1687544D1*
X4011087D1*
X3992837Y1681508D1*
X3980764Y1669294D1*
X3974727Y1651185D1*
Y1645148D1*
X3980764Y1626898D1*
X3992837Y1614685D1*
X4011087Y1608648D1*
X2495780Y1808837D2*
X2483707Y1802801D1*
X2471493Y1790587D1*
X2465457Y1778514D1*
Y1754228D1*
X2471493Y1742014D1*
X2483707Y1729941D1*
X2495780Y1723764D1*
X2514030Y1717728D1*
X2544493D1*
X2562603Y1723764D1*
X2574816Y1729941D1*
X2586890Y1742014D1*
X2593066Y1754228D1*
Y1778514D1*
X2586890Y1790587D1*
X2574816Y1802801D1*
X2562603Y1808837D1*
X2593066Y1872339D2*
X2465597Y1933126D1*
Y1848053D1*
X1639658Y2379831D2*
X1627585Y2373794D1*
X1615372Y2361581D1*
X1609335Y2349508D1*
Y2325221D1*
X1615372Y2313008D1*
X1627585Y2300935D1*
X1639658Y2294758D1*
X1657908Y2288721D1*
X1688372D1*
X1706481Y2294758D1*
X1718695Y2300935D1*
X1730768Y2313008D1*
X1736945Y2325221D1*
Y2349508D1*
X1730768Y2361581D1*
X1718695Y2373794D1*
X1706481Y2379831D1*
X1609476Y2449370D2*
X1615512Y2431260D1*
X1627585Y2425083D1*
X1639799D1*
X1651872Y2431260D1*
X1658049Y2443333D1*
X1664085Y2467619D1*
X1670122Y2485869D1*
X1682335Y2497943D1*
X1694408Y2503979D1*
X1712658D1*
X1724731Y2497942D1*
X1730908Y2491906D1*
X1736945Y2473656D1*
Y2449369D1*
X1730908Y2431260D1*
X1724731Y2425083D1*
X1712658Y2419046D1*
X1694408D1*
X1682335Y2425083D1*
X1670122Y2437296D1*
X1664085Y2455406D1*
X1658049Y2479693D1*
X1651872Y2491906D1*
X1639799Y2497943D1*
X1627585D1*
X1615512Y2491906D1*
X1609476Y2473656D1*
Y2449370D1*
X2465977Y1253962D2*
X2453904Y1247926D1*
X2441690Y1235712D1*
X2435653Y1223639D1*
Y1199353D1*
X2441690Y1187139D1*
X2453903Y1175066D1*
X2465976Y1168889D1*
X2484226Y1162853D1*
X2514690D1*
X2532800Y1168889D1*
X2545013Y1175066D1*
X2557086Y1187139D1*
X2563263Y1199353D1*
Y1223639D1*
X2557086Y1235712D1*
X2545013Y1247926D1*
X2532800Y1253962D1*
X2478190Y1372214D2*
X2496440Y1366037D1*
X2508654Y1353964D1*
X2514690Y1335714D1*
Y1329678D1*
X2508654Y1311428D1*
X2496440Y1299355D1*
X2478190Y1293178D1*
X2472154D1*
X2453904Y1299355D1*
X2441830Y1311428D1*
X2435794Y1329678D1*
Y1335714D1*
X2441830Y1353964D1*
X2453904Y1366037D1*
X2478190Y1372214D1*
X2508654D1*
X2538977Y1366037D1*
X2557227Y1353964D1*
X2563263Y1335714D1*
Y1323641D1*
X2557227Y1305391D1*
X2545013Y1299355D1*
X1154367Y2130088D2*
X1142294Y2124051D1*
X1130080Y2111838D1*
X1124043Y2099765D1*
Y2075478D1*
X1130080Y2063265D1*
X1142293Y2051192D1*
X1154366Y2045015D1*
X1172616Y2038978D1*
X1203080D1*
X1221190Y2045015D1*
X1233403Y2051192D1*
X1245476Y2063265D1*
X1251653Y2075478D1*
Y2099765D1*
X1245476Y2111838D1*
X1233403Y2124051D1*
X1221190Y2130088D1*
X1148470Y2169303D2*
X1142294Y2181517D1*
X1124184Y2199767D1*
X1251653D1*
X1124184Y2275482D2*
X1130220Y2257232D1*
X1148470Y2245019D1*
X1178794Y2238982D1*
X1197044D1*
X1227367Y2245019D1*
X1245617Y2257232D1*
X1251653Y2275482D1*
Y2287555D1*
X1245617Y2305805D1*
X1227367Y2317879D1*
X1197043Y2324055D1*
X1178794D1*
X1148470Y2317879D1*
X1130220Y2305806D1*
X1124184Y2287556D1*
Y2275482D1*
X1148470Y2317879D2*
X1227367Y2245019D1*
X2131190Y2154793D2*
X2119117Y2148756D1*
X2106903Y2136543D1*
X2100867Y2124470D1*
Y2100183D1*
X2106903Y2087970D1*
X2119117Y2075897D1*
X2131190Y2069720D1*
X2149440Y2063683D1*
X2179903D1*
X2198013Y2069720D1*
X2210226Y2075896D1*
X2222300Y2087970D1*
X2228476Y2100183D1*
Y2124469D1*
X2222300Y2136542D1*
X2210226Y2148756D1*
X2198013Y2154792D1*
X2125294Y2194008D2*
X2119117Y2206222D1*
X2101007Y2224472D1*
X2228476D1*
X2125294Y2263687D2*
X2119117Y2275901D1*
X2101007Y2294151D1*
X2228476D1*
X-202910Y408003D2*
X-214983Y401966D1*
X-227197Y389753D1*
X-233233Y377680D1*
Y353393D1*
X-227197Y341180D1*
X-214983Y329107D1*
X-202910Y322930D1*
X-184660Y316893D1*
X-154197D1*
X-136087Y322930D1*
X-123874Y329107D1*
X-111800Y341180D1*
X-105624Y353393D1*
Y377680D1*
X-111800Y389753D1*
X-123874Y401966D1*
X-136087Y408003D1*
X-154197D1*
Y377680D1*
X-233233Y532292D2*
X-105624Y532291D1*
X-233233Y447219D1*
X-105624Y447218D1*
X-233233Y571507D2*
X-105624D1*
Y614044D1*
X-111801Y632294D1*
X-123874Y644507D1*
X-136087Y650544D1*
X-154197Y656580D1*
X-184660D1*
X-202910Y650544D1*
X-214983Y644507D1*
X-227197Y632294D1*
X-233233Y614044D1*
Y571507D1*
X-221650Y786714D2*
X-221649Y853397D1*
X-173076Y817037D1*
Y835287D1*
X-167040Y847360D1*
X-161003Y853397D1*
X-142753Y859574D1*
X-130680Y859573D1*
X-112430Y853397D1*
X-100217Y841323D1*
X-94180Y823073D1*
Y804824D1*
X-100217Y786714D1*
X-106394Y780678D1*
X-118467Y774501D1*
X-106394Y904826D2*
X-100217Y898789D1*
X-94180Y904826D1*
X-100217Y911003D1*
X-106394Y904826D1*
X-221649Y962432D2*
Y1029114D1*
X-173076Y992755D1*
Y1011005D1*
X-167040Y1023078D1*
X-161003Y1029114D1*
X-142753Y1035291D1*
X-130680D1*
X-112430Y1029114D1*
X-100217Y1017041D1*
X-94180Y998791D1*
Y980541D1*
X-100217Y962432D1*
X-106394Y956395D1*
X-118467Y950218D1*
X-221790Y1074507D2*
X-94180Y1123080D1*
X-221790Y1171653D1*
X-216036Y1325437D2*
Y1264791D1*
X-161427Y1258754D1*
X-167463Y1264791D1*
X-173640Y1283041D1*
Y1301150D1*
X-167463Y1319400D1*
X-155390Y1331614D1*
X-137140Y1337650D1*
X-125067D1*
X-106817Y1331614D1*
X-94603Y1319400D1*
X-88567Y1301150D1*
Y1283041D1*
X-94603Y1264791D1*
X-100780Y1258754D1*
X-112854Y1252577D1*
X-100780Y1382902D2*
X-94603Y1376866D1*
X-88567Y1382902D1*
X-94603Y1389079D1*
X-100780Y1382902D1*
X-216036Y1464795D2*
X-210000Y1446545D1*
X-191750Y1434332D1*
X-161426Y1428295D1*
X-143176D1*
X-112853Y1434331D1*
X-94603Y1446545D1*
X-88567Y1464795D1*
Y1476868D1*
X-94603Y1495118D1*
X-112853Y1507191D1*
X-143176Y1513368D1*
X-161426D1*
X-191750Y1507191D1*
X-210000Y1495118D1*
X-216036Y1476868D1*
Y1464795D1*
X-191750Y1507191D2*
X-112853Y1434331D1*
X-216176Y1552584D2*
X-88567Y1601157D1*
X-216176Y1649730D1*
X5950913Y4689026D2*
X6048060D1*
X6066310Y4682989D1*
X6072346Y4676812D1*
X6078523Y4664739D1*
Y4652526D1*
X6072346Y4640453D1*
X6066310Y4634416D1*
X6048060Y4628240D1*
X6035986D1*
X5951054Y4758565D2*
X5957090Y4740455D1*
X5969164Y4734278D1*
X5981377D1*
X5993450Y4740455D1*
X5999627Y4752528D1*
X6005664Y4776815D1*
X6011700Y4795065D1*
X6023914Y4807138D1*
X6035987Y4813174D1*
X6054237D1*
X6066310Y4807138D1*
X6072487Y4801101D1*
X6078523Y4782851D1*
Y4758565D1*
X6072487Y4740455D1*
X6066310Y4734278D1*
X6054237Y4728242D1*
X6035987D1*
X6023914Y4734278D1*
X6011700Y4746492D1*
X6005664Y4764601D1*
X5999627Y4788888D1*
X5993450Y4801101D1*
X5981377Y4807138D1*
X5969164D1*
X5957090Y4801101D1*
X5951054Y4782851D1*
Y4758565D1*
X6149927Y35901D2*
X6247073D1*
X6265323Y29864D1*
X6271360Y23687D1*
X6277536Y11614D1*
Y-599D1*
X6271359Y-12672D1*
X6265323Y-18709D1*
X6247073Y-24886D1*
X6235000D1*
X6192463Y154153D2*
X6210713Y147976D1*
X6222927Y135903D1*
X6228963Y117653D1*
Y111616D1*
X6222927Y93366D1*
X6210713Y81293D1*
X6192463Y75116D1*
X6186427D1*
X6168177Y81293D1*
X6156104Y93366D1*
X6150067Y111616D1*
Y117653D1*
X6156104Y135903D1*
X6168177Y147976D1*
X6192463Y154153D1*
X6222927D1*
X6253250Y147976D1*
X6271500Y135903D1*
X6277536Y117653D1*
Y105580D1*
X6271500Y87330D1*
X6259286Y81293D1*
X6945460Y4863346D2*
X7042606D1*
X7060856Y4857310D1*
X7066893Y4851133D1*
X7073070Y4839060D1*
Y4826846D1*
X7066893Y4814773D1*
X7060856Y4808737D1*
X7042606Y4802560D1*
X7030533D1*
X6969887Y4902562D2*
X6963710Y4914775D1*
X6945601Y4933025D1*
X7073070D1*
X6945601Y5008741D2*
X6951637Y4990491D1*
X6969887Y4978277D1*
X7000210Y4972241D1*
X7018460D1*
X7048783Y4978277D1*
X7067033Y4990491D1*
X7073070Y5008741D1*
Y5020814D1*
X7067033Y5039064D1*
X7048783Y5051137D1*
X7018460Y5057314D1*
X7000210D1*
X6969887Y5051137D1*
X6951637Y5039064D1*
X6945601Y5020814D1*
Y5008741D1*
X6969887Y5051137D2*
X7048783Y4978277D1*
X7065590Y4423873D2*
X7053517Y4417836D1*
X7041303Y4405623D1*
X7035267Y4393550D1*
Y4369263D1*
X7041303Y4357050D1*
X7053517Y4344977D1*
X7065590Y4338800D1*
X7083840Y4332763D1*
X7114303D1*
X7132413Y4338800D1*
X7144626Y4344977D1*
X7156700Y4357050D1*
X7162876Y4369263D1*
Y4393550D1*
X7156700Y4405623D1*
X7144626Y4417836D1*
X7132413Y4423873D1*
X7114303D1*
Y4393550D1*
X7035267Y4548162D2*
X7162876Y4548161D1*
X7035267Y4463089D1*
X7162876Y4463088D1*
X7035267Y4587377D2*
X7162876D1*
Y4629914D1*
X7156699Y4648164D1*
X7144626Y4660377D1*
X7132413Y4666414D1*
X7114303Y4672450D1*
X7083840D1*
X7065590Y4666414D1*
X7053517Y4660377D1*
X7041303Y4648164D1*
X7035267Y4629914D1*
Y4587377D1*
X3889057Y-800826D2*
X4016666D1*
Y-727966D1*
X3913484Y-688751D2*
X3907307Y-676537D1*
X3889197Y-658287D1*
X4016666D1*
X2346777Y-801547D2*
X2474386D1*
Y-728688D1*
X2377240Y-683295D2*
X2371204D1*
X2358990Y-677259D1*
X2352954Y-671222D1*
X2346917Y-659009D1*
Y-634722D1*
X2352954Y-622649D1*
X2358990Y-616612D1*
X2371204Y-610436D1*
X2383277D1*
X2395490Y-616612D1*
X2413600Y-628686D1*
X2474386Y-689472D1*
Y-604399D1*
X3526727Y-817511D2*
X3654336D1*
Y-744651D1*
X3526867Y-693222D2*
Y-626539D1*
X3575440Y-662899D1*
Y-644649D1*
X3581477Y-632576D1*
X3587513Y-626539D1*
X3605763Y-620362D1*
X3617836D1*
X3636086Y-626539D1*
X3648300Y-638612D1*
X3654336Y-656862D1*
Y-675112D1*
X3648300Y-693222D1*
X3642123Y-699259D1*
X3630050Y-705435D1*
X1982367Y-809249D2*
X2109976D1*
Y-736389D1*
Y-636387D2*
X1982507D1*
X2067440Y-697174D1*
Y-606064D1*
X754797Y-820211D2*
X882406D1*
Y-747351D1*
X754937Y-635276D2*
Y-695922D1*
X809547Y-701958D1*
X803510Y-695922D1*
X797333Y-677672D1*
Y-659562D1*
X803510Y-641312D1*
X815583Y-629099D1*
X833833Y-623062D1*
X845906D1*
X864156Y-629099D1*
X876370Y-641312D1*
X882406Y-659562D1*
Y-677672D1*
X876370Y-695922D1*
X870193Y-701959D1*
X858120Y-708135D1*
X417720Y-830499D2*
X545330D1*
Y-757639D1*
X435970Y-645564D2*
X423897Y-651601D1*
X417861Y-669851D1*
Y-681924D1*
X423897Y-700174D1*
X442147Y-712387D1*
X472470Y-718424D1*
X502793D1*
X527080Y-712387D1*
X539293Y-700174D1*
X545330Y-681924D1*
Y-675887D1*
X539293Y-657778D1*
X527080Y-645564D1*
X508830Y-639528D1*
X502793D1*
X484543Y-645564D1*
X472470Y-657777D1*
X466434Y-675887D1*
Y-681924D1*
X472470Y-700174D1*
X484543Y-712387D1*
X502793Y-718424D1*
X2410330Y4115873D2*
X2537940D1*
Y4188732D1*
Y4252234D2*
X2410471Y4313021D1*
Y4227948D1*
X2185430Y4114506D2*
X2313040D1*
Y4187366D1*
X2185571Y4256905D2*
X2191607Y4238795D1*
X2203680Y4232618D1*
X2215894D1*
X2227967Y4238795D1*
X2234144Y4250868D1*
X2240180Y4275155D1*
X2246217Y4293404D1*
X2258430Y4305478D1*
X2270503Y4311514D1*
X2288753D1*
X2300826Y4305477D1*
X2307003Y4299441D1*
X2313040Y4281191D1*
Y4256904D1*
X2307003Y4238795D1*
X2300826Y4232618D1*
X2288753Y4226581D1*
X2270503D1*
X2258430Y4232618D1*
X2246217Y4244831D1*
X2240180Y4262941D1*
X2234144Y4287228D1*
X2227967Y4299441D1*
X2215894Y4305478D1*
X2203680D1*
X2191607Y4299441D1*
X2185571Y4281191D1*
Y4256905D1*
X2825520Y4117948D2*
X2953130D1*
Y4190807D1*
X2868057Y4309059D2*
X2886307Y4302882D1*
X2898520Y4290809D1*
X2904557Y4272559D1*
Y4266523D1*
X2898520Y4248273D1*
X2886307Y4236200D1*
X2868057Y4230023D1*
X2862020D1*
X2843770Y4236200D1*
X2831697Y4248273D1*
X2825661Y4266523D1*
Y4272559D1*
X2831697Y4290809D1*
X2843770Y4302882D1*
X2868057Y4309059D1*
X2898520D1*
X2928843Y4302882D1*
X2947093Y4290809D1*
X2953130Y4272559D1*
Y4260486D1*
X2947093Y4242236D1*
X2934880Y4236200D1*
X2618960Y4082567D2*
X2746570D1*
Y4155426D1*
X2643387Y4194642D2*
X2637210Y4206855D1*
X2619101Y4225105D1*
X2746570D1*
X2619101Y4300821D2*
X2625137Y4282571D1*
X2643387Y4270357D1*
X2673710Y4264321D1*
X2691960D1*
X2722283Y4270357D1*
X2740533Y4282571D1*
X2746570Y4300821D1*
Y4312894D1*
X2740533Y4331144D1*
X2722283Y4343217D1*
X2691960Y4349394D1*
X2673710D1*
X2643387Y4343217D1*
X2625137Y4331144D1*
X2619101Y4312894D1*
Y4300821D1*
X2643387Y4343217D2*
X2722283Y4270357D1*
X3115363Y-835665D2*
X3242973D1*
Y-762806D1*
X3139790Y-723590D2*
X3133614Y-711377D1*
X3115504Y-693127D1*
X3242973D1*
X3139790Y-653911D2*
X3133614Y-641698D1*
X3115504Y-623448D1*
X3242973D1*
X4783Y-850403D2*
X132393D1*
Y-777544D1*
X29210Y-738328D2*
X23034Y-726115D1*
X4924Y-707865D1*
X132393D1*
X35247Y-662472D2*
X29210D1*
X16997Y-656436D1*
X10960Y-650399D1*
X4924Y-638186D1*
Y-613899D1*
X10960Y-601826D1*
X16997Y-595790D1*
X29210Y-589613D1*
X41284D1*
X53497Y-595790D1*
X71607Y-607863D1*
X132393Y-668649D1*
Y-583576D1*
X1584783Y-848460D2*
X1712393D1*
Y-775601D1*
X1609210Y-736385D2*
X1603034Y-724171D1*
X1584924Y-705921D1*
X1712393Y-705922D1*
X1584924Y-654492D2*
Y-587810D1*
X1633497Y-624169D1*
Y-605919D1*
X1639534Y-593846D1*
X1645570Y-587810D1*
X1663820Y-581633D1*
X1675893D1*
X1694143Y-587810D1*
X1706357Y-599883D1*
X1712393Y-618133D1*
Y-636383D1*
X1706357Y-654492D1*
X1700180Y-660529D1*
X1688107Y-666706D1*
X4762792Y5421592D2*
X4890401D1*
Y5494451D1*
X4787219Y5533667D2*
X4781042Y5545880D1*
X4762932Y5564130D1*
X4890401D1*
Y5664132D2*
X4762932D1*
X4847865Y5603346D1*
Y5694455D1*
X1140143Y5374987D2*
X1267753D1*
Y5447846D1*
X1164570Y5487062D2*
X1158394Y5499275D1*
X1140284Y5517525D1*
X1267753D1*
X1140284Y5629600D2*
Y5568954D1*
X1194894Y5562918D1*
X1188857Y5568954D1*
X1182680Y5587204D1*
Y5605314D1*
X1188857Y5623564D1*
X1200930Y5635777D1*
X1219180Y5641814D1*
X1231253D1*
X1249503Y5635777D1*
X1261717Y5623564D1*
X1267753Y5605314D1*
Y5587204D1*
X1261717Y5568954D1*
X1255540Y5562918D1*
X1243467Y5556741D1*
X1526100Y5378075D2*
X1653710D1*
Y5450934D1*
X1550527Y5490150D2*
X1544350Y5502364D1*
X1526241Y5520614D1*
X1653710Y5520613D1*
X1544350Y5632689D2*
X1532277Y5626652D1*
X1526241Y5608402D1*
Y5596329D1*
X1532277Y5578079D1*
X1550527Y5565866D1*
X1580850Y5559829D1*
X1611173D1*
X1635460Y5565866D1*
X1647673Y5578079D1*
X1653710Y5596329D1*
Y5602366D1*
X1647673Y5620475D1*
X1635460Y5632689D1*
X1617210Y5638725D1*
X1611173D1*
X1592923Y5632689D1*
X1580850Y5620475D1*
X1574814Y5602366D1*
Y5596329D1*
X1580850Y5578079D1*
X1592923Y5565866D1*
X1611173Y5559829D1*
X1934580Y5374987D2*
X2062190D1*
Y5447846D1*
X1959007Y5487062D2*
X1952830Y5499275D1*
X1934721Y5517525D1*
X2062190D1*
Y5581027D2*
X1934721Y5641814D1*
Y5556741D1*
X4088548Y5266351D2*
Y5320960D1*
X4082371Y5339210D1*
X4076335Y5345387D1*
X4064262Y5351424D1*
X4052048D1*
X4039975Y5345387D1*
X4033798Y5339210D1*
X4027762Y5320960D1*
Y5266351D1*
X4155371D1*
X4088548Y5308887D2*
X4155371Y5351424D1*
X4052189Y5390640D2*
X4046012Y5402853D1*
X4027902Y5421103D1*
X4155371D1*
X3701432Y2809336D2*
Y2863946D1*
X3695255Y2882196D1*
X3689218Y2888373D1*
X3677145Y2894409D1*
X3664932D1*
X3652859Y2888373D1*
X3646682Y2882196D1*
X3640645Y2863946D1*
Y2809336D1*
X3768255D1*
X3701432Y2851873D2*
X3768255Y2894409D1*
X3671109Y2939802D2*
X3665072D1*
X3652859Y2945838D1*
X3646822Y2951875D1*
X3640786Y2964088D1*
Y2988375D1*
X3646822Y3000448D1*
X3652859Y3006484D1*
X3665072Y3012661D1*
X3677145D1*
X3689359Y3006484D1*
X3707468Y2994411D1*
X3768255Y2933625D1*
Y3018698D1*
X4477033Y2957313D2*
Y3011922D1*
X4470856Y3030172D1*
X4464820Y3036349D1*
X4452747Y3042386D1*
X4440533D1*
X4428460Y3036349D1*
X4422283Y3030172D1*
X4416247Y3011922D1*
Y2957313D1*
X4543856D1*
X4477033Y2999849D2*
X4543856Y3042386D1*
X4416387Y3093815D2*
Y3160497D1*
X4464960Y3124138D1*
Y3142388D1*
X4470997Y3154461D1*
X4477033Y3160497D1*
X4495283Y3166674D1*
X4507356D1*
X4525606Y3160497D1*
X4537820Y3148424D1*
X4543856Y3130174D1*
Y3111924D1*
X4537820Y3093815D1*
X4531643Y3087778D1*
X4519570Y3081601D1*
X5265882Y5126091D2*
Y5180701D1*
X5259705Y5198951D1*
X5253668Y5205128D1*
X5241595Y5211164D1*
X5229382D1*
X5217309Y5205128D1*
X5211132Y5198951D1*
X5205095Y5180701D1*
Y5126091D1*
X5332705D1*
X5265882Y5168628D2*
X5332705Y5211164D1*
Y5311166D2*
X5205236D1*
X5290168Y5250380D1*
Y5341489D1*
X3539565Y5252669D2*
Y5307279D1*
X3533388Y5325529D1*
X3527352Y5331706D1*
X3515279Y5337742D1*
X3503065D1*
X3490992Y5331706D1*
X3484815Y5325529D1*
X3478778Y5307279D1*
Y5252669D1*
X3606388D1*
X3539565Y5295206D2*
X3606388Y5337742D1*
X3478919Y5449818D2*
Y5389172D1*
X3533529Y5383135D1*
X3527492Y5389171D1*
X3521315Y5407421D1*
Y5425531D1*
X3527492Y5443781D1*
X3539565Y5455994D1*
X3557815Y5462031D1*
X3569888D1*
X3588138Y5455994D1*
X3600352Y5443781D1*
X3606388Y5425531D1*
Y5407421D1*
X3600352Y5389171D1*
X3594175Y5383135D1*
X3582102Y5376958D1*
X2807488Y697458D2*
X2898598D1*
X2916848Y703494D1*
X2928921Y715708D1*
X2935098Y733957D1*
Y746030D1*
X2928921Y764280D1*
X2916848Y776494D1*
X2898598Y782530D1*
X2807489Y782531D1*
X2831915Y821746D2*
X2825739Y833960D1*
X2807629Y852210D1*
X2935098Y852209D1*
X916758Y1464873D2*
X1007868D1*
X1026118Y1470909D1*
X1038191Y1483123D1*
X1044368Y1501373D1*
Y1513446D1*
X1038191Y1531696D1*
X1026118Y1543909D1*
X1007868Y1549946D1*
X916759D1*
X947222Y1595338D2*
X941185D1*
X928972Y1601375D1*
X922935Y1607411D1*
X916899Y1619625D1*
Y1643911D1*
X922935Y1655984D1*
X928972Y1662021D1*
X941185Y1668198D1*
X953259D1*
X965472Y1662021D1*
X983582Y1649948D1*
X1044368Y1589161D1*
Y1674234D1*
X3277680Y3272319D2*
X3368790D1*
X3387040Y3278356D1*
X3399113Y3290569D1*
X3405290Y3308819D1*
Y3320892D1*
X3399113Y3339142D1*
X3387040Y3351356D1*
X3368790Y3357392D1*
X3277680D1*
X3277821Y3469468D2*
Y3408822D1*
X3332430Y3402785D1*
X3326394Y3408821D1*
X3320217Y3427071D1*
Y3445181D1*
X3326394Y3463431D1*
X3338467Y3475644D1*
X3356717Y3481681D1*
X3368790D1*
X3387040Y3475644D1*
X3399253Y3463431D1*
X3405290Y3445181D1*
Y3427071D1*
X3399253Y3408821D1*
X3393076Y3402785D1*
X3381003Y3396608D1*
X-281396Y-1813865D2*
D69*
X-77221D1*
X-281397Y-1881923D2*
X-281396Y-1745807D1*
Y-1615003D2*
X-77221D1*
X-281396Y-1683061D2*
Y-1546945D1*
Y-1484200D2*
X-184138Y-1406483D1*
X-77221D1*
X-281396Y-1328766D2*
X-184138Y-1406483D1*
X-281396Y-1207621D2*
X-271738Y-1227162D1*
X-252196Y-1246479D1*
X-232880Y-1256362D1*
X-203680Y-1266021D1*
X-154938D1*
X-125963Y-1256362D1*
X-106421Y-1246479D1*
X-87104Y-1227162D1*
X-77221Y-1207621D1*
Y-1168762D1*
X-87104Y-1149445D1*
X-106421Y-1129904D1*
X-125963Y-1120245D1*
X-154938Y-1110587D1*
X-203680D1*
X-232880Y-1120245D1*
X-252196Y-1129904D1*
X-271738Y-1149445D1*
X-281396Y-1168762D1*
Y-1207621D1*
X-77221Y-950583D2*
X-281172D1*
X-145280Y-1047842D1*
Y-902066D1*
X1327054Y-1812868D2*
X1531229D1*
X1327053Y-1880927D2*
X1327054Y-1744810D1*
Y-1614006D2*
X1531229Y-1614007D1*
X1327054Y-1682065D2*
Y-1545948D1*
Y-1483203D2*
X1424312Y-1405486D1*
X1531229D1*
X1327054Y-1327769D2*
X1424312Y-1405486D1*
X1327054Y-1206624D2*
X1336712Y-1226166D1*
X1356254Y-1245482D1*
X1375570Y-1255366D1*
X1404770Y-1265024D1*
X1453512D1*
X1482487Y-1255366D1*
X1502029Y-1245483D1*
X1521346Y-1226166D1*
X1531229Y-1206624D1*
Y-1167766D1*
X1521346Y-1148449D1*
X1502029Y-1128907D1*
X1482487Y-1119249D1*
X1453512Y-1109590D1*
X1404770D1*
X1375570Y-1119249D1*
X1356254Y-1128907D1*
X1336712Y-1148449D1*
X1327054Y-1167766D1*
Y-1206624D1*
X1375795Y-1036962D2*
X1366137D1*
X1346595Y-1027304D1*
X1336937Y-1017645D1*
X1327278Y-998104D1*
Y-959245D1*
X1336937Y-939928D1*
X1346595Y-930270D1*
X1366137Y-920387D1*
X1385454D1*
X1404995Y-930270D1*
X1433970Y-949587D1*
X1531229Y-1046845D1*
Y-910728D1*
X2891734Y-1825255D2*
X3095909D1*
X2891733Y-1893313D2*
X2891734Y-1757197D1*
Y-1626393D2*
X3095909D1*
X2891734Y-1694451D2*
Y-1558335D1*
Y-1495590D2*
X2988992Y-1417873D1*
X3095909D1*
X2891734Y-1340156D2*
X2988992Y-1417873D1*
X2891734Y-1219011D2*
X2901392Y-1238552D1*
X2920934Y-1257869D1*
X2940250Y-1267752D1*
X2969450Y-1277411D1*
X3018192D1*
X3047167Y-1267752D1*
X3066709Y-1257869D1*
X3086026Y-1238552D1*
X3095909Y-1219011D1*
Y-1180152D1*
X3086026Y-1160835D1*
X3066709Y-1141294D1*
X3047167Y-1131635D1*
X3018192Y-1121977D1*
X2969450D1*
X2940250Y-1131635D1*
X2920934Y-1141294D1*
X2901392Y-1160835D1*
X2891734Y-1180152D1*
Y-1219011D1*
X2930817Y-1059232D2*
X2920934Y-1039690D1*
X2891958Y-1010490D1*
X3095909D1*
X2773920Y5739582D2*
X2978096D1*
X2773920Y5671523D2*
Y5807640D1*
Y5938444D2*
X2978096Y5938443D1*
X2773920Y5870385D2*
Y6006502D1*
Y6069247D2*
X2871179Y6146964D1*
X2978096D1*
X2773920Y6224681D2*
X2871179Y6146964D1*
X2773920Y6345826D2*
X2783579Y6326284D1*
X2803120Y6306968D1*
X2822437Y6297084D1*
X2851637Y6287426D1*
X2900379D1*
X2929354Y6297084D1*
X2948896Y6306967D1*
X2968212Y6326284D1*
X2978096Y6345826D1*
Y6384684D1*
X2968212Y6404001D1*
X2948896Y6423543D1*
X2929354Y6433201D1*
X2900379Y6442860D1*
X2851637D1*
X2822437Y6433201D1*
X2803120Y6423543D1*
X2783579Y6404001D1*
X2773920Y6384684D1*
Y6345826D1*
X2774145Y6622180D2*
Y6525146D1*
X2861520Y6515488D1*
X2851862Y6525146D1*
X2841979Y6554346D1*
Y6583322D1*
X2851862Y6612522D1*
X2871179Y6632063D1*
X2900379Y6641722D1*
X2919696D1*
X2948896Y6632063D1*
X2968437Y6612522D1*
X2978096Y6583322D1*
Y6554346D1*
X2968437Y6525146D1*
X2958554Y6515488D1*
X2939237Y6505605D1*
X5647957Y-1299978D2*
X5628640Y-1309637D1*
X5609099Y-1329178D1*
X5599440Y-1348495D1*
Y-1387353D1*
X5609099Y-1406895D1*
X5628640Y-1426212D1*
X5647957Y-1436095D1*
X5677157Y-1445753D1*
X5725899D1*
X5754874Y-1436095D1*
X5774416Y-1426212D1*
X5793733Y-1406895D1*
X5803616Y-1387354D1*
Y-1348495D1*
X5793733Y-1329178D1*
X5774416Y-1309637D1*
X5754874Y-1299978D1*
X5725899D1*
Y-1348495D1*
X5599440Y-1101116D2*
X5803616D1*
X5599440Y-1237233D1*
X5803616D1*
X5599440Y-1038371D2*
X5803616D1*
Y-970313D1*
X5793732Y-941113D1*
X5774416Y-921571D1*
X5754874Y-911913D1*
X5725899Y-902254D1*
X5677157D1*
X5647957Y-911913D1*
X5628640Y-921571D1*
X5609099Y-941113D1*
X5599440Y-970313D1*
Y-1038371D1*
X6043659Y-1250413D2*
Y-1163038D1*
X6033776Y-1133838D1*
X6024117Y-1123955D1*
X6004800Y-1114297D1*
X5985259D1*
X5965942Y-1123955D1*
X5956059Y-1133838D1*
X5946400Y-1163038D1*
Y-1250413D1*
X6150576D1*
X6043659Y-1182355D2*
X6150576Y-1114297D1*
X5946400Y-1051551D2*
X6150576Y-915435D1*
X5946400D2*
X6150576Y-1051552D1*
X6276140Y-1185078D2*
X6480316D1*
X6276140Y-1253137D2*
Y-1117020D1*
Y-1054275D2*
X6480316Y-918158D1*
X6276140D2*
X6480316Y-1054275D1*
X6148874Y442168D2*
D70*
Y507700D1*
X6141462Y529600D1*
X6134218Y537012D1*
X6119730Y544256D1*
X6105074D1*
X6090586Y537012D1*
X6083174Y529600D1*
X6075930Y507700D1*
Y442168D1*
X6229062D1*
X6148874Y493212D2*
X6229062Y544256D1*
X6105243Y591315D2*
X6097830Y605971D1*
X6076099Y627871D1*
X6229062D1*
X6221818Y689586D2*
X6229062Y682173D1*
X6221818Y674930D1*
X6214406Y682173D1*
X6221818Y689586D1*
X6236306D1*
X6250962Y682173D1*
X6258206Y674930D1*
X6148874Y736645D2*
Y802176D1*
X6141462Y824076D1*
X6134218Y831488D1*
X6119730Y838732D1*
X6105074D1*
X6090586Y831488D1*
X6083174Y824076D1*
X6075930Y802176D1*
Y736645D1*
X6229062D1*
X6148874Y787688D2*
X6229062Y838732D1*
X6076099Y973223D2*
Y900447D1*
X6141630Y893203D1*
X6134386Y900447D1*
X6126974Y922347D1*
Y944079D1*
X6134386Y965979D1*
X6148874Y980635D1*
X6170774Y987879D1*
X6185262D1*
X6207162Y980635D1*
X6221818Y965979D1*
X6229062Y944079D1*
Y922347D1*
X6221818Y900447D1*
X6214406Y893203D1*
X6199918Y885791D1*
X6126974Y1042350D2*
X6134386Y1034938D1*
X6141630Y1042350D1*
X6134386Y1049594D1*
X6126974Y1042350D1*
X6214406D2*
X6221818Y1034938D1*
X6229062Y1042350D1*
X6221818Y1049594D1*
X6214406Y1042350D1*
X6075930Y1288588D2*
X6083174Y1273932D1*
X6097830Y1259444D1*
X6112318Y1252032D1*
X6134218Y1244788D1*
X6170774D1*
X6192506Y1252032D1*
X6207162Y1259444D1*
X6221649Y1273932D1*
X6229062Y1288588D1*
Y1317732D1*
X6221649Y1332220D1*
X6207162Y1346876D1*
X6192506Y1354120D1*
X6170774Y1361364D1*
X6134218D1*
X6112318Y1354120D1*
X6097830Y1346876D1*
X6083174Y1332220D1*
X6075930Y1317732D1*
Y1288588D1*
X6126974Y1408422D2*
X6280105D1*
X6148874D2*
X6134386Y1423079D1*
X6126974Y1437566D1*
Y1459466D1*
X6134386Y1474122D1*
X6148874Y1488610D1*
X6170774Y1496022D1*
X6185430D1*
X6207162Y1488610D1*
X6221818Y1474122D1*
X6229062Y1459466D1*
Y1437566D1*
X6221818Y1423079D1*
X6207162Y1408422D1*
X6075930Y1564981D2*
X6199918D1*
X6221649Y1572225D1*
X6229062Y1586881D1*
Y1601369D1*
X6126974Y1543081D2*
Y1594125D1*
X6075930Y1648428D2*
X6083174Y1655672D1*
X6075930Y1663084D1*
X6068518Y1655672D1*
X6075930Y1648428D1*
X6126974Y1655672D2*
X6229062D1*
X6126974Y1746530D2*
X6134218Y1732043D1*
X6148874Y1717387D1*
X6170774Y1710143D1*
X6185262D1*
X6207162Y1717387D1*
X6221649Y1732043D1*
X6229062Y1746530D1*
Y1768430D1*
X6221649Y1783087D1*
X6207162Y1797574D1*
X6185262Y1804987D1*
X6170774D1*
X6148874Y1797574D1*
X6134218Y1783087D1*
X6126974Y1768430D1*
Y1746530D1*
Y1852045D2*
X6229062D1*
X6156118D2*
X6134218Y1873945D1*
X6126974Y1888602D1*
Y1910333D1*
X6134218Y1924989D1*
X6156118Y1932233D1*
X6229062D1*
X6126974Y2066724D2*
X6229062D1*
X6148874D2*
X6134218Y2052236D1*
X6126974Y2037580D1*
Y2015848D1*
X6134218Y2001192D1*
X6148874Y1986704D1*
X6170774Y1979292D1*
X6185262D1*
X6207162Y1986704D1*
X6221649Y2001192D1*
X6229062Y2015848D1*
Y2037580D1*
X6221649Y2052236D1*
X6207162Y2066724D1*
X6075930Y2113782D2*
X6229062D1*
X6148874Y2308977D2*
Y2374508D1*
X6141462Y2396408D1*
X6134218Y2403821D1*
X6119730Y2411065D1*
X6105074D1*
X6090586Y2403821D1*
X6083174Y2396408D1*
X6075930Y2374508D1*
Y2308977D1*
X6229062D1*
X6148874Y2360021D2*
X6229062Y2411065D1*
X6097830Y2560211D2*
X6083174Y2545723D1*
X6075930Y2523823D1*
Y2494680D1*
X6083174Y2472780D1*
X6097830Y2458123D1*
X6112318D1*
X6126974Y2465536D1*
X6134218Y2472780D1*
X6141462Y2487267D1*
X6156118Y2531067D1*
X6163362Y2545723D1*
X6170774Y2552967D1*
X6185262Y2560211D1*
X6207162D1*
X6221649Y2545723D1*
X6229062Y2523823D1*
Y2494680D1*
X6221649Y2472780D1*
X6207162Y2458123D1*
X6229062Y2680214D2*
X6076099D1*
X6178018Y2607270D1*
Y2716601D1*
X6076099Y2800048D2*
X6083342Y2778316D1*
X6097830Y2770904D1*
X6112486D1*
X6126974Y2778316D1*
X6134386Y2792804D1*
X6141630Y2821948D1*
X6148874Y2843848D1*
X6163530Y2858336D1*
X6178018Y2865580D1*
X6199918D1*
X6214405Y2858336D1*
X6221818Y2851092D1*
X6229062Y2829192D1*
Y2800048D1*
X6221818Y2778316D1*
X6214405Y2770904D1*
X6199918Y2763660D1*
X6178018D1*
X6163530Y2770904D1*
X6148874Y2785560D1*
X6141630Y2807292D1*
X6134386Y2836436D1*
X6126974Y2851092D1*
X6112486Y2858336D1*
X6097830D1*
X6083342Y2851092D1*
X6076099Y2829192D1*
Y2800048D1*
Y3000070D2*
Y2927295D1*
X6141630Y2920051D1*
X6134386Y2927295D1*
X6126974Y2949195D1*
Y2970926D1*
X6134386Y2992826D1*
X6148874Y3007482D1*
X6170774Y3014726D1*
X6185262D1*
X6207162Y3007482D1*
X6221818Y2992826D1*
X6229062Y2970926D1*
Y2949195D1*
X6221818Y2927295D1*
X6214405Y2920051D1*
X6199918Y2912638D1*
X6075930Y3231821D2*
X6199918D1*
X6221649Y3239064D1*
X6229062Y3253721D1*
Y3268208D1*
X6126974Y3209921D2*
Y3260964D1*
X6170774Y3315267D2*
Y3402699D1*
X6156118D1*
X6141462Y3395455D1*
X6134218Y3388211D1*
X6126974Y3373555D1*
Y3351655D1*
X6134218Y3337167D1*
X6148874Y3322511D1*
X6170774Y3315267D1*
X6185262D1*
X6207162Y3322511D1*
X6221649Y3337167D1*
X6229062Y3351655D1*
Y3373555D1*
X6221649Y3388211D1*
X6207162Y3402699D1*
X6126974Y3449757D2*
X6229062D1*
X6170774D2*
X6148874Y3457170D1*
X6134218Y3471657D1*
X6126974Y3486314D1*
Y3508214D1*
Y3555272D2*
X6229062D1*
X6156118D2*
X6134218Y3577172D1*
X6126974Y3591829D1*
Y3613560D1*
X6134218Y3628216D1*
X6156118Y3635460D1*
X6229062D1*
X6156118D2*
X6134218Y3657360D1*
X6126974Y3672016D1*
Y3693748D1*
X6134218Y3708404D1*
X6156118Y3715816D1*
X6229062D1*
X6075930Y3762875D2*
X6083174Y3770119D1*
X6075930Y3777531D1*
X6068518Y3770119D1*
X6075930Y3762875D1*
X6126974Y3770119D2*
X6229062D1*
X6126974Y3824590D2*
X6229062D1*
X6156118D2*
X6134218Y3846490D1*
X6126974Y3861146D1*
Y3882878D1*
X6134218Y3897534D1*
X6156118Y3904778D1*
X6229062D1*
X6126974Y4039268D2*
X6229062D1*
X6148874D2*
X6134218Y4024780D1*
X6126974Y4010124D1*
Y3988393D1*
X6134218Y3973737D1*
X6148874Y3959249D1*
X6170774Y3951837D1*
X6185262D1*
X6207162Y3959249D1*
X6221649Y3973737D1*
X6229062Y3988393D1*
Y4010124D1*
X6221649Y4024780D1*
X6207162Y4039268D1*
X6075930Y4108227D2*
X6199918D1*
X6221649Y4115471D1*
X6229062Y4130127D1*
Y4144615D1*
X6126974Y4086327D2*
Y4137371D1*
X6075930Y4191674D2*
X6083174Y4198917D1*
X6075930Y4206330D1*
X6068518Y4198917D1*
X6075930Y4191674D1*
X6126974Y4198917D2*
X6229062D1*
X6126974Y4289776D2*
X6134218Y4275288D1*
X6148874Y4260632D1*
X6170774Y4253388D1*
X6185262D1*
X6207162Y4260632D1*
X6221649Y4275288D1*
X6229062Y4289776D1*
Y4311676D1*
X6221649Y4326332D1*
X6207162Y4340820D1*
X6185262Y4348232D1*
X6170774D1*
X6148874Y4340820D1*
X6134218Y4326332D1*
X6126974Y4311676D1*
Y4289776D1*
Y4395291D2*
X6229062D1*
X6156118D2*
X6134218Y4417191D1*
X6126974Y4431847D1*
Y4453579D1*
X6134218Y4468235D1*
X6156118Y4475479D1*
X6229062D1*
X5582857Y1399102D2*
X5735988D1*
X5582857Y1348058D2*
Y1450146D1*
Y1548249D2*
X5735988Y1548248D1*
X5582857Y1497205D2*
Y1599292D1*
Y1646351D2*
X5655801Y1704639D1*
X5735988D1*
X5582857Y1762927D2*
X5655801Y1704639D1*
X5582857Y1853785D2*
X5590101Y1839129D1*
X5604757Y1824641D1*
X5619245Y1817229D1*
X5641145Y1809985D1*
X5677701D1*
X5699432Y1817229D1*
X5714088Y1824641D1*
X5728576Y1839129D1*
X5735988Y1853785D1*
Y1882929D1*
X5728576Y1897417D1*
X5714088Y1912073D1*
X5699432Y1919317D1*
X5677701Y1926561D1*
X5641145D1*
X5619245Y1919317D1*
X5604757Y1912073D1*
X5590101Y1897417D1*
X5582857Y1882929D1*
Y1853785D1*
X5612169Y1973620D2*
X5604757Y1988276D1*
X5583025Y2010176D1*
X5735988D1*
Y2057234D2*
X5583025Y2159322D1*
X5619413Y2213793D2*
X5612169D1*
X5597513Y2221037D1*
X5590269Y2228281D1*
X5583025Y2242937D1*
Y2272081D1*
X5590269Y2286569D1*
X5597513Y2293813D1*
X5612169Y2301225D1*
X5626657D1*
X5641313Y2293813D1*
X5663044Y2279325D1*
X5735988Y2206381D1*
Y2308469D1*
Y2355527D2*
X5583025Y2457615D1*
X5735988Y2577618D2*
X5583025D1*
X5684944Y2504674D1*
Y2614006D1*
X5633901Y2668477D2*
X5641313Y2661064D1*
X5648557Y2668477D1*
X5641313Y2675721D1*
X5633901Y2668477D1*
X5721332D2*
X5728744Y2661064D1*
X5735988Y2668477D1*
X5728744Y2675721D1*
X5721332Y2668477D1*
X5655801Y2870915D2*
Y2936447D1*
X5648388Y2958347D1*
X5641144Y2965759D1*
X5626657Y2973003D1*
X5612001D1*
X5597513Y2965759D1*
X5590101Y2958347D1*
X5582857Y2936447D1*
Y2870915D1*
X5735988D1*
X5655801Y2921959D2*
X5735988Y2973003D1*
X5604757Y3122149D2*
X5590101Y3107662D1*
X5582857Y3085762D1*
Y3056618D1*
X5590101Y3034718D1*
X5604757Y3020062D1*
X5619244D1*
X5633901Y3027474D1*
X5641144Y3034718D1*
X5648388Y3049205D1*
X5663044Y3093005D1*
X5670288Y3107662D1*
X5677701Y3114905D1*
X5692188Y3122149D1*
X5714088D1*
X5728576Y3107662D1*
X5735988Y3085762D1*
Y3056618D1*
X5728576Y3034718D1*
X5714088Y3020062D1*
X5619413Y3176620D2*
X5612169D1*
X5597513Y3183864D1*
X5590269Y3191108D1*
X5583025Y3205764D1*
Y3234908D1*
X5590269Y3249396D1*
X5597513Y3256640D1*
X5612169Y3264052D1*
X5626657D1*
X5641313Y3256640D1*
X5663044Y3242152D1*
X5735988Y3169208D1*
Y3271296D1*
X5583025Y3333011D2*
Y3413030D1*
X5641313Y3369398D1*
Y3391298D1*
X5648557Y3405786D1*
X5655801Y3413030D1*
X5677701Y3420442D1*
X5692188D1*
X5714088Y3413030D1*
X5728744Y3398542D1*
X5735988Y3376642D1*
Y3354742D1*
X5728744Y3333011D1*
X5721332Y3325767D1*
X5706844Y3318355D1*
X5619413Y3474913D2*
X5612169D1*
X5597513Y3482157D1*
X5590269Y3489401D1*
X5583025Y3504057D1*
Y3533201D1*
X5590269Y3547689D1*
X5597513Y3554933D1*
X5612169Y3562345D1*
X5626657D1*
X5641313Y3554933D1*
X5663044Y3540445D1*
X5735988Y3467501D1*
Y3569589D1*
X5829393Y799566D2*
X5982525Y799565D1*
X5829393Y748522D2*
X5829394Y850609D1*
Y948712D2*
X5982525D1*
X5829394Y897668D2*
Y999756D1*
Y1046815D2*
X5902337Y1105102D1*
X5982525D1*
X5829394Y1163390D2*
X5902337Y1105102D1*
X5829394Y1254249D2*
X5836637Y1239593D1*
X5851294Y1225105D1*
X5865781Y1217692D1*
X5887681Y1210449D1*
X5924237D1*
X5945969Y1217692D1*
X5960625Y1225105D1*
X5975113Y1239592D1*
X5982525Y1254249D1*
Y1283392D1*
X5975113Y1297880D1*
X5960625Y1312536D1*
X5945969Y1319780D1*
X5924237Y1327024D1*
X5887681D1*
X5865781Y1319780D1*
X5851294Y1312536D1*
X5836637Y1297880D1*
X5829394Y1283393D1*
Y1254249D1*
X5829562Y1461514D2*
Y1388739D1*
X5895093Y1381495D1*
X5887850Y1388739D1*
X5880437Y1410639D1*
Y1432371D1*
X5887850Y1454271D1*
X5902337Y1468927D1*
X5924237Y1476171D1*
X5938725D1*
X5960625Y1468927D1*
X5975281Y1454271D1*
X5982525Y1432371D1*
Y1410639D1*
X5975281Y1388739D1*
X5967869Y1381495D1*
X5953381Y1374083D1*
X5880437Y1530642D2*
X5887850Y1523229D1*
X5895093Y1530642D1*
X5887850Y1537886D1*
X5880437Y1530642D1*
X5967869D2*
X5975281Y1523229D1*
X5982525Y1530642D1*
X5975281Y1537885D1*
X5967869Y1530642D1*
X5982525Y1806024D2*
X5829562D1*
X5931481Y1733080D1*
Y1842412D1*
X5829393Y1889470D2*
X5982525Y1926027D1*
X5829393Y1962414D1*
X5982525Y1998802D1*
X5829393Y2035358D1*
Y2082417D2*
X5982525D1*
X5902337Y2129476D2*
Y2195007D1*
X5894925Y2216907D1*
X5887681Y2224320D1*
X5873193Y2231563D1*
X5858537D1*
X5844050Y2224320D1*
X5836637Y2216907D1*
X5829393Y2195007D1*
Y2129476D1*
X5982525D1*
X5902337Y2180520D2*
X5982525Y2231563D1*
X5829393Y2373298D2*
Y2278622D1*
X5982525D1*
Y2373298D1*
X5902337Y2278622D2*
Y2336910D1*
Y2568492D2*
Y2634024D1*
X5894925Y2655924D1*
X5887681Y2663336D1*
X5873193Y2670580D1*
X5858537D1*
X5844050Y2663336D1*
X5836637Y2655924D1*
X5829393Y2634024D1*
Y2568492D1*
X5982525D1*
X5902337Y2619536D2*
X5982525Y2670580D1*
X5851293Y2819726D2*
X5836637Y2805239D1*
X5829393Y2783339D1*
Y2754195D1*
X5836637Y2732295D1*
X5851293Y2717639D1*
X5865781D1*
X5880437Y2725051D1*
X5887681Y2732295D1*
X5894925Y2746783D1*
X5909581Y2790583D1*
X5916825Y2805239D1*
X5924237Y2812483D1*
X5938725Y2819726D1*
X5960625D1*
X5975113Y2805239D1*
X5982525Y2783339D1*
Y2754195D1*
X5975113Y2732295D1*
X5960625Y2717639D1*
X5982525Y2939729D2*
X5829562D1*
X5931481Y2866785D1*
Y2976117D1*
X5829562Y3059563D2*
X5836806Y3037832D1*
X5851293Y3030419D1*
X5865950D1*
X5880437Y3037832D1*
X5887850Y3052319D1*
X5895093Y3081463D1*
X5902337Y3103363D1*
X5916993Y3117851D1*
X5931481Y3125095D1*
X5953381D1*
X5967869Y3117851D1*
X5975281Y3110607D1*
X5982525Y3088707D1*
Y3059563D1*
X5975281Y3037832D1*
X5967869Y3030419D1*
X5953381Y3023176D1*
X5931481D1*
X5916993Y3030419D1*
X5902337Y3045076D1*
X5895093Y3066807D1*
X5887850Y3095951D1*
X5880437Y3110607D1*
X5865950Y3117851D1*
X5851293D1*
X5836806Y3110607D1*
X5829562Y3088707D1*
Y3059563D1*
Y3259585D2*
Y3186810D1*
X5895093Y3179566D1*
X5887850Y3186810D1*
X5880437Y3208710D1*
Y3230441D1*
X5887850Y3252341D1*
X5902337Y3266998D1*
X5924237Y3274241D1*
X5938725D1*
X5960625Y3266998D1*
X5975281Y3252341D1*
X5982525Y3230441D1*
Y3208710D1*
X5975281Y3186810D1*
X5967869Y3179566D1*
X5953381Y3172154D1*
X5982525Y3321300D2*
X5829562Y3423388D1*
X5902337Y3470447D2*
Y3535978D1*
X5894925Y3557878D1*
X5887681Y3565291D1*
X5873193Y3572534D1*
X5858537D1*
X5844050Y3565291D1*
X5836637Y3557878D1*
X5829393Y3535978D1*
Y3470447D1*
X5982525D1*
X5902337Y3521491D2*
X5982525Y3572534D1*
X5851293Y3721681D2*
X5836637Y3707193D1*
X5829393Y3685293D1*
Y3656149D1*
X5836637Y3634249D1*
X5851293Y3619593D1*
X5865781D1*
X5880437Y3627006D1*
X5887681Y3634249D1*
X5894925Y3648737D1*
X5909581Y3692537D1*
X5916825Y3707193D1*
X5924237Y3714437D1*
X5938725Y3721681D1*
X5960625D1*
X5975113Y3707193D1*
X5982525Y3685293D1*
Y3656149D1*
X5975113Y3634249D1*
X5960625Y3619593D1*
X5865950Y3776152D2*
X5858706D1*
X5844050Y3783396D1*
X5836806Y3790640D1*
X5829562Y3805296D1*
Y3834440D1*
X5836806Y3848927D1*
X5844050Y3856171D1*
X5858706Y3863584D1*
X5873193D1*
X5887850Y3856171D1*
X5909581Y3841684D1*
X5982525Y3768740D1*
Y3870827D1*
X5829562Y3932542D2*
Y4012562D1*
X5887850Y3968930D1*
Y3990830D1*
X5895093Y4005318D1*
X5902337Y4012562D1*
X5924237Y4019974D1*
X5938725D1*
X5960625Y4012562D1*
X5975281Y3998074D1*
X5982525Y3976174D1*
Y3954274D1*
X5975281Y3932542D1*
X5967869Y3925299D1*
X5953381Y3917886D1*
X5865950Y4074445D2*
X5858706D1*
X5844050Y4081689D1*
X5836806Y4088933D1*
X5829562Y4103589D1*
Y4132733D1*
X5836806Y4147220D1*
X5844050Y4154464D1*
X5858706Y4161877D1*
X5873193D1*
X5887850Y4154464D1*
X5909581Y4139977D1*
X5982525Y4067033D1*
Y4169120D1*
X6491143Y944052D2*
X6644275D1*
X6491144Y1046139D2*
X6644275D1*
X6564087Y944052D2*
Y1046139D1*
X6491144Y1093198D2*
X6564087Y1151486D1*
X6644275D1*
X6491144Y1209773D2*
X6564087Y1151486D1*
X6571331Y1256832D2*
Y1322532D1*
X6564087Y1344264D1*
X6556675Y1351676D1*
X6542187Y1358920D1*
X6520287D1*
X6505800Y1351676D1*
X6498387Y1344264D1*
X6491144Y1322532D1*
Y1256832D1*
X6644275D1*
X6491144Y1500654D2*
Y1405979D1*
X6644275D1*
Y1500654D1*
X6564087Y1405979D2*
Y1464266D1*
Y1547713D2*
Y1613244D1*
X6556675Y1635144D1*
X6549431Y1642557D1*
X6534943Y1649801D1*
X6520287D1*
X6505800Y1642557D1*
X6498387Y1635144D1*
X6491144Y1613244D1*
Y1547713D1*
X6644275D1*
X6564087Y1598757D2*
X6644275Y1649801D1*
Y1813435D2*
X6491144D1*
X6644275Y1755147D1*
X6491144Y1696859D1*
X6644275D1*
Y1977237D2*
X6491143Y1918781D1*
X6644275Y1860494D1*
X6593231Y1882394D2*
Y1955337D1*
X6491143Y2068096D2*
X6498219Y2053609D1*
X6512875Y2038952D1*
X6527531Y2031709D1*
X6549431Y2024296D1*
X6585819D1*
X6607719Y2031709D1*
X6622207Y2038952D1*
X6636863Y2053609D1*
X6644107Y2068096D1*
Y2097240D1*
X6636863Y2111896D1*
X6622207Y2126384D1*
X6607719Y2133628D1*
X6585819Y2141040D1*
X6549431D1*
X6527531Y2133628D1*
X6512875Y2126384D1*
X6498219Y2111896D1*
X6491143Y2097240D1*
Y2068096D1*
X6614963Y2089996D2*
X6658763Y2133628D1*
X6564087Y2423835D2*
X6549431Y2409178D1*
X6542187Y2394522D1*
Y2372791D1*
X6549431Y2358135D1*
X6564087Y2343647D1*
X6585987Y2336235D1*
X6600475D1*
X6622375Y2343647D1*
X6636863Y2358135D1*
X6644275Y2372791D1*
Y2394522D1*
X6636863Y2409178D1*
X6622375Y2423835D1*
X6542187Y2507281D2*
X6549431Y2492793D1*
X6564087Y2478137D1*
X6585987Y2470893D1*
X6600475D1*
X6622375Y2478137D1*
X6636863Y2492793D1*
X6644275Y2507281D1*
Y2529181D1*
X6636863Y2543837D1*
X6622375Y2558325D1*
X6600475Y2565737D1*
X6585987D1*
X6564087Y2558325D1*
X6549431Y2543837D1*
X6542187Y2529181D1*
Y2507281D1*
Y2612796D2*
X6644275D1*
X6571331D2*
X6549431Y2634696D1*
X6542187Y2649352D1*
Y2671084D1*
X6549431Y2685740D1*
X6571331Y2692984D1*
X6644275D1*
X6571331D2*
X6549431Y2714884D1*
X6542187Y2729540D1*
Y2751272D1*
X6549431Y2765928D1*
X6571331Y2773340D1*
X6644275D1*
X6542187Y2820399D2*
X6644275D1*
X6571331D2*
X6549431Y2842299D1*
X6542187Y2856955D1*
Y2878686D1*
X6549431Y2893343D1*
X6571331Y2900586D1*
X6644275D1*
X6571331D2*
X6549431Y2922486D1*
X6542187Y2937143D1*
Y2958874D1*
X6549431Y2973530D1*
X6571331Y2980943D1*
X6644275D1*
X6629619Y3035245D2*
X6637031Y3028001D1*
X6644275Y3035245D1*
X6637031Y3042658D1*
X6629619Y3035245D1*
X6491143Y3237852D2*
X6644275D1*
X6564087D2*
X6549431Y3252508D1*
X6542187Y3266996D1*
Y3288896D1*
X6549431Y3303384D1*
X6564087Y3318040D1*
X6585987Y3325284D1*
X6600475D1*
X6622375Y3318040D1*
X6636863Y3303384D1*
X6644275Y3288896D1*
Y3266996D1*
X6636863Y3252508D1*
X6622375Y3237852D1*
X6542187Y3408730D2*
X6549431Y3394243D1*
X6564087Y3379586D1*
X6585987Y3372343D1*
X6600475D1*
X6622375Y3379586D1*
X6636863Y3394243D1*
X6644275Y3408730D1*
Y3430630D1*
X6636863Y3445286D1*
X6622375Y3459774D1*
X6600475Y3467186D1*
X6585987D1*
X6564087Y3459774D1*
X6549431Y3445286D1*
X6542187Y3430630D1*
Y3408730D1*
Y3601677D2*
X6644275D1*
X6564087D2*
X6549431Y3587189D1*
X6542187Y3572533D1*
Y3550801D1*
X6549431Y3536145D1*
X6564087Y3521658D1*
X6585987Y3514245D1*
X6600475D1*
X6622375Y3521658D1*
X6636863Y3536145D1*
X6644275Y3550801D1*
Y3572533D1*
X6636863Y3587189D1*
X6622375Y3601677D1*
X6542187Y3648736D2*
X6644275D1*
X6585987D2*
X6564087Y3656148D1*
X6549431Y3670636D1*
X6542187Y3685292D1*
Y3707192D1*
X6491143Y3841682D2*
X6644275D1*
X6564087D2*
X6549431Y3827194D1*
X6542187Y3812538D1*
Y3790638D1*
X6549431Y3776151D1*
X6564087Y3761494D1*
X6585987Y3754251D1*
X6600475D1*
X6622375Y3761494D1*
X6636863Y3776151D1*
X6644275Y3790638D1*
Y3812538D1*
X6636863Y3827194D1*
X6622375Y3841682D1*
X6756057Y1423215D2*
X6909188Y1481503D1*
X6756057Y1539790D1*
X6756225Y1630649D2*
X6763469Y1608749D1*
X6785369Y1594093D1*
X6821757Y1586849D1*
X6843657D1*
X6880045Y1594093D1*
X6901945Y1608749D1*
X6909188Y1630649D1*
Y1645137D1*
X6901945Y1667037D1*
X6880045Y1681524D1*
X6843657Y1688937D1*
X6821757D1*
X6785369Y1681524D1*
X6763469Y1667037D1*
X6756225Y1645137D1*
Y1630649D1*
X6785369Y1681524D2*
X6880045Y1594093D1*
X6894532Y1743239D2*
X6901945Y1735995D1*
X6909188Y1743239D1*
X6901945Y1750652D1*
X6894532Y1743239D1*
X6756225Y1812367D2*
Y1892386D1*
X6814513Y1848754D1*
Y1870654D1*
X6821757Y1885142D1*
X6829001Y1892386D1*
X6850901Y1899798D1*
X6865388D1*
X6887288Y1892386D1*
X6901944Y1877898D1*
X6909188Y1855998D1*
Y1834098D1*
X6901945Y1812367D1*
X6894532Y1805123D1*
X6880045Y1797710D1*
X6901944Y1961513D2*
X6909188Y1954101D1*
X6901944Y1946857D1*
X6894532Y1954101D1*
X6901944Y1961513D1*
X6916432D1*
X6931088Y1954101D1*
X6938332Y1946857D1*
X6756057Y2156708D2*
X6909188Y2214995D1*
X6756057Y2273283D1*
Y2320342D2*
X6909188D1*
Y2407773D1*
X6756057Y2454832D2*
X6909188D1*
X6756057Y2501891D2*
Y2603979D1*
X6909188Y2501891D1*
Y2603979D1*
X6792613Y2806586D2*
X6785369D1*
X6770713Y2813829D1*
X6763469Y2821073D1*
X6756225Y2835729D1*
Y2864873D1*
X6763469Y2879361D1*
X6770713Y2886605D1*
X6785369Y2894017D1*
X6799857D1*
X6814513Y2886605D1*
X6836244Y2872117D1*
X6909188Y2799173D1*
Y2901261D1*
X6756225Y2992120D2*
X6763469Y2970220D1*
X6785369Y2955564D1*
X6821757Y2948320D1*
X6843657D1*
X6880044Y2955564D1*
X6901944Y2970220D1*
X6909188Y2992120D1*
Y3006608D1*
X6901944Y3028508D1*
X6880044Y3042995D1*
X6843657Y3050408D1*
X6821757D1*
X6785369Y3042995D1*
X6763469Y3028508D1*
X6756225Y3006608D1*
Y2992120D1*
X6785369Y3042995D2*
X6880044Y2955564D1*
X6792613Y3104879D2*
X6785369D1*
X6770713Y3112122D1*
X6763469Y3119366D1*
X6756225Y3134022D1*
Y3163166D1*
X6763469Y3177654D1*
X6770713Y3184898D1*
X6785369Y3192310D1*
X6799857D1*
X6814513Y3184898D1*
X6836244Y3170410D1*
X6909188Y3097466D1*
Y3199554D1*
X6756225Y3290413D2*
X6763469Y3268513D1*
X6785369Y3253857D1*
X6821757Y3246613D1*
X6843657D1*
X6880044Y3253857D1*
X6901944Y3268513D1*
X6909188Y3290413D1*
Y3304901D1*
X6901944Y3326801D1*
X6880044Y3341288D1*
X6843657Y3348701D1*
X6821757D1*
X6785369Y3341288D1*
X6763469Y3326801D1*
X6756225Y3304901D1*
Y3290413D1*
X6785369Y3341288D2*
X6880044Y3253857D1*
X458505Y572840D2*
X444017Y565596D1*
X429361Y550940D1*
X422117Y536452D1*
Y507308D1*
X429361Y492652D1*
X444017Y478165D1*
X458504Y470752D1*
X480404Y463508D1*
X516961D1*
X538692Y470752D1*
X553348Y478165D1*
X567836Y492652D1*
X575248Y507308D1*
Y536452D1*
X567836Y550940D1*
X553348Y565596D1*
X538692Y572840D1*
X516961D1*
Y536452D1*
X422117Y721986D2*
X575248D1*
X422117Y619899D1*
X575248Y619898D1*
X422117Y769045D2*
X575248D1*
Y820089D1*
X567836Y841989D1*
X553348Y856645D1*
X538692Y863889D1*
X516961Y871133D1*
X480405D1*
X458505Y863889D1*
X444017Y856645D1*
X429361Y841989D1*
X422117Y820089D1*
Y769045D1*
X686499Y483538D2*
Y563557D1*
X744786Y519926D1*
Y541825D1*
X752030Y556313D1*
X759274Y563557D1*
X781174Y570969D1*
X795662D1*
X817562Y563557D1*
X832218Y549069D1*
X839462Y527169D1*
Y505269D1*
X832218Y483538D1*
X824806Y476294D1*
X810318Y468882D1*
X824806Y625272D2*
X832218Y618028D1*
X839462Y625272D1*
X832218Y632684D1*
X824806Y625272D1*
X686499Y694399D2*
Y774418D1*
X744786Y730787D1*
Y752687D1*
X752030Y767174D1*
X759274Y774418D1*
X781174Y781831D1*
X795662D1*
X817562Y774418D1*
X832218Y759931D1*
X839462Y738031D1*
Y716131D1*
X832218Y694399D1*
X824806Y687155D1*
X810318Y679743D1*
X686330Y828889D2*
X839462Y887177D1*
X686330Y945465D1*
X938962Y548840D2*
Y476065D1*
X1004493Y468821D1*
X997250Y476065D1*
X989837Y497965D1*
Y519696D1*
X997250Y541596D1*
X1011737Y556252D1*
X1033637Y563496D1*
X1048125D1*
X1070025Y556252D1*
X1084681Y541596D1*
X1091925Y519696D1*
Y497964D1*
X1084681Y476065D1*
X1077269Y468821D1*
X1062781Y461408D1*
X1077269Y617798D2*
X1084681Y610555D1*
X1091925Y617798D1*
X1084681Y625211D1*
X1077269Y617798D1*
X938962Y716070D2*
X946206Y694170D1*
X968106Y679514D1*
X1004494Y672270D1*
X1026394D1*
X1062781Y679513D1*
X1084681Y694170D1*
X1091925Y716070D1*
Y730557D1*
X1084681Y752457D1*
X1062781Y766945D1*
X1026394Y774357D1*
X1004494D1*
X968106Y766945D1*
X946206Y752457D1*
X938962Y730557D1*
Y716070D1*
X968106Y766945D2*
X1062781Y679513D1*
X938794Y821416D2*
X1091925Y879704D1*
X938794Y937991D1*
X5337094Y3991255D2*
Y4056787D1*
X5329682Y4078686D1*
X5322438Y4086099D1*
X5307950Y4093343D1*
X5293294D1*
X5278806Y4086099D1*
X5271394Y4078687D1*
X5264150Y4056787D1*
Y3991255D1*
X5417282D1*
X5337094Y4042299D2*
X5417282Y4093342D1*
X5315194Y4140401D2*
X5417282Y4220589D1*
X5315194D2*
X5417282Y4140401D1*
X2531377Y5691342D2*
Y5756873D1*
X2523965Y5778773D1*
X2516721Y5786185D1*
X2502234Y5793429D1*
X2487577D1*
X2473090Y5786185D1*
X2465677Y5778773D1*
X2458434Y5756873D1*
X2458433Y5691342D1*
X2611565D1*
X2531377Y5742386D2*
X2611565Y5793429D1*
X2480334Y5942576D2*
X2465677Y5928088D1*
X2458434Y5906188D1*
Y5877044D1*
X2465677Y5855144D1*
X2480334Y5840488D1*
X2494821D1*
X2509477Y5847900D1*
X2516721Y5855144D1*
X2523965Y5869632D1*
X2538621Y5913432D1*
X2545865Y5928088D1*
X2553277Y5935332D1*
X2567765Y5942576D1*
X2589665D1*
X2604153Y5928088D1*
X2611565Y5906188D1*
Y5877044D1*
X2604153Y5855144D1*
X2589665Y5840488D1*
X2494990Y6145183D2*
X2487746D1*
X2473090Y6152426D1*
X2465846Y6159670D1*
X2458602Y6174326D1*
Y6203470D1*
X2465846Y6217958D1*
X2473090Y6225202D1*
X2487746Y6232614D1*
X2502234D1*
X2516890Y6225202D1*
X2538621Y6210714D1*
X2611565Y6137770D1*
Y6239858D1*
X2458602Y6301573D2*
Y6381592D1*
X2516890Y6337961D1*
Y6359861D1*
X2524133Y6374348D1*
X2531377Y6381592D1*
X2553277Y6389004D1*
X2567765D1*
X2589665Y6381592D1*
X2604321Y6367104D1*
X2611565Y6345204D1*
Y6323304D1*
X2604321Y6301573D1*
X2596909Y6294329D1*
X2582421Y6286917D1*
X2494990Y6443476D2*
X2487746D1*
X2473090Y6450719D1*
X2465846Y6457963D1*
X2458602Y6472619D1*
Y6501763D1*
X2465846Y6516251D1*
X2473090Y6523495D1*
X2487746Y6530907D1*
X2502233D1*
X2516890Y6523495D1*
X2538621Y6509007D1*
X2611565Y6436063D1*
Y6538151D1*
X3203467Y5683375D2*
Y5748907D1*
X3196055Y5770806D1*
X3188811Y5778219D1*
X3174324Y5785463D1*
X3159667D1*
X3145180Y5778219D1*
X3137767Y5770807D1*
X3130524Y5748907D1*
X3130523Y5683375D1*
X3283655D1*
X3203467Y5734419D2*
X3283655Y5785462D1*
X3152424Y5934609D2*
X3137767Y5920121D1*
X3130524Y5898221D1*
Y5869078D1*
X3137767Y5847178D1*
X3152424Y5832521D1*
X3166911D1*
X3181567Y5839934D1*
X3188811Y5847178D1*
X3196055Y5861665D1*
X3210711Y5905465D1*
X3217955Y5920121D1*
X3225367Y5927365D1*
X3239855Y5934609D1*
X3261755D1*
X3276243Y5920121D1*
X3283655Y5898221D1*
Y5869077D1*
X3276243Y5847177D1*
X3261755Y5832521D1*
X3283655Y6202747D2*
X3130692D1*
X3232611Y6129804D1*
Y6239135D1*
X3130692Y6322582D2*
X3137936Y6300850D1*
X3152424Y6293438D1*
X3167080D1*
X3181567Y6300850D1*
X3188980Y6315338D1*
X3196223Y6344482D1*
X3203467Y6366382D1*
X3218123Y6380869D1*
X3232611Y6388113D1*
X3254511D1*
X3268999Y6380869D1*
X3276411Y6373625D1*
X3283655Y6351725D1*
Y6322582D1*
X3276411Y6300850D1*
X3268999Y6293438D1*
X3254511Y6286194D1*
X3232611D1*
X3218123Y6293438D1*
X3203467Y6308094D1*
X3196223Y6329825D1*
X3188980Y6358969D1*
X3181567Y6373625D1*
X3167080Y6380869D1*
X3152424D1*
X3137936Y6373625D1*
X3130692Y6351725D1*
Y6322582D1*
Y6522603D2*
Y6449828D1*
X3196223Y6442584D1*
X3188980Y6449828D1*
X3181567Y6471728D1*
Y6493460D1*
X3188980Y6515360D1*
X3203467Y6530016D1*
X3225367Y6537260D1*
X3239855D1*
X3261755Y6530016D1*
X3276411Y6515360D1*
X3283655Y6493460D1*
Y6471728D1*
X3276411Y6449828D1*
X3268999Y6442584D1*
X3254511Y6435172D1*
X6828081Y5692045D2*
D69*
X6808764Y5682387D1*
X6789222Y5662845D1*
X6779564Y5643528D1*
Y5604670D1*
X6789222Y5585128D1*
X6808763Y5565811D1*
X6828080Y5555928D1*
X6857280Y5546270D1*
X6906022D1*
X6934997Y5555928D1*
X6954539Y5565811D1*
X6973856Y5585128D1*
X6983739Y5604670D1*
Y5643528D1*
X6973856Y5662845D1*
X6954539Y5682387D1*
X6934997Y5692045D1*
X6906022D1*
Y5643528D1*
X6779564Y5890907D2*
X6983739D1*
X6779564Y5754790D1*
X6983739D1*
X6779564Y5953652D2*
X6983739D1*
Y6021711D1*
X6973856Y6050911D1*
X6954539Y6070452D1*
X6934997Y6080111D1*
X6906022Y6089769D1*
X6857280D1*
X6828080Y6080111D1*
X6808764Y6070452D1*
X6789222Y6050911D1*
X6779564Y6021711D1*
Y5953652D1*
X5629865Y5531680D2*
Y5619055D1*
X5619982Y5648255D1*
X5610324Y5658138D1*
X5591007Y5667797D1*
X5571465D1*
X5552148Y5658138D1*
X5542265Y5648255D1*
X5532607Y5619055D1*
Y5531680D1*
X5736782D1*
X5629865Y5599738D2*
X5736782Y5667797D1*
X5532607Y5730542D2*
X5736782Y5866659D1*
X5532607D2*
X5736782Y5730542D1*
X5547319Y6016779D2*
X5722295D1*
X5634919Y5929404D2*
Y6104379D1*
X6165580Y5612565D2*
X6369756D1*
X6165580Y5544507D2*
Y5680623D1*
Y5743369D2*
X6369756Y5879485D1*
X6165580D2*
X6369756Y5743368D1*
X6267780Y5942230D2*
Y6054538D1*
X5963202Y5563780D2*
Y5651155D1*
X5953319Y5680355D1*
X5943661Y5690238D1*
X5924344Y5699897D1*
X5904802D1*
X5885485Y5690238D1*
X5875602Y5680355D1*
X5865944Y5651155D1*
X5865943Y5563780D1*
X6070119D1*
X5963202Y5631838D2*
X6070119Y5699897D1*
X5865944Y5762642D2*
X6070119Y5898759D1*
X5865944D2*
X6070119Y5762642D1*
X5968144Y5961504D2*
Y6073811D1*
X6475587Y5621342D2*
X6679762D1*
X6475587Y5553283D2*
Y5689400D1*
Y5752145D2*
X6679762Y5888262D1*
X6475587D2*
X6679762Y5752145D1*
X6490299Y6038382D2*
X6665275D1*
X6577899Y5951007D2*
Y6125982D1*
X579201Y5845679D2*
X559884Y5836020D1*
X540342Y5816479D1*
X530684Y5797162D1*
Y5758303D1*
X540342Y5738762D1*
X559883Y5719445D1*
X579200Y5709562D1*
X608400Y5699903D1*
X657142D1*
X686117Y5709562D1*
X705659Y5719445D1*
X724976Y5738762D1*
X734859Y5758303D1*
Y5797162D1*
X724976Y5816478D1*
X705659Y5836020D1*
X686117Y5845678D1*
X657142Y5845679D1*
Y5797162D1*
X530684Y6044540D2*
X734859D1*
X530684Y5908424D1*
X734859Y5908423D1*
X530684Y6107286D2*
X734859Y6107285D1*
Y6175344D1*
X724976Y6204544D1*
X705659Y6224085D1*
X686117Y6233744D1*
X657142Y6243402D1*
X608400D1*
X579200Y6233744D1*
X559884Y6224086D1*
X540342Y6204544D1*
X530684Y6175344D1*
Y6107286D1*
X-21085Y5895243D2*
Y5982619D1*
X-30968Y6011819D1*
X-40626Y6021702D1*
X-59943Y6031360D1*
X-79485D1*
X-98802Y6021702D1*
X-108685Y6011819D1*
X-118343Y5982619D1*
Y5895243D1*
X85832D1*
X-21085Y5963302D2*
X85832Y6031360D1*
X-118343Y6094105D2*
X85832Y6230222D1*
X-118343D2*
X85832Y6094105D1*
X211397Y5960578D2*
X415572D1*
X211397Y5892520D2*
Y6028637D1*
Y6091382D2*
X415572Y6227499D1*
X211397D2*
X415572Y6091382D1*
X4622619Y2495572D2*
D70*
Y2648535D1*
X4549675Y2546616D1*
X4659006D1*
X4742453Y2648535D2*
X4720721Y2641291D1*
X4713309Y2626803D1*
Y2612147D1*
X4720721Y2597659D1*
X4735209Y2590247D1*
X4764353Y2583003D1*
X4786253Y2575759D1*
X4800740Y2561103D1*
X4807984Y2546616D1*
Y2524716D1*
X4800740Y2510228D1*
X4793497Y2502816D1*
X4771597Y2495572D1*
X4742453D1*
X4720721Y2502816D1*
X4713309Y2510228D1*
X4706065Y2524716D1*
Y2546616D1*
X4713309Y2561103D1*
X4727965Y2575759D1*
X4749697Y2583003D1*
X4778840Y2590247D1*
X4793497Y2597659D1*
X4800740Y2612147D1*
Y2626803D1*
X4793497Y2641291D1*
X4771597Y2648535D1*
X4742453D1*
X4942475D2*
X4869699D1*
X4862455Y2583003D1*
X4869699Y2590247D1*
X4891599Y2597659D1*
X4913331D1*
X4935231Y2590247D1*
X4949887Y2575759D1*
X4957131Y2553859D1*
Y2539372D1*
X4949887Y2517472D1*
X4935231Y2502816D1*
X4913331Y2495572D1*
X4891599D1*
X4869699Y2502816D1*
X4862455Y2510228D1*
X4855043Y2524716D1*
X4557087Y2326397D2*
Y2333641D1*
X4564331Y2348297D1*
X4571575Y2355541D1*
X4586231Y2362785D1*
X4615375D1*
X4629862Y2355541D1*
X4637106Y2348297D1*
X4644519Y2333641D1*
Y2319153D1*
X4637106Y2304497D1*
X4622619Y2282766D1*
X4549675Y2209822D1*
X4651762D1*
X4713477Y2362785D2*
X4793497D1*
X4749865Y2304497D1*
X4771765D1*
X4786253Y2297253D1*
X4793497Y2290009D1*
X4800909Y2268109D1*
Y2253622D1*
X4793497Y2231722D1*
X4779009Y2217066D1*
X4757109Y2209822D1*
X4735209D1*
X4713477Y2217066D1*
X4706234Y2224478D1*
X4698821Y2238966D1*
X4855380Y2326397D2*
Y2333641D1*
X4862624Y2348297D1*
X4869868Y2355541D1*
X4884524Y2362785D1*
X4913668D1*
X4928155Y2355541D1*
X4935399Y2348297D1*
X4942812Y2333641D1*
Y2319153D1*
X4935399Y2304497D1*
X4920912Y2282766D1*
X4847968Y2209822D1*
X4950055D1*
X5268543Y3660542D2*
X5421675D1*
X5268543Y3609498D2*
X5268544Y3711586D1*
X5319587Y3758645D2*
X5421675Y3838832D1*
X5319587D2*
X5421675Y3758645D1*
X271261Y4688424D2*
Y4754124D1*
X264017Y4775856D1*
X256605Y4783268D1*
X242117Y4790512D1*
X220217D1*
X205730Y4783268D1*
X198317Y4775856D1*
X191074Y4754124D1*
X191073Y4688424D1*
X344205D1*
X191242Y4873958D2*
X198486Y4852227D1*
X212974Y4844815D1*
X227630D1*
X242117Y4852227D1*
X249530Y4866715D1*
X256774Y4895858D1*
X264017Y4917758D1*
X278674Y4932246D1*
X293161Y4939490D1*
X315061D1*
X329549Y4932246D1*
X336961Y4925002D1*
X344205Y4903102D1*
Y4873958D1*
X336961Y4852227D1*
X329549Y4844814D1*
X315061Y4837571D1*
X293161D1*
X278674Y4844815D1*
X264017Y4859471D1*
X256774Y4881202D1*
X249530Y4910346D1*
X242117Y4925002D1*
X227630Y4932246D1*
X212974D1*
X198486Y4925002D1*
X191242Y4903102D1*
Y4873958D1*
X6323042Y4689197D2*
Y4754897D1*
X6315798Y4776628D1*
X6308386Y4784041D1*
X6293898Y4791284D1*
X6271998D1*
X6257511Y4784041D1*
X6250098Y4776628D1*
X6242854Y4754897D1*
Y4689197D1*
X6395986D1*
X6243023Y4874731D2*
X6250267Y4852999D1*
X6264754Y4845587D1*
X6279411D1*
X6293898Y4852999D1*
X6301311Y4867487D1*
X6308554Y4896631D1*
X6315798Y4918531D1*
X6330454Y4933018D1*
X6344942Y4940262D1*
X6366842D1*
X6381330Y4933018D1*
X6388742Y4925775D1*
X6395986Y4903875D1*
Y4874731D1*
X6388742Y4852999D1*
X6381330Y4845587D1*
X6366842Y4838343D1*
X6344942D1*
X6330454Y4845587D1*
X6315798Y4860243D1*
X6308554Y4881975D1*
X6301311Y4911118D1*
X6293898Y4925775D1*
X6279411Y4933018D1*
X6264754D1*
X6250267Y4925775D1*
X6243023Y4903875D1*
Y4874731D1*
X448039Y4527000D2*
X440627Y4541656D1*
X418895Y4563556D1*
X571858D1*
X3003734Y4385345D2*
X2996490D1*
X2981834Y4392589D1*
X2974590Y4399833D1*
X2967346Y4414489D1*
Y4443633D1*
X2974590Y4458121D1*
X2981834Y4465364D1*
X2996490Y4472777D1*
X3010978D1*
X3025634Y4465364D1*
X3047366Y4450877D1*
X3120309Y4377933D1*
Y4480020D1*
X2996490Y4527079D2*
X2989078Y4541736D1*
X2967346Y4563636D1*
X3120309Y4563635D1*
X5668761Y4443925D2*
X5515797Y4443926D1*
X5617717Y4370982D1*
Y4480313D1*
X5544941Y4527372D2*
X5537529Y4542028D1*
X5515797Y4563928D1*
X5668760D1*
X450030Y264691D2*
X442786D1*
X428130Y271935D1*
X420886Y279179D1*
X413642Y293835D1*
Y322979D1*
X420886Y337466D1*
X428130Y344710D1*
X442786Y352123D1*
X457274D1*
X471930Y344710D1*
X493661Y330223D1*
X566605Y257279D1*
Y359366D1*
X2987440Y264691D2*
X2980196D1*
X2965540Y271935D1*
X2958296Y279179D1*
X2951052Y293835D1*
Y322979D1*
X2958296Y337466D1*
X2965540Y344710D1*
X2980196Y352123D1*
X2994683D1*
X3009340Y344710D1*
X3031071Y330223D1*
X3104015Y257279D1*
Y359366D1*
X2987440Y413837D2*
X2980196D1*
X2965540Y421081D1*
X2958296Y428325D1*
X2951052Y442981D1*
Y472125D1*
X2958296Y486613D1*
X2965540Y493857D1*
X2980196Y501269D1*
X2994684D1*
X3009340Y493857D1*
X3031071Y479369D1*
X3104015Y406425D1*
Y508513D1*
X5647272Y330222D2*
X5494308Y330223D1*
X5596228Y257279D1*
Y366610D1*
X5530696Y421081D2*
X5523452D1*
X5508796Y428325D1*
X5501552Y435569D1*
X5494308Y450225D1*
Y479369D1*
X5501552Y493857D1*
X5508796Y501100D1*
X5523452Y508513D1*
X5537940D1*
X5552596Y501100D1*
X5574328Y486613D1*
X5647272Y413669D1*
X5647271Y515757D1*
M02*
