G04 DipTrace 3.3.1.3*
G04 HypermaqBottomsidev0.3.gbs*
%MOMM*%
G04 #@! TF.FileFunction,Soldermask,Bot*
G04 #@! TF.Part,Single*
%ADD61O,2.0X1.7*%
%ADD62R,2.0X1.7*%
%ADD65C,1.87967*%
%ADD67O,1.5X2.0*%
%ADD68R,1.87967X1.87967*%
%ADD92R,1.8796X1.8796*%
%ADD93C,2.159*%
%ADD94C,3.2*%
%ADD95C,3.0*%
%ADD113O,2.20015X3.20015*%
%ADD115R,2.20015X3.20015*%
%ADD129C,1.90015*%
%ADD131R,1.90015X1.90015*%
%ADD145O,2.20015X1.90015*%
%ADD147O,1.00015X1.55015*%
%ADD149C,1.10015*%
%ADD151R,2.70015X2.70015*%
%ADD153C,2.70015*%
%ADD155R,1.90015X2.20015*%
%ADD157O,1.90015X2.20015*%
%ADD161C,2.20015*%
%FSLAX35Y35*%
G04*
G71*
G90*
G75*
G01*
G04 BotMask*
%LPD*%
D161*
X4635500Y2127250D3*
X6572250Y1095377D3*
X6365873Y8556627D3*
X2746373Y5175250D3*
X4778373Y7683500D3*
D94*
X1000000Y9500000D3*
X11500000D3*
Y1000000D3*
X1000000D3*
D157*
X3687373Y6671873D3*
X3941373D3*
X4195373D3*
D155*
X4449373D3*
D153*
X7619990Y1158870D3*
D151*
X7269990D3*
D153*
X626733Y4174017D3*
Y4524017D3*
Y4874017D3*
D151*
Y5224017D3*
D153*
X642610Y1794263D3*
Y2144263D3*
Y2494263D3*
D151*
Y2844263D3*
D153*
X1841500Y9001127D3*
X2191500D3*
D151*
X2541500D3*
D149*
X2476500Y6223010D3*
D147*
X2964000Y6245010D3*
D149*
X2671500Y6323010D3*
X2606500Y6223010D3*
X2736500D3*
X2541500Y6323010D3*
D147*
X2249500Y6245010D3*
D145*
X5179623Y3052377D3*
D61*
Y3306377D3*
D62*
Y3560377D3*
D65*
X7041500Y3252247D3*
X6787500Y3277647D3*
X6533500Y3252247D3*
X6279500Y3277647D3*
X6025500Y3252247D3*
X5771500Y3277647D3*
D67*
X5461000Y9302750D3*
X5588000Y9556750D3*
X5715000Y9302750D3*
X5969000D3*
X6223000D3*
X5842000Y9556750D3*
X6096000D3*
D68*
X6350000D3*
D94*
X6477000Y10191750D3*
X5334000D3*
D153*
X607623Y6290860D3*
Y6640860D3*
D151*
Y6990860D3*
D153*
X3602877Y9859127D3*
X3952877D3*
D151*
X4302877D3*
D153*
X7270373Y9842877D3*
D151*
X7620373D3*
D161*
X4841873Y9874250D3*
X4445000Y9096377D3*
D131*
X7338623Y3004750D3*
D129*
Y3258750D3*
X7592623Y3004750D3*
Y3258750D3*
X7846623Y3004750D3*
Y3258750D3*
X8100623Y3004750D3*
Y3258750D3*
D161*
X5751127Y3703247D3*
X6195623Y5258997D3*
X5649750Y5852250D3*
D115*
X8175623Y6667500D3*
D113*
X7921623D3*
X7667623D3*
D92*
X10096500Y8461434D3*
D93*
X10350470Y8448754D3*
X10604470Y8474154D3*
X10858470Y8448754D3*
X11112470Y8474154D3*
X11366470Y8461434D3*
D92*
X11364270Y4463854D3*
D93*
X11110370Y4476554D3*
X10856370Y4451154D3*
X10602370Y4476554D3*
X10348370Y4451154D3*
X10094340Y4463854D3*
D95*
X11880670Y4312854D3*
X9580670Y8612854D3*
M02*
