G04 DipTrace 3.3.1.3*
G04 HypermaqBottomsidev0.3.gtp*
%MOMM*%
G04 #@! TF.FileFunction,Paste,Top*
G04 #@! TF.Part,Single*
%AMOUTLINE2*
4,1,4,
0.24992,-0.34992,
-0.24992,-0.34992,
-0.24992,0.34992,
0.24992,0.34992,
0.24992,-0.34992,
0*%
%AMOUTLINE5*
4,1,4,
-0.34992,-0.24992,
-0.34992,0.24992,
0.34992,0.24992,
0.34992,-0.24992,
-0.34992,-0.24992,
0*%
%AMOUTLINE8*
4,1,4,
0.79992,-0.39992,
-0.79992,-0.39992,
-0.79992,0.39992,
0.79992,0.39992,
0.79992,-0.39992,
0*%
%AMOUTLINE11*
4,1,4,
-0.91914,-0.28283,
0.28283,0.91914,
0.91914,0.28283,
-0.28283,-0.91914,
-0.91914,-0.28283,
0*%
%ADD46R,1.8X1.6*%
%ADD48R,0.8X0.8*%
%ADD76R,1.5X0.5*%
%ADD77R,0.5X1.5*%
%ADD82O,1.2X2.5*%
%ADD89O,2.5X1.2*%
%ADD110R,3.04985X1.94985*%
%ADD112R,0.74985X1.94985*%
%ADD120R,5.34985X5.44985*%
%ADD122R,0.79985X1.89985*%
%ADD128R,0.39985X1.79985*%
%ADD134R,0.79985X0.59985*%
%ADD136R,0.79985X0.39985*%
%ADD166R,1.39985X1.59985*%
%ADD168R,0.59985X0.99985*%
%ADD170R,0.69985X0.49985*%
%ADD172R,0.49985X0.69985*%
%ADD174R,0.99985X0.59985*%
%ADD176R,0.89985X0.79985*%
%ADD178R,0.79985X0.89985*%
%ADD185OUTLINE2*%
%ADD188OUTLINE5*%
%ADD191OUTLINE8*%
%ADD194OUTLINE11*%
%FSLAX35Y35*%
G04*
G71*
G90*
G75*
G01*
G04 TopPaste*
%LPD*%
D178*
X3036567Y3306330D3*
Y3136330D3*
X3074567Y7049210D3*
Y6879210D3*
X2206690Y7365957D3*
Y7195957D3*
D176*
X2745667Y7054313D3*
X2915667D3*
X2206667Y8143943D3*
X2376667D3*
D178*
X2505690Y7049210D3*
Y6879210D3*
D176*
X2555830Y3211430D3*
X2385830D3*
D178*
X2861807Y3115920D3*
Y3285920D3*
X2153057Y3840543D3*
Y4010543D3*
D174*
X5481000Y3237620D3*
Y3057620D3*
D178*
X2163440Y3639703D3*
Y3469703D3*
X5983690Y5978957D3*
Y5808957D3*
D176*
X6306707Y5671683D3*
X6136707D3*
D172*
X5036750Y5798750D3*
X5166750D3*
D170*
X6116250Y5020877D3*
Y4890877D3*
D172*
X5159373Y3984627D3*
X5289373D3*
D168*
X4396753Y4846250D3*
X4216753D3*
D166*
X8737000Y6508750D3*
X9017000D3*
D174*
X8006250Y4741377D3*
Y4561377D3*
D178*
X4403000Y2513877D3*
Y2343877D3*
X7842183Y5032420D3*
Y5202420D3*
D176*
X7254830Y5095807D3*
X7084830D3*
X3671457Y3004680D3*
X3501457D3*
D178*
X6492940Y7445330D3*
Y7275330D3*
X5508557Y7524793D3*
Y7694793D3*
X2237053Y1991180D3*
Y1821180D3*
X3651250Y1793877D3*
Y1963877D3*
D174*
X7096123Y6794500D3*
Y6614500D3*
D46*
X6572250Y1571627D3*
Y1291627D3*
D48*
X4497000Y3893753D3*
Y4043753D3*
D176*
X1984373Y8318500D3*
X1814373D3*
D178*
X3026500Y8471627D3*
Y8641627D3*
D176*
X1993753Y4227120D3*
X1823753D3*
X2009623Y4512873D3*
X1839623D3*
X2429753Y2429997D3*
X2259753D3*
X2429753Y2790000D3*
X2259753D3*
X1608377Y6318250D3*
X1438377D3*
X1612753Y6640123D3*
X1442753D3*
D48*
X5195500Y6195623D3*
Y6045623D3*
X7901373Y3798500D3*
X7751373D3*
X6143623Y4318003D3*
X5993623D3*
D172*
X5449500Y3592123D3*
X5579500D3*
D170*
X5419750Y3992250D3*
Y3862250D3*
D172*
X6699750Y3602250D3*
X6829750D3*
X6259123Y4116000D3*
X6129123D3*
X6402000Y3782623D3*
X6272000D3*
D170*
X3893753Y6973500D3*
Y7103500D3*
X4109750Y6982250D3*
Y7112250D3*
D178*
X5036750Y6048623D3*
Y6218623D3*
D170*
X4671623Y3992000D3*
Y3862000D3*
X7921627Y4095750D3*
Y3965750D3*
D185*
X6397623Y5889627D3*
X6527623D3*
D188*
X6546377Y5051123D3*
Y5181123D3*
D172*
X6848000Y5117623D3*
X6718000D3*
D136*
X4116000Y4004877D3*
X3676000D3*
Y3634877D3*
X4116000D3*
D134*
X3896000Y4079877D3*
Y3559877D3*
D191*
X6544873Y5719377D3*
X6934873Y5544377D3*
X6544873Y5369377D3*
D48*
X6207123Y3937000D3*
X6057123D3*
D128*
X2385627Y7306877D3*
X2512627D3*
X2639627D3*
X2766627D3*
X2893627D3*
X3020627D3*
X3147627D3*
X3274627D3*
Y7846877D3*
X3147627D3*
X3020627D3*
X2893627D3*
X2766627D3*
X2639627D3*
X2512627D3*
X2385627D3*
Y3528627D3*
X2512627D3*
X2639627D3*
X2766627D3*
X2893627D3*
X3020627D3*
X3147627D3*
X3274627D3*
Y4068627D3*
X3147627D3*
X3020627D3*
X2893627D3*
X2766627D3*
X2639627D3*
X2512627D3*
X2385627D3*
D76*
X4626753Y5286250D3*
Y5206250D3*
Y5126250D3*
Y5046250D3*
Y4966250D3*
Y4886250D3*
Y4806250D3*
Y4726250D3*
Y4646250D3*
Y4566250D3*
Y4486250D3*
D77*
X4806753Y4306250D3*
X4886753D3*
X4966753D3*
X5046753D3*
X5126753D3*
X5206753D3*
X5286753D3*
X5366753D3*
X5446753D3*
X5526753D3*
X5606753D3*
D76*
X5786753Y4486250D3*
Y4566250D3*
Y4646250D3*
Y4726250D3*
Y4806250D3*
Y4886250D3*
Y4966250D3*
Y5046250D3*
Y5126250D3*
Y5206250D3*
Y5286250D3*
D77*
X5606753Y5466250D3*
X5526753D3*
X5446753D3*
X5366753D3*
X5286753D3*
X5206753D3*
X5126753D3*
X5046753D3*
X4966753D3*
X4886753D3*
X4806753D3*
D122*
X3175000Y2206627D3*
X2715000D3*
D120*
X2945000Y1481627D3*
D82*
X4175270Y1801340D3*
X4375270D3*
D112*
X7699373Y4810127D3*
X7469373D3*
X7239373D3*
D110*
X7469373Y4230127D3*
D112*
X4191000Y2825750D3*
X3961000D3*
X3731000D3*
D110*
X3961000Y2245750D3*
D89*
X4973253Y7116380D3*
Y6959080D3*
Y7273680D3*
D112*
X6227250Y7517000D3*
X5997250D3*
X5767250D3*
D110*
X5997250Y6937000D3*
D194*
X5826123Y5669527D3*
X6002900Y5492750D3*
M02*
