M48
METRIC,0000.00
T01C0.4
T02C0.762
T03C0.9
T04C1.0
T05C1.016
T06C1.1
T07C1.4
T08C3.0
T09C3.2
%
T01
X+002477Y+006223
X+002542Y+006323
X+002607Y+006223
X+002672Y+006323
X+002737Y+006223
X+002964Y+006210G85X+002964Y+006280
X+002250Y+006210G85X+002250Y+006280
T02
X+005620Y+003048
X+005291Y+003863
X+005100Y+004116
X+004751Y+004100
X+004450Y+004594
X+004257Y+004631
X+004052Y+004783
X+003941Y+004926
X+003941Y+005338
X+004212Y+005582
X+004365Y+005582
X+004465Y+005926
X+005037Y+005926
X+005180Y+005688
X+005005Y+005640
X+005255Y+005286
X+004953Y+005128
X+004953Y+004667
X+005429Y+004667
X+005602Y+004966
X+006005Y+005021
X+006287Y+005794
X+005858Y+006001
X+005624Y+006132
X+006005Y+006672
X+005727Y+006927
X+006005Y+007132
X+006277Y+006937
X+006477Y+007096
X+006001Y+007715
X+005461Y+007826
X+005413Y+007144
X+004826Y+007116
X+004005Y+007103
X+003524Y+007565
X+003044Y+008045
X+002985Y+008223
X+002508Y+008223
X+002540Y+008049
X+002096Y+008144
X+002619Y+006890
X+002969Y+006874
X+002953Y+006398
X+003508Y+006636
X+003508Y+005794
X+003270Y+005429
X+002286Y+005620
X+001445Y+005969
X+002508Y+004223
X+002048Y+003842
X+002159Y+003350
X+002751Y+002782
X+003032Y+003032
X+003132Y+002782
X+003508Y+002905
X+003969Y+003016
X+003973Y+002386
X+004207Y+002238
X+004397Y+002191
X+003715Y+002238
X+003651Y+001683
X+003413Y+001556
X+002556Y+001556
X+002223Y+001699
X+003735Y+003735
X+006509Y+003794
X+006580Y+003612
X+006774Y+004489
X+007238Y+004274
X+007461Y+004509
X+007763Y+004270
X+007922Y+004223
X+007938Y+004477
X+007473Y+004044
X+007493Y+005032
X+007842Y+005302
X+006953Y+005096
X+007096Y+006445
X+009176Y+006509
X+007493Y+008525
X+005738Y+009049
X+004159Y+008461
X+004143Y+008080
X+004413Y+008001
X+002302Y+009541
T03
X+004636Y+002127
X+005180Y+003052
X+005180Y+003306
X+005180Y+003560
X+005751Y+003703
X+006196Y+005259
X+005650Y+005852
X+004449Y+006672
X+004195Y+006672
X+003941Y+006672
X+003687Y+006672
X+004778Y+007683
X+004445Y+009096
X+004842Y+009874
X+006366Y+008557
X+002746Y+005175
X+006572Y+001095
T04
X+005461Y+009303
X+005715Y+009303
X+005969Y+009303
X+006223Y+009303
X+006096Y+009557
X+005842Y+009557
X+005588Y+009557
X+006350Y+009557
X+007668Y+006667
X+007922Y+006667
X+008176Y+006667
T05
X+007042Y+003252
X+006788Y+003278
X+006534Y+003252
X+006280Y+003278
X+006025Y+003252
X+005772Y+003278
X+010094Y+004464
X+010348Y+004451
X+010602Y+004477
X+010856Y+004451
X+011110Y+004477
X+011364Y+004464
X+011366Y+008461
X+011112Y+008474
X+010858Y+008449
X+010604Y+008474
X+010350Y+008449
X+010096Y+008461
T06
X+007339Y+003005
X+007339Y+003259
X+007593Y+003259
X+007593Y+003005
X+007847Y+003005
X+007847Y+003259
X+008101Y+003259
X+008101Y+003005
T07
X+007620Y+001159
X+007270Y+001159
X+000643Y+001794
X+000643Y+002144
X+000643Y+002494
X+000643Y+002844
X+000627Y+004174
X+000627Y+004524
X+000627Y+004874
X+000627Y+005224
X+000608Y+006291
X+000608Y+006641
X+000608Y+006991
X+001841Y+009001
X+002191Y+009001
X+002541Y+009001
X+003603Y+009859
X+003953Y+009859
X+004303Y+009859
X+007270Y+009843
X+007620Y+009843
T08
X+011881Y+004313
X+009581Y+008613
T09
X+001000Y+009500
X+005334Y+010192
X+006477Y+010192
X+011500Y+009500
X+011500Y+001000
X+001000Y+001000
T00
M30
