G04 DipTrace 3.3.1.3*
G04 HypermaqBottomsidev0.3.gbo*
%MOMM*%
G04 #@! TF.FileFunction,Legend,Bot*
G04 #@! TF.Part,Single*
%ADD13C,0.035*%
%ADD180C,0.31373*%
%FSLAX35Y35*%
G04*
G71*
G90*
G75*
G01*
G04 BotSilk*
%LPD*%
X1000000Y9500000D2*
D13*
Y8483625D1*
X11500000Y9500000D2*
Y8483625D1*
X6250000Y8683625D2*
X1400000D1*
G36*
X1000000D2*
X1400000Y8763625D1*
Y8603625D1*
X1000000Y8683625D1*
G37*
X6250000D2*
D13*
X11100000D1*
G36*
X11500000D2*
X11100000Y8603625D1*
Y8763625D1*
X11500000Y8683625D1*
G37*
X1000000Y1000000D2*
D13*
X260375D1*
X1000000Y9500000D2*
X260375D1*
X460375Y5250000D2*
Y1400000D1*
G36*
Y1000000D2*
X380375Y1400000D1*
X540375D1*
X460375Y1000000D1*
G37*
Y5250000D2*
D13*
Y9100000D1*
G36*
Y9500000D2*
X540375Y9100000D1*
X380375D1*
X460375Y9500000D1*
G37*
X6864480Y8910748D2*
D180*
X6844938Y8920631D1*
X6815738Y8949606D1*
Y8745656D1*
X6694593Y8949606D2*
X6723793Y8939948D1*
X6743335Y8910748D1*
X6752993Y8862231D1*
Y8833031D1*
X6743335Y8784514D1*
X6723793Y8755314D1*
X6694593Y8745656D1*
X6675276D1*
X6646076Y8755314D1*
X6626759Y8784514D1*
X6616876Y8833031D1*
Y8862231D1*
X6626759Y8910748D1*
X6646076Y8939948D1*
X6675276Y8949606D1*
X6694593D1*
X6626759Y8910748D2*
X6743335Y8784514D1*
X6437556Y8949606D2*
X6534590D1*
X6544248Y8862231D1*
X6534590Y8871889D1*
X6505390Y8881773D1*
X6476414D1*
X6447214Y8871889D1*
X6427673Y8852573D1*
X6418014Y8823373D1*
Y8804056D1*
X6427673Y8774856D1*
X6447214Y8755314D1*
X6476414Y8745656D1*
X6505390D1*
X6534590Y8755314D1*
X6544248Y8765197D1*
X6554131Y8784514D1*
X6157755Y8881773D2*
Y8745656D1*
Y8842914D2*
X6128555Y8872114D1*
X6109013Y8881773D1*
X6080038D1*
X6060496Y8872114D1*
X6050838Y8842914D1*
Y8745656D1*
Y8842914D2*
X6021638Y8872114D1*
X6002096Y8881773D1*
X5973121D1*
X5953579Y8872114D1*
X5943696Y8842914D1*
Y8745656D1*
X5880951Y8881773D2*
Y8745656D1*
Y8842914D2*
X5851751Y8872114D1*
X5832210Y8881773D1*
X5803234D1*
X5783693Y8872114D1*
X5774034Y8842914D1*
Y8745656D1*
Y8842914D2*
X5744834Y8872114D1*
X5725293Y8881773D1*
X5696317D1*
X5676776Y8872114D1*
X5666893Y8842914D1*
Y8745656D1*
X194394Y5760107D2*
X204052Y5789083D1*
X223369Y5798966D1*
X242911D1*
X262227Y5789083D1*
X272111Y5769766D1*
X281769Y5730907D1*
X291427Y5701707D1*
X310969Y5682390D1*
X330286Y5672732D1*
X359486D1*
X378803Y5682390D1*
X388686Y5692049D1*
X398344Y5721249D1*
Y5760107D1*
X388686Y5789083D1*
X378803Y5798966D1*
X359486Y5808624D1*
X330286D1*
X310969Y5798966D1*
X291427Y5779424D1*
X281769Y5750449D1*
X272111Y5711590D1*
X262227Y5692049D1*
X242911Y5682390D1*
X223369D1*
X204052Y5692049D1*
X194394Y5721249D1*
Y5760107D1*
Y5493411D2*
Y5590445D1*
X281769Y5600104D1*
X272111Y5590445D1*
X262227Y5561245D1*
Y5532270D1*
X272111Y5503070D1*
X291427Y5483528D1*
X320627Y5473870D1*
X339944D1*
X369144Y5483528D1*
X388686Y5503070D1*
X398344Y5532270D1*
Y5561245D1*
X388686Y5590445D1*
X378803Y5600104D1*
X359486Y5609987D1*
X262227Y5213610D2*
X398344D1*
X301086D2*
X271886Y5184410D1*
X262227Y5164869D1*
Y5135893D1*
X271886Y5116352D1*
X301086Y5106693D1*
X398344D1*
X301086D2*
X271886Y5077493D1*
X262227Y5057952D1*
Y5028977D1*
X271886Y5009435D1*
X301086Y4999552D1*
X398344D1*
X262227Y4936807D2*
X398344D1*
X301086D2*
X271886Y4907607D1*
X262227Y4888065D1*
Y4859090D1*
X271886Y4839548D1*
X301086Y4829890D1*
X398344D1*
X301086D2*
X271886Y4800690D1*
X262227Y4781148D1*
Y4752173D1*
X271886Y4732631D1*
X301086Y4722748D1*
X398344D1*
M02*
