G04 DipTrace 3.3.1.3*
G04 HypermaqBottomsidev0.3.gts*
%MOMM*%
G04 #@! TF.FileFunction,Soldermask,Top*
G04 #@! TF.Part,Single*
%AMOUTLINE1*
4,1,4,
0.45008,-0.55008,
-0.45008,-0.55008,
-0.45008,0.55008,
0.45008,0.55008,
0.45008,-0.55008,
0*%
%AMOUTLINE4*
4,1,4,
-0.55008,-0.45008,
-0.55008,0.45008,
0.55008,0.45008,
0.55008,-0.45008,
-0.55008,-0.45008,
0*%
%AMOUTLINE7*
4,1,4,
1.00008,-0.60008,
-1.00008,-0.60008,
-1.00008,0.60008,
1.00008,0.60008,
1.00008,-0.60008,
0*%
%AMOUTLINE10*
4,1,4,
-1.2022,-0.28283,
0.28283,1.2022,
1.2022,0.28283,
-0.28283,-1.2022,
-1.2022,-0.28283,
0*%
%ADD46R,1.8X1.6*%
%ADD48R,0.8X0.8*%
%ADD61O,2.0X1.7*%
%ADD62R,2.0X1.7*%
%ADD65C,1.87967*%
%ADD67O,1.5X2.0*%
%ADD68R,1.87967X1.87967*%
%ADD76R,1.5X0.5*%
%ADD77R,0.5X1.5*%
%ADD82O,1.2X2.5*%
%ADD89O,2.5X1.2*%
%ADD92R,1.8796X1.8796*%
%ADD93C,2.159*%
%ADD94C,3.2*%
%ADD95C,3.0*%
%ADD109R,3.45015X2.35015*%
%ADD111R,1.15015X2.35015*%
%ADD113O,2.20015X3.20015*%
%ADD115R,2.20015X3.20015*%
%ADD119R,5.75015X5.85015*%
%ADD121R,1.20015X2.30015*%
%ADD127R,0.80015X2.20015*%
%ADD129C,1.90015*%
%ADD131R,1.90015X1.90015*%
%ADD133R,1.20015X1.00015*%
%ADD135R,1.20015X0.80015*%
%ADD145O,2.20015X1.90015*%
%ADD147O,1.00015X1.55015*%
%ADD149C,1.10015*%
%ADD151R,2.70015X2.70015*%
%ADD153C,2.70015*%
%ADD155R,1.90015X2.20015*%
%ADD157O,1.90015X2.20015*%
%ADD161C,2.20015*%
%ADD165R,1.80015X2.00015*%
%ADD167R,1.00015X1.40015*%
%ADD169R,1.10015X0.90015*%
%ADD171R,0.90015X1.10015*%
%ADD173R,1.40015X1.00015*%
%ADD175R,1.30015X1.20015*%
%ADD177R,1.20015X1.30015*%
%ADD184OUTLINE1*%
%ADD187OUTLINE4*%
%ADD190OUTLINE7*%
%ADD193OUTLINE10*%
%FSLAX35Y35*%
G04*
G71*
G90*
G75*
G01*
G04 TopMask*
%LPD*%
D177*
X3036567Y3306330D3*
Y3136330D3*
X3074567Y7049210D3*
Y6879210D3*
X2206690Y7365957D3*
Y7195957D3*
D175*
X2745667Y7054313D3*
X2915667D3*
X2206667Y8143943D3*
X2376667D3*
D177*
X2505690Y7049210D3*
Y6879210D3*
D175*
X2555830Y3211430D3*
X2385830D3*
D177*
X2861807Y3115920D3*
Y3285920D3*
X2153057Y3840543D3*
Y4010543D3*
D173*
X5481000Y3237620D3*
Y3057620D3*
D177*
X2163440Y3639703D3*
Y3469703D3*
X5983690Y5978957D3*
Y5808957D3*
D175*
X6306707Y5671683D3*
X6136707D3*
D171*
X5036750Y5798750D3*
X5166750D3*
D169*
X6116250Y5020877D3*
Y4890877D3*
D171*
X5159373Y3984627D3*
X5289373D3*
D167*
X4396753Y4846250D3*
X4216753D3*
D165*
X8737000Y6508750D3*
X9017000D3*
D173*
X8006250Y4741377D3*
Y4561377D3*
D177*
X4403000Y2513877D3*
Y2343877D3*
X7842183Y5032420D3*
Y5202420D3*
D175*
X7254830Y5095807D3*
X7084830D3*
X3671457Y3004680D3*
X3501457D3*
D177*
X6492940Y7445330D3*
Y7275330D3*
X5508557Y7524793D3*
Y7694793D3*
X2237053Y1991180D3*
Y1821180D3*
X3651250Y1793877D3*
Y1963877D3*
D173*
X7096123Y6794500D3*
Y6614500D3*
D46*
X6572250Y1571627D3*
Y1291627D3*
D161*
X4635500Y2127250D3*
X6572250Y1095377D3*
X6365873Y8556627D3*
X2746373Y5175250D3*
X4778373Y7683500D3*
D48*
X4497000Y3893753D3*
Y4043753D3*
D94*
X1000000Y9500000D3*
X11500000D3*
Y1000000D3*
X1000000D3*
D157*
X3687373Y6671873D3*
X3941373D3*
X4195373D3*
D155*
X4449373D3*
D153*
X7619990Y1158870D3*
D151*
X7269990D3*
D153*
X626733Y4174017D3*
Y4524017D3*
Y4874017D3*
D151*
Y5224017D3*
D153*
X642610Y1794263D3*
Y2144263D3*
Y2494263D3*
D151*
Y2844263D3*
D153*
X1841500Y9001127D3*
X2191500D3*
D151*
X2541500D3*
D149*
X2476500Y6223010D3*
D147*
X2964000Y6245010D3*
D149*
X2671500Y6323010D3*
X2606500Y6223010D3*
X2736500D3*
X2541500Y6323010D3*
D147*
X2249500Y6245010D3*
D145*
X5179623Y3052377D3*
D61*
Y3306377D3*
D62*
Y3560377D3*
D65*
X7041500Y3252247D3*
X6787500Y3277647D3*
X6533500Y3252247D3*
X6279500Y3277647D3*
X6025500Y3252247D3*
X5771500Y3277647D3*
D67*
X5461000Y9302750D3*
X5588000Y9556750D3*
X5715000Y9302750D3*
X5969000D3*
X6223000D3*
X5842000Y9556750D3*
X6096000D3*
D68*
X6350000D3*
D94*
X6477000Y10191750D3*
X5334000D3*
D153*
X607623Y6290860D3*
Y6640860D3*
D151*
Y6990860D3*
D153*
X3602877Y9859127D3*
X3952877D3*
D151*
X4302877D3*
D153*
X7270373Y9842877D3*
D151*
X7620373D3*
D161*
X4841873Y9874250D3*
X4445000Y9096377D3*
D175*
X1984373Y8318500D3*
X1814373D3*
D177*
X3026500Y8471627D3*
Y8641627D3*
D175*
X1993753Y4227120D3*
X1823753D3*
X2009623Y4512873D3*
X1839623D3*
X2429753Y2429997D3*
X2259753D3*
X2429753Y2790000D3*
X2259753D3*
X1608377Y6318250D3*
X1438377D3*
X1612753Y6640123D3*
X1442753D3*
D48*
X5195500Y6195623D3*
Y6045623D3*
X7901373Y3798500D3*
X7751373D3*
X6143623Y4318003D3*
X5993623D3*
D171*
X5449500Y3592123D3*
X5579500D3*
D169*
X5419750Y3992250D3*
Y3862250D3*
D171*
X6699750Y3602250D3*
X6829750D3*
X6259123Y4116000D3*
X6129123D3*
X6402000Y3782623D3*
X6272000D3*
D169*
X3893753Y6973500D3*
Y7103500D3*
X4109750Y6982250D3*
Y7112250D3*
D177*
X5036750Y6048623D3*
Y6218623D3*
D169*
X4671623Y3992000D3*
Y3862000D3*
X7921627Y4095750D3*
Y3965750D3*
D184*
X6397623Y5889627D3*
X6527623D3*
D187*
X6546377Y5051123D3*
Y5181123D3*
D171*
X6848000Y5117623D3*
X6718000D3*
D135*
X4116000Y4004877D3*
X3676000D3*
Y3634877D3*
X4116000D3*
D133*
X3896000Y4079877D3*
Y3559877D3*
D190*
X6544873Y5719377D3*
X6934873Y5544377D3*
X6544873Y5369377D3*
D48*
X6207123Y3937000D3*
X6057123D3*
D131*
X7338623Y3004750D3*
D129*
Y3258750D3*
X7592623Y3004750D3*
Y3258750D3*
X7846623Y3004750D3*
Y3258750D3*
X8100623Y3004750D3*
Y3258750D3*
D161*
X5751127Y3703247D3*
X6195623Y5258997D3*
X5649750Y5852250D3*
D127*
X2385627Y7306877D3*
X2512627D3*
X2639627D3*
X2766627D3*
X2893627D3*
X3020627D3*
X3147627D3*
X3274627D3*
Y7846877D3*
X3147627D3*
X3020627D3*
X2893627D3*
X2766627D3*
X2639627D3*
X2512627D3*
X2385627D3*
Y3528627D3*
X2512627D3*
X2639627D3*
X2766627D3*
X2893627D3*
X3020627D3*
X3147627D3*
X3274627D3*
Y4068627D3*
X3147627D3*
X3020627D3*
X2893627D3*
X2766627D3*
X2639627D3*
X2512627D3*
X2385627D3*
D76*
X4626753Y5286250D3*
Y5206250D3*
Y5126250D3*
Y5046250D3*
Y4966250D3*
Y4886250D3*
Y4806250D3*
Y4726250D3*
Y4646250D3*
Y4566250D3*
Y4486250D3*
D77*
X4806753Y4306250D3*
X4886753D3*
X4966753D3*
X5046753D3*
X5126753D3*
X5206753D3*
X5286753D3*
X5366753D3*
X5446753D3*
X5526753D3*
X5606753D3*
D76*
X5786753Y4486250D3*
Y4566250D3*
Y4646250D3*
Y4726250D3*
Y4806250D3*
Y4886250D3*
Y4966250D3*
Y5046250D3*
Y5126250D3*
Y5206250D3*
Y5286250D3*
D77*
X5606753Y5466250D3*
X5526753D3*
X5446753D3*
X5366753D3*
X5286753D3*
X5206753D3*
X5126753D3*
X5046753D3*
X4966753D3*
X4886753D3*
X4806753D3*
D121*
X3175000Y2206627D3*
X2715000D3*
D119*
X2945000Y1481627D3*
D82*
X4175270Y1801340D3*
X4375270D3*
D115*
X8175623Y6667500D3*
D113*
X7921623D3*
X7667623D3*
D111*
X7699373Y4810127D3*
X7469373D3*
X7239373D3*
D109*
X7469373Y4230127D3*
D111*
X4191000Y2825750D3*
X3961000D3*
X3731000D3*
D109*
X3961000Y2245750D3*
D89*
X4973253Y7116380D3*
Y6959080D3*
Y7273680D3*
D92*
X10096500Y8461424D3*
D93*
X10350470Y8448744D3*
X10604470Y8474144D3*
X10858470Y8448744D3*
X11112470Y8474144D3*
X11366470Y8461424D3*
D92*
X11364270Y4463844D3*
D93*
X11110370Y4476544D3*
X10856370Y4451144D3*
X10602370Y4476544D3*
X10348370Y4451144D3*
X10094340Y4463844D3*
D95*
X11880670Y4312844D3*
X9580670Y8612844D3*
D111*
X6227250Y7517000D3*
X5997250D3*
X5767250D3*
D109*
X5997250Y6937000D3*
D193*
X5826123Y5669527D3*
X6002900Y5492750D3*
M02*
