G04 DipTrace 3.3.1.3*
G04 Powerboardv03.1.gbl*
%MOMM*%
G04 #@! TF.FileFunction,Copper,L2,Bot*
G04 #@! TF.Part,Single*
G04 #@! TA.AperFunction,Conductor*
%ADD14C,0.762*%
%ADD16C,1.27*%
%ADD17C,0.381*%
%ADD20C,1.905*%
G04 #@! TA.AperFunction,CopperBalancing*
%ADD28C,0.635*%
G04 #@! TA.AperFunction,ComponentPad*
%ADD37C,2.5*%
%ADD38R,2.5X2.5*%
%ADD39O,1.7X2.0*%
%ADD40R,1.7X2.0*%
%ADD41C,2.0*%
G04 #@! TA.AperFunction,ViaPad*
%ADD52C,1.524*%
%FSLAX35Y35*%
G04*
G71*
G90*
G75*
G01*
G04 Bottom*
%LPD*%
X4330000Y780000D2*
D14*
Y790000D1*
X5030000D1*
X2450000Y500000D2*
Y490000D1*
X1300000D1*
X477500Y-1050000D2*
D20*
X827500D1*
X5842000Y127000D2*
D17*
Y-127000D1*
Y127000D2*
X6096000D1*
Y-127000D2*
X5842000D1*
X508000Y127000D2*
Y-127000D1*
Y4699000D2*
Y4953000D1*
X2095000Y-1050000D2*
D16*
X2445000D1*
X2795000D2*
X3260000D1*
X3480000Y-1270000D1*
X5180000D1*
X5300000Y-1150000D1*
X2795000Y-1050000D2*
X3145000D1*
X5930000Y2990000D2*
Y2900000D1*
X5260000Y2230000D1*
D52*
X4330000Y780000D3*
X5030000Y790000D3*
X2450000Y500000D3*
X1300000Y490000D3*
X5300000Y-1150000D3*
X5930000Y2990000D3*
X5260000Y2230000D3*
X250000Y-750000D3*
X-300000Y-390000D3*
X6490000Y2000000D3*
X1850000Y1670000D3*
X5560000Y-1470000D3*
X3040000Y5820000D3*
X3770000Y5370000D3*
X2795000Y4170000D3*
X4635000Y4160000D3*
X7270000Y2580000D3*
X690000Y1130000D3*
X-960000Y770000D3*
X-970000Y-410000D3*
X110000Y640000D3*
X6070000Y4020000D3*
X3580000Y5570000D3*
X5410000Y3490000D3*
X3800000Y6370000D3*
X3300000Y6519097D3*
X2795000Y920000D3*
X5300000Y-350000D3*
X5140000Y-1450000D3*
X-630000Y1610000D3*
X6980000Y5060000D3*
X5380000Y2720000D3*
X4890000Y1190000D3*
X2795000Y2545000D3*
X6790000Y6040000D3*
X3110000Y5170000D3*
X1340000Y1290000D3*
X2000000Y1990000D3*
X4670000Y5730000D3*
X5590000Y-650000D3*
X4860000Y2520000D3*
X110000Y930000D3*
X5240000Y-730000D3*
X3570000Y660000D3*
X3170000Y330000D3*
X5160000Y610000D3*
X-382023Y6636077D2*
D28*
X3210550D1*
X3389407D2*
X7192073D1*
X-466700Y6572910D2*
X3160600D1*
X3439357D2*
X7280300D1*
X-521477Y6509743D2*
X3150483D1*
X3449563D2*
X3761070D1*
X3838940D2*
X7339820D1*
X-558667Y6446577D2*
X3169807D1*
X3430150D2*
X3672293D1*
X3927713D2*
X7381563D1*
X-583183Y6383410D2*
X3247007D1*
X3353040D2*
X3650783D1*
X3949227D2*
X7410823D1*
X-597677Y6320243D2*
X3659077D1*
X3940930D2*
X7430053D1*
X-603327Y6257077D2*
X3705107D1*
X3894903D2*
X7440810D1*
X-603873Y6193910D2*
X7444910D1*
X-603873Y6130743D2*
X-12003D1*
X131947D2*
X337997D1*
X481947D2*
X687997D1*
X831947D2*
X911393D1*
X1308640D2*
X1628073D1*
X1771933D2*
X1851383D1*
X2248627D2*
X4908050D1*
X5052000D2*
X5131357D1*
X5528600D2*
X6672540D1*
X6907453D2*
X7444910D1*
X-603873Y6067577D2*
X-98500D1*
X218537D2*
X251500D1*
X568537D2*
X601500D1*
X1308640D2*
X1541487D1*
X2248627D2*
X4821460D1*
X5528600D2*
X6642827D1*
X6937167D2*
X7444910D1*
X-603873Y6004410D2*
X-130767D1*
X1308640D2*
X1509220D1*
X2248627D2*
X4789193D1*
X5528600D2*
X6644650D1*
X6935343D2*
X7444910D1*
X-603873Y5941243D2*
X-138423D1*
X1308640D2*
X1501563D1*
X2248627D2*
X2956890D1*
X3123080D2*
X4781537D1*
X5528600D2*
X6679560D1*
X6900437D2*
X7444910D1*
X-603873Y5878077D2*
X-124660D1*
X1308640D2*
X1515327D1*
X2248627D2*
X2902477D1*
X3177583D2*
X4795300D1*
X5528600D2*
X7444910D1*
X-603873Y5814910D2*
X-83190D1*
X203223D2*
X266810D1*
X553223D2*
X616810D1*
X1308640D2*
X1556800D1*
X2248627D2*
X2890263D1*
X3189707D2*
X4548023D1*
X4792050D2*
X4836773D1*
X5528600D2*
X7444910D1*
X-603873Y5751743D2*
X2907397D1*
X3172570D2*
X4521863D1*
X4818210D2*
X6989180D1*
X7250800D2*
X7444910D1*
X-603873Y5688577D2*
X2976030D1*
X3103940D2*
X3492827D1*
X3667130D2*
X4526240D1*
X4813743D2*
X6953543D1*
X7286440D2*
X7444910D1*
X-603873Y5625410D2*
X3441330D1*
X3718717D2*
X4565430D1*
X4774550D2*
X6946980D1*
X7293000D2*
X7444910D1*
X-603873Y5562243D2*
X3430393D1*
X3729653D2*
X6965573D1*
X7274500D2*
X7444910D1*
X-603873Y5499077D2*
X3448893D1*
X3839030D2*
X7023543D1*
X7216530D2*
X7444910D1*
X-603873Y5435910D2*
X3522633D1*
X3903833D2*
X7444910D1*
X-603873Y5372743D2*
X3620157D1*
X3919787D2*
X7444910D1*
X-603873Y5309577D2*
X3070367D1*
X3149603D2*
X3633467D1*
X3906477D2*
X7444910D1*
X-603873Y5246410D2*
X2982227D1*
X3237833D2*
X3690797D1*
X3849237D2*
X7444910D1*
X-603873Y5183243D2*
X2960810D1*
X3259250D2*
X6900133D1*
X7059850D2*
X7444910D1*
X-603873Y5120077D2*
X-160570D1*
X160657D2*
X493763D1*
X522303D2*
X747697D1*
X776287D2*
X1001720D1*
X1030257D2*
X2017723D1*
X2046323D2*
X2271747D1*
X2300327D2*
X2525680D1*
X2554283D2*
X2779703D1*
X2808233D2*
X2969103D1*
X3250867D2*
X3287750D1*
X3316267D2*
X4303753D1*
X4332293D2*
X4557683D1*
X4586273D2*
X4811707D1*
X4840303D2*
X5065730D1*
X5094323D2*
X5319753D1*
X5348250D2*
X5573687D1*
X5602217D2*
X6843347D1*
X7116633D2*
X7444910D1*
X-603873Y5056910D2*
X-244973D1*
X244967D2*
X378010D1*
X6225957D2*
X6830223D1*
X7129760D2*
X7444910D1*
X-603873Y4993743D2*
X-292913D1*
X292910D2*
X351577D1*
X6252480D2*
X6846357D1*
X7113627D2*
X7444910D1*
X-603873Y4930577D2*
X-321533D1*
X321530D2*
X349573D1*
X6254487D2*
X6911707D1*
X7048273D2*
X7444910D1*
X-603873Y4867410D2*
X-335843D1*
X335840D2*
X366707D1*
X6237260D2*
X7444910D1*
X-603873Y4804243D2*
X-337760D1*
X6225047D2*
X6446590D1*
X6761440D2*
X7444910D1*
X-603873Y4741077D2*
X-327367D1*
X327363D2*
X349390D1*
X6252207D2*
X6360640D1*
X6847390D2*
X7444910D1*
X-603873Y4677910D2*
X-303580D1*
X303573D2*
X349390D1*
X6254487D2*
X6312060D1*
X6895970D2*
X7444910D1*
X-603873Y4614743D2*
X-262563D1*
X262560D2*
X349390D1*
X6237987D2*
X6282983D1*
X6924953D2*
X7444910D1*
X-603873Y4551577D2*
X-193383D1*
X193380D2*
X349390D1*
X843523D2*
X934453D1*
X1097547D2*
X1188477D1*
X1351570D2*
X1442410D1*
X1605500D2*
X1696433D1*
X1859523D2*
X1950457D1*
X2113547D2*
X2204480D1*
X2367570D2*
X2458413D1*
X2621503D2*
X2712437D1*
X2875527D2*
X2966460D1*
X3129550D2*
X3220483D1*
X3383573D2*
X3474417D1*
X3637507D2*
X3728440D1*
X3891530D2*
X3982463D1*
X4145553D2*
X4236487D1*
X4399577D2*
X4490420D1*
X4653510D2*
X4744443D1*
X4907533D2*
X4998467D1*
X5161557D2*
X5252490D1*
X5415580D2*
X5506420D1*
X5669510D2*
X5760443D1*
X5923537D2*
X6014467D1*
X6177560D2*
X6268400D1*
X6939630D2*
X7444910D1*
X-603873Y4488410D2*
X6266213D1*
X6941817D2*
X7444910D1*
X-603873Y4425243D2*
X6276147D1*
X6931790D2*
X7444910D1*
X-603873Y4362077D2*
X6299573D1*
X6908367D2*
X7444910D1*
X-603873Y4298910D2*
X2725653D1*
X2864317D2*
X4592683D1*
X4677297D2*
X6340040D1*
X6867897D2*
X7444910D1*
X-603873Y4235743D2*
X2661120D1*
X2928847D2*
X4506823D1*
X4763250D2*
X6408217D1*
X6799810D2*
X7444910D1*
X-603873Y4172577D2*
X2645170D1*
X2944797D2*
X4485680D1*
X4784303D2*
X6675913D1*
X6909003D2*
X7444910D1*
X-603873Y4109410D2*
X2658570D1*
X2931400D2*
X4494337D1*
X4775643D2*
X5951393D1*
X6188587D2*
X6618673D1*
X6966333D2*
X7444910D1*
X-603873Y4046243D2*
X2716083D1*
X2873977D2*
X4541187D1*
X4728797D2*
X5922593D1*
X6217390D2*
X6596433D1*
X6988573D2*
X7444910D1*
X-603873Y3983077D2*
X5924963D1*
X6215020D2*
X6596527D1*
X6988483D2*
X7444910D1*
X-603873Y3919910D2*
X5960873D1*
X6179200D2*
X6619037D1*
X6965970D2*
X7444910D1*
X-603873Y3856743D2*
X6593883D1*
X6991127D2*
X7444910D1*
X-603873Y3793577D2*
X6593883D1*
X6991127D2*
X7444910D1*
X629420Y3730410D2*
X6593883D1*
X6991127D2*
X7444910D1*
X689487Y3667243D2*
X6593883D1*
X6991127D2*
X7444910D1*
X696140Y3604077D2*
X5316657D1*
X5503353D2*
X6593883D1*
X6991127D2*
X7444910D1*
X696140Y3540910D2*
X5269533D1*
X5550477D2*
X6593883D1*
X6991127D2*
X7444910D1*
X696140Y3477743D2*
X5260693D1*
X5559317D2*
X6593883D1*
X6991127D2*
X7444910D1*
X696140Y3414577D2*
X1141357D1*
X1538600D2*
X5281563D1*
X5538443D2*
X7444910D1*
X696140Y3351410D2*
X1141357D1*
X1538600D2*
X5366513D1*
X5453497D2*
X7444910D1*
X696140Y3288243D2*
X1141357D1*
X1538600D2*
X6744453D1*
X6835540D2*
X7444910D1*
X696140Y3225077D2*
X1141357D1*
X1538600D2*
X6637633D1*
X6942363D2*
X7444910D1*
X696140Y3161910D2*
X1141357D1*
X1538600D2*
X6601630D1*
X6978367D2*
X7444910D1*
X696140Y3098743D2*
X1141357D1*
X1538600D2*
X5830080D1*
X6029993D2*
X6591330D1*
X6988667D2*
X7444910D1*
X696140Y3035577D2*
X1188023D1*
X1491933D2*
X5787607D1*
X6072377D2*
X6602450D1*
X6977547D2*
X7444910D1*
X696140Y2972410D2*
X1151747D1*
X1528210D2*
X5781227D1*
X6078757D2*
X6639820D1*
X6940177D2*
X7444910D1*
X696140Y2909243D2*
X1141357D1*
X1538600D2*
X5747957D1*
X6067090D2*
X6591330D1*
X6988667D2*
X7444910D1*
X696140Y2846077D2*
X1152293D1*
X1527663D2*
X5305170D1*
X5454863D2*
X5684793D1*
X6055513D2*
X6591330D1*
X6988667D2*
X7444910D1*
X696140Y2782910D2*
X1189390D1*
X1490657D2*
X5244650D1*
X5515293D2*
X5621630D1*
X6004200D2*
X6591330D1*
X6988667D2*
X7444910D1*
X696140Y2719743D2*
X1226577D1*
X1453380D2*
X5230157D1*
X5529877D2*
X5558467D1*
X5941037D2*
X6591330D1*
X6988667D2*
X7231083D1*
X7308860D2*
X7444910D1*
X696140Y2656577D2*
X1167423D1*
X1512623D2*
X2698400D1*
X2891570D2*
X4809703D1*
X4910357D2*
X5244923D1*
X5877870D2*
X6591330D1*
X6988667D2*
X7142307D1*
X7397727D2*
X7444910D1*
X696140Y2593410D2*
X1144273D1*
X1535683D2*
X2653557D1*
X2936413D2*
X4730407D1*
X4989653D2*
X5306083D1*
X5814707D2*
X6591330D1*
X6988667D2*
X7120797D1*
X7419237D2*
X7444910D1*
X696140Y2530243D2*
X1143727D1*
X1536320D2*
X2645900D1*
X2944070D2*
X4710537D1*
X5009433D2*
X5368973D1*
X5751543D2*
X7129090D1*
X7410943D2*
X7444910D1*
X696140Y2467077D2*
X1165327D1*
X1514720D2*
X2668140D1*
X2921830D2*
X4720287D1*
X4999680D2*
X5305810D1*
X5688380D2*
X7175120D1*
X7364917D2*
X7444910D1*
X696140Y2403910D2*
X1221383D1*
X1458667D2*
X2762567D1*
X2827403D2*
X4769323D1*
X4950643D2*
X5242643D1*
X5625213D2*
X7444910D1*
X696140Y2340743D2*
X1192670D1*
X1487377D2*
X5162437D1*
X5562050D2*
X7444910D1*
X696140Y2277577D2*
X1153660D1*
X1526387D2*
X5118323D1*
X5498887D2*
X7444910D1*
X696140Y2214410D2*
X1141447D1*
X1538600D2*
X5111030D1*
X5435723D2*
X7444910D1*
X696140Y2151243D2*
X1150560D1*
X1529393D2*
X5133727D1*
X5386320D2*
X7444910D1*
X696140Y2088077D2*
X1184923D1*
X1495033D2*
X1888933D1*
X2111087D2*
X5232527D1*
X5287427D2*
X6370393D1*
X6609590D2*
X7444910D1*
X696140Y2024910D2*
X1281537D1*
X1398417D2*
X1854480D1*
X2145540D2*
X6342320D1*
X6637663D2*
X6703803D1*
X6876190D2*
X7444910D1*
X696140Y1961743D2*
X1852930D1*
X2147000D2*
X6345327D1*
X6952843D2*
X7444910D1*
X696140Y1898577D2*
X1883100D1*
X2116920D2*
X6382150D1*
X6982377D2*
X7444910D1*
X696140Y1835410D2*
X6591877D1*
X6988120D2*
X7444910D1*
X676727Y1772243D2*
X1743010D1*
X1957050D2*
X6607827D1*
X6972167D2*
X7444910D1*
X-1328847Y1709077D2*
X-740167D1*
X-519837D2*
X1705550D1*
X1994420D2*
X6652853D1*
X6927143D2*
X7444910D1*
X-1328847Y1645910D2*
X-775260D1*
X-484747D2*
X1702177D1*
X1997793D2*
X6658413D1*
X6921583D2*
X7444910D1*
X-1328847Y1582743D2*
X-777263D1*
X-482740D2*
X1729703D1*
X1970267D2*
X6610107D1*
X6969890D2*
X7444910D1*
X-1328847Y1519577D2*
X-747733D1*
X-512273D2*
X6592333D1*
X6987663D2*
X7444910D1*
X-1328847Y1456410D2*
X6596343D1*
X6983653D2*
X7444910D1*
X-1328847Y1393243D2*
X1234050D1*
X1445997D2*
X6623687D1*
X6956310D2*
X7444910D1*
X-1328847Y1330077D2*
X1195860D1*
X1484093D2*
X4852540D1*
X4927403D2*
X6693687D1*
X6886310D2*
X7444910D1*
X-1328847Y1266910D2*
X640693D1*
X739250D2*
X1192033D1*
X1487923D2*
X4762490D1*
X5017453D2*
X6630977D1*
X6949017D2*
X7444910D1*
X-1328847Y1203743D2*
X560573D1*
X819460D2*
X1219013D1*
X1461037D2*
X4740797D1*
X5039147D2*
X6598987D1*
X6981010D2*
X7444910D1*
X-1328847Y1140577D2*
X540523D1*
X839420D2*
X4748907D1*
X5031037D2*
X6591603D1*
X6988393D2*
X7444910D1*
X-1328847Y1077410D2*
X550183D1*
X829850D2*
X4794663D1*
X4985280D2*
X6605640D1*
X6974447D2*
X7444910D1*
X-1328847Y1014243D2*
X-12460D1*
X232480D2*
X598857D1*
X781087D2*
X2680443D1*
X2909523D2*
X6647477D1*
X6932520D2*
X7444910D1*
X-1328847Y951077D2*
X-38253D1*
X258273D2*
X2648543D1*
X2941427D2*
X6591330D1*
X6988667D2*
X7444910D1*
X-1328847Y887910D2*
X-1048150D1*
X-871933D2*
X-33513D1*
X253537D2*
X2648817D1*
X2941243D2*
X4229103D1*
X5141230D2*
X6591330D1*
X6988667D2*
X7444910D1*
X-1328847Y824743D2*
X-1099010D1*
X-820983D2*
X6133D1*
X213887D2*
X2681357D1*
X2908613D2*
X4187360D1*
X5175593D2*
X6591330D1*
X6988667D2*
X7444910D1*
X-1328847Y761577D2*
X-1109580D1*
X-810410D2*
X27463D1*
X192560D2*
X3462293D1*
X3677703D2*
X4181343D1*
X5176960D2*
X6591330D1*
X6988667D2*
X7444910D1*
X-1328847Y698410D2*
X-1090713D1*
X-829277D2*
X-27407D1*
X247427D2*
X3425380D1*
X3714617D2*
X4205587D1*
X5279317D2*
X6591330D1*
X6988667D2*
X7444910D1*
X-1328847Y635243D2*
X-1015610D1*
X-904380D2*
X-39713D1*
X259733D2*
X2395703D1*
X2504290D2*
X3422280D1*
X3717713D2*
X5012410D1*
X5307570D2*
X6501097D1*
X6988667D2*
X7444910D1*
X-1328847Y572077D2*
X-22760D1*
X242780D2*
X1175990D1*
X2580397D2*
X3450263D1*
X3689733D2*
X5015237D1*
X5304747D2*
X6384430D1*
X6823600D2*
X7444910D1*
X-1328847Y508910D2*
X45327D1*
X174693D2*
X1151383D1*
X2599537D2*
X5051787D1*
X5268197D2*
X6326277D1*
X6881750D2*
X7444910D1*
X-1328847Y445743D2*
X1157123D1*
X2589147D2*
X3078843D1*
X3261167D2*
X6291370D1*
X6916660D2*
X7444910D1*
X-1328847Y382577D2*
X1198503D1*
X1401427D2*
X2361160D1*
X2538833D2*
X3030170D1*
X3309837D2*
X6272047D1*
X6935983D2*
X7444910D1*
X-1328847Y319410D2*
X-97223D1*
X97220D2*
X3020600D1*
X3319407D2*
X6265573D1*
X6942453D2*
X7444910D1*
X-1328847Y256243D2*
X-217537D1*
X217623D2*
X400977D1*
X615020D2*
X655003D1*
X869043D2*
X908933D1*
X1123067D2*
X1162957D1*
X1377000D2*
X1416980D1*
X1631023D2*
X1671003D1*
X1885047D2*
X1924937D1*
X2139070D2*
X2178960D1*
X2393000D2*
X2432983D1*
X2647023D2*
X2686917D1*
X2901047D2*
X2940940D1*
X3409003D2*
X3448987D1*
X3663027D2*
X3702920D1*
X3917050D2*
X3956943D1*
X4171073D2*
X4210967D1*
X4425007D2*
X4464990D1*
X4679030D2*
X4718920D1*
X4933053D2*
X4972943D1*
X5187077D2*
X5226967D1*
X5441010D2*
X5480990D1*
X5695033D2*
X5734923D1*
X5949057D2*
X5988947D1*
X6203080D2*
X6271227D1*
X6936713D2*
X7444910D1*
X-1328847Y193077D2*
X-276510D1*
X276503D2*
X358230D1*
X6245827D2*
X6289727D1*
X6918210D2*
X7444910D1*
X-1328847Y129910D2*
X-311963D1*
X311960D2*
X349390D1*
X6254667D2*
X6323633D1*
X6884393D2*
X7444910D1*
X-1328847Y66743D2*
X-331653D1*
X331647D2*
X356307D1*
X6247740D2*
X6379963D1*
X6828067D2*
X7444910D1*
X-1328847Y3577D2*
X-338397D1*
X6209277D2*
X6489337D1*
X6718690D2*
X6950810D1*
X7209147D2*
X7444910D1*
X-1328847Y-59590D2*
X-333020D1*
X6245370D2*
X6914170D1*
X7245880D2*
X7444910D1*
X-1328847Y-122757D2*
X-314880D1*
X314877D2*
X349390D1*
X6254667D2*
X6906877D1*
X7253170D2*
X7444910D1*
X-1328847Y-185923D2*
X-281523D1*
X281517D2*
X349390D1*
X6248197D2*
X6924560D1*
X7235397D2*
X7444910D1*
X-1328847Y-249090D2*
X-333383D1*
X-266633D2*
X-226013D1*
X226010D2*
X349390D1*
X876607D2*
X901370D1*
X1130630D2*
X1155393D1*
X1384653D2*
X1409330D1*
X1638587D2*
X1663340D1*
X1892610D2*
X1917400D1*
X2146633D2*
X2171393D1*
X2400657D2*
X2425420D1*
X2654590D2*
X2679350D1*
X2908613D2*
X2933373D1*
X3162637D2*
X3187397D1*
X3416660D2*
X3441370D1*
X3670593D2*
X3695320D1*
X3924617D2*
X3949427D1*
X4178640D2*
X4203420D1*
X4432663D2*
X4457423D1*
X4686593D2*
X4711357D1*
X4940620D2*
X4965380D1*
X5448573D2*
X5473427D1*
X5702597D2*
X5727430D1*
X5956620D2*
X5981457D1*
X6210643D2*
X6980703D1*
X7179250D2*
X7444910D1*
X-1328847Y-312257D2*
X-1081417D1*
X-858627D2*
X-426990D1*
X-173027D2*
X-119373D1*
X119370D2*
X5155237D1*
X5444747D2*
X7444910D1*
X-1328847Y-375423D2*
X-1115597D1*
X-824357D2*
X-449047D1*
X-150880D2*
X5152410D1*
X5447570D2*
X7444910D1*
X-1328847Y-438590D2*
X-1116963D1*
X-823080D2*
X-441390D1*
X-158627D2*
X5180757D1*
X5419227D2*
X7444910D1*
X-1328847Y-501757D2*
X-1086703D1*
X-853340D2*
X-396367D1*
X-203653D2*
X7444910D1*
X-1328847Y-564923D2*
X5468140D1*
X5711893D2*
X7444910D1*
X-1328847Y-628090D2*
X168010D1*
X332010D2*
X5132633D1*
X5347310D2*
X5441890D1*
X5738143D2*
X7444910D1*
X-1328847Y-691257D2*
X112777D1*
X387247D2*
X5095537D1*
X5384500D2*
X5446263D1*
X5733770D2*
X7444910D1*
X-1328847Y-754423D2*
X-1186143D1*
X-913860D2*
X-726130D1*
X-453847D2*
X100197D1*
X399733D2*
X5092253D1*
X5387780D2*
X5485277D1*
X5694760D2*
X7444910D1*
X-1328847Y-817590D2*
X-1218137D1*
X-881870D2*
X-758123D1*
X-421857D2*
X117060D1*
X382870D2*
X5119963D1*
X5359980D2*
X7444910D1*
X-1328847Y-880757D2*
X-1222330D1*
X-877677D2*
X-762317D1*
X-417663D2*
X184597D1*
X676177D2*
X729923D1*
X925097D2*
X1079923D1*
X1275097D2*
X1429923D1*
X1625097D2*
X1896407D1*
X2293653D2*
X2347397D1*
X2542570D2*
X2697397D1*
X2892570D2*
X3047397D1*
X3242570D2*
X3551343D1*
X3948677D2*
X4002423D1*
X4197597D2*
X6411407D1*
X6808653D2*
X6862397D1*
X7057570D2*
X7444910D1*
X-1328847Y-943923D2*
X-1201093D1*
X-898913D2*
X-741080D1*
X-438900D2*
X278843D1*
X1694187D2*
X1896407D1*
X3342833D2*
X3551343D1*
X4266687D2*
X6411407D1*
X7126750D2*
X7444910D1*
X-1328847Y-1007090D2*
X-1136013D1*
X-963990D2*
X-676000D1*
X-503977D2*
X278843D1*
X1721257D2*
X1896407D1*
X3408367D2*
X3551343D1*
X4293757D2*
X5280837D1*
X5319113D2*
X6411407D1*
X7153820D2*
X7444910D1*
X-1328847Y-1070257D2*
X278843D1*
X1725083D2*
X1896407D1*
X3471530D2*
X3551343D1*
X4297583D2*
X5174377D1*
X5425607D2*
X6411407D1*
X7157560D2*
X7444910D1*
X-1328847Y-1133423D2*
X278843D1*
X1707130D2*
X1896407D1*
X4279630D2*
X5125250D1*
X5448847D2*
X6411407D1*
X7139603D2*
X7444910D1*
X-1328847Y-1196590D2*
X278843D1*
X676177D2*
X696747D1*
X958273D2*
X1046747D1*
X1308273D2*
X1396747D1*
X1658273D2*
X1896407D1*
X2293653D2*
X2314173D1*
X2575750D2*
X2664220D1*
X2925750D2*
X3014220D1*
X5442103D2*
X6411407D1*
X6808653D2*
X6829220D1*
X7090750D2*
X7444910D1*
X-1328847Y-1259757D2*
X-931300D1*
X-708690D2*
X3278453D1*
X5398810D2*
X7444910D1*
X-1328847Y-1322923D2*
X-979607D1*
X-660383D2*
X3341617D1*
X5318417D2*
X7444910D1*
X-1328757Y-1386090D2*
X-993553D1*
X-646440D2*
X3413440D1*
X5274850D2*
X5437240D1*
X5682727D2*
X7444453D1*
X-1325383Y-1449257D2*
X-982797D1*
X-657193D2*
X4990170D1*
X5289797D2*
X5411630D1*
X5708340D2*
X7440353D1*
X-1313080Y-1512423D2*
X-940323D1*
X-699667D2*
X5004480D1*
X5275580D2*
X5416550D1*
X5703417D2*
X7427503D1*
X-1290020Y-1575590D2*
X5064273D1*
X5215697D2*
X5456473D1*
X5663497D2*
X7404077D1*
X-1254473Y-1638757D2*
X7368073D1*
X-1203887Y-1701923D2*
X7316943D1*
X-1126597Y-1765090D2*
X7238467D1*
X-971373Y-1828257D2*
X7080967D1*
X1719190Y-1065087D2*
X1717417Y-1080080D1*
X1714470Y-1094887D1*
X1710373Y-1109420D1*
X1705147Y-1123583D1*
X1698827Y-1137293D1*
X1691450Y-1150467D1*
X1683060Y-1163020D1*
X1673713Y-1174877D1*
X1663463Y-1185963D1*
X1652377Y-1196213D1*
X1640520Y-1205560D1*
X1627967Y-1213950D1*
X1614793Y-1221327D1*
X1601083Y-1227647D1*
X1586920Y-1232873D1*
X1572387Y-1236970D1*
X1557580Y-1239917D1*
X1542587Y-1241690D1*
X1527500Y-1242283D1*
X1512413Y-1241690D1*
X1497420Y-1239917D1*
X1482613Y-1236970D1*
X1468080Y-1232873D1*
X1453917Y-1227647D1*
X1440207Y-1221327D1*
X1427033Y-1213950D1*
X1414480Y-1205560D1*
X1402623Y-1196213D1*
X1391537Y-1185963D1*
X1381287Y-1174877D1*
X1371940Y-1163020D1*
X1363550Y-1150467D1*
X1352593Y-1129530D1*
X1341450Y-1150467D1*
X1333060Y-1163020D1*
X1323713Y-1174877D1*
X1313463Y-1185963D1*
X1302377Y-1196213D1*
X1290520Y-1205560D1*
X1277967Y-1213950D1*
X1264793Y-1221327D1*
X1251083Y-1227647D1*
X1236920Y-1232873D1*
X1222387Y-1236970D1*
X1207580Y-1239917D1*
X1192587Y-1241690D1*
X1177500Y-1242283D1*
X1162413Y-1241690D1*
X1147420Y-1239917D1*
X1132613Y-1236970D1*
X1118080Y-1232873D1*
X1103917Y-1227647D1*
X1090207Y-1221327D1*
X1077033Y-1213950D1*
X1064480Y-1205560D1*
X1052623Y-1196213D1*
X1041537Y-1185963D1*
X1031287Y-1174877D1*
X1021940Y-1163020D1*
X1013550Y-1150467D1*
X1002593Y-1129530D1*
X993020Y-1147857D1*
X979957Y-1167173D1*
X964650Y-1184767D1*
X947330Y-1200380D1*
X928243Y-1213780D1*
X907677Y-1224770D1*
X885933Y-1233190D1*
X863327Y-1238917D1*
X840197Y-1241863D1*
X816877Y-1241990D1*
X793713Y-1239293D1*
X771050Y-1233810D1*
X749213Y-1225623D1*
X728530Y-1214857D1*
X709300Y-1201663D1*
X691810Y-1186240D1*
X676317Y-1168813D1*
X669787Y-1159973D1*
X669783Y-1242283D1*
X285217D1*
Y-889093D1*
X265353Y-892660D1*
X246717Y-893447D1*
X228137Y-891807D1*
X209923Y-887773D1*
X192390Y-881410D1*
X175827Y-872823D1*
X160520Y-862163D1*
X146727Y-849610D1*
X134677Y-835370D1*
X124577Y-819687D1*
X116597Y-802827D1*
X110870Y-785073D1*
X107497Y-766727D1*
X106530Y-748100D1*
X107987Y-729503D1*
X111847Y-711253D1*
X118040Y-693657D1*
X126467Y-677017D1*
X136977Y-661607D1*
X149400Y-647690D1*
X163523Y-635503D1*
X179107Y-625253D1*
X195890Y-617110D1*
X213587Y-611213D1*
X231900Y-607663D1*
X250517Y-606517D1*
X269127Y-607797D1*
X287413Y-611480D1*
X305067Y-617503D1*
X321790Y-625767D1*
X337300Y-636130D1*
X351333Y-648420D1*
X363657Y-662423D1*
X374057Y-677907D1*
X382360Y-694610D1*
X388430Y-712250D1*
X392157Y-730527D1*
X393483Y-750000D1*
X392270Y-768613D1*
X388653Y-786913D1*
X382693Y-804590D1*
X374490Y-821343D1*
X364183Y-836890D1*
X351947Y-850967D1*
X344767Y-857727D1*
X669783Y-857717D1*
Y-940020D1*
X682597Y-923603D1*
X698963Y-906990D1*
X717220Y-892483D1*
X737100Y-880293D1*
X758307Y-870597D1*
X780533Y-863540D1*
X803450Y-859227D1*
X826720Y-857717D1*
X850000Y-859037D1*
X872953Y-863167D1*
X895233Y-870043D1*
X916520Y-879563D1*
X936497Y-891593D1*
X954870Y-905953D1*
X971370Y-922430D1*
X985757Y-940783D1*
X997813Y-960743D1*
X1002487Y-970327D1*
X1013550Y-949533D1*
X1021940Y-936980D1*
X1031287Y-925123D1*
X1041537Y-914037D1*
X1052623Y-903787D1*
X1064480Y-894440D1*
X1077033Y-886050D1*
X1090207Y-878673D1*
X1103917Y-872353D1*
X1118080Y-867127D1*
X1132613Y-863030D1*
X1147420Y-860083D1*
X1162413Y-858310D1*
X1177500Y-857717D1*
X1192587Y-858310D1*
X1207580Y-860083D1*
X1222387Y-863030D1*
X1236920Y-867127D1*
X1251083Y-872353D1*
X1264793Y-878673D1*
X1277967Y-886050D1*
X1290520Y-894440D1*
X1302377Y-903787D1*
X1313463Y-914037D1*
X1323713Y-925123D1*
X1333060Y-936980D1*
X1341450Y-949533D1*
X1352407Y-970470D1*
X1363550Y-949533D1*
X1371940Y-936980D1*
X1381287Y-925123D1*
X1391537Y-914037D1*
X1402623Y-903787D1*
X1414480Y-894440D1*
X1427033Y-886050D1*
X1440207Y-878673D1*
X1453917Y-872353D1*
X1468080Y-867127D1*
X1482613Y-863030D1*
X1497420Y-860083D1*
X1512413Y-858310D1*
X1527500Y-857717D1*
X1542587Y-858310D1*
X1557580Y-860083D1*
X1572387Y-863030D1*
X1586920Y-867127D1*
X1601083Y-872353D1*
X1614793Y-878673D1*
X1627967Y-886050D1*
X1640520Y-894440D1*
X1652377Y-903787D1*
X1663463Y-914037D1*
X1673713Y-925123D1*
X1683060Y-936980D1*
X1691450Y-949533D1*
X1698827Y-962707D1*
X1705147Y-976417D1*
X1710373Y-990580D1*
X1714470Y-1005113D1*
X1717417Y-1019920D1*
X1719190Y-1034913D1*
X1719783Y-1050000D1*
X1719190Y-1065087D1*
X234907Y5870470D2*
X223950Y5849533D1*
X215560Y5836980D1*
X206213Y5825123D1*
X195963Y5814037D1*
X184877Y5803787D1*
X173020Y5794440D1*
X160467Y5786050D1*
X147293Y5778673D1*
X133583Y5772353D1*
X119420Y5767127D1*
X104887Y5763030D1*
X90080Y5760083D1*
X75087Y5758310D1*
X60000Y5757717D1*
X44913Y5758310D1*
X29920Y5760083D1*
X15113Y5763030D1*
X580Y5767127D1*
X-13583Y5772353D1*
X-27293Y5778673D1*
X-40467Y5786050D1*
X-53020Y5794440D1*
X-64877Y5803787D1*
X-75963Y5814037D1*
X-86213Y5825123D1*
X-95560Y5836980D1*
X-103950Y5849533D1*
X-111327Y5862707D1*
X-117647Y5876417D1*
X-122873Y5890580D1*
X-126970Y5905113D1*
X-129917Y5919920D1*
X-131690Y5934913D1*
X-132283Y5950000D1*
X-131690Y5965087D1*
X-129917Y5980080D1*
X-126970Y5994887D1*
X-122873Y6009420D1*
X-117647Y6023583D1*
X-111327Y6037293D1*
X-103950Y6050467D1*
X-95560Y6063020D1*
X-86213Y6074877D1*
X-75963Y6085963D1*
X-64877Y6096213D1*
X-53020Y6105560D1*
X-40467Y6113950D1*
X-27293Y6121327D1*
X-13583Y6127647D1*
X580Y6132873D1*
X15113Y6136970D1*
X29920Y6139917D1*
X44913Y6141690D1*
X60000Y6142283D1*
X75087Y6141690D1*
X90080Y6139917D1*
X104887Y6136970D1*
X119420Y6132873D1*
X133583Y6127647D1*
X147293Y6121327D1*
X160467Y6113950D1*
X173020Y6105560D1*
X184877Y6096213D1*
X195963Y6085963D1*
X206213Y6074877D1*
X215560Y6063020D1*
X223950Y6050467D1*
X234907Y6029530D1*
X246050Y6050467D1*
X254440Y6063020D1*
X263787Y6074877D1*
X274037Y6085963D1*
X285123Y6096213D1*
X296980Y6105560D1*
X309533Y6113950D1*
X322707Y6121327D1*
X336417Y6127647D1*
X350580Y6132873D1*
X365113Y6136970D1*
X379920Y6139917D1*
X394913Y6141690D1*
X410000Y6142283D1*
X425087Y6141690D1*
X440080Y6139917D1*
X454887Y6136970D1*
X469420Y6132873D1*
X483583Y6127647D1*
X497293Y6121327D1*
X510467Y6113950D1*
X523020Y6105560D1*
X534877Y6096213D1*
X545963Y6085963D1*
X556213Y6074877D1*
X565560Y6063020D1*
X573950Y6050467D1*
X584907Y6029530D1*
X595813Y6050080D1*
X609137Y6069217D1*
X624677Y6086603D1*
X642207Y6101980D1*
X661470Y6115120D1*
X682183Y6125833D1*
X704040Y6133960D1*
X726720Y6139380D1*
X749890Y6142017D1*
X773210Y6141830D1*
X796333Y6138820D1*
X818923Y6133033D1*
X840647Y6124553D1*
X861183Y6113507D1*
X880230Y6100057D1*
X897513Y6084400D1*
X912770Y6066767D1*
X917717Y6059973D1*
Y6142283D1*
X1302283D1*
Y5757717D1*
X917717D1*
Y5840020D1*
X903530Y5822047D1*
X886983Y5805613D1*
X868573Y5791303D1*
X848563Y5779327D1*
X827253Y5769860D1*
X804950Y5763043D1*
X781990Y5758977D1*
X758703Y5757720D1*
X735440Y5759293D1*
X712533Y5763667D1*
X690327Y5770783D1*
X669147Y5780537D1*
X649300Y5792780D1*
X631080Y5807337D1*
X614760Y5823990D1*
X600573Y5842500D1*
X588733Y5862587D1*
X585010Y5870323D1*
X573950Y5849533D1*
X565560Y5836980D1*
X556213Y5825123D1*
X545963Y5814037D1*
X534877Y5803787D1*
X523020Y5794440D1*
X510467Y5786050D1*
X497293Y5778673D1*
X483583Y5772353D1*
X469420Y5767127D1*
X454887Y5763030D1*
X440080Y5760083D1*
X425087Y5758310D1*
X410000Y5757717D1*
X394913Y5758310D1*
X379920Y5760083D1*
X365113Y5763030D1*
X350580Y5767127D1*
X336417Y5772353D1*
X322707Y5778673D1*
X309533Y5786050D1*
X296980Y5794440D1*
X285123Y5803787D1*
X274037Y5814037D1*
X263787Y5825123D1*
X254440Y5836980D1*
X246050Y5849533D1*
X235093Y5870470D1*
X1857690Y5840167D2*
X1846213Y5825123D1*
X1835963Y5814037D1*
X1824877Y5803787D1*
X1813020Y5794440D1*
X1800467Y5786050D1*
X1787293Y5778673D1*
X1773583Y5772353D1*
X1759420Y5767127D1*
X1744887Y5763030D1*
X1730080Y5760083D1*
X1715087Y5758310D1*
X1700000Y5757717D1*
X1684913Y5758310D1*
X1669920Y5760083D1*
X1655113Y5763030D1*
X1640580Y5767127D1*
X1626417Y5772353D1*
X1612707Y5778673D1*
X1599533Y5786050D1*
X1586980Y5794440D1*
X1575123Y5803787D1*
X1564037Y5814037D1*
X1553787Y5825123D1*
X1544440Y5836980D1*
X1536050Y5849533D1*
X1528673Y5862707D1*
X1522353Y5876417D1*
X1517127Y5890580D1*
X1513030Y5905113D1*
X1510083Y5919920D1*
X1508310Y5934913D1*
X1507717Y5950000D1*
X1508310Y5965087D1*
X1510083Y5980080D1*
X1513030Y5994887D1*
X1517127Y6009420D1*
X1522353Y6023583D1*
X1528673Y6037293D1*
X1536050Y6050467D1*
X1544440Y6063020D1*
X1553787Y6074877D1*
X1564037Y6085963D1*
X1575123Y6096213D1*
X1586980Y6105560D1*
X1599533Y6113950D1*
X1612707Y6121327D1*
X1626417Y6127647D1*
X1640580Y6132873D1*
X1655113Y6136970D1*
X1669920Y6139917D1*
X1684913Y6141690D1*
X1700000Y6142283D1*
X1715087Y6141690D1*
X1730080Y6139917D1*
X1744887Y6136970D1*
X1759420Y6132873D1*
X1773583Y6127647D1*
X1787293Y6121327D1*
X1800467Y6113950D1*
X1813020Y6105560D1*
X1824877Y6096213D1*
X1835963Y6085963D1*
X1846213Y6074877D1*
X1857690Y6059833D1*
X1857717Y6142283D1*
X2242283D1*
Y5757717D1*
X1857717D1*
Y5840020D1*
X355733Y4968013D2*
X356583Y4984223D1*
X359703Y5002617D1*
X365050Y5020490D1*
X372540Y5037573D1*
X382063Y5053613D1*
X393477Y5068370D1*
X406607Y5081620D1*
X421260Y5093167D1*
X437217Y5102833D1*
X454233Y5110477D1*
X472057Y5115980D1*
X490420Y5119267D1*
X509050Y5120280D1*
X527660Y5119010D1*
X545977Y5115473D1*
X563723Y5109723D1*
X580633Y5101847D1*
X596453Y5091960D1*
X610947Y5080213D1*
X623897Y5066783D1*
X634990Y5052040D1*
X646203Y5066900D1*
X663100Y5083797D1*
X682433Y5097843D1*
X703723Y5108690D1*
X726450Y5116077D1*
X750053Y5119813D1*
X773947D1*
X797550Y5116077D1*
X820277Y5108690D1*
X841567Y5097843D1*
X860900Y5083797D1*
X877797Y5066900D1*
X888910Y5051957D1*
X900203Y5066900D1*
X917100Y5083797D1*
X936433Y5097843D1*
X957723Y5108690D1*
X980450Y5116077D1*
X1004053Y5119813D1*
X1027947D1*
X1051550Y5116077D1*
X1074277Y5108690D1*
X1095567Y5097843D1*
X1114900Y5083797D1*
X1131797Y5066900D1*
X1142910Y5051957D1*
X1154203Y5066900D1*
X1171100Y5083797D1*
X1190433Y5097843D1*
X1211723Y5108690D1*
X1234450Y5116077D1*
X1258053Y5119813D1*
X1281947D1*
X1305550Y5116077D1*
X1328277Y5108690D1*
X1349567Y5097843D1*
X1368900Y5083797D1*
X1385797Y5066900D1*
X1396910Y5051957D1*
X1408203Y5066900D1*
X1425100Y5083797D1*
X1444433Y5097843D1*
X1465723Y5108690D1*
X1488450Y5116077D1*
X1512053Y5119813D1*
X1535947D1*
X1559550Y5116077D1*
X1582277Y5108690D1*
X1603567Y5097843D1*
X1622900Y5083797D1*
X1639797Y5066900D1*
X1650910Y5051957D1*
X1662203Y5066900D1*
X1679100Y5083797D1*
X1698433Y5097843D1*
X1719723Y5108690D1*
X1742450Y5116077D1*
X1766053Y5119813D1*
X1789947D1*
X1813550Y5116077D1*
X1836277Y5108690D1*
X1857567Y5097843D1*
X1876900Y5083797D1*
X1893797Y5066900D1*
X1904910Y5051957D1*
X1916203Y5066900D1*
X1933100Y5083797D1*
X1952433Y5097843D1*
X1973723Y5108690D1*
X1996450Y5116077D1*
X2020053Y5119813D1*
X2043947D1*
X2067550Y5116077D1*
X2090277Y5108690D1*
X2111567Y5097843D1*
X2130900Y5083797D1*
X2147797Y5066900D1*
X2158910Y5051957D1*
X2170203Y5066900D1*
X2187100Y5083797D1*
X2206433Y5097843D1*
X2227723Y5108690D1*
X2250450Y5116077D1*
X2274053Y5119813D1*
X2297947D1*
X2321550Y5116077D1*
X2344277Y5108690D1*
X2365567Y5097843D1*
X2384900Y5083797D1*
X2401797Y5066900D1*
X2412910Y5051957D1*
X2424203Y5066900D1*
X2441100Y5083797D1*
X2460433Y5097843D1*
X2481723Y5108690D1*
X2504450Y5116077D1*
X2528053Y5119813D1*
X2551947D1*
X2575550Y5116077D1*
X2598277Y5108690D1*
X2619567Y5097843D1*
X2638900Y5083797D1*
X2655797Y5066900D1*
X2666910Y5051957D1*
X2678203Y5066900D1*
X2695100Y5083797D1*
X2714433Y5097843D1*
X2735723Y5108690D1*
X2758450Y5116077D1*
X2782053Y5119813D1*
X2805947D1*
X2829550Y5116077D1*
X2852277Y5108690D1*
X2873567Y5097843D1*
X2892900Y5083797D1*
X2909797Y5066900D1*
X2920910Y5051957D1*
X2932203Y5066900D1*
X2949100Y5083797D1*
X2968433Y5097843D1*
X2982047Y5105153D1*
X2974947Y5121540D1*
X2969803Y5139470D1*
X2967027Y5157913D1*
X2966667Y5176563D1*
X2968730Y5195103D1*
X2973180Y5213220D1*
X2979943Y5230603D1*
X2988903Y5246963D1*
X2999913Y5262023D1*
X3012780Y5275527D1*
X3027293Y5287247D1*
X3043200Y5296987D1*
X3060240Y5304580D1*
X3078120Y5309897D1*
X3096537Y5312850D1*
X3115183Y5313390D1*
X3133740Y5311507D1*
X3151897Y5307230D1*
X3169347Y5300633D1*
X3185793Y5291833D1*
X3200957Y5280970D1*
X3214583Y5268233D1*
X3226443Y5253833D1*
X3236337Y5238020D1*
X3244093Y5221057D1*
X3249583Y5203227D1*
X3252713Y5184840D1*
X3253407Y5165333D1*
X3251590Y5146770D1*
X3247380Y5128597D1*
X3240847Y5111123D1*
X3238657Y5106497D1*
X3254943Y5112830D1*
X3278177Y5118410D1*
X3302000Y5120283D1*
X3325823Y5118410D1*
X3349057Y5112830D1*
X3371137Y5103687D1*
X3391510Y5091200D1*
X3409680Y5075680D1*
X3425200Y5057510D1*
X3428910Y5051957D1*
X3440203Y5066900D1*
X3457100Y5083797D1*
X3476433Y5097843D1*
X3497723Y5108690D1*
X3520450Y5116077D1*
X3544053Y5119813D1*
X3567947D1*
X3591550Y5116077D1*
X3614277Y5108690D1*
X3635567Y5097843D1*
X3654900Y5083797D1*
X3671797Y5066900D1*
X3682910Y5051957D1*
X3694203Y5066900D1*
X3711100Y5083797D1*
X3730433Y5097843D1*
X3751723Y5108690D1*
X3774450Y5116077D1*
X3798053Y5119813D1*
X3821947D1*
X3845550Y5116077D1*
X3868277Y5108690D1*
X3889567Y5097843D1*
X3908900Y5083797D1*
X3925797Y5066900D1*
X3936910Y5051957D1*
X3948203Y5066900D1*
X3965100Y5083797D1*
X3984433Y5097843D1*
X4005723Y5108690D1*
X4028450Y5116077D1*
X4052053Y5119813D1*
X4075947D1*
X4099550Y5116077D1*
X4122277Y5108690D1*
X4143567Y5097843D1*
X4162900Y5083797D1*
X4179797Y5066900D1*
X4190910Y5051957D1*
X4202203Y5066900D1*
X4219100Y5083797D1*
X4238433Y5097843D1*
X4259723Y5108690D1*
X4282450Y5116077D1*
X4306053Y5119813D1*
X4329947D1*
X4353550Y5116077D1*
X4376277Y5108690D1*
X4397567Y5097843D1*
X4416900Y5083797D1*
X4433797Y5066900D1*
X4444910Y5051957D1*
X4456203Y5066900D1*
X4473100Y5083797D1*
X4492433Y5097843D1*
X4513723Y5108690D1*
X4536450Y5116077D1*
X4560053Y5119813D1*
X4583947D1*
X4607550Y5116077D1*
X4630277Y5108690D1*
X4651567Y5097843D1*
X4670900Y5083797D1*
X4687797Y5066900D1*
X4698910Y5051957D1*
X4710203Y5066900D1*
X4727100Y5083797D1*
X4746433Y5097843D1*
X4767723Y5108690D1*
X4790450Y5116077D1*
X4814053Y5119813D1*
X4837947D1*
X4861550Y5116077D1*
X4884277Y5108690D1*
X4905567Y5097843D1*
X4924900Y5083797D1*
X4941797Y5066900D1*
X4952910Y5051957D1*
X4964203Y5066900D1*
X4981100Y5083797D1*
X5000433Y5097843D1*
X5021723Y5108690D1*
X5044450Y5116077D1*
X5068053Y5119813D1*
X5091947D1*
X5115550Y5116077D1*
X5138277Y5108690D1*
X5159567Y5097843D1*
X5178900Y5083797D1*
X5195797Y5066900D1*
X5206910Y5051957D1*
X5218203Y5066900D1*
X5235100Y5083797D1*
X5254433Y5097843D1*
X5275723Y5108690D1*
X5298450Y5116077D1*
X5322053Y5119813D1*
X5345947D1*
X5369550Y5116077D1*
X5392277Y5108690D1*
X5413567Y5097843D1*
X5432900Y5083797D1*
X5449797Y5066900D1*
X5460910Y5051957D1*
X5472203Y5066900D1*
X5489100Y5083797D1*
X5508433Y5097843D1*
X5529723Y5108690D1*
X5552450Y5116077D1*
X5576053Y5119813D1*
X5599947D1*
X5623550Y5116077D1*
X5646277Y5108690D1*
X5667567Y5097843D1*
X5686900Y5083797D1*
X5703797Y5066900D1*
X5714910Y5051957D1*
X5726203Y5066900D1*
X5743100Y5083797D1*
X5762433Y5097843D1*
X5783723Y5108690D1*
X5806450Y5116077D1*
X5830053Y5119813D1*
X5853947D1*
X5877550Y5116077D1*
X5900277Y5108690D1*
X5921567Y5097843D1*
X5940900Y5083797D1*
X5957797Y5066900D1*
X5968910Y5051957D1*
X5980203Y5066900D1*
X5997100Y5083797D1*
X6016433Y5097843D1*
X6037723Y5108690D1*
X6060450Y5116077D1*
X6084053Y5119813D1*
X6107947D1*
X6131550Y5116077D1*
X6154277Y5108690D1*
X6175567Y5097843D1*
X6194900Y5083797D1*
X6211797Y5066900D1*
X6225843Y5047567D1*
X6236690Y5026277D1*
X6244077Y5003550D1*
X6247813Y4979947D1*
X6248193Y4938000D1*
X6246410Y4914177D1*
X6240830Y4890943D1*
X6231687Y4868863D1*
X6219200Y4848490D1*
X6203680Y4830320D1*
X6199120Y4826103D1*
X6211797Y4812900D1*
X6225843Y4793567D1*
X6236690Y4772277D1*
X6244077Y4749550D1*
X6247813Y4725947D1*
X6248193Y4684000D1*
X6246410Y4660177D1*
X6240830Y4636943D1*
X6231687Y4614863D1*
X6219200Y4594490D1*
X6203680Y4576320D1*
X6185510Y4560800D1*
X6165137Y4548313D1*
X6143057Y4539170D1*
X6119823Y4533590D1*
X6096000Y4531717D1*
X6072177Y4533590D1*
X6048943Y4539170D1*
X6026863Y4548313D1*
X6006490Y4560800D1*
X5988320Y4576320D1*
X5972800Y4594490D1*
X5969090Y4600043D1*
X5957797Y4585100D1*
X5940900Y4568203D1*
X5921567Y4554157D1*
X5900277Y4543310D1*
X5877550Y4535923D1*
X5853947Y4532187D1*
X5830053D1*
X5806450Y4535923D1*
X5783723Y4543310D1*
X5762433Y4554157D1*
X5743100Y4568203D1*
X5726203Y4585100D1*
X5715090Y4600043D1*
X5703797Y4585100D1*
X5686900Y4568203D1*
X5667567Y4554157D1*
X5646277Y4543310D1*
X5623550Y4535923D1*
X5599947Y4532187D1*
X5576053D1*
X5552450Y4535923D1*
X5529723Y4543310D1*
X5508433Y4554157D1*
X5489100Y4568203D1*
X5472203Y4585100D1*
X5461090Y4600043D1*
X5449797Y4585100D1*
X5432900Y4568203D1*
X5413567Y4554157D1*
X5392277Y4543310D1*
X5369550Y4535923D1*
X5345947Y4532187D1*
X5322053D1*
X5298450Y4535923D1*
X5275723Y4543310D1*
X5254433Y4554157D1*
X5235100Y4568203D1*
X5218203Y4585100D1*
X5207090Y4600043D1*
X5195797Y4585100D1*
X5178900Y4568203D1*
X5159567Y4554157D1*
X5138277Y4543310D1*
X5115550Y4535923D1*
X5091947Y4532187D1*
X5068053D1*
X5044450Y4535923D1*
X5021723Y4543310D1*
X5000433Y4554157D1*
X4981100Y4568203D1*
X4964203Y4585100D1*
X4953090Y4600043D1*
X4941797Y4585100D1*
X4924900Y4568203D1*
X4905567Y4554157D1*
X4884277Y4543310D1*
X4861550Y4535923D1*
X4837947Y4532187D1*
X4814053D1*
X4790450Y4535923D1*
X4767723Y4543310D1*
X4746433Y4554157D1*
X4727100Y4568203D1*
X4710203Y4585100D1*
X4699090Y4600043D1*
X4687797Y4585100D1*
X4670900Y4568203D1*
X4651567Y4554157D1*
X4630277Y4543310D1*
X4607550Y4535923D1*
X4583947Y4532187D1*
X4560053D1*
X4536450Y4535923D1*
X4513723Y4543310D1*
X4492433Y4554157D1*
X4473100Y4568203D1*
X4456203Y4585100D1*
X4445090Y4600043D1*
X4433797Y4585100D1*
X4416900Y4568203D1*
X4397567Y4554157D1*
X4376277Y4543310D1*
X4353550Y4535923D1*
X4329947Y4532187D1*
X4306053D1*
X4282450Y4535923D1*
X4259723Y4543310D1*
X4238433Y4554157D1*
X4219100Y4568203D1*
X4202203Y4585100D1*
X4191090Y4600043D1*
X4179797Y4585100D1*
X4162900Y4568203D1*
X4143567Y4554157D1*
X4122277Y4543310D1*
X4099550Y4535923D1*
X4075947Y4532187D1*
X4052053D1*
X4028450Y4535923D1*
X4005723Y4543310D1*
X3984433Y4554157D1*
X3965100Y4568203D1*
X3948203Y4585100D1*
X3937090Y4600043D1*
X3925797Y4585100D1*
X3908900Y4568203D1*
X3889567Y4554157D1*
X3868277Y4543310D1*
X3845550Y4535923D1*
X3821947Y4532187D1*
X3798053D1*
X3774450Y4535923D1*
X3751723Y4543310D1*
X3730433Y4554157D1*
X3711100Y4568203D1*
X3694203Y4585100D1*
X3683090Y4600043D1*
X3671797Y4585100D1*
X3654900Y4568203D1*
X3635567Y4554157D1*
X3614277Y4543310D1*
X3591550Y4535923D1*
X3567947Y4532187D1*
X3544053D1*
X3520450Y4535923D1*
X3497723Y4543310D1*
X3476433Y4554157D1*
X3457100Y4568203D1*
X3440203Y4585100D1*
X3429090Y4600043D1*
X3417797Y4585100D1*
X3400900Y4568203D1*
X3381567Y4554157D1*
X3360277Y4543310D1*
X3337550Y4535923D1*
X3313947Y4532187D1*
X3290053D1*
X3266450Y4535923D1*
X3243723Y4543310D1*
X3222433Y4554157D1*
X3203100Y4568203D1*
X3186203Y4585100D1*
X3175090Y4600043D1*
X3163797Y4585100D1*
X3146900Y4568203D1*
X3127567Y4554157D1*
X3106277Y4543310D1*
X3083550Y4535923D1*
X3059947Y4532187D1*
X3036053D1*
X3012450Y4535923D1*
X2989723Y4543310D1*
X2968433Y4554157D1*
X2949100Y4568203D1*
X2932203Y4585100D1*
X2921090Y4600043D1*
X2909797Y4585100D1*
X2892900Y4568203D1*
X2873567Y4554157D1*
X2852277Y4543310D1*
X2829550Y4535923D1*
X2805947Y4532187D1*
X2782053D1*
X2758450Y4535923D1*
X2735723Y4543310D1*
X2714433Y4554157D1*
X2695100Y4568203D1*
X2678203Y4585100D1*
X2667090Y4600043D1*
X2655797Y4585100D1*
X2638900Y4568203D1*
X2619567Y4554157D1*
X2598277Y4543310D1*
X2575550Y4535923D1*
X2551947Y4532187D1*
X2528053D1*
X2504450Y4535923D1*
X2481723Y4543310D1*
X2460433Y4554157D1*
X2441100Y4568203D1*
X2424203Y4585100D1*
X2413090Y4600043D1*
X2401797Y4585100D1*
X2384900Y4568203D1*
X2365567Y4554157D1*
X2344277Y4543310D1*
X2321550Y4535923D1*
X2297947Y4532187D1*
X2274053D1*
X2250450Y4535923D1*
X2227723Y4543310D1*
X2206433Y4554157D1*
X2187100Y4568203D1*
X2170203Y4585100D1*
X2159090Y4600043D1*
X2147797Y4585100D1*
X2130900Y4568203D1*
X2111567Y4554157D1*
X2090277Y4543310D1*
X2067550Y4535923D1*
X2043947Y4532187D1*
X2020053D1*
X1996450Y4535923D1*
X1973723Y4543310D1*
X1952433Y4554157D1*
X1933100Y4568203D1*
X1916203Y4585100D1*
X1905090Y4600043D1*
X1893797Y4585100D1*
X1876900Y4568203D1*
X1857567Y4554157D1*
X1836277Y4543310D1*
X1813550Y4535923D1*
X1789947Y4532187D1*
X1766053D1*
X1742450Y4535923D1*
X1719723Y4543310D1*
X1698433Y4554157D1*
X1679100Y4568203D1*
X1662203Y4585100D1*
X1651090Y4600043D1*
X1639797Y4585100D1*
X1622900Y4568203D1*
X1603567Y4554157D1*
X1582277Y4543310D1*
X1559550Y4535923D1*
X1535947Y4532187D1*
X1512053D1*
X1488450Y4535923D1*
X1465723Y4543310D1*
X1444433Y4554157D1*
X1425100Y4568203D1*
X1408203Y4585100D1*
X1397090Y4600043D1*
X1385797Y4585100D1*
X1368900Y4568203D1*
X1349567Y4554157D1*
X1328277Y4543310D1*
X1305550Y4535923D1*
X1281947Y4532187D1*
X1258053D1*
X1234450Y4535923D1*
X1211723Y4543310D1*
X1190433Y4554157D1*
X1171100Y4568203D1*
X1154203Y4585100D1*
X1143090Y4600043D1*
X1131797Y4585100D1*
X1114900Y4568203D1*
X1095567Y4554157D1*
X1074277Y4543310D1*
X1051550Y4535923D1*
X1027947Y4532187D1*
X1004053D1*
X980450Y4535923D1*
X957723Y4543310D1*
X936433Y4554157D1*
X917100Y4568203D1*
X900203Y4585100D1*
X889090Y4600043D1*
X877797Y4585100D1*
X860900Y4568203D1*
X841567Y4554157D1*
X820277Y4543310D1*
X797550Y4535923D1*
X773947Y4532187D1*
X750053D1*
X726450Y4535923D1*
X703723Y4543310D1*
X682433Y4554157D1*
X663100Y4568203D1*
X660253Y4570833D1*
X660283Y4531717D1*
X355717D1*
Y4866283D1*
X373673D1*
X366783Y4881010D1*
X360873Y4898703D1*
X357173Y4916990D1*
X355737Y4935587D1*
X355717Y4967790D1*
X355733Y142013D2*
X356583Y158223D1*
X359703Y176617D1*
X365050Y194490D1*
X372540Y211573D1*
X382063Y227613D1*
X393477Y242370D1*
X406607Y255620D1*
X421260Y267167D1*
X437217Y276833D1*
X454233Y284477D1*
X472057Y289980D1*
X490420Y293267D1*
X509050Y294280D1*
X527660Y293010D1*
X545977Y289473D1*
X563723Y283723D1*
X580633Y275847D1*
X596453Y265960D1*
X610947Y254213D1*
X623897Y240783D1*
X634990Y226040D1*
X646203Y240900D1*
X663100Y257797D1*
X682433Y271843D1*
X703723Y282690D1*
X726450Y290077D1*
X750053Y293813D1*
X773947D1*
X797550Y290077D1*
X820277Y282690D1*
X841567Y271843D1*
X860900Y257797D1*
X877797Y240900D1*
X888910Y225957D1*
X900203Y240900D1*
X917100Y257797D1*
X936433Y271843D1*
X957723Y282690D1*
X980450Y290077D1*
X1004053Y293813D1*
X1027947D1*
X1051550Y290077D1*
X1074277Y282690D1*
X1095567Y271843D1*
X1114900Y257797D1*
X1131797Y240900D1*
X1142910Y225957D1*
X1154203Y240900D1*
X1171100Y257797D1*
X1190433Y271843D1*
X1211723Y282690D1*
X1234450Y290077D1*
X1258053Y293813D1*
X1281947D1*
X1305550Y290077D1*
X1328277Y282690D1*
X1349567Y271843D1*
X1368900Y257797D1*
X1385797Y240900D1*
X1396910Y225957D1*
X1408203Y240900D1*
X1425100Y257797D1*
X1444433Y271843D1*
X1465723Y282690D1*
X1488450Y290077D1*
X1512053Y293813D1*
X1535947D1*
X1559550Y290077D1*
X1582277Y282690D1*
X1603567Y271843D1*
X1622900Y257797D1*
X1639797Y240900D1*
X1650910Y225957D1*
X1662203Y240900D1*
X1679100Y257797D1*
X1698433Y271843D1*
X1719723Y282690D1*
X1742450Y290077D1*
X1766053Y293813D1*
X1789947D1*
X1813550Y290077D1*
X1836277Y282690D1*
X1857567Y271843D1*
X1876900Y257797D1*
X1893797Y240900D1*
X1904910Y225957D1*
X1916203Y240900D1*
X1933100Y257797D1*
X1952433Y271843D1*
X1973723Y282690D1*
X1996450Y290077D1*
X2020053Y293813D1*
X2043947D1*
X2067550Y290077D1*
X2090277Y282690D1*
X2111567Y271843D1*
X2130900Y257797D1*
X2147797Y240900D1*
X2158910Y225957D1*
X2170203Y240900D1*
X2187100Y257797D1*
X2206433Y271843D1*
X2227723Y282690D1*
X2250450Y290077D1*
X2274053Y293813D1*
X2297947D1*
X2321550Y290077D1*
X2344277Y282690D1*
X2365567Y271843D1*
X2384900Y257797D1*
X2401797Y240900D1*
X2412910Y225957D1*
X2424203Y240900D1*
X2441100Y257797D1*
X2460433Y271843D1*
X2481723Y282690D1*
X2504450Y290077D1*
X2528053Y293813D1*
X2551947D1*
X2575550Y290077D1*
X2598277Y282690D1*
X2619567Y271843D1*
X2638900Y257797D1*
X2655797Y240900D1*
X2666910Y225957D1*
X2678203Y240900D1*
X2695100Y257797D1*
X2714433Y271843D1*
X2735723Y282690D1*
X2758450Y290077D1*
X2782053Y293813D1*
X2805947D1*
X2829550Y290077D1*
X2852277Y282690D1*
X2873567Y271843D1*
X2892900Y257797D1*
X2909797Y240900D1*
X2920910Y225957D1*
X2932203Y240900D1*
X2949100Y257797D1*
X2968433Y271843D1*
X2989723Y282690D1*
X3012450Y290077D1*
X3031273Y293250D1*
X3027497Y313273D1*
X3026530Y331900D1*
X3027987Y350497D1*
X3031847Y368747D1*
X3038040Y386343D1*
X3046467Y402983D1*
X3056977Y418393D1*
X3069400Y432310D1*
X3083523Y444497D1*
X3099107Y454747D1*
X3115890Y462890D1*
X3133587Y468787D1*
X3151900Y472337D1*
X3170517Y473483D1*
X3189127Y472203D1*
X3207413Y468520D1*
X3225067Y462497D1*
X3241790Y454233D1*
X3257300Y443870D1*
X3271333Y431580D1*
X3283657Y417577D1*
X3294057Y402093D1*
X3302360Y385390D1*
X3308430Y367750D1*
X3312157Y349473D1*
X3313483Y330000D1*
X3312270Y311387D1*
X3308913Y294130D1*
X3325823Y292410D1*
X3349057Y286830D1*
X3371137Y277687D1*
X3391510Y265200D1*
X3409680Y249680D1*
X3425200Y231510D1*
X3428910Y225957D1*
X3440203Y240900D1*
X3457100Y257797D1*
X3476433Y271843D1*
X3497723Y282690D1*
X3520450Y290077D1*
X3544053Y293813D1*
X3567947D1*
X3591550Y290077D1*
X3614277Y282690D1*
X3635567Y271843D1*
X3654900Y257797D1*
X3671797Y240900D1*
X3682910Y225957D1*
X3694203Y240900D1*
X3711100Y257797D1*
X3730433Y271843D1*
X3751723Y282690D1*
X3774450Y290077D1*
X3798053Y293813D1*
X3821947D1*
X3845550Y290077D1*
X3868277Y282690D1*
X3889567Y271843D1*
X3908900Y257797D1*
X3925797Y240900D1*
X3936910Y225957D1*
X3948203Y240900D1*
X3965100Y257797D1*
X3984433Y271843D1*
X4005723Y282690D1*
X4028450Y290077D1*
X4052053Y293813D1*
X4075947D1*
X4099550Y290077D1*
X4122277Y282690D1*
X4143567Y271843D1*
X4162900Y257797D1*
X4179797Y240900D1*
X4190910Y225957D1*
X4202203Y240900D1*
X4219100Y257797D1*
X4238433Y271843D1*
X4259723Y282690D1*
X4282450Y290077D1*
X4306053Y293813D1*
X4329947D1*
X4353550Y290077D1*
X4376277Y282690D1*
X4397567Y271843D1*
X4416900Y257797D1*
X4433797Y240900D1*
X4444910Y225957D1*
X4457477Y242370D1*
X4470607Y255620D1*
X4485260Y267167D1*
X4501217Y276833D1*
X4518233Y284477D1*
X4536057Y289980D1*
X4554420Y293267D1*
X4573050Y294280D1*
X4591660Y293010D1*
X4609977Y289473D1*
X4627723Y283723D1*
X4644633Y275847D1*
X4660453Y265960D1*
X4674947Y254213D1*
X4687897Y240783D1*
X4698990Y226040D1*
X4710203Y240900D1*
X4727100Y257797D1*
X4746433Y271843D1*
X4767723Y282690D1*
X4790450Y290077D1*
X4814053Y293813D1*
X4837947D1*
X4861550Y290077D1*
X4884277Y282690D1*
X4905567Y271843D1*
X4924900Y257797D1*
X4941797Y240900D1*
X4952910Y225957D1*
X4964203Y240900D1*
X4981100Y257797D1*
X5000433Y271843D1*
X5021723Y282690D1*
X5044450Y290077D1*
X5068053Y293813D1*
X5091947D1*
X5115550Y290077D1*
X5138277Y282690D1*
X5159567Y271843D1*
X5178900Y257797D1*
X5195797Y240900D1*
X5206910Y225957D1*
X5218203Y240900D1*
X5235100Y257797D1*
X5254433Y271843D1*
X5275723Y282690D1*
X5298450Y290077D1*
X5322053Y293813D1*
X5345947D1*
X5369550Y290077D1*
X5392277Y282690D1*
X5413567Y271843D1*
X5432900Y257797D1*
X5449797Y240900D1*
X5460910Y225957D1*
X5472203Y240900D1*
X5489100Y257797D1*
X5508433Y271843D1*
X5529723Y282690D1*
X5552450Y290077D1*
X5576053Y293813D1*
X5599947D1*
X5623550Y290077D1*
X5646277Y282690D1*
X5667567Y271843D1*
X5686900Y257797D1*
X5703797Y240900D1*
X5714910Y225957D1*
X5727477Y242370D1*
X5740607Y255620D1*
X5755260Y267167D1*
X5771217Y276833D1*
X5788233Y284477D1*
X5806057Y289980D1*
X5824420Y293267D1*
X5843050Y294280D1*
X5861660Y293010D1*
X5879977Y289473D1*
X5897723Y283723D1*
X5914633Y275847D1*
X5930453Y265960D1*
X5944947Y254213D1*
X5957897Y240783D1*
X5968990Y226040D1*
X5981477Y242370D1*
X5994607Y255620D1*
X6009260Y267167D1*
X6025217Y276833D1*
X6042233Y284477D1*
X6060057Y289980D1*
X6078420Y293267D1*
X6097050Y294280D1*
X6115660Y293010D1*
X6133977Y289473D1*
X6151723Y283723D1*
X6168633Y275847D1*
X6184453Y265960D1*
X6198947Y254213D1*
X6211897Y240783D1*
X6223103Y225873D1*
X6232407Y209703D1*
X6239660Y192517D1*
X6244760Y174570D1*
X6247627Y156137D1*
X6248283Y132667D1*
X6247640Y98020D1*
X6244793Y79583D1*
X6239713Y61633D1*
X6232477Y44440D1*
X6223190Y28260D1*
X6211997Y13337D1*
X6199183Y7D1*
X6211897Y-13217D1*
X6223103Y-28127D1*
X6232407Y-44297D1*
X6239660Y-61483D1*
X6244760Y-79430D1*
X6247627Y-97863D1*
X6248283Y-121333D1*
X6247640Y-155980D1*
X6244793Y-174417D1*
X6239713Y-192367D1*
X6232477Y-209560D1*
X6223190Y-225740D1*
X6211997Y-240663D1*
X6199063Y-254107D1*
X6184583Y-265867D1*
X6168773Y-275770D1*
X6151870Y-283663D1*
X6134130Y-289433D1*
X6115817Y-292990D1*
X6097207Y-294280D1*
X6078577Y-293283D1*
X6060210Y-290017D1*
X6042380Y-284530D1*
X6025357Y-276907D1*
X6009390Y-267257D1*
X5994727Y-255727D1*
X5981580Y-242490D1*
X5969017Y-226027D1*
X5957997Y-240663D1*
X5945063Y-254107D1*
X5930583Y-265867D1*
X5914773Y-275770D1*
X5897870Y-283663D1*
X5880130Y-289433D1*
X5861817Y-292990D1*
X5843207Y-294280D1*
X5824577Y-293283D1*
X5806210Y-290017D1*
X5788380Y-284530D1*
X5771357Y-276907D1*
X5755390Y-267257D1*
X5740727Y-255727D1*
X5727580Y-242490D1*
X5715017Y-226027D1*
X5703797Y-240900D1*
X5686900Y-257797D1*
X5667567Y-271843D1*
X5646277Y-282690D1*
X5623550Y-290077D1*
X5599947Y-293813D1*
X5576053D1*
X5552450Y-290077D1*
X5529723Y-282690D1*
X5508433Y-271843D1*
X5489100Y-257797D1*
X5472203Y-240900D1*
X5461090Y-225957D1*
X5449797Y-240900D1*
X5432900Y-257797D1*
X5418267Y-268703D1*
X5428480Y-286123D1*
X5435683Y-303333D1*
X5440590Y-321330D1*
X5443120Y-339810D1*
X5443180Y-359327D1*
X5440760Y-377823D1*
X5435960Y-395847D1*
X5428863Y-413100D1*
X5419590Y-429283D1*
X5408293Y-444127D1*
X5395167Y-457380D1*
X5380433Y-468820D1*
X5364337Y-478250D1*
X5347157Y-485513D1*
X5329177Y-490487D1*
X5310707Y-493083D1*
X5292053Y-493263D1*
X5273537Y-491020D1*
X5255463Y-486397D1*
X5238147Y-479467D1*
X5221873Y-470347D1*
X5206920Y-459197D1*
X5193540Y-446197D1*
X5181960Y-431573D1*
X5172377Y-415570D1*
X5164947Y-398460D1*
X5159803Y-380530D1*
X5157027Y-362087D1*
X5156667Y-343437D1*
X5158730Y-324897D1*
X5163180Y-306780D1*
X5169943Y-289397D1*
X5178903Y-273037D1*
X5189913Y-257977D1*
X5202780Y-244473D1*
X5213713Y-235363D1*
X5207090Y-225957D1*
X5195797Y-240900D1*
X5178900Y-257797D1*
X5159567Y-271843D1*
X5138277Y-282690D1*
X5115550Y-290077D1*
X5091947Y-293813D1*
X5068053D1*
X5044450Y-290077D1*
X5021723Y-282690D1*
X5000433Y-271843D1*
X4981100Y-257797D1*
X4964203Y-240900D1*
X4953090Y-225957D1*
X4941797Y-240900D1*
X4924900Y-257797D1*
X4905567Y-271843D1*
X4884277Y-282690D1*
X4861550Y-290077D1*
X4837947Y-293813D1*
X4814053D1*
X4790450Y-290077D1*
X4767723Y-282690D1*
X4746433Y-271843D1*
X4727100Y-257797D1*
X4710203Y-240900D1*
X4699090Y-225957D1*
X4687797Y-240900D1*
X4670900Y-257797D1*
X4651567Y-271843D1*
X4630277Y-282690D1*
X4607550Y-290077D1*
X4583947Y-293813D1*
X4560053D1*
X4536450Y-290077D1*
X4513723Y-282690D1*
X4492433Y-271843D1*
X4473100Y-257797D1*
X4456203Y-240900D1*
X4445090Y-225957D1*
X4433797Y-240900D1*
X4416900Y-257797D1*
X4397567Y-271843D1*
X4376277Y-282690D1*
X4353550Y-290077D1*
X4329947Y-293813D1*
X4306053D1*
X4282450Y-290077D1*
X4259723Y-282690D1*
X4238433Y-271843D1*
X4219100Y-257797D1*
X4202203Y-240900D1*
X4191090Y-225957D1*
X4179797Y-240900D1*
X4162900Y-257797D1*
X4143567Y-271843D1*
X4122277Y-282690D1*
X4099550Y-290077D1*
X4075947Y-293813D1*
X4052053D1*
X4028450Y-290077D1*
X4005723Y-282690D1*
X3984433Y-271843D1*
X3965100Y-257797D1*
X3948203Y-240900D1*
X3937090Y-225957D1*
X3925797Y-240900D1*
X3908900Y-257797D1*
X3889567Y-271843D1*
X3868277Y-282690D1*
X3845550Y-290077D1*
X3821947Y-293813D1*
X3798053D1*
X3774450Y-290077D1*
X3751723Y-282690D1*
X3730433Y-271843D1*
X3711100Y-257797D1*
X3694203Y-240900D1*
X3683090Y-225957D1*
X3671797Y-240900D1*
X3654900Y-257797D1*
X3635567Y-271843D1*
X3614277Y-282690D1*
X3591550Y-290077D1*
X3567947Y-293813D1*
X3544053D1*
X3520450Y-290077D1*
X3497723Y-282690D1*
X3476433Y-271843D1*
X3457100Y-257797D1*
X3440203Y-240900D1*
X3429090Y-225957D1*
X3417797Y-240900D1*
X3400900Y-257797D1*
X3381567Y-271843D1*
X3360277Y-282690D1*
X3337550Y-290077D1*
X3313947Y-293813D1*
X3290053D1*
X3266450Y-290077D1*
X3243723Y-282690D1*
X3222433Y-271843D1*
X3203100Y-257797D1*
X3186203Y-240900D1*
X3175090Y-225957D1*
X3163797Y-240900D1*
X3146900Y-257797D1*
X3127567Y-271843D1*
X3106277Y-282690D1*
X3083550Y-290077D1*
X3059947Y-293813D1*
X3036053D1*
X3012450Y-290077D1*
X2989723Y-282690D1*
X2968433Y-271843D1*
X2949100Y-257797D1*
X2932203Y-240900D1*
X2921090Y-225957D1*
X2909797Y-240900D1*
X2892900Y-257797D1*
X2873567Y-271843D1*
X2852277Y-282690D1*
X2829550Y-290077D1*
X2805947Y-293813D1*
X2782053D1*
X2758450Y-290077D1*
X2735723Y-282690D1*
X2714433Y-271843D1*
X2695100Y-257797D1*
X2678203Y-240900D1*
X2667090Y-225957D1*
X2655797Y-240900D1*
X2638900Y-257797D1*
X2619567Y-271843D1*
X2598277Y-282690D1*
X2575550Y-290077D1*
X2551947Y-293813D1*
X2528053D1*
X2504450Y-290077D1*
X2481723Y-282690D1*
X2460433Y-271843D1*
X2441100Y-257797D1*
X2424203Y-240900D1*
X2413090Y-225957D1*
X2401797Y-240900D1*
X2384900Y-257797D1*
X2365567Y-271843D1*
X2344277Y-282690D1*
X2321550Y-290077D1*
X2297947Y-293813D1*
X2274053D1*
X2250450Y-290077D1*
X2227723Y-282690D1*
X2206433Y-271843D1*
X2187100Y-257797D1*
X2170203Y-240900D1*
X2159090Y-225957D1*
X2147797Y-240900D1*
X2130900Y-257797D1*
X2111567Y-271843D1*
X2090277Y-282690D1*
X2067550Y-290077D1*
X2043947Y-293813D1*
X2020053D1*
X1996450Y-290077D1*
X1973723Y-282690D1*
X1952433Y-271843D1*
X1933100Y-257797D1*
X1916203Y-240900D1*
X1905090Y-225957D1*
X1893797Y-240900D1*
X1876900Y-257797D1*
X1857567Y-271843D1*
X1836277Y-282690D1*
X1813550Y-290077D1*
X1789947Y-293813D1*
X1766053D1*
X1742450Y-290077D1*
X1719723Y-282690D1*
X1698433Y-271843D1*
X1679100Y-257797D1*
X1662203Y-240900D1*
X1651090Y-225957D1*
X1639797Y-240900D1*
X1622900Y-257797D1*
X1603567Y-271843D1*
X1582277Y-282690D1*
X1559550Y-290077D1*
X1535947Y-293813D1*
X1512053D1*
X1488450Y-290077D1*
X1465723Y-282690D1*
X1444433Y-271843D1*
X1425100Y-257797D1*
X1408203Y-240900D1*
X1397090Y-225957D1*
X1385797Y-240900D1*
X1368900Y-257797D1*
X1349567Y-271843D1*
X1328277Y-282690D1*
X1305550Y-290077D1*
X1281947Y-293813D1*
X1258053D1*
X1234450Y-290077D1*
X1211723Y-282690D1*
X1190433Y-271843D1*
X1171100Y-257797D1*
X1154203Y-240900D1*
X1143090Y-225957D1*
X1131797Y-240900D1*
X1114900Y-257797D1*
X1095567Y-271843D1*
X1074277Y-282690D1*
X1051550Y-290077D1*
X1027947Y-293813D1*
X1004053D1*
X980450Y-290077D1*
X957723Y-282690D1*
X936433Y-271843D1*
X917100Y-257797D1*
X900203Y-240900D1*
X889090Y-225957D1*
X877797Y-240900D1*
X860900Y-257797D1*
X841567Y-271843D1*
X820277Y-282690D1*
X797550Y-290077D1*
X773947Y-293813D1*
X750053D1*
X726450Y-290077D1*
X703723Y-282690D1*
X682433Y-271843D1*
X663100Y-257797D1*
X660253Y-255167D1*
X660283Y-294283D1*
X355717D1*
Y40283D1*
X373673D1*
X366783Y55010D1*
X360873Y72703D1*
X357173Y90990D1*
X355737Y109587D1*
X355717Y141693D1*
X-652783Y-1394667D2*
X-654340Y-1413257D1*
X-657960Y-1431560D1*
X-663597Y-1449347D1*
X-671180Y-1466393D1*
X-680610Y-1482490D1*
X-691777Y-1497437D1*
X-704537Y-1511047D1*
X-718737Y-1523150D1*
X-734193Y-1533600D1*
X-750717Y-1542260D1*
X-768103Y-1549030D1*
X-786133Y-1553820D1*
X-804587Y-1556573D1*
X-823233Y-1557253D1*
X-841837Y-1555853D1*
X-860170Y-1552390D1*
X-878003Y-1546907D1*
X-895113Y-1539470D1*
X-911290Y-1530177D1*
X-926333Y-1519140D1*
X-940053Y-1506497D1*
X-952277Y-1492403D1*
X-962857Y-1477037D1*
X-971660Y-1460587D1*
X-978580Y-1443260D1*
X-983523Y-1425270D1*
X-986433Y-1406840D1*
X-987273Y-1388203D1*
X-986033Y-1369587D1*
X-982727Y-1351227D1*
X-977397Y-1333347D1*
X-970110Y-1316170D1*
X-960957Y-1299913D1*
X-950047Y-1284780D1*
X-937520Y-1270953D1*
X-923533Y-1258607D1*
X-908257Y-1247893D1*
X-891883Y-1238950D1*
X-874617Y-1231883D1*
X-856670Y-1226787D1*
X-838267Y-1223717D1*
X-819637Y-1222717D1*
X-801013Y-1223797D1*
X-782623Y-1226947D1*
X-764697Y-1232123D1*
X-747460Y-1239263D1*
X-731127Y-1248277D1*
X-715897Y-1259057D1*
X-701963Y-1271463D1*
X-689497Y-1285343D1*
X-678657Y-1300527D1*
X-669570Y-1316823D1*
X-662357Y-1334030D1*
X-657107Y-1351930D1*
X-653880Y-1370307D1*
X-652717Y-1390000D1*
X-652783Y-1394667D1*
X-423233Y-873123D2*
X-427340Y-899050D1*
X-435450Y-924017D1*
X-447367Y-947407D1*
X-462797Y-968643D1*
X-481357Y-987203D1*
X-502593Y-1002633D1*
X-525983Y-1014550D1*
X-550950Y-1022660D1*
X-576877Y-1026767D1*
X-603123D1*
X-629050Y-1022660D1*
X-654017Y-1014550D1*
X-677407Y-1002633D1*
X-698643Y-987203D1*
X-717203Y-968643D1*
X-732633Y-947407D1*
X-744550Y-924017D1*
X-752660Y-899050D1*
X-756767Y-873123D1*
Y-846877D1*
X-752660Y-820950D1*
X-744550Y-795983D1*
X-732633Y-772593D1*
X-717203Y-751357D1*
X-698643Y-732797D1*
X-677407Y-717367D1*
X-654017Y-705450D1*
X-629050Y-697340D1*
X-603123Y-693233D1*
X-576877D1*
X-550950Y-697340D1*
X-525983Y-705450D1*
X-502593Y-717367D1*
X-481357Y-732797D1*
X-462797Y-751357D1*
X-447367Y-772593D1*
X-435450Y-795983D1*
X-427340Y-820950D1*
X-423233Y-846877D1*
Y-873123D1*
X-883233D2*
X-887340Y-899050D1*
X-895450Y-924017D1*
X-907367Y-947407D1*
X-922797Y-968643D1*
X-941357Y-987203D1*
X-962593Y-1002633D1*
X-985983Y-1014550D1*
X-1010950Y-1022660D1*
X-1036877Y-1026767D1*
X-1063123D1*
X-1089050Y-1022660D1*
X-1114017Y-1014550D1*
X-1137407Y-1002633D1*
X-1158643Y-987203D1*
X-1177203Y-968643D1*
X-1192633Y-947407D1*
X-1204550Y-924017D1*
X-1212660Y-899050D1*
X-1216767Y-873123D1*
Y-846877D1*
X-1212660Y-820950D1*
X-1204550Y-795983D1*
X-1192633Y-772593D1*
X-1177203Y-751357D1*
X-1158643Y-732797D1*
X-1137407Y-717367D1*
X-1114017Y-705450D1*
X-1089050Y-697340D1*
X-1063123Y-693233D1*
X-1036877D1*
X-1010950Y-697340D1*
X-985983Y-705450D1*
X-962593Y-717367D1*
X-941357Y-732797D1*
X-922797Y-751357D1*
X-907367Y-772593D1*
X-895450Y-795983D1*
X-887340Y-820950D1*
X-883233Y-846877D1*
Y-873123D1*
X3241300Y-1216283D2*
X3218583Y-1227647D1*
X3204420Y-1232873D1*
X3189887Y-1236970D1*
X3175080Y-1239917D1*
X3160087Y-1241690D1*
X3145000Y-1242283D1*
X3129913Y-1241690D1*
X3114920Y-1239917D1*
X3100113Y-1236970D1*
X3085580Y-1232873D1*
X3071417Y-1227647D1*
X3057707Y-1221327D1*
X3044533Y-1213950D1*
X3031980Y-1205560D1*
X3020123Y-1196213D1*
X3004270Y-1180810D1*
X2936003Y-1180783D1*
X2919877Y-1196213D1*
X2908020Y-1205560D1*
X2895467Y-1213950D1*
X2882293Y-1221327D1*
X2868583Y-1227647D1*
X2854420Y-1232873D1*
X2839887Y-1236970D1*
X2825080Y-1239917D1*
X2810087Y-1241690D1*
X2795000Y-1242283D1*
X2779913Y-1241690D1*
X2764920Y-1239917D1*
X2750113Y-1236970D1*
X2735580Y-1232873D1*
X2721417Y-1227647D1*
X2707707Y-1221327D1*
X2694533Y-1213950D1*
X2681980Y-1205560D1*
X2670123Y-1196213D1*
X2659037Y-1185963D1*
X2648787Y-1174877D1*
X2639440Y-1163020D1*
X2631050Y-1150467D1*
X2620093Y-1129530D1*
X2610520Y-1147857D1*
X2597457Y-1167173D1*
X2582150Y-1184767D1*
X2564830Y-1200380D1*
X2545743Y-1213780D1*
X2525177Y-1224770D1*
X2503433Y-1233190D1*
X2480827Y-1238917D1*
X2457697Y-1241863D1*
X2434377Y-1241990D1*
X2411213Y-1239293D1*
X2388550Y-1233810D1*
X2366713Y-1225623D1*
X2346030Y-1214857D1*
X2326800Y-1201663D1*
X2309310Y-1186240D1*
X2293817Y-1168813D1*
X2287287Y-1159973D1*
X2287283Y-1242283D1*
X1902717D1*
Y-857717D1*
X2287283D1*
Y-940023D1*
X2300097Y-923603D1*
X2316463Y-906990D1*
X2334720Y-892483D1*
X2354600Y-880293D1*
X2375807Y-870597D1*
X2398033Y-863540D1*
X2420950Y-859227D1*
X2444220Y-857717D1*
X2467500Y-859037D1*
X2490453Y-863167D1*
X2512733Y-870043D1*
X2534020Y-879563D1*
X2553997Y-891593D1*
X2572370Y-905953D1*
X2588870Y-922430D1*
X2603257Y-940783D1*
X2615313Y-960743D1*
X2619987Y-970327D1*
X2631050Y-949533D1*
X2639440Y-936980D1*
X2648787Y-925123D1*
X2659037Y-914037D1*
X2670123Y-903787D1*
X2681980Y-894440D1*
X2694533Y-886050D1*
X2707707Y-878673D1*
X2721417Y-872353D1*
X2735580Y-867127D1*
X2750113Y-863030D1*
X2764920Y-860083D1*
X2779913Y-858310D1*
X2795000Y-857717D1*
X2810087Y-858310D1*
X2825080Y-860083D1*
X2839887Y-863030D1*
X2854420Y-867127D1*
X2868583Y-872353D1*
X2882293Y-878673D1*
X2895467Y-886050D1*
X2908020Y-894440D1*
X2919877Y-903787D1*
X2935730Y-919190D1*
X3003997Y-919217D1*
X3020123Y-903787D1*
X3031980Y-894440D1*
X3044533Y-886050D1*
X3057707Y-878673D1*
X3071417Y-872353D1*
X3085580Y-867127D1*
X3100113Y-863030D1*
X3114920Y-860083D1*
X3129913Y-858310D1*
X3145000Y-857717D1*
X3160087Y-858310D1*
X3175080Y-860083D1*
X3189887Y-863030D1*
X3204420Y-867127D1*
X3218583Y-872353D1*
X3232293Y-878673D1*
X3245467Y-886050D1*
X3258020Y-894440D1*
X3269877Y-903787D1*
X3288690Y-922393D1*
X3310050Y-929173D1*
X3328333Y-938490D1*
X3344937Y-950550D1*
X3401977Y-1007020D1*
X3534163Y-1139207D1*
X3557747Y-1139217D1*
X3557717Y-857717D1*
X3942283D1*
Y-940023D1*
X3953787Y-925123D1*
X3964037Y-914037D1*
X3975123Y-903787D1*
X3986980Y-894440D1*
X3999533Y-886050D1*
X4012707Y-878673D1*
X4026417Y-872353D1*
X4040580Y-867127D1*
X4055113Y-863030D1*
X4069920Y-860083D1*
X4084913Y-858310D1*
X4100000Y-857717D1*
X4115087Y-858310D1*
X4130080Y-860083D1*
X4144887Y-863030D1*
X4159420Y-867127D1*
X4173583Y-872353D1*
X4187293Y-878673D1*
X4200467Y-886050D1*
X4213020Y-894440D1*
X4224877Y-903787D1*
X4235963Y-914037D1*
X4246213Y-925123D1*
X4255560Y-936980D1*
X4263950Y-949533D1*
X4271327Y-962707D1*
X4277647Y-976417D1*
X4282873Y-990580D1*
X4286970Y-1005113D1*
X4289917Y-1019920D1*
X4291690Y-1034913D1*
X4292283Y-1050000D1*
X4291690Y-1065087D1*
X4289917Y-1080080D1*
X4286970Y-1094887D1*
X4282873Y-1109420D1*
X4277647Y-1123583D1*
X4270260Y-1139200D1*
X5125820Y-1139217D1*
X5165830Y-1099217D1*
X5172157Y-1084860D1*
X5183920Y-1065663D1*
X5198543Y-1048543D1*
X5215663Y-1033920D1*
X5234860Y-1022157D1*
X5255660Y-1013540D1*
X5277553Y-1008283D1*
X5300000Y-1006517D1*
X5322447Y-1008283D1*
X5344340Y-1013540D1*
X5365140Y-1022157D1*
X5384337Y-1033920D1*
X5401457Y-1048543D1*
X5416080Y-1065663D1*
X5427843Y-1084860D1*
X5436460Y-1105660D1*
X5441717Y-1127553D1*
X5443483Y-1150000D1*
X5441717Y-1172447D1*
X5436460Y-1194340D1*
X5427843Y-1215140D1*
X5416080Y-1234337D1*
X5401457Y-1251457D1*
X5384337Y-1266080D1*
X5365140Y-1277843D1*
X5350903Y-1284040D1*
X5264907Y-1369473D1*
X5261647Y-1373913D1*
X5270490Y-1390337D1*
X5277127Y-1407770D1*
X5281447Y-1425917D1*
X5283377Y-1444470D1*
X5282800Y-1463977D1*
X5279780Y-1482387D1*
X5274397Y-1500247D1*
X5266743Y-1517257D1*
X5256947Y-1533130D1*
X5245177Y-1547600D1*
X5231623Y-1560420D1*
X5216527Y-1571373D1*
X5200133Y-1580273D1*
X5182727Y-1586973D1*
X5164593Y-1591360D1*
X5146047Y-1593357D1*
X5127400Y-1592930D1*
X5108963Y-1590087D1*
X5091053Y-1584877D1*
X5073970Y-1577387D1*
X5058000Y-1567743D1*
X5043420Y-1556110D1*
X5030470Y-1542687D1*
X5019370Y-1527693D1*
X5010310Y-1511387D1*
X5003443Y-1494043D1*
X4998883Y-1475957D1*
X4996710Y-1457430D1*
X4996957Y-1438777D1*
X4999620Y-1420317D1*
X5005233Y-1400800D1*
X3469740Y-1400380D1*
X3449470Y-1397170D1*
X3429950Y-1390827D1*
X3411667Y-1381510D1*
X3395063Y-1369450D1*
X3338023Y-1312980D1*
X3241413Y-1216370D1*
X7247217Y-114667D2*
X7245660Y-133257D1*
X7242040Y-151560D1*
X7236403Y-169347D1*
X7228820Y-186393D1*
X7219390Y-202490D1*
X7208223Y-217437D1*
X7195463Y-231047D1*
X7181263Y-243150D1*
X7165807Y-253600D1*
X7149283Y-262260D1*
X7131897Y-269030D1*
X7113867Y-273820D1*
X7095413Y-276573D1*
X7076767Y-277253D1*
X7058163Y-275853D1*
X7039830Y-272390D1*
X7021997Y-266907D1*
X7004887Y-259470D1*
X6988710Y-250177D1*
X6973667Y-239140D1*
X6959947Y-226497D1*
X6947723Y-212403D1*
X6937143Y-197037D1*
X6928340Y-180587D1*
X6921420Y-163260D1*
X6916477Y-145270D1*
X6913567Y-126840D1*
X6912727Y-108203D1*
X6913967Y-89587D1*
X6917273Y-71227D1*
X6922603Y-53347D1*
X6929890Y-36170D1*
X6939043Y-19913D1*
X6949953Y-4780D1*
X6962480Y9047D1*
X6976467Y21393D1*
X6991743Y32107D1*
X7008117Y41050D1*
X7025383Y48117D1*
X7043330Y53213D1*
X7061733Y56283D1*
X7080363Y57283D1*
X7098987Y56203D1*
X7117377Y53053D1*
X7135303Y47877D1*
X7152540Y40737D1*
X7168873Y31723D1*
X7184103Y20943D1*
X7198037Y8537D1*
X7210503Y-5343D1*
X7221343Y-20527D1*
X7230430Y-36823D1*
X7237643Y-54030D1*
X7242893Y-71930D1*
X7246120Y-90307D1*
X7247283Y-110000D1*
X7247217Y-114667D1*
X5137690Y5840167D2*
X5126213Y5825123D1*
X5115963Y5814037D1*
X5104877Y5803787D1*
X5093020Y5794440D1*
X5080467Y5786050D1*
X5067293Y5778673D1*
X5053583Y5772353D1*
X5039420Y5767127D1*
X5024887Y5763030D1*
X5010080Y5760083D1*
X4995087Y5758310D1*
X4980000Y5757717D1*
X4964913Y5758310D1*
X4949920Y5760083D1*
X4935113Y5763030D1*
X4920580Y5767127D1*
X4906417Y5772353D1*
X4892707Y5778673D1*
X4879533Y5786050D1*
X4866980Y5794440D1*
X4855123Y5803787D1*
X4844037Y5814037D1*
X4833787Y5825123D1*
X4824440Y5836980D1*
X4816050Y5849533D1*
X4808673Y5862707D1*
X4802353Y5876417D1*
X4797127Y5890580D1*
X4793030Y5905113D1*
X4790083Y5919920D1*
X4788310Y5934913D1*
X4787717Y5950000D1*
X4788310Y5965087D1*
X4790083Y5980080D1*
X4793030Y5994887D1*
X4797127Y6009420D1*
X4802353Y6023583D1*
X4808673Y6037293D1*
X4816050Y6050467D1*
X4824440Y6063020D1*
X4833787Y6074877D1*
X4844037Y6085963D1*
X4855123Y6096213D1*
X4866980Y6105560D1*
X4879533Y6113950D1*
X4892707Y6121327D1*
X4906417Y6127647D1*
X4920580Y6132873D1*
X4935113Y6136970D1*
X4949920Y6139917D1*
X4964913Y6141690D1*
X4980000Y6142283D1*
X4995087Y6141690D1*
X5010080Y6139917D1*
X5024887Y6136970D1*
X5039420Y6132873D1*
X5053583Y6127647D1*
X5067293Y6121327D1*
X5080467Y6113950D1*
X5093020Y6105560D1*
X5104877Y6096213D1*
X5115963Y6085963D1*
X5126213Y6074877D1*
X5137690Y6059833D1*
X5137717Y6142283D1*
X5522283D1*
Y5757717D1*
X5137717D1*
Y5840020D1*
X7151690Y-1065087D2*
X7149917Y-1080080D1*
X7146970Y-1094887D1*
X7142873Y-1109420D1*
X7137647Y-1123583D1*
X7131327Y-1137293D1*
X7123950Y-1150467D1*
X7115560Y-1163020D1*
X7106213Y-1174877D1*
X7095963Y-1185963D1*
X7084877Y-1196213D1*
X7073020Y-1205560D1*
X7060467Y-1213950D1*
X7047293Y-1221327D1*
X7033583Y-1227647D1*
X7019420Y-1232873D1*
X7004887Y-1236970D1*
X6990080Y-1239917D1*
X6975087Y-1241690D1*
X6960000Y-1242283D1*
X6944913Y-1241690D1*
X6929920Y-1239917D1*
X6915113Y-1236970D1*
X6900580Y-1232873D1*
X6886417Y-1227647D1*
X6872707Y-1221327D1*
X6859533Y-1213950D1*
X6846980Y-1205560D1*
X6835123Y-1196213D1*
X6824037Y-1185963D1*
X6813787Y-1174877D1*
X6802310Y-1159833D1*
X6802283Y-1242283D1*
X6417717D1*
Y-857717D1*
X6802283D1*
Y-940023D1*
X6813787Y-925123D1*
X6824037Y-914037D1*
X6835123Y-903787D1*
X6846980Y-894440D1*
X6859533Y-886050D1*
X6872707Y-878673D1*
X6886417Y-872353D1*
X6900580Y-867127D1*
X6915113Y-863030D1*
X6929920Y-860083D1*
X6944913Y-858310D1*
X6960000Y-857717D1*
X6975087Y-858310D1*
X6990080Y-860083D1*
X7004887Y-863030D1*
X7019420Y-867127D1*
X7033583Y-872353D1*
X7047293Y-878673D1*
X7060467Y-886050D1*
X7073020Y-894440D1*
X7084877Y-903787D1*
X7095963Y-914037D1*
X7106213Y-925123D1*
X7115560Y-936980D1*
X7123950Y-949533D1*
X7131327Y-962707D1*
X7137647Y-976417D1*
X7142873Y-990580D1*
X7146970Y-1005113D1*
X7149917Y-1019920D1*
X7151690Y-1034913D1*
X7152283Y-1050000D1*
X7151690Y-1065087D1*
X6981690Y1834913D2*
X6979917Y1819920D1*
X6976970Y1805113D1*
X6972873Y1790580D1*
X6967647Y1776417D1*
X6961327Y1762707D1*
X6953950Y1749533D1*
X6945560Y1736980D1*
X6936213Y1725123D1*
X6925963Y1714037D1*
X6914877Y1703787D1*
X6903020Y1694440D1*
X6890467Y1686050D1*
X6869530Y1675093D1*
X6890467Y1663950D1*
X6903020Y1655560D1*
X6914877Y1646213D1*
X6925963Y1635963D1*
X6936213Y1624877D1*
X6945560Y1613020D1*
X6953950Y1600467D1*
X6961327Y1587293D1*
X6967647Y1573583D1*
X6972873Y1559420D1*
X6976970Y1544887D1*
X6979917Y1530080D1*
X6981690Y1515087D1*
X6982283Y1500000D1*
X6981690Y1484913D1*
X6979917Y1469920D1*
X6976970Y1455113D1*
X6972873Y1440580D1*
X6967647Y1426417D1*
X6961327Y1412707D1*
X6953950Y1399533D1*
X6945560Y1386980D1*
X6936213Y1375123D1*
X6925963Y1364037D1*
X6914877Y1353787D1*
X6903020Y1344440D1*
X6890467Y1336050D1*
X6869530Y1325093D1*
X6887183Y1315917D1*
X6906553Y1302930D1*
X6924210Y1287697D1*
X6939890Y1270440D1*
X6953367Y1251410D1*
X6964443Y1230887D1*
X6972950Y1209177D1*
X6978770Y1186593D1*
X6981810Y1163473D1*
X6982057Y1140670D1*
X6979517Y1117490D1*
X6974187Y1094787D1*
X6966147Y1072900D1*
X6955520Y1052143D1*
X6942457Y1032827D1*
X6927150Y1015233D1*
X6909830Y999620D1*
X6899960Y992277D1*
X6982283Y992283D1*
Y607717D1*
X6765410D1*
X6799010Y586293D1*
X6817400Y571940D1*
X6834737Y556330D1*
X6850933Y539543D1*
X6865913Y521657D1*
X6879600Y502767D1*
X6891927Y482960D1*
X6902833Y462337D1*
X6912263Y441000D1*
X6920173Y419053D1*
X6926523Y396607D1*
X6931280Y373770D1*
X6934423Y350653D1*
X6936083Y317500D1*
X6935263Y294187D1*
X6932810Y270987D1*
X6928733Y248017D1*
X6923053Y225390D1*
X6915800Y203220D1*
X6907007Y181610D1*
X6896720Y160673D1*
X6884987Y140510D1*
X6871867Y121220D1*
X6857427Y102897D1*
X6841737Y85637D1*
X6824870Y69517D1*
X6806917Y54623D1*
X6787960Y41027D1*
X6768097Y28793D1*
X6747420Y17983D1*
X6726040Y8653D1*
X6704057Y850D1*
X6681580Y-5393D1*
X6658717Y-10043D1*
X6635587Y-13077D1*
X6612300Y-14480D1*
X6588973Y-14243D1*
X6565720Y-12370D1*
X6542657Y-8870D1*
X6519893Y-3757D1*
X6497547Y2940D1*
X6475727Y11190D1*
X6454540Y20953D1*
X6434090Y32177D1*
X6414477Y44810D1*
X6395800Y58787D1*
X6378150Y74043D1*
X6361617Y90500D1*
X6346277Y108077D1*
X6332210Y126687D1*
X6319483Y146240D1*
X6308163Y166637D1*
X6298300Y187777D1*
X6289950Y209560D1*
X6283147Y231873D1*
X6277927Y254610D1*
X6274317Y277660D1*
X6272333Y300903D1*
X6271983Y324230D1*
X6273277Y347523D1*
X6276200Y370667D1*
X6280740Y393550D1*
X6286877Y416057D1*
X6294580Y438077D1*
X6303810Y459500D1*
X6314520Y480227D1*
X6326657Y500147D1*
X6340163Y519170D1*
X6354973Y537193D1*
X6371013Y554133D1*
X6388200Y569907D1*
X6406453Y584437D1*
X6425680Y597647D1*
X6445790Y609473D1*
X6466677Y619860D1*
X6488243Y628757D1*
X6510380Y636113D1*
X6532980Y641900D1*
X6555930Y646087D1*
X6579117Y648650D1*
X6597717Y649717D1*
Y992283D1*
X6679300Y992780D1*
X6661080Y1007337D1*
X6644760Y1023990D1*
X6630573Y1042500D1*
X6618733Y1062587D1*
X6609413Y1083963D1*
X6602747Y1106310D1*
X6598833Y1129297D1*
X6597733Y1152590D1*
X6599460Y1175847D1*
X6603990Y1198720D1*
X6611257Y1220880D1*
X6621150Y1241993D1*
X6633530Y1261757D1*
X6648207Y1279877D1*
X6664973Y1296087D1*
X6683577Y1310147D1*
X6703743Y1321850D1*
X6710343Y1324993D1*
X6689533Y1336050D1*
X6676980Y1344440D1*
X6665123Y1353787D1*
X6654037Y1364037D1*
X6643787Y1375123D1*
X6634440Y1386980D1*
X6626050Y1399533D1*
X6618673Y1412707D1*
X6612353Y1426417D1*
X6607127Y1440580D1*
X6603030Y1455113D1*
X6600083Y1469920D1*
X6598310Y1484913D1*
X6597717Y1500000D1*
X6598310Y1515087D1*
X6600083Y1530080D1*
X6603030Y1544887D1*
X6607127Y1559420D1*
X6612353Y1573583D1*
X6618673Y1587293D1*
X6626050Y1600467D1*
X6634440Y1613020D1*
X6643787Y1624877D1*
X6654037Y1635963D1*
X6665123Y1646213D1*
X6676980Y1655560D1*
X6689533Y1663950D1*
X6710470Y1674907D1*
X6689533Y1686050D1*
X6676980Y1694440D1*
X6665123Y1703787D1*
X6654037Y1714037D1*
X6643787Y1725123D1*
X6634440Y1736980D1*
X6626050Y1749533D1*
X6618673Y1762707D1*
X6612353Y1776417D1*
X6607127Y1790580D1*
X6603030Y1805113D1*
X6600083Y1819920D1*
X6598310Y1834913D1*
X6597717Y1850000D1*
X6598310Y1865087D1*
X6600083Y1880080D1*
X6603030Y1894887D1*
X6607127Y1909420D1*
X6615637Y1930707D1*
X6606947Y1916870D1*
X6595177Y1902400D1*
X6581623Y1889580D1*
X6566527Y1878627D1*
X6550133Y1869727D1*
X6532727Y1863027D1*
X6514593Y1858640D1*
X6496047Y1856643D1*
X6477400Y1857070D1*
X6458963Y1859913D1*
X6441053Y1865123D1*
X6423970Y1872613D1*
X6408000Y1882257D1*
X6393420Y1893890D1*
X6380470Y1907313D1*
X6369370Y1922307D1*
X6360310Y1938613D1*
X6353443Y1955957D1*
X6348883Y1974043D1*
X6346710Y1992570D1*
X6346957Y2011223D1*
X6349620Y2029683D1*
X6354657Y2047647D1*
X6361983Y2064800D1*
X6371470Y2080860D1*
X6382963Y2095553D1*
X6396263Y2108633D1*
X6411150Y2119873D1*
X6427367Y2129090D1*
X6444643Y2136127D1*
X6462687Y2140860D1*
X6481190Y2143213D1*
X6499843Y2143147D1*
X6518330Y2140660D1*
X6536337Y2135793D1*
X6553563Y2128637D1*
X6569713Y2119303D1*
X6584517Y2107953D1*
X6597723Y2094780D1*
X6609110Y2080003D1*
X6618480Y2063877D1*
X6625683Y2046667D1*
X6630590Y2028670D1*
X6633120Y2010190D1*
X6633180Y1990673D1*
X6630760Y1972177D1*
X6625960Y1954153D1*
X6621490Y1942613D1*
X6634440Y1963020D1*
X6643787Y1974877D1*
X6654037Y1985963D1*
X6665123Y1996213D1*
X6676980Y2005560D1*
X6689533Y2013950D1*
X6702707Y2021327D1*
X6716417Y2027647D1*
X6730580Y2032873D1*
X6745113Y2036970D1*
X6759920Y2039917D1*
X6774913Y2041690D1*
X6790000Y2042283D1*
X6805087Y2041690D1*
X6820080Y2039917D1*
X6834887Y2036970D1*
X6849420Y2032873D1*
X6863583Y2027647D1*
X6877293Y2021327D1*
X6890467Y2013950D1*
X6903020Y2005560D1*
X6914877Y1996213D1*
X6925963Y1985963D1*
X6936213Y1974877D1*
X6945560Y1963020D1*
X6953950Y1950467D1*
X6961327Y1937293D1*
X6967647Y1923583D1*
X6972873Y1909420D1*
X6976970Y1894887D1*
X6979917Y1880080D1*
X6981690Y1865087D1*
X6982283Y1850000D1*
X6981690Y1834913D1*
Y3084913D2*
X6979917Y3069920D1*
X6976970Y3055113D1*
X6972873Y3040580D1*
X6967647Y3026417D1*
X6961327Y3012707D1*
X6953950Y2999533D1*
X6945560Y2986980D1*
X6936213Y2975123D1*
X6925963Y2964037D1*
X6914877Y2953787D1*
X6899833Y2942310D1*
X6982283Y2942283D1*
Y2557717D1*
X6597717D1*
Y2942283D1*
X6680023D1*
X6665123Y2953787D1*
X6654037Y2964037D1*
X6643787Y2975123D1*
X6634440Y2986980D1*
X6626050Y2999533D1*
X6618673Y3012707D1*
X6612353Y3026417D1*
X6607127Y3040580D1*
X6603030Y3055113D1*
X6600083Y3069920D1*
X6598310Y3084913D1*
X6597717Y3100000D1*
X6598310Y3115087D1*
X6600083Y3130080D1*
X6603030Y3144887D1*
X6607127Y3159420D1*
X6612353Y3173583D1*
X6618673Y3187293D1*
X6626050Y3200467D1*
X6634440Y3213020D1*
X6643787Y3224877D1*
X6654037Y3235963D1*
X6665123Y3246213D1*
X6676980Y3255560D1*
X6689533Y3263950D1*
X6702707Y3271327D1*
X6716417Y3277647D1*
X6730580Y3282873D1*
X6745113Y3286970D1*
X6759920Y3289917D1*
X6774913Y3291690D1*
X6790000Y3292283D1*
X6805087Y3291690D1*
X6820080Y3289917D1*
X6834887Y3286970D1*
X6849420Y3282873D1*
X6863583Y3277647D1*
X6877293Y3271327D1*
X6890467Y3263950D1*
X6903020Y3255560D1*
X6914877Y3246213D1*
X6925963Y3235963D1*
X6936213Y3224877D1*
X6945560Y3213020D1*
X6953950Y3200467D1*
X6961327Y3187293D1*
X6967647Y3173583D1*
X6972873Y3159420D1*
X6976970Y3144887D1*
X6979917Y3130080D1*
X6981690Y3115087D1*
X6982283Y3100000D1*
X6981690Y3084913D1*
X6984190Y3999913D2*
X6982417Y3984920D1*
X6979470Y3970113D1*
X6975373Y3955580D1*
X6970147Y3941417D1*
X6963827Y3927707D1*
X6956450Y3914533D1*
X6948060Y3901980D1*
X6938713Y3890123D1*
X6928463Y3879037D1*
X6917377Y3868787D1*
X6902333Y3857310D1*
X6984783Y3857283D1*
Y3472717D1*
X6600217D1*
Y3857283D1*
X6682523D1*
X6667623Y3868787D1*
X6656537Y3879037D1*
X6646287Y3890123D1*
X6636940Y3901980D1*
X6628550Y3914533D1*
X6621173Y3927707D1*
X6614853Y3941417D1*
X6609627Y3955580D1*
X6605530Y3970113D1*
X6602583Y3984920D1*
X6600810Y3999913D1*
X6600217Y4015000D1*
X6600810Y4030087D1*
X6602583Y4045080D1*
X6605530Y4059887D1*
X6609627Y4074420D1*
X6614853Y4088583D1*
X6621173Y4102293D1*
X6628550Y4115467D1*
X6636940Y4128020D1*
X6646287Y4139877D1*
X6656537Y4150963D1*
X6667623Y4161213D1*
X6679480Y4170560D1*
X6692033Y4178950D1*
X6705207Y4186327D1*
X6718917Y4192647D1*
X6733080Y4197873D1*
X6747613Y4201970D1*
X6762420Y4204917D1*
X6777413Y4206690D1*
X6792500Y4207283D1*
X6807587Y4206690D1*
X6822580Y4204917D1*
X6837387Y4201970D1*
X6851920Y4197873D1*
X6866083Y4192647D1*
X6879793Y4186327D1*
X6892967Y4178950D1*
X6905520Y4170560D1*
X6917377Y4161213D1*
X6928463Y4150963D1*
X6938713Y4139877D1*
X6948060Y4128020D1*
X6956450Y4115467D1*
X6963827Y4102293D1*
X6970147Y4088583D1*
X6975373Y4074420D1*
X6979470Y4059887D1*
X6982417Y4045080D1*
X6984190Y4030087D1*
X6984783Y4015000D1*
X6984190Y3999913D1*
X7287217Y5635333D2*
X7285660Y5616743D1*
X7282040Y5598440D1*
X7276403Y5580653D1*
X7268820Y5563607D1*
X7259390Y5547510D1*
X7248223Y5532563D1*
X7235463Y5518953D1*
X7221263Y5506850D1*
X7205807Y5496400D1*
X7189283Y5487740D1*
X7171897Y5480970D1*
X7153867Y5476180D1*
X7135413Y5473427D1*
X7116767Y5472747D1*
X7098163Y5474147D1*
X7079830Y5477610D1*
X7061997Y5483093D1*
X7044887Y5490530D1*
X7028710Y5499823D1*
X7013667Y5510860D1*
X6999947Y5523503D1*
X6987723Y5537597D1*
X6977143Y5552963D1*
X6968340Y5569413D1*
X6961420Y5586740D1*
X6956477Y5604730D1*
X6953567Y5623160D1*
X6952727Y5641797D1*
X6953967Y5660413D1*
X6957273Y5678773D1*
X6962603Y5696653D1*
X6969890Y5713830D1*
X6979043Y5730087D1*
X6989953Y5745220D1*
X7002480Y5759047D1*
X7016467Y5771393D1*
X7031743Y5782107D1*
X7048117Y5791050D1*
X7065383Y5798117D1*
X7083330Y5803213D1*
X7101733Y5806283D1*
X7120363Y5807283D1*
X7138987Y5806203D1*
X7157377Y5803053D1*
X7175303Y5797877D1*
X7192540Y5790737D1*
X7208873Y5781723D1*
X7224103Y5770943D1*
X7238037Y5758537D1*
X7250503Y5744657D1*
X7261343Y5729473D1*
X7270430Y5713177D1*
X7277643Y5695970D1*
X7282893Y5678070D1*
X7286120Y5659693D1*
X7287283Y5640000D1*
X7287217Y5635333D1*
X1531690Y2194913D2*
X1529917Y2179920D1*
X1526970Y2165113D1*
X1522873Y2150580D1*
X1517647Y2136417D1*
X1511327Y2122707D1*
X1503950Y2109533D1*
X1495560Y2096980D1*
X1486213Y2085123D1*
X1475963Y2074037D1*
X1464877Y2063787D1*
X1453020Y2054440D1*
X1440467Y2046050D1*
X1427293Y2038673D1*
X1413583Y2032353D1*
X1399420Y2027127D1*
X1384887Y2023030D1*
X1370080Y2020083D1*
X1355087Y2018310D1*
X1340000Y2017717D1*
X1324913Y2018310D1*
X1309920Y2020083D1*
X1295113Y2023030D1*
X1280580Y2027127D1*
X1266417Y2032353D1*
X1252707Y2038673D1*
X1239533Y2046050D1*
X1226980Y2054440D1*
X1215123Y2063787D1*
X1204037Y2074037D1*
X1193787Y2085123D1*
X1184440Y2096980D1*
X1176050Y2109533D1*
X1168673Y2122707D1*
X1162353Y2136417D1*
X1157127Y2150580D1*
X1153030Y2165113D1*
X1150083Y2179920D1*
X1148310Y2194913D1*
X1147717Y2210000D1*
X1148310Y2225087D1*
X1150083Y2240080D1*
X1153030Y2254887D1*
X1157127Y2269420D1*
X1162353Y2283583D1*
X1168673Y2297293D1*
X1176050Y2310467D1*
X1184440Y2323020D1*
X1193787Y2334877D1*
X1204037Y2345963D1*
X1215123Y2356213D1*
X1226980Y2365560D1*
X1239533Y2373950D1*
X1260470Y2384907D1*
X1239533Y2396050D1*
X1226980Y2404440D1*
X1215123Y2413787D1*
X1204037Y2424037D1*
X1193787Y2435123D1*
X1184440Y2446980D1*
X1176050Y2459533D1*
X1168673Y2472707D1*
X1162353Y2486417D1*
X1157127Y2500580D1*
X1153030Y2515113D1*
X1150083Y2529920D1*
X1148310Y2544913D1*
X1147717Y2560000D1*
X1148310Y2575087D1*
X1150083Y2590080D1*
X1153030Y2604887D1*
X1157127Y2619420D1*
X1162353Y2633583D1*
X1168673Y2647293D1*
X1176050Y2660467D1*
X1184440Y2673020D1*
X1193787Y2684877D1*
X1204037Y2695963D1*
X1215123Y2706213D1*
X1226980Y2715560D1*
X1239533Y2723950D1*
X1260470Y2734907D1*
X1239533Y2746050D1*
X1226980Y2754440D1*
X1215123Y2763787D1*
X1204037Y2774037D1*
X1193787Y2785123D1*
X1184440Y2796980D1*
X1176050Y2809533D1*
X1168673Y2822707D1*
X1162353Y2836417D1*
X1157127Y2850580D1*
X1153030Y2865113D1*
X1150083Y2879920D1*
X1148310Y2894913D1*
X1147717Y2910000D1*
X1148310Y2925087D1*
X1150083Y2940080D1*
X1153030Y2954887D1*
X1157127Y2969420D1*
X1162353Y2983583D1*
X1168673Y2997293D1*
X1176050Y3010467D1*
X1184440Y3023020D1*
X1193787Y3034877D1*
X1204037Y3045963D1*
X1215123Y3056213D1*
X1230167Y3067690D1*
X1147717Y3067717D1*
Y3452283D1*
X1532283D1*
Y3067717D1*
X1449980D1*
X1464877Y3056213D1*
X1475963Y3045963D1*
X1486213Y3034877D1*
X1495560Y3023020D1*
X1503950Y3010467D1*
X1511327Y2997293D1*
X1517647Y2983583D1*
X1522873Y2969420D1*
X1526970Y2954887D1*
X1529917Y2940080D1*
X1531690Y2925087D1*
X1532283Y2910000D1*
X1531690Y2894913D1*
X1529917Y2879920D1*
X1526970Y2865113D1*
X1522873Y2850580D1*
X1517647Y2836417D1*
X1511327Y2822707D1*
X1503950Y2809533D1*
X1495560Y2796980D1*
X1486213Y2785123D1*
X1475963Y2774037D1*
X1464877Y2763787D1*
X1453020Y2754440D1*
X1440467Y2746050D1*
X1419530Y2735093D1*
X1440467Y2723950D1*
X1453020Y2715560D1*
X1464877Y2706213D1*
X1475963Y2695963D1*
X1486213Y2684877D1*
X1495560Y2673020D1*
X1503950Y2660467D1*
X1511327Y2647293D1*
X1517647Y2633583D1*
X1522873Y2619420D1*
X1526970Y2604887D1*
X1529917Y2590080D1*
X1531690Y2575087D1*
X1532283Y2560000D1*
X1531690Y2544913D1*
X1529917Y2529920D1*
X1526970Y2515113D1*
X1522873Y2500580D1*
X1517647Y2486417D1*
X1511327Y2472707D1*
X1503950Y2459533D1*
X1495560Y2446980D1*
X1486213Y2435123D1*
X1475963Y2424037D1*
X1464877Y2413787D1*
X1453020Y2404440D1*
X1440467Y2396050D1*
X1419530Y2385093D1*
X1440467Y2373950D1*
X1453020Y2365560D1*
X1464877Y2356213D1*
X1475963Y2345963D1*
X1486213Y2334877D1*
X1495560Y2323020D1*
X1503950Y2310467D1*
X1511327Y2297293D1*
X1517647Y2283583D1*
X1522873Y2269420D1*
X1526970Y2254887D1*
X1529917Y2240080D1*
X1531690Y2225087D1*
X1532283Y2210000D1*
X1531690Y2194913D1*
X-156593Y-394667D2*
X-158410Y-413230D1*
X-162620Y-431403D1*
X-169153Y-448877D1*
X-177897Y-465353D1*
X-188703Y-480557D1*
X-201390Y-494230D1*
X-215747Y-506140D1*
X-231527Y-516090D1*
X-248460Y-523907D1*
X-266270Y-529463D1*
X-284647Y-532660D1*
X-303283Y-533447D1*
X-321863Y-531807D1*
X-340077Y-527773D1*
X-357610Y-521410D1*
X-374173Y-512823D1*
X-389480Y-502163D1*
X-403273Y-489610D1*
X-415323Y-475370D1*
X-425423Y-459687D1*
X-433403Y-442827D1*
X-439130Y-425073D1*
X-442503Y-406727D1*
X-443470Y-388100D1*
X-442013Y-369503D1*
X-438153Y-351253D1*
X-431960Y-333657D1*
X-423533Y-317017D1*
X-413023Y-301607D1*
X-400600Y-287690D1*
X-386477Y-275503D1*
X-370893Y-265253D1*
X-354110Y-257110D1*
X-336413Y-251213D1*
X-318100Y-247663D1*
X-299483Y-246517D1*
X-280873Y-247797D1*
X-262587Y-251480D1*
X-244933Y-257503D1*
X-228210Y-265767D1*
X-212700Y-276130D1*
X-198667Y-288420D1*
X-186343Y-302423D1*
X-175943Y-317907D1*
X-167640Y-334610D1*
X-161570Y-352250D1*
X-157843Y-370527D1*
X-156517Y-390000D1*
X-156593Y-394667D1*
X1993407Y1665333D2*
X1991590Y1646770D1*
X1987380Y1628597D1*
X1980847Y1611123D1*
X1972103Y1594647D1*
X1961297Y1579443D1*
X1948610Y1565770D1*
X1934253Y1553860D1*
X1918473Y1543910D1*
X1901540Y1536093D1*
X1883730Y1530537D1*
X1865353Y1527340D1*
X1846717Y1526553D1*
X1828137Y1528193D1*
X1809923Y1532227D1*
X1792390Y1538590D1*
X1775827Y1547177D1*
X1760520Y1557837D1*
X1746727Y1570390D1*
X1734677Y1584630D1*
X1724577Y1600313D1*
X1716597Y1617173D1*
X1710870Y1634927D1*
X1707497Y1653273D1*
X1706530Y1671900D1*
X1707987Y1690497D1*
X1711847Y1708747D1*
X1718040Y1726343D1*
X1726467Y1742983D1*
X1736977Y1758393D1*
X1749400Y1772310D1*
X1763523Y1784497D1*
X1779107Y1794747D1*
X1795890Y1802890D1*
X1813587Y1808787D1*
X1831900Y1812337D1*
X1850517Y1813483D1*
X1869127Y1812203D1*
X1887413Y1808520D1*
X1905067Y1802497D1*
X1921790Y1794233D1*
X1937300Y1783870D1*
X1951333Y1771580D1*
X1963657Y1757577D1*
X1974057Y1742093D1*
X1982360Y1725390D1*
X1988430Y1707750D1*
X1992157Y1689473D1*
X1993483Y1670000D1*
X1993407Y1665333D1*
X5703407Y-1474667D2*
X5701590Y-1493230D1*
X5697380Y-1511403D1*
X5690847Y-1528877D1*
X5682103Y-1545353D1*
X5671297Y-1560557D1*
X5658610Y-1574230D1*
X5644253Y-1586140D1*
X5628473Y-1596090D1*
X5611540Y-1603907D1*
X5593730Y-1609463D1*
X5575353Y-1612660D1*
X5556717Y-1613447D1*
X5538137Y-1611807D1*
X5519923Y-1607773D1*
X5502390Y-1601410D1*
X5485827Y-1592823D1*
X5470520Y-1582163D1*
X5456727Y-1569610D1*
X5444677Y-1555370D1*
X5434577Y-1539687D1*
X5426597Y-1522827D1*
X5420870Y-1505073D1*
X5417497Y-1486727D1*
X5416530Y-1468100D1*
X5417987Y-1449503D1*
X5421847Y-1431253D1*
X5428040Y-1413657D1*
X5436467Y-1397017D1*
X5446977Y-1381607D1*
X5459400Y-1367690D1*
X5473523Y-1355503D1*
X5489107Y-1345253D1*
X5505890Y-1337110D1*
X5523587Y-1331213D1*
X5541900Y-1327663D1*
X5560517Y-1326517D1*
X5579127Y-1327797D1*
X5597413Y-1331480D1*
X5615067Y-1337503D1*
X5631790Y-1345767D1*
X5647300Y-1356130D1*
X5661333Y-1368420D1*
X5673657Y-1382423D1*
X5684057Y-1397907D1*
X5692360Y-1414610D1*
X5698430Y-1432250D1*
X5702157Y-1450527D1*
X5703483Y-1470000D1*
X5703407Y-1474667D1*
X3183407Y5815333D2*
X3181590Y5796770D1*
X3177380Y5778597D1*
X3170847Y5761123D1*
X3162103Y5744647D1*
X3151297Y5729443D1*
X3138610Y5715770D1*
X3124253Y5703860D1*
X3108473Y5693910D1*
X3091540Y5686093D1*
X3073730Y5680537D1*
X3055353Y5677340D1*
X3036717Y5676553D1*
X3018137Y5678193D1*
X2999923Y5682227D1*
X2982390Y5688590D1*
X2965827Y5697177D1*
X2950520Y5707837D1*
X2936727Y5720390D1*
X2924677Y5734630D1*
X2914577Y5750313D1*
X2906597Y5767173D1*
X2900870Y5784927D1*
X2897497Y5803273D1*
X2896530Y5821900D1*
X2897987Y5840497D1*
X2901847Y5858747D1*
X2908040Y5876343D1*
X2916467Y5892983D1*
X2926977Y5908393D1*
X2939400Y5922310D1*
X2953523Y5934497D1*
X2969107Y5944747D1*
X2985890Y5952890D1*
X3003587Y5958787D1*
X3021900Y5962337D1*
X3040517Y5963483D1*
X3059127Y5962203D1*
X3077413Y5958520D1*
X3095067Y5952497D1*
X3111790Y5944233D1*
X3127300Y5933870D1*
X3141333Y5921580D1*
X3153657Y5907577D1*
X3164057Y5892093D1*
X3172360Y5875390D1*
X3178430Y5857750D1*
X3182157Y5839473D1*
X3183483Y5820000D1*
X3183407Y5815333D1*
X3913407Y5365333D2*
X3911590Y5346770D1*
X3907380Y5328597D1*
X3900847Y5311123D1*
X3892103Y5294647D1*
X3881297Y5279443D1*
X3868610Y5265770D1*
X3854253Y5253860D1*
X3838473Y5243910D1*
X3821540Y5236093D1*
X3803730Y5230537D1*
X3785353Y5227340D1*
X3766717Y5226553D1*
X3748137Y5228193D1*
X3729923Y5232227D1*
X3712390Y5238590D1*
X3695827Y5247177D1*
X3680520Y5257837D1*
X3666727Y5270390D1*
X3654677Y5284630D1*
X3644577Y5300313D1*
X3636597Y5317173D1*
X3630870Y5334927D1*
X3627497Y5353273D1*
X3626530Y5371900D1*
X3627987Y5390497D1*
X3631847Y5408747D1*
X3638040Y5426343D1*
X3646350Y5442780D1*
X3631540Y5436093D1*
X3613730Y5430537D1*
X3595353Y5427340D1*
X3576717Y5426553D1*
X3558137Y5428193D1*
X3539923Y5432227D1*
X3522390Y5438590D1*
X3505827Y5447177D1*
X3490520Y5457837D1*
X3476727Y5470390D1*
X3464677Y5484630D1*
X3454577Y5500313D1*
X3446597Y5517173D1*
X3440870Y5534927D1*
X3437497Y5553273D1*
X3436530Y5571900D1*
X3437987Y5590497D1*
X3441847Y5608747D1*
X3448040Y5626343D1*
X3456467Y5642983D1*
X3466977Y5658393D1*
X3479400Y5672310D1*
X3493523Y5684497D1*
X3509107Y5694747D1*
X3525890Y5702890D1*
X3543587Y5708787D1*
X3561900Y5712337D1*
X3580517Y5713483D1*
X3599127Y5712203D1*
X3617413Y5708520D1*
X3635067Y5702497D1*
X3651790Y5694233D1*
X3667300Y5683870D1*
X3681333Y5671580D1*
X3693657Y5657577D1*
X3704057Y5642093D1*
X3712360Y5625390D1*
X3718430Y5607750D1*
X3722157Y5589473D1*
X3723483Y5570000D1*
X3722270Y5551387D1*
X3718653Y5533087D1*
X3712693Y5515410D1*
X3703623Y5497200D1*
X3720240Y5504580D1*
X3738120Y5509897D1*
X3756537Y5512850D1*
X3775183Y5513390D1*
X3793740Y5511507D1*
X3811897Y5507230D1*
X3829347Y5500633D1*
X3845793Y5491833D1*
X3860957Y5480970D1*
X3874583Y5468233D1*
X3886443Y5453833D1*
X3896337Y5438020D1*
X3904093Y5421057D1*
X3909583Y5403227D1*
X3912713Y5384840D1*
X3913407Y5365333D1*
X2938407Y4165333D2*
X2936590Y4146770D1*
X2932380Y4128597D1*
X2925847Y4111123D1*
X2917103Y4094647D1*
X2906297Y4079443D1*
X2893610Y4065770D1*
X2879253Y4053860D1*
X2863473Y4043910D1*
X2846540Y4036093D1*
X2828730Y4030537D1*
X2810353Y4027340D1*
X2791717Y4026553D1*
X2773137Y4028193D1*
X2754923Y4032227D1*
X2737390Y4038590D1*
X2720827Y4047177D1*
X2705520Y4057837D1*
X2691727Y4070390D1*
X2679677Y4084630D1*
X2669577Y4100313D1*
X2661597Y4117173D1*
X2655870Y4134927D1*
X2652497Y4153273D1*
X2651530Y4171900D1*
X2652987Y4190497D1*
X2656847Y4208747D1*
X2663040Y4226343D1*
X2671467Y4242983D1*
X2681977Y4258393D1*
X2694400Y4272310D1*
X2708523Y4284497D1*
X2724107Y4294747D1*
X2740890Y4302890D1*
X2758587Y4308787D1*
X2776900Y4312337D1*
X2795517Y4313483D1*
X2814127Y4312203D1*
X2832413Y4308520D1*
X2850067Y4302497D1*
X2866790Y4294233D1*
X2882300Y4283870D1*
X2896333Y4271580D1*
X2908657Y4257577D1*
X2919057Y4242093D1*
X2927360Y4225390D1*
X2933430Y4207750D1*
X2937157Y4189473D1*
X2938483Y4170000D1*
X2938407Y4165333D1*
X4778407Y4155333D2*
X4776590Y4136770D1*
X4772380Y4118597D1*
X4765847Y4101123D1*
X4757103Y4084647D1*
X4746297Y4069443D1*
X4733610Y4055770D1*
X4719253Y4043860D1*
X4703473Y4033910D1*
X4686540Y4026093D1*
X4668730Y4020537D1*
X4650353Y4017340D1*
X4631717Y4016553D1*
X4613137Y4018193D1*
X4594923Y4022227D1*
X4577390Y4028590D1*
X4560827Y4037177D1*
X4545520Y4047837D1*
X4531727Y4060390D1*
X4519677Y4074630D1*
X4509577Y4090313D1*
X4501597Y4107173D1*
X4495870Y4124927D1*
X4492497Y4143273D1*
X4491530Y4161900D1*
X4492987Y4180497D1*
X4496847Y4198747D1*
X4503040Y4216343D1*
X4511467Y4232983D1*
X4521977Y4248393D1*
X4534400Y4262310D1*
X4548523Y4274497D1*
X4564107Y4284747D1*
X4580890Y4292890D1*
X4598587Y4298787D1*
X4616900Y4302337D1*
X4635517Y4303483D1*
X4654127Y4302203D1*
X4672413Y4298520D1*
X4690067Y4292497D1*
X4706790Y4284233D1*
X4722300Y4273870D1*
X4736333Y4261580D1*
X4748657Y4247577D1*
X4759057Y4232093D1*
X4767360Y4215390D1*
X4773430Y4197750D1*
X4777157Y4179473D1*
X4778483Y4160000D1*
X4778407Y4155333D1*
X7413407Y2575333D2*
X7411590Y2556770D1*
X7407380Y2538597D1*
X7400847Y2521123D1*
X7392103Y2504647D1*
X7381297Y2489443D1*
X7368610Y2475770D1*
X7354253Y2463860D1*
X7338473Y2453910D1*
X7321540Y2446093D1*
X7303730Y2440537D1*
X7285353Y2437340D1*
X7266717Y2436553D1*
X7248137Y2438193D1*
X7229923Y2442227D1*
X7212390Y2448590D1*
X7195827Y2457177D1*
X7180520Y2467837D1*
X7166727Y2480390D1*
X7154677Y2494630D1*
X7144577Y2510313D1*
X7136597Y2527173D1*
X7130870Y2544927D1*
X7127497Y2563273D1*
X7126530Y2581900D1*
X7127987Y2600497D1*
X7131847Y2618747D1*
X7138040Y2636343D1*
X7146467Y2652983D1*
X7156977Y2668393D1*
X7169400Y2682310D1*
X7183523Y2694497D1*
X7199107Y2704747D1*
X7215890Y2712890D1*
X7233587Y2718787D1*
X7251900Y2722337D1*
X7270517Y2723483D1*
X7289127Y2722203D1*
X7307413Y2718520D1*
X7325067Y2712497D1*
X7341790Y2704233D1*
X7357300Y2693870D1*
X7371333Y2681580D1*
X7383657Y2667577D1*
X7394057Y2652093D1*
X7402360Y2635390D1*
X7408430Y2617750D1*
X7412157Y2599473D1*
X7413483Y2580000D1*
X7413407Y2575333D1*
X833407Y1125333D2*
X831590Y1106770D1*
X827380Y1088597D1*
X820847Y1071123D1*
X812103Y1054647D1*
X801297Y1039443D1*
X788610Y1025770D1*
X774253Y1013860D1*
X758473Y1003910D1*
X741540Y996093D1*
X723730Y990537D1*
X705353Y987340D1*
X686717Y986553D1*
X668137Y988193D1*
X649923Y992227D1*
X632390Y998590D1*
X615827Y1007177D1*
X600520Y1017837D1*
X586727Y1030390D1*
X574677Y1044630D1*
X564577Y1060313D1*
X556597Y1077173D1*
X550870Y1094927D1*
X547497Y1113273D1*
X546530Y1131900D1*
X547987Y1150497D1*
X551847Y1168747D1*
X558040Y1186343D1*
X566467Y1202983D1*
X576977Y1218393D1*
X589400Y1232310D1*
X603523Y1244497D1*
X619107Y1254747D1*
X635890Y1262890D1*
X653587Y1268787D1*
X671900Y1272337D1*
X690517Y1273483D1*
X709127Y1272203D1*
X727413Y1268520D1*
X745067Y1262497D1*
X761790Y1254233D1*
X777300Y1243870D1*
X791333Y1231580D1*
X803657Y1217577D1*
X814057Y1202093D1*
X822360Y1185390D1*
X828430Y1167750D1*
X832157Y1149473D1*
X833483Y1130000D1*
X833407Y1125333D1*
X-816593Y765333D2*
X-818410Y746770D1*
X-822620Y728597D1*
X-829153Y711123D1*
X-837897Y694647D1*
X-848703Y679443D1*
X-861390Y665770D1*
X-875747Y653860D1*
X-891527Y643910D1*
X-908460Y636093D1*
X-926270Y630537D1*
X-944647Y627340D1*
X-963283Y626553D1*
X-981863Y628193D1*
X-1000077Y632227D1*
X-1017610Y638590D1*
X-1034173Y647177D1*
X-1049480Y657837D1*
X-1063273Y670390D1*
X-1075323Y684630D1*
X-1085423Y700313D1*
X-1093403Y717173D1*
X-1099130Y734927D1*
X-1102503Y753273D1*
X-1103470Y771900D1*
X-1102013Y790497D1*
X-1098153Y808747D1*
X-1091960Y826343D1*
X-1083533Y842983D1*
X-1073023Y858393D1*
X-1060600Y872310D1*
X-1046477Y884497D1*
X-1030893Y894747D1*
X-1014110Y902890D1*
X-996413Y908787D1*
X-978100Y912337D1*
X-959483Y913483D1*
X-940873Y912203D1*
X-922587Y908520D1*
X-904933Y902497D1*
X-888210Y894233D1*
X-872700Y883870D1*
X-858667Y871580D1*
X-846343Y857577D1*
X-835943Y842093D1*
X-827640Y825390D1*
X-821570Y807750D1*
X-817843Y789473D1*
X-816517Y770000D1*
X-816593Y765333D1*
X-826593Y-414667D2*
X-828410Y-433230D1*
X-832620Y-451403D1*
X-839153Y-468877D1*
X-847897Y-485353D1*
X-858703Y-500557D1*
X-871390Y-514230D1*
X-885747Y-526140D1*
X-901527Y-536090D1*
X-918460Y-543907D1*
X-936270Y-549463D1*
X-954647Y-552660D1*
X-973283Y-553447D1*
X-991863Y-551807D1*
X-1010077Y-547773D1*
X-1027610Y-541410D1*
X-1044173Y-532823D1*
X-1059480Y-522163D1*
X-1073273Y-509610D1*
X-1085323Y-495370D1*
X-1095423Y-479687D1*
X-1103403Y-462827D1*
X-1109130Y-445073D1*
X-1112503Y-426727D1*
X-1113470Y-408100D1*
X-1112013Y-389503D1*
X-1108153Y-371253D1*
X-1101960Y-353657D1*
X-1093533Y-337017D1*
X-1083023Y-321607D1*
X-1070600Y-307690D1*
X-1056477Y-295503D1*
X-1040893Y-285253D1*
X-1024110Y-277110D1*
X-1006413Y-271213D1*
X-988100Y-267663D1*
X-969483Y-266517D1*
X-950873Y-267797D1*
X-932587Y-271480D1*
X-914933Y-277503D1*
X-898210Y-285767D1*
X-882700Y-296130D1*
X-868667Y-308420D1*
X-856343Y-322423D1*
X-845943Y-337907D1*
X-837640Y-354610D1*
X-831570Y-372250D1*
X-827843Y-390527D1*
X-826517Y-410000D1*
X-826593Y-414667D1*
X253407Y635333D2*
X251590Y616770D1*
X247380Y598597D1*
X240847Y581123D1*
X232103Y564647D1*
X221297Y549443D1*
X208610Y535770D1*
X194253Y523860D1*
X178473Y513910D1*
X161540Y506093D1*
X143730Y500537D1*
X125353Y497340D1*
X106717Y496553D1*
X88137Y498193D1*
X69923Y502227D1*
X52390Y508590D1*
X35827Y517177D1*
X20520Y527837D1*
X6727Y540390D1*
X-5323Y554630D1*
X-15423Y570313D1*
X-23403Y587173D1*
X-29130Y604927D1*
X-32503Y623273D1*
X-33470Y641900D1*
X-32013Y660497D1*
X-28153Y678747D1*
X-21960Y696343D1*
X-13533Y712983D1*
X-3023Y728393D1*
X9400Y742310D1*
X23523Y754497D1*
X39107Y764747D1*
X55890Y772890D1*
X73587Y778787D1*
X91900Y782337D1*
X110517Y783483D1*
X129127Y782203D1*
X147413Y778520D1*
X165067Y772497D1*
X181790Y764233D1*
X197300Y753870D1*
X211333Y741580D1*
X223657Y727577D1*
X234057Y712093D1*
X242360Y695390D1*
X248430Y677750D1*
X252157Y659473D1*
X253483Y640000D1*
X253407Y635333D1*
X331263Y4802687D2*
X328810Y4779487D1*
X324733Y4756517D1*
X319053Y4733890D1*
X311800Y4711720D1*
X303007Y4690110D1*
X292720Y4669173D1*
X280987Y4649010D1*
X267867Y4629720D1*
X253427Y4611397D1*
X237737Y4594137D1*
X220870Y4578017D1*
X202917Y4563123D1*
X183960Y4549527D1*
X164097Y4537293D1*
X143420Y4526483D1*
X122040Y4517153D1*
X100057Y4509350D1*
X77580Y4503107D1*
X54717Y4498457D1*
X31587Y4495423D1*
X8300Y4494020D1*
X-15027Y4494257D1*
X-38280Y4496130D1*
X-61343Y4499630D1*
X-84107Y4504743D1*
X-106453Y4511440D1*
X-128273Y4519690D1*
X-149460Y4529453D1*
X-169910Y4540677D1*
X-189523Y4553310D1*
X-208200Y4567287D1*
X-225850Y4582543D1*
X-242383Y4599000D1*
X-257723Y4616577D1*
X-271790Y4635187D1*
X-284517Y4654740D1*
X-295837Y4675137D1*
X-305700Y4696277D1*
X-314050Y4718060D1*
X-320853Y4740373D1*
X-326073Y4763110D1*
X-329683Y4786160D1*
X-331667Y4809403D1*
X-332017Y4832730D1*
X-330723Y4856023D1*
X-327800Y4879167D1*
X-323260Y4902050D1*
X-317123Y4924557D1*
X-309420Y4946577D1*
X-300190Y4968000D1*
X-289480Y4988727D1*
X-277343Y5008647D1*
X-263837Y5027670D1*
X-249027Y5045693D1*
X-232987Y5062633D1*
X-215800Y5078407D1*
X-197547Y5092937D1*
X-178320Y5106147D1*
X-158210Y5117973D1*
X-137323Y5128360D1*
X-115757Y5137257D1*
X-93620Y5144613D1*
X-71020Y5150400D1*
X-48070Y5154587D1*
X-24883Y5157150D1*
X-1573Y5158080D1*
X21747Y5157370D1*
X44957Y5155027D1*
X67943Y5151057D1*
X90597Y5145487D1*
X112803Y5138337D1*
X134453Y5129647D1*
X155440Y5119460D1*
X175657Y5107823D1*
X195010Y5094793D1*
X213400Y5080440D1*
X230737Y5064830D1*
X246933Y5048043D1*
X261913Y5030157D1*
X275600Y5011267D1*
X287927Y4991460D1*
X298833Y4970837D1*
X308263Y4949500D1*
X316173Y4927553D1*
X322523Y4905107D1*
X327280Y4882270D1*
X330423Y4859153D1*
X332083Y4826000D1*
X331263Y4802687D1*
X6935263Y4485187D2*
X6932810Y4461987D1*
X6928733Y4439017D1*
X6923053Y4416390D1*
X6915800Y4394220D1*
X6907007Y4372610D1*
X6896720Y4351673D1*
X6884987Y4331510D1*
X6871867Y4312220D1*
X6857427Y4293897D1*
X6841737Y4276637D1*
X6824870Y4260517D1*
X6806917Y4245623D1*
X6787960Y4232027D1*
X6768097Y4219793D1*
X6747420Y4208983D1*
X6726040Y4199653D1*
X6704057Y4191850D1*
X6681580Y4185607D1*
X6658717Y4180957D1*
X6635587Y4177923D1*
X6612300Y4176520D1*
X6588973Y4176757D1*
X6565720Y4178630D1*
X6542657Y4182130D1*
X6519893Y4187243D1*
X6497547Y4193940D1*
X6475727Y4202190D1*
X6454540Y4211953D1*
X6434090Y4223177D1*
X6414477Y4235810D1*
X6395800Y4249787D1*
X6378150Y4265043D1*
X6361617Y4281500D1*
X6346277Y4299077D1*
X6332210Y4317687D1*
X6319483Y4337240D1*
X6308163Y4357637D1*
X6298300Y4378777D1*
X6289950Y4400560D1*
X6283147Y4422873D1*
X6277927Y4445610D1*
X6274317Y4468660D1*
X6272333Y4491903D1*
X6271983Y4515230D1*
X6273277Y4538523D1*
X6276200Y4561667D1*
X6280740Y4584550D1*
X6286877Y4607057D1*
X6294580Y4629077D1*
X6303810Y4650500D1*
X6314520Y4671227D1*
X6326657Y4691147D1*
X6340163Y4710170D1*
X6354973Y4728193D1*
X6371013Y4745133D1*
X6388200Y4760907D1*
X6406453Y4775437D1*
X6425680Y4788647D1*
X6445790Y4800473D1*
X6466677Y4810860D1*
X6488243Y4819757D1*
X6510380Y4827113D1*
X6532980Y4832900D1*
X6555930Y4837087D1*
X6579117Y4839650D1*
X6602427Y4840580D1*
X6625747Y4839870D1*
X6648957Y4837527D1*
X6671943Y4833557D1*
X6694597Y4827987D1*
X6716803Y4820837D1*
X6738453Y4812147D1*
X6759440Y4801960D1*
X6779657Y4790323D1*
X6799010Y4777293D1*
X6817400Y4762940D1*
X6834737Y4747330D1*
X6850933Y4730543D1*
X6865913Y4712657D1*
X6879600Y4693767D1*
X6891927Y4673960D1*
X6902833Y4653337D1*
X6912263Y4632000D1*
X6920173Y4610053D1*
X6926523Y4587607D1*
X6931280Y4564770D1*
X6934423Y4541653D1*
X6936083Y4508500D1*
X6935263Y4485187D1*
X331263Y-23313D2*
X328810Y-46513D1*
X324733Y-69483D1*
X319053Y-92110D1*
X311800Y-114280D1*
X303007Y-135890D1*
X292720Y-156827D1*
X280987Y-176990D1*
X267867Y-196280D1*
X253427Y-214603D1*
X237737Y-231863D1*
X220870Y-247983D1*
X202917Y-262877D1*
X183960Y-276473D1*
X164097Y-288707D1*
X143420Y-299517D1*
X122040Y-308847D1*
X100057Y-316650D1*
X77580Y-322893D1*
X54717Y-327543D1*
X31587Y-330577D1*
X8300Y-331980D1*
X-15027Y-331743D1*
X-38280Y-329870D1*
X-61343Y-326370D1*
X-84107Y-321257D1*
X-106453Y-314560D1*
X-128273Y-306310D1*
X-149460Y-296547D1*
X-169910Y-285323D1*
X-189523Y-272690D1*
X-208200Y-258713D1*
X-225850Y-243457D1*
X-242383Y-227000D1*
X-257723Y-209423D1*
X-271790Y-190813D1*
X-284517Y-171260D1*
X-295837Y-150863D1*
X-305700Y-129723D1*
X-314050Y-107940D1*
X-320853Y-85627D1*
X-326073Y-62890D1*
X-329683Y-39840D1*
X-331667Y-16597D1*
X-332017Y6730D1*
X-330723Y30023D1*
X-327800Y53167D1*
X-323260Y76050D1*
X-317123Y98557D1*
X-309420Y120577D1*
X-300190Y142000D1*
X-289480Y162727D1*
X-277343Y182647D1*
X-263837Y201670D1*
X-249027Y219693D1*
X-232987Y236633D1*
X-215800Y252407D1*
X-197547Y266937D1*
X-178320Y280147D1*
X-158210Y291973D1*
X-137323Y302360D1*
X-115757Y311257D1*
X-93620Y318613D1*
X-71020Y324400D1*
X-48070Y328587D1*
X-24883Y331150D1*
X-1573Y332080D1*
X21747Y331370D1*
X44957Y329027D1*
X67943Y325057D1*
X90597Y319487D1*
X112803Y312337D1*
X134453Y303647D1*
X155440Y293460D1*
X175657Y281823D1*
X195010Y268793D1*
X213400Y254440D1*
X230737Y238830D1*
X246933Y222043D1*
X261913Y204157D1*
X275600Y185267D1*
X287927Y165460D1*
X298833Y144837D1*
X308263Y123500D1*
X316173Y101553D1*
X322523Y79107D1*
X327280Y56270D1*
X330423Y33153D1*
X332083Y0D1*
X331263Y-23313D1*
X6213407Y4015333D2*
X6211590Y3996770D1*
X6207380Y3978597D1*
X6200847Y3961123D1*
X6192103Y3944647D1*
X6181297Y3929443D1*
X6168610Y3915770D1*
X6154253Y3903860D1*
X6138473Y3893910D1*
X6121540Y3886093D1*
X6103730Y3880537D1*
X6085353Y3877340D1*
X6066717Y3876553D1*
X6048137Y3878193D1*
X6029923Y3882227D1*
X6012390Y3888590D1*
X5995827Y3897177D1*
X5980520Y3907837D1*
X5966727Y3920390D1*
X5954677Y3934630D1*
X5944577Y3950313D1*
X5936597Y3967173D1*
X5930870Y3984927D1*
X5927497Y4003273D1*
X5926530Y4021900D1*
X5927987Y4040497D1*
X5931847Y4058747D1*
X5938040Y4076343D1*
X5946467Y4092983D1*
X5956977Y4108393D1*
X5969400Y4122310D1*
X5983523Y4134497D1*
X5999107Y4144747D1*
X6015890Y4152890D1*
X6033587Y4158787D1*
X6051900Y4162337D1*
X6070517Y4163483D1*
X6089127Y4162203D1*
X6107413Y4158520D1*
X6125067Y4152497D1*
X6141790Y4144233D1*
X6157300Y4133870D1*
X6171333Y4121580D1*
X6183657Y4107577D1*
X6194057Y4092093D1*
X6202360Y4075390D1*
X6208430Y4057750D1*
X6212157Y4039473D1*
X6213483Y4020000D1*
X6213407Y4015333D1*
X5553407Y3485333D2*
X5551590Y3466770D1*
X5547380Y3448597D1*
X5540847Y3431123D1*
X5532103Y3414647D1*
X5521297Y3399443D1*
X5508610Y3385770D1*
X5494253Y3373860D1*
X5478473Y3363910D1*
X5461540Y3356093D1*
X5443730Y3350537D1*
X5425353Y3347340D1*
X5406717Y3346553D1*
X5388137Y3348193D1*
X5369923Y3352227D1*
X5352390Y3358590D1*
X5335827Y3367177D1*
X5320520Y3377837D1*
X5306727Y3390390D1*
X5294677Y3404630D1*
X5284577Y3420313D1*
X5276597Y3437173D1*
X5270870Y3454927D1*
X5267497Y3473273D1*
X5266530Y3491900D1*
X5267987Y3510497D1*
X5271847Y3528747D1*
X5278040Y3546343D1*
X5286467Y3562983D1*
X5296977Y3578393D1*
X5309400Y3592310D1*
X5323523Y3604497D1*
X5339107Y3614747D1*
X5355890Y3622890D1*
X5373587Y3628787D1*
X5391900Y3632337D1*
X5410517Y3633483D1*
X5429127Y3632203D1*
X5447413Y3628520D1*
X5465067Y3622497D1*
X5481790Y3614233D1*
X5497300Y3603870D1*
X5511333Y3591580D1*
X5523657Y3577577D1*
X5534057Y3562093D1*
X5542360Y3545390D1*
X5548430Y3527750D1*
X5552157Y3509473D1*
X5553483Y3490000D1*
X5553407Y3485333D1*
X3943407Y6365333D2*
X3941590Y6346770D1*
X3937380Y6328597D1*
X3930847Y6311123D1*
X3922103Y6294647D1*
X3911297Y6279443D1*
X3898610Y6265770D1*
X3884253Y6253860D1*
X3868473Y6243910D1*
X3851540Y6236093D1*
X3833730Y6230537D1*
X3815353Y6227340D1*
X3796717Y6226553D1*
X3778137Y6228193D1*
X3759923Y6232227D1*
X3742390Y6238590D1*
X3725827Y6247177D1*
X3710520Y6257837D1*
X3696727Y6270390D1*
X3684677Y6284630D1*
X3674577Y6300313D1*
X3666597Y6317173D1*
X3660870Y6334927D1*
X3657497Y6353273D1*
X3656530Y6371900D1*
X3657987Y6390497D1*
X3661847Y6408747D1*
X3668040Y6426343D1*
X3676467Y6442983D1*
X3686977Y6458393D1*
X3699400Y6472310D1*
X3713523Y6484497D1*
X3729107Y6494747D1*
X3745890Y6502890D1*
X3763587Y6508787D1*
X3781900Y6512337D1*
X3800517Y6513483D1*
X3819127Y6512203D1*
X3837413Y6508520D1*
X3855067Y6502497D1*
X3871790Y6494233D1*
X3887300Y6483870D1*
X3901333Y6471580D1*
X3913657Y6457577D1*
X3924057Y6442093D1*
X3932360Y6425390D1*
X3938430Y6407750D1*
X3942157Y6389473D1*
X3943483Y6370000D1*
X3943407Y6365333D1*
X3443407Y6514430D2*
X3441590Y6495867D1*
X3437380Y6477693D1*
X3430847Y6460220D1*
X3422103Y6443743D1*
X3411297Y6428540D1*
X3398610Y6414867D1*
X3384253Y6402957D1*
X3368473Y6393007D1*
X3351540Y6385190D1*
X3333730Y6379633D1*
X3315353Y6376437D1*
X3296717Y6375650D1*
X3278137Y6377290D1*
X3259923Y6381323D1*
X3242390Y6387687D1*
X3225827Y6396273D1*
X3210520Y6406933D1*
X3196727Y6419487D1*
X3184677Y6433727D1*
X3174577Y6449410D1*
X3166597Y6466270D1*
X3160870Y6484023D1*
X3157497Y6502370D1*
X3156530Y6520997D1*
X3157987Y6539593D1*
X3161847Y6557843D1*
X3168040Y6575440D1*
X3176467Y6592080D1*
X3186977Y6607490D1*
X3199400Y6621407D1*
X3213523Y6633593D1*
X3229107Y6643843D1*
X3245890Y6651987D1*
X3263587Y6657883D1*
X3281900Y6661433D1*
X3300517Y6662580D1*
X3319127Y6661300D1*
X3337413Y6657617D1*
X3355067Y6651593D1*
X3371790Y6643330D1*
X3387300Y6632967D1*
X3401333Y6620677D1*
X3413657Y6606673D1*
X3424057Y6591190D1*
X3432360Y6574487D1*
X3438430Y6556847D1*
X3442157Y6538570D1*
X3443483Y6519097D1*
X3443407Y6514430D1*
X2938407Y915333D2*
X2936590Y896770D1*
X2932380Y878597D1*
X2925847Y861123D1*
X2917103Y844647D1*
X2906297Y829443D1*
X2893610Y815770D1*
X2879253Y803860D1*
X2863473Y793910D1*
X2846540Y786093D1*
X2828730Y780537D1*
X2810353Y777340D1*
X2791717Y776553D1*
X2773137Y778193D1*
X2754923Y782227D1*
X2737390Y788590D1*
X2720827Y797177D1*
X2705520Y807837D1*
X2691727Y820390D1*
X2679677Y834630D1*
X2669577Y850313D1*
X2661597Y867173D1*
X2655870Y884927D1*
X2652497Y903273D1*
X2651530Y921900D1*
X2652987Y940497D1*
X2656847Y958747D1*
X2663040Y976343D1*
X2671467Y992983D1*
X2681977Y1008393D1*
X2694400Y1022310D1*
X2708523Y1034497D1*
X2724107Y1044747D1*
X2740890Y1052890D1*
X2758587Y1058787D1*
X2776900Y1062337D1*
X2795517Y1063483D1*
X2814127Y1062203D1*
X2832413Y1058520D1*
X2850067Y1052497D1*
X2866790Y1044233D1*
X2882300Y1033870D1*
X2896333Y1021580D1*
X2908657Y1007577D1*
X2919057Y992093D1*
X2927360Y975390D1*
X2933430Y957750D1*
X2937157Y939473D1*
X2938483Y920000D1*
X2938407Y915333D1*
X-486593Y1605333D2*
X-488410Y1586770D1*
X-492620Y1568597D1*
X-499153Y1551123D1*
X-507897Y1534647D1*
X-518703Y1519443D1*
X-531390Y1505770D1*
X-545747Y1493860D1*
X-561527Y1483910D1*
X-578460Y1476093D1*
X-596270Y1470537D1*
X-614647Y1467340D1*
X-633283Y1466553D1*
X-651863Y1468193D1*
X-670077Y1472227D1*
X-687610Y1478590D1*
X-704173Y1487177D1*
X-719480Y1497837D1*
X-733273Y1510390D1*
X-745323Y1524630D1*
X-755423Y1540313D1*
X-763403Y1557173D1*
X-769130Y1574927D1*
X-772503Y1593273D1*
X-773470Y1611900D1*
X-772013Y1630497D1*
X-768153Y1648747D1*
X-761960Y1666343D1*
X-753533Y1682983D1*
X-743023Y1698393D1*
X-730600Y1712310D1*
X-716807Y1724237D1*
X-1335163Y1724243D1*
X-1335033Y-1413800D1*
X-1334983Y-1430890D1*
X-1321293Y-1507447D1*
X-1294553Y-1580543D1*
X-1255570Y-1647913D1*
X-1205520Y-1707520D1*
X-1145910Y-1757573D1*
X-1078543Y-1796557D1*
X-1005447Y-1823297D1*
X-928827Y-1836987D1*
X21443Y-1837243D1*
X7003917Y-1836740D1*
X7043767Y-1836310D1*
X7120287Y-1822157D1*
X7193203Y-1795120D1*
X7260413Y-1755990D1*
X7319927Y-1705930D1*
X7369987Y-1646417D1*
X7409117Y-1579207D1*
X7436153Y-1506290D1*
X7450307Y-1429820D1*
X7451243Y-1273593D1*
X7451247Y6201967D1*
X7445133Y6283620D1*
X7427283Y6358917D1*
X7397820Y6430450D1*
X7357473Y6496463D1*
X7307250Y6555307D1*
X7248393Y6605523D1*
X7182377Y6645857D1*
X7110833Y6675307D1*
X7035553Y6693140D1*
X6953970Y6699247D1*
X-162910Y6698737D1*
X-202763Y6698303D1*
X-279283Y6684157D1*
X-352200Y6657117D1*
X-419410Y6617990D1*
X-478927Y6567930D1*
X-528987Y6508417D1*
X-568117Y6441210D1*
X-595153Y6368290D1*
X-609307Y6291820D1*
X-610243Y6135593D1*
Y3737820D1*
X585490Y3737660D1*
X620323Y3730857D1*
X627217Y3728000D1*
X657590Y3707353D1*
X662443Y3701670D1*
X681130Y3672997D1*
X683440Y3665890D1*
X689733Y3632237D1*
X689363Y1826023D1*
X682083Y1791307D1*
X678690Y1784650D1*
X659353Y1756410D1*
X653670Y1751557D1*
X624997Y1732870D1*
X617890Y1730560D1*
X584237Y1724267D1*
X-542700Y1723870D1*
X-528667Y1711580D1*
X-516343Y1697577D1*
X-505943Y1682093D1*
X-497640Y1665390D1*
X-491570Y1647750D1*
X-487843Y1629473D1*
X-486517Y1610000D1*
X-486593Y1605333D1*
X7123407Y5055333D2*
X7121590Y5036770D1*
X7117380Y5018597D1*
X7110847Y5001123D1*
X7102103Y4984647D1*
X7091297Y4969443D1*
X7078610Y4955770D1*
X7064253Y4943860D1*
X7048473Y4933910D1*
X7031540Y4926093D1*
X7013730Y4920537D1*
X6995353Y4917340D1*
X6976717Y4916553D1*
X6958137Y4918193D1*
X6939923Y4922227D1*
X6922390Y4928590D1*
X6905827Y4937177D1*
X6890520Y4947837D1*
X6876727Y4960390D1*
X6864677Y4974630D1*
X6854577Y4990313D1*
X6846597Y5007173D1*
X6840870Y5024927D1*
X6837497Y5043273D1*
X6836530Y5061900D1*
X6837987Y5080497D1*
X6841847Y5098747D1*
X6848040Y5116343D1*
X6856467Y5132983D1*
X6866977Y5148393D1*
X6879400Y5162310D1*
X6893523Y5174497D1*
X6909107Y5184747D1*
X6925890Y5192890D1*
X6943587Y5198787D1*
X6961900Y5202337D1*
X6980517Y5203483D1*
X6999127Y5202203D1*
X7017413Y5198520D1*
X7035067Y5192497D1*
X7051790Y5184233D1*
X7067300Y5173870D1*
X7081333Y5161580D1*
X7093657Y5147577D1*
X7104057Y5132093D1*
X7112360Y5115390D1*
X7118430Y5097750D1*
X7122157Y5079473D1*
X7123483Y5060000D1*
X7123407Y5055333D1*
X5523407Y2715333D2*
X5521590Y2696770D1*
X5517380Y2678597D1*
X5514140Y2669093D1*
X5792880Y2947833D1*
X5788283Y2967553D1*
X5786517Y2990000D1*
X5788283Y3012447D1*
X5793540Y3034340D1*
X5802157Y3055140D1*
X5813920Y3074337D1*
X5828543Y3091457D1*
X5845663Y3106080D1*
X5864860Y3117843D1*
X5885660Y3126460D1*
X5907553Y3131717D1*
X5930000Y3133483D1*
X5952447Y3131717D1*
X5974340Y3126460D1*
X5995140Y3117843D1*
X6014337Y3106080D1*
X6031457Y3091457D1*
X6046080Y3074337D1*
X6057843Y3055140D1*
X6066460Y3034340D1*
X6071717Y3012447D1*
X6073483Y2990000D1*
X6071717Y2967553D1*
X6066460Y2945660D1*
X6060773Y2931213D1*
X6060380Y2889740D1*
X6057170Y2869470D1*
X6050827Y2849950D1*
X6041510Y2831667D1*
X6029450Y2815063D1*
X5972980Y2758023D1*
X5394157Y2179200D1*
X5387843Y2164860D1*
X5376080Y2145663D1*
X5361457Y2128543D1*
X5344337Y2113920D1*
X5325140Y2102157D1*
X5304340Y2093540D1*
X5282447Y2088283D1*
X5260000Y2086517D1*
X5237553Y2088283D1*
X5215660Y2093540D1*
X5194860Y2102157D1*
X5175663Y2113920D1*
X5158543Y2128543D1*
X5143920Y2145663D1*
X5132157Y2164860D1*
X5123540Y2185660D1*
X5118283Y2207553D1*
X5116517Y2230000D1*
X5118283Y2252447D1*
X5123540Y2274340D1*
X5132157Y2295140D1*
X5143920Y2314337D1*
X5158543Y2331457D1*
X5175663Y2346080D1*
X5194860Y2357843D1*
X5209097Y2364040D1*
X5430930Y2585883D1*
X5413730Y2580537D1*
X5395353Y2577340D1*
X5376717Y2576553D1*
X5358137Y2578193D1*
X5339923Y2582227D1*
X5322390Y2588590D1*
X5305827Y2597177D1*
X5290520Y2607837D1*
X5276727Y2620390D1*
X5264677Y2634630D1*
X5254577Y2650313D1*
X5246597Y2667173D1*
X5240870Y2684927D1*
X5237497Y2703273D1*
X5236530Y2721900D1*
X5237987Y2740497D1*
X5241847Y2758747D1*
X5248040Y2776343D1*
X5256467Y2792983D1*
X5266977Y2808393D1*
X5279400Y2822310D1*
X5293523Y2834497D1*
X5309107Y2844747D1*
X5325890Y2852890D1*
X5343587Y2858787D1*
X5361900Y2862337D1*
X5380517Y2863483D1*
X5399127Y2862203D1*
X5417413Y2858520D1*
X5435067Y2852497D1*
X5451790Y2844233D1*
X5467300Y2833870D1*
X5481333Y2821580D1*
X5493657Y2807577D1*
X5504057Y2792093D1*
X5512360Y2775390D1*
X5518430Y2757750D1*
X5522157Y2739473D1*
X5523483Y2720000D1*
X5523407Y2715333D1*
X5033407Y1185333D2*
X5031590Y1166770D1*
X5027380Y1148597D1*
X5020847Y1131123D1*
X5012103Y1114647D1*
X5001297Y1099443D1*
X4988610Y1085770D1*
X4974253Y1073860D1*
X4958473Y1063910D1*
X4941540Y1056093D1*
X4923730Y1050537D1*
X4905353Y1047340D1*
X4886717Y1046553D1*
X4868137Y1048193D1*
X4849923Y1052227D1*
X4832390Y1058590D1*
X4815827Y1067177D1*
X4800520Y1077837D1*
X4786727Y1090390D1*
X4774677Y1104630D1*
X4764577Y1120313D1*
X4756597Y1137173D1*
X4750870Y1154927D1*
X4747497Y1173273D1*
X4746530Y1191900D1*
X4747987Y1210497D1*
X4751847Y1228747D1*
X4758040Y1246343D1*
X4766467Y1262983D1*
X4776977Y1278393D1*
X4789400Y1292310D1*
X4803523Y1304497D1*
X4819107Y1314747D1*
X4835890Y1322890D1*
X4853587Y1328787D1*
X4871900Y1332337D1*
X4890517Y1333483D1*
X4909127Y1332203D1*
X4927413Y1328520D1*
X4945067Y1322497D1*
X4961790Y1314233D1*
X4977300Y1303870D1*
X4991333Y1291580D1*
X5003657Y1277577D1*
X5014057Y1262093D1*
X5022360Y1245390D1*
X5028430Y1227750D1*
X5032157Y1209473D1*
X5033483Y1190000D1*
X5033407Y1185333D1*
X2938407Y2540333D2*
X2936590Y2521770D1*
X2932380Y2503597D1*
X2925847Y2486123D1*
X2917103Y2469647D1*
X2906297Y2454443D1*
X2893610Y2440770D1*
X2879253Y2428860D1*
X2863473Y2418910D1*
X2846540Y2411093D1*
X2828730Y2405537D1*
X2810353Y2402340D1*
X2791717Y2401553D1*
X2773137Y2403193D1*
X2754923Y2407227D1*
X2737390Y2413590D1*
X2720827Y2422177D1*
X2705520Y2432837D1*
X2691727Y2445390D1*
X2679677Y2459630D1*
X2669577Y2475313D1*
X2661597Y2492173D1*
X2655870Y2509927D1*
X2652497Y2528273D1*
X2651530Y2546900D1*
X2652987Y2565497D1*
X2656847Y2583747D1*
X2663040Y2601343D1*
X2671467Y2617983D1*
X2681977Y2633393D1*
X2694400Y2647310D1*
X2708523Y2659497D1*
X2724107Y2669747D1*
X2740890Y2677890D1*
X2758587Y2683787D1*
X2776900Y2687337D1*
X2795517Y2688483D1*
X2814127Y2687203D1*
X2832413Y2683520D1*
X2850067Y2677497D1*
X2866790Y2669233D1*
X2882300Y2658870D1*
X2896333Y2646580D1*
X2908657Y2632577D1*
X2919057Y2617093D1*
X2927360Y2600390D1*
X2933430Y2582750D1*
X2937157Y2564473D1*
X2938483Y2545000D1*
X2938407Y2540333D1*
X6933407Y6035333D2*
X6931590Y6016770D1*
X6927380Y5998597D1*
X6920847Y5981123D1*
X6912103Y5964647D1*
X6901297Y5949443D1*
X6888610Y5935770D1*
X6874253Y5923860D1*
X6858473Y5913910D1*
X6841540Y5906093D1*
X6823730Y5900537D1*
X6805353Y5897340D1*
X6786717Y5896553D1*
X6768137Y5898193D1*
X6749923Y5902227D1*
X6732390Y5908590D1*
X6715827Y5917177D1*
X6700520Y5927837D1*
X6686727Y5940390D1*
X6674677Y5954630D1*
X6664577Y5970313D1*
X6656597Y5987173D1*
X6650870Y6004927D1*
X6647497Y6023273D1*
X6646530Y6041900D1*
X6647987Y6060497D1*
X6651847Y6078747D1*
X6658040Y6096343D1*
X6666467Y6112983D1*
X6676977Y6128393D1*
X6689400Y6142310D1*
X6703523Y6154497D1*
X6719107Y6164747D1*
X6735890Y6172890D1*
X6753587Y6178787D1*
X6771900Y6182337D1*
X6790517Y6183483D1*
X6809127Y6182203D1*
X6827413Y6178520D1*
X6845067Y6172497D1*
X6861790Y6164233D1*
X6877300Y6153870D1*
X6891333Y6141580D1*
X6903657Y6127577D1*
X6914057Y6112093D1*
X6922360Y6095390D1*
X6928430Y6077750D1*
X6932157Y6059473D1*
X6933483Y6040000D1*
X6933407Y6035333D1*
X1483407Y1285333D2*
X1481590Y1266770D1*
X1477380Y1248597D1*
X1470847Y1231123D1*
X1462103Y1214647D1*
X1451297Y1199443D1*
X1438610Y1185770D1*
X1424253Y1173860D1*
X1408473Y1163910D1*
X1391540Y1156093D1*
X1373730Y1150537D1*
X1355353Y1147340D1*
X1336717Y1146553D1*
X1318137Y1148193D1*
X1299923Y1152227D1*
X1282390Y1158590D1*
X1265827Y1167177D1*
X1250520Y1177837D1*
X1236727Y1190390D1*
X1224677Y1204630D1*
X1214577Y1220313D1*
X1206597Y1237173D1*
X1200870Y1254927D1*
X1197497Y1273273D1*
X1196530Y1291900D1*
X1197987Y1310497D1*
X1201847Y1328747D1*
X1208040Y1346343D1*
X1216467Y1362983D1*
X1226977Y1378393D1*
X1239400Y1392310D1*
X1253523Y1404497D1*
X1269107Y1414747D1*
X1285890Y1422890D1*
X1303587Y1428787D1*
X1321900Y1432337D1*
X1340517Y1433483D1*
X1359127Y1432203D1*
X1377413Y1428520D1*
X1395067Y1422497D1*
X1411790Y1414233D1*
X1427300Y1403870D1*
X1441333Y1391580D1*
X1453657Y1377577D1*
X1464057Y1362093D1*
X1472360Y1345390D1*
X1478430Y1327750D1*
X1482157Y1309473D1*
X1483483Y1290000D1*
X1483407Y1285333D1*
X2143407Y1985333D2*
X2141590Y1966770D1*
X2137380Y1948597D1*
X2130847Y1931123D1*
X2122103Y1914647D1*
X2111297Y1899443D1*
X2098610Y1885770D1*
X2084253Y1873860D1*
X2068473Y1863910D1*
X2051540Y1856093D1*
X2033730Y1850537D1*
X2015353Y1847340D1*
X1996717Y1846553D1*
X1978137Y1848193D1*
X1959923Y1852227D1*
X1942390Y1858590D1*
X1925827Y1867177D1*
X1910520Y1877837D1*
X1896727Y1890390D1*
X1884677Y1904630D1*
X1874577Y1920313D1*
X1866597Y1937173D1*
X1860870Y1954927D1*
X1857497Y1973273D1*
X1856530Y1991900D1*
X1857987Y2010497D1*
X1861847Y2028747D1*
X1868040Y2046343D1*
X1876467Y2062983D1*
X1886977Y2078393D1*
X1899400Y2092310D1*
X1913523Y2104497D1*
X1929107Y2114747D1*
X1945890Y2122890D1*
X1963587Y2128787D1*
X1981900Y2132337D1*
X2000517Y2133483D1*
X2019127Y2132203D1*
X2037413Y2128520D1*
X2055067Y2122497D1*
X2071790Y2114233D1*
X2087300Y2103870D1*
X2101333Y2091580D1*
X2113657Y2077577D1*
X2124057Y2062093D1*
X2132360Y2045390D1*
X2138430Y2027750D1*
X2142157Y2009473D1*
X2143483Y1990000D1*
X2143407Y1985333D1*
X4813407Y5725333D2*
X4811590Y5706770D1*
X4807380Y5688597D1*
X4800847Y5671123D1*
X4792103Y5654647D1*
X4781297Y5639443D1*
X4768610Y5625770D1*
X4754253Y5613860D1*
X4738473Y5603910D1*
X4721540Y5596093D1*
X4703730Y5590537D1*
X4685353Y5587340D1*
X4666717Y5586553D1*
X4648137Y5588193D1*
X4629923Y5592227D1*
X4612390Y5598590D1*
X4595827Y5607177D1*
X4580520Y5617837D1*
X4566727Y5630390D1*
X4554677Y5644630D1*
X4544577Y5660313D1*
X4536597Y5677173D1*
X4530870Y5694927D1*
X4527497Y5713273D1*
X4526530Y5731900D1*
X4527987Y5750497D1*
X4531847Y5768747D1*
X4538040Y5786343D1*
X4546467Y5802983D1*
X4556977Y5818393D1*
X4569400Y5832310D1*
X4583523Y5844497D1*
X4599107Y5854747D1*
X4615890Y5862890D1*
X4633587Y5868787D1*
X4651900Y5872337D1*
X4670517Y5873483D1*
X4689127Y5872203D1*
X4707413Y5868520D1*
X4725067Y5862497D1*
X4741790Y5854233D1*
X4757300Y5843870D1*
X4771333Y5831580D1*
X4783657Y5817577D1*
X4794057Y5802093D1*
X4802360Y5785390D1*
X4808430Y5767750D1*
X4812157Y5749473D1*
X4813483Y5730000D1*
X4813407Y5725333D1*
X5733407Y-654667D2*
X5731590Y-673230D1*
X5727380Y-691403D1*
X5720847Y-708877D1*
X5712103Y-725353D1*
X5701297Y-740557D1*
X5688610Y-754230D1*
X5674253Y-766140D1*
X5658473Y-776090D1*
X5641540Y-783907D1*
X5623730Y-789463D1*
X5605353Y-792660D1*
X5586717Y-793447D1*
X5568137Y-791807D1*
X5549923Y-787773D1*
X5532390Y-781410D1*
X5515827Y-772823D1*
X5500520Y-762163D1*
X5486727Y-749610D1*
X5474677Y-735370D1*
X5464577Y-719687D1*
X5456597Y-702827D1*
X5450870Y-685073D1*
X5447497Y-666727D1*
X5446530Y-648100D1*
X5447987Y-629503D1*
X5451847Y-611253D1*
X5458040Y-593657D1*
X5466467Y-577017D1*
X5476977Y-561607D1*
X5489400Y-547690D1*
X5503523Y-535503D1*
X5519107Y-525253D1*
X5535890Y-517110D1*
X5553587Y-511213D1*
X5571900Y-507663D1*
X5590517Y-506517D1*
X5609127Y-507797D1*
X5627413Y-511480D1*
X5645067Y-517503D1*
X5661790Y-525767D1*
X5677300Y-536130D1*
X5691333Y-548420D1*
X5703657Y-562423D1*
X5714057Y-577907D1*
X5722360Y-594610D1*
X5728430Y-612250D1*
X5732157Y-630527D1*
X5733483Y-650000D1*
X5733407Y-654667D1*
X5003407Y2515333D2*
X5001590Y2496770D1*
X4997380Y2478597D1*
X4990847Y2461123D1*
X4982103Y2444647D1*
X4971297Y2429443D1*
X4958610Y2415770D1*
X4944253Y2403860D1*
X4928473Y2393910D1*
X4911540Y2386093D1*
X4893730Y2380537D1*
X4875353Y2377340D1*
X4856717Y2376553D1*
X4838137Y2378193D1*
X4819923Y2382227D1*
X4802390Y2388590D1*
X4785827Y2397177D1*
X4770520Y2407837D1*
X4756727Y2420390D1*
X4744677Y2434630D1*
X4734577Y2450313D1*
X4726597Y2467173D1*
X4720870Y2484927D1*
X4717497Y2503273D1*
X4716530Y2521900D1*
X4717987Y2540497D1*
X4721847Y2558747D1*
X4728040Y2576343D1*
X4736467Y2592983D1*
X4746977Y2608393D1*
X4759400Y2622310D1*
X4773523Y2634497D1*
X4789107Y2644747D1*
X4805890Y2652890D1*
X4823587Y2658787D1*
X4841900Y2662337D1*
X4860517Y2663483D1*
X4879127Y2662203D1*
X4897413Y2658520D1*
X4915067Y2652497D1*
X4931790Y2644233D1*
X4947300Y2633870D1*
X4961333Y2621580D1*
X4973657Y2607577D1*
X4984057Y2592093D1*
X4992360Y2575390D1*
X4998430Y2557750D1*
X5002157Y2539473D1*
X5003483Y2520000D1*
X5003407Y2515333D1*
X253407Y925333D2*
X251590Y906770D1*
X247380Y888597D1*
X240847Y871123D1*
X232103Y854647D1*
X221297Y839443D1*
X208610Y825770D1*
X194253Y813860D1*
X178473Y803910D1*
X161540Y796093D1*
X143730Y790537D1*
X125353Y787340D1*
X106717Y786553D1*
X88137Y788193D1*
X69923Y792227D1*
X52390Y798590D1*
X35827Y807177D1*
X20520Y817837D1*
X6727Y830390D1*
X-5323Y844630D1*
X-15423Y860313D1*
X-23403Y877173D1*
X-29130Y894927D1*
X-32503Y913273D1*
X-33470Y931900D1*
X-32013Y950497D1*
X-28153Y968747D1*
X-21960Y986343D1*
X-13533Y1002983D1*
X-3023Y1018393D1*
X9400Y1032310D1*
X23523Y1044497D1*
X39107Y1054747D1*
X55890Y1062890D1*
X73587Y1068787D1*
X91900Y1072337D1*
X110517Y1073483D1*
X129127Y1072203D1*
X147413Y1068520D1*
X165067Y1062497D1*
X181790Y1054233D1*
X197300Y1043870D1*
X211333Y1031580D1*
X223657Y1017577D1*
X234057Y1002093D1*
X242360Y985390D1*
X248430Y967750D1*
X252157Y949473D1*
X253483Y930000D1*
X253407Y925333D1*
X5383407Y-734667D2*
X5381590Y-753230D1*
X5377380Y-771403D1*
X5370847Y-788877D1*
X5362103Y-805353D1*
X5351297Y-820557D1*
X5338610Y-834230D1*
X5324253Y-846140D1*
X5308473Y-856090D1*
X5291540Y-863907D1*
X5273730Y-869463D1*
X5255353Y-872660D1*
X5236717Y-873447D1*
X5218137Y-871807D1*
X5199923Y-867773D1*
X5182390Y-861410D1*
X5165827Y-852823D1*
X5150520Y-842163D1*
X5136727Y-829610D1*
X5124677Y-815370D1*
X5114577Y-799687D1*
X5106597Y-782827D1*
X5100870Y-765073D1*
X5097497Y-746727D1*
X5096530Y-728100D1*
X5097987Y-709503D1*
X5101847Y-691253D1*
X5108040Y-673657D1*
X5116467Y-657017D1*
X5126977Y-641607D1*
X5139400Y-627690D1*
X5153523Y-615503D1*
X5169107Y-605253D1*
X5185890Y-597110D1*
X5203587Y-591213D1*
X5221900Y-587663D1*
X5240517Y-586517D1*
X5259127Y-587797D1*
X5277413Y-591480D1*
X5295067Y-597503D1*
X5311790Y-605767D1*
X5327300Y-616130D1*
X5341333Y-628420D1*
X5353657Y-642423D1*
X5364057Y-657907D1*
X5372360Y-674610D1*
X5378430Y-692250D1*
X5382157Y-710527D1*
X5383483Y-730000D1*
X5383407Y-734667D1*
X3713407Y655333D2*
X3711590Y636770D1*
X3707380Y618597D1*
X3700847Y601123D1*
X3692103Y584647D1*
X3681297Y569443D1*
X3668610Y555770D1*
X3654253Y543860D1*
X3638473Y533910D1*
X3621540Y526093D1*
X3603730Y520537D1*
X3585353Y517340D1*
X3566717Y516553D1*
X3548137Y518193D1*
X3529923Y522227D1*
X3512390Y528590D1*
X3495827Y537177D1*
X3480520Y547837D1*
X3466727Y560390D1*
X3454677Y574630D1*
X3444577Y590313D1*
X3436597Y607173D1*
X3430870Y624927D1*
X3427497Y643273D1*
X3426530Y661900D1*
X3427987Y680497D1*
X3431847Y698747D1*
X3438040Y716343D1*
X3446467Y732983D1*
X3456977Y748393D1*
X3469400Y762310D1*
X3483523Y774497D1*
X3499107Y784747D1*
X3515890Y792890D1*
X3533587Y798787D1*
X3551900Y802337D1*
X3570517Y803483D1*
X3589127Y802203D1*
X3607413Y798520D1*
X3625067Y792497D1*
X3641790Y784233D1*
X3657300Y773870D1*
X3671333Y761580D1*
X3683657Y747577D1*
X3694057Y732093D1*
X3702360Y715390D1*
X3708430Y697750D1*
X3712157Y679473D1*
X3713483Y660000D1*
X3713407Y655333D1*
X5303407Y605333D2*
X5301590Y586770D1*
X5297380Y568597D1*
X5290847Y551123D1*
X5282103Y534647D1*
X5271297Y519443D1*
X5258610Y505770D1*
X5244253Y493860D1*
X5228473Y483910D1*
X5211540Y476093D1*
X5193730Y470537D1*
X5175353Y467340D1*
X5156717Y466553D1*
X5138137Y468193D1*
X5119923Y472227D1*
X5102390Y478590D1*
X5085827Y487177D1*
X5070520Y497837D1*
X5056727Y510390D1*
X5044677Y524630D1*
X5034577Y540313D1*
X5026597Y557173D1*
X5020870Y574927D1*
X5017497Y593273D1*
X5016530Y611900D1*
X5017987Y630497D1*
X5021333Y646790D1*
X5007553Y648283D1*
X4985660Y653540D1*
X4964860Y662157D1*
X4945663Y673920D1*
X4932777Y684630D1*
X4437280Y684617D1*
X4423183Y670893D1*
X4404970Y657660D1*
X4384910Y647440D1*
X4363497Y640480D1*
X4341257Y636960D1*
X4318743D1*
X4296503Y640480D1*
X4275090Y647440D1*
X4255030Y657660D1*
X4236817Y670893D1*
X4220893Y686817D1*
X4207660Y705030D1*
X4197440Y725090D1*
X4190480Y746503D1*
X4186960Y768743D1*
Y791257D1*
X4190480Y813497D1*
X4197440Y834910D1*
X4207660Y854970D1*
X4220893Y873183D1*
X4236817Y889107D1*
X4255030Y902340D1*
X4275090Y912560D1*
X4296503Y919520D1*
X4318743Y923040D1*
X4341257D1*
X4363497Y919520D1*
X4384910Y912560D1*
X4404970Y902340D1*
X4415200Y895400D1*
X4932567Y895383D1*
X4945663Y906080D1*
X4964860Y917843D1*
X4985660Y926460D1*
X5007553Y931717D1*
X5030000Y933483D1*
X5052447Y931717D1*
X5074340Y926460D1*
X5095140Y917843D1*
X5114337Y906080D1*
X5131457Y891457D1*
X5146080Y874337D1*
X5157843Y855140D1*
X5166460Y834340D1*
X5171717Y812447D1*
X5173483Y790000D1*
X5171717Y767553D1*
X5168600Y753243D1*
X5188330Y750660D1*
X5206337Y745793D1*
X5223563Y738637D1*
X5239713Y729303D1*
X5254517Y717953D1*
X5267723Y704780D1*
X5279110Y690003D1*
X5288480Y673877D1*
X5295683Y656667D1*
X5300590Y638670D1*
X5303120Y620190D1*
X5303407Y605333D1*
X2364780Y384617D2*
X1397357D1*
X1384337Y373920D1*
X1365140Y362157D1*
X1344340Y353540D1*
X1322447Y348283D1*
X1300000Y346517D1*
X1277553Y348283D1*
X1255660Y353540D1*
X1234860Y362157D1*
X1215663Y373920D1*
X1198543Y388543D1*
X1183920Y405663D1*
X1172157Y424860D1*
X1163540Y445660D1*
X1158283Y467553D1*
X1156517Y490000D1*
X1158283Y512447D1*
X1163540Y534340D1*
X1172157Y555140D1*
X1183920Y574337D1*
X1198543Y591457D1*
X1215663Y606080D1*
X1234860Y617843D1*
X1255660Y626460D1*
X1277553Y631717D1*
X1300000Y633483D1*
X1322447Y631717D1*
X1344340Y626460D1*
X1365140Y617843D1*
X1384337Y606080D1*
X1397223Y595370D1*
X2342800Y595383D1*
X2356817Y609107D1*
X2375030Y622340D1*
X2395090Y632560D1*
X2416503Y639520D1*
X2438743Y643040D1*
X2461257D1*
X2483497Y639520D1*
X2504910Y632560D1*
X2524970Y622340D1*
X2543183Y609107D1*
X2559107Y593183D1*
X2572340Y574970D1*
X2582560Y554910D1*
X2589520Y533497D1*
X2593040Y511257D1*
Y488743D1*
X2589520Y466503D1*
X2582560Y445090D1*
X2572340Y425030D1*
X2559107Y406817D1*
X2543183Y390893D1*
X2524970Y377660D1*
X2504910Y367440D1*
X2483497Y360480D1*
X2461257Y356960D1*
X2438743D1*
X2416503Y360480D1*
X2395090Y367440D1*
X2375030Y377660D1*
X2364800Y384600D1*
X827500Y-857807D2*
Y-1242193D1*
X477500Y-857807D2*
Y-1242193D1*
X285307Y-1050000D2*
X477500D1*
X760000Y6142193D2*
Y5757807D1*
X1110000Y6142193D2*
Y5757807D1*
Y5950000D2*
X1302193D1*
X2050000Y6142193D2*
Y5757807D1*
Y5950000D2*
X2242193D1*
X508000Y5120193D2*
Y4953000D1*
X355807D2*
X508000D1*
Y4699000D2*
Y4531807D1*
X355807Y4699000D2*
X508000D1*
Y294193D2*
Y127000D1*
X355807D2*
X508000D1*
X4572000Y294193D2*
Y127000D1*
X5842000Y294193D2*
Y127000D1*
X6096000Y294193D2*
Y127000D1*
X6248193D1*
X6096000Y-127000D2*
Y-294193D1*
Y-127000D2*
X6248193D1*
X5842000D2*
Y-294193D1*
X508000Y-127000D2*
Y-294193D1*
X355807Y-127000D2*
X508000D1*
X-820000Y-1222807D2*
Y-1557193D1*
X-987193Y-1390000D2*
X-652807D1*
X2445000Y-857807D2*
Y-1242193D1*
X2095000Y-857807D2*
Y-1242193D1*
X1902807Y-1050000D2*
X2095000D1*
X7080000Y57193D2*
Y-277193D1*
X6912807Y-110000D2*
X7247193D1*
X5330000Y6142193D2*
Y5757807D1*
Y5950000D2*
X5522193D1*
X6610000Y-857810D2*
Y-1242193D1*
X6417810Y-1050000D2*
X6610000D1*
X3750000Y-857810D2*
Y-1050000D1*
X3557810D2*
X3750000D1*
X6597807Y1150000D2*
X6982193D1*
X6790000Y800000D2*
Y607807D1*
X6597810Y800000D2*
X6982193D1*
X6790000Y2750000D2*
Y2557807D1*
X6597810Y2750000D2*
X6982193D1*
X6792500Y3665000D2*
Y3472807D1*
X6600310Y3665000D2*
X6984693D1*
X7120000Y5807193D2*
Y5472807D1*
X6952807Y5640000D2*
X7287193D1*
X1340000Y3452190D2*
Y3260000D1*
X1147810D2*
X1532193D1*
X250000Y-606607D2*
Y-893393D1*
X106607Y-750000D2*
X393393D1*
X-300000Y-246607D2*
Y-533393D1*
X-443393Y-390000D2*
X-156607D1*
X6490000Y2143393D2*
Y1856607D1*
X6346607Y2000000D2*
X6633393D1*
X1850000Y1813393D2*
Y1526607D1*
X1706607Y1670000D2*
X1993393D1*
X5560000Y-1326607D2*
Y-1613393D1*
X5416607Y-1470000D2*
X5703393D1*
X3040000Y5963393D2*
Y5676607D1*
X2896607Y5820000D2*
X3183393D1*
X3770000Y5513393D2*
Y5226607D1*
X3626607Y5370000D2*
X3913393D1*
X2795000Y4313393D2*
Y4026607D1*
X2651607Y4170000D2*
X2938393D1*
X4635000Y4303393D2*
Y4016607D1*
X4491607Y4160000D2*
X4778393D1*
X7270000Y2723393D2*
Y2436607D1*
X7126607Y2580000D2*
X7413393D1*
X690000Y1273393D2*
Y986607D1*
X546607Y1130000D2*
X833393D1*
X-960000Y913393D2*
Y626607D1*
X-1103393Y770000D2*
X-816607D1*
X-970000Y-266607D2*
Y-553393D1*
X-1113393Y-410000D2*
X-826607D1*
X110000Y783393D2*
Y496607D1*
X-33393Y640000D2*
X253393D1*
X6070000Y4163393D2*
Y3876607D1*
X5926607Y4020000D2*
X6213393D1*
X3580000Y5713393D2*
Y5426607D1*
X3436607Y5570000D2*
X3723393D1*
X5410000Y3633393D2*
Y3346607D1*
X5266607Y3490000D2*
X5553393D1*
X3800000Y6513393D2*
Y6226607D1*
X3656607Y6370000D2*
X3943393D1*
X3300000Y6662490D2*
Y6375703D1*
X3156607Y6519097D2*
X3443393D1*
X2795000Y1063393D2*
Y776607D1*
X2651607Y920000D2*
X2938393D1*
X5300000Y-350000D2*
Y-493393D1*
X5156607Y-350000D2*
X5443393D1*
X5140000Y-1450000D2*
Y-1593393D1*
X4996607Y-1450000D2*
X5283393D1*
X-630000Y1610000D2*
Y1466607D1*
X-773393Y1610000D2*
X-486607D1*
X6980000Y5203393D2*
Y4916607D1*
X6836607Y5060000D2*
X7123393D1*
X5380000Y2863393D2*
Y2576607D1*
X5236607Y2720000D2*
X5523393D1*
X4890000Y1333393D2*
Y1046607D1*
X4746607Y1190000D2*
X5033393D1*
X2795000Y2688393D2*
Y2401607D1*
X2651607Y2545000D2*
X2938393D1*
X6790000Y6183393D2*
Y5896607D1*
X6646607Y6040000D2*
X6933393D1*
X3110000Y5313393D2*
Y5170000D1*
X2966607D2*
X3253393D1*
X1340000Y1433393D2*
Y1146607D1*
X1196607Y1290000D2*
X1483393D1*
X2000000Y2133393D2*
Y1846607D1*
X1856607Y1990000D2*
X2143393D1*
X4670000Y5873393D2*
Y5586607D1*
X4526607Y5730000D2*
X4813393D1*
X5590000Y-506607D2*
Y-793393D1*
X5446607Y-650000D2*
X5733393D1*
X4860000Y2663393D2*
Y2376607D1*
X4716607Y2520000D2*
X5003393D1*
X110000Y1073393D2*
Y786607D1*
X-33393Y930000D2*
X253393D1*
X5240000Y-586607D2*
Y-873393D1*
X5096607Y-730000D2*
X5383393D1*
X3570000Y803393D2*
Y516607D1*
X3426607Y660000D2*
X3713393D1*
X3170000Y473393D2*
Y330000D1*
X3026607D2*
X3313393D1*
X5160000Y753393D2*
Y466607D1*
X5016607Y610000D2*
X5303393D1*
D37*
X1527500Y-1050000D3*
X1177500D3*
X827500D3*
D38*
X477500D3*
D37*
X60000Y5950000D3*
X410000D3*
X760000D3*
D38*
X1110000D3*
D37*
X1700000D3*
D38*
X2050000D3*
D39*
X508000Y4953000D3*
X762000D3*
X1016000D3*
X1270000D3*
X1524000D3*
X1778000D3*
X2032000D3*
X2286000D3*
X2540000D3*
X2794000D3*
X3048000D3*
X3302000D3*
X3556000D3*
X3810000D3*
X4064000D3*
X4318000D3*
X4572000D3*
X4826000D3*
X5080000D3*
X5334000D3*
X5588000D3*
X5842000D3*
X6096000D3*
Y4699000D3*
X5842000D3*
X5588000D3*
X5334000D3*
X5080000D3*
X4826000D3*
X4572000D3*
X4318000D3*
X4064000D3*
X3810000D3*
X3556000D3*
X3302000D3*
X3048000D3*
X2794000D3*
X2540000D3*
X2286000D3*
X2032000D3*
X1778000D3*
X1524000D3*
X1270000D3*
X1016000D3*
X762000D3*
D40*
X508000D3*
D39*
Y127000D3*
X762000D3*
X1016000D3*
X1270000D3*
X1524000D3*
X1778000D3*
X2032000D3*
X2286000D3*
X2540000D3*
X2794000D3*
X3048000D3*
X3302000D3*
X3556000D3*
X3810000D3*
X4064000D3*
X4318000D3*
X4572000D3*
X4826000D3*
X5080000D3*
X5334000D3*
X5588000D3*
X5842000D3*
X6096000D3*
Y-127000D3*
X5842000D3*
X5588000D3*
X5334000D3*
X5080000D3*
X4826000D3*
X4572000D3*
X4318000D3*
X4064000D3*
X3810000D3*
X3556000D3*
X3302000D3*
X3048000D3*
X2794000D3*
X2540000D3*
X2286000D3*
X2032000D3*
X1778000D3*
X1524000D3*
X1270000D3*
X1016000D3*
X762000D3*
D40*
X508000D3*
D41*
X-820000Y-1390000D3*
X-590000Y-860000D3*
X-1050000D3*
D37*
X3145000Y-1050000D3*
X2795000D3*
X2445000D3*
D38*
X2095000D3*
D41*
X7080000Y-110000D3*
D37*
X4980000Y5950000D3*
D38*
X5330000D3*
D37*
X6960000Y-1050000D3*
D38*
X6610000D3*
D37*
X4100000D3*
D38*
X3750000D3*
D37*
X6790000Y1850000D3*
Y1500000D3*
Y1150000D3*
D38*
Y800000D3*
D37*
Y3100000D3*
D38*
Y2750000D3*
D37*
X6792500Y4015000D3*
D38*
Y3665000D3*
D41*
X7120000Y5640000D3*
D37*
X1340000Y2210000D3*
Y2560000D3*
Y2910000D3*
D38*
Y3260000D3*
M02*
