M48
METRIC,0000.00
T01C0.9
T02C1.016
T03C1.4
T04C4.0
%
T01
X+000508Y+004953
X+000508Y+004699
X+000762Y+004699
X+001016Y+004699
X+001270Y+004699
X+001270Y+004953
X+001016Y+004953
X+000762Y+004953
X+001524Y+004953
X+001524Y+004699
X+001778Y+004699
X+002032Y+004699
X+002032Y+004953
X+001778Y+004953
X+002286Y+004953
X+002286Y+004699
X+002540Y+004699
X+002794Y+004699
X+002794Y+004953
X+002540Y+004953
X+003048Y+004953
X+003048Y+004699
X+003302Y+004699
X+003556Y+004699
X+003556Y+004953
X+003302Y+004953
X+003810Y+004953
X+003810Y+004699
X+004064Y+004699
X+004318Y+004699
X+004318Y+004953
X+004064Y+004953
X+004572Y+004953
X+004826Y+004953
X+005080Y+004953
X+005080Y+004699
X+004826Y+004699
X+004572Y+004699
X+005334Y+004699
X+005588Y+004699
X+005588Y+004953
X+005334Y+004953
X+005842Y+004953
X+005842Y+004699
X+006096Y+004699
X+006096Y+004953
X+007120Y+005640
X+006096Y+000127
X+006096Y-000127
X+005842Y-000127
X+005842Y+000127
X+005588Y+000127
X+005334Y+000127
X+005334Y-000127
X+005588Y-000127
X+005080Y-000127
X+005080Y+000127
X+004826Y+000127
X+004572Y+000127
X+004572Y-000127
X+004826Y-000127
X+004318Y-000127
X+004318Y+000127
X+004064Y+000127
X+003810Y+000127
X+003810Y-000127
X+004064Y-000127
X+003556Y-000127
X+003556Y+000127
X+003302Y+000127
X+003048Y+000127
X+003048Y-000127
X+003302Y-000127
X+002794Y-000127
X+002794Y+000127
X+002540Y+000127
X+002286Y+000127
X+002286Y-000127
X+002540Y-000127
X+002032Y-000127
X+002032Y+000127
X+001778Y+000127
X+001524Y+000127
X+001524Y-000127
X+001778Y-000127
X+001270Y-000127
X+001270Y+000127
X+001016Y+000127
X+000762Y+000127
X+000762Y-000127
X+001016Y-000127
X+000508Y-000127
X+000508Y+000127
X-000590Y-000860
X-001050Y-000860
X-000820Y-001390
X+007080Y-000110
T02
X+000250Y-000750
X-000300Y-000390
X-000970Y-000410
X-000960Y+000770
X-000630Y+001610
X+000110Y+000930
X+000110Y+000640
X+000690Y+001130
X+001340Y+001290
X+001850Y+001670
X+002000Y+001990
X+002795Y+002545
X+002795Y+000920
X+002450Y+000500
X+003170Y+000330
X+003570Y+000660
X+004330Y+000780
X+004890Y+001190
X+005030Y+000790
X+005160Y+000610
X+005300Y-000350
X+005240Y-000730
X+005590Y-000650
X+005300Y-001150
X+005140Y-001450
X+005560Y-001470
X+006490Y+002000
X+007270Y+002580
X+005930Y+002990
X+005380Y+002720
X+005260Y+002230
X+004860Y+002520
X+005410Y+003490
X+006070Y+004020
X+006980Y+005060
X+006790Y+006040
X+004670Y+005730
X+003770Y+005370
X+003580Y+005570
X+003040Y+005820
X+003110Y+005170
X+002795Y+004170
X+004635Y+004160
X+003800Y+006370
X+003300Y+006519
X+001300Y+000490
T03
X+001528Y-001050
X+001178Y-001050
X+000828Y-001050
X+000478Y-001050
X+002095Y-001050
X+002445Y-001050
X+002795Y-001050
X+003145Y-001050
X+003750Y-001050
X+004100Y-001050
X+006610Y-001050
X+006960Y-001050
X+006790Y+000800
X+006790Y+001150
X+006790Y+001500
X+006790Y+001850
X+006790Y+002750
X+006790Y+003100
X+006793Y+003665
X+006793Y+004015
X+005330Y+005950
X+004980Y+005950
X+002050Y+005950
X+001700Y+005950
X+001110Y+005950
X+000760Y+005950
X+000410Y+005950
X+000060Y+005950
X+001340Y+003260
X+001340Y+002910
X+001340Y+002560
X+001340Y+002210
T04
X+000000Y+004826
X+000000Y+000000
X+006604Y+000317
X+006604Y+004508
T00
M30
