G04 DipTrace 3.3.1.3*
G04 Hypermaq Powerboard 031.gto*
%MOMM*%
G04 #@! TF.FileFunction,Legend,Top*
G04 #@! TF.Part,Single*
%ADD10C,0.25*%
%ADD17C,0.381*%
%ADD22C,0.254*%
%ADD30C,0.1778*%
%ADD31C,0.03333*%
%ADD33C,0.2032*%
%ADD95C,0.19608*%
%ADD96C,0.23529*%
%FSLAX35Y35*%
G04*
G71*
G90*
G75*
G01*
G04 TopSilk*
%LPD*%
G36*
X501912Y400852D2*
X234567D1*
Y1251960D1*
X501912D1*
Y400852D1*
G37*
X249949Y400000D2*
D10*
X869988D1*
X249949Y1240033D2*
X869988D1*
X1069952Y589987D2*
Y1049960D1*
X1070497Y578486D2*
X877611Y402556D1*
X1068727Y1059076D2*
X867402Y1238414D1*
X1228535Y490137D2*
Y667430D1*
X1319057Y576952D2*
X1141825D1*
X135062Y587857D2*
X-42170D1*
X2793482Y6595297D2*
X2543845D1*
Y6448528D1*
X2793482D1*
Y6595297D1*
X2691006Y6447210D2*
D33*
X2690906Y6522512D1*
X2691430Y6586678D2*
X2690906Y6522512D1*
X2628147Y6469941D1*
X2689358Y6525044D2*
X2622805Y6576875D1*
X-179984Y-515000D2*
D10*
X109984D1*
Y-705000D1*
X-179984D1*
Y-515000D1*
G36*
X-169736Y-518971D2*
X-82418D1*
Y-597555D1*
X-169736D1*
Y-518971D1*
G37*
G36*
X-172592Y-621172D2*
X-85274D1*
Y-699756D1*
X-172592D1*
Y-621172D1*
G37*
X-90818Y-519807D2*
D10*
X-89768Y-690028D1*
X-343512Y-1543760D2*
X3298D1*
Y-815180D1*
X-343512D1*
Y-1543760D1*
X-25001Y-1362198D2*
X-23822Y-1268721D1*
Y-1264131D2*
X-310079Y-1097942D1*
X-310842Y-1098233D2*
Y-1003955D1*
X2853512Y6243760D2*
X2506702D1*
Y5515180D1*
X2853512D1*
Y6243760D1*
X2535001Y6062198D2*
X2533822Y5968721D1*
Y5964131D2*
X2820079Y5797942D1*
X2820842Y5798233D2*
Y5703955D1*
X1772500Y-2070000D2*
X232500D1*
Y-960037D1*
X1772500D1*
Y-2070000D1*
X-185000Y6970000D2*
X1355000D1*
Y5860037D1*
X-185000D1*
Y6970000D1*
X1455000D2*
X2295000D1*
Y5860037D1*
X1455000D1*
Y6970000D1*
X-686433Y-1520003D2*
X-950553D1*
Y-1255883D1*
X-686433D1*
Y-1520003D1*
X-456433Y-990003D2*
X-720553D1*
Y-725883D1*
X-456433D1*
Y-990003D1*
X-916433D2*
X-1180553D1*
Y-725883D1*
X-916433D1*
Y-990003D1*
X3390000Y-2070000D2*
X1850000D1*
Y-960037D1*
X3390000D1*
Y-2070000D1*
X6949997Y-243567D2*
X7214117D1*
Y20553D1*
X6949997D1*
Y-243567D1*
X4830073Y5382444D2*
X4691387D1*
Y5202152D1*
X4830073D1*
Y5382444D1*
X5432444Y3589927D2*
X5252152D1*
Y3728613D1*
X5432444D1*
Y3589927D1*
X5519927Y-512444D2*
X5658613D1*
Y-332152D1*
X5519927D1*
Y-512444D1*
X3242556Y5235073D2*
X3422848D1*
Y5096387D1*
X3242556D1*
Y5235073D1*
X3697556Y-309927D2*
X3877848D1*
Y-448613D1*
X3697556D1*
Y-309927D1*
X3277487Y5519974D2*
X3577513D1*
X3277487Y5740026D2*
X3577513D1*
Y5519974D2*
Y5740026D1*
X3277487Y5519974D2*
Y5589980D1*
Y5670020D2*
Y5740026D1*
Y5589980D2*
G03X3277487Y5670020I-26J40020D01*
G01*
X5490013Y-657474D2*
X5189987D1*
X5490013Y-877526D2*
X5189987D1*
Y-657474D2*
Y-877526D1*
X5490013Y-657474D2*
Y-727480D1*
Y-807520D2*
Y-877526D1*
Y-727480D2*
G03X5490013Y-807520I26J-40020D01*
G01*
X5582513Y2410026D2*
X5282487D1*
X5582513Y2189974D2*
X5282487D1*
Y2410026D2*
Y2189974D1*
X5582513Y2410026D2*
Y2340020D1*
Y2259980D2*
Y2189974D1*
Y2340020D2*
G03X5582513Y2259980I26J-40020D01*
G01*
X3132444Y6456610D2*
X2952152D1*
Y6595297D1*
X3132444D1*
Y6456610D1*
X5922444Y3999927D2*
X5742152D1*
Y4138613D1*
X5922444D1*
Y3999927D1*
X-658893Y866243D2*
X-1218933D1*
Y1468630D1*
X-658893D1*
Y866243D1*
X-751953Y986359D2*
Y1345442D1*
X-1120833Y984673D2*
Y1340081D1*
X-755313Y1167437D2*
X-828093D1*
X-1017573Y1172497D2*
X-1114053D1*
X-833133Y1170810D2*
X-995613Y1060814D1*
X-635620Y392920D2*
X-1238007D1*
Y-167120D1*
X-635620D1*
Y392920D1*
X-755736Y299860D2*
X-1114819D1*
X-754049Y-69020D2*
X-1109457D1*
X-936813Y296500D2*
Y223720D1*
X-941873Y34240D2*
Y-62240D1*
X-940187Y218680D2*
X-830191Y56200D1*
X4126518Y6447210D2*
X4376155D1*
Y6593979D1*
X4126518D1*
Y6447210D1*
X4228994Y6595297D2*
D33*
X4229094Y6519995D1*
X4228570Y6455829D2*
X4229094Y6519995D1*
X4291853Y6572565D1*
X4230642Y6517462D2*
X4297195Y6465632D1*
X4353512Y6243760D2*
D10*
X4006702D1*
Y5515180D1*
X4353512D1*
Y6243760D1*
X4035001Y6062198D2*
X4033822Y5968721D1*
Y5964131D2*
X4320079Y5797942D1*
X4320842Y5798233D2*
Y5703955D1*
X4735000Y6970000D2*
X5575000D1*
Y5860037D1*
X4735000D1*
Y6970000D1*
X3787556Y6595297D2*
X3967848D1*
Y6456610D1*
X3787556D1*
Y6595297D1*
X6122790Y-1673482D2*
X5976021D1*
Y-1423845D1*
X6122790D1*
Y-1673482D1*
X5974703Y-1571006D2*
D33*
X6050005Y-1570906D1*
X6114171Y-1571430D2*
X6050005Y-1570906D1*
X5997435Y-1508147D1*
X6052538Y-1569358D2*
X6104368Y-1502805D1*
X6173512Y-501240D2*
D10*
X5826702D1*
Y-1229820D1*
X6173512D1*
Y-501240D1*
X5855001Y-682802D2*
X5853822Y-776279D1*
Y-780869D2*
X6140079Y-947058D1*
X6140842Y-946767D2*
Y-1041045D1*
X7205000Y-2070000D2*
X6365000D1*
Y-960037D1*
X7205000D1*
Y-2070000D1*
X5870073Y-1467556D2*
X5731387D1*
Y-1647848D1*
X5870073D1*
Y-1467556D1*
X4662790Y-1703482D2*
X4516021D1*
Y-1453845D1*
X4662790D1*
Y-1703482D1*
X4514703Y-1601006D2*
D33*
X4590005Y-1600906D1*
X4654171Y-1601430D2*
X4590005Y-1600906D1*
X4537435Y-1538147D1*
X4592538Y-1599358D2*
X4644368Y-1532805D1*
X4903512Y-501240D2*
D10*
X4556702D1*
Y-1229820D1*
X4903512D1*
Y-501240D1*
X4585001Y-682802D2*
X4583822Y-776279D1*
Y-780869D2*
X4870079Y-947058D1*
X4870842Y-946767D2*
Y-1041045D1*
X4345000Y-2070000D2*
X3505000D1*
Y-960037D1*
X4345000D1*
Y-2070000D1*
X5000073Y-1477556D2*
X4861387D1*
Y-1657848D1*
X5000073D1*
Y-1477556D1*
X7810000Y2095000D2*
X6700037D1*
Y555000D1*
X7810000D1*
Y2095000D1*
X6993482Y2422790D2*
X6743845D1*
Y2276021D1*
X6993482D1*
Y2422790D1*
X6891006Y2274703D2*
D33*
X6890906Y2350005D1*
X6891430Y2414171D2*
X6890906Y2350005D1*
X6828147Y2297435D1*
X6889358Y2352538D2*
X6822805Y2404368D1*
X5781488Y2036240D2*
D10*
X6128298D1*
Y2764820D1*
X5781488D1*
Y2036240D1*
X6099999Y2217802D2*
X6101178Y2311279D1*
Y2315869D2*
X5814921Y2482058D1*
X5814158Y2481767D2*
Y2576045D1*
X7810000Y3345000D2*
X6700037D1*
Y2505000D1*
X7810000D1*
Y3345000D1*
X7332444Y2279927D2*
X7152152D1*
Y2418613D1*
X7332444D1*
Y2279927D1*
X7203482Y4552790D2*
X6953845D1*
Y4406021D1*
X7203482D1*
Y4552790D1*
X7101006Y4404703D2*
D33*
X7100906Y4480005D1*
X7101430Y4544171D2*
X7100906Y4480005D1*
X7038147Y4427435D1*
X7099358Y4482538D2*
X7032805Y4534368D1*
X5781488Y3056240D2*
D10*
X6128298D1*
Y3784820D1*
X5781488D1*
Y3056240D1*
X6099999Y3237802D2*
X6101178Y3331279D1*
Y3335869D2*
X5814921Y3502058D1*
X5814158Y3501767D2*
Y3596045D1*
X7812500Y4260000D2*
X6702537D1*
Y3420000D1*
X7812500D1*
Y4260000D1*
X6982556Y4865073D2*
X7162848D1*
Y4726387D1*
X6982556D1*
Y4865073D1*
X6989997Y5506433D2*
X7254117D1*
Y5770553D1*
X6989997D1*
Y5506433D1*
X320000Y1965000D2*
X1429963D1*
Y3505000D1*
X320000D1*
Y1965000D1*
X3962952Y472760D2*
D33*
X3877068D1*
Y757240D2*
X3962952D1*
X4001030Y641826D2*
Y588174D1*
X4692058Y752250D2*
X4777942D1*
Y467770D2*
X4692058D1*
X4653980Y583184D2*
Y636836D1*
X987750Y-643250D2*
D22*
Y-960750D1*
X2613000Y-649000D2*
X2615750Y-970750D1*
X3190000Y4110000D2*
D17*
X3970000D1*
Y1000000D1*
X3190000D1*
Y4110000D1*
X233000Y-334000D2*
D30*
X1773000D1*
Y-969000D1*
X233000D1*
Y-334000D1*
X243000Y-639000D2*
X1773000D1*
X2607750Y-643250D2*
D22*
Y-960750D1*
X1853000Y-334000D2*
D30*
X3393000D1*
Y-969000D1*
X1853000D1*
Y-334000D1*
X1863000Y-639000D2*
X3393000D1*
X3503000Y-1149000D2*
D31*
Y-1159000D1*
Y-1149000D1*
Y-1139000D2*
Y-1159000D1*
Y-1139000D1*
X3510000Y-560000D2*
D30*
X4343000D1*
Y-1159000D1*
X3510000D1*
Y-560000D1*
X3948537Y4113687D2*
D17*
X4623243D1*
Y997193D1*
X3948537D1*
Y4113687D1*
X6370000Y-550000D2*
D30*
X7203000D1*
Y-1149000D1*
X6370000D1*
Y-550000D1*
X1460000Y6080000D2*
X2293000D1*
Y5481000D1*
X1460000D1*
Y6080000D1*
X4740000Y6110000D2*
X5573000D1*
Y5511000D1*
X4740000D1*
Y6110000D1*
X6297000Y3337000D2*
X6896000D1*
Y2504000D1*
X6297000D1*
Y3337000D1*
X6287000Y4257000D2*
X6886000D1*
Y3424000D1*
X6287000D1*
Y4257000D1*
X6364750Y1313250D2*
D22*
X6682250D1*
X6055500Y2098500D2*
D30*
X6690500D1*
Y558500D1*
X6055500D1*
Y2098500D1*
X6360500Y568500D2*
Y2098500D1*
X598250Y5530250D2*
D22*
Y5847750D1*
X-187000Y5856000D2*
D30*
X1353000D1*
Y5221000D1*
X-187000D1*
Y5856000D1*
X1343000Y5526000D2*
X-187000D1*
X1167167Y1121695D2*
D95*
X1155094Y1115659D1*
X1142880Y1103446D1*
X1136843Y1091372D1*
Y1067086D1*
X1142880Y1054872D1*
X1155093Y1042799D1*
X1167166Y1036622D1*
X1185416Y1030586D1*
X1215880D1*
X1233990Y1036622D1*
X1246203Y1042799D1*
X1258276Y1054872D1*
X1264453Y1067086D1*
Y1091372D1*
X1258276Y1103445D1*
X1246203Y1115659D1*
X1233990Y1121695D1*
X1161270Y1160911D2*
X1155094Y1173125D1*
X1136984Y1191375D1*
X1264453Y1191374D1*
X2347858Y6417573D2*
X2475468D1*
Y6460109D1*
X2469291Y6478359D1*
X2457218Y6490573D1*
X2445005Y6496609D1*
X2426895Y6502646D1*
X2396432D1*
X2378182Y6496609D1*
X2366109Y6490573D1*
X2353895Y6478359D1*
X2347858Y6460109D1*
Y6417573D1*
X2378322Y6548038D2*
X2372285D1*
X2360072Y6554075D1*
X2354035Y6560111D1*
X2347999Y6572325D1*
Y6596611D1*
X2354035Y6608684D1*
X2360072Y6614721D1*
X2372285Y6620898D1*
X2384359D1*
X2396572Y6614721D1*
X2414682Y6602648D1*
X2475468Y6541861D1*
Y6626934D1*
X-96126Y-339013D2*
Y-466623D1*
X-53590D1*
X-35340Y-460446D1*
X-23126Y-448373D1*
X-17090Y-436160D1*
X-11053Y-418050D1*
Y-387586D1*
X-17090Y-369336D1*
X-23126Y-357263D1*
X-35340Y-345050D1*
X-53590Y-339013D1*
X-96126D1*
X28163Y-363440D2*
X40376Y-357263D1*
X58626Y-339154D1*
Y-466623D1*
X215502Y-1014791D2*
Y-1093828D1*
X343111D1*
X276288D2*
Y-1045254D1*
X239929Y-975575D2*
X233752Y-963362D1*
X215642Y-945112D1*
X343111D1*
X2717715Y5264094D2*
Y5185058D1*
X2845325D1*
X2778502D2*
Y5233631D1*
X2748179Y5309487D2*
X2742142D1*
X2729929Y5315523D1*
X2723892Y5321560D1*
X2717856Y5333773D1*
Y5358060D1*
X2723892Y5370133D1*
X2729929Y5376169D1*
X2742142Y5382346D1*
X2754215D1*
X2766429Y5376169D1*
X2784538Y5364096D1*
X2845325Y5303310D1*
Y5388383D1*
X80767Y-1730763D2*
Y-1827910D1*
X74731Y-1846160D1*
X68554Y-1852196D1*
X56481Y-1858373D1*
X44267D1*
X32194Y-1852196D1*
X26158Y-1846160D1*
X19981Y-1827910D1*
Y-1815836D1*
X199019Y-1773300D2*
X192842Y-1791550D1*
X180769Y-1803763D1*
X162519Y-1809800D1*
X156483D1*
X138233Y-1803763D1*
X126160Y-1791550D1*
X119983Y-1773300D1*
Y-1767263D1*
X126160Y-1749013D1*
X138233Y-1736940D1*
X156483Y-1730904D1*
X162519D1*
X180769Y-1736940D1*
X192842Y-1749013D1*
X199019Y-1773300D1*
Y-1803763D1*
X192842Y-1834086D1*
X180769Y-1852336D1*
X162519Y-1858373D1*
X150446D1*
X132196Y-1852336D1*
X126160Y-1840123D1*
X-400987Y6355554D2*
X-303840D1*
X-285590Y6349517D1*
X-279554Y6343340D1*
X-273377Y6331267D1*
Y6319054D1*
X-279554Y6306981D1*
X-285590Y6300944D1*
X-303840Y6294767D1*
X-315914D1*
X-376560Y6394770D2*
X-382736Y6406983D1*
X-400846Y6425233D1*
X-273377D1*
X1752263Y5217410D2*
X1849410D1*
X1867660Y5211373D1*
X1873696Y5205196D1*
X1879873Y5193123D1*
Y5180910D1*
X1873696Y5168837D1*
X1867660Y5162800D1*
X1849410Y5156623D1*
X1837336D1*
X1776690Y5256625D2*
X1770514Y5268839D1*
X1752404Y5287089D1*
X1879873D1*
X1752404Y5338518D2*
Y5405200D1*
X1800977Y5368841D1*
Y5387091D1*
X1807014Y5399164D1*
X1813050Y5405200D1*
X1831300Y5411377D1*
X1843373D1*
X1861623Y5405200D1*
X1873837Y5393127D1*
X1879873Y5374877D1*
Y5356627D1*
X1873837Y5338518D1*
X1867660Y5332481D1*
X1855587Y5326304D1*
X6220763Y4757410D2*
X6317910D1*
X6336160Y4751373D1*
X6342196Y4745196D1*
X6348373Y4733123D1*
Y4720910D1*
X6342196Y4708837D1*
X6336160Y4702800D1*
X6317910Y4696623D1*
X6305836D1*
X6245190Y4796625D2*
X6239014Y4808839D1*
X6220904Y4827089D1*
X6348373D1*
X6251227Y4872481D2*
X6245190D1*
X6232977Y4878518D1*
X6226940Y4884554D1*
X6220904Y4896768D1*
Y4921054D1*
X6226940Y4933127D1*
X6232977Y4939164D1*
X6245190Y4945341D1*
X6257264D1*
X6269477Y4939164D1*
X6287587Y4927091D1*
X6348373Y4866304D1*
Y4951377D1*
X6264013Y-42501D2*
X6361160D1*
X6379410Y-48537D1*
X6385446Y-54714D1*
X6391623Y-66787D1*
Y-79001D1*
X6385446Y-91074D1*
X6379410Y-97110D1*
X6361160Y-103287D1*
X6349086D1*
X6294477Y2892D2*
X6288440D1*
X6276227Y8928D1*
X6270190Y14965D1*
X6264154Y27178D1*
Y51465D1*
X6270190Y63538D1*
X6276227Y69574D1*
X6288440Y75751D1*
X6300514D1*
X6312727Y69574D1*
X6330837Y57501D1*
X6391623Y-3285D1*
Y81788D1*
X-907227Y-1123401D2*
X-913264Y-1111328D1*
X-925477Y-1099115D1*
X-937550Y-1093078D1*
X-961837D1*
X-974050Y-1099115D1*
X-986123Y-1111328D1*
X-992300Y-1123401D1*
X-998337Y-1141651D1*
Y-1172115D1*
X-992300Y-1190225D1*
X-986123Y-1202438D1*
X-974050Y-1214511D1*
X-961837Y-1220688D1*
X-937550D1*
X-925477Y-1214511D1*
X-913264Y-1202438D1*
X-907227Y-1190225D1*
Y-1172115D1*
X-937550D1*
X-782939Y-1093078D2*
Y-1220688D1*
X-868012Y-1093078D1*
Y-1220688D1*
X-743723Y-1093078D2*
Y-1220688D1*
X-701186D1*
X-682936Y-1214511D1*
X-670723Y-1202438D1*
X-664686Y-1190225D1*
X-658650Y-1172115D1*
Y-1141651D1*
X-664686Y-1123401D1*
X-670723Y-1111328D1*
X-682936Y-1099115D1*
X-701186Y-1093078D1*
X-743723D1*
X-774856Y-543219D2*
X-708174D1*
X-744533Y-591792D1*
X-726283D1*
X-714210Y-597828D1*
X-708174Y-603865D1*
X-701997Y-622115D1*
Y-634188D1*
X-708174Y-652438D1*
X-720247Y-664651D1*
X-738497Y-670688D1*
X-756747D1*
X-774856Y-664651D1*
X-780893Y-658475D1*
X-787070Y-646401D1*
X-656744Y-658475D2*
X-662781Y-664651D1*
X-656744Y-670688D1*
X-650568Y-664651D1*
X-656744Y-658475D1*
X-599138Y-543219D2*
X-532456D1*
X-568815Y-591792D1*
X-550565D1*
X-538492Y-597828D1*
X-532456Y-603865D1*
X-526279Y-622115D1*
Y-634188D1*
X-532456Y-652438D1*
X-544529Y-664651D1*
X-562779Y-670688D1*
X-581029D1*
X-599138Y-664651D1*
X-605175Y-658475D1*
X-611352Y-646401D1*
X-487063Y-543078D2*
X-438490Y-670688D1*
X-389917Y-543078D1*
X-1086351Y-553219D2*
X-1146997D1*
X-1153034Y-607828D1*
X-1146997Y-601792D1*
X-1128747Y-595615D1*
X-1110638D1*
X-1092388Y-601792D1*
X-1080174Y-613865D1*
X-1074138Y-632115D1*
Y-644188D1*
X-1080174Y-662438D1*
X-1092388Y-674651D1*
X-1110638Y-680688D1*
X-1128747D1*
X-1146997Y-674651D1*
X-1153034Y-668475D1*
X-1159211Y-656401D1*
X-1034922Y-553078D2*
X-986349Y-680688D1*
X-937776Y-553078D1*
X3473409Y-389013D2*
Y-486160D1*
X3467373Y-504410D1*
X3461196Y-510446D1*
X3449123Y-516623D1*
X3436909D1*
X3424836Y-510446D1*
X3418800Y-504410D1*
X3412623Y-486160D1*
Y-474086D1*
X3512625Y-413440D2*
X3524838Y-407263D1*
X3543088Y-389154D1*
Y-516623D1*
X3618804Y-389154D2*
X3600554Y-395190D1*
X3588341Y-413440D1*
X3582304Y-443763D1*
Y-462013D1*
X3588341Y-492336D1*
X3600554Y-510586D1*
X3618804Y-516623D1*
X3630877D1*
X3649127Y-510586D1*
X3661200Y-492336D1*
X3667377Y-462013D1*
Y-443763D1*
X3661200Y-413440D1*
X3649127Y-395190D1*
X3630877Y-389154D1*
X3618804D1*
X3661200Y-413440D2*
X3588341Y-492336D1*
X7306393Y-202300D2*
X7294320Y-208337D1*
X7282107Y-220550D1*
X7276070Y-232623D1*
Y-256910D1*
X7282107Y-269123D1*
X7294320Y-281196D1*
X7306393Y-287373D1*
X7324643Y-293410D1*
X7355107D1*
X7373216Y-287373D1*
X7385430Y-281196D1*
X7397503Y-269123D1*
X7403680Y-256910D1*
Y-232624D1*
X7397503Y-220551D1*
X7385430Y-208337D1*
X7373216Y-202300D1*
X7355107D1*
Y-232623D1*
X7276070Y-78012D2*
X7403680D1*
X7276070Y-163085D1*
X7403680D1*
X7276070Y-38796D2*
X7403680D1*
Y3740D1*
X7397503Y21990D1*
X7385430Y34204D1*
X7373216Y40240D1*
X7355107Y46277D1*
X7324643D1*
X7306393Y40240D1*
X7294320Y34204D1*
X7282107Y21990D1*
X7276070Y3740D1*
Y-38796D1*
X4566187Y5193408D2*
Y5248017D1*
X4560010Y5266267D1*
X4553973Y5272444D1*
X4541900Y5278481D1*
X4529687D1*
X4517614Y5272444D1*
X4511437Y5266267D1*
X4505400Y5248017D1*
Y5193408D1*
X4633010D1*
X4566187Y5235944D2*
X4633010Y5278481D1*
X4523650Y5390556D2*
X4511577Y5384520D1*
X4505541Y5366270D1*
Y5354196D1*
X4511577Y5335947D1*
X4529827Y5323733D1*
X4560150Y5317696D1*
X4590473D1*
X4614760Y5323733D1*
X4626973Y5335946D1*
X4633010Y5354196D1*
Y5360233D1*
X4626973Y5378342D1*
X4614760Y5390556D1*
X4596510Y5396593D1*
X4590473D1*
X4572223Y5390556D1*
X4560150Y5378343D1*
X4554114Y5360233D1*
Y5354196D1*
X4560150Y5335946D1*
X4572223Y5323733D1*
X4590473Y5317696D1*
X5240319Y3853813D2*
X5294929D1*
X5313179Y3859990D1*
X5319356Y3866027D1*
X5325392Y3878100D1*
Y3890313D1*
X5319356Y3902386D1*
X5313179Y3908563D1*
X5294929Y3914600D1*
X5240319D1*
Y3786990D1*
X5282856Y3853813D2*
X5325392Y3786990D1*
X5388894D2*
X5449681Y3914460D1*
X5364608D1*
X5715316Y-309800D2*
X5769926D1*
X5788176Y-303623D1*
X5794352Y-297586D1*
X5800389Y-285513D1*
Y-273300D1*
X5794352Y-261227D1*
X5788176Y-255050D1*
X5769926Y-249013D1*
X5715316D1*
Y-376623D1*
X5757852Y-309800D2*
X5800389Y-376623D1*
X5869928Y-249154D2*
X5851818Y-255190D1*
X5845641Y-267263D1*
Y-279477D1*
X5851818Y-291550D1*
X5863891Y-297727D1*
X5888178Y-303763D1*
X5906428Y-309800D1*
X5918501Y-322013D1*
X5924537Y-334086D1*
Y-352336D1*
X5918501Y-364410D1*
X5912464Y-370586D1*
X5894214Y-376623D1*
X5869928D1*
X5851818Y-370586D1*
X5845641Y-364410D1*
X5839605Y-352336D1*
Y-334086D1*
X5845641Y-322013D1*
X5857855Y-309800D1*
X5875964Y-303763D1*
X5900251Y-297727D1*
X5912464Y-291550D1*
X5918501Y-279477D1*
Y-267263D1*
X5912464Y-255190D1*
X5894214Y-249154D1*
X5869928D1*
X3144800Y5273411D2*
Y5328021D1*
X3138623Y5346271D1*
X3132587Y5352447D1*
X3120514Y5358484D1*
X3108300D1*
X3096227Y5352447D1*
X3090050Y5346271D1*
X3084013Y5328021D1*
Y5273411D1*
X3211623D1*
X3144800Y5315948D2*
X3211623Y5358484D1*
X3126550Y5476736D2*
X3144800Y5470559D1*
X3157014Y5458486D1*
X3163050Y5440236D1*
Y5434200D1*
X3157014Y5415950D1*
X3144800Y5403877D1*
X3126550Y5397700D1*
X3120514D1*
X3102264Y5403877D1*
X3090190Y5415950D1*
X3084154Y5434200D1*
Y5440236D1*
X3090190Y5458486D1*
X3102264Y5470559D1*
X3126550Y5476736D1*
X3157014D1*
X3187337Y5470559D1*
X3205587Y5458486D1*
X3211623Y5440236D1*
Y5428163D1*
X3205587Y5409913D1*
X3193373Y5403876D1*
X4015480Y-394727D2*
X4070089D1*
X4088339Y-388550D1*
X4094516Y-382513D1*
X4100553Y-370440D1*
Y-358227D1*
X4094516Y-346154D1*
X4088339Y-339977D1*
X4070089Y-333940D1*
X4015480D1*
Y-461550D1*
X4058016Y-394727D2*
X4100553Y-461550D1*
X4139768Y-358367D2*
X4151982Y-352190D1*
X4170232Y-334080D1*
Y-461550D1*
X4245947Y-334080D2*
X4227697Y-340117D1*
X4215484Y-358367D1*
X4209447Y-388690D1*
Y-406940D1*
X4215484Y-437263D1*
X4227697Y-455513D1*
X4245947Y-461550D1*
X4258020D1*
X4276270Y-455513D1*
X4288344Y-437263D1*
X4294520Y-406940D1*
Y-388690D1*
X4288344Y-358367D1*
X4276270Y-340117D1*
X4258020Y-334080D1*
X4245947D1*
X4288344Y-358367D2*
X4215484Y-437263D1*
X3081513Y5592624D2*
X3172623D1*
X3190873Y5598661D1*
X3202946Y5610874D1*
X3209123Y5629124D1*
Y5641197D1*
X3202946Y5659447D1*
X3190873Y5671661D1*
X3172623Y5677697D1*
X3081514D1*
X3105940Y5716913D2*
X3099764Y5729126D1*
X3081654Y5747376D1*
X3209123D1*
X5524013Y-982181D2*
X5615123D1*
X5633373Y-976144D1*
X5645446Y-963931D1*
X5651623Y-945681D1*
Y-933608D1*
X5645446Y-915358D1*
X5633373Y-903144D1*
X5615123Y-897108D1*
X5524014D1*
X5554477Y-851715D2*
X5548440D1*
X5536227Y-845678D1*
X5530190Y-839642D1*
X5524154Y-827429D1*
Y-803142D1*
X5530190Y-791069D1*
X5536227Y-785032D1*
X5548440Y-778855D1*
X5560514Y-778856D1*
X5572727Y-785032D1*
X5590837Y-797106D1*
X5651623Y-857892D1*
Y-772819D1*
X5007819Y2355987D2*
Y2264877D1*
X5013856Y2246627D1*
X5026069Y2234554D1*
X5044319Y2228377D1*
X5056392D1*
X5074642Y2234554D1*
X5086856Y2246627D1*
X5092892Y2264877D1*
Y2355987D1*
X5144321Y2355846D2*
X5211004D1*
X5174644Y2307273D1*
X5192894D1*
X5204967Y2301237D1*
X5211004Y2295200D1*
X5217181Y2276950D1*
Y2264877D1*
X5211004Y2246627D1*
X5198931Y2234414D1*
X5180681Y2228377D1*
X5162431D1*
X5144321Y2234414D1*
X5138285Y2240590D1*
X5132108Y2252664D1*
X3164800Y6200616D2*
Y6255226D1*
X3158623Y6273476D1*
X3152587Y6279653D1*
X3140514Y6285689D1*
X3128300D1*
X3116227Y6279653D1*
X3110050Y6273476D1*
X3104013Y6255226D1*
Y6200616D1*
X3231623D1*
X3164800Y6243153D2*
X3231623Y6285689D1*
X3134477Y6331082D2*
X3128440D1*
X3116227Y6337118D1*
X3110190Y6343155D1*
X3104154Y6355368D1*
Y6379655D1*
X3110190Y6391728D1*
X3116227Y6397764D1*
X3128440Y6403941D1*
X3140514D1*
X3152727Y6397764D1*
X3170837Y6385691D1*
X3231623Y6324905D1*
Y6409978D1*
X5722784Y4263813D2*
X5777394D1*
X5795644Y4269990D1*
X5801821Y4276027D1*
X5807857Y4288100D1*
Y4300313D1*
X5801821Y4312386D1*
X5795644Y4318563D1*
X5777394Y4324600D1*
X5722784D1*
Y4196990D1*
X5765321Y4263813D2*
X5807857Y4196990D1*
X5847073Y4300173D2*
X5859287Y4306350D1*
X5877537Y4324460D1*
Y4196990D1*
X5916752Y4300173D2*
X5928966Y4306350D1*
X5947216Y4324460D1*
Y4196990D1*
X4445352Y6400616D2*
X4572961D1*
X4572962Y6443152D1*
X4566785Y6461402D1*
X4554712Y6473616D1*
X4542498Y6479652D1*
X4524388Y6485689D1*
X4493925D1*
X4475675Y6479653D1*
X4463602Y6473616D1*
X4451388Y6461403D1*
X4445352Y6443153D1*
Y6400616D1*
X4445492Y6537118D2*
Y6603801D1*
X4494065Y6567441D1*
Y6585691D1*
X4500102Y6597764D1*
X4506138Y6603801D1*
X4524388Y6609978D1*
X4536461D1*
X4554711Y6603801D1*
X4566925Y6591728D1*
X4572961Y6573478D1*
Y6555228D1*
X4566925Y6537118D1*
X4560748Y6531081D1*
X4548675Y6524905D1*
X3820715Y6066844D2*
Y5987808D1*
X3948325D1*
X3881502D2*
Y6036381D1*
X3820856Y6118273D2*
Y6184956D1*
X3869429Y6148596D1*
Y6166846D1*
X3875465Y6178919D1*
X3881502Y6184956D1*
X3899752Y6191133D1*
X3911825D1*
X3930075Y6184956D1*
X3942288Y6172883D1*
X3948325Y6154633D1*
Y6136383D1*
X3942288Y6118273D1*
X3936111Y6112237D1*
X3924038Y6106060D1*
X5609013Y6260391D2*
X5706160D1*
X5724410Y6254355D1*
X5730446Y6248178D1*
X5736623Y6236105D1*
Y6223891D1*
X5730446Y6211818D1*
X5724410Y6205782D1*
X5706160Y6199605D1*
X5694086D1*
X5633440Y6299607D2*
X5627264Y6311820D1*
X5609154Y6330070D1*
X5736623D1*
Y6430072D2*
X5609154Y6430073D1*
X5694087Y6369286D1*
Y6460396D1*
X3609800Y6437921D2*
Y6492530D1*
X3603623Y6510780D1*
X3597587Y6516957D1*
X3585514Y6522994D1*
X3573300D1*
X3561227Y6516957D1*
X3555050Y6510780D1*
X3549013Y6492530D1*
Y6437921D1*
X3676623D1*
X3609800Y6480457D2*
X3676623Y6522994D1*
X3573440Y6562210D2*
X3567264Y6574423D1*
X3549154Y6592673D1*
X3676623D1*
X6168717Y-1646362D2*
X6296326D1*
X6296327Y-1603826D1*
X6290150Y-1585576D1*
X6278077Y-1573362D1*
X6265863Y-1567326D1*
X6247753Y-1561289D1*
X6217290D1*
X6199040Y-1567326D1*
X6186967Y-1573362D1*
X6174753Y-1585576D1*
X6168717Y-1603826D1*
Y-1646362D1*
X6296326Y-1461287D2*
X6168857D1*
X6253790Y-1522074D1*
Y-1430964D1*
X6154462Y-365253D2*
X6075426D1*
Y-492863D1*
Y-426040D2*
X6123999D1*
X6254465Y-492863D2*
Y-365394D1*
X6193678Y-450326D1*
X6284788D1*
X7290231Y-1229013D2*
Y-1326160D1*
X7284194Y-1344410D1*
X7278017Y-1350446D1*
X7265944Y-1356623D1*
X7253731D1*
X7241658Y-1350446D1*
X7235621Y-1344410D1*
X7229444Y-1326160D1*
Y-1314086D1*
X7390233Y-1356623D2*
Y-1229154D1*
X7329446Y-1314086D1*
X7420556D1*
X5616187Y-1819681D2*
Y-1765071D1*
X5610010Y-1746821D1*
X5603973Y-1740644D1*
X5591900Y-1734608D1*
X5579687D1*
X5567614Y-1740644D1*
X5561437Y-1746821D1*
X5555400Y-1765071D1*
Y-1819681D1*
X5683010D1*
X5616187Y-1777144D2*
X5683010Y-1734608D1*
X5555541Y-1683178D2*
Y-1616496D1*
X5604114Y-1652855D1*
Y-1634606D1*
X5610150Y-1622532D1*
X5616187Y-1616496D1*
X5634437Y-1610319D1*
X5646510D1*
X5664760Y-1616496D1*
X5676973Y-1628569D1*
X5683010Y-1646819D1*
Y-1665069D1*
X5676973Y-1683179D1*
X5670796Y-1689215D1*
X5658723Y-1695392D1*
X4698717Y-1793344D2*
X4826326D1*
X4826327Y-1750808D1*
X4820150Y-1732558D1*
X4808077Y-1720344D1*
X4795863Y-1714308D1*
X4777753Y-1708271D1*
X4747290D1*
X4729040Y-1714307D1*
X4716967Y-1720344D1*
X4704753Y-1732557D1*
X4698717Y-1750807D1*
Y-1793344D1*
X4698857Y-1596196D2*
Y-1656842D1*
X4753467Y-1662878D1*
X4747430Y-1656842D1*
X4741253Y-1638592D1*
Y-1620482D1*
X4747430Y-1602232D1*
X4759503Y-1590019D1*
X4777753Y-1583982D1*
X4789826D1*
X4808076Y-1590019D1*
X4820290Y-1602232D1*
X4826326Y-1620482D1*
Y-1638592D1*
X4820290Y-1656842D1*
X4814113Y-1662879D1*
X4802040Y-1669055D1*
X4727481Y-335253D2*
X4648444D1*
Y-462863D1*
Y-396040D2*
X4697017D1*
X4839556Y-335394D2*
X4778910D1*
X4772873Y-390003D1*
X4778910Y-383967D1*
X4797160Y-377790D1*
X4815269D1*
X4833519Y-383967D1*
X4845733Y-396040D1*
X4851769Y-414290D1*
Y-426363D1*
X4845733Y-444613D1*
X4833519Y-456826D1*
X4815269Y-462863D1*
X4797160D1*
X4778910Y-456826D1*
X4772873Y-450650D1*
X4766696Y-438576D1*
X4443319Y-1769013D2*
Y-1866160D1*
X4437283Y-1884410D1*
X4431106Y-1890446D1*
X4419033Y-1896623D1*
X4406819D1*
X4394746Y-1890446D1*
X4388709Y-1884410D1*
X4382533Y-1866160D1*
Y-1854086D1*
X4512858Y-1769154D2*
X4494748Y-1775190D1*
X4488571Y-1787263D1*
Y-1799477D1*
X4494748Y-1811550D1*
X4506821Y-1817727D1*
X4531108Y-1823763D1*
X4549358Y-1829800D1*
X4561431Y-1842013D1*
X4567467Y-1854086D1*
Y-1872336D1*
X4561431Y-1884410D1*
X4555394Y-1890586D1*
X4537144Y-1896623D1*
X4512858D1*
X4494748Y-1890586D1*
X4488571Y-1884410D1*
X4482535Y-1872336D1*
Y-1854086D1*
X4488571Y-1842013D1*
X4500785Y-1829800D1*
X4518894Y-1823763D1*
X4543181Y-1817727D1*
X4555394Y-1811550D1*
X4561431Y-1799477D1*
Y-1787263D1*
X4555394Y-1775190D1*
X4537144Y-1769154D1*
X4512858D1*
X5106187Y-1792699D2*
Y-1738089D1*
X5100010Y-1719839D1*
X5093973Y-1713662D1*
X5081900Y-1707626D1*
X5069687D1*
X5057614Y-1713662D1*
X5051437Y-1719839D1*
X5045400Y-1738089D1*
Y-1792699D1*
X5173010D1*
X5106187Y-1750162D2*
X5173010Y-1707626D1*
Y-1607624D2*
X5045541D1*
X5130473Y-1668410D1*
Y-1577301D1*
X7331513Y345714D2*
X7428660D1*
X7446910Y339678D1*
X7452946Y333501D1*
X7459123Y321428D1*
Y309214D1*
X7452946Y297141D1*
X7446910Y291105D1*
X7428660Y284928D1*
X7416586D1*
X7355940Y384930D2*
X7349764Y397143D1*
X7331654Y415393D1*
X7459123D1*
X7355940Y454609D2*
X7349764Y466823D1*
X7331654Y485073D1*
X7459123Y485072D1*
X6777071Y2218777D2*
Y2091167D1*
X6819607D1*
X6837857Y2097344D1*
X6850071Y2109417D1*
X6856107Y2121630D1*
X6862144Y2139740D1*
Y2170204D1*
X6856107Y2188454D1*
X6850071Y2200527D1*
X6837857Y2212740D1*
X6819607Y2218777D1*
X6777071D1*
X6974219Y2200527D2*
X6968183Y2212600D1*
X6949933Y2218636D1*
X6937860D1*
X6919610Y2212600D1*
X6907396Y2194350D1*
X6901360Y2164027D1*
Y2133704D1*
X6907396Y2109417D1*
X6919610Y2097204D1*
X6937860Y2091167D1*
X6943896D1*
X6962006Y2097204D1*
X6974219Y2109417D1*
X6980256Y2127667D1*
Y2133704D1*
X6974219Y2151954D1*
X6962006Y2164027D1*
X6943896Y2170063D1*
X6937860D1*
X6919610Y2164027D1*
X6907396Y2151954D1*
X6901360Y2133704D1*
X5815356Y1870807D2*
X5736319D1*
Y1743197D1*
Y1810020D2*
X5784892D1*
X5927431Y1852557D2*
X5921394Y1864630D1*
X5903144Y1870666D1*
X5891071D1*
X5872821Y1864630D1*
X5860608Y1846380D1*
X5854571Y1816057D1*
Y1785734D1*
X5860608Y1761447D1*
X5872821Y1749234D1*
X5891071Y1743197D1*
X5897108D1*
X5915218Y1749234D1*
X5927431Y1761447D1*
X5933468Y1779697D1*
Y1785734D1*
X5927431Y1803984D1*
X5915218Y1816057D1*
X5897108Y1822093D1*
X5891071D1*
X5872821Y1816057D1*
X5860608Y1803984D1*
X5854571Y1785734D1*
X6491513Y2231498D2*
X6588660D1*
X6606910Y2225461D1*
X6612946Y2219285D1*
X6619123Y2207211D1*
Y2194998D1*
X6612946Y2182925D1*
X6606910Y2176888D1*
X6588660Y2170712D1*
X6576586D1*
X6515940Y2270714D2*
X6509764Y2282927D1*
X6491654Y2301177D1*
X6619123D1*
X6509764Y2413252D2*
X6497690Y2407216D1*
X6491654Y2388966D1*
Y2376893D1*
X6497690Y2358643D1*
X6515940Y2346429D1*
X6546264Y2340393D1*
X6576587D1*
X6600873Y2346429D1*
X6613087Y2358643D1*
X6619123Y2376893D1*
Y2382929D1*
X6613087Y2401039D1*
X6600873Y2413252D1*
X6582623Y2419289D1*
X6576587D1*
X6558337Y2413252D1*
X6546264Y2401039D1*
X6540227Y2382929D1*
Y2376893D1*
X6546264Y2358643D1*
X6558337Y2346429D1*
X6576587Y2340393D1*
X7150319Y2153813D2*
X7204929D1*
X7223179Y2159990D1*
X7229356Y2166027D1*
X7235392Y2178100D1*
Y2190313D1*
X7229356Y2202386D1*
X7223179Y2208563D1*
X7204929Y2214600D1*
X7150319D1*
Y2086990D1*
X7192856Y2153813D2*
X7235392Y2086990D1*
X7347467Y2214460D2*
X7286821D1*
X7280785Y2159850D1*
X7286821Y2165886D1*
X7305071Y2172063D1*
X7323181D1*
X7341431Y2165886D1*
X7353644Y2153813D1*
X7359681Y2135563D1*
Y2123490D1*
X7353644Y2105240D1*
X7341431Y2093027D1*
X7323181Y2086990D1*
X7305071D1*
X7286821Y2093027D1*
X7280785Y2099204D1*
X7274608Y2111277D1*
X7263982Y4638777D2*
Y4511167D1*
X7306519D1*
X7324769Y4517344D1*
X7336982Y4529417D1*
X7343019Y4541630D1*
X7349055Y4559740D1*
Y4590204D1*
X7343019Y4608454D1*
X7336982Y4620527D1*
X7324769Y4632740D1*
X7306519Y4638777D1*
X7263982D1*
X7412558Y4511167D2*
X7473344Y4638636D1*
X7388271D1*
X5512267Y3190807D2*
X5433231D1*
Y3063197D1*
Y3130020D2*
X5481804D1*
X5575769Y3063197D2*
X5636556Y3190666D1*
X5551483D1*
X7283409Y4435987D2*
Y4338840D1*
X7277373Y4320590D1*
X7271196Y4314554D1*
X7259123Y4308377D1*
X7246909D1*
X7234836Y4314554D1*
X7228800Y4320590D1*
X7222623Y4338840D1*
Y4350914D1*
X7322625Y4411560D2*
X7334838Y4417737D1*
X7353088Y4435846D1*
Y4308377D1*
X7416591D2*
X7477377Y4435846D1*
X7392304D1*
X7230480Y4840273D2*
X7285089D1*
X7303339Y4846450D1*
X7309516Y4852487D1*
X7315553Y4864560D1*
Y4876773D1*
X7309516Y4888846D1*
X7303339Y4895023D1*
X7285089Y4901060D1*
X7230480D1*
Y4773450D1*
X7273016Y4840273D2*
X7315553Y4773450D1*
X7354768Y4876633D2*
X7366982Y4882810D1*
X7385232Y4900920D1*
Y4773450D1*
X7430624Y4870596D2*
Y4876633D1*
X7436661Y4888846D1*
X7442697Y4894883D1*
X7454911Y4900920D1*
X7479197D1*
X7491270Y4894883D1*
X7497307Y4888846D1*
X7503484Y4876633D1*
Y4864560D1*
X7497307Y4852346D1*
X7485234Y4834237D1*
X7424447Y4773450D1*
X7509520D1*
X6796070Y5574033D2*
X6893216D1*
X6911466Y5567996D1*
X6917503Y5561820D1*
X6923680Y5549747D1*
Y5537533D1*
X6917503Y5525460D1*
X6911466Y5519424D1*
X6893216Y5513247D1*
X6881143D1*
X6820497Y5613249D2*
X6814320Y5625462D1*
X6796211Y5643712D1*
X6923680D1*
X6796211Y5713251D2*
X6802247Y5695141D1*
X6814320Y5688964D1*
X6826534D1*
X6838607Y5695141D1*
X6844784Y5707214D1*
X6850820Y5731501D1*
X6856857Y5749751D1*
X6869070Y5761824D1*
X6881143Y5767860D1*
X6899393D1*
X6911466Y5761824D1*
X6917643Y5755787D1*
X6923680Y5737537D1*
Y5713251D1*
X6917643Y5695141D1*
X6911466Y5688964D1*
X6899393Y5682928D1*
X6881143D1*
X6869070Y5688964D1*
X6856857Y5701178D1*
X6850820Y5719287D1*
X6844784Y5743574D1*
X6838607Y5755787D1*
X6826534Y5761824D1*
X6814320D1*
X6802247Y5755787D1*
X6796211Y5737537D1*
Y5713251D1*
X876513Y3611428D2*
X973660D1*
X991910Y3605391D1*
X997946Y3599214D1*
X1004123Y3587141D1*
Y3574928D1*
X997946Y3562855D1*
X991910Y3556818D1*
X973660Y3550641D1*
X961586D1*
X900940Y3650644D2*
X894764Y3662857D1*
X876654Y3681107D1*
X1004123D1*
X919050Y3799359D2*
X937300Y3793182D1*
X949514Y3781109D1*
X955550Y3762859D1*
Y3756822D1*
X949514Y3738572D1*
X937300Y3726499D1*
X919050Y3720323D1*
X913014D1*
X894764Y3726499D1*
X882690Y3738573D1*
X876654Y3756823D1*
Y3762859D1*
X882690Y3781109D1*
X894764Y3793182D1*
X919050Y3799359D1*
X949514D1*
X979837Y3793182D1*
X998087Y3781109D1*
X1004123Y3762859D1*
Y3750786D1*
X998087Y3732536D1*
X985873Y3726499D1*
X3812311Y943227D2*
Y852117D1*
X3818347Y833867D1*
X3830561Y821794D1*
X3848811Y815617D1*
X3860884D1*
X3879134Y821794D1*
X3891347Y833867D1*
X3897384Y852117D1*
Y943227D1*
X3997386Y815617D2*
Y943086D1*
X3936600Y858154D1*
X4027709D1*
X4630319Y938237D2*
Y847127D1*
X4636356Y828877D1*
X4648569Y816804D1*
X4666819Y810627D1*
X4678892D1*
X4697142Y816804D1*
X4709356Y828877D1*
X4715392Y847127D1*
Y938237D1*
X4827467Y938096D2*
X4766821D1*
X4760785Y883487D1*
X4766821Y889523D1*
X4785071Y895700D1*
X4803181D1*
X4821431Y889523D1*
X4833644Y877450D1*
X4839681Y859200D1*
Y847127D1*
X4833644Y828877D1*
X4821431Y816664D1*
X4803181Y810627D1*
X4785071D1*
X4766821Y816664D1*
X4760785Y822840D1*
X4754608Y834914D1*
X2349800Y1620480D2*
Y1675089D1*
X2343623Y1693339D1*
X2337587Y1699516D1*
X2325514Y1705553D1*
X2313300D1*
X2301227Y1699516D1*
X2295050Y1693339D1*
X2289013Y1675089D1*
Y1620480D1*
X2416623D1*
X2349800Y1663016D2*
X2416623Y1705553D1*
X2313440Y1744768D2*
X2307264Y1756982D1*
X2289154Y1775232D1*
X2416623D1*
X2289154Y1826661D2*
Y1893344D1*
X2337727Y1856984D1*
Y1875234D1*
X2343764Y1887307D1*
X2349800Y1893344D1*
X2368050Y1899521D1*
X2380123D1*
X2398373Y1893344D1*
X2410587Y1881271D1*
X2416623Y1863021D1*
Y1844771D1*
X2410587Y1826661D1*
X2404410Y1820624D1*
X2392337Y1814447D1*
X2349800Y1237462D2*
Y1292071D1*
X2343623Y1310321D1*
X2337587Y1316498D1*
X2325514Y1322535D1*
X2313300D1*
X2301227Y1316498D1*
X2295050Y1310321D1*
X2289013Y1292071D1*
Y1237462D1*
X2416623D1*
X2349800Y1279998D2*
X2416623Y1322534D1*
X2313440Y1361750D2*
X2307264Y1373964D1*
X2289154Y1392214D1*
X2416623Y1392213D1*
Y1492216D2*
X2289154D1*
X2374087Y1431429D1*
Y1522539D1*
X5065480Y300200D2*
X5120089D1*
X5138339Y306377D1*
X5144516Y312414D1*
X5150553Y324487D1*
Y336700D1*
X5144516Y348773D1*
X5138339Y354950D1*
X5120089Y360987D1*
X5065480D1*
Y233377D1*
X5108016Y300200D2*
X5150553Y233377D1*
X5189768Y336560D2*
X5201982Y342737D1*
X5220232Y360846D1*
Y233377D1*
X5332307Y360846D2*
X5271661D1*
X5265624Y306237D1*
X5271661Y312273D1*
X5289911Y318450D1*
X5308020D1*
X5326270Y312273D1*
X5338484Y300200D1*
X5344520Y281950D1*
Y269877D1*
X5338484Y251627D1*
X5326270Y239414D1*
X5308020Y233377D1*
X5289911D1*
X5271661Y239414D1*
X5265624Y245590D1*
X5259447Y257664D1*
X542717Y-718741D2*
X536680Y-706668D1*
X524467Y-694455D1*
X512394Y-688418D1*
X488107D1*
X475894Y-694455D1*
X463821Y-706668D1*
X457644Y-718741D1*
X451607Y-736991D1*
Y-767455D1*
X457644Y-785565D1*
X463821Y-797778D1*
X475894Y-809851D1*
X488107Y-816028D1*
X512394D1*
X524467Y-809851D1*
X536680Y-797778D1*
X542717Y-785565D1*
Y-767455D1*
X512394D1*
X667006Y-688418D2*
Y-816028D1*
X581933Y-688418D1*
Y-816028D1*
X706221Y-688418D2*
Y-816028D1*
X748758D1*
X767008Y-809851D1*
X779221Y-797778D1*
X785258Y-785565D1*
X791294Y-767455D1*
Y-736991D1*
X785258Y-718741D1*
X779221Y-706668D1*
X767008Y-694455D1*
X748758Y-688418D1*
X706221D1*
X1214380Y-687019D2*
X1153734D1*
X1147698Y-741628D1*
X1153734Y-735592D1*
X1171984Y-729415D1*
X1190094D1*
X1208344Y-735592D1*
X1220557Y-747665D1*
X1226594Y-765915D1*
Y-777988D1*
X1220557Y-796238D1*
X1208344Y-808451D1*
X1190094Y-814488D1*
X1171984D1*
X1153734Y-808451D1*
X1147698Y-802275D1*
X1141521Y-790201D1*
X1265809Y-686878D2*
X1314382Y-814488D1*
X1362956Y-686878D1*
X1475031D2*
Y-814488D1*
Y-747665D2*
X1462958Y-735451D1*
X1450744Y-729415D1*
X1432494D1*
X1420421Y-735451D1*
X1408208Y-747665D1*
X1402171Y-765915D1*
Y-777988D1*
X1408208Y-796238D1*
X1420421Y-808311D1*
X1432494Y-814488D1*
X1450744D1*
X1462958Y-808311D1*
X1475031Y-796238D1*
X1587246Y-747665D2*
X1575033Y-735451D1*
X1562820Y-729415D1*
X1544710D1*
X1532496Y-735451D1*
X1520423Y-747665D1*
X1514246Y-765915D1*
Y-777988D1*
X1520423Y-796238D1*
X1532496Y-808311D1*
X1544710Y-814488D1*
X1562820D1*
X1575033Y-808311D1*
X1587246Y-796238D1*
X2154217Y-756991D2*
X2148180Y-744918D1*
X2135967Y-732705D1*
X2123894Y-726668D1*
X2099607D1*
X2087394Y-732705D1*
X2075321Y-744918D1*
X2069144Y-756991D1*
X2063107Y-775241D1*
Y-805705D1*
X2069144Y-823815D1*
X2075321Y-836028D1*
X2087394Y-848101D1*
X2099607Y-854278D1*
X2123894D1*
X2135967Y-848101D1*
X2148180Y-836028D1*
X2154217Y-823815D1*
Y-805705D1*
X2123894D1*
X2278506Y-726668D2*
Y-854278D1*
X2193433Y-726668D1*
Y-854278D1*
X2317721Y-726668D2*
Y-854278D1*
X2360258D1*
X2378508Y-848101D1*
X2390721Y-836028D1*
X2396758Y-823815D1*
X2402794Y-805705D1*
Y-775241D1*
X2396758Y-756991D1*
X2390721Y-744918D1*
X2378508Y-732705D1*
X2360258Y-726668D1*
X2317721D1*
X2829054Y-723378D2*
X2877627Y-850988D1*
X2926200Y-723378D1*
X3038416Y-784165D2*
X3026202Y-771951D1*
X3013989Y-765915D1*
X2995879D1*
X2983666Y-771951D1*
X2971593Y-784165D1*
X2965416Y-802415D1*
Y-814488D1*
X2971593Y-832738D1*
X2983666Y-844811D1*
X2995879Y-850988D1*
X3013989D1*
X3026202Y-844811D1*
X3038416Y-832738D1*
X3150631Y-784165D2*
X3138418Y-771951D1*
X3126205Y-765915D1*
X3108095D1*
X3095881Y-771951D1*
X3083808Y-784165D1*
X3077631Y-802415D1*
Y-814488D1*
X3083808Y-832738D1*
X3095881Y-844811D1*
X3108095Y-850988D1*
X3126205D1*
X3138418Y-844811D1*
X3150631Y-832738D1*
X3715357Y-831793D2*
X3785550D1*
X4089967Y-777114D2*
Y-886473D1*
X4035357Y-831864D2*
X4144717D1*
X3671857Y-607918D2*
X3659644Y-613955D1*
X3647571Y-626168D1*
X3641394Y-638241D1*
X3635357Y-656491D1*
Y-686955D1*
X3641394Y-705065D1*
X3647571Y-717278D1*
X3659644Y-729351D1*
X3671857Y-735528D1*
X3696144D1*
X3708217Y-729351D1*
X3720430Y-717278D1*
X3726467Y-705065D1*
X3732503Y-686955D1*
Y-656491D1*
X3726467Y-638241D1*
X3720430Y-626168D1*
X3708217Y-613955D1*
X3696144Y-607918D1*
X3671857D1*
X3771719D2*
Y-699028D1*
X3777756Y-717278D1*
X3789969Y-729351D1*
X3808219Y-735528D1*
X3820292D1*
X3838542Y-729351D1*
X3850756Y-717278D1*
X3856792Y-699028D1*
Y-607918D1*
X3938544D2*
Y-735528D1*
X3896008Y-607918D2*
X3981081D1*
X4204530Y-735528D2*
Y-608059D1*
X4143743Y-692991D1*
X4234853D1*
X433357Y-420918D2*
Y-548528D1*
X557646Y-420918D2*
Y-548528D1*
X472573Y-420918D1*
Y-548528D1*
X596862Y-487741D2*
X651612D1*
X669721Y-481705D1*
X675898Y-475528D1*
X681935Y-463455D1*
Y-445205D1*
X675898Y-433132D1*
X669721Y-426955D1*
X651612Y-420918D1*
X596862D1*
Y-548528D1*
X721150Y-420918D2*
Y-512028D1*
X727187Y-530278D1*
X739400Y-542351D1*
X757650Y-548528D1*
X769724D1*
X787974Y-542351D1*
X800187Y-530278D1*
X806224Y-512028D1*
Y-420918D1*
X887976D2*
Y-548528D1*
X845439Y-420918D2*
X930512D1*
X1166034Y-421059D2*
X1105388D1*
X1099351Y-475668D1*
X1105388Y-469632D1*
X1123638Y-463455D1*
X1141748D1*
X1159998Y-469632D1*
X1172211Y-481705D1*
X1178248Y-499955D1*
Y-512028D1*
X1172211Y-530278D1*
X1159998Y-542491D1*
X1141748Y-548528D1*
X1123638D1*
X1105388Y-542491D1*
X1099351Y-536315D1*
X1093174Y-524241D1*
X1217463Y-420918D2*
X1266036Y-548528D1*
X1314609Y-420918D1*
X1426685D2*
Y-548528D1*
Y-481705D2*
X1414612Y-469491D1*
X1402398Y-463455D1*
X1384148D1*
X1372075Y-469491D1*
X1359862Y-481705D1*
X1353825Y-499955D1*
Y-512028D1*
X1359862Y-530278D1*
X1372075Y-542351D1*
X1384148Y-548528D1*
X1402398D1*
X1414612Y-542351D1*
X1426685Y-530278D1*
X1538900Y-481705D2*
X1526687Y-469491D1*
X1514473Y-463455D1*
X1496364D1*
X1484150Y-469491D1*
X1472077Y-481705D1*
X1465900Y-499955D1*
Y-512028D1*
X1472077Y-530278D1*
X1484150Y-542351D1*
X1496364Y-548528D1*
X1514473D1*
X1526687Y-542351D1*
X1538900Y-530278D1*
X2036107Y-420918D2*
Y-548528D1*
X2160396Y-420918D2*
Y-548528D1*
X2075323Y-420918D1*
Y-548528D1*
X2199612Y-487741D2*
X2254362D1*
X2272471Y-481705D1*
X2278648Y-475528D1*
X2284685Y-463455D1*
Y-445205D1*
X2278648Y-433132D1*
X2272471Y-426955D1*
X2254362Y-420918D1*
X2199612D1*
Y-548528D1*
X2323900Y-420918D2*
Y-512028D1*
X2329937Y-530278D1*
X2342150Y-542351D1*
X2360400Y-548528D1*
X2372474D1*
X2390724Y-542351D1*
X2402937Y-530278D1*
X2408974Y-512028D1*
Y-420918D1*
X2490726D2*
Y-548528D1*
X2448189Y-420918D2*
X2533262D1*
X2708138Y-421059D2*
X2774821D1*
X2738461Y-469632D1*
X2756711D1*
X2768784Y-475668D1*
X2774821Y-481705D1*
X2780998Y-499955D1*
Y-512028D1*
X2774821Y-530278D1*
X2762748Y-542491D1*
X2744498Y-548528D1*
X2726248D1*
X2708138Y-542491D1*
X2702101Y-536315D1*
X2695924Y-524241D1*
X2998269Y-430114D2*
Y-539473D1*
X2943660Y-484864D2*
X3053019D1*
X3276468Y-548528D2*
Y-421059D1*
X3215681Y-505991D1*
X3306791D1*
X3322794Y1429489D2*
D96*
X3322793Y1334645D1*
X3475925D1*
X3395737D2*
Y1392933D1*
X3352106Y1476548D2*
X3344694Y1491204D1*
X3322962Y1513104D1*
X3475925D1*
X3399444Y1560162D2*
Y1644393D1*
X3475925Y1720596D2*
X3322962Y1793540D1*
Y1691452D1*
X3373837Y1848011D2*
X3381250Y1840598D1*
X3388494Y1848011D1*
X3381250Y1855255D1*
X3373837Y1848011D1*
X3461269D2*
X3468681Y1840598D1*
X3475925Y1848011D1*
X3468681Y1855255D1*
X3461269Y1848011D1*
X3352106Y2050449D2*
X3344694Y2065105D1*
X3322962Y2087005D1*
X3475925D1*
X3461269Y2141308D2*
X3468681Y2134064D1*
X3475925Y2141308D1*
X3468681Y2148720D1*
X3461269Y2141308D1*
X3352106Y2195779D2*
X3344693Y2210435D1*
X3322962Y2232335D1*
X3475925D1*
Y2396138D2*
X3322793Y2337682D1*
X3475925Y2279394D1*
X3424881Y2301294D2*
Y2374238D1*
X3468681Y2457853D2*
X3475925Y2450441D1*
X3468681Y2443197D1*
X3461269Y2450441D1*
X3468681Y2457853D1*
X3483169D1*
X3497825Y2450441D1*
X3505069Y2443197D1*
X3395737Y2733235D2*
X3381081Y2725991D1*
X3373837Y2704091D1*
Y2682191D1*
X3381081Y2660291D1*
X3395737Y2653048D1*
X3410225Y2660291D1*
X3417637Y2674948D1*
X3424881Y2711335D1*
X3432125Y2725991D1*
X3446781Y2733235D1*
X3454025D1*
X3468513Y2725991D1*
X3475925Y2704091D1*
Y2682191D1*
X3468513Y2660291D1*
X3454025Y2653048D1*
X3417637Y2780294D2*
Y2867726D1*
X3402981D1*
X3388325Y2860482D1*
X3381081Y2853238D1*
X3373837Y2838582D1*
Y2816682D1*
X3381081Y2802194D1*
X3395737Y2787538D1*
X3417637Y2780294D1*
X3432125D1*
X3454025Y2787538D1*
X3468513Y2802194D1*
X3475925Y2816682D1*
Y2838582D1*
X3468513Y2853238D1*
X3454025Y2867726D1*
X3322793Y2914784D2*
X3475925D1*
X3322793Y3020131D2*
Y3005643D1*
X3330037Y2990987D1*
X3351937Y2983743D1*
X3475925D1*
X3373837Y2961843D2*
Y3012887D1*
Y3215325D2*
X3475925D1*
X3417637D2*
X3395737Y3222738D1*
X3381081Y3237225D1*
X3373837Y3251882D1*
Y3273782D1*
X3417637Y3320840D2*
Y3408272D1*
X3402981D1*
X3388325Y3401028D1*
X3381081Y3393784D1*
X3373837Y3379128D1*
Y3357228D1*
X3381081Y3342740D1*
X3395737Y3328084D1*
X3417637Y3320840D1*
X3432125D1*
X3454025Y3328084D1*
X3468513Y3342740D1*
X3475925Y3357228D1*
Y3379128D1*
X3468513Y3393784D1*
X3454025Y3408272D1*
X3395737Y3535519D2*
X3381081Y3528275D1*
X3373837Y3506375D1*
Y3484475D1*
X3381081Y3462575D1*
X3395737Y3455331D1*
X3410225Y3462575D1*
X3417637Y3477231D1*
X3424881Y3513619D1*
X3432125Y3528275D1*
X3446781Y3535519D1*
X3454025D1*
X3468513Y3528275D1*
X3475925Y3506375D1*
Y3484475D1*
X3468513Y3462575D1*
X3454025Y3455331D1*
X3417637Y3582577D2*
Y3670009D1*
X3402981D1*
X3388325Y3662765D1*
X3381081Y3655521D1*
X3373837Y3640865D1*
Y3618965D1*
X3381081Y3604477D1*
X3395737Y3589821D1*
X3417637Y3582577D1*
X3432125D1*
X3454025Y3589821D1*
X3468513Y3604477D1*
X3475925Y3618965D1*
Y3640865D1*
X3468513Y3655521D1*
X3454025Y3670009D1*
X3322793Y3738968D2*
X3446781D1*
X3468513Y3746212D1*
X3475925Y3760868D1*
Y3775355D1*
X3373837Y3717068D2*
Y3768112D1*
X6575357Y-821793D2*
D95*
X6645550D1*
X4061143Y1154052D2*
D96*
X4214275D1*
X4061144Y1256139D2*
X4214275D1*
X4134087Y1154052D2*
Y1256139D1*
X4061144Y1303198D2*
X4134087Y1361486D1*
X4214275D1*
X4061144Y1419773D2*
X4134087Y1361486D1*
X4141331Y1466832D2*
Y1532532D1*
X4134087Y1554264D1*
X4126675Y1561676D1*
X4112187Y1568920D1*
X4090287D1*
X4075800Y1561676D1*
X4068387Y1554264D1*
X4061144Y1532532D1*
Y1466832D1*
X4214275D1*
X4061144Y1710654D2*
Y1615979D1*
X4214275D1*
Y1710654D1*
X4134087Y1615979D2*
Y1674266D1*
Y1757713D2*
Y1823244D1*
X4126675Y1845144D1*
X4119431Y1852557D1*
X4104943Y1859801D1*
X4090287D1*
X4075800Y1852557D1*
X4068387Y1845144D1*
X4061144Y1823244D1*
Y1757713D1*
X4214275D1*
X4134087Y1808757D2*
X4214275Y1859801D1*
Y2023435D2*
X4061144D1*
X4214275Y1965147D1*
X4061144Y1906859D1*
X4214275D1*
Y2187237D2*
X4061143Y2128781D1*
X4214275Y2070494D1*
X4163231Y2092394D2*
Y2165337D1*
X4061143Y2278096D2*
X4068219Y2263609D1*
X4082875Y2248952D1*
X4097531Y2241709D1*
X4119431Y2234296D1*
X4155819D1*
X4177719Y2241709D1*
X4192207Y2248952D1*
X4206863Y2263609D1*
X4214107Y2278096D1*
Y2307240D1*
X4206863Y2321896D1*
X4192207Y2336384D1*
X4177719Y2343628D1*
X4155819Y2351040D1*
X4119431D1*
X4097531Y2343628D1*
X4082875Y2336384D1*
X4068219Y2321896D1*
X4061143Y2307240D1*
Y2278096D1*
X4184963Y2299996D2*
X4228763Y2343628D1*
X4112187Y2546235D2*
X4265319D1*
X4134087D2*
X4119600Y2560891D1*
X4112187Y2575378D1*
Y2597278D1*
X4119600Y2611935D1*
X4134087Y2626422D1*
X4155987Y2633835D1*
X4170643D1*
X4192375Y2626422D1*
X4207031Y2611935D1*
X4214275Y2597278D1*
Y2575378D1*
X4207031Y2560891D1*
X4192375Y2546235D1*
X4112187Y2717281D2*
X4119431Y2702793D1*
X4134087Y2688137D1*
X4155987Y2680893D1*
X4170475D1*
X4192375Y2688137D1*
X4206863Y2702793D1*
X4214275Y2717281D1*
Y2739181D1*
X4206863Y2753837D1*
X4192375Y2768325D1*
X4170475Y2775737D1*
X4155987D1*
X4134087Y2768325D1*
X4119431Y2753837D1*
X4112187Y2739181D1*
Y2717281D1*
Y2822796D2*
X4214275Y2851940D1*
X4112187Y2881084D1*
X4214275Y2910228D1*
X4112187Y2939372D1*
X4155987Y2986430D2*
Y3073862D1*
X4141331D1*
X4126675Y3066618D1*
X4119431Y3059374D1*
X4112187Y3044718D1*
Y3022818D1*
X4119431Y3008330D1*
X4134087Y2993674D1*
X4155987Y2986430D1*
X4170475D1*
X4192375Y2993674D1*
X4206863Y3008330D1*
X4214275Y3022818D1*
Y3044718D1*
X4206863Y3059374D1*
X4192375Y3073862D1*
X4112187Y3120921D2*
X4214275D1*
X4155987D2*
X4134087Y3128333D1*
X4119431Y3142821D1*
X4112187Y3157477D1*
Y3179377D1*
X4061143Y3374571D2*
X4214275D1*
X4134087D2*
X4119431Y3389228D1*
X4112187Y3403715D1*
Y3425615D1*
X4119431Y3440103D1*
X4134087Y3454759D1*
X4155987Y3462003D1*
X4170475D1*
X4192375Y3454759D1*
X4206863Y3440103D1*
X4214275Y3425615D1*
Y3403715D1*
X4206863Y3389228D1*
X4192375Y3374571D1*
X4112187Y3545449D2*
X4119431Y3530962D1*
X4134087Y3516306D1*
X4155987Y3509062D1*
X4170475D1*
X4192375Y3516306D1*
X4206863Y3530962D1*
X4214275Y3545449D1*
Y3567349D1*
X4206863Y3582006D1*
X4192375Y3596493D1*
X4170475Y3603906D1*
X4155987D1*
X4134087Y3596493D1*
X4119431Y3582006D1*
X4112187Y3567349D1*
Y3545449D1*
Y3738396D2*
X4214275D1*
X4134087D2*
X4119431Y3723908D1*
X4112187Y3709252D1*
Y3687521D1*
X4119431Y3672864D1*
X4134087Y3658377D1*
X4155987Y3650964D1*
X4170475D1*
X4192375Y3658377D1*
X4206863Y3672864D1*
X4214275Y3687521D1*
Y3709252D1*
X4206863Y3723908D1*
X4192375Y3738396D1*
X4112187Y3785455D2*
X4214275D1*
X4155987D2*
X4134087Y3792867D1*
X4119431Y3807355D1*
X4112187Y3822011D1*
Y3843911D1*
X4061143Y3978401D2*
X4214275D1*
X4134087D2*
X4119431Y3963914D1*
X4112187Y3949257D1*
Y3927357D1*
X4119431Y3912870D1*
X4134087Y3898214D1*
X4155987Y3890970D1*
X4170475D1*
X4192375Y3898214D1*
X4206863Y3912870D1*
X4214275Y3927357D1*
Y3949257D1*
X4206863Y3963914D1*
X4192375Y3978401D1*
X4326057Y1633215D2*
X4479188Y1691503D1*
X4326057Y1749790D1*
X4326225Y1840649D2*
X4333469Y1818749D1*
X4355369Y1804093D1*
X4391757Y1796849D1*
X4413657D1*
X4450045Y1804093D1*
X4471945Y1818749D1*
X4479188Y1840649D1*
Y1855137D1*
X4471945Y1877037D1*
X4450045Y1891524D1*
X4413657Y1898937D1*
X4391757D1*
X4355369Y1891524D1*
X4333469Y1877037D1*
X4326225Y1855137D1*
Y1840649D1*
X4355369Y1891524D2*
X4450045Y1804093D1*
X4464532Y1953239D2*
X4471945Y1945995D1*
X4479188Y1953239D1*
X4471945Y1960652D1*
X4464532Y1953239D1*
X4326225Y2022367D2*
Y2102386D1*
X4384513Y2058754D1*
Y2080654D1*
X4391757Y2095142D1*
X4399001Y2102386D1*
X4420901Y2109798D1*
X4435388D1*
X4457288Y2102386D1*
X4471944Y2087898D1*
X4479188Y2065998D1*
Y2044098D1*
X4471945Y2022367D1*
X4464532Y2015123D1*
X4450045Y2007710D1*
X4471944Y2171513D2*
X4479188Y2164101D1*
X4471944Y2156857D1*
X4464532Y2164101D1*
X4471944Y2171513D1*
X4486432D1*
X4501088Y2164101D1*
X4508332Y2156857D1*
X4326057Y2366708D2*
X4479188Y2424995D1*
X4326057Y2483283D1*
Y2530342D2*
X4479188D1*
Y2617773D1*
X4326057Y2664832D2*
X4479188D1*
X4326057Y2711891D2*
Y2813979D1*
X4479188Y2711891D1*
Y2813979D1*
X4362613Y3016586D2*
X4355369D1*
X4340713Y3023829D1*
X4333469Y3031073D1*
X4326225Y3045729D1*
Y3074873D1*
X4333469Y3089361D1*
X4340713Y3096605D1*
X4355369Y3104017D1*
X4369857D1*
X4384513Y3096605D1*
X4406244Y3082117D1*
X4479188Y3009173D1*
Y3111261D1*
X4326225Y3202120D2*
X4333469Y3180220D1*
X4355369Y3165564D1*
X4391757Y3158320D1*
X4413657D1*
X4450044Y3165564D1*
X4471944Y3180220D1*
X4479188Y3202120D1*
Y3216608D1*
X4471944Y3238508D1*
X4450044Y3252995D1*
X4413657Y3260408D1*
X4391757D1*
X4355369Y3252995D1*
X4333469Y3238508D1*
X4326225Y3216608D1*
Y3202120D1*
X4355369Y3252995D2*
X4450044Y3165564D1*
X4355369Y3307466D2*
X4347957Y3322122D1*
X4326225Y3344022D1*
X4479188D1*
X4377101Y3485925D2*
X4399001Y3478513D1*
X4413657Y3464025D1*
X4420901Y3442125D1*
Y3434881D1*
X4413657Y3412981D1*
X4399001Y3398494D1*
X4377101Y3391081D1*
X4369857D1*
X4347957Y3398494D1*
X4333469Y3412981D1*
X4326225Y3434881D1*
Y3442125D1*
X4333469Y3464025D1*
X4347957Y3478513D1*
X4377101Y3485925D1*
X4413657D1*
X4450044Y3478513D1*
X4471944Y3464025D1*
X4479188Y3442125D1*
Y3427637D1*
X4471944Y3405737D1*
X4457288Y3398494D1*
X3622793Y1318558D2*
X3775925Y1376846D1*
X3622794Y1435134D1*
Y1482192D2*
X3630037Y1489436D1*
X3622794Y1496849D1*
X3615381Y1489436D1*
X3622794Y1482192D1*
X3673837Y1489436D2*
X3775925D1*
X3673837Y1543907D2*
X3775925D1*
X3702981D2*
X3681081Y1565807D1*
X3673837Y1580463D1*
Y1602195D1*
X3681081Y1616851D1*
X3702981Y1624095D1*
X3775925D1*
X3622794Y1819290D2*
X3775925Y1819289D1*
X3622794Y1968436D2*
X3775925D1*
X3622794Y1866348D1*
X3775925D1*
X3702981Y2015495D2*
Y2081195D1*
X3695737Y2102926D1*
X3688325Y2110339D1*
X3673837Y2117583D1*
X3651937D1*
X3637450Y2110339D1*
X3630037Y2102926D1*
X3622794Y2081195D1*
Y2015495D1*
X3775925D1*
X3652106Y2312777D2*
X3644693Y2327433D1*
X3622962Y2349333D1*
X3775925D1*
X3699443Y2396392D2*
Y2480623D1*
X3644693Y2615113D2*
X3630206Y2607869D1*
X3622962Y2585969D1*
Y2571482D1*
X3630206Y2549582D1*
X3652106Y2534926D1*
X3688493Y2527682D1*
X3724881D1*
X3754025Y2534926D1*
X3768681Y2549582D1*
X3775925Y2571482D1*
Y2578726D1*
X3768681Y2600457D1*
X3754025Y2615113D1*
X3732125Y2622357D1*
X3724881D1*
X3702981Y2615113D1*
X3688493Y2600457D1*
X3681250Y2578726D1*
Y2571482D1*
X3688493Y2549582D1*
X3702981Y2534926D1*
X3724881Y2527682D1*
X3775925Y2934127D2*
X3622793D1*
X3775925Y2875839D1*
X3622793Y2817552D1*
X3775925D1*
Y3097930D2*
X3622793Y3039474D1*
X3775925Y2981186D1*
X3724881Y3003086D2*
Y3076030D1*
X3622793Y3144988D2*
X3775925Y3247076D1*
X3622793D2*
X3775925Y3144988D1*
X3652106Y3442271D2*
X3644693Y3456927D1*
X3622962Y3478827D1*
X3775925D1*
X3622962Y3562273D2*
X3630206Y3540542D1*
X3644693Y3533130D1*
X3659350D1*
X3673837Y3540542D1*
X3681250Y3555030D1*
X3688493Y3584173D1*
X3695737Y3606073D1*
X3710393Y3620561D1*
X3724881Y3627805D1*
X3746781D1*
X3761269Y3620561D1*
X3768681Y3613317D1*
X3775925Y3591417D1*
Y3562273D1*
X3768681Y3540542D1*
X3761269Y3533130D1*
X3746781Y3525886D1*
X3724881D1*
X3710393Y3533130D1*
X3695737Y3547786D1*
X3688493Y3569517D1*
X3681250Y3598661D1*
X3673837Y3613317D1*
X3659350Y3620561D1*
X3644693D1*
X3630206Y3613317D1*
X3622962Y3591417D1*
Y3562273D1*
X3622793Y3674864D2*
X3775925Y3733151D1*
X3622793Y3791439D1*
X-1201235Y1649886D2*
X-1135535D1*
X-1113804Y1657129D1*
X-1106391Y1664542D1*
X-1099148Y1679029D1*
Y1700929D1*
X-1106391Y1715417D1*
X-1113804Y1722829D1*
X-1135535Y1730073D1*
X-1201235D1*
Y1576942D1*
X-1008289Y1730073D2*
X-1022945Y1722829D1*
X-1037433Y1708173D1*
X-1044845Y1693686D1*
X-1052089Y1671786D1*
Y1635229D1*
X-1044845Y1613498D1*
X-1037433Y1598842D1*
X-1022945Y1584354D1*
X-1008289Y1576942D1*
X-979145D1*
X-964657Y1584354D1*
X-950001Y1598842D1*
X-942757Y1613498D1*
X-935513Y1635229D1*
Y1671786D1*
X-942757Y1693686D1*
X-950001Y1708173D1*
X-964657Y1722829D1*
X-979145Y1730073D1*
X-1008289D1*
X-888455D2*
X-851898Y1576942D1*
X-815511Y1730073D1*
X-779123Y1576942D1*
X-742567Y1730073D1*
X-600833D2*
X-695508D1*
Y1576942D1*
X-600833D1*
X-695508Y1657129D2*
X-637220D1*
X-553774D2*
X-488242D1*
X-466342Y1664542D1*
X-458930Y1671786D1*
X-451686Y1686273D1*
Y1700929D1*
X-458930Y1715417D1*
X-466342Y1722829D1*
X-488242Y1730073D1*
X-553774D1*
Y1576942D1*
X-502730Y1657129D2*
X-451686Y1576942D1*
X1680774Y3299649D2*
D95*
X1674737Y3311722D1*
X1662524Y3323935D1*
X1650450Y3329972D1*
X1626164D1*
X1613950Y3323935D1*
X1601877Y3311722D1*
X1595700Y3299649D1*
X1589664Y3281399D1*
Y3250935D1*
X1595700Y3232825D1*
X1601877Y3220612D1*
X1613950Y3208539D1*
X1626164Y3202362D1*
X1650450D1*
X1662524Y3208539D1*
X1674737Y3220612D1*
X1680774Y3232825D1*
Y3250935D1*
X1650450D1*
X1805062Y3329972D2*
Y3202362D1*
X1719989Y3329972D1*
Y3202362D1*
X1844278Y3329972D2*
Y3202362D1*
X1886815D1*
X1905065Y3208539D1*
X1917278Y3220612D1*
X1923315Y3232825D1*
X1929351Y3250935D1*
Y3281399D1*
X1923315Y3299649D1*
X1917278Y3311722D1*
X1905065Y3323935D1*
X1886815Y3329972D1*
X1844278D1*
X1589664Y2970198D2*
X1638237Y2842589D1*
X1686810Y2970198D1*
X1726026D2*
Y2842589D1*
X1780776D1*
X1799026Y2848766D1*
X1805062Y2854802D1*
X1811099Y2866875D1*
Y2885125D1*
X1805062Y2897339D1*
X1799026Y2903375D1*
X1780776Y2909412D1*
X1799026Y2915589D1*
X1805062Y2921625D1*
X1811099Y2933698D1*
Y2945912D1*
X1805062Y2957985D1*
X1799026Y2964162D1*
X1780776Y2970198D1*
X1726026D1*
Y2909412D2*
X1780776D1*
X1923174Y2927662D2*
Y2842589D1*
Y2909412D2*
X1911101Y2921625D1*
X1898888Y2927662D1*
X1880778D1*
X1868565Y2921625D1*
X1856491Y2909412D1*
X1850315Y2891162D1*
Y2879089D1*
X1856491Y2860839D1*
X1868565Y2848766D1*
X1880778Y2842589D1*
X1898888D1*
X1911101Y2848766D1*
X1923174Y2860839D1*
X1980640Y2970198D2*
Y2866875D1*
X1986676Y2848766D1*
X1998890Y2842589D1*
X2010963D1*
X1962390Y2927662D2*
X2004926D1*
X2216162Y3003469D2*
X2203948Y2991396D1*
X2191875Y2973146D1*
X2179662Y2948860D1*
X2173625Y2918396D1*
Y2894110D1*
X2179662Y2863787D1*
X2191875Y2839500D1*
X2203948Y2821250D1*
X2216162Y2809177D1*
X2352523Y2961003D2*
X2255377Y2906253D1*
X2352523Y2851643D1*
X2397916Y2939735D2*
Y2945771D1*
X2403953Y2957985D1*
X2409989Y2964021D1*
X2422203Y2970058D1*
X2446489D1*
X2458562Y2964021D1*
X2464599Y2957985D1*
X2470776Y2945771D1*
Y2933698D1*
X2464599Y2921485D1*
X2452526Y2903375D1*
X2391739Y2842589D1*
X2476812D1*
X2588887Y2951948D2*
X2582851Y2964021D1*
X2564601Y2970058D1*
X2552528D1*
X2534278Y2964021D1*
X2522064Y2945771D1*
X2516028Y2915448D1*
Y2885125D1*
X2522064Y2860839D1*
X2534278Y2848625D1*
X2552528Y2842589D1*
X2558564D1*
X2576674Y2848625D1*
X2588887Y2860839D1*
X2594924Y2879089D1*
Y2885125D1*
X2588887Y2903375D1*
X2576674Y2915448D1*
X2558564Y2921485D1*
X2552528D1*
X2534278Y2915448D1*
X2522064Y2903375D1*
X2516028Y2885125D1*
X2634140Y2970198D2*
X2682713Y2842589D1*
X2731286Y2970198D1*
X2843361D2*
Y2842589D1*
Y2909412D2*
X2831288Y2921625D1*
X2819075Y2927662D1*
X2800825D1*
X2788752Y2921625D1*
X2776538Y2909412D1*
X2770502Y2891162D1*
Y2879089D1*
X2776538Y2860839D1*
X2788752Y2848766D1*
X2800825Y2842589D1*
X2819075D1*
X2831288Y2848766D1*
X2843361Y2860839D1*
X2955577Y2909412D2*
X2943363Y2921625D1*
X2931150Y2927662D1*
X2913040D1*
X2900827Y2921625D1*
X2888754Y2909412D1*
X2882577Y2891162D1*
Y2879089D1*
X2888754Y2860839D1*
X2900827Y2848766D1*
X2913040Y2842589D1*
X2931150D1*
X2943363Y2848766D1*
X2955577Y2860839D1*
X2994793Y3003469D2*
X3007006Y2991396D1*
X3019079Y2973146D1*
X3031293Y2948860D1*
X3037329Y2918396D1*
Y2894110D1*
X3031293Y2863787D1*
X3019079Y2839500D1*
X3007006Y2821250D1*
X2994793Y2809177D1*
X1609664Y2553605D2*
X1664414D1*
X1682524Y2559642D1*
X1688700Y2565819D1*
X1694737Y2577892D1*
Y2596142D1*
X1688700Y2608215D1*
X1682524Y2614392D1*
X1664414Y2620428D1*
X1609664D1*
Y2492819D1*
X1812989Y2577892D2*
X1806812Y2559642D1*
X1794739Y2547428D1*
X1776489Y2541392D1*
X1770453D1*
X1752203Y2547428D1*
X1740130Y2559642D1*
X1733953Y2577892D1*
Y2583928D1*
X1740130Y2602178D1*
X1752203Y2614251D1*
X1770453Y2620288D1*
X1776489D1*
X1794739Y2614251D1*
X1806812Y2602178D1*
X1812989Y2577892D1*
Y2547428D1*
X1806812Y2517105D1*
X1794739Y2498855D1*
X1776489Y2492819D1*
X1764416D1*
X1746166Y2498855D1*
X1740130Y2511069D1*
X1852205Y2471761D2*
X1967601D1*
X2006817Y2596001D2*
X2019030Y2602178D1*
X2037280Y2620288D1*
Y2492819D1*
X2149356Y2602178D2*
X2143319Y2614251D1*
X2125069Y2620288D1*
X2112996D1*
X2094746Y2614251D1*
X2082532Y2596001D1*
X2076496Y2565678D1*
Y2535355D1*
X2082532Y2511069D1*
X2094746Y2498855D1*
X2112996Y2492819D1*
X2119032D1*
X2137142Y2498855D1*
X2149356Y2511069D1*
X2155392Y2529319D1*
Y2535355D1*
X2149356Y2553605D1*
X2137142Y2565678D1*
X2119032Y2571715D1*
X2112996D1*
X2094746Y2565678D1*
X2082532Y2553605D1*
X2076496Y2535355D1*
X2237144Y2653699D2*
X2224931Y2641626D1*
X2212858Y2623376D1*
X2200644Y2599090D1*
X2194608Y2568626D1*
Y2544340D1*
X2200644Y2514017D1*
X2212858Y2489730D1*
X2224931Y2471480D1*
X2237144Y2459407D1*
X2349220Y2620288D2*
X2288573D1*
X2282537Y2565678D1*
X2288573Y2571715D1*
X2306823Y2577892D1*
X2324933D1*
X2343183Y2571715D1*
X2355397Y2559642D1*
X2361433Y2541392D1*
Y2529319D1*
X2355397Y2511069D1*
X2343183Y2498855D1*
X2324933Y2492819D1*
X2306823D1*
X2288573Y2498855D1*
X2282537Y2505032D1*
X2276360Y2517105D1*
X2400649Y2596001D2*
X2412862Y2602178D1*
X2431112Y2620288D1*
Y2492819D1*
X2470328Y2653699D2*
X2482541Y2641626D1*
X2494614Y2623376D1*
X2506828Y2599090D1*
X2512864Y2568626D1*
Y2544340D1*
X2506828Y2514017D1*
X2494614Y2489730D1*
X2482541Y2471480D1*
X2470328Y2459407D1*
X1589664Y2183835D2*
X1644414D1*
X1662524Y2189872D1*
X1668700Y2196049D1*
X1674737Y2208122D1*
Y2226372D1*
X1668700Y2238445D1*
X1662524Y2244622D1*
X1644414Y2250658D1*
X1589664D1*
Y2123049D1*
X1792989Y2208122D2*
X1786812Y2189872D1*
X1774739Y2177658D1*
X1756489Y2171622D1*
X1750453D1*
X1732203Y2177658D1*
X1720130Y2189872D1*
X1713953Y2208122D1*
Y2214158D1*
X1720130Y2232408D1*
X1732203Y2244481D1*
X1750453Y2250518D1*
X1756489D1*
X1774739Y2244481D1*
X1786812Y2232408D1*
X1792989Y2208122D1*
Y2177658D1*
X1786812Y2147335D1*
X1774739Y2129085D1*
X1756489Y2123049D1*
X1744416D1*
X1726166Y2129085D1*
X1720130Y2141299D1*
X1832205Y2101991D2*
X1947601D1*
X1986817Y2226231D2*
X1999030Y2232408D1*
X2017280Y2250518D1*
Y2123049D1*
X2117282D2*
Y2250518D1*
X2056496Y2165585D1*
X2147606D1*
X2229358Y2283929D2*
X2217144Y2271856D1*
X2205071Y2253606D1*
X2192858Y2229320D1*
X2186821Y2198856D1*
Y2174570D1*
X2192858Y2144247D1*
X2205071Y2119960D1*
X2217144Y2101710D1*
X2229358Y2089637D1*
X2341433Y2250518D2*
X2280787D1*
X2274750Y2195908D1*
X2280787Y2201945D1*
X2299037Y2208122D1*
X2317147D1*
X2335397Y2201945D1*
X2347610Y2189872D1*
X2353647Y2171622D1*
Y2159549D1*
X2347610Y2141299D1*
X2335397Y2129085D1*
X2317147Y2123049D1*
X2299037D1*
X2280787Y2129085D1*
X2274750Y2135262D1*
X2268573Y2147335D1*
X2429362Y2250518D2*
X2411112Y2244481D1*
X2398899Y2226231D1*
X2392862Y2195908D1*
Y2177658D1*
X2398899Y2147335D1*
X2411112Y2129085D1*
X2429362Y2123049D1*
X2441435D1*
X2459685Y2129085D1*
X2471758Y2147335D1*
X2477935Y2177658D1*
Y2195908D1*
X2471758Y2226231D1*
X2459685Y2244481D1*
X2441435Y2250518D1*
X2429362D1*
X2471758Y2226231D2*
X2398899Y2147335D1*
X2517151Y2283929D2*
X2529364Y2271856D1*
X2541437Y2253606D1*
X2553651Y2229320D1*
X2559687Y2198856D1*
Y2174570D1*
X2553651Y2144247D1*
X2541437Y2119960D1*
X2529364Y2101710D1*
X2517151Y2089637D1*
X-1228385Y594279D2*
D96*
X-1162854D1*
X-1140954Y601692D1*
X-1133541Y608936D1*
X-1126298Y623423D1*
Y638079D1*
X-1133541Y652567D1*
X-1140954Y659979D1*
X-1162854Y667223D1*
X-1228385D1*
Y514092D1*
X-1177341Y594279D2*
X-1126298Y514092D1*
X-984563Y667223D2*
X-1079239D1*
Y514092D1*
X-984563D1*
X-1079239Y594279D2*
X-1020951D1*
X-835417Y645323D2*
X-849905Y659979D1*
X-871805Y667223D1*
X-900948D1*
X-922848Y659979D1*
X-937505Y645323D1*
Y630836D1*
X-930092Y616179D1*
X-922848Y608936D1*
X-908361Y601692D1*
X-864561Y587036D1*
X-849905Y579792D1*
X-842661Y572379D1*
X-835417Y557892D1*
Y535992D1*
X-849905Y521504D1*
X-871805Y514092D1*
X-900948D1*
X-922848Y521504D1*
X-937505Y535992D1*
X-693683Y667223D2*
X-788358D1*
Y514092D1*
X-693683D1*
X-788358Y594279D2*
X-730070D1*
X-595580Y667223D2*
Y514092D1*
X-646624Y667223D2*
X-544536D1*
X6949967Y-767114D2*
D95*
Y-876473D1*
X6895357Y-821864D2*
X7004717D1*
X6531857Y-597918D2*
X6519644Y-603955D1*
X6507571Y-616168D1*
X6501394Y-628241D1*
X6495357Y-646491D1*
Y-676955D1*
X6501394Y-695065D1*
X6507571Y-707278D1*
X6519644Y-719351D1*
X6531857Y-725528D1*
X6556144D1*
X6568217Y-719351D1*
X6580430Y-707278D1*
X6586467Y-695065D1*
X6592503Y-676955D1*
Y-646491D1*
X6586467Y-628241D1*
X6580430Y-616168D1*
X6568217Y-603955D1*
X6556144Y-597918D1*
X6531857D1*
X6631719D2*
Y-689028D1*
X6637756Y-707278D1*
X6649969Y-719351D1*
X6668219Y-725528D1*
X6680292D1*
X6698542Y-719351D1*
X6710756Y-707278D1*
X6716792Y-689028D1*
Y-597918D1*
X6798544D2*
Y-725528D1*
X6756008Y-597918D2*
X6841081D1*
X7015957Y-598059D2*
X7082639D1*
X7046280Y-646632D1*
X7064530D1*
X7076603Y-652668D1*
X7082639Y-658705D1*
X7088816Y-676955D1*
Y-689028D1*
X7082639Y-707278D1*
X7070566Y-719491D1*
X7052316Y-725528D1*
X7034066D1*
X7015957Y-719491D1*
X7009920Y-713315D1*
X7003743Y-701241D1*
X2087642Y5752793D2*
X2017450Y5752794D1*
X1713033Y5698114D2*
Y5807473D1*
X1767642Y5752864D2*
X1658283D1*
X2101142Y5528918D2*
X2113356Y5534955D1*
X2125429Y5547168D1*
X2131606Y5559241D1*
X2137642Y5577491D1*
Y5607955D1*
X2131606Y5626065D1*
X2125429Y5638278D1*
X2113356Y5650351D1*
X2101143Y5656528D1*
X2076856D1*
X2064783Y5650351D1*
X2052570Y5638278D1*
X2046533Y5626065D1*
X2040496Y5607955D1*
Y5577492D1*
X2046533Y5559242D1*
X2052569Y5547169D1*
X2064783Y5534955D1*
X2076856Y5528919D1*
X2101142Y5528918D1*
X2001281Y5528919D2*
Y5620028D1*
X1995244Y5638278D1*
X1983031Y5650351D1*
X1964781Y5656528D1*
X1952708D1*
X1934458Y5650351D1*
X1922244Y5638278D1*
X1916208Y5620028D1*
Y5528919D1*
X1834456D2*
Y5656528D1*
X1876992Y5528919D2*
X1791919D1*
X1629257Y5553345D2*
X1617043Y5547169D1*
X1598793Y5529059D1*
Y5656528D1*
X5367642Y5782793D2*
X5297450Y5782794D1*
X4993033Y5728114D2*
Y5837473D1*
X5047642Y5782864D2*
X4938283D1*
X5381142Y5558918D2*
X5393356Y5564955D1*
X5405429Y5577168D1*
X5411606Y5589241D1*
X5417642Y5607491D1*
Y5637955D1*
X5411606Y5656065D1*
X5405429Y5668278D1*
X5393356Y5680351D1*
X5381143Y5686528D1*
X5356856D1*
X5344783Y5680351D1*
X5332570Y5668278D1*
X5326533Y5656065D1*
X5320496Y5637955D1*
Y5607492D1*
X5326533Y5589242D1*
X5332569Y5577169D1*
X5344783Y5564955D1*
X5356856Y5558919D1*
X5381142Y5558918D1*
X5281281Y5558919D2*
Y5650028D1*
X5275244Y5668278D1*
X5263031Y5680351D1*
X5244781Y5686528D1*
X5232708D1*
X5214458Y5680351D1*
X5202244Y5668278D1*
X5196208Y5650028D1*
Y5558919D1*
X5114456D2*
Y5686528D1*
X5156992Y5558919D2*
X5071919D1*
X4903080Y5589382D2*
Y5583345D1*
X4897043Y5571132D1*
X4891007Y5565095D1*
X4878793Y5559059D1*
X4854507D1*
X4842434Y5565095D1*
X4836397Y5571132D1*
X4830220Y5583345D1*
Y5595418D1*
X4836397Y5607632D1*
X4848470Y5625742D1*
X4909257Y5686528D1*
X4824184D1*
X6568793Y2709358D2*
X6568794Y2779550D1*
X6514114Y3083967D2*
X6623473D1*
X6568864Y3029358D2*
Y3138717D1*
X6344918Y2675858D2*
X6350955Y2663644D1*
X6363168Y2651571D1*
X6375241Y2645394D1*
X6393491Y2639358D1*
X6423955D1*
X6442065Y2645394D1*
X6454278Y2651571D1*
X6466351Y2663644D1*
X6472528Y2675857D1*
Y2700144D1*
X6466351Y2712217D1*
X6454278Y2724430D1*
X6442065Y2730467D1*
X6423955Y2736504D1*
X6393492D1*
X6375242Y2730467D1*
X6363169Y2724431D1*
X6350955Y2712217D1*
X6344919Y2700144D1*
X6344918Y2675858D1*
X6344919Y2775719D2*
X6436028D1*
X6454278Y2781756D1*
X6466351Y2793969D1*
X6472528Y2812219D1*
Y2824292D1*
X6466351Y2842542D1*
X6454278Y2854756D1*
X6436028Y2860792D1*
X6344919D1*
Y2942544D2*
X6472528D1*
X6344919Y2900008D2*
Y2985081D1*
X6345059Y3220603D2*
Y3159957D1*
X6399668Y3153920D1*
X6393632Y3159957D1*
X6387455Y3178207D1*
Y3196316D1*
X6393632Y3214566D1*
X6405705Y3226780D1*
X6423955Y3232816D1*
X6436028D1*
X6454278Y3226780D1*
X6466492Y3214566D1*
X6472528Y3196316D1*
Y3178207D1*
X6466492Y3159957D1*
X6460315Y3153920D1*
X6448242Y3147743D1*
X6558793Y3629358D2*
X6558794Y3699550D1*
X6504114Y4003967D2*
X6613473D1*
X6558864Y3949358D2*
Y4058717D1*
X6334918Y3575858D2*
X6340955Y3563644D1*
X6353168Y3551571D1*
X6365241Y3545394D1*
X6383491Y3539358D1*
X6413955D1*
X6432065Y3545394D1*
X6444278Y3551571D1*
X6456351Y3563644D1*
X6462528Y3575857D1*
Y3600144D1*
X6456351Y3612217D1*
X6444278Y3624430D1*
X6432065Y3630467D1*
X6413955Y3636504D1*
X6383492D1*
X6365242Y3630467D1*
X6353169Y3624431D1*
X6340955Y3612217D1*
X6334919Y3600144D1*
X6334918Y3575858D1*
X6334919Y3675719D2*
X6426028D1*
X6444278Y3681756D1*
X6456351Y3693969D1*
X6462528Y3712219D1*
Y3724292D1*
X6456351Y3742542D1*
X6444278Y3754756D1*
X6426028Y3760792D1*
X6334919D1*
Y3842544D2*
X6462528D1*
X6334919Y3800008D2*
Y3885081D1*
X6353168Y4120603D2*
X6341095Y4114566D1*
X6335059Y4096316D1*
Y4084243D1*
X6341095Y4065993D1*
X6359345Y4053780D1*
X6389668Y4047743D1*
X6419992D1*
X6444278Y4053780D1*
X6456492Y4065993D1*
X6462528Y4084243D1*
Y4090280D1*
X6456492Y4108389D1*
X6444278Y4120603D1*
X6426028Y4126639D1*
X6419992D1*
X6401742Y4120603D1*
X6389668Y4108389D1*
X6383632Y4090280D1*
Y4084243D1*
X6389668Y4065993D1*
X6401742Y4053780D1*
X6419992Y4047743D1*
X6478492Y859717D2*
X6466419Y853681D1*
X6454205Y841467D1*
X6448169Y829394D1*
X6448168Y805108D1*
X6454205Y792894D1*
X6466418Y780821D1*
X6478491Y774644D1*
X6496741Y768608D1*
X6527205D1*
X6545315Y774644D1*
X6557528Y780821D1*
X6569601Y792894D1*
X6575778Y805107D1*
Y829394D1*
X6569601Y841467D1*
X6557528Y853680D1*
X6545315Y859717D1*
X6527205D1*
Y829394D1*
X6448169Y984006D2*
X6575778D1*
X6448169Y898933D1*
X6575778D1*
X6448169Y1023221D2*
X6575778D1*
Y1065758D1*
X6569601Y1084008D1*
X6557528Y1096221D1*
X6545315Y1102258D1*
X6527205Y1108294D1*
X6496742D1*
X6478492Y1102258D1*
X6466419Y1096221D1*
X6454205Y1084008D1*
X6448169Y1065758D1*
Y1023221D1*
X6444878Y1534554D2*
X6572488Y1583127D1*
X6444879Y1631700D1*
X6505665Y1743916D2*
X6493452Y1731702D1*
X6487415Y1719489D1*
Y1701379D1*
X6493452Y1689166D1*
X6505665Y1677093D1*
X6523915Y1670916D1*
X6535988D1*
X6554238Y1677093D1*
X6566311Y1689166D1*
X6572488Y1701379D1*
Y1719489D1*
X6566311Y1731702D1*
X6554238Y1743916D1*
X6505665Y1856131D2*
X6493452Y1843918D1*
X6487415Y1831705D1*
Y1813595D1*
X6493452Y1801382D1*
X6505665Y1789308D1*
X6523915Y1783131D1*
X6535988D1*
X6554238Y1789308D1*
X6566311Y1801381D1*
X6572488Y1813595D1*
Y1831705D1*
X6566311Y1843918D1*
X6554238Y1856131D1*
X6142418Y971608D2*
X6270028D1*
X6142419Y1095896D2*
X6270028D1*
X6142418Y1010823D1*
X6270028D1*
X6209242Y1135112D2*
Y1189862D1*
X6203205Y1207971D1*
X6197028Y1214148D1*
X6184955Y1220185D1*
X6166705D1*
X6154632Y1214148D1*
X6148455Y1207971D1*
X6142419Y1189862D1*
Y1135112D1*
X6270028D1*
X6142559Y1455707D2*
Y1395060D1*
X6197168Y1389024D1*
X6191132Y1395060D1*
X6184955Y1413310D1*
Y1431420D1*
X6191132Y1449670D1*
X6203205Y1461883D1*
X6221455Y1467920D1*
X6233528D1*
X6251778Y1461883D1*
X6263992Y1449670D1*
X6270028Y1431420D1*
Y1413310D1*
X6263992Y1395060D1*
X6257815Y1389024D1*
X6245742Y1382847D1*
X6151614Y1561745D2*
X6260973D1*
X6206364Y1507136D2*
Y1616495D1*
X6160668Y1728571D2*
X6148595Y1722534D1*
X6142559Y1704284D1*
Y1692211D1*
X6148595Y1673961D1*
X6166845Y1661748D1*
X6197168Y1655711D1*
X6227492D1*
X6251778Y1661748D1*
X6263992Y1673961D1*
X6270028Y1692211D1*
Y1698248D1*
X6263992Y1716357D1*
X6251778Y1728571D1*
X6233528Y1734607D1*
X6227492D1*
X6209242Y1728571D1*
X6197168Y1716357D1*
X6191132Y1698248D1*
Y1692211D1*
X6197168Y1673961D1*
X6209242Y1661748D1*
X6227492Y1655711D1*
X1051783Y5643992D2*
X1057819Y5631919D1*
X1070033Y5619705D1*
X1082106Y5613669D1*
X1106392Y5613668D1*
X1118606Y5619705D1*
X1130679Y5631918D1*
X1136856Y5643991D1*
X1142892Y5662241D1*
Y5692705D1*
X1136856Y5710815D1*
X1130679Y5723028D1*
X1118606Y5735101D1*
X1106393Y5741278D1*
X1082106D1*
X1070033Y5735101D1*
X1057820Y5723028D1*
X1051783Y5710815D1*
Y5692705D1*
X1082106D1*
X927494Y5613669D2*
Y5741278D1*
X1012567Y5613669D1*
Y5741278D1*
X888279Y5613669D2*
Y5741278D1*
X845742D1*
X827492Y5735101D1*
X815279Y5723028D1*
X809242Y5710815D1*
X803206Y5692705D1*
Y5662242D1*
X809242Y5643992D1*
X815279Y5631919D1*
X827492Y5619705D1*
X845742Y5613669D1*
X888279D1*
X376946Y5610378D2*
X328373Y5737988D1*
X279800Y5610379D1*
X167584Y5671165D2*
X179798Y5658952D1*
X192011Y5652915D1*
X210121D1*
X222334Y5658952D1*
X234407Y5671165D1*
X240584Y5689415D1*
Y5701488D1*
X234407Y5719738D1*
X222334Y5731811D1*
X210121Y5737988D1*
X192011D1*
X179798Y5731811D1*
X167584Y5719738D1*
X55369Y5671165D2*
X67582Y5658952D1*
X79795Y5652915D1*
X97905D1*
X110118Y5658952D1*
X122192Y5671165D1*
X128369Y5689415D1*
Y5701488D1*
X122192Y5719738D1*
X110119Y5731811D1*
X97905Y5737988D1*
X79795D1*
X67582Y5731811D1*
X55369Y5719738D1*
X1179892Y5307918D2*
Y5435528D1*
X1055604Y5307919D2*
Y5435528D1*
X1140677Y5307918D1*
Y5435528D1*
X1016388Y5374742D2*
X961638D1*
X943529Y5368705D1*
X937352Y5362528D1*
X931315Y5350455D1*
Y5332205D1*
X937352Y5320132D1*
X943529Y5313955D1*
X961638Y5307919D1*
X1016388D1*
Y5435528D1*
X892099Y5307919D2*
X892100Y5399028D1*
X886063Y5417278D1*
X873850Y5429351D1*
X855600Y5435528D1*
X843526D1*
X825276Y5429351D1*
X813063Y5417278D1*
X807026Y5399028D1*
Y5307919D1*
X725274D2*
Y5435528D1*
X767811Y5307919D2*
X682738D1*
X520076Y5332345D2*
X507862Y5326168D1*
X489612Y5308059D1*
Y5435528D1*
X272340Y5317114D2*
Y5426473D1*
X326950Y5371864D2*
X217590D1*
X48751Y5338382D2*
Y5332345D1*
X42715Y5320132D1*
X36678Y5314095D1*
X24465Y5308059D1*
X178D1*
X-11895Y5314095D1*
X-17931Y5320132D1*
X-24108Y5332345D1*
Y5344418D1*
X-17931Y5356632D1*
X-5858Y5374742D1*
X54928Y5435528D1*
X-30145D1*
M02*
