%TF.GenerationSoftware,Novarm,DipTrace,3.3.1.3*%
%TF.CreationDate,2020-06-26T14:00:03+00:00*%
%FSLAX35Y35*%
%MOMM*%
%TF.FileFunction,Soldermask,Top*%
%TF.Part,Single*%
%ADD41O,1.2X2.5*%
%ADD44C,4.0*%
%ADD52R,0.8X2.2*%
%ADD54R,1.9X2.2*%
%ADD56O,1.9X2.2*%
%ADD58R,2.7X2.7*%
%ADD60C,2.7*%
%ADD62C,2.2*%
%ADD64R,1.3X1.2*%
%ADD66R,1.2X1.3*%
G75*
G01*
%LPD*%
D66*
X3364410Y3919880D3*
Y4089880D3*
X4178150Y1071067D3*
Y1241067D3*
D64*
X3577500Y1556000D3*
X3407500D3*
D66*
X4168793Y797090D3*
Y627090D3*
X3175000Y1534000D3*
Y1704000D3*
X3809750Y1525330D3*
Y1695330D3*
X2344807Y1741213D3*
Y1911213D3*
D64*
X1736250Y2190750D3*
X1566250D3*
D66*
X2312870Y1351747D3*
Y1181747D3*
X1375617Y2097303D3*
Y2267303D3*
X1966023Y2103480D3*
Y2273480D3*
D62*
X100387Y508140D3*
X103067Y976370D3*
D60*
X3604873Y6147040D3*
X3954873D3*
X4304873D3*
X4654873D3*
D58*
X5004873D3*
D60*
X4127500Y-1250550D3*
X3777500D3*
D58*
X3427500D3*
D60*
X2540000D3*
X2190000D3*
D58*
X1840000D3*
D60*
X952500D3*
X602500D3*
D58*
X252500D3*
D62*
X99917Y1452907D3*
D56*
X508000Y4953000D3*
X762000D3*
X1016000D3*
X1270000D3*
X1524000D3*
X1778000D3*
X2032000D3*
X2286000D3*
X2540000D3*
X2794000D3*
X3048000D3*
X3302000D3*
X3556000D3*
X3810000D3*
X4064000D3*
X4318000D3*
X4572000D3*
X4826000D3*
X5080000D3*
X5334000D3*
X5588000D3*
X5842000D3*
X6096000D3*
Y4699000D3*
X5842000D3*
X5588000D3*
X5334000D3*
X5080000D3*
X4826000D3*
X4572000D3*
X4318000D3*
X4064000D3*
X3810000D3*
X3556000D3*
X3302000D3*
X3048000D3*
X2794000D3*
X2540000D3*
X2286000D3*
X2032000D3*
X1778000D3*
X1524000D3*
X1270000D3*
X1016000D3*
X762000D3*
D54*
X508000D3*
D56*
Y127000D3*
X762000D3*
X1016000D3*
X1270000D3*
X1524000D3*
X1778000D3*
X2032000D3*
X2286000D3*
X2540000D3*
X2794000D3*
X3048000D3*
X3302000D3*
X3556000D3*
X3810000D3*
X4064000D3*
X4318000D3*
X4572000D3*
X4826000D3*
X5080000D3*
X5334000D3*
X5588000D3*
X5842000D3*
X6096000D3*
Y-127000D3*
X5842000D3*
X5588000D3*
X5334000D3*
X5080000D3*
X4826000D3*
X4572000D3*
X4318000D3*
X4064000D3*
X3810000D3*
X3556000D3*
X3302000D3*
X3048000D3*
X2794000D3*
X2540000D3*
X2286000D3*
X2032000D3*
X1778000D3*
X1524000D3*
X1270000D3*
X1016000D3*
X762000D3*
D54*
X508000D3*
D62*
X7001853Y4949717D3*
D60*
X1427523Y6158520D3*
X1777523D3*
D58*
X2127523D3*
D66*
X4127390Y-634723D3*
Y-804723D3*
X2574283Y-614667D3*
Y-784667D3*
X3758610Y-634723D3*
Y-804723D3*
X2219340Y-623443D3*
Y-793443D3*
X1013013Y-637423D3*
Y-807423D3*
X660003Y-650800D3*
Y-820800D3*
X3937473Y4382437D3*
Y4212437D3*
X3670763Y4384007D3*
Y4214007D3*
X4441443Y4386710D3*
Y4216710D3*
X4187427Y4382667D3*
Y4212667D3*
X3373580Y-645343D3*
Y-815343D3*
X263000Y-632777D3*
Y-802777D3*
X1843000Y-630833D3*
Y-800833D3*
D64*
X5149080Y5536727D3*
X4979080D3*
D66*
X1400493Y5424187D3*
Y5594187D3*
X1786450Y5424187D3*
Y5594187D3*
X2194930Y5424187D3*
Y5594187D3*
D64*
X4282993Y5357700D3*
X4452993D3*
X3801580Y3136260D3*
X3631580D3*
D66*
X4470947Y3410180D3*
Y3240180D3*
D64*
X4961377Y5290813D3*
X5131377D3*
X3713803Y5347167D3*
X3883803D3*
D52*
X3937000Y1206500D3*
X3810000D3*
X3683000D3*
X3556000D3*
X3429000D3*
X3302000D3*
X3175000D3*
X3048000D3*
Y666500D3*
X3175000D3*
X3302000D3*
X3429000D3*
X3556000D3*
X3683000D3*
X3810000D3*
X3937000D3*
X2095500Y1841500D3*
X1968500D3*
X1841500D3*
X1714500D3*
X1587500D3*
X1460500D3*
X1333500D3*
X1206500D3*
Y1301500D3*
X1333500D3*
X1460500D3*
X1587500D3*
X1714500D3*
X1841500D3*
X1968500D3*
X2095500D3*
D41*
X4876683Y3710980D3*
X4676683D3*
X5076683D3*
X4875113Y4108173D3*
X4675113D3*
X5075113D3*
D52*
X3540617Y3374717D3*
X3667617D3*
X3794617D3*
X3921617D3*
X4048617D3*
X4175617D3*
X4302617D3*
Y3914717D3*
X4175617D3*
X4048617D3*
X3921617D3*
X3794617D3*
X3667617D3*
X3540617D3*
D44*
X0Y4826000D3*
X6604000Y4508500D3*
Y317500D3*
X0Y0D3*
M02*
