%TF.GenerationSoftware,Novarm,DipTrace,3.3.1.3*%
%TF.CreationDate,2020-06-26T14:00:05+00:00*%
%FSLAX35Y35*%
%MOMM*%
%TF.FileFunction,Soldermask,Bot*%
%TF.Part,Single*%
%ADD44C,4.0*%
%ADD54R,1.9X2.2*%
%ADD56O,1.9X2.2*%
%ADD58R,2.7X2.7*%
%ADD60C,2.7*%
%ADD62C,2.2*%
G75*
G01*
%LPD*%
D62*
X100387Y508140D3*
X103067Y976370D3*
D60*
X3604873Y6147040D3*
X3954873D3*
X4304873D3*
X4654873D3*
D58*
X5004873D3*
D60*
X4127500Y-1250550D3*
X3777500D3*
D58*
X3427500D3*
D60*
X2540000D3*
X2190000D3*
D58*
X1840000D3*
D60*
X952500D3*
X602500D3*
D58*
X252500D3*
D62*
X99917Y1452907D3*
D56*
X508000Y4953000D3*
X762000D3*
X1016000D3*
X1270000D3*
X1524000D3*
X1778000D3*
X2032000D3*
X2286000D3*
X2540000D3*
X2794000D3*
X3048000D3*
X3302000D3*
X3556000D3*
X3810000D3*
X4064000D3*
X4318000D3*
X4572000D3*
X4826000D3*
X5080000D3*
X5334000D3*
X5588000D3*
X5842000D3*
X6096000D3*
Y4699000D3*
X5842000D3*
X5588000D3*
X5334000D3*
X5080000D3*
X4826000D3*
X4572000D3*
X4318000D3*
X4064000D3*
X3810000D3*
X3556000D3*
X3302000D3*
X3048000D3*
X2794000D3*
X2540000D3*
X2286000D3*
X2032000D3*
X1778000D3*
X1524000D3*
X1270000D3*
X1016000D3*
X762000D3*
D54*
X508000D3*
D56*
Y127000D3*
X762000D3*
X1016000D3*
X1270000D3*
X1524000D3*
X1778000D3*
X2032000D3*
X2286000D3*
X2540000D3*
X2794000D3*
X3048000D3*
X3302000D3*
X3556000D3*
X3810000D3*
X4064000D3*
X4318000D3*
X4572000D3*
X4826000D3*
X5080000D3*
X5334000D3*
X5588000D3*
X5842000D3*
X6096000D3*
Y-127000D3*
X5842000D3*
X5588000D3*
X5334000D3*
X5080000D3*
X4826000D3*
X4572000D3*
X4318000D3*
X4064000D3*
X3810000D3*
X3556000D3*
X3302000D3*
X3048000D3*
X2794000D3*
X2540000D3*
X2286000D3*
X2032000D3*
X1778000D3*
X1524000D3*
X1270000D3*
X1016000D3*
X762000D3*
D54*
X508000D3*
D62*
X7001853Y4949717D3*
D60*
X1427523Y6158520D3*
X1777523D3*
D58*
X2127523D3*
D44*
X0Y4826000D3*
X6604000Y4508500D3*
Y317500D3*
X0Y0D3*
M02*
