%TF.GenerationSoftware,Novarm,DipTrace,3.3.1.3*%
%TF.CreationDate,2020-06-26T14:00:07+00:00*%
%FSLAX35Y35*%
%MOMM*%
%TF.FileFunction,Plated,1,2,PTH,Drill*%
%TF.Part,Single*%
%TA.AperFunction,ViaDrill*%
%ADD15C,1.016*%
%TA.AperFunction,ComponentDrill*%
%ADD45C,0.9*%
%ADD46C,1.4*%
G75*
G01*
D45*
X100387Y508140D3*
X103067Y976370D3*
D46*
X3604873Y6147040D3*
X3954873D3*
X4304873D3*
X4654873D3*
X5004873D3*
X4127500Y-1250550D3*
X3777500D3*
X3427500D3*
X2540000D3*
X2190000D3*
X1840000D3*
X952500D3*
X602500D3*
X252500D3*
D45*
X99917Y1452907D3*
X508000Y4953000D3*
X762000D3*
X1016000D3*
X1270000D3*
X1524000D3*
X1778000D3*
X2032000D3*
X2286000D3*
X2540000D3*
X2794000D3*
X3048000D3*
X3302000D3*
X3556000D3*
X3810000D3*
X4064000D3*
X4318000D3*
X4572000D3*
X4826000D3*
X5080000D3*
X5334000D3*
X5588000D3*
X5842000D3*
X6096000D3*
Y4699000D3*
X5842000D3*
X5588000D3*
X5334000D3*
X5080000D3*
X4826000D3*
X4572000D3*
X4318000D3*
X4064000D3*
X3810000D3*
X3556000D3*
X3302000D3*
X3048000D3*
X2794000D3*
X2540000D3*
X2286000D3*
X2032000D3*
X1778000D3*
X1524000D3*
X1270000D3*
X1016000D3*
X762000D3*
X508000D3*
Y127000D3*
X762000D3*
X1016000D3*
X1270000D3*
X1524000D3*
X1778000D3*
X2032000D3*
X2286000D3*
X2540000D3*
X2794000D3*
X3048000D3*
X3302000D3*
X3556000D3*
X3810000D3*
X4064000D3*
X4318000D3*
X4572000D3*
X4826000D3*
X5080000D3*
X5334000D3*
X5588000D3*
X5842000D3*
X6096000D3*
Y-127000D3*
X5842000D3*
X5588000D3*
X5334000D3*
X5080000D3*
X4826000D3*
X4572000D3*
X4318000D3*
X4064000D3*
X3810000D3*
X3556000D3*
X3302000D3*
X3048000D3*
X2794000D3*
X2540000D3*
X2286000D3*
X2032000D3*
X1778000D3*
X1524000D3*
X1270000D3*
X1016000D3*
X762000D3*
X508000D3*
X7001853Y4949717D3*
D46*
X1427523Y6158520D3*
X1777523D3*
X2127523D3*
D15*
X3368163Y4243843D3*
X3174883Y1877550D3*
X1971903Y2472767D3*
X1455143Y2455243D3*
X1971100Y1495647D3*
X2303423Y1532170D3*
X3366270Y-473287D3*
X1851253Y-459060D3*
X3862393Y896823D3*
X3812733Y1888843D3*
X4437143Y4004070D3*
X4204960Y3550837D3*
X4791637Y5300840D3*
X2189160Y5262017D3*
X4474470Y3532617D3*
X4348607Y881240D3*
X258557Y-441887D3*
X4082407Y337660D3*
X2233407D3*
X2540893D3*
X1268617Y804040D3*
X1716360D3*
X1971300Y693683D3*
X1397817Y549543D3*
X1234933Y2751033D3*
X1247850Y3591900D3*
X1091983Y3193263D3*
Y2568167D3*
X1152723Y996987D3*
X2807320D3*
X5208497Y3088427D3*
Y4114743D3*
X1333500Y1153130D3*
X2666147D3*
X4888783Y2974960D3*
Y3461383D3*
M02*
