G04 DipTrace 3.3.1.1*
G04 Adapterboard.gto*
%MOIN*%
G04 #@! TF.FileFunction,Legend,Top*
G04 #@! TF.Part,Single*
%ADD10C,0.009843*%
%ADD21C,0.01*%
%ADD22C,0.008*%
%ADD27C,0.015431*%
%ADD33C,0.016095*%
%ADD64C,0.00772*%
%ADD65C,0.009264*%
%ADD66C,0.012351*%
%FSLAX26Y26*%
G04*
G70*
G90*
G75*
G01*
G04 TopSilk*
%LPD*%
X787378Y512402D2*
D22*
X1387357D1*
X787378Y591D2*
Y512402D1*
Y591D2*
X1387357D1*
Y512402D2*
Y591D1*
X-51575Y1828543D2*
D10*
X385419D1*
Y2159252D1*
X-51575D1*
Y1828543D1*
Y1178543D2*
X385419D1*
Y1647047D1*
X-51575D1*
Y1178543D1*
X2207635Y2102499D2*
X1770642D1*
Y1633995D1*
X2207635D1*
Y2102499D1*
X2201575Y746457D2*
X1764581D1*
Y415748D1*
X2201575D1*
Y746457D1*
D27*
X942694Y911671D3*
X853445Y910631D2*
D10*
Y1170461D1*
X743209Y910631D2*
Y1170461D1*
X853445D2*
X743209D1*
X853445Y910631D2*
X743209D1*
X-51575Y403543D2*
X385419D1*
Y1009843D1*
X-51575D1*
Y403543D1*
X1153543Y2651575D2*
X1759843D1*
Y2214581D1*
X1153543D1*
Y2651575D1*
X378543D2*
X984843D1*
Y2214581D1*
X378543D1*
Y2651575D1*
X858373Y1268009D2*
Y1309393D1*
X731668Y1336717D2*
Y1238281D1*
X879292Y1288379D2*
X837935D1*
X815420Y1229474D2*
X626033D1*
Y1346743D1*
X815420D1*
Y1229474D1*
G36*
X812685Y1230577D2*
X730629D1*
Y1345090D1*
X812685D1*
Y1230577D1*
G37*
X2207635Y1440068D2*
D10*
X1770642D1*
Y971564D1*
X2207635D1*
Y1440068D1*
X1452514Y531157D2*
X1522436D1*
Y668798D1*
X1452514D1*
Y531157D1*
X1202535Y1116623D2*
X974880D1*
Y1232671D1*
X1202535D1*
Y1116623D1*
D33*
X1168330Y1100163D3*
G36*
X837500Y800000D2*
X875000D1*
Y700000D1*
X837500D1*
Y800000D1*
G37*
G36*
X900000D2*
X937500D1*
Y700000D1*
X900000D1*
Y800000D1*
G37*
G36*
X962500D2*
X1000000D1*
Y700000D1*
X962500D1*
Y800000D1*
G37*
X1087500Y825000D2*
D21*
Y1112500D1*
G36*
X862500Y800000D2*
X912500D1*
Y700000D1*
X862500D1*
Y800000D1*
G37*
X812500Y825000D2*
D21*
X1350000D1*
Y550000D1*
X812500D1*
Y825000D1*
G36*
X837500Y675000D2*
X875000D1*
Y575000D1*
X837500D1*
Y675000D1*
G37*
G36*
X900000D2*
X937500D1*
Y575000D1*
X900000D1*
Y675000D1*
G37*
G36*
X962500D2*
X1000000D1*
Y575000D1*
X962500D1*
Y675000D1*
G37*
G36*
X925000D2*
X987500D1*
Y575000D1*
X925000D1*
Y675000D1*
G37*
X1434849Y84586D2*
D64*
X1430096Y82209D1*
X1425287Y77401D1*
X1422911Y72648D1*
Y63086D1*
X1425287Y58278D1*
X1430096Y53525D1*
X1434849Y51093D1*
X1442034Y48716D1*
X1454028D1*
X1461157Y51093D1*
X1465966Y53525D1*
X1470719Y58278D1*
X1473151Y63086D1*
Y72648D1*
X1470719Y77401D1*
X1465966Y82209D1*
X1461157Y84586D1*
X1454028D1*
Y72648D1*
X1422911Y133519D2*
X1473151D1*
X1422911Y100025D1*
X1473151D1*
X1430096Y182451D2*
X1425287Y177698D1*
X1422911Y170513D1*
Y160951D1*
X1425287Y153766D1*
X1430096Y148958D1*
X1434849D1*
X1439658Y151390D1*
X1442034Y153766D1*
X1444411Y158519D1*
X1449219Y172890D1*
X1451596Y177698D1*
X1454028Y180075D1*
X1458781Y182451D1*
X1465966D1*
X1470719Y177698D1*
X1473151Y170513D1*
Y160951D1*
X1470719Y153766D1*
X1465966Y148958D1*
X1430096Y231384D2*
X1425287Y226631D1*
X1422911Y219446D1*
Y209884D1*
X1425287Y202699D1*
X1430096Y197890D1*
X1434849D1*
X1439657Y200322D1*
X1442034Y202699D1*
X1444411Y207452D1*
X1449219Y221822D1*
X1451596Y226631D1*
X1454028Y229007D1*
X1458781Y231384D1*
X1465966D1*
X1470719Y226631D1*
X1473151Y219445D1*
Y209884D1*
X1470719Y202699D1*
X1465966Y197890D1*
X78799Y1779780D2*
X76422Y1784533D1*
X71614Y1789341D1*
X66861Y1791718D1*
X57299D1*
X52491Y1789341D1*
X47737Y1784533D1*
X45306Y1779780D1*
X42929Y1772595D1*
Y1760601D1*
X45306Y1753471D1*
X47737Y1748663D1*
X52491Y1743910D1*
X57299Y1741478D1*
X66861D1*
X71614Y1743910D1*
X76422Y1748663D1*
X78799Y1753471D1*
Y1760601D1*
X66861D1*
X127732Y1791718D2*
Y1741478D1*
X94238Y1791718D1*
Y1741478D1*
X176664Y1784533D2*
X171911Y1789341D1*
X164726Y1791718D1*
X155164D1*
X147979Y1789341D1*
X143171Y1784533D1*
Y1779780D1*
X145603Y1774971D1*
X147979Y1772595D1*
X152732Y1770218D1*
X167102Y1765410D1*
X171911Y1763033D1*
X174288Y1760601D1*
X176664Y1755848D1*
Y1748663D1*
X171911Y1743910D1*
X164726Y1741478D1*
X155164D1*
X147979Y1743910D1*
X143171Y1748663D1*
X225597Y1784533D2*
X220843Y1789341D1*
X213658Y1791718D1*
X204097D1*
X196912Y1789341D1*
X192103Y1784533D1*
Y1779780D1*
X194535Y1774971D1*
X196912Y1772595D1*
X201665Y1770218D1*
X216035Y1765410D1*
X220843Y1763033D1*
X223220Y1760601D1*
X225597Y1755848D1*
Y1748663D1*
X220843Y1743910D1*
X213658Y1741478D1*
X204097D1*
X196912Y1743910D1*
X192103Y1748663D1*
X241036Y1733187D2*
X286467D1*
X301907Y1765410D2*
X323462D1*
X330592Y1767786D1*
X333023Y1770218D1*
X335400Y1774971D1*
Y1782156D1*
X333023Y1786909D1*
X330592Y1789341D1*
X323462Y1791718D1*
X301907D1*
Y1741478D1*
X350839Y1791718D2*
X362833Y1741478D1*
X374771Y1791718D1*
X386709Y1741478D1*
X398703Y1791718D1*
X414142Y1767786D2*
X435642D1*
X442827Y1770218D1*
X445259Y1772595D1*
X447635Y1777348D1*
Y1782156D1*
X445259Y1786909D1*
X442827Y1789341D1*
X435642Y1791718D1*
X414142D1*
Y1741478D1*
X430889Y1767786D2*
X447635Y1741478D1*
X78200Y1136177D2*
X75823Y1140930D1*
X71015Y1145739D1*
X66261Y1148115D1*
X56700D1*
X51891Y1145739D1*
X47138Y1140930D1*
X44706Y1136177D1*
X42330Y1128992D1*
Y1116999D1*
X44706Y1109869D1*
X47138Y1105060D1*
X51891Y1100307D1*
X56700Y1097875D1*
X66261D1*
X71015Y1100307D1*
X75823Y1105060D1*
X78200Y1109869D1*
Y1116999D1*
X66261D1*
X127132Y1148115D2*
Y1097875D1*
X93639Y1148115D1*
Y1097875D1*
X176065Y1140930D2*
X171312Y1145739D1*
X164127Y1148115D1*
X154565D1*
X147380Y1145739D1*
X142571Y1140930D1*
Y1136177D1*
X145003Y1131369D1*
X147380Y1128992D1*
X152133Y1126616D1*
X166503Y1121807D1*
X171312Y1119431D1*
X173688Y1116999D1*
X176065Y1112246D1*
Y1105060D1*
X171312Y1100307D1*
X164127Y1097875D1*
X154565D1*
X147380Y1100307D1*
X142571Y1105060D1*
X224997Y1140930D2*
X220244Y1145739D1*
X213059Y1148115D1*
X203498D1*
X196312Y1145739D1*
X191504Y1140930D1*
Y1136177D1*
X193936Y1131369D1*
X196312Y1128992D1*
X201066Y1126616D1*
X215436Y1121807D1*
X220244Y1119431D1*
X222621Y1116999D1*
X224997Y1112246D1*
Y1105060D1*
X220244Y1100307D1*
X213059Y1097875D1*
X203498D1*
X196312Y1100307D1*
X191504Y1105060D1*
X240437Y1089585D2*
X285868D1*
X337177Y1136177D2*
X334801Y1140930D1*
X329992Y1145739D1*
X325239Y1148115D1*
X315677D1*
X310869Y1145739D1*
X306116Y1140930D1*
X303684Y1136177D1*
X301307Y1128992D1*
Y1116999D1*
X303684Y1109869D1*
X306116Y1105060D1*
X310869Y1100307D1*
X315677Y1097875D1*
X325239D1*
X329992Y1100307D1*
X334801Y1105060D1*
X337177Y1109869D1*
X366987Y1148115D2*
X362178Y1145739D1*
X357425Y1140930D1*
X354993Y1136177D1*
X352617Y1128992D1*
Y1116999D1*
X354993Y1109869D1*
X357425Y1105060D1*
X362178Y1100307D1*
X366987Y1097875D1*
X376548D1*
X381301Y1100307D1*
X386110Y1105060D1*
X388487Y1109869D1*
X390863Y1116999D1*
Y1128992D1*
X388487Y1136177D1*
X386110Y1140930D1*
X381301Y1145739D1*
X376548Y1148115D1*
X366987D1*
X444549Y1097875D2*
Y1148115D1*
X425426Y1097875D1*
X406302Y1148115D1*
Y1097875D1*
X498235D2*
Y1148115D1*
X479111Y1097875D1*
X459988Y1148115D1*
Y1097875D1*
X1711503Y1567135D2*
X1733002D1*
X1740188Y1569567D1*
X1742619Y1571944D1*
X1744996Y1576697D1*
Y1581505D1*
X1742619Y1586258D1*
X1740188Y1588690D1*
X1733002Y1591067D1*
X1711503D1*
Y1540827D1*
X1728249Y1567135D2*
X1744996Y1540827D1*
X1798737D2*
X1779558Y1591067D1*
X1760435Y1540827D1*
X1767620Y1557574D2*
X1791552D1*
X1814176Y1591067D2*
Y1540827D1*
X1830923D1*
X1838108Y1543259D1*
X1842916Y1548012D1*
X1845293Y1552820D1*
X1847670Y1559950D1*
Y1571944D1*
X1845293Y1579129D1*
X1842916Y1583882D1*
X1838108Y1588690D1*
X1830923Y1591067D1*
X1814176D1*
X1863109Y1532536D2*
X1908540D1*
X1959850Y1579129D2*
X1957473Y1583882D1*
X1952665Y1588690D1*
X1947911Y1591067D1*
X1938350D1*
X1933541Y1588690D1*
X1928788Y1583882D1*
X1926356Y1579129D1*
X1923980Y1571944D1*
Y1559950D1*
X1926356Y1552820D1*
X1928788Y1548012D1*
X1933541Y1543259D1*
X1938350Y1540827D1*
X1947911D1*
X1952665Y1543259D1*
X1957473Y1548012D1*
X1959850Y1552820D1*
X1989659Y1591067D2*
X1984850Y1588690D1*
X1980097Y1583882D1*
X1977665Y1579129D1*
X1975289Y1571944D1*
Y1559950D1*
X1977665Y1552820D1*
X1980097Y1548012D1*
X1984850Y1543259D1*
X1989659Y1540827D1*
X1999220D1*
X2003974Y1543259D1*
X2008782Y1548012D1*
X2011159Y1552820D1*
X2013535Y1559950D1*
Y1571944D1*
X2011159Y1579129D1*
X2008782Y1583882D1*
X2003974Y1588690D1*
X1999220Y1591067D1*
X1989659D1*
X2067221Y1540827D2*
Y1591067D1*
X2048098Y1540827D1*
X2028975Y1591067D1*
Y1540827D1*
X2120907D2*
Y1591067D1*
X2101784Y1540827D1*
X2082660Y1591067D1*
Y1540827D1*
X1715630Y378923D2*
Y328683D1*
X1698883Y378923D2*
X1732377D1*
X1747816Y354991D2*
X1769316D1*
X1776501Y357423D1*
X1778933Y359799D1*
X1781309Y364552D1*
Y369361D1*
X1778933Y374114D1*
X1776501Y376546D1*
X1769316Y378923D1*
X1747816D1*
Y328683D1*
X1764563Y354991D2*
X1781309Y328683D1*
X1796748Y378923D2*
Y328683D1*
X1826558Y378923D2*
X1821749Y376546D1*
X1816996Y371738D1*
X1814564Y366984D1*
X1812188Y359799D1*
Y347806D1*
X1814564Y340676D1*
X1816996Y335868D1*
X1821749Y331114D1*
X1826558Y328683D1*
X1836119D1*
X1840873Y331114D1*
X1845681Y335868D1*
X1848058Y340676D1*
X1850434Y347806D1*
Y359799D1*
X1848058Y366984D1*
X1845681Y371738D1*
X1840873Y376546D1*
X1836119Y378923D1*
X1826558D1*
X1899367Y371738D2*
X1894614Y376546D1*
X1887429Y378923D1*
X1877867D1*
X1870682Y376546D1*
X1865873Y371738D1*
Y366984D1*
X1868305Y362176D1*
X1870682Y359799D1*
X1875435Y357423D1*
X1889805Y352614D1*
X1894614Y350238D1*
X1896990Y347806D1*
X1899367Y343053D1*
Y335868D1*
X1894614Y331114D1*
X1887429Y328683D1*
X1877867D1*
X1870682Y331114D1*
X1865873Y335868D1*
X1914806Y320392D2*
X1960238D1*
X1975677Y352614D2*
X1997232D1*
X2004362Y354991D1*
X2006794Y357423D1*
X2009170Y362176D1*
Y369361D1*
X2006794Y374114D1*
X2004362Y376546D1*
X1997232Y378923D1*
X1975677D1*
Y328683D1*
X2024609Y378923D2*
X2036603Y328683D1*
X2048541Y378923D1*
X2060479Y328683D1*
X2072473Y378923D1*
X2087912Y354991D2*
X2109412D1*
X2116597Y357423D1*
X2119029Y359799D1*
X2121405Y364552D1*
Y369361D1*
X2119029Y374114D1*
X2116597Y376546D1*
X2109412Y378923D1*
X2087912D1*
Y328683D1*
X2104659Y354991D2*
X2121405Y328683D1*
X780364Y893684D2*
Y857814D1*
X782740Y850629D1*
X787549Y845876D1*
X794734Y843444D1*
X799487D1*
X806672Y845876D1*
X811480Y850629D1*
X813857Y857814D1*
Y893684D1*
X829296Y884067D2*
X834105Y886499D1*
X841290Y893629D1*
Y843444D1*
X85863Y355075D2*
X83486Y359828D1*
X78678Y364637D1*
X73925Y367013D1*
X64363D1*
X59555Y364637D1*
X54802Y359828D1*
X52370Y355075D1*
X49993Y347890D1*
Y335896D1*
X52370Y328767D1*
X54802Y323958D1*
X59555Y319205D1*
X64363Y316773D1*
X73925D1*
X78678Y319205D1*
X83486Y323958D1*
X85863Y328767D1*
Y335896D1*
X73925D1*
X134796Y367013D2*
Y316773D1*
X101302Y367013D1*
Y316773D1*
X183728Y359828D2*
X178975Y364637D1*
X171790Y367013D1*
X162228D1*
X155043Y364637D1*
X150235Y359828D1*
Y355075D1*
X152667Y350266D1*
X155043Y347890D1*
X159797Y345513D1*
X174167Y340705D1*
X178975Y338328D1*
X181352Y335896D1*
X183728Y331143D1*
Y323958D1*
X178975Y319205D1*
X171790Y316773D1*
X162228D1*
X155043Y319205D1*
X150235Y323958D1*
X232661Y359828D2*
X227908Y364637D1*
X220723Y367013D1*
X211161D1*
X203976Y364637D1*
X199167Y359828D1*
Y355075D1*
X201599Y350266D1*
X203976Y347890D1*
X208729Y345513D1*
X223099Y340705D1*
X227908Y338328D1*
X230284Y335896D1*
X232661Y331143D1*
Y323958D1*
X227908Y319205D1*
X220723Y316773D1*
X211161D1*
X203976Y319205D1*
X199167Y323958D1*
X248100Y308483D2*
X293532D1*
X340032Y367013D2*
X308971D1*
Y316773D1*
X340032D1*
X308971Y343081D2*
X328094D1*
X355472Y367013D2*
X388965Y316773D1*
Y367013D2*
X355472Y316773D1*
X421151Y367013D2*
Y316773D1*
X404404Y367013D2*
X437898D1*
X453337Y343081D2*
X474837D1*
X482022Y345513D1*
X484454Y347890D1*
X486830Y352643D1*
Y357451D1*
X484454Y362205D1*
X482022Y364637D1*
X474837Y367013D1*
X453337D1*
Y316773D1*
X470083Y343081D2*
X486830Y316773D1*
X540571D2*
X521393Y367013D1*
X502269Y316773D1*
X509454Y333520D2*
X533386D1*
X1813609Y2130610D2*
Y2152110D1*
X1811177Y2159295D1*
X1808801Y2161727D1*
X1804047Y2164104D1*
X1799239D1*
X1794486Y2161727D1*
X1792054Y2159295D1*
X1789677Y2152110D1*
Y2130610D1*
X1839917D1*
X1813609Y2147357D2*
X1839917Y2164103D1*
Y2217844D2*
X1789677Y2198666D1*
X1839917Y2179543D1*
X1823171Y2186728D2*
Y2210659D1*
X1789677Y2233284D2*
X1839917D1*
Y2250030D1*
X1837485Y2257215D1*
X1832732Y2262024D1*
X1827924Y2264400D1*
X1820794Y2266777D1*
X1808800D1*
X1801615Y2264400D1*
X1796862Y2262024D1*
X1792054Y2257215D1*
X1789677Y2250030D1*
Y2233284D1*
X1848208Y2282216D2*
Y2327648D1*
X1796862Y2376580D2*
X1792054Y2371827D1*
X1789677Y2364642D1*
Y2355081D1*
X1792054Y2347896D1*
X1796862Y2343087D1*
X1801615D1*
X1806424Y2345519D1*
X1808800Y2347896D1*
X1811177Y2352649D1*
X1815986Y2367019D1*
X1818362Y2371827D1*
X1820794Y2374204D1*
X1825547Y2376580D1*
X1832732D1*
X1837485Y2371827D1*
X1839917Y2364642D1*
Y2355081D1*
X1837485Y2347896D1*
X1832732Y2343087D1*
X1789677Y2423081D2*
Y2392020D1*
X1839917D1*
Y2423081D1*
X1813609Y2392020D2*
Y2411143D1*
X1789677Y2472014D2*
X1839917D1*
X1789677Y2438520D1*
X1839917D1*
X1796862Y2520946D2*
X1792054Y2516193D1*
X1789677Y2509008D1*
Y2499446D1*
X1792054Y2492261D1*
X1796862Y2487453D1*
X1801615D1*
X1806424Y2489885D1*
X1808800Y2492261D1*
X1811177Y2497015D1*
X1815985Y2511385D1*
X1818362Y2516193D1*
X1820794Y2518570D1*
X1825547Y2520946D1*
X1832732D1*
X1837485Y2516193D1*
X1839917Y2509008D1*
Y2499446D1*
X1837485Y2492261D1*
X1832732Y2487453D1*
X1014677Y2162261D2*
X1064917D1*
X1038609Y2177700D2*
Y2199200D1*
X1036177Y2206385D1*
X1033801Y2208817D1*
X1029047Y2211194D1*
X1024239D1*
X1019486Y2208817D1*
X1017054Y2206385D1*
X1014677Y2199200D1*
Y2177700D1*
X1064917D1*
X1038609Y2194447D2*
X1064917Y2211194D1*
X1038609Y2226633D2*
Y2248133D1*
X1036177Y2255318D1*
X1033800Y2257750D1*
X1029047Y2260126D1*
X1024239D1*
X1019486Y2257750D1*
X1017054Y2255318D1*
X1014677Y2248133D1*
Y2226633D1*
X1064917D1*
X1038609Y2243380D2*
X1064917Y2260126D1*
X1073208Y2275565D2*
Y2320997D1*
X1021862Y2369930D2*
X1017054Y2365176D1*
X1014677Y2357991D1*
Y2348430D1*
X1017054Y2341245D1*
X1021862Y2336436D1*
X1026615D1*
X1031424Y2338868D1*
X1033800Y2341245D1*
X1036177Y2345998D1*
X1040986Y2360368D1*
X1043362Y2365176D1*
X1045794Y2367553D1*
X1050547Y2369930D1*
X1057732D1*
X1062485Y2365176D1*
X1064917Y2357991D1*
Y2348430D1*
X1062485Y2341245D1*
X1057732Y2336436D1*
X1014677Y2416430D2*
Y2385369D1*
X1064917D1*
Y2416430D1*
X1038609Y2385369D2*
Y2404492D1*
X1014677Y2465363D2*
X1064917D1*
X1014677Y2431870D1*
X1064917D1*
X1021862Y2514295D2*
X1017054Y2509542D1*
X1014677Y2502357D1*
Y2492796D1*
X1017054Y2485611D1*
X1021862Y2480802D1*
X1026615D1*
X1031424Y2483234D1*
X1033800Y2485611D1*
X1036177Y2490364D1*
X1040986Y2504734D1*
X1043362Y2509542D1*
X1045794Y2511919D1*
X1050547Y2514295D1*
X1057732D1*
X1062485Y2509542D1*
X1064917Y2502357D1*
Y2492796D1*
X1062485Y2485611D1*
X1057732Y2480802D1*
X644381Y1195528D2*
X642005Y1200281D1*
X637196Y1205090D1*
X632443Y1207467D1*
X622881D1*
X618073Y1205090D1*
X613320Y1200281D1*
X610888Y1195528D1*
X608511Y1188343D1*
Y1176350D1*
X610888Y1169220D1*
X613320Y1164412D1*
X618073Y1159658D1*
X622881Y1157227D1*
X632443D1*
X637196Y1159658D1*
X642005Y1164412D1*
X644381Y1169220D1*
X659821Y1197850D2*
X664629Y1200281D1*
X671814Y1207411D1*
Y1157227D1*
X1755654Y928636D2*
Y878396D1*
X1771093Y904705D2*
X1792593D1*
X1799778Y907137D1*
X1802210Y909513D1*
X1804586Y914266D1*
Y919075D1*
X1802210Y923828D1*
X1799778Y926260D1*
X1792593Y928636D1*
X1771093D1*
Y878396D1*
X1787839Y904705D2*
X1804586Y878396D1*
X1820025Y904705D2*
X1841525D1*
X1848710Y907137D1*
X1851142Y909513D1*
X1853519Y914266D1*
Y919075D1*
X1851142Y923828D1*
X1848710Y926260D1*
X1841525Y928636D1*
X1820025D1*
Y878396D1*
X1836772Y904705D2*
X1853519Y878396D1*
X1868958Y870106D2*
X1914389D1*
X1965699Y916698D2*
X1963322Y921451D1*
X1958514Y926260D1*
X1953760Y928636D1*
X1944199D1*
X1939390Y926260D1*
X1934637Y921451D1*
X1932205Y916698D1*
X1929829Y909513D1*
Y897520D1*
X1932205Y890390D1*
X1934637Y885581D1*
X1939390Y880828D1*
X1944199Y878396D1*
X1953760D1*
X1958514Y880828D1*
X1963322Y885581D1*
X1965699Y890390D1*
X1995508Y928636D2*
X1990700Y926260D1*
X1985946Y921451D1*
X1983514Y916698D1*
X1981138Y909513D1*
Y897520D1*
X1983514Y890390D1*
X1985946Y885581D1*
X1990700Y880828D1*
X1995508Y878396D1*
X2005070D1*
X2009823Y880828D1*
X2014631Y885581D1*
X2017008Y890390D1*
X2019384Y897520D1*
Y909513D1*
X2017008Y916698D1*
X2014631Y921451D1*
X2009823Y926260D1*
X2005070Y928636D1*
X1995508D1*
X2073070Y878396D2*
Y928636D1*
X2053947Y878396D1*
X2034824Y928636D1*
Y878396D1*
X2126756D2*
Y928636D1*
X2107633Y878396D1*
X2088509Y928636D1*
Y878396D1*
X1391230Y593446D2*
X1386476Y591070D1*
X1381668Y586261D1*
X1379291Y581508D1*
Y571947D1*
X1381668Y567138D1*
X1386476Y562385D1*
X1391230Y559953D1*
X1398415Y557577D1*
X1410408D1*
X1417538Y559953D1*
X1422346Y562385D1*
X1427100Y567138D1*
X1429531Y571947D1*
Y581508D1*
X1427100Y586261D1*
X1422346Y591070D1*
X1417538Y593446D1*
X1391285Y611318D2*
X1388908D1*
X1384100Y613694D1*
X1381723Y616071D1*
X1379347Y620879D1*
Y630441D1*
X1381723Y635194D1*
X1384100Y637571D1*
X1388908Y640002D1*
X1393661D1*
X1398470Y637571D1*
X1405600Y632817D1*
X1429531Y608886D1*
Y642379D1*
X928129Y1279585D2*
X949684D1*
X956814Y1281962D1*
X959246Y1284394D1*
X961622Y1289147D1*
Y1296332D1*
X959246Y1301085D1*
X956814Y1303517D1*
X949684Y1305894D1*
X928129D1*
Y1255654D1*
X977062Y1305894D2*
X989055Y1255654D1*
X1000993Y1305894D1*
X1012931Y1255654D1*
X1024925Y1305894D1*
X1040364Y1281962D2*
X1061864D1*
X1069049Y1284394D1*
X1071481Y1286770D1*
X1073858Y1291524D1*
Y1296332D1*
X1071481Y1301085D1*
X1069049Y1303517D1*
X1061864Y1305894D1*
X1040364D1*
Y1255654D1*
X1057111Y1281962D2*
X1073858Y1255654D1*
X1089297Y1247363D2*
X1134728D1*
X1183661Y1298709D2*
X1178908Y1303517D1*
X1171723Y1305894D1*
X1162161D1*
X1154976Y1303517D1*
X1150168Y1298709D1*
Y1293955D1*
X1152599Y1289147D1*
X1154976Y1286770D1*
X1159729Y1284394D1*
X1174099Y1279585D1*
X1178908Y1277209D1*
X1181284Y1274777D1*
X1183661Y1270024D1*
Y1262839D1*
X1178908Y1258086D1*
X1171723Y1255654D1*
X1162161D1*
X1154976Y1258086D1*
X1150168Y1262839D1*
X1230162Y1305894D2*
X1199100D1*
Y1255654D1*
X1230162D1*
X1199100Y1281962D2*
X1218223D1*
X1245601Y1305894D2*
Y1255654D1*
X1274286D1*
X464957Y2073043D2*
D65*
X462105Y2078747D1*
X456334Y2084517D1*
X450631Y2087369D1*
X439157D1*
X433387Y2084517D1*
X427683Y2078747D1*
X424765Y2073043D1*
X421913Y2064421D1*
Y2050029D1*
X424765Y2041473D1*
X427683Y2035703D1*
X433387Y2029999D1*
X439157Y2027081D1*
X450631D1*
X456334Y2029999D1*
X462105Y2035703D1*
X464957Y2041473D1*
Y2050029D1*
X450631D1*
X523676Y2087369D2*
Y2027081D1*
X483484Y2087369D1*
Y2027081D1*
X542203Y2087369D2*
Y2027081D1*
X562299D1*
X570921Y2029999D1*
X576691Y2035703D1*
X579543Y2041473D1*
X582395Y2050029D1*
Y2064421D1*
X579543Y2073043D1*
X576691Y2078747D1*
X570921Y2084517D1*
X562299Y2087369D1*
X542203D1*
X1614957Y1748043D2*
X1612105Y1753747D1*
X1606334Y1759517D1*
X1600631Y1762369D1*
X1589157D1*
X1583387Y1759517D1*
X1577683Y1753747D1*
X1574765Y1748043D1*
X1571913Y1739421D1*
Y1725029D1*
X1574765Y1716473D1*
X1577683Y1710703D1*
X1583387Y1704999D1*
X1589157Y1702081D1*
X1600631D1*
X1606334Y1704999D1*
X1612105Y1710703D1*
X1614957Y1716473D1*
Y1725029D1*
X1600631D1*
X1673676Y1762369D2*
Y1702081D1*
X1633484Y1762369D1*
Y1702081D1*
X1692203Y1762369D2*
Y1702081D1*
X1712299D1*
X1720921Y1704999D1*
X1726691Y1710703D1*
X1729543Y1716473D1*
X1732395Y1725029D1*
Y1739421D1*
X1729543Y1748043D1*
X1726691Y1753747D1*
X1720921Y1759517D1*
X1712299Y1762369D1*
X1692203D1*
X1602457Y1073043D2*
X1599605Y1078747D1*
X1593834Y1084517D1*
X1588131Y1087369D1*
X1576657D1*
X1570887Y1084517D1*
X1565183Y1078747D1*
X1562265Y1073043D1*
X1559413Y1064421D1*
Y1050029D1*
X1562265Y1041473D1*
X1565183Y1035703D1*
X1570887Y1029999D1*
X1576657Y1027081D1*
X1588131D1*
X1593834Y1029999D1*
X1599605Y1035703D1*
X1602457Y1041473D1*
Y1050029D1*
X1588131D1*
X1661176Y1087369D2*
Y1027081D1*
X1620984Y1087369D1*
Y1027081D1*
X1679703Y1087369D2*
Y1027081D1*
X1699799D1*
X1708421Y1029999D1*
X1714191Y1035703D1*
X1717043Y1041473D1*
X1719895Y1050029D1*
Y1064421D1*
X1717043Y1073043D1*
X1714191Y1078747D1*
X1708421Y1084517D1*
X1699799Y1087369D1*
X1679703D1*
X1602457Y560543D2*
X1599605Y566247D1*
X1593834Y572017D1*
X1588131Y574869D1*
X1576657D1*
X1570887Y572017D1*
X1565183Y566247D1*
X1562265Y560543D1*
X1559413Y551921D1*
Y537529D1*
X1562265Y528973D1*
X1565183Y523203D1*
X1570887Y517499D1*
X1576657Y514581D1*
X1588131D1*
X1593834Y517499D1*
X1599605Y523203D1*
X1602457Y528973D1*
Y537529D1*
X1588131D1*
X1661176Y574869D2*
Y514581D1*
X1620984Y574869D1*
Y514581D1*
X1679703Y574869D2*
Y514581D1*
X1699799D1*
X1708421Y517499D1*
X1714191Y523203D1*
X1717043Y528973D1*
X1719895Y537529D1*
Y551921D1*
X1717043Y560543D1*
X1714191Y566247D1*
X1708421Y572017D1*
X1699799Y574869D1*
X1679703D1*
X1559413Y724869D2*
X1582361Y664581D1*
X1605308Y724869D1*
X1666879Y710543D2*
X1664028Y716247D1*
X1658257Y722017D1*
X1652554Y724869D1*
X1641080D1*
X1635309Y722017D1*
X1629606Y716247D1*
X1626687Y710543D1*
X1623836Y701921D1*
Y687529D1*
X1626687Y678973D1*
X1629606Y673203D1*
X1635309Y667499D1*
X1641080Y664581D1*
X1652554D1*
X1658257Y667499D1*
X1664028Y673203D1*
X1666879Y678973D1*
X1728450Y710543D2*
X1725599Y716247D1*
X1719828Y722017D1*
X1714125Y724869D1*
X1702651D1*
X1696880Y722017D1*
X1691177Y716247D1*
X1688258Y710543D1*
X1685407Y701921D1*
Y687529D1*
X1688258Y678973D1*
X1691177Y673203D1*
X1696880Y667499D1*
X1702651Y664581D1*
X1714125D1*
X1719828Y667499D1*
X1725599Y673203D1*
X1728450Y678973D1*
X434413Y1949869D2*
X457361Y1889581D1*
X480308Y1949869D1*
X541879Y1935543D2*
X539028Y1941247D1*
X533257Y1947017D1*
X527554Y1949869D1*
X516080D1*
X510309Y1947017D1*
X504606Y1941247D1*
X501687Y1935543D1*
X498836Y1926921D1*
Y1912529D1*
X501687Y1903973D1*
X504606Y1898203D1*
X510309Y1892499D1*
X516080Y1889581D1*
X527554D1*
X533257Y1892499D1*
X539028Y1898203D1*
X541879Y1903973D1*
X603450Y1935543D2*
X600599Y1941247D1*
X594828Y1947017D1*
X589125Y1949869D1*
X577651D1*
X571880Y1947017D1*
X566177Y1941247D1*
X563258Y1935543D1*
X560407Y1926921D1*
Y1912529D1*
X563258Y1903973D1*
X566177Y1898203D1*
X571880Y1892499D1*
X577651Y1889581D1*
X589125D1*
X594828Y1892499D1*
X600599Y1898203D1*
X603450Y1903973D1*
X434448Y531236D2*
Y470948D1*
X454544D1*
X463166Y473866D1*
X468936Y479570D1*
X471788Y485340D1*
X474640Y493896D1*
Y508288D1*
X471788Y516910D1*
X468936Y522614D1*
X463166Y528384D1*
X454544Y531236D1*
X434448D1*
X518967Y526892D2*
Y475226D1*
X493167Y501026D2*
X544833D1*
X464957Y1573043D2*
X462105Y1578747D1*
X456334Y1584517D1*
X450631Y1587369D1*
X439157D1*
X433387Y1584517D1*
X427683Y1578747D1*
X424765Y1573043D1*
X421913Y1564421D1*
Y1550029D1*
X424765Y1541473D1*
X427683Y1535703D1*
X433387Y1529999D1*
X439157Y1527081D1*
X450631D1*
X456334Y1529999D1*
X462105Y1535703D1*
X464957Y1541473D1*
Y1550029D1*
X450631D1*
X523676Y1587369D2*
Y1527081D1*
X483484Y1587369D1*
Y1527081D1*
X542203Y1587369D2*
Y1527081D1*
X562299D1*
X570921Y1529999D1*
X576691Y1535703D1*
X579543Y1541473D1*
X582395Y1550029D1*
Y1564421D1*
X579543Y1573043D1*
X576691Y1578747D1*
X570921Y1584517D1*
X562299Y1587369D1*
X542203D1*
X842976Y2057587D2*
X837272Y2054735D1*
X831502Y2048965D1*
X828650Y2043261D1*
Y2031787D1*
X831502Y2026017D1*
X837272Y2020313D1*
X842976Y2017395D1*
X851598Y2014543D1*
X865990D1*
X874545Y2017395D1*
X880316Y2020313D1*
X886019Y2026017D1*
X888938Y2031787D1*
Y2043261D1*
X886019Y2048964D1*
X880316Y2054735D1*
X874546Y2057587D1*
X865990D1*
Y2043261D1*
X828650Y2116306D2*
X888938D1*
X828650Y2076114D1*
X888938D1*
X828650Y2134833D2*
X888938D1*
Y2154929D1*
X886019Y2163551D1*
X880316Y2169321D1*
X874545Y2172173D1*
X865990Y2175025D1*
X851598D1*
X842976Y2172173D1*
X837272Y2169321D1*
X831502Y2163551D1*
X828650Y2154929D1*
Y2134833D1*
X1209353Y1996338D2*
X1269641Y2019286D1*
X1209353Y2042234D1*
X1223679Y2103805D2*
X1217975Y2100953D1*
X1212205Y2095183D1*
X1209353Y2089479D1*
Y2078005D1*
X1212205Y2072235D1*
X1217975Y2066531D1*
X1223679Y2063613D1*
X1232301Y2060761D1*
X1246693D1*
X1255249Y2063613D1*
X1261019Y2066531D1*
X1266723Y2072235D1*
X1269641Y2078005D1*
Y2089479D1*
X1266723Y2095183D1*
X1261019Y2100953D1*
X1255249Y2103805D1*
X1223679Y2165376D2*
X1217975Y2162524D1*
X1212205Y2156754D1*
X1209353Y2151050D1*
Y2139576D1*
X1212205Y2133806D1*
X1217975Y2128102D1*
X1223679Y2125184D1*
X1232301Y2122332D1*
X1246693D1*
X1255249Y2125184D1*
X1261019Y2128102D1*
X1266723Y2133806D1*
X1269641Y2139576D1*
Y2151050D1*
X1266723Y2156754D1*
X1261019Y2162524D1*
X1255249Y2165376D1*
X434448Y668736D2*
Y608448D1*
X454544D1*
X463166Y611366D1*
X468936Y617070D1*
X471788Y622840D1*
X474640Y631396D1*
Y645788D1*
X471788Y654410D1*
X468936Y660114D1*
X463166Y665884D1*
X454544Y668736D1*
X434448D1*
X493167Y638559D2*
X526329D1*
X421913Y812369D2*
X436305Y752081D1*
X450631Y812369D1*
X464957Y752081D1*
X479349Y812369D1*
X543838Y752081D2*
X520824Y812369D1*
X497876Y752081D1*
X506498Y772177D2*
X535216D1*
X562365Y812369D2*
Y752081D1*
X602557Y812369D2*
X562365Y772177D1*
X576691Y786569D2*
X602557Y752081D1*
X658358Y812369D2*
X621084D1*
Y752081D1*
X658358D1*
X621084Y783651D2*
X644032D1*
X439192Y943736D2*
X433488Y940951D1*
X427718Y935180D1*
X424866Y929410D1*
X421948Y920788D1*
Y906462D1*
X424866Y897840D1*
X427718Y892137D1*
X433488Y886366D1*
X439192Y883515D1*
X450666D1*
X456436Y886366D1*
X462140Y892137D1*
X464992Y897840D1*
X467910Y906462D1*
Y920788D1*
X464992Y929410D1*
X462140Y935180D1*
X456436Y940951D1*
X450666Y943736D1*
X439192D1*
X447814Y894988D2*
X464992Y877744D1*
X486437Y943736D2*
Y900692D1*
X489289Y892070D1*
X495059Y886366D1*
X503681Y883448D1*
X509385D1*
X518007Y886366D1*
X523777Y892070D1*
X526629Y900692D1*
Y943736D1*
X591119Y883448D2*
X568104Y943736D1*
X545156Y883448D1*
X553778Y903544D2*
X582496D1*
X609646Y943736D2*
Y883448D1*
X644067D1*
X486194Y1448250D2*
D66*
X425000Y1413762D1*
X486194Y1379362D1*
X510897Y1413806D2*
X555113D1*
X425000Y1276306D2*
X469215D1*
X493918Y1310750D2*
X555113Y1276262D1*
X493918Y1241862D1*
X1673694Y1385750D2*
X1612500Y1351262D1*
X1673694Y1316862D1*
X1698397Y1351306D2*
X1742613D1*
X1612500Y1201306D2*
X1656715D1*
X1681418Y1235750D2*
X1742613Y1201262D1*
X1681418Y1166862D1*
X1661194Y2048250D2*
X1600000Y2013762D1*
X1661194Y1979362D1*
X1685897Y2013806D2*
X1730113D1*
X1600000Y1876306D2*
X1644215D1*
X1668918Y1910750D2*
X1730113Y1876262D1*
X1668918Y1841862D1*
X1363337Y2105168D2*
X1397825Y2043974D1*
X1432225Y2105168D1*
X1397781Y2129871D2*
Y2174086D1*
X1522781Y2043974D2*
Y2088189D1*
X1488337Y2112892D2*
X1522825Y2174086D1*
X1557225Y2112892D1*
X1034413Y774869D2*
D65*
Y714581D1*
X1068834D1*
X1087362Y774869D2*
Y714581D1*
X1107458D1*
X1116080Y717499D1*
X1121850Y723203D1*
X1124702Y728973D1*
X1127554Y737529D1*
Y751921D1*
X1124702Y760543D1*
X1121850Y766247D1*
X1116080Y772017D1*
X1107458Y774869D1*
X1087362D1*
X1163325D2*
X1157555Y772017D1*
X1151851Y766247D1*
X1148933Y760543D1*
X1146081Y751921D1*
Y737529D1*
X1148933Y728973D1*
X1151851Y723203D1*
X1157555Y717499D1*
X1163325Y714581D1*
X1174799D1*
X1180503Y717499D1*
X1186273Y723203D1*
X1189125Y728973D1*
X1191976Y737529D1*
Y751921D1*
X1189125Y760543D1*
X1186273Y766247D1*
X1180503Y772017D1*
X1174799Y774869D1*
X1163325D1*
X1034413Y662369D2*
Y602081D1*
X1054509D1*
X1063131Y604999D1*
X1068901Y610703D1*
X1071753Y616473D1*
X1074605Y625029D1*
Y639421D1*
X1071753Y648043D1*
X1068901Y653747D1*
X1063131Y659517D1*
X1054509Y662369D1*
X1034413D1*
X1093132D2*
Y602081D1*
X1111659Y633651D2*
X1137459D1*
X1146081Y636569D1*
X1148999Y639421D1*
X1151851Y645125D1*
Y650895D1*
X1148999Y656599D1*
X1146081Y659517D1*
X1137459Y662369D1*
X1111659D1*
Y602081D1*
X1131755Y633651D2*
X1151851Y602081D1*
X1207652Y662369D2*
X1170378D1*
Y602081D1*
X1207652D1*
X1170378Y633651D2*
X1193326D1*
X1269223Y648043D2*
X1266371Y653747D1*
X1260601Y659517D1*
X1254897Y662369D1*
X1243423D1*
X1237653Y659517D1*
X1231949Y653747D1*
X1229031Y648043D1*
X1226179Y639421D1*
Y625029D1*
X1229031Y616473D1*
X1231949Y610703D1*
X1237653Y604999D1*
X1243423Y602081D1*
X1254897D1*
X1260601Y604999D1*
X1266371Y610703D1*
X1269223Y616473D1*
X1307846Y662369D2*
Y602081D1*
X1287750Y662369D2*
X1327942D1*
M02*
