G04 DipTrace 3.3.1.3*
G04 Topsidev0.2b.gbs*
%MOMM*%
G04 #@! TF.FileFunction,Soldermask,Bot*
G04 #@! TF.Part,Single*
%ADD51C,1.3*%
%ADD59O,2.0X1.7*%
%ADD60R,2.0X1.7*%
%ADD63C,1.8796*%
%ADD101C,1.4*%
%ADD109O,2.2X3.2*%
%ADD111R,2.2X3.2*%
%ADD123C,1.9*%
%ADD124C,1.5*%
%ADD125R,1.9X1.9*%
%ADD136O,2.2X1.9*%
%ADD138O,1.0X1.55*%
%ADD140C,1.1*%
%ADD142O,2.1X3.1*%
%ADD144O,3.1X2.1*%
%ADD146R,2.7X2.7*%
%ADD148C,2.7*%
%ADD150R,1.9X2.2*%
%ADD152O,1.9X2.2*%
%ADD156C,2.2*%
%FSLAX35Y35*%
G04*
G71*
G90*
G75*
G01*
G04 BotMask*
%LPD*%
D156*
X-984250Y2079623D3*
X1428750Y1254127D3*
X984250Y6699250D3*
X-2873377Y5032373D3*
X-841377Y7540623D3*
D152*
X-1932377Y6528997D3*
X-1678377D3*
X-1424377D3*
D150*
X-1170377D3*
D148*
X2413000Y1206500D3*
D146*
X2063000D3*
D124*
X1746250Y8128000D3*
Y8328000D3*
Y7878000D3*
D51*
Y8578000D3*
D144*
X1686250Y7571000D3*
D142*
X1268250Y8228000D3*
D144*
X1686250Y8885000D3*
D148*
X-4548500Y4237497D3*
Y4587497D3*
Y4937497D3*
D146*
Y5287497D3*
D148*
X-4564373Y1651370D3*
Y2001370D3*
Y2351370D3*
D146*
Y2701370D3*
D148*
X-4310063Y8072437D3*
Y8422437D3*
D146*
Y8772437D3*
D140*
X-3143250Y6080127D3*
D138*
X-2655750Y6102127D3*
D140*
X-2948250Y6180127D3*
X-3013250Y6080127D3*
X-2883250D3*
X-3078250Y6180127D3*
D138*
X-3370250Y6102127D3*
D136*
X-408377Y2909500D3*
D59*
Y3163500D3*
D60*
Y3417500D3*
D63*
X1390000Y3109373D3*
X1136000Y3134773D3*
X882000Y3109373D3*
X628000Y3134773D3*
X374000Y3109373D3*
X120000Y3134773D3*
D148*
X-5012130Y6401997D3*
Y6751997D3*
D146*
Y7101997D3*
D148*
X1607117Y6851283D3*
D146*
Y7201283D3*
D125*
X1718873Y2861873D3*
D123*
Y3115873D3*
X1972873Y2861873D3*
Y3115873D3*
X2226873Y2861873D3*
Y3115873D3*
X2480873Y2861873D3*
Y3115873D3*
D156*
X131377Y3560370D3*
X575873Y5116120D3*
X30000Y5709373D3*
D111*
X3270250Y5667377D3*
D109*
X3016250D3*
X2762250D3*
D101*
X220000Y5519370D3*
X368493Y5370877D3*
D148*
X-6048377Y12192000D3*
D146*
X-6398377D3*
M02*
