G04 DipTrace 3.3.1.3*
G04 Topsidev0.2b.gml*
%MOMM*%
G04 #@! TF.FileFunction,Profile*
G04 #@! TF.Part,Single*
%ADD11C,0.14*%
%FSLAX35Y35*%
G04*
G71*
G90*
G75*
G01*
G04 BoardOutline*
%LPD*%
X3567250Y473983D2*
D11*
G02X5269250Y473983I851000J-422216D01*
G01*
G03X5627583Y251750I358376J177844D01*
G01*
X15018250D1*
G03X15418250Y651750I-32J400032D01*
G01*
Y1701750D1*
G02X15568250Y1851750I149998J2D01*
G01*
X15718250D1*
G03X16118250Y2251750I-32J400032D01*
G01*
Y12651750D1*
G03X15718250Y13051750I-400032J-32D01*
G01*
X15568250D1*
G02X15418250Y13201750I-2J149998D01*
G01*
Y14251750D1*
G03X15018250Y14651750I-400032J-32D01*
G01*
X5627583D1*
G03X5269250Y14429517I43J-400077D01*
G01*
G02X3567250Y14429517I-851000J422216D01*
G01*
G03X3208917Y14651750I-358376J-177844D01*
G01*
X-6181750D1*
G03X-6581750Y14251750I32J-400032D01*
G01*
Y13201750D1*
G02X-6731750Y13051750I-149998J-2D01*
G01*
X-6881750D1*
G03X-7281750Y12651750I32J-400032D01*
G01*
Y2251750D1*
G03X-6881750Y1851750I400032J32D01*
G01*
X-6731750D1*
G02X-6581750Y1701750I2J-149998D01*
G01*
Y651750D1*
G03X-6181750Y251750I400032J32D01*
G01*
X3208917D1*
G03X3567250Y473983I-43J400077D01*
G01*
D3*
X13518250Y6330750D2*
Y4830750D1*
X13498443Y4743973D1*
X13442950Y4674383D1*
X13362757Y4635763D1*
X13273750D1*
X13193557Y4674383D1*
X13138060Y4743970D1*
X13118253Y4830747D1*
X13118250Y6330750D1*
X13138057Y6417527D1*
X13193553Y6487117D1*
X13273750Y6525737D1*
X13362757D1*
X13442953Y6487113D1*
X13498447Y6417523D1*
X13518253Y6330747D1*
X5478250Y3270750D2*
Y1753517D1*
X5458443Y1666740D1*
X5402950Y1597150D1*
X5322757Y1558530D1*
X5233750D1*
X5153557Y1597150D1*
X5098060Y1666737D1*
X5078253Y1753513D1*
X5078250Y3270750D1*
X5098057Y3357527D1*
X5153553Y3427117D1*
X5233750Y3465737D1*
X5322757D1*
X5402953Y3427113D1*
X5458447Y3357523D1*
X5478253Y3270747D1*
X5478250Y6330750D2*
Y4830750D1*
X5458443Y4743973D1*
X5402950Y4674383D1*
X5322757Y4635763D1*
X5233750D1*
X5153557Y4674383D1*
X5098060Y4743970D1*
X5078253Y4830747D1*
X5078250Y6330750D1*
X5098057Y6417527D1*
X5153553Y6487117D1*
X5233750Y6525737D1*
X5322757D1*
X5402953Y6487113D1*
X5458447Y6417523D1*
X5478253Y6330747D1*
X13518250Y3270750D2*
Y1753517D1*
X13498443Y1666740D1*
X13442950Y1597150D1*
X13362757Y1558530D1*
X13273750D1*
X13193557Y1597150D1*
X13138060Y1666737D1*
X13118253Y1753513D1*
X13118250Y3270750D1*
X13138057Y3357527D1*
X13193553Y3427117D1*
X13273750Y3465737D1*
X13362757D1*
X13442953Y3427113D1*
X13498447Y3357523D1*
X13518253Y3270747D1*
X3018250Y10351750D2*
X2998443Y10264973D1*
X2942950Y10195383D1*
X2862757Y10156763D1*
X2773750D1*
X2693557Y10195383D1*
X2638060Y10264970D1*
X2618253Y10351747D1*
X2638057Y10438527D1*
X2693553Y10508117D1*
X2773750Y10546737D1*
X2862757D1*
X2942953Y10508113D1*
X2998447Y10438523D1*
X3018253Y10351747D1*
X-2381750Y13051750D2*
X-2401557Y12964973D1*
X-2457050Y12895383D1*
X-2537243Y12856763D1*
X-2626250D1*
X-2706443Y12895383D1*
X-2761940Y12964970D1*
X-2781747Y13051747D1*
X-2761943Y13138527D1*
X-2706447Y13208117D1*
X-2626250Y13246737D1*
X-2537243D1*
X-2457047Y13208113D1*
X-2401553Y13138523D1*
X-2381747Y13051747D1*
X-5081750Y13051750D2*
X-5101557Y12964973D1*
X-5157050Y12895383D1*
X-5237243Y12856763D1*
X-5326250D1*
X-5406443Y12895383D1*
X-5461940Y12964970D1*
X-5481747Y13051747D1*
X-5461943Y13138527D1*
X-5406447Y13208117D1*
X-5326250Y13246737D1*
X-5237243D1*
X-5157047Y13208113D1*
X-5101553Y13138523D1*
X-5081747Y13051747D1*
X318250Y13051750D2*
X298443Y12964973D1*
X242950Y12895383D1*
X162757Y12856763D1*
X73750D1*
X-6443Y12895383D1*
X-61940Y12964970D1*
X-81747Y13051747D1*
X-61943Y13138527D1*
X-6447Y13208117D1*
X73750Y13246737D1*
X162757D1*
X242953Y13208113D1*
X298447Y13138523D1*
X318253Y13051747D1*
X3018250Y13051750D2*
X2998443Y12964973D1*
X2942950Y12895383D1*
X2862757Y12856763D1*
X2773750D1*
X2693557Y12895383D1*
X2638060Y12964970D1*
X2618253Y13051747D1*
X2638057Y13138527D1*
X2693553Y13208117D1*
X2773750Y13246737D1*
X2862757D1*
X2942953Y13208113D1*
X2998447Y13138523D1*
X3018253Y13051747D1*
X-131750Y10651750D2*
X-138050Y10531543D1*
X-156880Y10412653D1*
X-188033Y10296380D1*
X-231173Y10184003D1*
X-285820Y10076750D1*
X-351380Y9975797D1*
X-427133Y9882250D1*
X-512247Y9797133D1*
X-605793Y9721380D1*
X-706747Y9655820D1*
X-814000Y9601173D1*
X-926377Y9558037D1*
X-1042650Y9526880D1*
X-1161540Y9508050D1*
X-1281747Y9501750D1*
X-1401953Y9508050D1*
X-1520843Y9526880D1*
X-1637117Y9558033D1*
X-1749493Y9601173D1*
X-1856747Y9655820D1*
X-1957700Y9721380D1*
X-2051247Y9797133D1*
X-2136363Y9882247D1*
X-2212117Y9975793D1*
X-2277677Y10076747D1*
X-2332323Y10184000D1*
X-2375460Y10296377D1*
X-2406617Y10412650D1*
X-2425447Y10531540D1*
X-2431747Y10651747D1*
X-2425450Y10771957D1*
X-2406620Y10890850D1*
X-2375463Y11007120D1*
X-2332327Y11119497D1*
X-2277677Y11226750D1*
X-2212117Y11327703D1*
X-2136367Y11421250D1*
X-2051250Y11506367D1*
X-1957700Y11582120D1*
X-1856747Y11647680D1*
X-1749493Y11702327D1*
X-1637117Y11745467D1*
X-1520847Y11776620D1*
X-1401953Y11795450D1*
X-1281747Y11801750D1*
X-1161540Y11795450D1*
X-1042647Y11776620D1*
X-926377Y11745463D1*
X-814000Y11702327D1*
X-706747Y11647677D1*
X-605793Y11582117D1*
X-512247Y11506367D1*
X-427130Y11421250D1*
X-351377Y11327700D1*
X-285817Y11226747D1*
X-231170Y11119493D1*
X-188030Y11007117D1*
X-156877Y10890847D1*
X-138047Y10771953D1*
X-131747Y10651747D1*
X2368250Y10651750D2*
X2361950Y10531543D1*
X2343120Y10412653D1*
X2311967Y10296380D1*
X2268827Y10184003D1*
X2214180Y10076750D1*
X2148620Y9975797D1*
X2072867Y9882250D1*
X1987753Y9797133D1*
X1894207Y9721380D1*
X1793253Y9655820D1*
X1686000Y9601173D1*
X1573623Y9558037D1*
X1457350Y9526880D1*
X1338460Y9508050D1*
X1218253Y9501750D1*
X1098047Y9508050D1*
X979157Y9526880D1*
X862883Y9558033D1*
X750507Y9601173D1*
X643253Y9655820D1*
X542300Y9721380D1*
X448753Y9797133D1*
X363637Y9882247D1*
X287883Y9975793D1*
X222323Y10076747D1*
X167677Y10184000D1*
X124540Y10296377D1*
X93383Y10412650D1*
X74553Y10531540D1*
X68253Y10651747D1*
X74550Y10771957D1*
X93380Y10890850D1*
X124537Y11007120D1*
X167673Y11119497D1*
X222323Y11226750D1*
X287883Y11327703D1*
X363633Y11421250D1*
X448750Y11506367D1*
X542300Y11582120D1*
X643253Y11647680D1*
X750507Y11702327D1*
X862883Y11745467D1*
X979153Y11776620D1*
X1098047Y11795450D1*
X1218253Y11801750D1*
X1338460Y11795450D1*
X1457353Y11776620D1*
X1573623Y11745463D1*
X1686000Y11702327D1*
X1793253Y11647677D1*
X1894207Y11582117D1*
X1987753Y11506367D1*
X2072870Y11421250D1*
X2148623Y11327700D1*
X2214183Y11226747D1*
X2268830Y11119493D1*
X2311970Y11007117D1*
X2343123Y10890847D1*
X2361953Y10771953D1*
X2368253Y10651747D1*
X-2631750Y10651750D2*
X-2638050Y10531543D1*
X-2656880Y10412653D1*
X-2688033Y10296380D1*
X-2731173Y10184003D1*
X-2785820Y10076750D1*
X-2851380Y9975797D1*
X-2927133Y9882250D1*
X-3012247Y9797133D1*
X-3105793Y9721380D1*
X-3206747Y9655820D1*
X-3314000Y9601173D1*
X-3426377Y9558037D1*
X-3542650Y9526880D1*
X-3661540Y9508050D1*
X-3781747Y9501750D1*
X-3901953Y9508050D1*
X-4020843Y9526880D1*
X-4137117Y9558033D1*
X-4249493Y9601173D1*
X-4356747Y9655820D1*
X-4457700Y9721380D1*
X-4551247Y9797133D1*
X-4636363Y9882247D1*
X-4712117Y9975793D1*
X-4777677Y10076747D1*
X-4832323Y10184000D1*
X-4875460Y10296377D1*
X-4906617Y10412650D1*
X-4925447Y10531540D1*
X-4931747Y10651747D1*
X-4925450Y10771957D1*
X-4906620Y10890850D1*
X-4875463Y11007120D1*
X-4832327Y11119497D1*
X-4777677Y11226750D1*
X-4712117Y11327703D1*
X-4636367Y11421250D1*
X-4551250Y11506367D1*
X-4457700Y11582120D1*
X-4356747Y11647680D1*
X-4249493Y11702327D1*
X-4137117Y11745467D1*
X-4020847Y11776620D1*
X-3901953Y11795450D1*
X-3781747Y11801750D1*
X-3661540Y11795450D1*
X-3542647Y11776620D1*
X-3426377Y11745463D1*
X-3314000Y11702327D1*
X-3206747Y11647677D1*
X-3105793Y11582117D1*
X-3012247Y11506367D1*
X-2927130Y11421250D1*
X-2851377Y11327700D1*
X-2785817Y11226747D1*
X-2731170Y11119493D1*
X-2688030Y11007117D1*
X-2656877Y10890847D1*
X-2638047Y10771953D1*
X-2631747Y10651747D1*
X8782150Y10141250D2*
X8763203Y10046000D1*
X8709250Y9965253D1*
X8628503Y9911297D1*
X8533253Y9892350D1*
X8334373Y9985373D1*
X8357257Y9965250D1*
X8303300Y10045997D1*
X8284353Y10141247D1*
X8303297Y10236500D1*
X8357253Y10317250D1*
X8438003Y10371203D1*
X8533253Y10390150D1*
X8628503Y10371203D1*
X8709253Y10317247D1*
X8763207Y10236497D1*
X8782153Y10141247D1*
X15443250Y11201750D2*
X15426123Y11115647D1*
X15377350Y11042650D1*
X15304357Y10993877D1*
X15218253Y10976750D1*
X15132150Y10993877D1*
X15059153Y11042650D1*
X15010380Y11115643D1*
X14993253Y11201747D1*
X15010377Y11287853D1*
X15059153Y11360850D1*
X15132150Y11409623D1*
X15218253Y11426750D1*
X15304357Y11409623D1*
X15377353Y11360847D1*
X15426127Y11287850D1*
X15443253Y11201747D1*
X15443250Y3701750D2*
X15426123Y3615647D1*
X15377350Y3542650D1*
X15304357Y3493877D1*
X15218253Y3476750D1*
X15132150Y3493877D1*
X15059153Y3542650D1*
X15010380Y3615643D1*
X14993253Y3701747D1*
X15010377Y3787853D1*
X15059153Y3860850D1*
X15132150Y3909623D1*
X15218253Y3926750D1*
X15304357Y3909623D1*
X15377353Y3860847D1*
X15426127Y3787850D1*
X15443253Y3701747D1*
X-4881750Y1051750D2*
X-4898877Y965647D1*
X-4947650Y892650D1*
X-5020643Y843877D1*
X-5106747Y826750D1*
X-5192850Y843877D1*
X-5265847Y892650D1*
X-5314620Y965643D1*
X-5331747Y1051747D1*
X-5314623Y1137853D1*
X-5265847Y1210850D1*
X-5192850Y1259623D1*
X-5106747Y1276750D1*
X-5020643Y1259623D1*
X-4947647Y1210847D1*
X-4898873Y1137850D1*
X-4881747Y1051747D1*
X-6156750Y7451750D2*
X-6173877Y7365647D1*
X-6222650Y7292650D1*
X-6295643Y7243877D1*
X-6381747Y7226750D1*
X-6467850Y7243877D1*
X-6540847Y7292650D1*
X-6589620Y7365643D1*
X-6606747Y7451747D1*
X-6589623Y7537853D1*
X-6540847Y7610850D1*
X-6467850Y7659623D1*
X-6381747Y7676750D1*
X-6295643Y7659623D1*
X-6222647Y7610847D1*
X-6173873Y7537850D1*
X-6156747Y7451747D1*
X-4881750Y13851750D2*
X-4898877Y13765647D1*
X-4947650Y13692650D1*
X-5020643Y13643877D1*
X-5106747Y13626750D1*
X-5192850Y13643877D1*
X-5265847Y13692650D1*
X-5314620Y13765643D1*
X-5331747Y13851747D1*
X-5314623Y13937853D1*
X-5265847Y14010850D1*
X-5192850Y14059623D1*
X-5106747Y14076750D1*
X-5020643Y14059623D1*
X-4947647Y14010847D1*
X-4898873Y13937850D1*
X-4881747Y13851747D1*
X-6156750Y11201750D2*
X-6173877Y11115647D1*
X-6222650Y11042650D1*
X-6295643Y10993877D1*
X-6381747Y10976750D1*
X-6467850Y10993877D1*
X-6540847Y11042650D1*
X-6589620Y11115643D1*
X-6606747Y11201747D1*
X-6589623Y11287853D1*
X-6540847Y11360850D1*
X-6467850Y11409623D1*
X-6381747Y11426750D1*
X-6295643Y11409623D1*
X-6222647Y11360847D1*
X-6173873Y11287850D1*
X-6156747Y11201747D1*
X-6156750Y3701750D2*
X-6173877Y3615647D1*
X-6222650Y3542650D1*
X-6295643Y3493877D1*
X-6381747Y3476750D1*
X-6467850Y3493877D1*
X-6540847Y3542650D1*
X-6589620Y3615643D1*
X-6606747Y3701747D1*
X-6589623Y3787853D1*
X-6540847Y3860850D1*
X-6467850Y3909623D1*
X-6381747Y3926750D1*
X-6295643Y3909623D1*
X-6222647Y3860847D1*
X-6173873Y3787850D1*
X-6156747Y3701747D1*
X14168250Y1051750D2*
X14151123Y965647D1*
X14102350Y892650D1*
X14029357Y843877D1*
X13943253Y826750D1*
X13857150Y843877D1*
X13784153Y892650D1*
X13735380Y965643D1*
X13718253Y1051747D1*
X13735377Y1137853D1*
X13784153Y1210850D1*
X13857150Y1259623D1*
X13943253Y1276750D1*
X14029357Y1259623D1*
X14102353Y1210847D1*
X14151127Y1137850D1*
X14168253Y1051747D1*
X15443250Y7451750D2*
X15426123Y7365647D1*
X15377350Y7292650D1*
X15304357Y7243877D1*
X15218253Y7226750D1*
X15132150Y7243877D1*
X15059153Y7292650D1*
X15010380Y7365643D1*
X14993253Y7451747D1*
X15010377Y7537853D1*
X15059153Y7610850D1*
X15132150Y7659623D1*
X15218253Y7676750D1*
X15304357Y7659623D1*
X15377353Y7610847D1*
X15426127Y7537850D1*
X15443253Y7451747D1*
X14168250Y13851750D2*
X14151123Y13765647D1*
X14102350Y13692650D1*
X14029357Y13643877D1*
X13943253Y13626750D1*
X13857150Y13643877D1*
X13784153Y13692650D1*
X13735380Y13765643D1*
X13718253Y13851747D1*
X13735377Y13937853D1*
X13784153Y14010850D1*
X13857150Y14059623D1*
X13943253Y14076750D1*
X14029357Y14059623D1*
X14102353Y14010847D1*
X14151127Y13937850D1*
X14168253Y13851747D1*
M02*
