M48
METRIC,0000.00
T01C0.4
T02C0.6
T03C0.762
T04C0.9
T05C1.0
T06C1.016
T07C1.1
T08C1.3
T09C1.4
T10C1.778
%
T01
X-003143Y+006080
X-003078Y+006180
X-003013Y+006080
X-002948Y+006180
X-002883Y+006080
X-002656Y+006067G85X-002656Y+006137
X-003370Y+006067G85X-003370Y+006137
T02
X+000220Y+005519
X+000368Y+005371
T03
X-000667Y+004524
X-000667Y+004985
X-000365Y+005144
X-000440Y+005545
X-000615Y+005497
X-000583Y+005783
X-001154Y+005783
X-001255Y+005439
X-001407Y+005439
X-001678Y+005195
X-001678Y+004783
X-001567Y+004640
X-001363Y+004488
X-001169Y+004451
X-000869Y+003957
X-000519Y+003973
X-000476Y+003683
X-000329Y+003720
X-000190Y+004524
X-000018Y+004823
X+000385Y+004878
X+000746Y+005651
X+000238Y+005858
X+000004Y+005989
X+000385Y+006529
X+000385Y+006799
X+000385Y+006989
X+000658Y+006794
X+000857Y+006953
X+000108Y+006784
X+000381Y+007572
X-000159Y+007684
X-000794Y+006974
X-001615Y+006961
X-002095Y+007422
X-002575Y+007902
X-002635Y+008080
X-002667Y+008509
X-003112Y+008080
X-003080Y+007906
X-003492Y+007906
X-002953Y+006747
X-002683Y+006731
X-002667Y+006255
X-002111Y+006493
X-002111Y+005651
X-002572Y+005604
X-003114Y+004115
X-003599Y+003687
X-003429Y+003191
X-002869Y+002640
X-002663Y+002830
X-002488Y+002640
X-002123Y+002735
X-001640Y+002869
X-001647Y+002243
X-001916Y+002052
X-002313Y+001830
X-002647Y+001957
X-002996Y+001830
X-003397Y+001238
X-001905Y+001492
X-001360Y+002059
X-000968Y+002651
X+000004Y+002894
X+000960Y+003469
X+000909Y+003656
X+001154Y+004346
X+001618Y+004099
X+001842Y+004334
X+002143Y+004096
X+002318Y+004334
X+001853Y+003869
X+001873Y+004858
X+001349Y+004905
X+002334Y+005175
X+001651Y+006239
X+002159Y+008287
X-000651Y+008541
X-004175Y+006080
X-004985Y+005620
X-001885Y+003592
X+003508Y+004032
T04
X-000984Y+002080
X-000408Y+002910
X-000408Y+003163
X-000408Y+003417
X+000131Y+003560
X+000576Y+005116
X+000030Y+005709
X+000984Y+006699
X+001746Y+007878
X+001746Y+008128
X+001746Y+008328
X+001746Y+008578
X-000841Y+007541
X-001170Y+006529
X-001424Y+006529
X-001678Y+006529
X-001932Y+006529
X-002873Y+005032
X+001429Y+001254
T05
X+003270Y+005667
X+003016Y+005667
X+002762Y+005667
T06
X+001390Y+003109
X+001136Y+003135
X+000882Y+003109
X+000628Y+003135
X+000374Y+003109
X+000120Y+003135
T07
X+001719Y+002862
X+001719Y+003116
X+001973Y+003116
X+001973Y+002862
X+002227Y+002862
X+002227Y+003116
X+002481Y+003116
X+002481Y+002862
T08
X+001736Y+007571G85X+001636Y+007571
X+001268Y+008178G85X+001268Y+008278
X+001736Y+008885G85X+001636Y+008885
T09
X+002413Y+001207
X+002063Y+001207
X+001607Y+006851
X+001607Y+007201
X-004310Y+008072
X-004310Y+008422
X-004310Y+008772
X-005012Y+007102
X-005012Y+006752
X-005012Y+006402
X-004548Y+005287
X-004548Y+004937
X-004548Y+004587
X-004548Y+004237
X-004564Y+002701
X-004564Y+002351
X-004564Y+002001
X-004564Y+001651
X-006048Y+012192
X-006398Y+012192
T10
X-002615Y+001211
T00
M30
